<?xml version="1.0" encoding="UTF-8"?>
<svg viewBox="0 0 744.09448819 1052.3622047" xmlns="http://www.w3.org/2000/svg">
 <path d="m173.17 368.69c-4.9766-0.37368-7.3034-0.64513-12.547-1.4636-0.5915-0.09236-2.4467-0.42161-4.1226-0.73178l-3.9434-0.72112c-3.0146-0.52902-13.299-3.3651-18.641-5.1408-5.692-1.8919-8.4372-2.9298-14.339-5.4216-2.0455-0.86355-13.93-6.8256-16.132-8.0931-8.309-4.782-17.75-11.267-25.094-17.238-7.8258-6.3619-19.894-18.468-24.895-24.974-6.7666-8.8026-9.2727-12.37-13.108-18.656-2.7804-4.5583-6.4561-11.713-6.2165-12.101 0.13017-0.21061 0.06785-0.27768-0.13916-0.14973-0.96937 0.5991-9.2736-20.879-11.343-29.338-0.2894-1.183-0.84685-3.2801-1.2388-4.6603-1.9636-6.9148-4.5746-22.824-4.8832-29.754l-0.15962-3.5849 0.32777 3.0471c1.4052 13.063 2.7417 20.423 5.7569 31.705 4.8106 17.999 11.862 33.602 22.044 48.775 10.068 15.004 23.695 29.38 38.283 40.388 4.1475 3.1299 13.854 9.6526 17.08 11.477 19.185 10.853 37.214 17.412 56.859 20.687 10.155 1.6928 14.453 2.0025 27.385 1.9732 12.922-0.02933 16.663-0.33354 27.783-2.259 24.486-4.24 47.845-13.946 68.65-28.525 7.2668-5.0923 15.305-11.881 22.064-18.635 19.849-19.834 33.723-42.191 42.722-68.842 7.1816-21.27 10.403-43.672 9.4089-65.424-0.88741-19.412-4.8945-38.225-11.988-56.282-2.2114-5.6293-8.0254-17.686-10.891-22.585-2.041-3.4893-7.7831-12.166-10.676-16.132-7.2788-9.979-19.037-22.286-28.271-29.591-0.98586-0.77987-1.8731-1.5106-1.9717-1.6238-0.81172-0.93224-10.99-8.0446-16.49-11.523-6.6112-4.1807-17.389-9.6553-23.593-11.985-1.3184-0.49492-2.881-1.1107-3.4725-1.3685-4.9068-2.1382-16.466-5.7782-22.764-7.1682-6.3127-1.3933-14.226-2.7907-18.462-3.26-9.7029-1.0751-25.067-1.3333-32.981-0.55419-20.128 1.9815-38.894 6.8094-54.848 14.11-2.2705 1.039-11.503 5.6551-13.264 6.6315-7.8664 4.3623-18.929 11.808-24.889 16.751-12.76 10.583-23.456 22.21-32.807 35.665-2.927 4.2114-3.931 5.5475-3.2392 4.311 2.6866-4.8025 12.233-17.368 18.247-24.019 2.6526-2.9331 9.7446-9.9149 12.563-12.368 1.3593-1.183 3.2089-2.8162 4.1102-3.6293 1.7562-1.5844 9.978-7.8892 13.709-10.513 9.6721-6.8009 24.448-14.565 35.608-18.71 1.5773-0.58588 3.1099-1.1275 3.4056-1.2036s1.425-0.48757 2.5094-0.91434c3.1126-1.225 14.293-4.3771 19.717-5.5588 13.888-3.0258 30.283-4.4321 43.735-3.7517 30.675 1.5515 59.905 10.904 84.7 27.102 6.2875 4.1073 15.235 10.75 19.197 14.252 15.822 13.985 26.638 27.091 36.624 44.376 3.3947 5.8761 8.1832 15.671 10.056 20.568 0.82921 2.1688 1.7984 4.5886 2.1537 5.3773 1.0736 2.383 5.4193 16.432 6.0433 19.537 0.1783 0.88725 0.8235 3.9523 1.4338 6.8112 1.0179 4.7688 2.5942 15.392 3.0587 20.613 0.51388 5.7761 0.6358 20.201 0.22729 26.886-0.42315 6.9254-1.7554 17.108-3.2597 24.915-4.7588 24.696-17.668 53.598-32.579 72.938-6.9307 8.9897-9.237 11.61-17.213 19.556-8.2343 8.2033-13.38 12.587-21.896 18.655-9.0588 6.4543-20.991 13.241-30.866 17.554-16.958 7.4082-37.317 12.513-55.529 13.925-5.7744 0.44742-19.882 0.37462-26.707-0.13787zm-4.3018-8.6316c-0.5915-0.08265-3.4146-0.39918-6.2735-0.7033-16.714-1.7778-34.832-6.9198-50.367-14.294-4.5161-2.1438-9.9834-4.9285-12.19-6.2092-9.6003-5.5708-17.569-11.185-26.526-18.687-6.117-5.1236-16.319-15.53-20.141-20.545-0.55522-0.72848-2.3175-2.9869-3.9161-5.0188-10.291-13.079-19.348-30.729-24.691-48.115-1.0355-3.3692-1.9994-6.6905-2.1419-7.3806s-0.47072-1.9-0.72921-2.6886c-1.1423-3.4852-3.6113-17.058-4.3041-23.66-0.53809-5.1283-0.89069-9.6919-0.89324-11.561-0.00214-1.5488-0.14141-2.2422-0.4512-2.246-0.34513-0.00421-0.34869-0.06866-0.01545-0.28046 0.55878-0.35515 0.41628-4.2065-0.17761-4.8004-0.24393-0.2439-0.4087-1.2278-0.37585-2.2446l0.05845-1.8104 0.24162 1.9717c0.27437 2.2389 0.3266 2.1436 0.55137-1.0056 0.09532-1.3357 0.02567-2.1766-0.17024-2.0554-0.18238 0.11269-0.43295 0.04097-0.55677-0.1594s-0.09468-0.36571 0.06487-0.36739 0.31195-1.9391 0.33872-4.3054c0.0344-3.0387 0.19236-4.4795 0.53772-4.9054 0.26899-0.33162 0.30752-0.49424 0.08567-0.36139-0.45742 0.27394-0.38722-0.86642 0.43658-7.0944 0.92374-6.9834 1.5044-10.372 2.9008-16.928 0.56734-2.6636 1.0752-4.293 1.2955-4.1568 0.20897 0.12917 0.25168 0.04483 0.10083-0.19922-0.30661-0.49612 0.8947-5.449 1.266-5.2195 0.13851 0.0856 0.17673-0.13167 0.08489-0.48282s0.03068-1.1177 0.27226-1.7033 0.45984-1.1455 0.48501-1.2441l0.5137-2.0605c0.28886-1.1614 0.61481-1.7905 0.85177-1.644 0.24839 0.15351 0.29541 0.00678 0.13327-0.41581-0.32223-0.83972 1.1153-5.2004 1.7144-5.2004 0.24848 0 0.65016-0.66205 0.89256-1.4712s0.53739-1.7229 0.65545-2.0305c0.14039-0.36599 0.07108-0.47053-0.20074-0.30255-0.27593 0.17052-0.33975 0.05986-0.19027-0.32974 0.1801-0.46932 0.28552-0.49092 0.52816-0.10824 0.21178 0.33414 0.30474 0.34803 0.30857 0.04607 0.00656-0.51719 2.8826-7.3156 4.3445-10.27 1.0838-2.1902 1.2824-2.9346 0.68388-2.5648-0.20709 0.12801-0.26083-0.02467-0.12934-0.3674 0.1597-0.41619 0.30105-0.46339 0.48694-0.16263 0.15626 0.25283 1.445-1.7956 3.1949-5.0784 1.6131-3.0262 3.2796-6.0668 3.7032-6.7568 26.106-42.528 67.088-70.767 114.45-78.862 13.239-2.2629 22.346-2.9113 34.611-2.464 9.7331 0.35495 17.697 1.3219 26.511 3.2189l3.9434 0.84594c0.29574 0.0621 2.45 0.61673 4.7872 1.2325 16.717 4.4043 31.755 11.089 48.109 21.387 0.6023 0.37925 3.4049 2.3834 6.2279 4.4536 24.435 17.92 43.047 41.256 54.608 68.471 2.504 5.8947 3.0869 7.4349 5.2911 13.981 3.8172 11.337 6.5611 24.73 7.9318 38.716 0.61547 6.2803 0.50346 22.501-0.20494 29.677-1.3576 13.751-3.7881 26.321-7.0838 36.636-2.4491 7.6647-6.5139 18.286-8.3713 21.875-0.45917 0.88725-1.3843 2.8231-2.0558 4.3018-2.0852 4.592-6.3882 12.036-10.983 18.999-13.465 20.406-33.428 39.438-54.163 51.637-20.312 11.95-43.057 19.678-66 22.424-4.5486 0.54448-27.134 1.0342-29.895 0.64826zm22.585-4.5739c0.59151-0.10097 2.0434-0.26642 3.2264-0.36767 1.8942-0.16216 3.8622-0.46653 13.264-2.0514 4.4063-0.74281 18.627-4.5663 21.151-5.6866 0.39431-0.17508 1.6042-0.6352 2.6886-1.0224 16.411-5.8607 32.864-15.133 47.014-26.495 4.5305-3.6379 12.746-11.104 15.551-14.133 13.431-14.502 21.423-25.909 29.308-41.833 3.2706-6.605 4.5613-9.4772 5.9855-13.319 0.62128-1.6759 1.2925-3.4438 1.4916-3.9287 0.54565-1.3287 3.3588-10.222 4.2006-13.279 2.7222-9.8866 4.9385-22.633 5.797-33.339 0.38969-4.8605 0.51945-20.626 0.18694-22.719-0.09785-0.6161-0.26011-2.2494-0.36051-3.6296-1.9674-27.034-11.815-55.415-26.938-77.637-11.088-16.294-23.199-29.105-37.738-39.921-3.2272-2.4009-10.627-7.3536-12.599-8.4322-0.88381-0.48351-2.1486-1.2462-2.8105-1.695s-2.0332-1.2299-3.0471-1.7359-2.7308-1.3831-3.8152-1.949c-12.869-6.7161-23.391-10.467-40.688-14.505-4.6367-1.0823-11.916-2.1725-19.179-2.8724-5.9226-0.57069-23.115-0.51302-27.783 0.09319-1.5773 0.20484-3.7551 0.46909-4.8396 0.58721-2.9573 0.32218-4.3663 0.53699-9.8584 1.5031-27.269 4.7967-53.156 17.071-75.687 35.886-4.6771 3.9057-13.842 13.044-18.423 18.368-3.375 3.9232-10.774 13.739-12.371 16.411-0.20267 0.33926-1.1557 1.8267-2.1177 3.3055-3.3586 5.1623-8.5462 14.866-11.374 21.275-4.6205 10.473-9.022 24.833-11.279 36.799-2.5075 13.292-3.1545 19.969-3.144 32.443 0.0153 18.29 1.9594 32.026 7.078 50.009 5.3343 18.741 15.172 37.771 27.427 53.056 1.5018 1.8731 2.8272 3.4863 2.9454 3.5848s1.6718 1.8731 3.4526 3.9434c3.352 3.8969 9.8256 10.338 13.517 13.45 1.165 0.98197 2.6975 2.2856 3.4056 2.8969 2.3615 2.0388 10.203 7.8668 14.092 10.474 6.8511 4.5924 16.488 9.9028 23.206 12.788 1.4881 0.63906 3.4315 1.5 4.3188 1.9131 3.7583 1.75 13.509 5.0912 20.434 7.0021 7.1128 1.9627 14.922 3.4182 23.287 4.3404 2.6698 0.29433 5.4188 0.60315 6.1089 0.68627 1.6725 0.2015 23.544-0.03161 24.915-0.26553zm-25.99-4.055c-7.6817-0.54759-11.656-1.0316-17.566-2.1388-16.35-3.0635-29.523-7.5105-43.915-14.825-8.2538-4.1949-16.393-9.1872-22.226-13.632l-5.3773-4.1002c-14.063-10.727-29.601-28.956-38.353-44.993-4.2861-7.8547-8.5138-17.125-10.224-22.418-0.44595-1.3802-0.90915-2.6707-1.0293-2.8679s-0.39891-1.0038-0.61942-1.7924-1.0482-3.6924-1.8394-6.4528c-3.5401-12.352-5.1691-21.627-6.1702-35.132-0.61813-8.3388-0.1936-23.903 0.87514-32.084 0.44295-3.3907 1.6681-10.681 2.199-13.085 0.30484-1.3802 0.76613-3.4773 1.0251-4.6603 4.0529-18.513 12.14-37.473 22.938-53.773 22.169-33.467 55.147-57.107 93.539-67.055 2.7409-0.71024 5.2817-1.2134 5.6462-1.1181s0.66263 0.04817 0.66263-0.10472 0.52428-0.37058 1.1651-0.48371 2.8589-0.52192 4.9292-0.90848 4.974-0.81595 6.4527-0.95424 2.7752-0.30339 2.8809-0.36692 1.6382-0.22431 3.4056-0.35731 3.3272-0.3112 3.4664-0.39601c0.66506-0.40542 20.638-0.08468 25.552 0.41031 15.245 1.5358 28.834 4.9141 43.921 10.919 7.2421 2.8826 20.924 10.03 25.532 13.338 0.63822 0.45813 1.4405 0.99426 1.7828 1.1914 5.1262 2.9524 19.05 14.268 23.449 19.057 0.61237 0.66664 2.5482 2.7011 4.3018 4.5211 10.861 11.272 21.529 27.154 28.469 42.384 7.2004 15.801 12.415 35.119 13.79 51.084 0.74155 8.6123 0.86229 10.972 0.84615 16.535-0.03161 10.902-1.3789 24.139-3.4071 33.473l-1.2045 5.5565c-0.85219 3.939-3.8506 13.798-5.8488 19.232-3.0524 8.3-7.6044 17.974-11.715 24.896-1.1814 1.9896-2.1479 3.6896-2.1479 3.7778s-0.30403 0.59749-0.67558 1.1317-1.849 2.7458-3.2831 4.9146c-16.467 24.903-41.805 46.156-69.352 58.171-4.2822 1.8678-17.976 6.8213-20.3 7.3433-0.46783 0.10506-2.7058 0.67149-4.9732 1.2587-6.2871 1.6282-11 2.5334-18.104 3.4769-8.0469 1.0688-21.246 1.5448-28.5 1.0278zm19.022-4.608c21.717-2.014 44.156-8.9437 62.354-19.256 3.9115-2.2167 3.81-2.1542 9.4316-5.8017 32.137-20.851 55.843-53.387 66.366-91.083 3.5766-12.812 5.1246-22.298 5.9675-36.566 0.34265-5.8002 0.2308-16.442-0.20262-19.276-0.06724-0.43981-0.22805-2.1709-0.35732-3.8468-0.85569-11.093-4.7621-28.545-8.6665-38.716-6.4513-16.807-12.62-28.088-22.642-41.405-12.652-16.813-28.947-30.934-47.567-41.221-16.155-8.9256-34.588-15.193-52.16-17.735-4.3169-0.6244-5.6916-0.7854-9.2156-1.0791-3.604-0.30033-24.451-0.22488-25.737 0.09316-0.39434 0.09751-2.0075 0.28649-3.5849 0.41991-4.3895 0.37139-16.48 2.5574-21.913 3.9621-4.4392 1.1477-14.714 4.3842-16.445 5.1799-0.39433 0.18129-2.7334 1.1749-5.198 2.208-14.192 5.9491-27.455 14.052-39.433 24.094-3.6856 3.0897-13.469 12.75-17.306 17.088-2.7086 3.0623-9.1718 11.466-11.775 15.31-11.115 16.412-19.479 36.13-23.767 56.029-1.1726 5.4422-2.6152 13.895-2.9059 17.028-0.12808 1.3802-0.31461 2.9934-0.41454 3.5849s-0.28755 4.2912-0.4169 8.2216c-0.37132 11.282 0.20327 21.677 1.7847 32.287 0.79537 5.3362 3.2468 16.671 4.2254 19.537 0.16833 0.49293 0.59601 1.9448 0.95047 3.2264 0.96457 3.4876 4.1385 12.161 6.2312 17.028 4.7531 11.054 13.412 25.287 20.502 33.698 0.33239 0.39431 1.1902 1.4429 1.9063 2.3302 2.2677 2.8098 11.001 11.896 14.353 14.932 25.321 22.94 58.167 37.241 91.593 39.878 6.348 0.50081 17.795 0.42952 24.041-0.14972zm-24.22-3.9656c-11.137-0.81038-22.052-2.7902-33.339-6.0476-3.6092-1.0416-3.1766-0.89301-10.038-3.4471-14.602-5.4356-28.489-13.329-41.584-23.637-9.6499-7.5958-20.277-18.772-27.267-28.676-0.76531-1.0844-1.4975-2.0524-1.627-2.1509-0.47633-0.36252-4.9485-7.4701-7.236-11.5-2.6003-4.5812-5.9835-11.571-7.8052-16.126-3.9166-9.7936-6.8086-19.464-8.7305-29.194-1.2186-6.1696-1.5245-8.3365-2.6307-18.641-0.46168-4.3004-0.31586-24.365 0.20709-28.5 1.1288-8.9239 1.8518-13.268 3.3409-20.075 3.3075-15.119 9.5084-31.476 16.513-43.556 0.68594-1.183 1.6232-2.7962 2.0829-3.5848 2.8781-4.9384 12.268-18.051 13.412-18.729 0.25124-0.14893 0.52074-0.45927 0.59896-0.68964 0.56017-1.6501 12.372-13.693 18.425-18.786 12.589-10.591 26.408-18.958 41.405-25.07 8.8182-3.5932 23.355-7.7424 30.651-8.7485 0.59151-0.08155 2.7693-0.39417 4.8396-0.69466 12.339-1.791 24.737-2.0479 36.924-0.76501 4.3793 0.461 10.454 1.379 11.83 1.7878 0.29575 0.08785 1.1555 0.25617 1.9105 0.37404 1.7921 0.27978 9.6447 2.1815 11.712 2.8365 5.8872 1.8651 12.583 4.2379 15.236 5.3992l4.481 1.9605c8.5618 3.745 22.188 11.875 29.559 17.637 5.7546 4.4981 13.795 11.881 18.665 17.139 15.916 17.183 28.046 38.617 34.386 60.763 0.33868 1.183 0.75273 2.5542 0.92011 3.0471 1.2955 3.8151 3.5659 15.652 4.2975 22.405 0.23491 2.1688 0.56329 5.0726 0.72968 6.4528 0.30696 2.5461 0.15877 22.674-0.18871 25.632-0.10425 0.88724-0.35692 3.0651-0.5615 4.8396-0.46925 4.0709-1.5972 11.067-2.3118 14.339-0.30141 1.3802-0.69656 3.2353-0.87813 4.1226-0.99907 4.8821-4.4307 15.455-7.4464 22.943-8.0637 20.022-19.797 37.639-35.049 52.626-9.2798 9.1184-18.2 16.086-29.037 22.679-3.8822 2.362-11.687 6.5084-14.339 7.6181-1.183 0.49492-3.2802 1.4235-4.6603 2.0635-4.3064 1.997-15.925 5.9443-21.948 7.4564-6.7934 1.7056-14.586 3.134-21.07 3.862-4.4158 0.49576-20.523 0.91525-24.377 0.63486zm23.903-5.1333c19.547-2.4711 38.654-8.9454 56.289-19.073 17.603-10.109 34.351-25.215 46.431-41.877 1.2254-1.6904 2.4058-3.2798 2.623-3.5321s1.9219-2.9947 3.7883-6.0942 3.5484-5.8775 3.7378-6.1733 1.7145-3.2991 3.389-6.674c3.0884-6.2247 6.2175-13.815 8.1105-19.675 0.57329-1.7745 1.2814-3.9523 1.5736-4.8396 0.59113-1.795 3.2591-12.736 3.5841-14.698 0.11435-0.6901 0.27691-1.4967 0.36133-1.7925 0.41183-1.4428 1.6146-10.799 1.9817-15.415 1.9589-24.633-1.9876-49.295-11.473-71.697-3.0165-7.1241-7.9107-16.555-10.447-20.131-0.3712-0.52333-0.6749-1.0488-0.6749-1.1677 0-0.69456-7.7262-11.264-11.659-15.95-17.853-21.269-40.578-36.66-66.563-45.081-3.4105-1.1052-6.5236-2.1366-6.9179-2.292s-1.2009-0.37-1.7924-0.4768-3.1726-0.67172-5.7358-1.2554c-14.067-3.2032-32.46-4.1201-47.499-2.3679-12.429 1.448-27.929 5.3306-37.462 9.3836l-4.8201 2.0366c-14.586 6.1319-30.075 16.253-41.19 26.916-11.656 11.182-18.833 19.933-26.476 32.281-3.8821 6.2724-9.0013 16.407-11.137 22.047-0.41057 1.0844-1.233 3.2622-1.8276 4.8396s-1.5852 4.5617-2.2012 6.632-1.2608 4.1674-1.4328 4.6603c-0.95918 2.7484-3.5251 14.974-4.4389 21.151-1.7188 11.617-1.9718 27.582-0.61927 39.075 1.2623 10.726 3.1441 20.066 5.7786 28.679 2.0673 6.759 2.2954 7.4091 4.4973 12.821 10.882 26.744 29.054 49.134 53.039 65.35 2.1702 1.4672 4.2673 2.8625 4.6603 3.1005 6.959 4.2146 16.581 9.2324 20.846 10.871l5.321 2.0429c2.7614 1.0598 6.3482 2.2838 10.755 3.6701 5.5314 1.7402 15.207 3.7294 22.658 4.6582 8.0645 1.0053 8.2192 1.0126 19.106 0.90276 7.4083-0.07478 11.344-0.28736 15.837-0.85532zm-33.223-3.9737c-6.1459-0.65099-10.803-1.3623-15.415-2.3542-3.1432-0.67609-11.946-2.9774-12.905-3.374-0.39433-0.16295-2.7335-0.98047-5.198-1.8167-22.215-7.5376-45.164-23.083-60.313-40.854-5.6144-6.5863-7.3956-8.8818-10.341-13.326-13.482-20.344-20.953-41.063-23.829-66.078-0.68897-5.9926-0.96856-21.067-0.51199-27.603 1.5406-22.054 8.4491-45.492 18.809-63.811 2.6684-4.7188 9.0717-14.579 10.482-16.14 0.3516-0.38937 1.3579-1.6758 2.2362-2.8587 3.8498-5.185 8.6489-10.394 16.225-17.611 2.6845-2.5573 10.968-9.39 13.28-10.954 6.1754-4.1775 9.6609-6.4233 11.021-7.1012 0.88726-0.4422 1.8552-1.0125 2.1509-1.2673 1.0179-0.87705 12.733-6.5454 17.028-8.239 9.4445-3.7241 18.012-6.2729 26.349-7.8388 12.046-2.2626 17.527-2.7261 29.934-2.5314 9.8586 0.15469 10.74 0.2037 15.773 0.8769l4.3018 0.57574c0.78867 0.10567 2.5632 0.4286 3.9434 0.71767s3.0561 0.61291 3.7243 0.71971c4.2008 0.67151 19.112 5.4171 24.775 7.8851 26.781 11.67 47.005 28.512 63.631 52.99 13.507 19.885 22.349 46.038 24.006 71.003 0.21804 3.2849 0.24718 21.309 0.03502 21.652-0.09023 0.146-0.3412 2.0287-0.5577 4.1838-1.063 10.581-3.5319 22.081-6.9635 32.435-3.4741 10.482-7.4477 19.065-14.136 30.536-2.3682 4.0612-9.254 13.727-12.456 17.484-12.346 14.488-23.599 24.041-39.578 33.599-2.6069 1.5593-11.797 6.1702-15.415 7.734-10.914 4.7174-22.473 8.2618-31.726 9.728l-3.5849 0.5691c-10.807 1.717-24.647 2.1431-34.773 1.0706zm23.375-4.1147c6.0228-0.57941 10.639-1.2624 16.059-2.3761 7.8923-1.6217 19.392-5.2835 25.926-8.2554 1.246-0.56681 2.4135-1.0306 2.5944-1.0306 0.73343 0 13.026-6.5401 17.545-9.3349 13.54-8.3731 25.704-19.328 36.804-33.146 2.9544-3.6779 9.1161-12.644 11.086-16.132 0.22274-0.39431 1.0527-1.8462 1.8444-3.2264 4.3257-7.5409 9.3608-19.485 12.241-29.037 2.9926-9.9256 4.8923-20.037 5.7923-30.83 0.4017-4.8172 0.50269-17.95 0.16957-22.047-0.30396-3.7383-1.2671-11.868-1.6138-13.622-0.17537-0.88727-0.58591-3.0651-0.91231-4.8396-1.0171-5.5296-2.9928-12.633-5.484-19.717-5.4845-15.596-14.589-31.54-24.718-43.285-9.0995-10.552-18.489-19.034-29.294-26.463-0.98586-0.6778-1.8731-1.313-1.9717-1.4116s-0.82451-0.51679-1.6132-0.92932-3.0428-1.6714-5.0091-2.7975c-12.879-7.3755-30.56-13.91-43.207-15.969l-3.2264-0.53513c-0.49292-0.0857-2.4288-0.33378-4.3018-0.55128s-4.2122-0.50875-5.198-0.64723-6.5513-0.24144-12.368-0.22879c-8.6526 0.01883-11.716 0.16633-16.849 0.81138-31.807 3.9971-59.861 17.612-82.099 39.843-20.814 20.808-33.896 45.367-40.103 75.286-2.0603 9.9315-2.8966 19.383-2.7278 30.83 0.14869 10.085 0.4913 14.3 1.8355 22.585 3.4293 21.134 11.491 41.317 23.196 58.075 2.4839 3.5561 6.4102 8.7608 7.0313 9.3206 0.10937 0.0986 1.2386 1.3891 2.5093 2.8679 8.3319 9.6958 20.977 20.271 32.714 27.357 3.0207 1.8239 12.668 6.8202 15.521 8.038 7.9674 3.4011 11.627 4.6889 20.784 7.3127 5.9326 1.7 14.636 3.2884 22.235 4.0581 6.3929 0.6475 18.23 0.66082 24.809 0.02796zm-23.147-3.8122c-14.876-1.0698-30.602-4.9764-44.754-11.117-10.977-4.7634-19.504-9.9416-31.484-19.12-5.7917-4.4373-15.673-14.594-21.55-22.152-3.4527-4.4398-7.2971-9.9219-7.2971-10.406 0-0.17151-0.45775-0.98616-1.0172-1.8104-3.4241-5.0442-8.2295-15.134-11.981-25.159-2.9083-7.7702-6.5361-23.627-6.9008-30.164-0.05656-1.0139-0.19379-2.1431-0.30494-2.5094-0.63093-2.0792-1.0105-18.93-0.56007-24.864 0.38325-5.0491 1.2454-12.052 1.9859-16.132 1.2656-6.9719 4.3148-18.556 6.1337-23.302 2.3304-6.0801 3.4773-8.8994 4.1566-10.217 0.40662-0.78868 0.77905-1.6652 0.82764-1.9478 0.16436-0.95662 4.2277-8.7848 6.5252-12.571 7.304-12.037 13.581-20.014 22.724-28.879 13.995-13.569 28.935-23.244 46.345-30.009 10.74-4.1737 22.513-7.0284 35.311-8.5624 5.9515-0.71337 23.44-0.62053 29.754 0.15791 20.709 2.553 39.402 9.2092 56.462 20.104 18.225 11.64 34.727 28.945 44.826 47.009 4.8486 8.6723 6.0858 11.231 8.84 18.283 3.9664 10.156 5.8195 16.871 7.779 28.19 5.7338 33.121-0.91742 68.088-18.511 97.315-8.463 14.059-19.388 26.758-31.283 36.363-1.0844 0.87562-2.0523 1.6888-2.1509 1.8072-0.37735 0.45292-7.1135 5.2795-9.6791 6.9352-1.4788 0.95437-3.3339 2.173-4.1226 2.7081-1.5543 1.0546-9.0406 5.145-11.651 6.3658-10.91 5.103-18.538 7.8133-28.858 10.255-13.874 3.282-26.445 4.3711-39.564 3.4276zm20.868-4.6872c6.7051-0.70096 9.3091-1.1635 16.903-3.0025 20.575-4.9823 39.517-14.701 56.353-28.913 7.0926-5.9873 18.405-18.612 23.222-25.916 0.78026-1.183 1.6906-2.4735 2.0231-2.8679s0.92197-1.2816 1.31-1.9717 1.619-2.7872 2.7355-4.6603c2.2372-3.7532 6.0843-11.425 7.5503-15.056 0.51737-1.2816 1.0904-2.6528 1.2732-3.0471 3.7197-8.0195 7.9268-24.734 9.3844-37.283 0.71237-6.1335 0.61555-24.276-0.16264-30.471-0.34673-2.7603-0.71543-5.4221-0.81935-5.915s-0.57865-2.9933-1.055-5.5565c-1.1324-6.093-3.4326-14.489-5.1833-18.92-0.1731-0.43819-0.67878-1.7646-1.1237-2.9477s-1.3548-3.3506-2.022-4.817-1.5621-3.4828-1.9886-4.4811c-0.81539-1.9086-3.4189-7.0339-4.6549-9.1639-2.2941-3.9534-8.1987-12.832-9.3696-14.089-0.5146-0.55238-0.93561-1.1269-0.93561-1.2767s-0.28232-0.58597-0.62733-0.96919-1.5124-1.7445-2.5941-3.0251c-6.5289-7.7292-14.857-15.602-22.593-21.359-9.5377-7.097-21.9-13.893-31.902-17.537-1.4788-0.53878-3.0113-1.1176-3.4056-1.2862-2.837-1.2133-17.517-4.9949-21.405-5.5138l-5.6608-0.77083c-6.5694-0.89751-24.043-0.91412-31.211-0.02963-12.383 1.5281-22.596 4.1048-34.392 8.6778-20.75 8.0442-40.112 22.529-54.867 41.047-6.4388 8.0805-10.115 13.8-15.325 23.839-7.1336 13.748-12.93 34.325-14.24 50.547-0.12731 1.5773-0.29733 3.2712-0.37785 3.7641-0.21708 1.329-0.20789 16.369 0.01141 18.647 0.10406 1.0811 0.36306 3.7402 0.5756 5.909 1.1498 11.733 5.5556 29.074 9.6544 38 0.18111 0.39435 0.75636 1.7656 1.2784 3.0471 3.3506 8.2258 10.745 20.388 17.626 28.989 8.915 11.144 20.531 21.416 32.865 29.062 8.9728 5.562 17.705 9.68 27.711 13.068 11.428 3.8692 19.717 5.5304 33.983 6.8109 3.7697 0.33838 15.885 0.02202 21.455-0.56021zm-22.172-3.3935c-28.562-1.9297-54.286-12.17-75.82-30.183-4.2196-3.5297-13.183-12.504-15.594-15.615-0.5915-0.76284-1.9012-2.4015-2.9105-3.6415-2.8302-3.4772-8.0078-11.346-10.602-16.112-8.6848-15.957-13.48-31.058-15.767-49.65-0.74501-6.0579-0.63491-26.279 0.17469-32.084 2.8466-20.414 8.9691-38.386 18.326-53.796 5.0276-8.2797 6.7726-10.758 11.711-16.635 8.55-10.174 18.278-18.91 29.001-26.046 17.585-11.702 39.069-19.07 60.943-20.901 8.2064-0.68687 23.515-0.07595 31.009 1.2375 22.41 3.9276 41.196 12.368 59.15 26.574 3.9806 3.1498 13.393 12.314 17.063 16.613 9.185 10.76 16.832 23.374 21.842 36.028 12.447 31.439 12.877 64.389 1.2618 96.691-8.5287 23.719-24.813 45.756-45.006 60.908-9.1434 6.8603-20.583 13.411-30.299 17.349-6.0865 2.4672-19.094 6.3032-24.191 7.1338-4.5521 0.74193-8.8005 1.3509-11.616 1.665-3.3682 0.37578-15.513 0.67719-18.676 0.46353zm19.896-4.904 5.198-0.79332c9.6379-1.4648 21.04-4.9495 31.128-9.5134 18.59-8.4104 36.63-22.611 48.699-38.336l2.3414-3.0427c2.0993-2.723 4.7456-6.7338 7.387-11.196 10.088-17.042 16.188-36.34 17.82-56.379 1.4264-17.51-0.73524-35.264-6.3266-51.962-2.4355-7.2732-3.2593-9.2346-6.767-16.111-3.8729-7.5924-4.5416-8.7741-7.3249-12.945-6.5556-9.823-16.001-20.565-23.505-26.732-1.183-0.97222-2.2316-1.8569-2.3302-1.9659s-0.82452-0.67362-1.6132-1.2547-1.6264-1.2374-1.8616-1.4585-2.9776-2.099-6.0943-4.173c-5.5321-3.6814-10.827-6.7247-15.525-8.9224l-4.4811-2.102c-4.2332-1.9914-15.684-5.7989-19.896-6.6159-0.69008-0.13385-3.1588-0.63097-5.4861-1.1047s-5.231-0.9558-6.4528-1.0712-3.5119-0.37825-5.0892-0.58401c-5.6675-0.73936-16.966-0.64104-25.709 0.22367-16.68 1.6498-34.76 7.5073-48.82 15.817-6.1188 3.6163-8.8417 5.426-13.479 8.9586-6.584 5.0154-11.317 9.4837-19.543 18.45-5.8181 6.3417-14.569 19.737-18.727 28.667-4.3183 9.2731-7.711 19.332-9.9757 29.575-3.7534 16.978-3.9286 36.757-0.4795 54.131 1.1463 5.7741 4.67 18.064 6.0644 21.151 0.17815 0.39435 0.99632 2.3302 1.8182 4.3018 7.964 19.105 21.585 36.858 37.981 49.501 3.6295 2.7987 4.573 3.466 8.9152 6.3047 11.844 7.7432 24.93 13.322 39.653 16.906 4.5054 1.0966 12.145 2.3299 16.248 2.6228 1.7104 0.12211 3.1799 0.28416 3.2655 0.36011 0.45234 0.4014 19.564-0.18735 22.967-0.70749zm-19.757-3.2702c-0.08794-0.08793-1.7034-0.18865-3.5899-0.22381-8.8256-0.16452-22.497-2.9481-33.251-6.7699-18.238-6.4816-35.424-17.807-48.172-31.742-15.686-17.148-25.846-37.504-30.328-60.763-0.39891-2.0703-0.81678-4.5707-0.92854-5.5565s-0.29439-2.5184-0.40584-3.4056c-1.1156-8.8812-0.9226-25.576 0.39176-33.877 1.3416-8.4728 5.5925-24.172 7.8626-29.037 0.27597-0.59149 0.81969-1.8844 1.2082-2.8732 0.85762-2.1824 5.4477-11.56 6.7532-13.796 1.3833-2.3701 8.9317-13.682 9.6904-14.522 0.35804-0.39637 1.2962-1.5237 2.0849-2.5052 3.8045-4.7346 10.574-11.533 16.333-16.403 0.8753-0.74015 1.8334-1.561 2.1292-1.8242s1.0963-0.86749 1.7789-1.3429 1.5649-1.1513 1.9605-1.5019c1.0953-0.97074 9.3366-6.367 12.572-8.2318 2.5679-1.4802 8.2656-4.2984 11.651-5.7627 0.69007-0.29851 2.1656-0.94347 3.2788-1.4333 6.0054-2.6421 20.178-6.3567 28.806-7.5502 5.5525-0.76803 23.503-1.0725 28.5-0.48345 7.2368 0.85315 13.899 1.9904 16.373 2.7951 0.62577 0.20347 1.5937 0.44933 2.1509 0.54632 2.3907 0.41611 12.181 3.7031 15.353 5.1546 0.39434 0.18044 1.5236 0.6795 2.5094 1.109 7.4735 3.256 16.208 8.3859 22.955 13.483 1.5194 1.1476 3.2388 2.433 3.8208 2.8565 4.4803 3.2593 13.727 12.501 18.777 18.768 4.1227 5.1158 9.8181 13.687 12.506 18.821 3.3761 6.448 7.9113 17.373 9.3165 22.442l1.2351 4.4443c1.3281 4.7697 2.5934 11.519 3.4944 18.641 0.80071 6.3289 0.79694 20.768-0.00714 27.468-2.2935 19.111-7.7045 35.353-17.064 51.219-9.4854 16.08-23.389 30.818-38.364 40.665-7.6244 5.0136-8.3834 5.4646-13.59 8.0728-13.032 6.5287-25.528 10.355-40.362 12.36-4.2904 0.57993-17.051 1.1363-17.427 0.75989zm14.738-4.4603c1.2816-0.18855 3.0966-0.44057 4.0334-0.56005 2.0495-0.26144 9.0292-1.6962 12.995-2.6712 8.2647-2.0321 20.636-7.1506 29.441-12.181 3.9227-2.241 14.299-9.4463 15.549-10.797 0.09858-0.10656 1.4698-1.265 3.0472-2.5743 6.2705-5.205 14.709-14.436 19.769-21.625 5.2054-7.3961 11.114-17.761 12.874-22.585 0.35973-0.98583 0.85054-2.1151 1.0906-2.5094 0.61237-1.0057 3.8518-10.533 4.7538-13.981 1.9367-7.4032 3.3039-14.414 3.7749-19.358 0.11269-1.183 0.29673-3.1188 0.40893-4.3018s0.24918-4.732 0.30429-7.8867c0.24478-14.013-1.7446-26.881-6.2486-40.419-3.8334-11.522-8.9035-21.407-16.35-31.875-5.3401-7.5069-13.835-16.626-20.149-21.629-1.2441-0.98585-2.4496-1.9581-2.6788-2.1605-1.0123-0.89409-7.4096-5.5403-9.1997-6.6815l-3.6776-2.3527c-6.8266-4.3847-20.376-10.092-30.02-12.645-14.379-3.8062-33.091-4.6948-48.216-2.2898-16.329 2.5964-31.036 8.1717-45.169 17.123-12.518 7.9282-24.783 19.626-33.498 31.95-2.1575 3.0509-5.3982 8.0194-5.3982 8.2762 0 0.11923-0.30454 0.64501-0.6768 1.1684-0.85916 1.208-4.9496 9.1772-6.2845 12.244-6.957 15.982-10.817 34.775-10.565 51.443 0.25743 17.063 2.7811 30.049 8.8132 45.348 6.1103 15.498 14.325 27.893 26.618 40.161 6.6751 6.6619 12.705 11.39 21.529 16.881 14.965 9.3121 34.657 15.703 51.443 16.696 1.7745 0.10496 3.306 0.26596 3.4034 0.35777 0.29682 0.27991 15.797-0.19925 18.285-0.56525zm-24.556-3.8371c-11.276-1.2069-21.084-3.6134-31.547-7.7403-4.268-1.6834-12.336-5.7028-15.594-7.7683-1.2816-0.81257-2.7676-1.7224-3.3024-2.0219-0.89063-0.49881-6.6963-4.6057-8.1075-5.7351-4.1893-3.3529-7.913-6.5733-10.148-8.7764-16.781-16.54-28.586-38.968-32.553-61.848-1.4137-8.152-1.8416-13.26-1.8167-21.688 0.06115-20.747 3.943-37.185 13.164-55.742 1.2728-2.5615 2.4232-4.7393 2.5564-4.8396s0.71235-1.0695 1.287-2.1539c5.1444-9.7085 16.218-22.423 27.488-31.562 6.477-5.2522 16.867-11.774 23.226-14.579 1.1049-0.48733 2.8154-1.2515 3.8012-1.6982 6.3021-2.8553 16.926-5.9625 25.632-7.4969 12.5-2.2031 29.42-1.9924 41.229 0.51348 1.8714 0.39711 3.8058 0.80429 4.2987 0.90483 2.7252 0.55594 8.136 2.1504 12.125 3.573 8.6309 3.078 23.134 10.904 29.28 15.8 16.5 13.143 26.381 25.026 34.511 41.503 5.9311 12.02 9.748 24.822 11.392 38.211 0.69741 5.6794 0.95436 17.511 0.50225 23.122-1.7565 21.802-8.7155 41.335-21.231 59.594-5.1247 7.4762-12.726 15.998-19.642 22.02-4.9475 4.3081-16.155 12.375-18.223 13.117-0.31558 0.11318-1.0005 0.50109-1.522 0.86202-1.3676 0.94649-10.454 5.4259-13.316 6.5647-3.438 1.3678-13.872 4.7543-15.533 5.0416-0.76469 0.13223-2.6002 0.5381-4.079 0.90193-8.715 2.1444-23.801 3.0002-33.877 1.9217zm25.094-4.5951c8.8214-1.364 17.903-3.7732 25.094-6.657 3.8118-1.5287 12.076-5.5703 14.436-7.0601 1.039-0.65581 1.9704-1.1924 2.07-1.1924 0.35264 0 8.0915-5.2633 10.045-6.8319 6.4014-5.1394 8.7925-7.2546 12.653-11.193 11.102-11.327 18.352-22.116 24.503-36.465 4.8891-11.405 8.3948-26.198 8.9208-37.641 0.54892-11.943-0.13911-21.274-2.3633-32.054-0.93339-4.5237-4.187-14.952-5.7043-18.284-0.45635-1.002-0.9463-2.1935-1.0887-2.6479-0.42313-1.3497-4.2708-8.965-6.2843-12.438-9.4148-16.239-24.35-30.869-41.593-40.745-1.8731-1.0728-4.0509-2.2485-4.8396-2.6126s-2.7555-1.2869-4.3708-2.0506c-3.249-1.5361-12.961-4.86-17.635-6.0354-17.3-4.3507-37.127-4.2211-54.773 0.35816-16.9 4.3858-31.877 12.294-45.06 23.792-10.333 9.0127-20.157 21.318-25.654 32.133-0.85178 1.6759-1.6692 3.2085-1.8164 3.4056s-1.1536 2.375-2.2362 4.8396c-14.088 32.068-13.235 68.923 2.3058 99.659 2.8047 5.5471 3.2528 6.3233 6.4996 11.257 10.641 16.17 25.228 29.112 42.902 38.064 4.547 2.3028 11.382 5.0307 16.49 6.5817 2.0702 0.62852 4.1674 1.2856 4.6603 1.46 0.92901 0.32889 8.4056 1.8023 12.638 2.4906 1.3318 0.2166 3.8323 0.48845 5.5565 0.60413s3.1962 0.26608 3.2709 0.33422 3.5431 0.06693 7.7074-0.0027c5.9052-0.09873 8.9127-0.33396 13.666-1.0688zm-21.709-2.8454c-0.11006-0.1188-1.078-0.23389-2.1509-0.25577-1.8086-0.03688-6.7468-0.52434-8.4036-0.82955-0.39434-0.07263-1.5236-0.2493-2.5094-0.39262s-3.325-0.65846-5.198-1.1448-4.0509-1.027-4.8396-1.2015c-6.1045-1.3508-20.135-7.4578-26.349-11.468-0.29575-0.19092-1.0217-0.61147-1.6132-0.93456-5.5992-3.0585-15.576-11.4-21.742-18.178-19.353-21.275-29.311-48.356-28.496-77.497 0.25419-9.091 1.2444-17.321 2.7604-22.943 0.21265-0.78866 0.4757-1.8372 0.58454-2.3302 1.0164-4.6032 4.4608-14.255 7.2284-20.254 12.731-27.599 37.181-49.308 65.544-58.197 8.168-2.5597 14.364-3.8389 22.828-4.713 5.8031-0.59932 17.27-0.50432 21.914 0.18155 0.59151 0.08735 1.9627 0.25861 3.0471 0.38058 3.447 0.3877 10.609 1.8827 14.519 3.0306 21.165 6.2142 39.807 18.746 53.845 36.195 5.6353 7.005 10.738 15.261 13.736 22.226 0.80644 1.8731 1.6783 3.8089 1.9375 4.3018s1.284 3.316 2.2772 6.2735c2.8325 8.4344 4.5632 16.61 5.6158 26.528 0.33194 3.1278 0.23664 15.251-0.15504 19.717-0.65442 7.4617-2.8908 18.505-4.8277 23.839-0.32211 0.88725-0.9905 2.823-1.4852 4.3018-2.3524 7.0313-7.7325 17.548-12.774 24.97-7.8186 11.511-20.684 23.987-32.179 31.207-11.481 7.2107-21.851 11.637-33.698 14.386-5.7792 1.3407-6.6466 1.5058-10.755 2.0474-4.2877 0.56523-18.312 1.1327-18.662 0.75512zm16.113-4.3756c2.6398-0.29382 6.2695-0.86322 8.0659-1.2654s3.6697-0.8096 4.1626-0.90543c2.8795-0.55982 12.145-3.6 16.311-5.352 3.8502-1.6191 11.993-5.9149 15.633-8.247 8.3967-5.3798 16.445-12.4 23.41-20.418 5.1752-5.9582 7.7134-9.4143 11.338-15.439 15.887-26.402 19.835-57.976 10.936-87.447-4.8936-16.206-12.967-29.822-25.221-42.535-14.949-15.509-34.182-25.895-54.928-29.661-2.0642-0.37467-4.8016-0.79539-6.0832-0.93491s-2.8141-0.31543-3.4056-0.39084c-5.8766-0.74915-17.539-0.39042-25.369 0.78035-20.454 3.0584-39.132 12.131-55.284 26.855-9.6751 8.8193-19.178 22.164-24.636 34.594-7.868 17.92-10.862 35.962-9.2422 55.688 1.0265 12.498 5.0702 26.509 11.02 38.188 8.2873 16.265 19.124 28.62 34.682 39.541 4.6891 3.2917 14.735 8.5496 20.434 10.695 1.183 0.44529 2.947 1.1085 3.9201 1.4738s1.8412 0.59221 1.9292 0.50424 0.45957 3.4e-4 0.82577 0.19631c1.1974 0.64083 6.5074 2.0545 10.532 2.8041 10.991 2.0468 20.519 2.4395 30.969 1.2764zm-19.318-3.4426c-4.3058-0.33996-10.112-1.2358-15.594-2.4057-2.8959-0.61806-10.708-3.099-12.547-3.9845-0.39434-0.1899-1.5236-0.65648-2.5094-1.0368-15.126-5.8356-31.084-18.234-41.354-32.13-2.9596-4.0045-3.9949-5.4799-3.9949-5.6932 0-0.09112-0.70972-1.2241-1.5772-2.5177-3.1467-4.6926-8.1606-15.661-10.094-22.081-1.0539-3.4998-2.3598-8.7088-2.876-11.472-0.09205-0.49292-0.32177-1.7028-0.51048-2.6887-1.0203-5.331-1.309-8.8956-1.3937-17.207-0.09644-9.4695 0.62793-15.803 2.9109-25.452 1.2684-5.3607 4.237-14.325 5.5054-16.625 0.47586-0.86281 0.86522-1.735 0.86522-1.9381s0.82257-1.9977 1.8279-3.9878c11.613-22.988 30.66-40.58 53.917-49.799 16.736-6.6337 36.212-8.6012 53.773-5.432 2.7603 0.49814 5.9867 1.1554 7.1697 1.4606s2.461 0.61952 2.8399 0.69857c1.926 0.40166 9.6873 3.2294 13.471 4.9081 20.422 9.0602 38.118 26.015 48.426 46.397 4.0676 8.0429 6.6586 15.199 8.5542 23.625 1.8937 8.4176 2.3282 12.675 2.321 22.739-0.00853 11.928-0.88033 18.656-3.7394 28.858-6.5555 23.392-21.842 44.574-42.276 58.579-6.2221 4.2647-13.583 8.0782-21.12 10.943-13.522 5.1385-28.25 7.3277-41.995 6.2424zm18.283-4.2435c17.317-2.27 33.114-8.8408 47.32-19.684 5.0311-3.84 14.127-12.717 17.484-17.063 2.4665-3.1935 6.535-9.0426 6.535-9.3951 0-0.12519 0.22323-0.4823 0.49604-0.79357 1.8164-2.0724 6.9419-12.429 9.0624-18.311 2.7138-7.528 3.4472-10.295 5.035-19 0.88749-4.8647 0.94867-5.8877 0.95442-15.953 0.00578-10.159-0.04789-11.053-0.96827-16.132-3.5133-19.388-10.598-34.406-23.098-48.965-10.108-11.773-24.014-21.443-38.618-26.855-7.3223-2.7134-13.082-4.106-22.948-5.5478-2.6309-0.3845-15.722-0.48519-19.717-0.15166-17.69 1.4768-36.15 8.8184-50.698 20.162-4.3597 3.3994-11.708 10.558-15.329 14.933-12.296 14.857-20.161 33.475-22.488 53.235-0.65662 5.5754-0.65398 18.137 0.0049 23.481 1.2954 10.506 3.685 19.267 7.9203 29.037 2.2969 5.299 6.2269 12.196 9.7727 17.15 0.89622 1.2523 1.8715 2.6243 2.1672 3.0491 0.99345 1.4267 8.3292 9.5637 9.7526 10.818 9.9868 8.7995 16.126 13.05 24.815 17.179 10.76 5.1137 23.459 8.5618 34.262 9.3024 3.4364 0.23556 15.116-0.08197 18.283-0.49709zm-20.304-3.5853c-4.2062-0.44215-11.32-1.7117-14.455-2.5798-1.4861-0.41145-3.3473-0.91088-4.136-1.1099s-1.9179-0.55625-2.5094-0.79393-2.0434-0.78609-3.2264-1.2187c-5.9804-2.1868-16.366-7.9788-22.226-12.395-8.7837-6.6201-17.78-16.501-23.236-25.523-7.661-12.667-11.871-25.032-13.832-40.626-0.18597-1.4787-0.28701-6.7216-0.2246-11.651 0.16722-13.207 1.5321-20.656 6.0099-32.801 7.6431-20.73 22.094-38.187 40.782-49.266 3.5246-2.0894 4.7352-2.7079 10.217-5.2196 7.1186-3.2618 16.791-5.908 26.349-7.2088 6.3755-0.86769 18.315-0.58559 25.99 0.61404 11.864 1.8545 25.812 7.357 36.236 14.296 10.478 6.974 20.185 17.033 26.881 27.853 13.032 21.061 17.398 43.99 13.093 68.761-2.0895 12.024-8.1058 26.596-15.224 36.876l-2.3628 3.4108c-1.4468 2.0858-5.0236 6.266-8.279 9.6755-12.209 12.788-28.887 22.595-45.191 26.575-7.3977 1.8057-11.867 2.3647-20.03 2.5052-4.2391 0.07296-9.0205-0.00538-10.625-0.17408zm20.663-4.1092c36.926-5.6733 66.832-33.294 76.164-70.345 1.9026-7.554 2.6291-13.795 2.6216-22.519-0.01291-14.906-3.1189-27.779-10.033-41.584-2.0997-4.1921-7.6435-13.045-8.8674-14.16-0.10819-0.09858-0.91339-1.0665-1.7894-2.1509-7.7846-9.6371-17.61-17.594-28.341-22.953-12.31-6.147-24.616-9.154-38.896-9.504-11.375-0.27891-21.747 1.4915-32.622 5.5682-15.72 5.893-27.123 14.038-38.396 27.427-7.5966 9.0227-14.541 22.415-17.847 34.415-6.1381 22.284-3.8298 46.926 6.2642 66.871 7.6759 15.167 19.569 28.195 33.488 36.684 11.245 6.8579 22.715 10.873 36.028 12.612 4.8544 0.63397 17.04 0.43635 22.226-0.36045zm-16.849-2.9211c-3.8561-0.33282-8.894-0.93061-10.217-1.2123-0.78867-0.16793-2.4019-0.49137-3.5849-0.71879-8.7108-1.6744-21.739-7.3512-29.934-13.042-5.5474-3.853-12.554-10.292-17.215-15.818-3.7603-4.4593-8.3601-11.586-11.071-17.153-2.2519-4.6238-5.824-14.262-6.265-16.903-0.09873-0.5915-0.34766-1.6431-0.55316-2.3368s-0.43293-1.7423-0.50542-2.3302-0.30596-1.7141-0.51891-2.5028-0.56697-3.2085-0.78673-5.3773c-2.0672-20.403 2.2102-40.038 12.386-56.857 12.327-20.374 31.27-34.442 53.746-39.914 16.163-3.935 32.356-3.2123 48.509 2.165 18.023 5.9996 33.84 18.616 44.229 35.277 10.696 17.154 15.263 37.203 13.024 57.179-0.92648 8.2662-3.4489 18.083-6.264 24.377-2.3653 5.2886-4.2976 9.2437-5.1109 10.461-0.55077 0.82418-1.0014 1.5966-1.0014 1.7166 0 0.37966-4.184 6.4577-4.7937 6.9637-0.32095 0.26639-0.58358 0.63551-0.58358 0.82027 0 0.50397-4.8488 6.1893-7.7282 9.0616-8.2927 8.2721-14.996 12.996-25.718 18.125-8.459 4.0464-17.459 6.6131-26.942 7.6835-2.2683 0.25602-11.338 0.48959-13.102 0.33739zm8.6358-3.7517c13.271-0.31916 29.16-5.6601 41.565-13.971 13.927-9.3311 25.36-23.404 31.694-39.011 1.0448-2.5746 2.0268-4.5663 2.1822-4.4261s0.17365 0.06487 0.04055-0.16745 0.23247-2.0875 0.81237-4.1226c2.2266-7.8142 3.5217-17.02 3.3954-24.134-0.07135-4.0166-0.47622-10.966-0.65674-11.272-0.06478-0.10983-0.22427-1.1276-0.35445-2.2616-0.7825-6.817-4.9215-19.046-8.9983-26.586-0.87984-1.6272-1.519-3.0662-1.4203-3.1978s0.07836-0.16499-0.04514-0.07436-0.87119-0.83695-1.6616-2.0613c-7.573-11.731-17.402-21.001-29.599-27.917-4.8846-2.7696-6.9217-3.6484-13.649-5.8874-8.7827-2.9232-16.91-4.1532-26.743-4.0474-19.228 0.20687-36.312 6.3542-51.274 18.45-10.771 8.7074-20.015 21.386-25.2 34.563-5.1896 13.189-7.2273 28.191-5.6494 41.595 1.9545 16.602 7.5799 30.265 18.136 44.047 2.1308 2.782 9.1455 9.8209 12.362 12.404 12.316 9.8931 27.433 16.227 42.305 17.725 3.639 0.36662 9.0555 0.6467 9.5166 0.49209 0.10776-0.03613 1.5666-0.09867 3.2418-0.13895zm-10.428-3.77c-6.961-0.83012-13.381-2.2039-18.283-3.912-15.746-5.4874-28.327-14.903-38.558-28.858-7.6134-10.384-12.874-24.313-14.51-38.422-0.5469-4.7146-0.26585-16.995 0.4949-21.625 1.5176-9.2351 4.2483-17.543 8.3656-25.453l1.4882-2.8679c4.9884-9.6652 17.795-23.113 27.224-28.587 10.716-6.2217 17.279-8.7926 27.147-10.635 14.991-2.7983 29.134-1.4743 43.556 4.0776 4.4715 1.7213 7.4753 3.2621 12.851 6.5915 19.471 12.06 32.909 33.14 36.141 56.694 1.0092 7.3563 0.69291 21.087-0.60282 26.169-0.17595 0.69009-0.41654 1.8193-0.53462 2.5094-0.93966 5.4914-3.7563 13.352-7.2572 20.254-7.9807 15.734-21.627 29.11-37.085 36.351-8.3092 3.8923-13.004 5.425-21.077 6.8803-3.6375 0.65572-16.278 1.1983-19.358 0.83092zm16.209-3.9212c8.2478-1.115 15.209-3.1733 22.293-6.592 12.324-5.9471 19.447-11.78 29.371-24.049 0.23922-0.29575 1.3349-1.9089 2.4348-3.5848 4.0505-6.1716 6.7863-11.927 9.2024-19.358 2.8788-8.8547 3.7705-14.545 3.7916-24.198 0.02865-13.133-2.5375-23.794-8.5858-35.669-7.0961-13.933-18.738-25.63-32.236-32.389-9.1777-4.5954-16.6-6.7582-27.245-7.9388-2.4741-0.27441-11.509-0.29053-13.653-0.02438-11.134 1.3822-17.376 3.1368-26.186 7.3599-22.134 10.611-37.937 32.003-42.248 57.19-1.5298 8.9374-1.3175 20.201 0.54489 28.916 4.8729 22.803 19.031 41.768 39.242 52.566 4.7572 2.5418 13.82 5.8397 18.481 6.7251 8.8004 1.6717 17.461 2.037 24.793 1.0459zm-13.162-3.0903c-9.6013-0.51685-20.262-3.4822-28.5-7.9273-3.1559-1.703-9.6762-5.9895-11.472-7.5414-7.8756-6.8081-13.604-13.611-17.419-20.686-0.37211-0.69008-0.8542-1.4967-1.0714-1.7924-0.74355-1.0128-4.379-9.8714-5.3283-12.984-4.0371-13.236-4.2291-29.204-0.5054-42.044 0.81702-2.8174 2.4457-7.5135 3.3569-9.6791 1.9806-4.7075 6.4918-12.542 8.8931-15.444 0.31277-0.37807 1.4737-1.8166 2.5799-3.1968 3.607-4.5005 8.4563-8.9471 14.476-13.274 5.8356-4.1942 15.246-8.4984 22.263-10.183 15.195-3.6479 27.5-3.2211 41.372 1.4348 11.555 3.8782 22.275 10.954 29.816 19.679 11.747 13.592 18.074 29.539 18.582 46.833 0.35852 12.208-2.3192 24.535-7.7397 35.631-3.2483 6.6493-9.4977 15.752-10.422 15.181-0.21965-0.13573-0.27521-0.0651-0.13157 0.16732 0.56236 0.90993-8.0504 9.1332-13.487 12.877-13.791 9.4977-28.927 13.828-45.263 12.948zm12.368-3.7322c8.8762-1.068 16.057-3.3609 24.556-7.8413 10.236-5.3955 18.645-13.115 25.672-23.566 2.0518-3.0515 5.2103-9.061 6.2802-11.949 3.8059-10.273 5.1748-17.259 5.2335-26.707 0.10539-16.981-5.4929-32.698-16.308-45.785-1.4176-1.7154-6.1139-6.3585-8.3311-8.2367-13.573-11.497-31.834-16.988-50.419-15.159-12.634 1.2433-25.417 6.4742-35.123 14.373-1.3054 1.0623-2.7822 2.2541-3.2816 2.6484s-2.5526 2.4915-4.5627 4.6603c-6.601 7.1225-12.284 16.794-15.273 25.99-2.5539 7.8581-3.4339 13.61-3.4554 22.585-0.05119 21.36 9.5483 41.424 26.259 54.884 3.6635 2.9511 7.3271 5.2305 12.367 7.6947 11.675 5.7087 24.067 7.8915 36.386 6.4092zm-14.339-3.5429c-8.8357-1.1456-17.963-4.3123-25.094-8.7062-3.2518-2.0038-8.5843-6.0833-8.8473-6.7685-0.10457-0.27247-0.31436-0.41857-0.46621-0.32472-0.46901 0.28985-6.2576-5.9866-9.3013-10.085-4.0825-5.4974-10.18-18.09-9.5523-19.727 0.10042-0.26172 0.05216-0.47586-0.10724-0.47586-0.48208 0-1.8952-5.2414-2.3679-8.7829-0.1316-0.98584-0.33618-2.357-0.45469-3.0471-0.42728-2.4886-0.18154-13.447 0.38988-17.387 1.0993-7.5784 4.1718-16.765 7.636-22.832 3.8694-6.7762 6.8818-10.684 12.485-16.197 17.451-17.17 44.686-22.662 67.628-13.639 8.5764 3.3731 14.895 7.4349 21.514 13.83 12.561 12.135 19.669 29.128 19.669 47.022 0 20.193-7.9732 37.915-23.099 51.344-8.9004 7.9017-19.966 13.217-32.091 15.416-4.2962 0.77893-13.317 0.96041-17.941 0.36094zm20.497-4.1179c11.987-2.5819 22.801-8.4866 31.509-17.204 10.167-10.177 16.621-23.598 18.276-38 0.41951-3.6512 0.30056-14.041-0.18712-16.34-0.12543-0.59151-0.55763-2.6886-0.96046-4.6603-1.3982-6.8441-4.7692-14.648-9.319-21.575-3.5883-5.4629-10.765-12.572-16.439-16.284-8.1495-5.3313-16.683-8.5221-26.235-9.8095-2.7758-0.37412-11.714-0.27037-15.35 0.17819-10.711 1.3214-22.203 6.2994-30.536 13.227-4.8733 4.0514-10.622 10.618-13.833 15.801-2.5639 4.1387-5.4668 11.01-7.1933 17.028-2.063 7.1905-2.6019 18.102-1.3192 26.707 1.4435 9.6838 6.6562 21.461 13.011 29.396 2.2301 2.7847 8.0322 8.3875 10.833 10.461 7.7124 5.7097 15.607 9.2724 24.377 11 5.1928 1.0231 5.7544 1.0626 13.264 0.93447 5.0351-0.08594 7.4673-0.29311 10.101-0.86042zm-15.658-2.4272c-3.2206-0.29096-9.5-1.6938-13.235-2.9567-20.508-6.935-35.3-25.251-38.38-47.522-2.409-17.42 3.2768-35.663 15.132-48.553 12.184-13.248 29.14-20.007 46.822-18.665 19.579 1.4861 36.572 12.645 46.113 30.28 2.8587 5.2839 5.6594 14.388 6.454 20.979 1.498 12.427-1.6712 26.955-8.2523 37.83-2.7536 4.5501-4.4542 6.7422-8.5888 11.071-7.7733 8.139-18.58 14.087-30.292 16.674-4.1898 0.92523-10.976 1.2966-15.773 0.86313zm13.193-3.7437c9.407-1.5357 16.557-4.4232 23.99-9.6881 11.569-8.1941 19.342-20.261 22.593-35.072 0.60699-2.7655 0.75314-4.7195 0.77759-10.396 0.03442-8.0014-0.49217-11.7-2.552-17.924-2.8544-8.6254-6.8192-14.974-13.544-21.688-5.152-5.1438-9.7912-8.2907-16.317-11.068-1.2816-0.5454-2.6528-1.1335-3.0471-1.3069-1.3069-0.57469-6.0453-1.7435-9.4999-2.3433-6.2818-1.0907-15.784-0.67282-21.688 0.95368-8.8286 2.4322-15.339 5.8543-21.868 11.494-5.8539 5.0571-9.8989 10.275-13.432 17.326-6.2081 12.391-7.5466 25.861-3.9543 39.794 1.1021 4.2745 1.3742 4.9929 3.811 10.063 7.6419 15.898 22.427 26.866 40.103 29.747 3.179 0.51821 11.731 0.58206 14.627 0.10923zm-11.613-3.1973c-2.8489-0.32176-10.046-2.2036-12.623-3.3008-5.8132-2.4743-9.6473-4.8749-14.174-8.8745-6.9867-6.1731-11.911-13.835-14.857-23.114-1.8602-5.8605-2.1765-7.9624-2.2654-15.056-0.12166-9.705 1.209-15.666 5.3691-24.05 3.0226-6.0919 5.2455-9.1781 10.053-13.957 5.8362-5.8014 11.599-9.3547 19.407-11.967 5.4837-1.8344 10.193-2.5917 15.974-2.569 6.5137 0.02557 9.66 0.51639 15.555 2.4265 14.931 4.838 26.823 16.804 31.878 32.075 1.8178 5.4918 2.4914 9.9318 2.4654 16.249-0.02707 6.5552-0.73175 11.016-2.6616 16.849-2.6632 8.049-6.6492 14.452-12.839 20.625-7.3102 7.2899-16.849 12.346-26.738 14.173-3.5576 0.6573-10.882 0.90481-14.542 0.4914zm13.476-3.3862c6.3415-0.72736 14.013-3.7246 20.075-7.8435 9.8644-6.7022 17.369-17.788 20.049-29.616 0.80954-3.5736 0.90016-4.214 1.141-8.0659 0.6761-10.812-2.7686-22.44-9.2883-31.354-1.5193-2.0771-7.3105-8.0215-8.8544-9.0885-5.7635-3.9835-9.4053-5.8696-14.519-7.5198-4.9338-1.5922-6.8279-1.8501-13.622-1.8548-5.4542-0.00381-7.0322 0.12457-10.197 0.82963-18.169 4.0471-32.098 18.285-36.27 37.076-1.0881 4.9-1.2422 13.969-0.31511 18.543 0.74906 3.6956 1.4164 6.1836 2.2598 8.4244 7.8364 20.822 27.613 32.985 49.542 30.469zm-12.009-3.5561c-5.0819-0.93905-13.1-4.2493-16.311-6.7341-7.417-5.7392-10.783-9.6545-14.158-16.471-2.3218-4.6883-3.4772-8.2832-4.3241-13.453-0.5003-3.0545-0.4723-10.896 0.05016-14.048 0.40863-2.465 1.5576-6.8634 2.119-8.112 0.17731-0.39435 0.68597-1.6042 1.1304-2.6887 2.4762-6.0424 7.1468-12.164 12.649-16.577 6.6481-5.3328 13.532-8.2752 22.118-9.4534 3.8819-0.53273 5.0168-0.55265 9.0956-0.1596 4.9521 0.47716 10.861 2.1201 14.9 4.1432 5.5999 2.8044 11.957 8.1446 15.532 13.049 3.5084 4.8117 5.8686 9.9542 7.4204 16.168 0.74587 2.9866 0.85043 4.2436 0.84979 10.217-6.1e-4 5.9556-0.10324 7.194-0.81717 9.8584-2.5109 9.371-6.2021 15.915-12.46 22.088-6.7414 6.6511-14.288 10.632-23.05 12.16-3.5675 0.62213-11.412 0.62935-14.744 0.01357zm16.803-3.4606c6.3063-1.2935 12.946-4.4582 17.6-8.3894 11.57-9.7715 16.883-24.419 14.306-39.44-0.50844-2.9635-2.0134-7.7857-3.0768-9.8583-0.25288-0.49292-0.4608-1.024-0.46198-1.1802s-0.16243-0.47885-0.35827-0.71698-1.1741-1.6812-2.1739-3.2069c-1.6802-2.5638-5.4606-6.7451-8.0589-8.9135-6.8583-5.7236-16.689-8.8923-26.176-8.4376-4.8432 0.23208-7.723 0.80698-12.069 2.4092-13.342 4.9195-23.421 17.343-25.57 31.518-3.3293 21.966 10.531 42.358 31.392 46.188 4.765 0.87479 10.463 0.88566 14.645 0.02791zm-11.406-2.8797c-5.8581-0.99819-12.484-4.1987-17.487-8.4466-4.5757-3.8854-9.0939-11.155-11.102-17.862-0.90162-3.012-0.9658-3.6788-0.9658-10.038 0-6.4133 0.05768-6.9997 0.98749-10.038 4.5293-14.799 16.376-24.929 31.235-26.709 18.157-2.1759 35.212 10.244 38.897 28.327 0.8875 4.3551 0.95737 11.02 0.15701 14.977-3.0345 15.001-14.802 26.881-29.352 29.632-2.9176 0.5517-9.5584 0.63589-12.37 0.15685zm17.961-4.3986c5.332-1.8149 8.555-3.8078 12.525-7.7443 1.8919-1.8762 4.0556-4.3791 4.8083-5.5621 8.3969-13.197 7.1554-30.002-3.0384-41.127-11.116-12.131-29.625-13.851-42.851-3.9809-8.8653 6.616-13.557 16.099-13.449 27.183 0.048 4.9335 0.1564 5.7327 1.2752 9.4007 1.332 4.367 3.7609 8.8323 6.6493 12.224 8.4479 9.9204 21.965 13.73 34.081 9.6059zm-13.5-2.1806c-7.3757-1.5594-14.01-6.0241-17.922-12.06-12.967-20.011 0.86158-46.311 24.374-46.355 7.9508-0.01495 14.202 2.6495 20.075 8.5563 3.9178 3.9404 6.034 7.7013 7.5981 13.503 0.87854 3.2588 0.86302 10.738-0.02925 14.117-1.7472 6.6152-5.8543 12.909-11.016 16.881-2.5116 1.9326-6.4477 3.9346-8.8158 4.4839-0.94511 0.21925-2.5032 0.6238-3.4624 0.89901-2.1364 0.61297-7.849 0.59996-10.803-0.02462zm15.977-3.8823c1.2948-0.48862 3.029-1.2327 3.8537-1.6534s1.4996-0.65026 1.4996-0.50998 0.20165 0.01039 0.44811-0.28861 1.3922-1.3315 2.546-2.2943c3.3729-2.8145 5.9062-6.4689 7.6954-11.101 1.8835-4.876 1.9935-12.63 0.24664-17.387-1.6795-4.5729-2.9306-6.5834-6.1644-9.9061-8.7494-8.9898-23.145-9.6208-33.544-1.4702-8.5446 6.6971-11.85 18.916-7.9386 29.345 3.4074 9.0845 11.332 15.404 20.579 16.41 3.2769 0.35673 8.1781-0.16418 10.779-1.1456zm-9.558-2.2339c-4.5532-0.96024-7.8496-2.7829-11.271-6.2322-4.0681-4.1007-6.1245-9.1775-6.115-15.097 0.01068-6.7328 2.4674-12.429 7.3267-16.989 3.8509-3.6132 9.6728-5.6362 15.651-5.4382 3.4639 0.11473 5.3444 0.60669 9.1414 2.3916 2.6391 1.2406 7.2844 6.0177 8.6966 8.9433 3.0082 6.2322 3.3146 12.58 0.89901 18.623-3.9981 10.003-14.386 15.895-24.328 13.798zm12.16-3.5142c4.8163-1.7482 8.2179-4.6223 10.402-8.789 1.9046-3.6332 2.5093-6.4081 2.2581-10.364-0.59573-9.3852-7.4481-16.363-16.541-16.843-7.5159-0.39711-14.127 3.4359-17.401 10.089-6.1233 12.443 2.2971 26.63 15.861 26.721 2.4083 0.01625 3.6452-0.16945 5.4202-0.8137zm-6.0312-2.53c-7.3333-1.7833-12.352-9.4464-10.943-16.709 0.95253-4.9093 3.7996-8.7772 8.0483-10.934 4.4872-2.2776 9.3483-2.1964 13.693 0.22864 5.1388 2.868 8.0094 9.1203 6.9551 15.149-1.5256 8.7232-9.543 14.262-17.754 12.265zm9.9539-3.2942c2.3772-0.81 4.6948-3.0057 6.0254-5.7087 0.96035-1.9508 1.1284-2.6912 1.1284-4.9704 0-2.1698-0.17914-3.0409-0.94401-4.5898-1.18-2.3894-1.9914-3.7852-1.9983-3.4376-0.0029 0.14659-0.71848-0.27792-1.5902-0.9433-2.9479-2.2501-7.3713-2.5849-10.823-0.81909-6.5295 3.3401-8.2448 11.86-3.5031 17.4 1.19 1.3902 3.2264 2.7512 4.9774 3.3266 1.3617 0.44743 5.0757 0.30522 6.7275-0.2576zm-2.162-2.6684c-4.2413-0.95456-6.7182-5.9799-4.9677-10.079 0.5074-1.1883 3.726-4.455 4.0601-4.1209 0.07779 0.07783 0.78974-0.00415 1.5821-0.18218 4.3277-0.97235 8.7143 3.3955 8.0893 8.0549-0.54372 4.0536-4.898 7.1973-8.7638 6.3272zm7.1128-3.9091c3.0394-3.0393-0.99551-8.0926-4.4319-5.5506-1.6828 1.2448-2.098 2.977-1.1522 4.806 0.68991 1.3342 1.4605 1.768 3.1643 1.7815 1.047 0.00831 1.62-0.23723 2.4198-1.037zm-78.765-46.451c0.1135-0.29575 0.05012-0.53774-0.14089-0.53774s-0.34723 0.24199-0.34723 0.53774 0.06342 0.53773 0.14089 0.53773 0.23373-0.24198 0.34723-0.53773zm116.38 123.86c0-0.19719-0.15179-0.35849-0.33733-0.35849s-0.43704 0.1613-0.55889 0.35849 0.02993 0.35848 0.33733 0.35848 0.55889-0.16134 0.55889-0.35848zm79.225 8.941c0-0.20879-0.16133-0.27992-0.35849-0.15808s-0.35847 0.2927-0.35847 0.37965 0.16131 0.15809 0.35847 0.15809 0.35849-0.17085 0.35849-0.37966zm-286.89-97.218c-0.07951-0.64081-0.14458-0.11653-0.14458 1.1651s0.06507 1.8059 0.14458 1.1651 0.07953-1.6894 0-2.3301zm9.6927-48.127c0.20389-0.5915 0.49165-1.3981 0.63942-1.7924 0.18111-0.48328 0.15018-0.60012-0.09494-0.35848-0.2 0.19716-0.62884 1.1588-0.95303 2.137s-0.44829 1.6235-0.27581 1.4339 0.48045-0.82856 0.68436-1.4201zm-10.183 68.112c0.00108-1.7745 0.0626-2.4552 0.13669-1.5128s0.07321 2.3944-0.00201 3.2264-0.1358 0.06087-0.13468-1.7136zm-0.39534-7.5282c-0.00398-0.78867 0.06617-1.1535 0.1559-0.81078s0.09301 0.98803 0.00725 1.4339-0.15917 0.16549-0.16315-0.62316zm13.185-69.546c0-0.19718 0.15637-0.60048 0.3475-0.89623s0.34754-0.3764 0.34754-0.17922-0.15636 0.60044-0.34754 0.89619-0.3475 0.37641-0.3475 0.17926zm1.0899-2.8679c0-0.19715 0.23056-0.76178 0.51232-1.2547s0.51234-0.73488 0.51234-0.5377-0.23057 0.76176-0.51234 1.2547-0.51232 0.73491-0.51232 0.53772zm2.1365-4.6603c0-0.19717 0.15638-0.60046 0.34752-0.89623s0.34751-0.37639 0.34751-0.17922-0.15636 0.60048-0.34751 0.8962-0.34752 0.37642-0.34752 0.17925zm4.4701-9.1414c0.8912-1.7745 1.7011-3.2264 1.7996-3.2264s-0.54996 1.4519-1.4412 3.2264-1.7011 3.2264-1.7996 3.2264 0.54994-1.4519 1.4411-3.2264zm2.6886-5.0188c0.21106-0.39432 0.46439-0.71698 0.56299-0.71698s0.00655 0.32266-0.20449 0.71698-0.46439 0.71698-0.56298 0.71698-0.00655-0.32265 0.20448-0.71698zm1.0755-1.7924c0.21103-0.39433 0.46437-0.71697 0.56298-0.71697s0.00655 0.32264-0.2045 0.71697-0.46437 0.71697-0.56296 0.71697-0.00657-0.32263 0.20448-0.71697zm1.0755-1.7924c0.21104-0.39434 0.46438-0.71698 0.56298-0.71698s0.00655 0.32264-0.2045 0.71698-0.46438 0.71697-0.56295 0.71697-0.00657-0.32264 0.20447-0.71697zm1.0134-1.6596c0.20236-0.36884 0.62958-0.99323 0.9493-1.3876 0.53963-0.66551 0.54172-0.635 0.02883 0.42538-0.3039 0.6283-0.7311 1.2527-0.94933 1.3876-0.28415 0.17561-0.29232 0.05485-0.0288-0.42538z"/>
</svg>
