<?xml version="1.0" encoding="UTF-8" standalone="no"?>
<!DOCTYPE svg PUBLIC "-//W3C//DTD SVG 1.1//EN" "http://www.w3.org/Graphics/SVG/1.1/DTD/svg11.dtd">
<svg width="100%" height="100%" viewBox="0 0 6000 3600" version="1.1" xmlns="http://www.w3.org/2000/svg" xmlns:xlink="http://www.w3.org/1999/xlink" xml:space="preserve" xmlns:serif="http://www.serif.com/" style="fill-rule:evenodd;clip-rule:evenodd;stroke-linecap:round;stroke-linejoin:round;stroke-miterlimit:1.5;">
    <g transform="matrix(0.86747,0,0,1.41176,-260.981,-498.842)">
        <ellipse cx="927.165" cy="738.189" rx="490.157" ry="301.181" style="fill:none;stroke:rgb(0,0,255);stroke-width:0.71px;"/>
    </g>
    <g transform="matrix(0.746988,0,0,1.21569,-149.274,-354.099)">
        <ellipse cx="927.165" cy="738.189" rx="490.157" ry="301.181" style="fill:none;stroke:rgb(0,255,0);stroke-width:0.83px;"/>
    </g>
    <g transform="matrix(1,0,0,-1,-661.417,442.913)">
        <path d="M1842.52,165.578C1842.55,165.358 1759.84,165.578 1759.84,165.578L1759.84,106.523L1653.54,106.523L1653.54,283.465L1665.35,283.465L1665.35,324.803L1759.84,324.803L1759.84,283.465C1759.84,283.465 1771.03,283.854 1771.65,283.465C1782.34,276.816 1807.45,255.487 1818.9,236.445C1830.71,216.797 1840.31,180.794 1842.52,165.578Z" style="fill:none;stroke:rgb(0,0,255);stroke-width:0.42px;"/>
    </g>
    <g transform="matrix(1,0,0,-1,-661.417,673.004)">
        <path d="M1842.52,165.578C1842.55,165.358 1759.84,165.578 1759.84,165.578L1759.84,106.523L1653.54,106.523L1653.54,283.465L1665.35,283.465L1665.35,324.803L1759.84,324.803L1759.84,283.465C1759.84,283.465 1771.03,283.854 1771.65,283.465C1782.34,276.816 1807.45,255.487 1818.9,236.445C1830.71,216.797 1840.31,180.794 1842.52,165.578Z" style="fill:none;stroke:rgb(0,0,255);stroke-width:0.42px;"/>
    </g>
    <g transform="matrix(1,0,0,-1,-661.417,903.095)">
        <path d="M1842.52,165.578C1842.55,165.358 1759.84,165.578 1759.84,165.578L1759.84,106.523L1653.54,106.523L1653.54,283.465L1665.35,283.465L1665.35,324.803L1759.84,324.803L1759.84,283.465C1759.84,283.465 1771.03,283.854 1771.65,283.465C1782.34,276.816 1807.45,255.487 1818.9,236.445C1830.71,216.797 1840.31,180.794 1842.52,165.578Z" style="fill:none;stroke:rgb(0,0,255);stroke-width:0.42px;"/>
    </g>
    <g transform="matrix(1,0,0,-1,-661.417,1133.19)">
        <path d="M1842.52,165.578C1842.55,165.358 1759.84,165.578 1759.84,165.578L1759.84,106.523L1653.54,106.523L1653.54,283.465L1665.35,283.465L1665.35,324.803L1759.84,324.803L1759.84,283.465C1759.84,283.465 1771.03,283.854 1771.65,283.465C1782.34,276.816 1807.45,255.487 1818.9,236.445C1830.71,216.797 1840.31,180.794 1842.52,165.578Z" style="fill:none;stroke:rgb(0,0,255);stroke-width:0.42px;"/>
    </g>
    <g>
        <g transform="matrix(1.1,0,0,1.13333,-214.961,-65.748)">
            <rect x="377.953" y="519.685" width="82.677" height="35.433" style="fill:none;stroke:rgb(255,0,0);stroke-width:0.75px;"/>
        </g>
        <g transform="matrix(1.1,0,0,1.13333,379.134,-65.748)">
            <rect x="377.953" y="519.685" width="82.677" height="35.433" style="fill:none;stroke:rgb(255,0,0);stroke-width:0.75px;"/>
        </g>
    </g>
    <g transform="matrix(6.12323e-17,-1,1,6.12323e-17,0,1086.61)">
        <g transform="matrix(1.1,0,0,1.13333,-214.961,-65.748)">
            <rect x="377.953" y="519.685" width="82.677" height="35.433" style="fill:none;stroke:rgb(255,0,0);stroke-width:0.75px;"/>
        </g>
        <g transform="matrix(1.1,0,0,1.13333,379.134,-65.748)">
            <rect x="377.953" y="519.685" width="82.677" height="35.433" style="fill:none;stroke:rgb(255,0,0);stroke-width:0.75px;"/>
        </g>
    </g>
</svg>
