<?xml version="1.0" encoding="UTF-8" standalone="no"?>
<!DOCTYPE svg PUBLIC "-//W3C//DTD SVG 1.1//EN" "http://www.w3.org/Graphics/SVG/1.1/DTD/svg11.dtd">
<svg width="100%" height="100%" viewBox="0 0 6000 3600" version="1.1" xmlns="http://www.w3.org/2000/svg" xmlns:xlink="http://www.w3.org/1999/xlink" xml:space="preserve" xmlns:serif="http://www.serif.com/" style="fill-rule:evenodd;clip-rule:evenodd;stroke-linecap:round;stroke-linejoin:round;stroke-miterlimit:1.5;">
    <g transform="matrix(0.86747,0,0,1.41176,-260.981,-498.842)">
        <ellipse cx="927.165" cy="738.189" rx="490.157" ry="301.181" style="fill:none;stroke:rgb(0,0,255);stroke-width:0.71px;"/>
    </g>
    <g transform="matrix(0.746988,0,0,1.21569,-149.274,-354.099)">
        <ellipse cx="927.165" cy="738.189" rx="490.157" ry="301.181" style="fill:none;stroke:rgb(0,255,0);stroke-width:0.83px;"/>
    </g>
    <g transform="matrix(1,0,0,1,-165.354,-176.335)">
        <g transform="matrix(1,0,0,-1,-496.063,620.079)">
            <path d="M1653.54,-81.847L1653.54,283.465L1665.35,283.465L1665.35,324.803L1759.84,324.803L1759.84,283.465L1771.65,283.465L1771.65,100.842" style="fill:none;stroke:rgb(0,0,255);stroke-width:0.42px;"/>
        </g>
        <g transform="matrix(1,0,0,1,-496.063,418.461)">
            <path d="M1653.54,283.465L1665.35,283.465L1665.35,324.803L1759.84,324.803L1759.84,283.465L1771.65,283.465L1771.65,100.842L1653.54,100.809" style="fill:none;stroke:rgb(0,0,255);stroke-width:0.42px;"/>
        </g>
        <g transform="matrix(1,0,0,1,-377.953,418.461)">
            <path d="M1653.54,283.465L1665.35,283.465L1665.35,324.803L1759.84,324.803L1759.84,283.465L1771.65,283.465L1771.65,100.842L1653.54,100.809" style="fill:none;stroke:rgb(0,0,255);stroke-width:0.42px;"/>
        </g>
        <g transform="matrix(1,0,0,-1,-377.953,620.112)">
            <path d="M1653.54,283.465L1665.35,283.465L1665.35,324.803L1759.84,324.803L1759.84,283.465L1771.65,283.465L1771.65,100.842" style="fill:none;stroke:rgb(0,0,255);stroke-width:0.42px;"/>
        </g>
    </g>
    <g>
        <g transform="matrix(0.68,0,0,0.343478,-1200.47,273.528)">
            <rect x="2043.31" y="649.606" width="59.055" height="271.654" style="fill:none;stroke:rgb(0,0,255);stroke-width:0.77px;"/>
        </g>
        <g transform="matrix(0.68,0,0,0.343478,-531.969,273.528)">
            <rect x="2043.31" y="649.606" width="59.055" height="271.654" style="fill:none;stroke:rgb(0,0,255);stroke-width:0.77px;"/>
        </g>
    </g>
    <g transform="matrix(6.12323e-17,-1,1,6.12323e-17,1.13687e-13,1086.61)">
        <g transform="matrix(0.68,0,0,0.343478,-1200.47,273.528)">
            <rect x="2043.31" y="649.606" width="59.055" height="271.654" style="fill:none;stroke:rgb(0,0,255);stroke-width:0.77px;"/>
        </g>
        <g transform="matrix(0.68,0,0,0.343478,-531.969,273.528)">
            <rect x="2043.31" y="649.606" width="59.055" height="271.654" style="fill:none;stroke:rgb(0,0,255);stroke-width:0.77px;"/>
        </g>
    </g>
    <g>
        <g transform="matrix(1,0,0,1,-11.811,-106.299)">
            <circle cx="366.142" cy="366.142" r="11.811" style="fill:none;stroke:rgb(255,0,0);stroke-width:0.83px;"/>
        </g>
        <g transform="matrix(1,0,0,1,35.4331,-106.299)">
            <circle cx="366.142" cy="366.142" r="11.811" style="fill:none;stroke:rgb(255,0,0);stroke-width:0.83px;"/>
        </g>
        <g transform="matrix(1,0,0,1,82.6772,-106.299)">
            <circle cx="366.142" cy="366.142" r="11.811" style="fill:none;stroke:rgb(255,0,0);stroke-width:0.83px;"/>
        </g>
        <g transform="matrix(1,0,0,1,129.921,-106.299)">
            <circle cx="366.142" cy="366.142" r="11.811" style="fill:none;stroke:rgb(255,0,0);stroke-width:0.83px;"/>
        </g>
        <g transform="matrix(1,0,0,1,177.165,-106.299)">
            <circle cx="366.142" cy="366.142" r="11.811" style="fill:none;stroke:rgb(255,0,0);stroke-width:0.83px;"/>
        </g>
        <g transform="matrix(1,0,0,1,224.409,-106.299)">
            <circle cx="366.142" cy="366.142" r="11.811" style="fill:none;stroke:rgb(255,0,0);stroke-width:0.83px;"/>
        </g>
        <g transform="matrix(1,0,0,1,271.654,-106.299)">
            <circle cx="366.142" cy="366.142" r="11.811" style="fill:none;stroke:rgb(255,0,0);stroke-width:0.83px;"/>
        </g>
        <g transform="matrix(1,0,0,1,318.898,-106.299)">
            <circle cx="366.142" cy="366.142" r="11.811" style="fill:none;stroke:rgb(255,0,0);stroke-width:0.83px;"/>
        </g>
        <g transform="matrix(1,0,0,1,366.142,-106.299)">
            <circle cx="366.142" cy="366.142" r="11.811" style="fill:none;stroke:rgb(255,0,0);stroke-width:0.83px;"/>
        </g>
    </g>
    <g transform="matrix(1,0,0,1,0,566.929)">
        <g transform="matrix(1,0,0,1,-11.811,-106.299)">
            <circle cx="366.142" cy="366.142" r="11.811" style="fill:none;stroke:rgb(255,0,0);stroke-width:0.83px;"/>
        </g>
        <g transform="matrix(1,0,0,1,35.4331,-106.299)">
            <circle cx="366.142" cy="366.142" r="11.811" style="fill:none;stroke:rgb(255,0,0);stroke-width:0.83px;"/>
        </g>
        <g transform="matrix(1,0,0,1,82.6772,-106.299)">
            <circle cx="366.142" cy="366.142" r="11.811" style="fill:none;stroke:rgb(255,0,0);stroke-width:0.83px;"/>
        </g>
        <g transform="matrix(1,0,0,1,129.921,-106.299)">
            <circle cx="366.142" cy="366.142" r="11.811" style="fill:none;stroke:rgb(255,0,0);stroke-width:0.83px;"/>
        </g>
        <g transform="matrix(1,0,0,1,177.165,-106.299)">
            <circle cx="366.142" cy="366.142" r="11.811" style="fill:none;stroke:rgb(255,0,0);stroke-width:0.83px;"/>
        </g>
        <g transform="matrix(1,0,0,1,224.409,-106.299)">
            <circle cx="366.142" cy="366.142" r="11.811" style="fill:none;stroke:rgb(255,0,0);stroke-width:0.83px;"/>
        </g>
        <g transform="matrix(1,0,0,1,271.654,-106.299)">
            <circle cx="366.142" cy="366.142" r="11.811" style="fill:none;stroke:rgb(255,0,0);stroke-width:0.83px;"/>
        </g>
        <g transform="matrix(1,0,0,1,318.898,-106.299)">
            <circle cx="366.142" cy="366.142" r="11.811" style="fill:none;stroke:rgb(255,0,0);stroke-width:0.83px;"/>
        </g>
        <g transform="matrix(1,0,0,1,366.142,-106.299)">
            <circle cx="366.142" cy="366.142" r="11.811" style="fill:none;stroke:rgb(255,0,0);stroke-width:0.83px;"/>
        </g>
    </g>
    <g>
        <g transform="matrix(1,0,0,1,11.811,-59.0551)">
            <circle cx="366.142" cy="366.142" r="11.811" style="fill:none;stroke:rgb(255,0,0);stroke-width:0.83px;"/>
        </g>
        <g transform="matrix(1,0,0,1,-35.4331,-59.0551)">
            <circle cx="366.142" cy="366.142" r="11.811" style="fill:none;stroke:rgb(255,0,0);stroke-width:0.83px;"/>
        </g>
        <g transform="matrix(1,0,0,1,59.0551,-59.0551)">
            <circle cx="366.142" cy="366.142" r="11.811" style="fill:none;stroke:rgb(255,0,0);stroke-width:0.83px;"/>
        </g>
        <g transform="matrix(1,0,0,1,106.299,-59.0551)">
            <circle cx="366.142" cy="366.142" r="11.811" style="fill:none;stroke:rgb(255,0,0);stroke-width:0.83px;"/>
        </g>
        <g transform="matrix(1,0,0,1,153.543,-59.0551)">
            <circle cx="366.142" cy="366.142" r="11.811" style="fill:none;stroke:rgb(255,0,0);stroke-width:0.83px;"/>
        </g>
        <g transform="matrix(1,0,0,1,200.787,-59.0551)">
            <circle cx="366.142" cy="366.142" r="11.811" style="fill:none;stroke:rgb(255,0,0);stroke-width:0.83px;"/>
        </g>
        <g transform="matrix(1,0,0,1,248.031,-59.0551)">
            <circle cx="366.142" cy="366.142" r="11.811" style="fill:none;stroke:rgb(255,0,0);stroke-width:0.83px;"/>
        </g>
        <g transform="matrix(1,0,0,1,295.276,-59.0551)">
            <circle cx="366.142" cy="366.142" r="11.811" style="fill:none;stroke:rgb(255,0,0);stroke-width:0.83px;"/>
        </g>
        <g transform="matrix(1,0,0,1,342.52,-59.0551)">
            <circle cx="366.142" cy="366.142" r="11.811" style="fill:none;stroke:rgb(255,0,0);stroke-width:0.83px;"/>
        </g>
        <g transform="matrix(1,0,0,1,389.764,-59.0551)">
            <circle cx="366.142" cy="366.142" r="11.811" style="fill:none;stroke:rgb(255,0,0);stroke-width:0.83px;"/>
        </g>
    </g>
    <g transform="matrix(1,0,0,1,0,472.441)">
        <g transform="matrix(1,0,0,1,11.811,-59.0551)">
            <circle cx="366.142" cy="366.142" r="11.811" style="fill:none;stroke:rgb(255,0,0);stroke-width:0.83px;"/>
        </g>
        <g transform="matrix(1,0,0,1,-35.4331,-59.0551)">
            <circle cx="366.142" cy="366.142" r="11.811" style="fill:none;stroke:rgb(255,0,0);stroke-width:0.83px;"/>
        </g>
        <g transform="matrix(1,0,0,1,59.0551,-59.0551)">
            <circle cx="366.142" cy="366.142" r="11.811" style="fill:none;stroke:rgb(255,0,0);stroke-width:0.83px;"/>
        </g>
        <g transform="matrix(1,0,0,1,106.299,-59.0551)">
            <circle cx="366.142" cy="366.142" r="11.811" style="fill:none;stroke:rgb(255,0,0);stroke-width:0.83px;"/>
        </g>
        <g transform="matrix(1,0,0,1,153.543,-59.0551)">
            <circle cx="366.142" cy="366.142" r="11.811" style="fill:none;stroke:rgb(255,0,0);stroke-width:0.83px;"/>
        </g>
        <g transform="matrix(1,0,0,1,200.787,-59.0551)">
            <circle cx="366.142" cy="366.142" r="11.811" style="fill:none;stroke:rgb(255,0,0);stroke-width:0.83px;"/>
        </g>
        <g transform="matrix(1,0,0,1,248.031,-59.0551)">
            <circle cx="366.142" cy="366.142" r="11.811" style="fill:none;stroke:rgb(255,0,0);stroke-width:0.83px;"/>
        </g>
        <g transform="matrix(1,0,0,1,295.276,-59.0551)">
            <circle cx="366.142" cy="366.142" r="11.811" style="fill:none;stroke:rgb(255,0,0);stroke-width:0.83px;"/>
        </g>
        <g transform="matrix(1,0,0,1,342.52,-59.0551)">
            <circle cx="366.142" cy="366.142" r="11.811" style="fill:none;stroke:rgb(255,0,0);stroke-width:0.83px;"/>
        </g>
        <g transform="matrix(1,0,0,1,389.764,-59.0551)">
            <circle cx="366.142" cy="366.142" r="11.811" style="fill:none;stroke:rgb(255,0,0);stroke-width:0.83px;"/>
        </g>
    </g>
    <g>
        <g transform="matrix(1,0,0,1,35.4331,-11.811)">
            <circle cx="366.142" cy="366.142" r="11.811" style="fill:none;stroke:rgb(255,0,0);stroke-width:0.83px;"/>
        </g>
        <g transform="matrix(1,0,0,1,-11.811,-11.811)">
            <circle cx="366.142" cy="366.142" r="11.811" style="fill:none;stroke:rgb(255,0,0);stroke-width:0.83px;"/>
        </g>
        <g transform="matrix(1,0,0,1,-59.0551,-11.811)">
            <circle cx="366.142" cy="366.142" r="11.811" style="fill:none;stroke:rgb(255,0,0);stroke-width:0.83px;"/>
        </g>
        <g transform="matrix(1,0,0,1,82.6772,-11.811)">
            <circle cx="366.142" cy="366.142" r="11.811" style="fill:none;stroke:rgb(255,0,0);stroke-width:0.83px;"/>
        </g>
        <g transform="matrix(1,0,0,1,129.921,-11.811)">
            <circle cx="366.142" cy="366.142" r="11.811" style="fill:none;stroke:rgb(255,0,0);stroke-width:0.83px;"/>
        </g>
        <g transform="matrix(1,0,0,1,177.165,-11.811)">
            <circle cx="366.142" cy="366.142" r="11.811" style="fill:none;stroke:rgb(255,0,0);stroke-width:0.83px;"/>
        </g>
        <g transform="matrix(1,0,0,1,224.409,-11.811)">
            <circle cx="366.142" cy="366.142" r="11.811" style="fill:none;stroke:rgb(255,0,0);stroke-width:0.83px;"/>
        </g>
        <g transform="matrix(1,0,0,1,271.654,-11.811)">
            <circle cx="366.142" cy="366.142" r="11.811" style="fill:none;stroke:rgb(255,0,0);stroke-width:0.83px;"/>
        </g>
        <g transform="matrix(1,0,0,1,318.898,-11.811)">
            <circle cx="366.142" cy="366.142" r="11.811" style="fill:none;stroke:rgb(255,0,0);stroke-width:0.83px;"/>
        </g>
        <g transform="matrix(1,0,0,1,366.142,-11.811)">
            <circle cx="366.142" cy="366.142" r="11.811" style="fill:none;stroke:rgb(255,0,0);stroke-width:0.83px;"/>
        </g>
        <g transform="matrix(1,0,0,1,413.386,-11.811)">
            <circle cx="366.142" cy="366.142" r="11.811" style="fill:none;stroke:rgb(255,0,0);stroke-width:0.83px;"/>
        </g>
    </g>
    <g transform="matrix(6.12323e-17,-1,1,6.12323e-17,0,1086.61)">
        <g transform="matrix(1,0,0,1,-11.811,-106.299)">
            <circle cx="366.142" cy="366.142" r="11.811" style="fill:none;stroke:rgb(255,0,0);stroke-width:0.83px;"/>
        </g>
        <g transform="matrix(1,0,0,1,35.4331,-106.299)">
            <circle cx="366.142" cy="366.142" r="11.811" style="fill:none;stroke:rgb(255,0,0);stroke-width:0.83px;"/>
        </g>
        <g transform="matrix(1,0,0,1,82.6772,-106.299)">
            <circle cx="366.142" cy="366.142" r="11.811" style="fill:none;stroke:rgb(255,0,0);stroke-width:0.83px;"/>
        </g>
        <g transform="matrix(1,0,0,1,129.921,-106.299)">
            <circle cx="366.142" cy="366.142" r="11.811" style="fill:none;stroke:rgb(255,0,0);stroke-width:0.83px;"/>
        </g>
        <g transform="matrix(1,0,0,1,177.165,-106.299)">
            <circle cx="366.142" cy="366.142" r="11.811" style="fill:none;stroke:rgb(255,0,0);stroke-width:0.83px;"/>
        </g>
        <g transform="matrix(1,0,0,1,224.409,-106.299)">
            <circle cx="366.142" cy="366.142" r="11.811" style="fill:none;stroke:rgb(255,0,0);stroke-width:0.83px;"/>
        </g>
        <g transform="matrix(1,0,0,1,271.654,-106.299)">
            <circle cx="366.142" cy="366.142" r="11.811" style="fill:none;stroke:rgb(255,0,0);stroke-width:0.83px;"/>
        </g>
        <g transform="matrix(1,0,0,1,318.898,-106.299)">
            <circle cx="366.142" cy="366.142" r="11.811" style="fill:none;stroke:rgb(255,0,0);stroke-width:0.83px;"/>
        </g>
        <g transform="matrix(1,0,0,1,366.142,-106.299)">
            <circle cx="366.142" cy="366.142" r="11.811" style="fill:none;stroke:rgb(255,0,0);stroke-width:0.83px;"/>
        </g>
    </g>
    <g transform="matrix(6.12323e-17,-1,1,6.12323e-17,566.929,1086.61)">
        <g transform="matrix(1,0,0,1,-11.811,-106.299)">
            <circle cx="366.142" cy="366.142" r="11.811" style="fill:none;stroke:rgb(255,0,0);stroke-width:0.83px;"/>
        </g>
        <g transform="matrix(1,0,0,1,35.4331,-106.299)">
            <circle cx="366.142" cy="366.142" r="11.811" style="fill:none;stroke:rgb(255,0,0);stroke-width:0.83px;"/>
        </g>
        <g transform="matrix(1,0,0,1,82.6772,-106.299)">
            <circle cx="366.142" cy="366.142" r="11.811" style="fill:none;stroke:rgb(255,0,0);stroke-width:0.83px;"/>
        </g>
        <g transform="matrix(1,0,0,1,129.921,-106.299)">
            <circle cx="366.142" cy="366.142" r="11.811" style="fill:none;stroke:rgb(255,0,0);stroke-width:0.83px;"/>
        </g>
        <g transform="matrix(1,0,0,1,177.165,-106.299)">
            <circle cx="366.142" cy="366.142" r="11.811" style="fill:none;stroke:rgb(255,0,0);stroke-width:0.83px;"/>
        </g>
        <g transform="matrix(1,0,0,1,224.409,-106.299)">
            <circle cx="366.142" cy="366.142" r="11.811" style="fill:none;stroke:rgb(255,0,0);stroke-width:0.83px;"/>
        </g>
        <g transform="matrix(1,0,0,1,271.654,-106.299)">
            <circle cx="366.142" cy="366.142" r="11.811" style="fill:none;stroke:rgb(255,0,0);stroke-width:0.83px;"/>
        </g>
        <g transform="matrix(1,0,0,1,318.898,-106.299)">
            <circle cx="366.142" cy="366.142" r="11.811" style="fill:none;stroke:rgb(255,0,0);stroke-width:0.83px;"/>
        </g>
        <g transform="matrix(1,0,0,1,366.142,-106.299)">
            <circle cx="366.142" cy="366.142" r="11.811" style="fill:none;stroke:rgb(255,0,0);stroke-width:0.83px;"/>
        </g>
    </g>
    <g transform="matrix(6.12323e-17,-1,1,6.12323e-17,0,1086.61)">
        <g transform="matrix(1,0,0,1,59.0551,-59.0551)">
            <circle cx="366.142" cy="366.142" r="11.811" style="fill:none;stroke:rgb(255,0,0);stroke-width:0.83px;"/>
        </g>
        <g transform="matrix(1,0,0,1,106.299,-59.0551)">
            <circle cx="366.142" cy="366.142" r="11.811" style="fill:none;stroke:rgb(255,0,0);stroke-width:0.83px;"/>
        </g>
        <g transform="matrix(1,0,0,1,153.543,-59.0551)">
            <circle cx="366.142" cy="366.142" r="11.811" style="fill:none;stroke:rgb(255,0,0);stroke-width:0.83px;"/>
        </g>
        <g transform="matrix(1,0,0,1,200.787,-59.0551)">
            <circle cx="366.142" cy="366.142" r="11.811" style="fill:none;stroke:rgb(255,0,0);stroke-width:0.83px;"/>
        </g>
        <g transform="matrix(1,0,0,1,248.031,-59.0551)">
            <circle cx="366.142" cy="366.142" r="11.811" style="fill:none;stroke:rgb(255,0,0);stroke-width:0.83px;"/>
        </g>
        <g transform="matrix(1,0,0,1,295.276,-59.0551)">
            <circle cx="366.142" cy="366.142" r="11.811" style="fill:none;stroke:rgb(255,0,0);stroke-width:0.83px;"/>
        </g>
    </g>
    <g transform="matrix(6.12323e-17,-1,1,6.12323e-17,472.441,1086.61)">
        <g transform="matrix(1,0,0,1,59.0551,-59.0551)">
            <circle cx="366.142" cy="366.142" r="11.811" style="fill:none;stroke:rgb(255,0,0);stroke-width:0.83px;"/>
        </g>
        <g transform="matrix(1,0,0,1,106.299,-59.0551)">
            <circle cx="366.142" cy="366.142" r="11.811" style="fill:none;stroke:rgb(255,0,0);stroke-width:0.83px;"/>
        </g>
        <g transform="matrix(1,0,0,1,153.543,-59.0551)">
            <circle cx="366.142" cy="366.142" r="11.811" style="fill:none;stroke:rgb(255,0,0);stroke-width:0.83px;"/>
        </g>
        <g transform="matrix(1,0,0,1,200.787,-59.0551)">
            <circle cx="366.142" cy="366.142" r="11.811" style="fill:none;stroke:rgb(255,0,0);stroke-width:0.83px;"/>
        </g>
        <g transform="matrix(1,0,0,1,248.031,-59.0551)">
            <circle cx="366.142" cy="366.142" r="11.811" style="fill:none;stroke:rgb(255,0,0);stroke-width:0.83px;"/>
        </g>
        <g transform="matrix(1,0,0,1,295.276,-59.0551)">
            <circle cx="366.142" cy="366.142" r="11.811" style="fill:none;stroke:rgb(255,0,0);stroke-width:0.83px;"/>
        </g>
    </g>
    <g transform="matrix(6.12323e-17,-1,1,6.12323e-17,0,1086.61)">
        <g transform="matrix(1,0,0,1,35.4331,-11.811)">
            <circle cx="366.142" cy="366.142" r="11.811" style="fill:none;stroke:rgb(255,0,0);stroke-width:0.83px;"/>
        </g>
        <g transform="matrix(1,0,0,1,82.6772,-11.811)">
            <circle cx="366.142" cy="366.142" r="11.811" style="fill:none;stroke:rgb(255,0,0);stroke-width:0.83px;"/>
        </g>
        <g transform="matrix(1,0,0,1,129.921,-11.811)">
            <circle cx="366.142" cy="366.142" r="11.811" style="fill:none;stroke:rgb(255,0,0);stroke-width:0.83px;"/>
        </g>
        <g transform="matrix(1,0,0,1,177.165,-11.811)">
            <circle cx="366.142" cy="366.142" r="11.811" style="fill:none;stroke:rgb(255,0,0);stroke-width:0.83px;"/>
        </g>
        <g transform="matrix(1,0,0,1,224.409,-11.811)">
            <circle cx="366.142" cy="366.142" r="11.811" style="fill:none;stroke:rgb(255,0,0);stroke-width:0.83px;"/>
        </g>
        <g transform="matrix(1,0,0,1,271.654,-11.811)">
            <circle cx="366.142" cy="366.142" r="11.811" style="fill:none;stroke:rgb(255,0,0);stroke-width:0.83px;"/>
        </g>
        <g transform="matrix(1,0,0,1,318.898,-11.811)">
            <circle cx="366.142" cy="366.142" r="11.811" style="fill:none;stroke:rgb(255,0,0);stroke-width:0.83px;"/>
        </g>
    </g>
    <g transform="matrix(6.12323e-17,-1,1,6.12323e-17,377.953,1086.61)">
        <g transform="matrix(1,0,0,1,35.4331,-11.811)">
            <circle cx="366.142" cy="366.142" r="11.811" style="fill:none;stroke:rgb(255,0,0);stroke-width:0.83px;"/>
        </g>
        <g transform="matrix(1,0,0,1,82.6772,-11.811)">
            <circle cx="366.142" cy="366.142" r="11.811" style="fill:none;stroke:rgb(255,0,0);stroke-width:0.83px;"/>
        </g>
        <g transform="matrix(1,0,0,1,129.921,-11.811)">
            <circle cx="366.142" cy="366.142" r="11.811" style="fill:none;stroke:rgb(255,0,0);stroke-width:0.83px;"/>
        </g>
        <g transform="matrix(1,0,0,1,177.165,-11.811)">
            <circle cx="366.142" cy="366.142" r="11.811" style="fill:none;stroke:rgb(255,0,0);stroke-width:0.83px;"/>
        </g>
        <g transform="matrix(1,0,0,1,224.409,-11.811)">
            <circle cx="366.142" cy="366.142" r="11.811" style="fill:none;stroke:rgb(255,0,0);stroke-width:0.83px;"/>
        </g>
        <g transform="matrix(1,0,0,1,271.654,-11.811)">
            <circle cx="366.142" cy="366.142" r="11.811" style="fill:none;stroke:rgb(255,0,0);stroke-width:0.83px;"/>
        </g>
        <g transform="matrix(1,0,0,1,318.898,-11.811)">
            <circle cx="366.142" cy="366.142" r="11.811" style="fill:none;stroke:rgb(255,0,0);stroke-width:0.83px;"/>
        </g>
    </g>
    <g transform="matrix(1,0,0,1,0,377.953)">
        <g transform="matrix(1,0,0,1,35.4331,-11.811)">
            <circle cx="366.142" cy="366.142" r="11.811" style="fill:none;stroke:rgb(255,0,0);stroke-width:0.83px;"/>
        </g>
        <g transform="matrix(1,0,0,1,-11.811,-11.811)">
            <circle cx="366.142" cy="366.142" r="11.811" style="fill:none;stroke:rgb(255,0,0);stroke-width:0.83px;"/>
        </g>
        <g transform="matrix(1,0,0,1,-59.0551,-11.811)">
            <circle cx="366.142" cy="366.142" r="11.811" style="fill:none;stroke:rgb(255,0,0);stroke-width:0.83px;"/>
        </g>
        <g transform="matrix(1,0,0,1,82.6772,-11.811)">
            <circle cx="366.142" cy="366.142" r="11.811" style="fill:none;stroke:rgb(255,0,0);stroke-width:0.83px;"/>
        </g>
        <g transform="matrix(1,0,0,1,129.921,-11.811)">
            <circle cx="366.142" cy="366.142" r="11.811" style="fill:none;stroke:rgb(255,0,0);stroke-width:0.83px;"/>
        </g>
        <g transform="matrix(1,0,0,1,177.165,-11.811)">
            <circle cx="366.142" cy="366.142" r="11.811" style="fill:none;stroke:rgb(255,0,0);stroke-width:0.83px;"/>
        </g>
        <g transform="matrix(1,0,0,1,224.409,-11.811)">
            <circle cx="366.142" cy="366.142" r="11.811" style="fill:none;stroke:rgb(255,0,0);stroke-width:0.83px;"/>
        </g>
        <g transform="matrix(1,0,0,1,271.654,-11.811)">
            <circle cx="366.142" cy="366.142" r="11.811" style="fill:none;stroke:rgb(255,0,0);stroke-width:0.83px;"/>
        </g>
        <g transform="matrix(1,0,0,1,318.898,-11.811)">
            <circle cx="366.142" cy="366.142" r="11.811" style="fill:none;stroke:rgb(255,0,0);stroke-width:0.83px;"/>
        </g>
        <g transform="matrix(1,0,0,1,366.142,-11.811)">
            <circle cx="366.142" cy="366.142" r="11.811" style="fill:none;stroke:rgb(255,0,0);stroke-width:0.83px;"/>
        </g>
        <g transform="matrix(1,0,0,1,413.386,-11.811)">
            <circle cx="366.142" cy="366.142" r="11.811" style="fill:none;stroke:rgb(255,0,0);stroke-width:0.83px;"/>
        </g>
    </g>
</svg>
