<?xml version="1.0" encoding="UTF-8" standalone="no"?>
<!DOCTYPE svg PUBLIC "-//W3C//DTD SVG 1.1//EN" "http://www.w3.org/Graphics/SVG/1.1/DTD/svg11.dtd">
<svg width="100%" height="100%" viewBox="0 0 6000 3600" version="1.1" xmlns="http://www.w3.org/2000/svg" xmlns:xlink="http://www.w3.org/1999/xlink" xml:space="preserve" xmlns:serif="http://www.serif.com/" style="fill-rule:evenodd;clip-rule:evenodd;stroke-miterlimit:10;">
    <g transform="matrix(4.16672,9.25011e-16,9.25011e-16,-4.16672,387.301,-113152)">
        <path d="M28.358,-27722.8L80.477,-27722.8M80.477,-27722.8C80.632,-27722.8 80.765,-27722.7 80.765,-27722.5M80.765,-27722.5L80.765,-27708.4C80.765,-27708.5 80.643,-27708.7 80.477,-27708.7M80.477,-27708.7L108.824,-27708.7C108.669,-27708.7 108.536,-27708.5 108.536,-27708.4M108.536,-27708.4L108.536,-27722.5C108.536,-27722.7 108.658,-27722.8 108.824,-27722.8M108.824,-27722.8L137.17,-27722.8M137.17,-27722.8C137.325,-27722.8 137.458,-27722.7 137.458,-27722.5M137.458,-27722.5L137.458,-27708.4C137.458,-27708.5 137.336,-27708.7 137.17,-27708.7M137.17,-27708.7L165.517,-27708.7C165.362,-27708.7 165.229,-27708.5 165.229,-27708.4M165.229,-27708.4L165.229,-27722.5C165.229,-27722.7 165.351,-27722.8 165.517,-27722.8M165.517,-27722.8L193.863,-27722.8M193.863,-27722.8C194.018,-27722.8 194.151,-27722.7 194.151,-27722.5M194.151,-27722.5L194.151,-27708.4C194.151,-27708.5 194.029,-27708.7 193.863,-27708.7M193.863,-27708.7L222.21,-27708.7C222.055,-27708.7 221.922,-27708.5 221.922,-27708.4M221.922,-27708.4L221.922,-27722.5C221.922,-27722.7 222.044,-27722.8 222.21,-27722.8M222.21,-27722.8L274.341,-27722.8M274.341,-27722.8L284.638,-27722.8C284.76,-27722.8 284.871,-27722.8 284.904,-27722.6M284.904,-27722.6L288.082,-27712.8M288.082,-27712.8L304.193,-27663.3M304.193,-27663.3C304.237,-27663.1 304.16,-27663 304.016,-27662.9M304.016,-27662.9L290.54,-27658.5C290.684,-27658.6 290.773,-27658.7 290.717,-27658.9M290.717,-27658.9L299.476,-27631.9C299.432,-27632.1 299.266,-27632.2 299.122,-27632.1M299.122,-27632.1L312.597,-27636.5C312.741,-27636.5 312.907,-27636.5 312.952,-27636.3M312.952,-27636.3L321.71,-27609.3M321.71,-27609.3C321.754,-27609.2 321.677,-27609 321.533,-27609M321.533,-27609L308.057,-27604.6C308.201,-27604.7 308.29,-27604.8 308.234,-27605M308.234,-27605L316.993,-27578C316.949,-27578.1 316.783,-27578.2 316.639,-27578.2M316.639,-27578.2L330.114,-27582.6C330.258,-27582.6 330.424,-27582.5 330.469,-27582.4M330.469,-27582.4L339.227,-27555.4M339.227,-27555.4C339.272,-27555.3 339.194,-27555.1 339.05,-27555.1M339.05,-27555.1L325.575,-27550.7C325.719,-27550.7 325.807,-27550.9 325.752,-27551M325.752,-27551L334.51,-27524.1C334.466,-27524.2 334.3,-27524.3 334.156,-27524.3M334.156,-27524.3L347.632,-27528.6C347.776,-27528.7 347.942,-27528.6 347.986,-27528.5M347.986,-27528.5L364.097,-27478.9M364.097,-27478.9L367.275,-27469.1C367.308,-27469 367.275,-27468.9 367.175,-27468.8M367.175,-27468.8L358.848,-27462.7M358.848,-27462.7L316.672,-27432.1M316.672,-27432.1C316.55,-27432 316.373,-27432 316.273,-27432.2M316.273,-27432.2L307.947,-27443.6C308.035,-27443.5 308.212,-27443.5 308.345,-27443.6M308.345,-27443.6L285.413,-27426.9C285.535,-27427 285.568,-27427.2 285.48,-27427.3M285.48,-27427.3L293.807,-27415.8C293.895,-27415.7 293.873,-27415.5 293.74,-27415.4M293.74,-27415.4L270.808,-27398.8M270.808,-27398.8C270.687,-27398.7 270.509,-27398.7 270.41,-27398.8M270.41,-27398.8L262.083,-27410.3C262.172,-27410.2 262.349,-27410.1 262.482,-27410.2M262.482,-27410.2L239.55,-27393.6C239.672,-27393.7 239.705,-27393.8 239.616,-27394M239.616,-27394L247.943,-27382.5C248.031,-27382.4 248.009,-27382.2 247.876,-27382.1M247.876,-27382.1L224.945,-27365.4M224.945,-27365.4C224.823,-27365.3 224.646,-27365.4 224.546,-27365.5M224.546,-27365.5L216.219,-27377C216.308,-27376.8 216.485,-27376.8 216.618,-27376.9M216.618,-27376.9L193.686,-27360.2C193.808,-27360.3 193.841,-27360.5 193.752,-27360.6M193.752,-27360.6L202.079,-27349.2C202.168,-27349 202.146,-27348.9 202.013,-27348.8M202.013,-27348.8L159.836,-27318.1M159.836,-27318.1L151.51,-27312.1C151.41,-27312 151.277,-27312 151.177,-27312.1M151.177,-27312.1L142.851,-27318.1M142.851,-27318.1L100.674,-27348.8M100.674,-27348.8C100.552,-27348.9 100.519,-27349 100.608,-27349.2M100.608,-27349.2L108.935,-27360.6C108.846,-27360.5 108.868,-27360.3 109.001,-27360.2M109.001,-27360.2L86.069,-27376.9C86.191,-27376.8 86.368,-27376.8 86.468,-27377M86.468,-27377L78.141,-27365.5C78.052,-27365.4 77.875,-27365.3 77.742,-27365.4M77.742,-27365.4L54.811,-27382.1M54.811,-27382.1C54.689,-27382.2 54.656,-27382.4 54.744,-27382.5M54.744,-27382.5L63.071,-27394C62.982,-27393.8 63.004,-27393.7 63.137,-27393.6M63.137,-27393.6L40.205,-27410.2C40.327,-27410.1 40.504,-27410.2 40.604,-27410.3M40.604,-27410.3L32.277,-27398.8C32.189,-27398.7 32.012,-27398.7 31.879,-27398.8M31.879,-27398.8L8.947,-27415.4M8.947,-27415.4C8.825,-27415.5 8.792,-27415.7 8.88,-27415.8M8.88,-27415.8L17.207,-27427.3C17.119,-27427.2 17.141,-27427 17.274,-27426.9M17.274,-27426.9L-5.658,-27443.6C-5.536,-27443.5 -5.359,-27443.5 -5.26,-27443.6M-5.26,-27443.6L-13.586,-27432.2C-13.675,-27432 -13.852,-27432 -13.985,-27432.1M-13.985,-27432.1L-56.161,-27462.7M-56.161,-27462.7L-64.488,-27468.8C-64.588,-27468.9 -64.632,-27469 -64.588,-27469.1M-64.588,-27469.1L-61.41,-27478.9M-61.41,-27478.9L-45.299,-27528.5M-45.299,-27528.5C-45.255,-27528.6 -45.089,-27528.7 -44.945,-27528.6M-44.945,-27528.6L-31.469,-27524.3C-31.613,-27524.3 -31.779,-27524.2 -31.823,-27524.1M-31.823,-27524.1L-23.065,-27551C-23.109,-27550.9 -23.031,-27550.7 -22.888,-27550.7M-22.888,-27550.7L-36.363,-27555.1C-36.507,-27555.1 -36.596,-27555.3 -36.54,-27555.4M-36.54,-27555.4L-27.782,-27582.4M-27.782,-27582.4C-27.737,-27582.5 -27.571,-27582.6 -27.427,-27582.6M-27.427,-27582.6L-13.952,-27578.2C-14.096,-27578.2 -14.262,-27578.1 -14.306,-27578M-14.306,-27578L-5.547,-27605C-5.592,-27604.8 -5.514,-27604.7 -5.37,-27604.6M-5.37,-27604.6L-18.846,-27609C-18.99,-27609 -19.078,-27609.2 -19.023,-27609.3M-19.023,-27609.3L-10.265,-27636.3M-10.265,-27636.3C-10.22,-27636.5 -10.054,-27636.5 -9.91,-27636.5M-9.91,-27636.5L3.565,-27632.1C3.422,-27632.1 3.255,-27632.1 3.211,-27631.9M3.211,-27631.9L11.97,-27658.9C11.925,-27658.7 12.003,-27658.6 12.147,-27658.5M12.147,-27658.5L-1.329,-27662.9C-1.473,-27663 -1.561,-27663.1 -1.506,-27663.3M-1.506,-27663.3L14.605,-27712.8M14.605,-27712.8L17.783,-27722.6C17.816,-27722.8 17.927,-27722.8 18.049,-27722.8M18.049,-27722.8L28.346,-27722.8" style="fill:none;stroke:rgb(0,0,255);stroke-width:0.1px;"/>
    </g>
    <g transform="matrix(4.16672,1.02085e-15,1.02085e-15,-4.16672,70.7987,-114979)">
        <path d="M28.358,-27722.8L80.477,-27722.8M80.477,-27722.8C80.322,-27722.8 80.189,-27722.7 80.189,-27722.5M80.189,-27722.5L80.189,-27736.7C80.189,-27736.9 80.311,-27737 80.477,-27737M80.477,-27737L108.824,-27737C108.979,-27737 109.112,-27736.9 109.112,-27736.7M109.112,-27736.7L109.112,-27722.5C109.112,-27722.7 108.99,-27722.8 108.824,-27722.8M108.824,-27722.8L137.17,-27722.8M137.17,-27722.8C137.015,-27722.8 136.882,-27722.7 136.882,-27722.5M136.882,-27722.5L136.882,-27736.7C136.882,-27736.9 137.004,-27737 137.17,-27737M137.17,-27737L165.517,-27737C165.672,-27737 165.805,-27736.9 165.805,-27736.7M165.805,-27736.7L165.805,-27722.5C165.805,-27722.7 165.683,-27722.8 165.517,-27722.8M165.517,-27722.8L193.863,-27722.8M193.863,-27722.8C193.708,-27722.8 193.575,-27722.7 193.575,-27722.5M193.575,-27722.5L193.575,-27736.7C193.575,-27736.9 193.697,-27737 193.863,-27737M193.863,-27737L222.21,-27737C222.365,-27737 222.498,-27736.9 222.498,-27736.7M222.498,-27736.7L222.498,-27722.5C222.498,-27722.7 222.376,-27722.8 222.21,-27722.8M222.21,-27722.8L274.341,-27722.8M274.341,-27722.8L271.163,-27722.8C271.318,-27722.8 271.451,-27722.7 271.451,-27722.5M271.451,-27722.5L271.451,-27687.1M271.451,-27687.1C271.451,-27687.3 271.329,-27687.4 271.163,-27687.4M271.163,-27687.4L284.638,-27687.4C284.793,-27687.4 284.926,-27687.3 284.926,-27687.1M284.926,-27687.1L284.926,-27658.8C284.926,-27658.6 284.804,-27658.5 284.638,-27658.5M284.638,-27658.5L271.163,-27658.5C271.318,-27658.5 271.451,-27658.6 271.451,-27658.8M271.451,-27658.8L271.451,-27623.3M271.451,-27623.3C271.451,-27623.2 271.329,-27623 271.163,-27623M271.163,-27623L274.341,-27623M274.341,-27623L28.346,-27623M28.346,-27623L18.049,-27623C17.894,-27623 17.761,-27623.2 17.761,-27623.3M17.761,-27623.3L17.761,-27658.8M17.761,-27658.8C17.761,-27658.9 17.883,-27659.1 18.049,-27659.1M18.049,-27659.1L31.524,-27659.1C31.369,-27659.1 31.236,-27658.9 31.236,-27658.8M31.236,-27658.8L31.236,-27687.1C31.236,-27687 31.358,-27686.8 31.524,-27686.8M31.524,-27686.8L18.049,-27686.8C17.894,-27686.8 17.761,-27686.9 17.761,-27687.1M17.761,-27687.1L17.761,-27722.5M17.761,-27722.5C17.761,-27722.7 17.883,-27722.8 18.049,-27722.8M18.049,-27722.8L28.346,-27722.8" style="fill:none;stroke:rgb(0,0,255);stroke-width:0.1px;"/>
    </g>
    <g transform="matrix(4.16672,1.02085e-15,1.02085e-15,-4.16672,1213.48,-114979)">
        <path d="M28.346,-27722.8L80.477,-27722.8M80.477,-27722.8C80.322,-27722.8 80.189,-27722.7 80.189,-27722.5M80.189,-27722.5L80.189,-27736.7C80.189,-27736.9 80.311,-27737 80.477,-27737M80.477,-27737L108.824,-27737C108.979,-27737 109.112,-27736.9 109.112,-27736.7M109.112,-27736.7L109.112,-27722.5C109.112,-27722.7 108.99,-27722.8 108.824,-27722.8M108.824,-27722.8L137.17,-27722.8M137.17,-27722.8C137.015,-27722.8 136.882,-27722.7 136.882,-27722.5M136.882,-27722.5L136.882,-27736.7C136.882,-27736.9 137.004,-27737 137.17,-27737M137.17,-27737L165.517,-27737C165.672,-27737 165.805,-27736.9 165.805,-27736.7M165.805,-27736.7L165.805,-27722.5C165.805,-27722.7 165.683,-27722.8 165.517,-27722.8M165.517,-27722.8L193.863,-27722.8M193.863,-27722.8C193.708,-27722.8 193.575,-27722.7 193.575,-27722.5M193.575,-27722.5L193.575,-27736.7C193.575,-27736.9 193.697,-27737 193.863,-27737M193.863,-27737L222.21,-27737C222.365,-27737 222.498,-27736.9 222.498,-27736.7M222.498,-27736.7L222.498,-27722.5C222.498,-27722.7 222.376,-27722.8 222.21,-27722.8M222.21,-27722.8L274.341,-27722.8M274.341,-27722.8L271.163,-27722.8C271.318,-27722.8 271.451,-27722.7 271.451,-27722.5M271.451,-27722.5L271.451,-27687.1M271.451,-27687.1C271.451,-27687.3 271.329,-27687.4 271.163,-27687.4M271.163,-27687.4L284.638,-27687.4C284.793,-27687.4 284.926,-27687.3 284.926,-27687.1M284.926,-27687.1L284.926,-27658.8C284.926,-27658.6 284.804,-27658.5 284.638,-27658.5M284.638,-27658.5L271.163,-27658.5C271.318,-27658.5 271.451,-27658.6 271.451,-27658.8M271.451,-27658.8L271.451,-27623.3M271.451,-27623.3C271.451,-27623.2 271.329,-27623 271.163,-27623M271.163,-27623L274.341,-27623M274.341,-27623L28.346,-27623M28.346,-27623L18.049,-27623C17.894,-27623 17.761,-27623.2 17.761,-27623.3M17.761,-27623.3L17.761,-27658.8M17.761,-27658.8C17.761,-27658.9 17.883,-27659.1 18.049,-27659.1M18.049,-27659.1L31.524,-27659.1C31.369,-27659.1 31.236,-27658.9 31.236,-27658.8M31.236,-27658.8L31.236,-27687.1C31.236,-27687 31.358,-27686.8 31.524,-27686.8M31.524,-27686.8L18.049,-27686.8C17.894,-27686.8 17.761,-27686.9 17.761,-27687.1M17.761,-27687.1L17.761,-27722.5M17.761,-27722.5C17.761,-27722.7 17.883,-27722.8 18.049,-27722.8M18.049,-27722.8L28.346,-27722.8" style="fill:none;stroke:rgb(0,0,255);stroke-width:0.1px;"/>
    </g>
    <g transform="matrix(4.16672,1.02085e-15,1.02085e-15,-4.16672,2356.17,-114979)">
        <path d="M28.346,-27722.8L80.477,-27722.8M80.477,-27722.8C80.322,-27722.8 80.189,-27722.7 80.189,-27722.5M80.189,-27722.5L80.189,-27736.7C80.189,-27736.9 80.311,-27737 80.477,-27737M80.477,-27737L108.824,-27737C108.979,-27737 109.112,-27736.9 109.112,-27736.7M109.112,-27736.7L109.112,-27722.5C109.112,-27722.7 108.99,-27722.8 108.824,-27722.8M108.824,-27722.8L137.17,-27722.8M137.17,-27722.8C137.015,-27722.8 136.882,-27722.7 136.882,-27722.5M136.882,-27722.5L136.882,-27736.7C136.882,-27736.9 137.004,-27737 137.17,-27737M137.17,-27737L165.517,-27737C165.672,-27737 165.805,-27736.9 165.805,-27736.7M165.805,-27736.7L165.805,-27722.5C165.805,-27722.7 165.683,-27722.8 165.517,-27722.8M165.517,-27722.8L193.863,-27722.8M193.863,-27722.8C193.708,-27722.8 193.575,-27722.7 193.575,-27722.5M193.575,-27722.5L193.575,-27736.7C193.575,-27736.9 193.697,-27737 193.863,-27737M193.863,-27737L222.21,-27737C222.365,-27737 222.498,-27736.9 222.498,-27736.7M222.498,-27736.7L222.498,-27722.5C222.498,-27722.7 222.376,-27722.8 222.21,-27722.8M222.21,-27722.8L274.341,-27722.8M274.341,-27722.8L271.163,-27722.8C271.318,-27722.8 271.451,-27722.7 271.451,-27722.5M271.451,-27722.5L271.451,-27687.1M271.451,-27687.1C271.451,-27687.3 271.329,-27687.4 271.163,-27687.4M271.163,-27687.4L284.638,-27687.4C284.793,-27687.4 284.926,-27687.3 284.926,-27687.1M284.926,-27687.1L284.926,-27658.8C284.926,-27658.6 284.804,-27658.5 284.638,-27658.5M284.638,-27658.5L271.163,-27658.5C271.318,-27658.5 271.451,-27658.6 271.451,-27658.8M271.451,-27658.8L271.451,-27623.3M271.451,-27623.3C271.451,-27623.2 271.329,-27623 271.163,-27623M271.163,-27623L274.341,-27623M274.341,-27623L28.346,-27623M28.346,-27623L18.049,-27623C17.894,-27623 17.761,-27623.2 17.761,-27623.3M17.761,-27623.3L17.761,-27658.8M17.761,-27658.8C17.761,-27658.9 17.883,-27659.1 18.049,-27659.1M18.049,-27659.1L31.524,-27659.1C31.369,-27659.1 31.236,-27658.9 31.236,-27658.8M31.236,-27658.8L31.236,-27687.1C31.236,-27687 31.358,-27686.8 31.524,-27686.8M31.524,-27686.8L18.049,-27686.8C17.894,-27686.8 17.761,-27686.9 17.761,-27687.1M17.761,-27687.1L17.761,-27722.5M17.761,-27722.5C17.761,-27722.7 17.883,-27722.8 18.049,-27722.8M18.049,-27722.8L28.346,-27722.8" style="fill:none;stroke:rgb(0,0,255);stroke-width:0.1px;"/>
    </g>
    <g transform="matrix(4.16672,1.02085e-15,1.02085e-15,-4.16672,1910.25,-114450)">
        <path d="M28.346,-27722.8L80.477,-27722.8M80.477,-27722.8C80.322,-27722.8 80.189,-27722.7 80.189,-27722.5M80.189,-27722.5L80.189,-27736.7C80.189,-27736.9 80.311,-27737 80.477,-27737M80.477,-27737L108.824,-27737C108.979,-27737 109.112,-27736.9 109.112,-27736.7M109.112,-27736.7L109.112,-27722.5C109.112,-27722.7 108.99,-27722.8 108.824,-27722.8M108.824,-27722.8L137.17,-27722.8M137.17,-27722.8C137.015,-27722.8 136.882,-27722.7 136.882,-27722.5M136.882,-27722.5L136.882,-27736.7C136.882,-27736.9 137.004,-27737 137.17,-27737M137.17,-27737L165.517,-27737C165.672,-27737 165.805,-27736.9 165.805,-27736.7M165.805,-27736.7L165.805,-27722.5C165.805,-27722.7 165.683,-27722.8 165.517,-27722.8M165.517,-27722.8L193.863,-27722.8M193.863,-27722.8C193.708,-27722.8 193.575,-27722.7 193.575,-27722.5M193.575,-27722.5L193.575,-27736.7C193.575,-27736.9 193.697,-27737 193.863,-27737M193.863,-27737L222.21,-27737C222.365,-27737 222.498,-27736.9 222.498,-27736.7M222.498,-27736.7L222.498,-27722.5C222.498,-27722.7 222.376,-27722.8 222.21,-27722.8M222.21,-27722.8L274.341,-27722.8M274.341,-27722.8L271.163,-27722.8C271.318,-27722.8 271.451,-27722.7 271.451,-27722.5M271.451,-27722.5L271.451,-27687.1M271.451,-27687.1C271.451,-27687.3 271.329,-27687.4 271.163,-27687.4M271.163,-27687.4L284.638,-27687.4C284.793,-27687.4 284.926,-27687.3 284.926,-27687.1M284.926,-27687.1L284.926,-27658.8C284.926,-27658.6 284.804,-27658.5 284.638,-27658.5M284.638,-27658.5L271.163,-27658.5C271.318,-27658.5 271.451,-27658.6 271.451,-27658.8M271.451,-27658.8L271.451,-27623.3M271.451,-27623.3C271.451,-27623.2 271.329,-27623 271.163,-27623M271.163,-27623L274.341,-27623M274.341,-27623L28.346,-27623M28.346,-27623L18.049,-27623C17.894,-27623 17.761,-27623.2 17.761,-27623.3M17.761,-27623.3L17.761,-27658.8M17.761,-27658.8C17.761,-27658.9 17.883,-27659.1 18.049,-27659.1M18.049,-27659.1L31.524,-27659.1C31.369,-27659.1 31.236,-27658.9 31.236,-27658.8M31.236,-27658.8L31.236,-27687.1C31.236,-27687 31.358,-27686.8 31.524,-27686.8M31.524,-27686.8L18.049,-27686.8C17.894,-27686.8 17.761,-27686.9 17.761,-27687.1M17.761,-27687.1L17.761,-27722.5M17.761,-27722.5C17.761,-27722.7 17.883,-27722.8 18.049,-27722.8M18.049,-27722.8L28.346,-27722.8" style="fill:none;stroke:rgb(0,0,255);stroke-width:0.1px;"/>
    </g>
    <g transform="matrix(4.16672,1.02085e-15,1.02085e-15,-4.16672,1907.28,-113940)">
        <path d="M28.346,-27722.8L80.477,-27722.8M80.477,-27722.8C80.322,-27722.8 80.189,-27722.7 80.189,-27722.5M80.189,-27722.5L80.189,-27736.7C80.189,-27736.9 80.311,-27737 80.477,-27737M80.477,-27737L108.824,-27737C108.979,-27737 109.112,-27736.9 109.112,-27736.7M109.112,-27736.7L109.112,-27722.5C109.112,-27722.7 108.99,-27722.8 108.824,-27722.8M108.824,-27722.8L137.17,-27722.8M137.17,-27722.8C137.015,-27722.8 136.882,-27722.7 136.882,-27722.5M136.882,-27722.5L136.882,-27736.7C136.882,-27736.9 137.004,-27737 137.17,-27737M137.17,-27737L165.517,-27737C165.672,-27737 165.805,-27736.9 165.805,-27736.7M165.805,-27736.7L165.805,-27722.5C165.805,-27722.7 165.683,-27722.8 165.517,-27722.8M165.517,-27722.8L193.863,-27722.8M193.863,-27722.8C193.708,-27722.8 193.575,-27722.7 193.575,-27722.5M193.575,-27722.5L193.575,-27736.7C193.575,-27736.9 193.697,-27737 193.863,-27737M193.863,-27737L222.21,-27737C222.365,-27737 222.498,-27736.9 222.498,-27736.7M222.498,-27736.7L222.498,-27722.5C222.498,-27722.7 222.376,-27722.8 222.21,-27722.8M222.21,-27722.8L274.341,-27722.8M274.341,-27722.8L271.163,-27722.8C271.318,-27722.8 271.451,-27722.7 271.451,-27722.5M271.451,-27722.5L271.451,-27687.1M271.451,-27687.1C271.451,-27687.3 271.329,-27687.4 271.163,-27687.4M271.163,-27687.4L284.638,-27687.4C284.793,-27687.4 284.926,-27687.3 284.926,-27687.1M284.926,-27687.1L284.926,-27658.8C284.926,-27658.6 284.804,-27658.5 284.638,-27658.5M284.638,-27658.5L271.163,-27658.5C271.318,-27658.5 271.451,-27658.6 271.451,-27658.8M271.451,-27658.8L271.451,-27623.3M271.451,-27623.3C271.451,-27623.2 271.329,-27623 271.163,-27623M271.163,-27623L274.341,-27623M274.341,-27623L28.346,-27623M28.346,-27623L18.049,-27623C17.894,-27623 17.761,-27623.2 17.761,-27623.3M17.761,-27623.3L17.761,-27658.8M17.761,-27658.8C17.761,-27658.9 17.883,-27659.1 18.049,-27659.1M18.049,-27659.1L31.524,-27659.1C31.369,-27659.1 31.236,-27658.9 31.236,-27658.8M31.236,-27658.8L31.236,-27687.1C31.236,-27687 31.358,-27686.8 31.524,-27686.8M31.524,-27686.8L18.049,-27686.8C17.894,-27686.8 17.761,-27686.9 17.761,-27687.1M17.761,-27687.1L17.761,-27722.5M17.761,-27722.5C17.761,-27722.7 17.883,-27722.8 18.049,-27722.8M18.049,-27722.8L28.346,-27722.8" style="fill:none;stroke:rgb(0,0,255);stroke-width:0.1px;"/>
    </g>
    <g transform="matrix(1,0,0,1,-1142.72,-496.063)">
        <path d="M1497.05,714.19C1509.92,689.838 1535.52,673.228 1564.96,673.228C1594.4,673.228 1620,689.838 1632.87,714.19L1632.87,785.81C1620,810.162 1594.4,826.772 1564.96,826.772C1535.52,826.772 1509.92,810.162 1497.05,785.81L1497.05,714.19Z" style="fill:none;stroke:rgb(0,0,255);stroke-width:0.42px;stroke-linecap:round;stroke-linejoin:round;stroke-miterlimit:1.5;"/>
    </g>
    <g transform="matrix(1.63265,0,0,1.63265,-2117.79,-2503.21)">
        <circle cx="1919.29" cy="2509.84" r="289.37" style="fill:none;stroke:rgb(0,0,255);stroke-width:0.26px;stroke-linecap:round;stroke-linejoin:round;stroke-miterlimit:1.5;"/>
    </g>
    <g transform="matrix(0.3,0,0,0.3,1322.83,1990.16)">
        <path d="M545.121,463.373C502.456,445.559 472.441,403.422 472.441,354.331C472.441,289.144 525.364,236.22 590.551,236.22C655.738,236.22 708.661,289.144 708.661,354.331C708.661,403.422 678.646,445.559 635.982,463.373L708.661,826.772L472.441,826.772L545.121,463.373Z" style="fill:rgb(128,128,128);"/>
    </g>
</svg>
