<?xml version="1.0" encoding="UTF-8" standalone="no"?>
<!DOCTYPE svg PUBLIC "-//W3C//DTD SVG 1.1//EN" "http://www.w3.org/Graphics/SVG/1.1/DTD/svg11.dtd">
<svg width="100%" height="100%" viewBox="0 0 6000 3600" version="1.1" xmlns="http://www.w3.org/2000/svg" xmlns:xlink="http://www.w3.org/1999/xlink" xml:space="preserve" xmlns:serif="http://www.serif.com/" style="fill-rule:evenodd;clip-rule:evenodd;stroke-miterlimit:10;">
    <g transform="matrix(4.16672,9.25011e-16,9.25011e-16,-4.16672,387.301,-113152)">
        <path d="M28.358,-27722.8L80.477,-27722.8M80.477,-27722.8C80.632,-27722.8 80.765,-27722.7 80.765,-27722.5M80.765,-27722.5L80.765,-27708.4C80.765,-27708.5 80.643,-27708.7 80.477,-27708.7M80.477,-27708.7L108.824,-27708.7C108.669,-27708.7 108.536,-27708.5 108.536,-27708.4M108.536,-27708.4L108.536,-27722.5C108.536,-27722.7 108.658,-27722.8 108.824,-27722.8M108.824,-27722.8L137.17,-27722.8M137.17,-27722.8C137.325,-27722.8 137.458,-27722.7 137.458,-27722.5M137.458,-27722.5L137.458,-27708.4C137.458,-27708.5 137.336,-27708.7 137.17,-27708.7M137.17,-27708.7L165.517,-27708.7C165.362,-27708.7 165.229,-27708.5 165.229,-27708.4M165.229,-27708.4L165.229,-27722.5C165.229,-27722.7 165.351,-27722.8 165.517,-27722.8M165.517,-27722.8L193.863,-27722.8M193.863,-27722.8C194.018,-27722.8 194.151,-27722.7 194.151,-27722.5M194.151,-27722.5L194.151,-27708.4C194.151,-27708.5 194.029,-27708.7 193.863,-27708.7M193.863,-27708.7L222.21,-27708.7C222.055,-27708.7 221.922,-27708.5 221.922,-27708.4M221.922,-27708.4L221.922,-27722.5C221.922,-27722.7 222.044,-27722.8 222.21,-27722.8M222.21,-27722.8L274.341,-27722.8M274.341,-27722.8L284.638,-27722.8C284.76,-27722.8 284.871,-27722.8 284.904,-27722.6M284.904,-27722.6L288.082,-27712.8M288.082,-27712.8L304.193,-27663.3M304.193,-27663.3C304.237,-27663.1 304.16,-27663 304.016,-27662.9M304.016,-27662.9L290.54,-27658.5C290.684,-27658.6 290.773,-27658.7 290.717,-27658.9M290.717,-27658.9L299.476,-27631.9C299.432,-27632.1 299.266,-27632.2 299.122,-27632.1M299.122,-27632.1L312.597,-27636.5C312.741,-27636.5 312.907,-27636.5 312.952,-27636.3M312.952,-27636.3L321.71,-27609.3M321.71,-27609.3C321.754,-27609.2 321.677,-27609 321.533,-27609M321.533,-27609L308.057,-27604.6C308.201,-27604.7 308.29,-27604.8 308.234,-27605M308.234,-27605L316.993,-27578C316.949,-27578.1 316.783,-27578.2 316.639,-27578.2M316.639,-27578.2L330.114,-27582.6C330.258,-27582.6 330.424,-27582.5 330.469,-27582.4M330.469,-27582.4L339.227,-27555.4M339.227,-27555.4C339.272,-27555.3 339.194,-27555.1 339.05,-27555.1M339.05,-27555.1L325.575,-27550.7C325.719,-27550.7 325.807,-27550.9 325.752,-27551M325.752,-27551L334.51,-27524.1C334.466,-27524.2 334.3,-27524.3 334.156,-27524.3M334.156,-27524.3L347.632,-27528.6C347.776,-27528.7 347.942,-27528.6 347.986,-27528.5M347.986,-27528.5L364.097,-27478.9M364.097,-27478.9L367.275,-27469.1C367.308,-27469 367.275,-27468.9 367.175,-27468.8M367.175,-27468.8L358.848,-27462.7M358.848,-27462.7L316.672,-27432.1M316.672,-27432.1C316.55,-27432 316.373,-27432 316.273,-27432.2M316.273,-27432.2L307.947,-27443.6C308.035,-27443.5 308.212,-27443.5 308.345,-27443.6M308.345,-27443.6L285.413,-27426.9C285.535,-27427 285.568,-27427.2 285.48,-27427.3M285.48,-27427.3L293.807,-27415.8C293.895,-27415.7 293.873,-27415.5 293.74,-27415.4M293.74,-27415.4L270.808,-27398.8M270.808,-27398.8C270.687,-27398.7 270.509,-27398.7 270.41,-27398.8M270.41,-27398.8L262.083,-27410.3C262.172,-27410.2 262.349,-27410.1 262.482,-27410.2M262.482,-27410.2L239.55,-27393.6C239.672,-27393.7 239.705,-27393.8 239.616,-27394M239.616,-27394L247.943,-27382.5C248.031,-27382.4 248.009,-27382.2 247.876,-27382.1M247.876,-27382.1L224.945,-27365.4M224.945,-27365.4C224.823,-27365.3 224.646,-27365.4 224.546,-27365.5M224.546,-27365.5L216.219,-27377C216.308,-27376.8 216.485,-27376.8 216.618,-27376.9M216.618,-27376.9L193.686,-27360.2C193.808,-27360.3 193.841,-27360.5 193.752,-27360.6M193.752,-27360.6L202.079,-27349.2C202.168,-27349 202.146,-27348.9 202.013,-27348.8M202.013,-27348.8L159.836,-27318.1M159.836,-27318.1L151.51,-27312.1C151.41,-27312 151.277,-27312 151.177,-27312.1M151.177,-27312.1L142.851,-27318.1M142.851,-27318.1L100.674,-27348.8M100.674,-27348.8C100.552,-27348.9 100.519,-27349 100.608,-27349.2M100.608,-27349.2L108.935,-27360.6C108.846,-27360.5 108.868,-27360.3 109.001,-27360.2M109.001,-27360.2L86.069,-27376.9C86.191,-27376.8 86.368,-27376.8 86.468,-27377M86.468,-27377L78.141,-27365.5C78.052,-27365.4 77.875,-27365.3 77.742,-27365.4M77.742,-27365.4L54.811,-27382.1M54.811,-27382.1C54.689,-27382.2 54.656,-27382.4 54.744,-27382.5M54.744,-27382.5L63.071,-27394C62.982,-27393.8 63.004,-27393.7 63.137,-27393.6M63.137,-27393.6L40.205,-27410.2C40.327,-27410.1 40.504,-27410.2 40.604,-27410.3M40.604,-27410.3L32.277,-27398.8C32.189,-27398.7 32.012,-27398.7 31.879,-27398.8M31.879,-27398.8L8.947,-27415.4M8.947,-27415.4C8.825,-27415.5 8.792,-27415.7 8.88,-27415.8M8.88,-27415.8L17.207,-27427.3C17.119,-27427.2 17.141,-27427 17.274,-27426.9M17.274,-27426.9L-5.658,-27443.6C-5.536,-27443.5 -5.359,-27443.5 -5.26,-27443.6M-5.26,-27443.6L-13.586,-27432.2C-13.675,-27432 -13.852,-27432 -13.985,-27432.1M-13.985,-27432.1L-56.161,-27462.7M-56.161,-27462.7L-64.488,-27468.8C-64.588,-27468.9 -64.632,-27469 -64.588,-27469.1M-64.588,-27469.1L-61.41,-27478.9M-61.41,-27478.9L-45.299,-27528.5M-45.299,-27528.5C-45.255,-27528.6 -45.089,-27528.7 -44.945,-27528.6M-44.945,-27528.6L-31.469,-27524.3C-31.613,-27524.3 -31.779,-27524.2 -31.823,-27524.1M-31.823,-27524.1L-23.065,-27551C-23.109,-27550.9 -23.031,-27550.7 -22.888,-27550.7M-22.888,-27550.7L-36.363,-27555.1C-36.507,-27555.1 -36.596,-27555.3 -36.54,-27555.4M-36.54,-27555.4L-27.782,-27582.4M-27.782,-27582.4C-27.737,-27582.5 -27.571,-27582.6 -27.427,-27582.6M-27.427,-27582.6L-13.952,-27578.2C-14.096,-27578.2 -14.262,-27578.1 -14.306,-27578M-14.306,-27578L-5.547,-27605C-5.592,-27604.8 -5.514,-27604.7 -5.37,-27604.6M-5.37,-27604.6L-18.846,-27609C-18.99,-27609 -19.078,-27609.2 -19.023,-27609.3M-19.023,-27609.3L-10.265,-27636.3M-10.265,-27636.3C-10.22,-27636.5 -10.054,-27636.5 -9.91,-27636.5M-9.91,-27636.5L3.565,-27632.1C3.422,-27632.1 3.255,-27632.1 3.211,-27631.9M3.211,-27631.9L11.97,-27658.9C11.925,-27658.7 12.003,-27658.6 12.147,-27658.5M12.147,-27658.5L-1.329,-27662.9C-1.473,-27663 -1.561,-27663.1 -1.506,-27663.3M-1.506,-27663.3L14.605,-27712.8M14.605,-27712.8L17.783,-27722.6C17.816,-27722.8 17.927,-27722.8 18.049,-27722.8M18.049,-27722.8L28.346,-27722.8" style="fill:none;stroke:rgb(0,0,255);stroke-width:0.1px;"/>
    </g>
    <g transform="matrix(4.16672,1.02085e-15,1.02085e-15,-4.16672,70.7987,-114979)">
        <path d="M28.358,-27722.8L80.477,-27722.8M80.477,-27722.8C80.322,-27722.8 80.189,-27722.7 80.189,-27722.5M80.189,-27722.5L80.189,-27736.7C80.189,-27736.9 80.311,-27737 80.477,-27737M80.477,-27737L108.824,-27737C108.979,-27737 109.112,-27736.9 109.112,-27736.7M109.112,-27736.7L109.112,-27722.5C109.112,-27722.7 108.99,-27722.8 108.824,-27722.8M108.824,-27722.8L137.17,-27722.8M137.17,-27722.8C137.015,-27722.8 136.882,-27722.7 136.882,-27722.5M136.882,-27722.5L136.882,-27736.7C136.882,-27736.9 137.004,-27737 137.17,-27737M137.17,-27737L165.517,-27737C165.672,-27737 165.805,-27736.9 165.805,-27736.7M165.805,-27736.7L165.805,-27722.5C165.805,-27722.7 165.683,-27722.8 165.517,-27722.8M165.517,-27722.8L193.863,-27722.8M193.863,-27722.8C193.708,-27722.8 193.575,-27722.7 193.575,-27722.5M193.575,-27722.5L193.575,-27736.7C193.575,-27736.9 193.697,-27737 193.863,-27737M193.863,-27737L222.21,-27737C222.365,-27737 222.498,-27736.9 222.498,-27736.7M222.498,-27736.7L222.498,-27722.5C222.498,-27722.7 222.376,-27722.8 222.21,-27722.8M222.21,-27722.8L274.341,-27722.8M274.341,-27722.8L271.163,-27722.8C271.318,-27722.8 271.451,-27722.7 271.451,-27722.5M271.451,-27722.5L271.451,-27687.1M271.451,-27687.1C271.451,-27687.3 271.329,-27687.4 271.163,-27687.4M271.163,-27687.4L284.638,-27687.4C284.793,-27687.4 284.926,-27687.3 284.926,-27687.1M284.926,-27687.1L284.926,-27658.8C284.926,-27658.6 284.804,-27658.5 284.638,-27658.5M284.638,-27658.5L271.163,-27658.5C271.318,-27658.5 271.451,-27658.6 271.451,-27658.8M271.451,-27658.8L271.451,-27623.3M271.451,-27623.3C271.451,-27623.2 271.329,-27623 271.163,-27623M271.163,-27623L274.341,-27623M274.341,-27623L28.346,-27623M28.346,-27623L18.049,-27623C17.894,-27623 17.761,-27623.2 17.761,-27623.3M17.761,-27623.3L17.761,-27658.8M17.761,-27658.8C17.761,-27658.9 17.883,-27659.1 18.049,-27659.1M18.049,-27659.1L31.524,-27659.1C31.369,-27659.1 31.236,-27658.9 31.236,-27658.8M31.236,-27658.8L31.236,-27687.1C31.236,-27687 31.358,-27686.8 31.524,-27686.8M31.524,-27686.8L18.049,-27686.8C17.894,-27686.8 17.761,-27686.9 17.761,-27687.1M17.761,-27687.1L17.761,-27722.5M17.761,-27722.5C17.761,-27722.7 17.883,-27722.8 18.049,-27722.8M18.049,-27722.8L28.346,-27722.8" style="fill:none;stroke:rgb(0,0,255);stroke-width:0.1px;"/>
    </g>
    <g transform="matrix(4.16672,1.02085e-15,1.02085e-15,-4.16672,1213.48,-114979)">
        <path d="M28.346,-27722.8L80.477,-27722.8M80.477,-27722.8C80.322,-27722.8 80.189,-27722.7 80.189,-27722.5M80.189,-27722.5L80.189,-27736.7C80.189,-27736.9 80.311,-27737 80.477,-27737M80.477,-27737L108.824,-27737C108.979,-27737 109.112,-27736.9 109.112,-27736.7M109.112,-27736.7L109.112,-27722.5C109.112,-27722.7 108.99,-27722.8 108.824,-27722.8M108.824,-27722.8L137.17,-27722.8M137.17,-27722.8C137.015,-27722.8 136.882,-27722.7 136.882,-27722.5M136.882,-27722.5L136.882,-27736.7C136.882,-27736.9 137.004,-27737 137.17,-27737M137.17,-27737L165.517,-27737C165.672,-27737 165.805,-27736.9 165.805,-27736.7M165.805,-27736.7L165.805,-27722.5C165.805,-27722.7 165.683,-27722.8 165.517,-27722.8M165.517,-27722.8L193.863,-27722.8M193.863,-27722.8C193.708,-27722.8 193.575,-27722.7 193.575,-27722.5M193.575,-27722.5L193.575,-27736.7C193.575,-27736.9 193.697,-27737 193.863,-27737M193.863,-27737L222.21,-27737C222.365,-27737 222.498,-27736.9 222.498,-27736.7M222.498,-27736.7L222.498,-27722.5C222.498,-27722.7 222.376,-27722.8 222.21,-27722.8M222.21,-27722.8L274.341,-27722.8M274.341,-27722.8L271.163,-27722.8C271.318,-27722.8 271.451,-27722.7 271.451,-27722.5M271.451,-27722.5L271.451,-27687.1M271.451,-27687.1C271.451,-27687.3 271.329,-27687.4 271.163,-27687.4M271.163,-27687.4L284.638,-27687.4C284.793,-27687.4 284.926,-27687.3 284.926,-27687.1M284.926,-27687.1L284.926,-27658.8C284.926,-27658.6 284.804,-27658.5 284.638,-27658.5M284.638,-27658.5L271.163,-27658.5C271.318,-27658.5 271.451,-27658.6 271.451,-27658.8M271.451,-27658.8L271.451,-27623.3M271.451,-27623.3C271.451,-27623.2 271.329,-27623 271.163,-27623M271.163,-27623L274.341,-27623M274.341,-27623L28.346,-27623M28.346,-27623L18.049,-27623C17.894,-27623 17.761,-27623.2 17.761,-27623.3M17.761,-27623.3L17.761,-27658.8M17.761,-27658.8C17.761,-27658.9 17.883,-27659.1 18.049,-27659.1M18.049,-27659.1L31.524,-27659.1C31.369,-27659.1 31.236,-27658.9 31.236,-27658.8M31.236,-27658.8L31.236,-27687.1C31.236,-27687 31.358,-27686.8 31.524,-27686.8M31.524,-27686.8L18.049,-27686.8C17.894,-27686.8 17.761,-27686.9 17.761,-27687.1M17.761,-27687.1L17.761,-27722.5M17.761,-27722.5C17.761,-27722.7 17.883,-27722.8 18.049,-27722.8M18.049,-27722.8L28.346,-27722.8" style="fill:none;stroke:rgb(0,0,255);stroke-width:0.1px;"/>
    </g>
    <g transform="matrix(4.16672,1.02085e-15,1.02085e-15,-4.16672,2356.17,-114979)">
        <path d="M28.346,-27722.8L80.477,-27722.8M80.477,-27722.8C80.322,-27722.8 80.189,-27722.7 80.189,-27722.5M80.189,-27722.5L80.189,-27736.7C80.189,-27736.9 80.311,-27737 80.477,-27737M80.477,-27737L108.824,-27737C108.979,-27737 109.112,-27736.9 109.112,-27736.7M109.112,-27736.7L109.112,-27722.5C109.112,-27722.7 108.99,-27722.8 108.824,-27722.8M108.824,-27722.8L137.17,-27722.8M137.17,-27722.8C137.015,-27722.8 136.882,-27722.7 136.882,-27722.5M136.882,-27722.5L136.882,-27736.7C136.882,-27736.9 137.004,-27737 137.17,-27737M137.17,-27737L165.517,-27737C165.672,-27737 165.805,-27736.9 165.805,-27736.7M165.805,-27736.7L165.805,-27722.5C165.805,-27722.7 165.683,-27722.8 165.517,-27722.8M165.517,-27722.8L193.863,-27722.8M193.863,-27722.8C193.708,-27722.8 193.575,-27722.7 193.575,-27722.5M193.575,-27722.5L193.575,-27736.7C193.575,-27736.9 193.697,-27737 193.863,-27737M193.863,-27737L222.21,-27737C222.365,-27737 222.498,-27736.9 222.498,-27736.7M222.498,-27736.7L222.498,-27722.5C222.498,-27722.7 222.376,-27722.8 222.21,-27722.8M222.21,-27722.8L274.341,-27722.8M274.341,-27722.8L271.163,-27722.8C271.318,-27722.8 271.451,-27722.7 271.451,-27722.5M271.451,-27722.5L271.451,-27687.1M271.451,-27687.1C271.451,-27687.3 271.329,-27687.4 271.163,-27687.4M271.163,-27687.4L284.638,-27687.4C284.793,-27687.4 284.926,-27687.3 284.926,-27687.1M284.926,-27687.1L284.926,-27658.8C284.926,-27658.6 284.804,-27658.5 284.638,-27658.5M284.638,-27658.5L271.163,-27658.5C271.318,-27658.5 271.451,-27658.6 271.451,-27658.8M271.451,-27658.8L271.451,-27623.3M271.451,-27623.3C271.451,-27623.2 271.329,-27623 271.163,-27623M271.163,-27623L274.341,-27623M274.341,-27623L28.346,-27623M28.346,-27623L18.049,-27623C17.894,-27623 17.761,-27623.2 17.761,-27623.3M17.761,-27623.3L17.761,-27658.8M17.761,-27658.8C17.761,-27658.9 17.883,-27659.1 18.049,-27659.1M18.049,-27659.1L31.524,-27659.1C31.369,-27659.1 31.236,-27658.9 31.236,-27658.8M31.236,-27658.8L31.236,-27687.1C31.236,-27687 31.358,-27686.8 31.524,-27686.8M31.524,-27686.8L18.049,-27686.8C17.894,-27686.8 17.761,-27686.9 17.761,-27687.1M17.761,-27687.1L17.761,-27722.5M17.761,-27722.5C17.761,-27722.7 17.883,-27722.8 18.049,-27722.8M18.049,-27722.8L28.346,-27722.8" style="fill:none;stroke:rgb(0,0,255);stroke-width:0.1px;"/>
    </g>
    <g transform="matrix(4.16672,1.02085e-15,1.02085e-15,-4.16672,1910.25,-114450)">
        <path d="M28.346,-27722.8L80.477,-27722.8M80.477,-27722.8C80.322,-27722.8 80.189,-27722.7 80.189,-27722.5M80.189,-27722.5L80.189,-27736.7C80.189,-27736.9 80.311,-27737 80.477,-27737M80.477,-27737L108.824,-27737C108.979,-27737 109.112,-27736.9 109.112,-27736.7M109.112,-27736.7L109.112,-27722.5C109.112,-27722.7 108.99,-27722.8 108.824,-27722.8M108.824,-27722.8L137.17,-27722.8M137.17,-27722.8C137.015,-27722.8 136.882,-27722.7 136.882,-27722.5M136.882,-27722.5L136.882,-27736.7C136.882,-27736.9 137.004,-27737 137.17,-27737M137.17,-27737L165.517,-27737C165.672,-27737 165.805,-27736.9 165.805,-27736.7M165.805,-27736.7L165.805,-27722.5C165.805,-27722.7 165.683,-27722.8 165.517,-27722.8M165.517,-27722.8L193.863,-27722.8M193.863,-27722.8C193.708,-27722.8 193.575,-27722.7 193.575,-27722.5M193.575,-27722.5L193.575,-27736.7C193.575,-27736.9 193.697,-27737 193.863,-27737M193.863,-27737L222.21,-27737C222.365,-27737 222.498,-27736.9 222.498,-27736.7M222.498,-27736.7L222.498,-27722.5C222.498,-27722.7 222.376,-27722.8 222.21,-27722.8M222.21,-27722.8L274.341,-27722.8M274.341,-27722.8L271.163,-27722.8C271.318,-27722.8 271.451,-27722.7 271.451,-27722.5M271.451,-27722.5L271.451,-27687.1M271.451,-27687.1C271.451,-27687.3 271.329,-27687.4 271.163,-27687.4M271.163,-27687.4L284.638,-27687.4C284.793,-27687.4 284.926,-27687.3 284.926,-27687.1M284.926,-27687.1L284.926,-27658.8C284.926,-27658.6 284.804,-27658.5 284.638,-27658.5M284.638,-27658.5L271.163,-27658.5C271.318,-27658.5 271.451,-27658.6 271.451,-27658.8M271.451,-27658.8L271.451,-27623.3M271.451,-27623.3C271.451,-27623.2 271.329,-27623 271.163,-27623M271.163,-27623L274.341,-27623M274.341,-27623L28.346,-27623M28.346,-27623L18.049,-27623C17.894,-27623 17.761,-27623.2 17.761,-27623.3M17.761,-27623.3L17.761,-27658.8M17.761,-27658.8C17.761,-27658.9 17.883,-27659.1 18.049,-27659.1M18.049,-27659.1L31.524,-27659.1C31.369,-27659.1 31.236,-27658.9 31.236,-27658.8M31.236,-27658.8L31.236,-27687.1C31.236,-27687 31.358,-27686.8 31.524,-27686.8M31.524,-27686.8L18.049,-27686.8C17.894,-27686.8 17.761,-27686.9 17.761,-27687.1M17.761,-27687.1L17.761,-27722.5M17.761,-27722.5C17.761,-27722.7 17.883,-27722.8 18.049,-27722.8M18.049,-27722.8L28.346,-27722.8" style="fill:none;stroke:rgb(0,0,255);stroke-width:0.1px;"/>
    </g>
    <g transform="matrix(4.16672,1.02085e-15,1.02085e-15,-4.16672,1907.28,-113940)">
        <path d="M28.346,-27722.8L80.477,-27722.8M80.477,-27722.8C80.322,-27722.8 80.189,-27722.7 80.189,-27722.5M80.189,-27722.5L80.189,-27736.7C80.189,-27736.9 80.311,-27737 80.477,-27737M80.477,-27737L108.824,-27737C108.979,-27737 109.112,-27736.9 109.112,-27736.7M109.112,-27736.7L109.112,-27722.5C109.112,-27722.7 108.99,-27722.8 108.824,-27722.8M108.824,-27722.8L137.17,-27722.8M137.17,-27722.8C137.015,-27722.8 136.882,-27722.7 136.882,-27722.5M136.882,-27722.5L136.882,-27736.7C136.882,-27736.9 137.004,-27737 137.17,-27737M137.17,-27737L165.517,-27737C165.672,-27737 165.805,-27736.9 165.805,-27736.7M165.805,-27736.7L165.805,-27722.5C165.805,-27722.7 165.683,-27722.8 165.517,-27722.8M165.517,-27722.8L193.863,-27722.8M193.863,-27722.8C193.708,-27722.8 193.575,-27722.7 193.575,-27722.5M193.575,-27722.5L193.575,-27736.7C193.575,-27736.9 193.697,-27737 193.863,-27737M193.863,-27737L222.21,-27737C222.365,-27737 222.498,-27736.9 222.498,-27736.7M222.498,-27736.7L222.498,-27722.5C222.498,-27722.7 222.376,-27722.8 222.21,-27722.8M222.21,-27722.8L274.341,-27722.8M274.341,-27722.8L271.163,-27722.8C271.318,-27722.8 271.451,-27722.7 271.451,-27722.5M271.451,-27722.5L271.451,-27687.1M271.451,-27687.1C271.451,-27687.3 271.329,-27687.4 271.163,-27687.4M271.163,-27687.4L284.638,-27687.4C284.793,-27687.4 284.926,-27687.3 284.926,-27687.1M284.926,-27687.1L284.926,-27658.8C284.926,-27658.6 284.804,-27658.5 284.638,-27658.5M284.638,-27658.5L271.163,-27658.5C271.318,-27658.5 271.451,-27658.6 271.451,-27658.8M271.451,-27658.8L271.451,-27623.3M271.451,-27623.3C271.451,-27623.2 271.329,-27623 271.163,-27623M271.163,-27623L274.341,-27623M274.341,-27623L28.346,-27623M28.346,-27623L18.049,-27623C17.894,-27623 17.761,-27623.2 17.761,-27623.3M17.761,-27623.3L17.761,-27658.8M17.761,-27658.8C17.761,-27658.9 17.883,-27659.1 18.049,-27659.1M18.049,-27659.1L31.524,-27659.1C31.369,-27659.1 31.236,-27658.9 31.236,-27658.8M31.236,-27658.8L31.236,-27687.1C31.236,-27687 31.358,-27686.8 31.524,-27686.8M31.524,-27686.8L18.049,-27686.8C17.894,-27686.8 17.761,-27686.9 17.761,-27687.1M17.761,-27687.1L17.761,-27722.5M17.761,-27722.5C17.761,-27722.7 17.883,-27722.8 18.049,-27722.8M18.049,-27722.8L28.346,-27722.8" style="fill:none;stroke:rgb(0,0,255);stroke-width:0.1px;"/>
    </g>
    <g transform="matrix(1,0,0,1,-1142.72,-496.063)">
        <path d="M1497.05,714.19C1509.92,689.838 1535.52,673.228 1564.96,673.228C1594.4,673.228 1620,689.838 1632.87,714.19L1632.87,785.81C1620,810.162 1594.4,826.772 1564.96,826.772C1535.52,826.772 1509.92,810.162 1497.05,785.81L1497.05,714.19Z" style="fill:none;stroke:rgb(0,0,255);stroke-width:0.42px;stroke-linecap:round;stroke-linejoin:round;stroke-miterlimit:1.5;"/>
    </g>
    <g transform="matrix(1.63265,0,0,1.63265,-2117.79,-2503.21)">
        <circle cx="1919.29" cy="2509.84" r="289.37" style="fill:none;stroke:rgb(0,0,255);stroke-width:0.26px;stroke-linecap:round;stroke-linejoin:round;stroke-miterlimit:1.5;"/>
    </g>
    <path d="M1486.41,2129.19C1490.6,2130.93 1495.19,2131.89 1500,2131.89C1504.83,2131.89 1509.43,2130.92 1513.63,2129.17L1535.43,2238.19L1464.57,2238.19L1486.37,2129.17L1486.41,2129.19ZM1486.07,2129.04L1486.08,2129.05L1486.07,2129.04L1486.07,2129.04ZM1513.93,2129.04L1513.92,2129.05L1513.93,2129.04L1513.93,2129.04ZM1514.23,2128.91L1514.23,2128.91L1514.23,2128.91L1514.23,2128.91ZM1485.77,2128.91L1485.78,2128.91L1485.77,2128.91L1485.77,2128.91ZM1514.52,2128.78L1514.51,2128.78L1514.53,2128.78L1514.52,2128.78ZM1485.47,2128.78L1485.49,2128.78L1485.48,2128.78L1485.47,2128.78ZM1485.18,2128.64L1485.18,2128.65L1485.18,2128.65L1485.18,2128.64ZM1514.82,2128.65L1514.82,2128.65L1514.82,2128.64L1514.82,2128.65ZM1484.88,2128.51L1484.9,2128.51L1484.89,2128.51L1484.88,2128.51ZM1515.11,2128.51L1515.1,2128.51L1515.12,2128.51L1515.11,2128.51ZM1484.59,2128.37L1484.6,2128.37L1484.6,2128.37L1484.59,2128.37ZM1515.4,2128.37L1515.4,2128.37L1515.41,2128.37L1515.4,2128.37ZM1484.3,2128.23L1484.32,2128.23L1484.31,2128.23L1484.3,2128.23ZM1515.69,2128.23L1515.68,2128.23L1515.7,2128.23L1515.69,2128.23ZM1484.01,2128.08L1484.02,2128.09L1484.02,2128.08L1484.01,2128.08ZM1515.98,2128.08L1515.98,2128.09L1515.99,2128.08L1515.98,2128.08ZM1483.72,2127.93L1483.74,2127.94L1483.73,2127.94L1483.72,2127.93ZM1516.27,2127.94L1516.26,2127.94L1516.28,2127.93L1516.27,2127.94ZM1483.43,2127.78L1483.45,2127.79L1483.44,2127.79L1483.43,2127.78ZM1516.56,2127.79L1516.55,2127.79L1516.57,2127.78L1516.56,2127.79ZM1483.15,2127.63L1483.17,2127.64L1483.16,2127.63L1483.15,2127.63ZM1516.84,2127.63L1516.83,2127.64L1516.85,2127.63L1516.84,2127.63ZM1482.86,2127.47L1482.88,2127.48L1482.88,2127.48L1482.86,2127.47ZM1517.12,2127.48L1517.12,2127.48L1517.14,2127.47L1517.12,2127.48ZM1517.41,2127.32L1517.4,2127.33L1517.41,2127.32L1517.41,2127.32ZM1482.59,2127.32L1482.6,2127.33L1482.59,2127.32L1482.59,2127.32ZM1517.69,2127.16L1517.68,2127.17L1517.7,2127.15L1517.69,2127.16ZM1482.3,2127.15L1482.32,2127.17L1482.31,2127.16L1482.3,2127.15ZM1517.96,2127L1517.95,2127L1517.97,2127L1517.96,2127ZM1482.03,2127L1482.05,2127L1482.04,2127L1482.03,2127ZM1481.74,2126.82L1481.77,2126.84L1481.76,2126.83L1481.74,2126.82ZM1518.24,2126.83L1518.23,2126.84L1518.26,2126.82L1518.24,2126.83ZM1481.48,2126.66L1481.49,2126.67L1481.48,2126.67L1481.48,2126.66ZM1518.52,2126.67L1518.51,2126.67L1518.52,2126.66L1518.52,2126.67ZM1481.19,2126.49L1481.22,2126.5L1481.21,2126.5L1481.19,2126.49ZM1518.79,2126.5L1518.78,2126.5L1518.81,2126.49L1518.79,2126.5ZM1519.06,2126.32L1519.05,2126.33L1519.07,2126.32L1519.06,2126.32ZM1480.93,2126.32L1480.95,2126.33L1480.94,2126.32L1480.93,2126.32ZM1480.65,2126.14L1480.68,2126.16L1480.67,2126.15L1480.65,2126.14ZM1519.33,2126.15L1519.32,2126.16L1519.35,2126.14L1519.33,2126.15ZM1519.6,2125.97L1519.59,2125.98L1519.6,2125.97L1519.6,2125.97ZM1480.4,2125.97L1480.41,2125.98L1480.4,2125.97L1480.4,2125.97ZM1480.11,2125.78L1480.15,2125.8L1480.13,2125.79L1480.11,2125.78ZM1519.87,2125.79L1519.85,2125.8L1519.89,2125.78L1519.87,2125.79ZM1479.87,2125.61L1479.88,2125.62L1479.87,2125.61L1479.87,2125.61ZM1520.13,2125.61L1520.12,2125.62L1520.13,2125.61L1520.13,2125.61ZM1479.59,2125.41L1479.62,2125.44L1479.61,2125.43L1479.59,2125.41ZM1520.39,2125.43L1520.38,2125.44L1520.41,2125.41L1520.39,2125.43ZM1520.66,2125.24L1520.65,2125.25L1520.66,2125.24L1520.66,2125.24ZM1479.34,2125.24L1479.35,2125.25L1479.34,2125.24L1479.34,2125.24ZM1479.06,2125.04L1479.1,2125.06L1479.09,2125.05L1479.06,2125.04ZM1520.91,2125.05L1520.9,2125.06L1520.94,2125.04L1520.91,2125.05ZM1478.82,2124.86L1478.83,2124.87L1478.83,2124.86L1478.82,2124.86ZM1521.17,2124.86L1521.17,2124.87L1521.18,2124.86L1521.17,2124.86ZM1521.43,2124.67L1521.41,2124.68L1521.45,2124.65L1521.43,2124.67ZM1478.55,2124.65L1478.59,2124.68L1478.57,2124.67L1478.55,2124.65ZM1478.31,2124.47L1478.32,2124.48L1478.32,2124.47L1478.31,2124.47ZM1521.68,2124.47L1521.68,2124.48L1521.69,2124.47L1521.68,2124.47ZM1478.04,2124.26L1478.08,2124.29L1478.06,2124.28L1478.04,2124.26ZM1521.94,2124.28L1521.92,2124.29L1521.96,2124.26L1521.94,2124.28ZM1477.81,2124.07L1477.82,2124.08L1477.81,2124.08L1477.81,2124.07ZM1522.19,2124.08L1522.18,2124.08L1522.19,2124.07L1522.19,2124.08ZM1477.54,2123.86L1477.58,2123.89L1477.56,2123.88L1477.54,2123.86ZM1522.44,2123.88L1522.42,2123.89L1522.46,2123.86L1522.44,2123.88ZM1477.32,2123.67L1477.32,2123.67L1477.32,2123.67L1477.32,2123.67ZM1522.68,2123.67L1522.68,2123.67L1522.68,2123.67L1522.68,2123.67ZM1477.05,2123.45L1477.09,2123.48L1477.07,2123.46L1477.05,2123.45ZM1522.93,2123.46L1522.91,2123.48L1522.95,2123.45L1522.93,2123.46ZM1476.83,2123.26L1476.83,2123.26L1476.83,2123.26L1476.83,2123.26ZM1523.17,2123.26L1523.17,2123.26L1523.17,2123.26L1523.17,2123.26ZM1476.57,2123.03L1476.61,2123.06L1476.59,2123.05L1476.57,2123.03ZM1523.41,2123.05L1523.39,2123.06L1523.43,2123.03L1523.41,2123.05ZM1523.65,2122.83L1523.65,2122.83L1523.65,2122.83L1523.65,2122.83ZM1476.35,2122.83L1476.35,2122.83L1476.35,2122.83L1476.35,2122.83ZM1476.09,2122.6L1476.13,2122.63L1476.11,2122.62L1476.09,2122.6ZM1523.89,2122.62L1523.87,2122.63L1523.91,2122.6L1523.89,2122.62ZM1475.62,2122.16L1475.66,2122.2L1475.64,2122.18L1475.62,2122.16ZM1524.36,2122.18L1524.34,2122.2L1524.38,2122.16L1524.36,2122.18ZM1524.82,2121.74L1524.8,2121.76L1524.84,2121.72L1524.82,2121.74ZM1475.16,2121.72L1475.2,2121.76L1475.18,2121.74L1475.16,2121.72ZM1474.71,2121.26L1474.75,2121.3L1474.73,2121.28L1474.71,2121.26ZM1525.27,2121.28L1525.25,2121.3L1525.29,2121.26L1525.27,2121.28ZM1474.26,2120.8L1474.3,2120.84L1474.28,2120.82L1474.26,2120.8ZM1525.72,2120.82L1525.7,2120.84L1525.74,2120.8L1525.72,2120.82ZM1473.83,2120.33L1473.87,2120.38L1473.85,2120.35L1473.83,2120.33ZM1526.15,2120.35L1526.13,2120.38L1526.17,2120.33L1526.15,2120.35ZM1473.4,2119.85L1473.44,2119.9L1473.42,2119.88L1473.4,2119.85ZM1526.58,2119.88L1526.56,2119.9L1526.6,2119.85L1526.58,2119.88ZM1472.98,2119.37L1473.02,2119.42L1473,2119.39L1472.98,2119.37ZM1527,2119.39L1526.98,2119.42L1527.02,2119.37L1527,2119.39ZM1472.79,2119.14L1472.79,2119.15L1472.79,2119.15L1472.79,2119.14ZM1527.21,2119.15L1527.21,2119.15L1527.21,2119.14L1527.21,2119.15ZM1472.57,2118.88L1472.61,2118.93L1472.59,2118.9L1472.57,2118.88ZM1527.41,2118.9L1527.39,2118.93L1527.43,2118.88L1527.41,2118.9ZM1527.61,2118.65L1527.61,2118.65L1527.62,2118.65L1527.61,2118.65ZM1472.38,2118.65L1472.39,2118.65L1472.39,2118.65L1472.38,2118.65ZM1472.17,2118.38L1472.21,2118.43L1472.19,2118.4L1472.17,2118.38ZM1527.81,2118.4L1527.79,2118.43L1527.83,2118.38L1527.81,2118.4ZM1471.98,2118.14L1471.99,2118.15L1471.99,2118.15L1471.98,2118.14ZM1528.01,2118.15L1528.01,2118.15L1528.02,2118.14L1528.01,2118.15ZM1471.78,2117.87L1471.82,2117.92L1471.79,2117.89L1471.78,2117.87ZM1528.21,2117.89L1528.18,2117.92L1528.22,2117.87L1528.21,2117.89ZM1471.59,2117.63L1471.6,2117.64L1471.6,2117.64L1471.59,2117.63ZM1528.4,2117.64L1528.4,2117.64L1528.41,2117.63L1528.4,2117.64ZM1528.59,2117.38L1528.57,2117.41L1528.61,2117.36L1528.59,2117.38ZM1471.39,2117.36L1471.43,2117.41L1471.41,2117.38L1471.39,2117.36ZM1471.21,2117.11L1471.22,2117.13L1471.22,2117.12L1471.21,2117.11ZM1528.78,2117.12L1528.78,2117.13L1528.79,2117.11L1528.78,2117.12ZM1528.96,2116.86L1528.94,2116.89L1528.98,2116.84L1528.96,2116.86ZM1471.02,2116.84L1471.06,2116.89L1471.04,2116.86L1471.02,2116.84ZM1529.15,2116.6L1529.14,2116.6L1529.16,2116.58L1529.15,2116.6ZM1470.84,2116.58L1470.86,2116.6L1470.85,2116.6L1470.84,2116.58ZM1529.33,2116.33L1529.31,2116.36L1529.35,2116.31L1529.33,2116.33ZM1470.65,2116.31L1470.69,2116.36L1470.67,2116.33L1470.65,2116.31ZM1529.51,2116.07L1529.51,2116.07L1529.52,2116.04L1529.51,2116.07ZM1470.48,2116.04L1470.49,2116.07L1470.49,2116.07L1470.48,2116.04ZM1529.69,2115.8L1529.67,2115.83L1529.7,2115.77L1529.69,2115.8ZM1470.3,2115.77L1470.33,2115.83L1470.31,2115.8L1470.3,2115.77ZM1529.86,2115.53L1529.86,2115.53L1529.88,2115.5L1529.86,2115.53ZM1470.12,2115.5L1470.14,2115.53L1470.14,2115.53L1470.12,2115.5ZM1530.03,2115.26L1530.01,2115.29L1530.05,2115.23L1530.03,2115.26ZM1469.95,2115.23L1469.99,2115.29L1469.97,2115.26L1469.95,2115.23ZM1469.78,2114.96L1469.8,2114.99L1469.8,2114.98L1469.78,2114.96ZM1530.2,2114.98L1530.2,2114.99L1530.22,2114.96L1530.2,2114.98ZM1469.62,2114.68L1469.65,2114.74L1469.63,2114.71L1469.62,2114.68ZM1530.37,2114.71L1530.35,2114.74L1530.38,2114.68L1530.37,2114.71ZM1530.54,2114.43L1530.53,2114.44L1530.55,2114.4L1530.54,2114.43ZM1469.45,2114.4L1469.47,2114.44L1469.46,2114.43L1469.45,2114.4ZM1530.7,2114.15L1530.68,2114.19L1530.71,2114.13L1530.7,2114.15ZM1469.29,2114.13L1469.32,2114.19L1469.3,2114.15L1469.29,2114.13ZM1469.12,2113.84L1469.15,2113.88L1469.14,2113.87L1469.12,2113.84ZM1530.86,2113.87L1530.85,2113.88L1530.88,2113.84L1530.86,2113.87ZM1531.02,2113.59L1531,2113.62L1531.03,2113.57L1531.02,2113.59ZM1468.97,2113.57L1469,2113.62L1468.98,2113.59L1468.97,2113.57ZM1531.17,2113.31L1531.16,2113.32L1531.19,2113.28L1531.17,2113.31ZM1468.81,2113.28L1468.84,2113.32L1468.83,2113.31L1468.81,2113.28ZM1531.32,2113.02L1531.31,2113.06L1531.34,2113L1531.32,2113.02ZM1468.66,2113L1468.69,2113.06L1468.68,2113.02L1468.66,2113ZM1468.51,2112.71L1468.53,2112.75L1468.53,2112.74L1468.51,2112.71ZM1531.47,2112.74L1531.47,2112.75L1531.49,2112.71L1531.47,2112.74ZM1468.37,2112.43L1468.4,2112.49L1468.38,2112.45L1468.37,2112.43ZM1531.62,2112.45L1531.6,2112.49L1531.63,2112.43L1531.62,2112.45ZM1468.22,2112.13L1468.24,2112.18L1468.23,2112.16L1468.22,2112.13ZM1531.77,2112.16L1531.76,2112.18L1531.78,2112.13L1531.77,2112.16ZM1468.08,2111.85L1468.11,2111.91L1468.09,2111.87L1468.08,2111.85ZM1531.91,2111.87L1531.89,2111.91L1531.92,2111.85L1531.91,2111.87ZM1467.93,2111.54L1467.96,2111.59L1467.95,2111.58L1467.93,2111.54ZM1532.05,2111.58L1532.04,2111.59L1532.07,2111.54L1532.05,2111.58ZM1532.19,2111.28L1532.17,2111.32L1532.19,2111.26L1532.19,2111.28ZM1467.81,2111.26L1467.83,2111.32L1467.81,2111.28L1467.81,2111.26ZM1532.32,2110.99L1532.31,2111.01L1532.34,2110.95L1532.32,2110.99ZM1467.66,2110.95L1467.69,2111.01L1467.68,2110.99L1467.66,2110.95ZM1532.45,2110.69L1532.44,2110.73L1532.46,2110.67L1532.45,2110.69ZM1467.54,2110.67L1467.56,2110.73L1467.55,2110.69L1467.54,2110.67ZM1532.58,2110.39L1532.58,2110.41L1532.6,2110.36L1532.58,2110.39ZM1467.4,2110.36L1467.42,2110.41L1467.42,2110.39L1467.4,2110.36ZM1467.28,2110.08L1467.31,2110.13L1467.29,2110.1L1467.28,2110.08ZM1532.71,2110.1L1532.69,2110.13L1532.72,2110.08L1532.71,2110.1ZM1467.15,2109.76L1467.17,2109.81L1467.17,2109.8L1467.15,2109.76ZM1532.83,2109.8L1532.83,2109.81L1532.85,2109.76L1532.83,2109.8ZM1467.04,2109.47L1467.06,2109.53L1467.05,2109.49L1467.04,2109.47ZM1532.95,2109.49L1532.94,2109.53L1532.96,2109.47L1532.95,2109.49ZM1466.91,2109.15L1466.93,2109.21L1466.93,2109.19L1466.91,2109.15ZM1533.07,2109.19L1533.07,2109.21L1533.09,2109.15L1533.07,2109.19ZM1466.81,2108.87L1466.83,2108.92L1466.81,2108.89L1466.81,2108.87ZM1533.19,2108.89L1533.17,2108.92L1533.19,2108.87L1533.19,2108.89ZM1466.68,2108.54L1466.71,2108.6L1466.7,2108.58L1466.68,2108.54ZM1533.3,2108.58L1533.29,2108.6L1533.32,2108.54L1533.3,2108.58ZM1466.58,2108.26L1466.6,2108.31L1466.59,2108.27L1466.58,2108.26ZM1533.41,2108.27L1533.4,2108.31L1533.42,2108.26L1533.41,2108.27ZM1533.52,2107.96L1533.51,2107.99L1533.53,2107.93L1533.52,2107.96ZM1466.47,2107.93L1466.49,2107.99L1466.48,2107.96L1466.47,2107.93ZM1466.37,2107.64L1466.39,2107.69L1466.38,2107.65L1466.37,2107.64ZM1533.62,2107.65L1533.61,2107.69L1533.63,2107.64L1533.62,2107.65ZM1533.73,2107.34L1533.72,2107.37L1533.74,2107.3L1533.73,2107.34ZM1466.26,2107.3L1466.28,2107.37L1466.27,2107.34L1466.26,2107.3ZM1466.17,2107.01L1466.18,2107.07L1466.17,2107.03L1466.17,2107.01ZM1533.83,2107.03L1533.82,2107.07L1533.83,2107.01L1533.83,2107.03ZM1533.92,2106.72L1533.91,2106.74L1533.93,2106.68L1533.92,2106.72ZM1466.07,2106.68L1466.09,2106.74L1466.08,2106.72L1466.07,2106.68ZM1534.02,2106.4L1534.01,2106.44L1534.02,2106.39L1534.02,2106.4ZM1465.98,2106.39L1465.99,2106.44L1465.98,2106.4L1465.98,2106.39ZM1534.11,2106.09L1534.1,2106.11L1534.12,2106.05L1534.11,2106.09ZM1465.88,2106.05L1465.9,2106.11L1465.89,2106.09L1465.88,2106.05ZM1465.8,2105.75L1465.82,2105.8L1465.81,2105.77L1465.8,2105.75ZM1534.19,2105.77L1534.18,2105.8L1534.2,2105.75L1534.19,2105.77ZM1465.71,2105.41L1465.73,2105.47L1465.72,2105.45L1465.71,2105.41ZM1534.28,2105.45L1534.27,2105.47L1534.29,2105.41L1534.28,2105.45ZM1534.36,2105.13L1534.35,2105.16L1534.37,2105.12L1534.36,2105.13ZM1465.63,2105.12L1465.65,2105.16L1465.64,2105.13L1465.63,2105.12ZM1465.55,2104.77L1465.57,2104.84L1465.56,2104.81L1465.55,2104.77ZM1534.44,2104.81L1534.43,2104.84L1534.45,2104.77L1534.44,2104.81ZM1465.48,2104.47L1465.49,2104.52L1465.48,2104.49L1465.48,2104.47ZM1534.52,2104.49L1534.51,2104.52L1534.52,2104.47L1534.52,2104.49ZM1465.4,2104.12L1465.41,2104.19L1465.41,2104.16L1465.4,2104.12ZM1534.59,2104.16L1534.59,2104.19L1534.6,2104.12L1534.59,2104.16ZM1465.34,2103.83L1465.35,2103.87L1465.34,2103.84L1465.34,2103.83ZM1534.66,2103.84L1534.65,2103.87L1534.66,2103.83L1534.66,2103.84ZM1465.26,2103.47L1465.28,2103.54L1465.27,2103.51L1465.26,2103.47ZM1534.73,2103.51L1534.72,2103.54L1534.74,2103.47L1534.73,2103.51ZM1465.2,2103.18L1465.21,2103.22L1465.21,2103.19L1465.2,2103.18ZM1534.79,2103.19L1534.79,2103.22L1534.8,2103.18L1534.79,2103.19ZM1465.14,2102.82L1465.15,2102.89L1465.14,2102.86L1465.14,2102.82ZM1534.86,2102.86L1534.85,2102.89L1534.86,2102.82L1534.86,2102.86ZM1465.09,2102.52L1465.09,2102.56L1465.09,2102.53L1465.09,2102.52ZM1534.91,2102.53L1534.91,2102.56L1534.91,2102.52L1534.91,2102.53ZM1465.03,2102.16L1465.04,2102.23L1465.03,2102.2L1465.03,2102.16ZM1534.97,2102.2L1534.96,2102.23L1534.98,2102.16L1534.97,2102.2ZM1535.02,2101.87L1535.02,2101.9L1535.02,2101.86L1535.02,2101.87ZM1464.98,2101.86L1464.98,2101.9L1464.98,2101.87L1464.98,2101.86ZM1535.07,2101.54L1535.07,2101.57L1535.08,2101.5L1535.07,2101.54ZM1464.92,2101.5L1464.93,2101.57L1464.93,2101.54L1464.92,2101.5ZM1535.12,2101.21L1535.11,2101.23L1535.12,2101.2L1535.12,2101.21ZM1464.88,2101.2L1464.89,2101.23L1464.88,2101.21L1464.88,2101.2ZM1464.84,2100.83L1464.84,2100.91L1464.84,2100.87L1464.84,2100.83ZM1535.16,2100.87L1535.16,2100.91L1535.16,2100.83L1535.16,2100.87ZM1464.8,2100.53L1464.8,2100.56L1464.8,2100.54L1464.8,2100.53ZM1535.2,2100.54L1535.2,2100.56L1535.2,2100.53L1535.2,2100.54ZM1464.76,2100.16L1464.77,2100.24L1464.76,2100.2L1464.76,2100.16ZM1535.24,2100.2L1535.23,2100.24L1535.24,2100.16L1535.24,2100.2ZM1464.73,2099.86L1464.73,2099.89L1464.73,2099.87L1464.73,2099.86ZM1535.27,2099.87L1535.27,2099.89L1535.27,2099.86L1535.27,2099.87ZM1464.69,2099.49L1464.7,2099.57L1464.7,2099.53L1464.69,2099.49ZM1535.3,2099.53L1535.3,2099.57L1535.31,2099.49L1535.3,2099.53ZM1464.67,2099.19L1464.67,2099.21L1464.67,2099.19L1464.67,2099.19ZM1535.33,2099.19L1535.33,2099.21L1535.33,2099.19L1535.33,2099.19ZM1464.64,2098.81L1464.65,2098.89L1464.65,2098.85L1464.64,2098.81ZM1535.35,2098.85L1535.35,2098.89L1535.36,2098.81L1535.35,2098.85ZM1535.37,2098.51L1535.37,2098.53L1535.37,2098.51L1535.37,2098.51ZM1464.63,2098.51L1464.63,2098.53L1464.63,2098.51L1464.63,2098.51ZM1464.61,2098.13L1464.61,2098.21L1464.61,2098.17L1464.61,2098.13ZM1535.39,2098.17L1535.39,2098.21L1535.39,2098.13L1535.39,2098.17ZM1464.59,2097.83L1464.59,2097.84L1464.59,2097.83L1464.59,2097.83ZM1535.41,2097.83L1535.41,2097.84L1535.41,2097.83L1535.41,2097.83ZM1535.42,2097.49L1535.42,2097.53L1535.42,2097.45L1535.42,2097.49ZM1464.58,2097.45L1464.58,2097.53L1464.58,2097.49L1464.58,2097.45ZM1464.57,2097.14L1464.57,2097.15L1464.57,2097.14L1464.57,2097.14ZM1535.43,2097.14L1535.43,2097.15L1535.43,2097.14L1535.43,2097.14ZM1464.57,2096.76L1464.57,2096.84L1464.57,2096.8L1464.57,2096.76ZM1535.43,2096.8L1535.43,2096.84L1535.43,2096.76L1535.43,2096.8ZM1499.77,2061.02L1499.54,2061.03C1499.69,2061.03 1499.85,2061.02 1500,2061.02L1499.77,2061.02Z" style="fill:rgb(128,128,128);"/>
    <g transform="matrix(1,0,0,1,153.543,-53.1496)">
        <circle cx="1346.46" cy="2149.61" r="35.433" style="fill:none;stroke:rgb(0,0,255);stroke-width:0.42px;stroke-linecap:round;stroke-linejoin:round;stroke-miterlimit:1.5;"/>
    </g>
</svg>
