<?xml version="1.0" encoding="UTF-8" standalone="no"?>
<!DOCTYPE svg PUBLIC "-//W3C//DTD SVG 1.1//EN" "http://www.w3.org/Graphics/SVG/1.1/DTD/svg11.dtd">
<svg width="100%" height="100%" viewBox="0 0 6000 3600" version="1.1" xmlns="http://www.w3.org/2000/svg" xmlns:xlink="http://www.w3.org/1999/xlink" xml:space="preserve" xmlns:serif="http://www.serif.com/" style="fill-rule:evenodd;clip-rule:evenodd;stroke-linecap:round;stroke-linejoin:round;stroke-miterlimit:1.5;">
    <g transform="matrix(1.25,0,0,1.25,-620.079,-339.567)">
        <path d="M1275.59,366.142L1927.1,839.492L1678.25,1605.39L872.935,1605.39L624.079,839.492L1275.59,366.142Z" style="fill:none;stroke:rgb(0,0,255);stroke-width:0.33px;"/>
    </g>
    <g transform="matrix(1.21212,0,0,1.21212,-2160.88,-113.636)">
        <circle cx="2586.61" cy="897.638" r="389.764" style="fill:none;stroke:rgb(255,0,0);stroke-width:3.44px;"/>
    </g>
    <g transform="matrix(1.06061,0,0,1.06061,-1768.97,22.3694)">
        <circle cx="2586.61" cy="897.638" r="389.764" style="fill:none;stroke:rgb(255,0,0);stroke-width:3.93px;"/>
    </g>
    <g>
        <g>
            <g transform="matrix(1.5,0,0,1.5,-1700.79,159.449)">
                <circle cx="1783.47" cy="248.031" r="11.811" style="fill:rgb(128,128,128);"/>
            </g>
            <g transform="matrix(1.5,0,0,1.5,-1700.79,1045.28)">
                <circle cx="1783.47" cy="248.031" r="11.811" style="fill:rgb(128,128,128);"/>
            </g>
        </g>
        <g transform="matrix(6.12323e-17,-1,1,6.12323e-17,1.13687e-13,1948.82)">
            <g transform="matrix(1.5,0,0,1.5,-1700.79,159.449)">
                <circle cx="1783.47" cy="248.031" r="11.811" style="fill:rgb(128,128,128);"/>
            </g>
            <g transform="matrix(1.5,0,0,1.5,-1700.79,1045.28)">
                <circle cx="1783.47" cy="248.031" r="11.811" style="fill:rgb(128,128,128);"/>
            </g>
        </g>
        <g transform="matrix(1.14884,0,0,1.14884,-117.89,-131.459)">
            <rect x="696.85" y="708.661" width="507.874" height="507.874" style="fill:none;stroke:rgb(255,0,0);stroke-width:3.63px;"/>
        </g>
    </g>
    <g transform="matrix(0.707107,-0.707107,0.707107,0.707107,-403.614,974.409)">
        <g>
            <g transform="matrix(1.5,0,0,1.5,-1700.79,159.449)">
                <circle cx="1783.47" cy="248.031" r="11.811" style="fill:rgb(128,128,128);"/>
            </g>
            <g transform="matrix(1.5,0,0,1.5,-1700.79,1045.28)">
                <circle cx="1783.47" cy="248.031" r="11.811" style="fill:rgb(128,128,128);"/>
            </g>
        </g>
        <g transform="matrix(6.12323e-17,-1,1,6.12323e-17,1.13687e-13,1948.82)">
            <g transform="matrix(1.5,0,0,1.5,-1700.79,159.449)">
                <circle cx="1783.47" cy="248.031" r="11.811" style="fill:rgb(128,128,128);"/>
            </g>
            <g transform="matrix(1.5,0,0,1.5,-1700.79,1045.28)">
                <circle cx="1783.47" cy="248.031" r="11.811" style="fill:rgb(128,128,128);"/>
            </g>
        </g>
        <g transform="matrix(1.14884,0,0,1.14884,-117.89,-131.459)">
            <rect x="696.85" y="708.661" width="507.874" height="507.874" style="fill:none;stroke:rgb(255,0,0);stroke-width:3.63px;"/>
        </g>
    </g>
    <g transform="matrix(0.92388,-0.382683,0.382683,0.92388,-298.718,447.063)">
        <g>
            <g transform="matrix(1.5,0,0,1.5,-1700.79,159.449)">
                <circle cx="1783.47" cy="248.031" r="11.811" style="fill:rgb(128,128,128);"/>
            </g>
            <g transform="matrix(1.5,0,0,1.5,-1700.79,1045.28)">
                <circle cx="1783.47" cy="248.031" r="11.811" style="fill:rgb(128,128,128);"/>
            </g>
        </g>
        <g transform="matrix(6.12323e-17,-1,1,6.12323e-17,1.13687e-13,1948.82)">
            <g transform="matrix(1.5,0,0,1.5,-1700.79,159.449)">
                <circle cx="1783.47" cy="248.031" r="11.811" style="fill:rgb(128,128,128);"/>
            </g>
            <g transform="matrix(1.5,0,0,1.5,-1700.79,1045.28)">
                <circle cx="1783.47" cy="248.031" r="11.811" style="fill:rgb(128,128,128);"/>
            </g>
        </g>
        <g transform="matrix(1.14884,0,0,1.14884,-117.89,-131.459)">
            <rect x="696.85" y="708.661" width="507.874" height="507.874" style="fill:none;stroke:rgb(255,0,0);stroke-width:3.63px;"/>
        </g>
    </g>
    <g transform="matrix(0.92388,0.382683,-0.382683,0.92388,447.063,-298.718)">
        <g>
            <g transform="matrix(1.5,0,0,1.5,-1700.79,159.449)">
                <circle cx="1783.47" cy="248.031" r="11.811" style="fill:rgb(128,128,128);"/>
            </g>
            <g transform="matrix(1.5,0,0,1.5,-1700.79,1045.28)">
                <circle cx="1783.47" cy="248.031" r="11.811" style="fill:rgb(128,128,128);"/>
            </g>
        </g>
        <g transform="matrix(6.12323e-17,-1,1,6.12323e-17,1.13687e-13,1948.82)">
            <g transform="matrix(1.5,0,0,1.5,-1700.79,159.449)">
                <circle cx="1783.47" cy="248.031" r="11.811" style="fill:rgb(128,128,128);"/>
            </g>
            <g transform="matrix(1.5,0,0,1.5,-1700.79,1045.28)">
                <circle cx="1783.47" cy="248.031" r="11.811" style="fill:rgb(128,128,128);"/>
            </g>
        </g>
        <g transform="matrix(1.14884,0,0,1.14884,-117.89,-131.459)">
            <rect x="696.85" y="708.661" width="507.874" height="507.874" style="fill:none;stroke:rgb(255,0,0);stroke-width:3.63px;"/>
        </g>
    </g>
    <path d="M868.199,1010.17C882.69,1054.91 924.695,1087.32 974.222,1087.4L802.586,1212.1L868.199,1010.17ZM1146.23,1212.1L974.597,1087.4C1024.12,1087.32 1066.13,1054.91 1080.62,1010.17L1146.23,1212.1ZM868.171,1010.08L696.394,885.274L908.779,885.274L974.409,683.284L1040.04,885.274L1252.42,885.274L1080.65,1010.08C1084.14,999.272 1086.02,987.748 1086.02,975.787C1086.02,914.186 1036.01,864.173 974.409,864.173C912.808,864.173 862.795,914.186 862.795,975.787C862.795,987.748 864.681,999.272 868.171,1010.08Z" style="fill:rgb(128,128,128);"/>
    <g transform="matrix(-1,0,0,1,1954.43,5.65304)">
        <path d="M1013.62,1005.5C1013.62,1011.53 1015.01,1016.23 1017.81,1019.62C1020.6,1023.01 1024.41,1024.74 1029.24,1024.79L1036.48,1024.79L1036.48,1015.19L1036.81,1015.19L1053.33,1029.27L1036.81,1043.51L1036.48,1043.18L1036.48,1033.58L1029.24,1033.58C1018.23,1033.58 1010.88,1030.33 1007.19,1023.82C1004.8,1019.8 1003.39,1014.59 1002.96,1008.19L1001.25,943.9C1001.41,926.756 1000.16,918.157 997.502,918.103C994.356,918.157 990.978,921.127 987.37,927.014C983.763,932.9 980.25,941.269 976.832,952.12L976.832,1027.56L964.543,1027.56L964.543,952.527C964.543,935.111 964.123,924.952 963.282,922.05C962.441,919.147 961.044,917.723 959.091,917.777C956.866,917.723 953.313,920.775 948.43,926.932C943.547,933.09 940.59,942.001 939.559,953.666L939.559,1027.56L927.434,1027.56L927.434,938.936C927.434,928.628 923.311,918.293 915.064,907.93L926.62,907.93C933.022,912.216 937.199,919.133 939.153,928.682C940.4,923.637 943.506,918.564 948.471,913.464C953.435,908.364 957.789,905.814 961.532,905.814C964.95,905.814 968.273,908.5 971.501,913.871C974.729,919.242 976.343,925.4 976.343,932.344C978.513,925.888 982.284,919.852 987.655,914.237C993.026,908.622 997.746,905.814 1001.82,905.814C1005.18,905.814 1007.97,908.079 1010.2,912.61C1012.42,917.14 1013.53,925.346 1013.53,937.227L1013.53,953.666L1013.62,1005.42L1013.62,1005.5Z" style="fill:rgb(128,128,128);fill-rule:nonzero;"/>
    </g>
</svg>
