<?xml version="1.0" encoding="UTF-8" standalone="no"?>
<!DOCTYPE svg PUBLIC "-//W3C//DTD SVG 1.1//EN" "http://www.w3.org/Graphics/SVG/1.1/DTD/svg11.dtd">
<svg width="100%" height="100%" viewBox="0 0 6000 3600" version="1.1" xmlns="http://www.w3.org/2000/svg" xmlns:xlink="http://www.w3.org/1999/xlink" xml:space="preserve" xmlns:serif="http://www.serif.com/" style="fill-rule:evenodd;clip-rule:evenodd;stroke-linecap:round;stroke-linejoin:round;stroke-miterlimit:1.5;">
    <g>
        <g transform="matrix(0.7,0,0,0.347826,134.646,701.215)">
            <rect x="2043.31" y="649.606" width="59.055" height="271.654" style="fill:none;stroke:rgb(0,0,255);stroke-width:0.75px;"/>
        </g>
        <g transform="matrix(0.7,0,0,0.347826,-1087.8,701.215)">
            <rect x="2043.31" y="649.606" width="59.055" height="271.654" style="fill:none;stroke:rgb(0,0,255);stroke-width:0.75px;"/>
        </g>
    </g>
    <g transform="matrix(6.12323e-17,-1,1,6.12323e-17,-1.02318e-12,1948.82)">
        <g transform="matrix(0.7,0,0,0.347826,134.646,701.215)">
            <rect x="2043.31" y="649.606" width="59.055" height="271.654" style="fill:none;stroke:rgb(0,0,255);stroke-width:0.75px;"/>
        </g>
        <g transform="matrix(0.7,0,0,0.347826,-1087.8,701.215)">
            <rect x="2043.31" y="649.606" width="59.055" height="271.654" style="fill:none;stroke:rgb(0,0,255);stroke-width:0.75px;"/>
        </g>
    </g>
    <g transform="matrix(0.707107,-0.707107,0.707107,0.707107,-403.614,974.409)">
        <g transform="matrix(0.7,0,0,0.347826,134.646,701.215)">
            <rect x="2043.31" y="649.606" width="59.055" height="271.654" style="fill:none;stroke:rgb(0,0,255);stroke-width:0.75px;"/>
        </g>
        <g transform="matrix(0.7,0,0,0.347826,-1087.8,701.215)">
            <rect x="2043.31" y="649.606" width="59.055" height="271.654" style="fill:none;stroke:rgb(0,0,255);stroke-width:0.75px;"/>
        </g>
    </g>
    <g transform="matrix(-0.707107,-0.707107,0.707107,-0.707107,974.409,2352.43)">
        <g transform="matrix(0.7,0,0,0.347826,134.646,701.215)">
            <rect x="2043.31" y="649.606" width="59.055" height="271.654" style="fill:none;stroke:rgb(0,0,255);stroke-width:0.75px;"/>
        </g>
        <g transform="matrix(0.7,0,0,0.347826,-1087.8,701.215)">
            <rect x="2043.31" y="649.606" width="59.055" height="271.654" style="fill:none;stroke:rgb(0,0,255);stroke-width:0.75px;"/>
        </g>
    </g>
    <g transform="matrix(1.21212,0,0,1.21212,-2160.88,-113.636)">
        <circle cx="2586.61" cy="897.638" r="389.764" style="fill:none;stroke:rgb(255,0,0);stroke-width:3.44px;"/>
    </g>
    <g transform="matrix(1.51515,0,0,1.51515,-2944.7,-385.648)">
        <circle cx="2586.61" cy="897.638" r="389.764" style="fill:none;stroke:rgb(255,0,0);stroke-width:2.75px;"/>
    </g>
    <g>
        <g transform="matrix(1,0,0,1,-401.575,-23.622)">
            <path d="M1653.54,283.465L1665.35,283.465L1665.35,324.803L1759.84,324.803L1759.84,283.465L1771.65,283.465L1771.65,236.22L1653.54,236.22L1653.54,283.465Z" style="fill:none;stroke:rgb(0,0,255);stroke-width:0.42px;"/>
        </g>
        <g transform="matrix(1,0,0,-1,-401.575,448.819)">
            <path d="M1653.54,236.22L1653.54,283.465L1665.35,283.465L1665.35,324.803L1759.84,324.803L1759.84,283.465L1771.65,283.465L1771.65,236.22" style="fill:none;stroke:rgb(0,0,255);stroke-width:0.42px;"/>
        </g>
        <g transform="matrix(1,0,0,1,-283.465,-23.622)">
            <path d="M1653.54,283.465L1665.35,283.465L1665.35,324.803L1759.84,324.803L1759.84,283.465L1771.65,283.465L1771.65,236.22L1653.54,236.22" style="fill:none;stroke:rgb(0,0,255);stroke-width:0.42px;"/>
        </g>
        <g transform="matrix(1,0,0,-1,-283.465,448.819)">
            <path d="M1653.54,283.465L1665.35,283.465L1665.35,324.803L1759.84,324.803L1759.84,283.465L1771.65,283.465L1771.65,236.22" style="fill:none;stroke:rgb(0,0,255);stroke-width:0.42px;"/>
        </g>
    </g>
    <g>
        <g transform="matrix(1,0,0,1,-165.354,129.921)">
            <path d="M1653.54,283.465L1665.35,283.465L1665.35,324.803L1759.84,324.803L1759.84,283.465L1771.65,283.465L1771.65,236.22L1653.54,236.22L1653.54,283.465Z" style="fill:none;stroke:rgb(0,0,255);stroke-width:0.42px;"/>
        </g>
        <g transform="matrix(1,0,0,-1,-165.354,602.362)">
            <path d="M1653.54,236.22L1653.54,283.465L1665.35,283.465L1665.35,324.803L1759.84,324.803L1759.84,283.465L1771.65,283.465L1771.65,236.22" style="fill:none;stroke:rgb(0,0,255);stroke-width:0.42px;"/>
        </g>
        <g transform="matrix(1,0,0,1,-47.2441,129.921)">
            <path d="M1653.54,283.465L1665.35,283.465L1665.35,324.803L1759.84,324.803L1759.84,283.465L1771.65,283.465L1771.65,236.22L1653.54,236.22" style="fill:none;stroke:rgb(0,0,255);stroke-width:0.42px;"/>
        </g>
        <g transform="matrix(1,0,0,-1,-47.2441,602.362)">
            <path d="M1653.54,283.465L1665.35,283.465L1665.35,324.803L1759.84,324.803L1759.84,283.465L1771.65,283.465L1771.65,236.22" style="fill:none;stroke:rgb(0,0,255);stroke-width:0.42px;"/>
        </g>
    </g>
    <g transform="matrix(1,0,0,1,-47.2441,1342.37)">
        <path d="M1653.54,283.465L1665.35,283.465L1665.35,324.803L1759.84,324.803L1759.84,283.465L1771.65,283.465L1771.65,-5.906L1653.54,-5.906L1653.54,283.465Z" style="fill:none;stroke:rgb(0,0,255);stroke-width:0.42px;"/>
    </g>
    <g transform="matrix(1,0,0,1,70.8661,1342.37)">
        <path d="M1653.54,283.465L1665.35,283.465L1665.35,324.803L1759.84,324.803L1759.84,283.465L1771.65,283.465L1771.65,-5.906L1653.54,-5.906" style="fill:none;stroke:rgb(0,0,255);stroke-width:0.42px;"/>
    </g>
    <g transform="matrix(1,0,0,1,-1429.13,1340.55)">
        <path d="M1653.54,283.465L1665.35,283.465L1665.35,324.803L1759.84,324.803L1759.84,283.465L1771.65,283.465L1771.65,-5.906L1653.54,-5.906L1653.54,283.465Z" style="fill:none;stroke:rgb(0,0,255);stroke-width:0.42px;"/>
    </g>
    <g transform="matrix(1,0,0,1,-1535.43,986.22)">
        <path d="M1653.54,283.465L1665.35,283.465L1665.35,324.803L1759.84,324.803L1759.84,283.465L1771.65,283.465L1771.65,-5.906L1653.54,-5.906L1653.54,283.465Z" style="fill:none;stroke:rgb(0,0,255);stroke-width:0.42px;"/>
    </g>
    <g transform="matrix(1,0,0,1,70.8661,950.787)">
        <path d="M1653.54,283.465L1665.35,283.465L1665.35,324.803L1759.84,324.803L1759.84,283.465L1771.65,283.465L1771.65,-5.906L1653.54,-5.906L1653.54,283.465Z" style="fill:none;stroke:rgb(0,0,255);stroke-width:0.42px;"/>
    </g>
    <g>
        <g transform="matrix(1,0,0,1,-1169.29,-23.622)">
            <path d="M1653.54,283.465L1665.35,283.465L1665.35,324.803L1759.84,324.803L1759.84,283.465L1771.65,283.465L1771.65,236.22L1653.54,236.22L1653.54,283.465Z" style="fill:none;stroke:rgb(0,0,255);stroke-width:0.42px;"/>
        </g>
        <g transform="matrix(1,0,0,-1,-1169.29,448.819)">
            <path d="M1653.54,236.22L1653.54,283.465L1665.35,283.465L1665.35,324.803L1759.84,324.803L1759.84,283.465L1771.65,283.465L1771.65,236.22" style="fill:none;stroke:rgb(0,0,255);stroke-width:0.42px;"/>
        </g>
        <g transform="matrix(1,0,0,1,-1051.18,-23.622)">
            <path d="M1653.54,283.465L1665.35,283.465L1665.35,324.803L1759.84,324.803L1759.84,283.465L1771.65,283.465L1771.65,236.22L1653.54,236.22" style="fill:none;stroke:rgb(0,0,255);stroke-width:0.42px;"/>
        </g>
        <g transform="matrix(1,0,0,-1,-1051.18,448.819)">
            <path d="M1653.54,283.465L1665.35,283.465L1665.35,324.803L1759.84,324.803L1759.84,283.465L1771.65,283.465L1771.65,236.22" style="fill:none;stroke:rgb(0,0,255);stroke-width:0.42px;"/>
        </g>
    </g>
    <g>
        <g transform="matrix(1,0,0,1,-1452.76,129.921)">
            <path d="M1653.54,283.465L1665.35,283.465L1665.35,324.803L1759.84,324.803L1759.84,283.465L1771.65,283.465L1771.65,236.22L1653.54,236.22L1653.54,283.465Z" style="fill:none;stroke:rgb(0,0,255);stroke-width:0.42px;"/>
        </g>
        <g transform="matrix(1,0,0,-1,-1452.76,602.362)">
            <path d="M1653.54,236.22L1653.54,283.465L1665.35,283.465L1665.35,324.803L1759.84,324.803L1759.84,283.465L1771.65,283.465L1771.65,236.22" style="fill:none;stroke:rgb(0,0,255);stroke-width:0.42px;"/>
        </g>
        <g transform="matrix(1,0,0,1,-1334.65,129.921)">
            <path d="M1653.54,283.465L1665.35,283.465L1665.35,324.803L1759.84,324.803L1759.84,283.465L1771.65,283.465L1771.65,236.22L1653.54,236.22" style="fill:none;stroke:rgb(0,0,255);stroke-width:0.42px;"/>
        </g>
        <g transform="matrix(1,0,0,-1,-1334.65,602.362)">
            <path d="M1653.54,283.465L1665.35,283.465L1665.35,324.803L1759.84,324.803L1759.84,283.465L1771.65,283.465L1771.65,236.22" style="fill:none;stroke:rgb(0,0,255);stroke-width:0.42px;"/>
        </g>
    </g>
    <path d="M974.409,118.11L1788.8,709.798L1477.73,1667.17L471.089,1667.17L160.021,709.798L582.974,402.746L673.224,526.966L1064.99,242.329L974.742,118.11L974.409,118.11Z" style="fill:none;stroke:rgb(0,0,255);stroke-width:0.42px;"/>
    <g transform="matrix(1.6,0,0,0.152174,-2052.76,1526.98)">
        <rect x="2043.31" y="649.606" width="59.055" height="271.654" style="fill:none;stroke:rgb(0,0,255);stroke-width:0.37px;"/>
    </g>
    <g transform="matrix(1.29443,-0.940456,0.0894456,0.123111,-2469.92,2499.57)">
        <rect x="2043.31" y="649.606" width="59.055" height="271.654" style="fill:none;stroke:rgb(0,0,255);stroke-width:0.37px;"/>
    </g>
    <g transform="matrix(0.494427,-1.52169,0.144726,0.0470243,584.695,3958.6)">
        <rect x="2043.31" y="649.606" width="59.055" height="271.654" style="fill:none;stroke:rgb(0,0,255);stroke-width:0.37px;"/>
    </g>
    <g transform="matrix(-0.494427,-1.52169,0.144726,-0.0470243,1337.57,4647.98)">
        <rect x="2043.31" y="649.606" width="59.055" height="271.654" style="fill:none;stroke:rgb(0,0,255);stroke-width:0.37px;"/>
    </g>
    <g transform="matrix(-1.29443,-0.940456,0.0894456,-0.123111,3849.91,2379.57)">
        <rect x="2043.31" y="649.606" width="59.055" height="271.654" style="fill:none;stroke:rgb(0,0,255);stroke-width:0.37px;"/>
    </g>
</svg>
