<?xml version="1.0" encoding="UTF-8" standalone="no"?>
<!DOCTYPE svg PUBLIC "-//W3C//DTD SVG 1.1//EN" "http://www.w3.org/Graphics/SVG/1.1/DTD/svg11.dtd">
<svg width="100%" height="100%" viewBox="0 0 6000 3600" version="1.1" xmlns="http://www.w3.org/2000/svg" xmlns:xlink="http://www.w3.org/1999/xlink" xml:space="preserve" xmlns:serif="http://www.serif.com/" style="fill-rule:evenodd;clip-rule:evenodd;stroke-linecap:round;stroke-linejoin:round;stroke-miterlimit:1.5;">
    <g transform="matrix(1,0,0,1,-425.197,-912.502)">
        <path d="M543.307,1030.61C817.99,1381 1245.1,1606.3 1724.41,1606.3C2203.72,1606.3 2630.83,1381 2905.51,1030.61L2905.51,2270.77L543.307,2270.77L543.307,1030.61Z" style="fill:none;stroke:rgb(0,0,255);stroke-width:0.83px;"/>
    </g>
    <g id="Fills">
        <g transform="matrix(1,0,0,1,-271.654,-824.462)">
            <g transform="matrix(354.167,0,0,354.167,455.795,1842.4)">
                <path d="M0.02,-0.594L0.313,-0.594L0.309,-0.57C0.241,-0.57 0.21,-0.557 0.215,-0.531L0.215,-0.359L0.59,-0.355L0.578,-0.672C0.578,-0.695 0.531,-0.704 0.438,-0.699L0.426,-0.719L0.734,-0.719L0.734,-0.703C0.659,-0.703 0.624,-0.693 0.629,-0.672L0.648,-0.031C0.664,-0.016 0.702,-0.008 0.762,-0.008L0.77,0.008L0.469,0.012L0.473,-0.008C0.546,-0.008 0.587,-0.017 0.598,-0.035L0.59,-0.309L0.566,-0.32L0.219,-0.313L0.223,-0.059C0.225,-0.033 0.253,-0.018 0.305,-0.016L0.305,0L0.039,-0.004L0.035,-0.016C0.079,-0.016 0.107,-0.025 0.117,-0.043L0.113,-0.531C0.1,-0.555 0.074,-0.569 0.035,-0.574L0.02,-0.594Z" style="fill-rule:nonzero;"/>
            </g>
            <g transform="matrix(354.167,0,0,354.167,735.254,1842.4)">
                <path d="M0.371,-0.613C0.551,-0.634 0.686,-0.611 0.775,-0.543C0.865,-0.475 0.9,-0.398 0.881,-0.311C0.861,-0.223 0.813,-0.147 0.736,-0.082C0.66,-0.017 0.536,0.012 0.365,0.006C0.195,-0.001 0.09,-0.061 0.051,-0.176C0.012,-0.29 0.028,-0.389 0.1,-0.471C0.171,-0.553 0.262,-0.6 0.371,-0.613ZM0.367,-0.598C0.201,-0.564 0.115,-0.471 0.111,-0.32C0.107,-0.169 0.193,-0.074 0.367,-0.035C0.542,0.004 0.66,-0.033 0.723,-0.145C0.785,-0.257 0.787,-0.361 0.729,-0.457C0.67,-0.553 0.549,-0.6 0.367,-0.598Z" style="fill-rule:nonzero;"/>
            </g>
            <g transform="matrix(354.167,0,0,354.167,1054.83,1842.4)">
                <path d="M0.594,-0.648L0.574,-0.629L0.551,-0.543C0.465,-0.611 0.357,-0.63 0.227,-0.6C0.096,-0.57 0.023,-0.487 0.008,-0.352C-0.008,-0.216 0.024,-0.123 0.104,-0.072C0.183,-0.021 0.31,0.007 0.484,0.012L0.48,-0.172C0.488,-0.201 0.516,-0.214 0.563,-0.211L0.578,-0.23L0.32,-0.23L0.336,-0.199C0.411,-0.215 0.449,-0.185 0.449,-0.109L0.449,-0.027C0.283,-0.022 0.176,-0.069 0.131,-0.168C0.085,-0.267 0.094,-0.376 0.158,-0.496C0.222,-0.616 0.341,-0.625 0.516,-0.523C0.544,-0.508 0.564,-0.474 0.574,-0.422L0.594,-0.398L0.594,-0.648Z" style="fill-rule:nonzero;"/>
            </g>
            <g transform="matrix(354.167,0,0,354.167,1273.42,1842.4)">
                <path d="M0.583,-0.543L0.418,-0.01C0.399,0.038 0.379,0.038 0.357,-0.01L0.14,-0.528L0.13,-0.547C0.124,-0.578 0.089,-0.592 0.023,-0.589L0.011,-0.609L0.313,-0.609L0.304,-0.593C0.251,-0.593 0.227,-0.583 0.231,-0.563L0.411,-0.09L0.536,-0.496L0.567,-0.613L0.56,-0.648C0.536,-0.669 0.483,-0.678 0.399,-0.676L0.396,-0.699L0.72,-0.699L0.72,-0.68C0.67,-0.677 0.642,-0.667 0.634,-0.648L0.88,-0.082L1.126,-0.566C1.126,-0.592 1.097,-0.603 1.04,-0.598L1.032,-0.617L1.255,-0.613L1.243,-0.594C1.204,-0.589 1.178,-0.577 1.165,-0.559L0.897,-0.012C0.874,0.038 0.849,0.038 0.823,-0.012L0.583,-0.543Z" style="fill-rule:nonzero;"/>
            </g>
            <g transform="matrix(354.167,0,0,354.167,1721.66,1842.4)">
                <path d="M0.025,-0.004L0.021,-0.016C0.068,-0.021 0.098,-0.033 0.111,-0.051L0.299,-0.539C0.294,-0.565 0.261,-0.573 0.201,-0.563L0.197,-0.582L0.537,-0.582L0.529,-0.566C0.467,-0.574 0.434,-0.563 0.432,-0.531L0.623,0.07C0.646,0.076 0.679,0.079 0.721,0.082L0.717,0.098C0.618,0.1 0.523,0.1 0.432,0.098L0.447,0.082C0.492,0.085 0.518,0.078 0.525,0.063L0.439,-0.215C0.416,-0.22 0.339,-0.217 0.209,-0.207L0.158,-0.047C0.176,-0.034 0.208,-0.027 0.252,-0.027L0.256,-0.004L0.025,-0.004ZM0.432,-0.238L0.346,-0.527C0.338,-0.53 0.33,-0.525 0.322,-0.512L0.229,-0.258C0.34,-0.247 0.408,-0.241 0.432,-0.238Z" style="fill-rule:nonzero;"/>
            </g>
            <g transform="matrix(354.167,0,0,354.167,1955.47,1842.4)">
                <path d="M0.051,-0.602C0.156,-0.589 0.312,-0.587 0.52,-0.598C0.673,-0.561 0.739,-0.491 0.717,-0.387C0.695,-0.283 0.613,-0.214 0.473,-0.18L0.613,0.051C0.621,0.064 0.647,0.07 0.691,0.07L0.699,0.09L0.402,0.09L0.414,0.074C0.466,0.069 0.496,0.061 0.504,0.051L0.398,-0.152C0.372,-0.168 0.371,-0.181 0.395,-0.191C0.559,-0.238 0.629,-0.314 0.605,-0.42C0.582,-0.525 0.486,-0.575 0.316,-0.568C0.285,-0.572 0.268,-0.564 0.266,-0.543L0.266,-0.059C0.271,-0.025 0.305,-0.009 0.367,-0.012L0.375,0.004L0.031,0.004L0.039,-0.012C0.104,-0.007 0.145,-0.022 0.16,-0.059L0.16,-0.539C0.152,-0.565 0.121,-0.577 0.066,-0.574L0.051,-0.602Z" style="fill-rule:nonzero;"/>
            </g>
            <g transform="matrix(354.167,0,0,354.167,2226.63,1842.4)">
                <path d="M0.035,-0.742L0.055,-0.727C0.042,-0.648 0.089,-0.608 0.195,-0.605C0.321,-0.592 0.446,-0.591 0.57,-0.602C0.659,-0.591 0.702,-0.632 0.699,-0.723L0.715,-0.73L0.715,-0.41L0.695,-0.422C0.69,-0.516 0.656,-0.564 0.594,-0.566C0.495,-0.574 0.444,-0.568 0.441,-0.547L0.441,-0.063C0.454,-0.031 0.487,-0.018 0.539,-0.023L0.551,0L0.207,0L0.215,-0.016C0.277,-0.018 0.318,-0.034 0.336,-0.063L0.336,-0.543C0.328,-0.569 0.26,-0.577 0.133,-0.566C0.091,-0.572 0.066,-0.525 0.059,-0.426L0.047,-0.418C0.052,-0.53 0.048,-0.638 0.035,-0.742Z" style="fill-rule:nonzero;"/>
            </g>
            <g transform="matrix(354.167,0,0,354.167,2497.79,1842.4)">
                <path d="M0.418,-0.398L0.402,-0.41C0.4,-0.52 0.383,-0.577 0.352,-0.582C0.247,-0.611 0.181,-0.59 0.152,-0.52C0.124,-0.449 0.17,-0.403 0.291,-0.381C0.412,-0.359 0.472,-0.289 0.471,-0.172C0.469,-0.055 0.415,0.01 0.309,0.023C0.202,0.036 0.13,0.017 0.094,-0.035C0.076,-0.035 0.066,0.003 0.066,0.078L0.047,0.094C0.057,-0.018 0.056,-0.133 0.043,-0.25L0.063,-0.238C0.068,-0.142 0.094,-0.075 0.141,-0.037C0.188,0.001 0.241,0.007 0.301,-0.018C0.361,-0.042 0.386,-0.09 0.377,-0.162C0.368,-0.234 0.313,-0.279 0.211,-0.297C0.109,-0.315 0.067,-0.376 0.084,-0.48C0.101,-0.585 0.185,-0.634 0.336,-0.629C0.375,-0.605 0.4,-0.633 0.41,-0.711L0.426,-0.719C0.405,-0.617 0.402,-0.51 0.418,-0.398Z" style="fill-rule:nonzero;"/>
            </g>
        </g>
        <g transform="matrix(1,0,0,1,-295.276,-544.731)">
            <g transform="matrix(266.667,0,0,266.667,498.222,1820.32)">
                <path d="M0.176,-0.237L0.024,-0.237C0.023,-0.193 0.031,-0.155 0.048,-0.123C0.065,-0.091 0.087,-0.065 0.116,-0.044C0.144,-0.023 0.177,-0.008 0.214,0.002C0.251,0.011 0.289,0.016 0.328,0.016C0.377,0.016 0.42,0.01 0.457,-0.001C0.494,-0.012 0.525,-0.028 0.55,-0.049C0.575,-0.069 0.593,-0.093 0.606,-0.121C0.619,-0.149 0.625,-0.179 0.625,-0.212C0.625,-0.252 0.616,-0.285 0.6,-0.311C0.583,-0.336 0.562,-0.357 0.539,-0.372C0.516,-0.387 0.492,-0.399 0.469,-0.406C0.445,-0.413 0.426,-0.417 0.413,-0.42C0.368,-0.431 0.332,-0.441 0.305,-0.448C0.277,-0.455 0.255,-0.463 0.24,-0.47C0.224,-0.477 0.213,-0.485 0.208,-0.494C0.203,-0.503 0.2,-0.514 0.2,-0.528C0.2,-0.543 0.203,-0.556 0.21,-0.566C0.217,-0.576 0.225,-0.584 0.236,-0.591C0.246,-0.598 0.257,-0.602 0.27,-0.605C0.283,-0.608 0.295,-0.609 0.308,-0.609C0.327,-0.609 0.345,-0.607 0.362,-0.604C0.378,-0.601 0.392,-0.595 0.405,-0.587C0.418,-0.579 0.428,-0.568 0.436,-0.554C0.443,-0.54 0.448,-0.522 0.449,-0.501L0.601,-0.501C0.601,-0.542 0.593,-0.578 0.578,-0.607C0.562,-0.636 0.541,-0.659 0.514,-0.678C0.487,-0.697 0.457,-0.71 0.423,-0.719C0.388,-0.727 0.352,-0.731 0.315,-0.731C0.283,-0.731 0.251,-0.727 0.219,-0.718C0.187,-0.709 0.158,-0.696 0.133,-0.678C0.108,-0.66 0.087,-0.638 0.072,-0.611C0.056,-0.584 0.048,-0.552 0.048,-0.515C0.048,-0.482 0.054,-0.455 0.067,-0.432C0.079,-0.409 0.095,-0.389 0.115,-0.374C0.135,-0.359 0.158,-0.346 0.183,-0.337C0.208,-0.327 0.234,-0.319 0.261,-0.312C0.287,-0.305 0.313,-0.298 0.338,-0.292C0.363,-0.286 0.386,-0.279 0.406,-0.271C0.426,-0.263 0.442,-0.253 0.455,-0.241C0.467,-0.229 0.473,-0.213 0.473,-0.194C0.473,-0.176 0.468,-0.161 0.459,-0.15C0.45,-0.138 0.438,-0.129 0.424,-0.122C0.41,-0.115 0.395,-0.111 0.379,-0.109C0.363,-0.106 0.348,-0.105 0.334,-0.105C0.313,-0.105 0.293,-0.108 0.274,-0.113C0.255,-0.117 0.238,-0.125 0.224,-0.136C0.209,-0.146 0.198,-0.159 0.189,-0.176C0.18,-0.193 0.176,-0.213 0.176,-0.237Z" style="fill-rule:nonzero;"/>
            </g>
            <g transform="matrix(266.667,0,0,266.667,671.288,1820.32)">
                <path d="M0.227,-0.582L0.227,0L0.384,0L0.384,-0.582L0.598,-0.582L0.598,-0.714L0.013,-0.714L0.013,-0.582L0.227,-0.582Z" style="fill-rule:nonzero;"/>
            </g>
            <g transform="matrix(266.667,0,0,266.667,809.688,1820.32)">
                <path d="M0.249,-0.276L0.342,-0.538L0.344,-0.538L0.434,-0.276L0.249,-0.276ZM0.264,-0.714L-0.006,0L0.152,0L0.208,-0.159L0.475,-0.159L0.529,0L0.692,0L0.425,-0.714L0.264,-0.714Z" style="fill-rule:nonzero;"/>
            </g>
            <g transform="matrix(266.667,0,0,266.667,992.355,1820.32)">
                <path d="M0.069,-0.714L0.069,0L0.216,0L0.216,-0.478L0.218,-0.478L0.515,0L0.672,0L0.672,-0.714L0.525,-0.714L0.525,-0.235L0.523,-0.235L0.225,-0.714L0.069,-0.714Z" style="fill-rule:nonzero;"/>
            </g>
            <g transform="matrix(266.667,0,0,266.667,1189.95,1820.32)">
                <path d="M0.226,-0.132L0.226,-0.582L0.338,-0.582C0.377,-0.582 0.409,-0.576 0.436,-0.566C0.462,-0.555 0.483,-0.539 0.499,-0.518C0.515,-0.497 0.527,-0.472 0.534,-0.444C0.541,-0.415 0.544,-0.382 0.544,-0.346C0.544,-0.307 0.539,-0.273 0.529,-0.246C0.519,-0.219 0.506,-0.197 0.489,-0.18C0.472,-0.163 0.453,-0.15 0.432,-0.143C0.411,-0.136 0.389,-0.132 0.366,-0.132L0.226,-0.132ZM0.069,-0.714L0.069,0L0.377,0C0.432,0 0.479,-0.009 0.52,-0.028C0.56,-0.046 0.594,-0.071 0.621,-0.103C0.648,-0.135 0.668,-0.173 0.681,-0.217C0.694,-0.261 0.701,-0.309 0.701,-0.361C0.701,-0.42 0.693,-0.472 0.677,-0.516C0.66,-0.56 0.638,-0.597 0.609,-0.626C0.58,-0.655 0.545,-0.677 0.506,-0.692C0.466,-0.707 0.423,-0.714 0.377,-0.714L0.069,-0.714Z" style="fill-rule:nonzero;"/>
            </g>
            <g transform="matrix(266.667,0,0,266.667,1387.55,1820.32)">
                <path d="M0.249,-0.276L0.342,-0.538L0.344,-0.538L0.434,-0.276L0.249,-0.276ZM0.264,-0.714L-0.006,0L0.152,0L0.208,-0.159L0.475,-0.159L0.529,0L0.692,0L0.425,-0.714L0.264,-0.714Z" style="fill-rule:nonzero;"/>
            </g>
            <g transform="matrix(266.667,0,0,266.667,1570.22,1820.32)">
                <path d="M0.226,-0.391L0.226,-0.592L0.398,-0.592C0.434,-0.592 0.461,-0.584 0.479,-0.569C0.497,-0.553 0.506,-0.528 0.506,-0.493C0.506,-0.457 0.497,-0.431 0.479,-0.415C0.461,-0.399 0.434,-0.391 0.398,-0.391L0.226,-0.391ZM0.069,-0.714L0.069,0L0.226,0L0.226,-0.279L0.383,-0.279C0.422,-0.279 0.451,-0.27 0.468,-0.253C0.485,-0.236 0.497,-0.208 0.502,-0.171C0.506,-0.142 0.509,-0.112 0.511,-0.081C0.513,-0.05 0.518,-0.023 0.527,0L0.684,0C0.677,-0.01 0.671,-0.022 0.668,-0.037C0.664,-0.051 0.661,-0.066 0.66,-0.082C0.658,-0.098 0.657,-0.114 0.656,-0.129C0.655,-0.144 0.655,-0.158 0.654,-0.169C0.653,-0.187 0.65,-0.205 0.647,-0.223C0.643,-0.241 0.637,-0.258 0.629,-0.273C0.621,-0.288 0.611,-0.301 0.598,-0.312C0.585,-0.323 0.569,-0.331 0.55,-0.336L0.55,-0.338C0.59,-0.354 0.619,-0.377 0.637,-0.408C0.654,-0.439 0.663,-0.475 0.663,-0.517C0.663,-0.544 0.658,-0.57 0.649,-0.594C0.639,-0.617 0.625,-0.638 0.607,-0.656C0.588,-0.674 0.566,-0.688 0.541,-0.699C0.515,-0.709 0.486,-0.714 0.454,-0.714L0.069,-0.714Z" style="fill-rule:nonzero;"/>
            </g>
            <g transform="matrix(266.667,0,0,266.667,1762.75,1820.32)">
                <path d="M0.226,-0.132L0.226,-0.582L0.338,-0.582C0.377,-0.582 0.409,-0.576 0.436,-0.566C0.462,-0.555 0.483,-0.539 0.499,-0.518C0.515,-0.497 0.527,-0.472 0.534,-0.444C0.541,-0.415 0.544,-0.382 0.544,-0.346C0.544,-0.307 0.539,-0.273 0.529,-0.246C0.519,-0.219 0.506,-0.197 0.489,-0.18C0.472,-0.163 0.453,-0.15 0.432,-0.143C0.411,-0.136 0.389,-0.132 0.366,-0.132L0.226,-0.132ZM0.069,-0.714L0.069,0L0.377,0C0.432,0 0.479,-0.009 0.52,-0.028C0.56,-0.046 0.594,-0.071 0.621,-0.103C0.648,-0.135 0.668,-0.173 0.681,-0.217C0.694,-0.261 0.701,-0.309 0.701,-0.361C0.701,-0.42 0.693,-0.472 0.677,-0.516C0.66,-0.56 0.638,-0.597 0.609,-0.626C0.58,-0.655 0.545,-0.677 0.506,-0.692C0.466,-0.707 0.423,-0.714 0.377,-0.714L0.069,-0.714Z" style="fill-rule:nonzero;"/>
            </g>
            <g transform="matrix(266.667,0,0,266.667,2034.49,1820.32)">
                <path d="M0.227,-0.582L0.227,0L0.384,0L0.384,-0.582L0.598,-0.582L0.598,-0.714L0.013,-0.714L0.013,-0.582L0.227,-0.582Z" style="fill-rule:nonzero;"/>
            </g>
            <g transform="matrix(266.667,0,0,266.667,2197.42,1820.32)">
                <rect x="0.069" y="-0.714" width="0.157" height="0.714" style="fill-rule:nonzero;"/>
            </g>
            <g transform="matrix(266.667,0,0,266.667,2276.09,1820.32)">
                <path d="M0.069,-0.714L0.069,0L0.216,0L0.216,-0.501L0.218,-0.501L0.393,0L0.514,0L0.689,-0.506L0.691,-0.506L0.691,0L0.838,0L0.838,-0.714L0.617,-0.714L0.459,-0.223L0.457,-0.223L0.29,-0.714L0.069,-0.714Z" style="fill-rule:nonzero;"/>
            </g>
            <g transform="matrix(266.667,0,0,266.667,2517.95,1820.32)">
                <path d="M0.069,-0.714L0.069,0L0.611,0L0.611,-0.132L0.226,-0.132L0.226,-0.307L0.572,-0.307L0.572,-0.429L0.226,-0.429L0.226,-0.582L0.603,-0.582L0.603,-0.714L0.069,-0.714Z" style="fill-rule:nonzero;"/>
            </g>
        </g>
    </g>
    <g id="Outlines">
        <g transform="matrix(1,0,0,1,-271.654,-824.462)">
            <path d="M462.712,1632.12L566.472,1632.12L565.088,1640.42C541.108,1640.42 530.04,1645.03 531.885,1654.25L531.885,1715.13L664.698,1716.51L660.547,1604.45C660.547,1596.15 643.946,1592.92 610.742,1594.77L606.592,1587.85L715.886,1587.85L715.886,1593.38C689.139,1593.38 676.688,1597.07 678.532,1604.45L685.449,1831.34C690.983,1836.87 704.357,1839.64 725.57,1839.64L728.337,1845.17L621.81,1846.56L623.194,1839.64C649.018,1839.64 663.775,1836.41 667.464,1829.95L664.698,1733.11L656.397,1728.96L533.268,1731.73L534.652,1821.65C535.574,1830.88 545.259,1835.95 563.705,1836.87L563.705,1842.4L469.629,1841.02L468.246,1836.87C483.925,1836.87 493.609,1833.64 497.298,1827.19L495.915,1654.25C491.303,1645.95 482.08,1640.88 468.246,1639.04L462.712,1632.12Z" style="fill:none;fill-rule:nonzero;stroke:rgb(255,0,0);stroke-width:1px;stroke-linecap:butt;stroke-miterlimit:1.41421;"/>
            <path d="M866.683,1625.2C930.323,1617.82 978.052,1626.12 1009.87,1650.1C1041.69,1674.08 1054.14,1701.52 1047.22,1732.42C1040.31,1763.32 1023.25,1790.29 996.037,1813.35C968.829,1836.41 925.019,1846.79 864.608,1844.48C804.197,1842.17 767.074,1820.73 753.239,1780.15C739.405,1739.57 745.169,1704.75 770.532,1675.7C795.896,1646.64 827.946,1629.81 866.683,1625.2ZM865.3,1630.74C806.272,1642.73 776.066,1675.47 774.683,1728.96C773.299,1782.45 803.505,1816.12 865.3,1829.95C927.094,1843.79 969.06,1830.88 991.195,1791.22C1013.33,1751.56 1014.02,1714.66 993.27,1680.54C972.518,1646.41 929.861,1629.81 865.3,1630.74Z" style="fill:none;fill-rule:nonzero;stroke:rgb(255,0,0);stroke-width:1px;stroke-linecap:butt;stroke-miterlimit:1.41421;"/>
            <path d="M1265.12,1612.75L1258.2,1619.67L1249.9,1650.1C1219.47,1626.12 1181.19,1619.44 1135.08,1630.04C1088.96,1640.65 1063.13,1669.93 1057.6,1717.89C1052.07,1765.85 1063.37,1798.83 1091.5,1816.81C1119.63,1834.8 1164.59,1844.71 1226.38,1846.56L1225,1781.53C1227.77,1771.39 1237.45,1766.78 1254.05,1767.7L1259.59,1760.78L1168.28,1760.78L1173.81,1771.85C1200.56,1766.31 1213.93,1776.92 1213.93,1803.67L1213.93,1832.72C1154.9,1834.57 1117.32,1817.96 1101.18,1782.92C1085.04,1747.87 1088.27,1709.13 1110.87,1666.7C1133.46,1624.28 1175.66,1621.05 1237.45,1657.02C1247.6,1662.56 1254.51,1674.55 1258.2,1692.99L1265.12,1701.29L1265.12,1612.75Z" style="fill:none;fill-rule:nonzero;stroke:rgb(255,0,0);stroke-width:1px;stroke-linecap:butt;stroke-miterlimit:1.41421;"/>
            <path d="M1479.9,1650.1L1421.45,1838.77C1414.77,1855.95 1407.62,1855.95 1400.01,1838.77L1322.88,1655.29L1319.6,1648.55C1317.4,1637.71 1304.78,1632.75 1281.72,1633.67L1277.23,1626.76L1384.44,1626.76L1380.99,1632.29C1362.42,1632.29 1353.89,1635.87 1355.39,1643.01L1419.03,1810.59L1463.3,1666.7L1474.37,1625.2L1471.6,1612.75C1463.3,1605.37 1444.39,1602.14 1414.88,1603.07L1413.5,1594.77L1528.33,1594.77L1528.33,1601.68C1510.8,1602.61 1500.65,1606.29 1497.89,1612.75L1585.05,1813.35L1672.2,1641.8C1672.2,1632.58 1662.06,1628.89 1641.77,1630.74L1639,1623.82L1717.86,1625.2L1713.71,1632.12C1699.87,1633.96 1690.65,1638.11 1686.04,1644.57L1591.27,1838.25C1582.97,1855.78 1574.21,1855.78 1564.99,1838.25L1479.9,1650.1Z" style="fill:none;fill-rule:nonzero;stroke:rgb(255,0,0);stroke-width:1px;stroke-linecap:butt;stroke-miterlimit:1.41421;"/>
            <path d="M1730.66,1841.02L1729.27,1836.87C1745.87,1835.03 1756.48,1830.88 1761.09,1824.42L1827.5,1651.49C1825.65,1642.26 1814.12,1639.5 1792.91,1643.19L1791.53,1636.27L1911.89,1636.27L1909.12,1641.8C1886.99,1639.04 1875.46,1643.19 1874.54,1654.25L1942.33,1867.31C1950.63,1869.15 1962.16,1870.54 1976.91,1871.46L1975.53,1876.99C1940.48,1877.91 1906.82,1877.91 1874.54,1876.99L1880.07,1871.46C1895.75,1872.38 1904.97,1870.07 1907.74,1864.54L1877.3,1766.31C1869,1764.47 1841.79,1765.39 1795.68,1769.08L1777.69,1825.8C1784.15,1830.41 1795.22,1832.72 1810.9,1832.72L1812.28,1841.02L1730.66,1841.02ZM1874.54,1758.01L1844.1,1655.64C1841.33,1654.72 1838.57,1656.56 1835.8,1661.17L1802.6,1751.1C1842.26,1754.79 1866.24,1757.09 1874.54,1758.01Z" style="fill:none;fill-rule:nonzero;stroke:rgb(255,0,0);stroke-width:1px;stroke-linecap:butt;stroke-miterlimit:1.41421;"/>
            <path d="M1973.45,1629.35C2010.69,1633.96 2066.03,1634.42 2139.47,1630.74C2193.89,1643.65 2217.17,1668.55 2209.34,1705.44C2201.49,1742.33 2172.67,1766.78 2122.87,1778.77L2172.67,1860.39C2175.44,1865 2184.66,1867.31 2200.34,1867.31L2203.11,1874.23L2097.97,1874.23L2102.12,1868.69C2120.56,1866.85 2131.17,1864.08 2133.94,1860.39L2096.58,1788.45C2087.36,1782.92 2086.9,1778.3 2095.2,1774.62C2153.3,1758.01 2178.21,1731.04 2169.91,1693.68C2161.61,1656.33 2127.48,1638.81 2067.53,1641.11C2056.46,1639.73 2050.47,1642.73 2049.55,1650.1L2049.55,1821.65C2051.39,1833.64 2063.38,1839.18 2085.51,1838.25L2088.28,1843.79L1966.54,1843.79L1969.3,1838.25C1992.36,1840.1 2006.66,1834.57 2012.19,1821.65L2012.19,1651.49C2009.42,1642.26 1998.36,1638.11 1978.99,1639.04L1973.45,1629.35Z" style="fill:none;fill-rule:nonzero;stroke:rgb(255,0,0);stroke-width:1px;stroke-linecap:butt;stroke-miterlimit:1.41421;"/>
            <path d="M2239.08,1579.55L2246,1585.08C2241.39,1612.75 2257.99,1627.05 2295.8,1627.97C2340.42,1632.58 2384.69,1633.04 2428.61,1629.35C2459.97,1633.04 2475.19,1618.75 2474.27,1586.46L2479.8,1583.7L2479.8,1697.14L2472.88,1692.99C2471.04,1659.79 2459.05,1642.73 2436.91,1641.8C2401.87,1639.04 2383.88,1641.34 2382.96,1648.72L2382.96,1820.27C2387.57,1831.34 2399.1,1835.95 2417.55,1834.1L2421.7,1842.4L2299.95,1842.4L2302.72,1836.87C2324.85,1835.95 2339.15,1830.41 2345.61,1820.27L2345.61,1650.1C2342.84,1640.88 2318.86,1638.11 2273.67,1641.8C2258.91,1639.96 2250.15,1656.56 2247.38,1691.61L2243.23,1694.37C2245.07,1654.72 2243.69,1616.44 2239.08,1579.55Z" style="fill:none;fill-rule:nonzero;stroke:rgb(255,0,0);stroke-width:1px;stroke-linecap:butt;stroke-miterlimit:1.41421;"/>
            <path d="M2645.82,1701.29L2640.28,1697.14C2639.36,1658.4 2633.37,1638.11 2622.3,1636.27C2585.41,1626.12 2561.89,1633.5 2551.74,1658.4C2541.6,1683.31 2557.97,1699.68 2600.86,1707.52C2643.74,1715.36 2664.95,1740.03 2664.49,1781.53C2664.03,1823.04 2644.89,1846.09 2607.08,1850.71C2569.27,1855.32 2543.9,1848.4 2530.99,1829.95C2524.53,1829.95 2521.31,1843.33 2521.31,1870.07L2514.39,1875.61C2518.08,1835.95 2517.62,1795.37 2513.01,1753.86L2519.92,1758.01C2521.77,1792.14 2530.99,1815.89 2547.59,1829.26C2564.19,1842.63 2583.1,1844.94 2604.31,1836.18C2625.53,1827.42 2634.52,1810.36 2631.29,1784.99C2628.06,1759.63 2608.46,1743.72 2572.49,1737.26C2536.52,1730.81 2521.54,1709.13 2527.53,1672.24C2533.53,1635.35 2563.27,1617.82 2616.76,1619.67C2630.6,1627.97 2639.36,1618.28 2643.05,1590.61L2648.58,1587.85C2641.21,1623.82 2640.28,1661.63 2645.82,1701.29Z" style="fill:none;fill-rule:nonzero;stroke:rgb(255,0,0);stroke-width:1px;stroke-linecap:butt;stroke-miterlimit:1.41421;"/>
        </g>
        <g transform="matrix(1,0,0,1,-295.276,-544.731)">
            <path d="M545.155,1757.12L504.622,1757.12C504.444,1768.86 506.577,1778.99 511.022,1787.52C515.466,1796.06 521.466,1803.08 529.022,1808.59C536.577,1814.1 545.288,1818.14 555.155,1820.72C565.022,1823.3 575.199,1824.59 585.688,1824.59C598.666,1824.59 610.088,1823.08 619.955,1820.06C629.822,1817.03 638.088,1812.81 644.755,1807.39C651.422,1801.97 656.444,1795.52 659.822,1788.06C663.199,1780.59 664.888,1772.5 664.888,1763.79C664.888,1753.12 662.622,1744.37 658.088,1737.52C653.555,1730.68 648.177,1725.21 641.955,1721.12C635.733,1717.03 629.466,1714.06 623.155,1712.19C616.844,1710.32 611.91,1709.03 608.355,1708.32C596.444,1705.3 586.799,1702.81 579.422,1700.86C572.044,1698.9 566.266,1696.94 562.088,1694.99C557.91,1693.03 555.11,1690.9 553.688,1688.59C552.266,1686.28 551.555,1683.26 551.555,1679.52C551.555,1675.43 552.444,1672.06 554.222,1669.39C555.999,1666.72 558.266,1664.5 561.022,1662.72C563.777,1660.94 566.844,1659.7 570.222,1658.99C573.599,1658.28 576.977,1657.92 580.355,1657.92C585.51,1657.92 590.266,1658.37 594.622,1659.26C598.977,1660.14 602.844,1661.65 606.222,1663.79C609.599,1665.92 612.31,1668.86 614.355,1672.59C616.399,1676.32 617.599,1681.03 617.955,1686.72L658.488,1686.72C658.488,1675.7 656.399,1666.32 652.222,1658.59C648.044,1650.86 642.399,1644.5 635.288,1639.52C628.177,1634.54 620.044,1630.94 610.888,1628.72C601.733,1626.5 592.177,1625.39 582.222,1625.39C573.688,1625.39 565.155,1626.54 556.622,1628.86C548.088,1631.17 540.444,1634.72 533.688,1639.52C526.933,1644.32 521.466,1650.32 517.288,1657.52C513.11,1664.72 511.022,1673.21 511.022,1682.99C511.022,1691.7 512.666,1699.12 515.955,1705.26C519.244,1711.39 523.555,1716.5 528.888,1720.59C534.222,1724.68 540.266,1728.01 547.022,1730.59C553.777,1733.17 560.71,1735.34 567.822,1737.12C574.755,1739.08 581.599,1740.86 588.355,1742.45C595.11,1744.06 601.155,1745.92 606.488,1748.06C611.822,1750.19 616.133,1752.86 619.422,1756.06C622.71,1759.26 624.355,1763.43 624.355,1768.59C624.355,1773.39 623.11,1777.34 620.622,1780.45C618.133,1783.57 615.022,1786.01 611.288,1787.79C607.555,1789.57 603.555,1790.77 599.288,1791.39C595.022,1792.01 591.022,1792.32 587.288,1792.32C581.777,1792.32 576.444,1791.65 571.288,1790.32C566.133,1788.99 561.644,1786.94 557.822,1784.19C553.999,1781.43 550.933,1777.83 548.622,1773.39C546.31,1768.94 545.155,1763.52 545.155,1757.12Z" style="fill:none;fill-rule:nonzero;stroke:rgb(255,0,0);stroke-width:1px;stroke-linecap:butt;stroke-miterlimit:1.41421;"/>
            <path d="M731.822,1665.12L731.822,1820.32L773.688,1820.32L773.688,1665.12L830.755,1665.12L830.755,1629.92L674.755,1629.92L674.755,1665.12L731.822,1665.12Z" style="fill:none;fill-rule:nonzero;stroke:rgb(255,0,0);stroke-width:1px;stroke-linecap:butt;stroke-miterlimit:1.41421;"/>
            <path d="M876.088,1746.72L900.888,1676.86L901.422,1676.86L925.422,1746.72L876.088,1746.72ZM880.088,1629.92L808.088,1820.32L850.222,1820.32L865.155,1777.92L936.355,1777.92L950.755,1820.32L994.222,1820.32L923.022,1629.92L880.088,1629.92Z" style="fill:none;fill-rule:nonzero;stroke:rgb(255,0,0);stroke-width:1px;stroke-linecap:butt;stroke-miterlimit:1.41421;"/>
            <path d="M1010.75,1629.92L1010.75,1820.32L1049.95,1820.32L1049.95,1692.86L1050.49,1692.86L1129.69,1820.32L1171.56,1820.32L1171.56,1629.92L1132.36,1629.92L1132.36,1757.65L1131.82,1757.65L1052.36,1629.92L1010.75,1629.92Z" style="fill:none;fill-rule:nonzero;stroke:rgb(255,0,0);stroke-width:1px;stroke-linecap:butt;stroke-miterlimit:1.41421;"/>
            <path d="M1250.22,1785.12L1250.22,1665.12L1280.09,1665.12C1290.4,1665.12 1299.07,1666.59 1306.09,1669.52C1313.11,1672.45 1318.76,1676.68 1323.02,1682.19C1327.29,1687.7 1330.36,1694.32 1332.22,1702.06C1334.09,1709.79 1335.02,1718.45 1335.02,1728.06C1335.02,1738.54 1333.69,1747.43 1331.02,1754.72C1328.36,1762.01 1324.8,1767.92 1320.36,1772.45C1315.91,1776.99 1310.84,1780.23 1305.15,1782.19C1299.47,1784.14 1293.6,1785.12 1287.56,1785.12L1250.22,1785.12ZM1208.36,1629.92L1208.36,1820.32L1290.49,1820.32C1305.07,1820.32 1317.73,1817.88 1328.49,1812.99C1339.24,1808.1 1348.22,1801.39 1355.42,1792.86C1362.62,1784.32 1368,1774.19 1371.56,1762.45C1375.11,1750.72 1376.89,1737.92 1376.89,1724.06C1376.89,1708.23 1374.71,1694.45 1370.36,1682.72C1366,1670.99 1359.95,1661.21 1352.22,1653.39C1344.49,1645.57 1335.33,1639.7 1324.76,1635.79C1314.18,1631.88 1302.76,1629.92 1290.49,1629.92L1208.36,1629.92Z" style="fill:none;fill-rule:nonzero;stroke:rgb(255,0,0);stroke-width:1px;stroke-linecap:butt;stroke-miterlimit:1.41421;"/>
            <path d="M1453.95,1746.72L1478.76,1676.86L1479.29,1676.86L1503.29,1746.72L1453.95,1746.72ZM1457.95,1629.92L1385.95,1820.32L1428.09,1820.32L1443.02,1777.92L1514.22,1777.92L1528.62,1820.32L1572.09,1820.32L1500.89,1629.92L1457.95,1629.92Z" style="fill:none;fill-rule:nonzero;stroke:rgb(255,0,0);stroke-width:1px;stroke-linecap:butt;stroke-miterlimit:1.41421;"/>
            <path d="M1630.49,1716.06L1630.49,1662.45L1676.36,1662.45C1685.95,1662.45 1693.15,1664.54 1697.95,1668.72C1702.76,1672.9 1705.15,1679.61 1705.15,1688.86C1705.15,1698.45 1702.76,1705.39 1697.95,1709.65C1693.15,1713.92 1685.95,1716.06 1676.36,1716.06L1630.49,1716.06ZM1588.62,1629.92L1588.62,1820.32L1630.49,1820.32L1630.49,1745.92L1672.36,1745.92C1682.84,1745.92 1690.4,1748.23 1695.02,1752.86C1699.64,1757.48 1702.67,1764.77 1704.09,1774.72C1705.15,1782.37 1705.95,1790.37 1706.49,1798.72C1707.02,1807.08 1708.44,1814.28 1710.76,1820.32L1752.62,1820.32C1750.67,1817.65 1749.2,1814.41 1748.22,1810.59C1747.24,1806.77 1746.53,1802.72 1746.09,1798.45C1745.64,1794.19 1745.33,1790.01 1745.15,1785.92C1744.98,1781.83 1744.8,1778.28 1744.62,1775.26C1744.27,1770.45 1743.6,1765.65 1742.62,1760.86C1741.64,1756.06 1740.09,1751.65 1737.95,1747.65C1735.82,1743.65 1733.07,1740.19 1729.69,1737.26C1726.31,1734.32 1722.04,1732.14 1716.89,1730.72L1716.89,1730.19C1727.56,1725.92 1735.24,1719.7 1739.95,1711.52C1744.67,1703.34 1747.02,1693.65 1747.02,1682.45C1747.02,1675.17 1745.73,1668.37 1743.15,1662.06C1740.58,1655.74 1736.84,1650.19 1731.95,1645.39C1727.07,1640.59 1721.2,1636.81 1714.36,1634.06C1707.51,1631.3 1699.82,1629.92 1691.29,1629.92L1588.62,1629.92Z" style="fill:none;fill-rule:nonzero;stroke:rgb(255,0,0);stroke-width:1px;stroke-linecap:butt;stroke-miterlimit:1.41421;"/>
            <path d="M1823.02,1785.12L1823.02,1665.12L1852.89,1665.12C1863.2,1665.12 1871.87,1666.59 1878.89,1669.52C1885.91,1672.45 1891.56,1676.68 1895.82,1682.19C1900.09,1687.7 1903.15,1694.32 1905.02,1702.06C1906.89,1709.79 1907.82,1718.45 1907.82,1728.06C1907.82,1738.54 1906.49,1747.43 1903.82,1754.72C1901.15,1762.01 1897.6,1767.92 1893.15,1772.45C1888.71,1776.99 1883.64,1780.23 1877.95,1782.19C1872.27,1784.14 1866.4,1785.12 1860.36,1785.12L1823.02,1785.12ZM1781.15,1629.92L1781.15,1820.32L1863.29,1820.32C1877.87,1820.32 1890.53,1817.88 1901.29,1812.99C1912.04,1808.1 1921.02,1801.39 1928.22,1792.86C1935.42,1784.32 1940.8,1774.19 1944.36,1762.45C1947.91,1750.72 1949.69,1737.92 1949.69,1724.06C1949.69,1708.23 1947.51,1694.45 1943.15,1682.72C1938.8,1670.99 1932.76,1661.21 1925.02,1653.39C1917.29,1645.57 1908.13,1639.7 1897.56,1635.79C1886.98,1631.88 1875.56,1629.92 1863.29,1629.92L1781.15,1629.92Z" style="fill:none;fill-rule:nonzero;stroke:rgb(255,0,0);stroke-width:1px;stroke-linecap:butt;stroke-miterlimit:1.41421;"/>
            <path d="M2095.02,1665.12L2095.02,1820.32L2136.89,1820.32L2136.89,1665.12L2193.95,1665.12L2193.95,1629.92L2037.96,1629.92L2037.96,1665.12L2095.02,1665.12Z" style="fill:none;fill-rule:nonzero;stroke:rgb(255,0,0);stroke-width:1px;stroke-linecap:butt;stroke-miterlimit:1.41421;"/>
            <rect x="2215.82" y="1629.92" width="41.867" height="190.4" style="fill:none;fill-rule:nonzero;stroke:rgb(255,0,0);stroke-width:1px;stroke-linecap:butt;stroke-miterlimit:1.41421;"/>
            <path d="M2294.49,1629.92L2294.49,1820.32L2333.69,1820.32L2333.69,1686.72L2334.22,1686.72L2380.89,1820.32L2413.16,1820.32L2459.82,1685.39L2460.36,1685.39L2460.36,1820.32L2499.55,1820.32L2499.55,1629.92L2440.62,1629.92L2398.49,1760.86L2397.95,1760.86L2353.42,1629.92L2294.49,1629.92Z" style="fill:none;fill-rule:nonzero;stroke:rgb(255,0,0);stroke-width:1px;stroke-linecap:butt;stroke-miterlimit:1.41421;"/>
            <path d="M2536.36,1629.92L2536.36,1820.32L2680.89,1820.32L2680.89,1785.12L2578.22,1785.12L2578.22,1738.45L2670.49,1738.45L2670.49,1705.92L2578.22,1705.92L2578.22,1665.12L2678.76,1665.12L2678.76,1629.92L2536.36,1629.92Z" style="fill:none;fill-rule:nonzero;stroke:rgb(255,0,0);stroke-width:1px;stroke-linecap:butt;stroke-miterlimit:1.41421;"/>
        </g>
    </g>
</svg>
