<?xml version="1.0" standalone="no"?>

<!DOCTYPE svg PUBLIC "-//W3C//DTD SVG 20010904//EN"

 "http://www.w3.org/TR/2001/REC-SVG-20010904/DTD/svg10.dtd">

<svg version="1.0" xmlns="http://www.w3.org/2000/svg"

 width="1545.000000pt" height="2000.000000pt" viewBox="0 0 1545.000000 2000.000000"

 preserveAspectRatio="xMidYMid meet">

<path fill="#020202" stroke="none" d="
M1072 1930

L1070 1928

L1064 1928

C1060 1928 1057 1929 1055 1930

L1052 1932

L1050 1931

L1049 1929

L1050 1929

C1051 1928 1055 1927 1060 1926

C1066 1925 1070 1923 1075 1919

C1079 1917 1082 1915 1083 1915

C1084 1915 1091 1908 1094 1903

L1097 1900

L1096 1899

L1095 1899

L1096 1884

C1096 1874 1096 1869 1095 1867

C1094 1866 1094 1862 1094 1857

C1094 1853 1093 1849 1093 1848

L1092 1847

L1093 1847

L1094 1846

L1093 1841

C1092 1839 1092 1834 1092 1832

C1092 1829 1092 1827 1091 1826

C1090 1826 1090 1821 1090 1816

C1090 1811 1089 1806 1089 1805

C1088 1804 1088 1801 1087 1799

C1087 1796 1086 1794 1084 1793

L1081 1791

L1080 1792

C1079 1792 1077 1792 1075 1792

L1071 1792

L1070 1795

L1069 1798

L1070 1799

L1071 1799

L1070 1801

C1068 1806 1066 1810 1066 1812

C1066 1814 1066 1815 1065 1816

C1064 1816 1064 1817 1064 1818

C1064 1819 1062 1821 1060 1824

C1059 1826 1057 1828 1057 1828

C1057 1829 1055 1832 1053 1836

C1052 1839 1049 1845 1048 1848

C1048 1850 1045 1855 1043 1858

C1042 1862 1040 1864 1040 1865

C1040 1865 1040 1865 1034 1872

C1033 1874 1031 1875 1030 1875

L1029 1875

L1029 1877

C1029 1879 1020 1889 1018 1889

C1018 1889 1017 1890 1016 1890

C1016 1891 1014 1892 1013 1893

C1011 1894 1009 1896 1008 1898

C1007 1899 1005 1901 1004 1901

C1002 1901 998 1904 998 1906

C997 1908 993 1910 987 1911

C984 1912 981 1913 980 1913

C978 1915 965 1921 960 1922

C956 1923 952 1925 950 1926

C946 1928 946 1928 941 1926

L935 1925

L937 1922

C938 1921 939 1920 940 1920

L942 1920

L941 1919

L941 1918

L944 1915

C946 1914 949 1912 951 1910

C952 1909 955 1907 956 1906

C956 1905 958 1904 958 1904

C959 1904 961 1902 963 1901

L965 1897

L966 1898

L967 1898

L966 1897

C966 1896 967 1894 969 1891

C971 1889 974 1886 975 1884

C976 1882 978 1880 980 1879

L983 1878

L982 1876

L982 1873

L984 1871

L987 1870

L986 1869

L985 1868

L987 1865

C988 1864 989 1863 990 1863

L992 1862

L992 1860

L991 1857

L994 1856

C995 1855 996 1853 996 1852

C996 1851 997 1849 999 1847

L1001 1844

L1000 1843

L999 1843

L1001 1841

L1003 1840

L1003 1838

C1002 1836 1004 1831 1007 1828

C1008 1827 1009 1824 1009 1823

C1010 1821 1011 1818 1012 1817

C1013 1816 1014 1815 1013 1814

C1013 1813 1014 1811 1015 1809

C1016 1808 1017 1806 1017 1805

C1017 1804 1024 1790 1025 1790

L1026 1789

L1025 1787

C1025 1786 1029 1779 1030 1779

L1031 1779

L1031 1776

L1032 1772

L1033 1772

L1034 1772

L1035 1769

L1036 1766

L1038 1766

L1039 1766

L1039 1764

C1038 1762 1039 1761 1041 1759

C1048 1752 1049 1748 1048 1741

C1048 1735 1045 1731 1043 1731

L1041 1731

L1040 1730

L1040 1728

L1037 1728

C1029 1728 1021 1731 1016 1736

C1015 1737 1012 1739 1011 1739

C1009 1740 1008 1741 1008 1741

C1008 1742 1007 1744 1005 1746

C1003 1748 1002 1750 1002 1751

C1002 1752 1002 1753 1001 1753

C1001 1754 1000 1756 1000 1759

L1000 1764

L999 1765

L998 1765

L998 1766

C998 1769 988 1787 983 1794

C977 1803 972 1807 963 1811

C944 1821 942 1823 930 1838

C929 1839 928 1842 928 1844

C927 1849 924 1854 920 1858

C919 1859 915 1863 913 1866

L908 1872

L907 1872

C906 1871 907 1844 908 1838

C908 1835 909 1828 909 1823

C910 1818 910 1813 910 1812

C911 1811 911 1805 912 1800

C912 1795 914 1789 915 1786

C916 1784 916 1782 916 1781

C916 1781 918 1779 919 1777

C921 1776 922 1773 922 1772

C922 1771 922 1770 923 1769

C926 1766 934 1749 933 1747

C933 1746 933 1744 932 1742

C932 1740 932 1738 932 1737

C931 1735 927 1726 926 1725

C925 1724 923 1721 922 1718

C921 1717 920 1716 919 1716

C919 1716 917 1715 917 1714

C916 1712 914 1711 912 1710

C907 1708 898 1705 896 1706

L895 1706

L894 1705

L893 1704

L890 1705

C887 1706 832 1706 827 1704

L824 1703

L824 1700

C824 1699 826 1696 827 1694

C830 1691 830 1691 857 1692

C872 1692 888 1692 893 1692

C898 1693 902 1692 903 1692

C903 1691 905 1691 907 1691

C911 1691 915 1688 917 1684

C918 1680 920 1669 919 1668

C919 1667 918 1663 918 1660

C917 1657 914 1652 911 1648

C909 1647 906 1646 903 1645

C900 1644 897 1642 896 1642

C891 1640 886 1639 882 1639

C879 1639 876 1639 875 1638

C875 1638 872 1637 868 1637

C864 1636 860 1636 858 1636

C856 1635 851 1636 847 1637

C841 1638 839 1638 836 1637

C831 1635 830 1634 830 1629

C829 1627 828 1624 828 1623

L827 1622

L827 1621

C829 1620 857 1620 868 1622

C874 1623 882 1624 887 1625

C892 1626 898 1627 902 1628

C913 1630 918 1631 918 1632

C919 1633 920 1633 922 1633

C923 1633 924 1633 925 1634

L926 1635

L928 1634

C932 1632 935 1628 934 1626

C934 1624 932 1616 932 1610

C931 1607 931 1603 931 1602

C930 1600 931 1595 932 1591

C933 1582 934 1556 933 1552

L932 1550

L933 1550

C934 1550 939 1556 944 1564

C948 1571 953 1578 953 1578

C954 1579 960 1591 960 1593

C960 1594 961 1596 962 1597

C963 1598 964 1601 965 1602

C965 1604 967 1606 969 1607

C974 1611 980 1613 983 1613

C986 1614 989 1615 993 1617

C994 1618 996 1618 997 1618

L999 1618

L999 1619

L999 1620

L1002 1620

C1004 1621 1005 1622 1006 1623

C1007 1623 1008 1624 1008 1624

C1010 1624 1016 1629 1025 1637

C1032 1643 1033 1644 1035 1643

C1039 1642 1040 1639 1040 1634

C1039 1631 1038 1628 1036 1626

C1034 1623 1032 1620 1031 1619

C1030 1617 1029 1616 1028 1616

L1027 1616

L1027 1614

C1028 1612 1026 1610 1021 1605

C1007 1590 1002 1585 1002 1584

L1002 1583

L1001 1583

C1001 1583 995 1578 989 1572

C978 1562 975 1559 966 1551

C955 1542 954 1542 948 1539

C946 1538 943 1536 942 1535

C941 1533 936 1530 933 1528

L926 1524

L927 1522

L927 1521

L928 1521

C928 1521 931 1522 935 1523

C938 1524 941 1525 942 1525

C944 1525 949 1526 954 1528

C955 1528 958 1530 961 1531

C963 1531 966 1533 968 1533

C969 1534 974 1535 980 1537

C986 1538 992 1540 993 1541

C998 1543 1008 1543 1011 1541

C1012 1540 1013 1538 1013 1537

C1013 1536 1000 1527 995 1526

C993 1525 991 1525 991 1524

L990 1523

L997 1522

L1004 1522

L1004 1521

C1004 1521 1003 1519 1001 1517

L998 1515

L1000 1515

C1001 1516 1004 1516 1006 1517

C1009 1518 1012 1518 1012 1519

C1013 1519 1016 1520 1020 1521

C1024 1522 1028 1524 1030 1525

C1035 1527 1055 1532 1062 1532

C1066 1533 1071 1534 1074 1535

C1078 1537 1094 1540 1098 1540

C1103 1540 1108 1544 1111 1551

L1114 1557

L1117 1556

C1130 1555 1144 1554 1147 1552

C1155 1549 1165 1553 1166 1560

C1168 1564 1169 1565 1174 1565

C1179 1565 1182 1567 1182 1572

C1182 1575 1176 1585 1167 1598

C1163 1603 1158 1609 1157 1612

C1155 1614 1152 1618 1150 1620

C1143 1627 1143 1628 1154 1629

C1159 1630 1162 1629 1167 1628

C1170 1628 1177 1627 1183 1627

C1192 1627 1196 1627 1211 1630

C1214 1631 1219 1632 1223 1633

C1226 1634 1229 1635 1231 1635

C1232 1635 1235 1637 1237 1637

C1239 1638 1242 1640 1243 1640

C1244 1641 1246 1642 1248 1643

C1250 1643 1254 1645 1256 1647

C1259 1648 1261 1649 1262 1649

C1263 1649 1265 1650 1267 1651

C1270 1652 1273 1653 1274 1653

C1275 1654 1280 1655 1283 1656

C1287 1658 1291 1659 1292 1659

C1294 1659 1295 1660 1297 1660

C1298 1662 1300 1662 1317 1667

C1328 1670 1334 1671 1339 1671

C1346 1670 1359 1670 1367 1670

C1380 1672 1384 1672 1388 1673

L1393 1674

L1393 1675

L1393 1676

L1395 1676

L1397 1676

L1397 1677

C1397 1678 1398 1679 1399 1680

C1402 1683 1402 1687 1399 1688

C1398 1689 1392 1690 1388 1691

C1374 1693 1373 1695 1382 1702

C1387 1706 1393 1712 1393 1714

C1393 1715 1388 1717 1384 1718

C1379 1718 1377 1718 1365 1723

C1358 1725 1357 1725 1354 1723

C1352 1722 1348 1719 1344 1715

C1341 1712 1338 1709 1337 1709

C1337 1709 1335 1707 1333 1705

C1328 1701 1319 1696 1311 1694

C1308 1693 1301 1691 1297 1689

C1281 1684 1278 1683 1276 1683

C1275 1683 1274 1683 1274 1682

C1273 1681 1272 1681 1270 1681

C1269 1681 1266 1680 1264 1680

C1263 1679 1260 1678 1259 1678

C1257 1678 1256 1678 1256 1677

C1255 1677 1253 1677 1251 1676

C1249 1676 1246 1676 1246 1675

C1245 1674 1243 1674 1240 1674

L1236 1674

L1236 1673

L1236 1672

L1231 1672

C1227 1672 1224 1672 1221 1670

C1219 1669 1216 1668 1214 1667

C1212 1667 1210 1666 1209 1666

C1206 1664 1200 1662 1198 1662

C1194 1662 1187 1667 1186 1670

L1186 1673

L1187 1673

L1188 1673

L1188 1677

C1189 1680 1188 1682 1188 1684

C1187 1685 1186 1688 1187 1691

C1187 1696 1191 1704 1193 1704

L1195 1704

L1194 1705

L1194 1707

L1197 1709

C1199 1710 1201 1712 1203 1713

C1204 1714 1206 1715 1207 1715

C1209 1716 1211 1717 1212 1718

C1213 1719 1215 1722 1217 1724

C1220 1726 1222 1729 1224 1730

C1225 1731 1228 1733 1229 1734

C1231 1735 1234 1737 1235 1738

C1236 1740 1238 1741 1239 1741

C1239 1741 1241 1742 1243 1744

C1245 1746 1247 1747 1248 1747

C1248 1747 1249 1748 1250 1748

C1251 1750 1260 1755 1263 1755

C1265 1755 1267 1753 1267 1750

C1267 1747 1265 1740 1264 1738

C1263 1738 1263 1736 1263 1735

L1264 1732

L1263 1732

L1262 1732

L1262 1730

L1263 1729

L1262 1729

L1260 1730

L1260 1729

C1260 1728 1260 1727 1260 1726

L1260 1725

L1259 1725

L1258 1725

L1258 1723

C1259 1719 1263 1711 1265 1711

L1267 1711

L1267 1710

L1268 1708

L1269 1709

C1270 1709 1272 1709 1273 1708

C1275 1706 1282 1710 1288 1715

C1291 1720 1293 1720 1301 1722

C1302 1722 1304 1723 1306 1723

C1307 1723 1309 1724 1312 1725

C1314 1726 1317 1727 1317 1729

C1318 1730 1323 1736 1329 1742

L1340 1754

L1340 1755

C1339 1755 1335 1755 1331 1754

C1318 1752 1316 1754 1320 1763

C1321 1765 1322 1767 1322 1767

L1322 1768

L1318 1768

C1315 1767 1310 1767 1306 1766

L1298 1766

L1298 1766

C1298 1767 1299 1769 1301 1772

C1303 1777 1304 1778 1306 1778

C1308 1778 1309 1780 1311 1784

C1313 1786 1315 1789 1315 1789

C1316 1790 1316 1791 1316 1792

L1317 1795

L1316 1795

L1315 1795

L1315 1797

L1316 1799

L1315 1800

C1314 1800 1314 1801 1314 1802

C1314 1803 1313 1805 1311 1807

L1308 1810

L1307 1808

L1306 1806

L1305 1807

L1304 1807

L1301 1805

L1299 1803

L1298 1804

L1297 1804

L1295 1803

C1294 1802 1291 1801 1290 1801

C1288 1801 1287 1800 1285 1799

C1284 1796 1275 1791 1273 1791

C1272 1791 1271 1790 1270 1790

C1269 1788 1258 1782 1256 1782

C1255 1782 1251 1780 1248 1778

C1244 1775 1238 1772 1235 1770

C1231 1768 1223 1763 1218 1759

C1211 1755 1205 1752 1203 1751

C1199 1751 1187 1743 1172 1729

C1164 1723 1159 1721 1157 1722

C1156 1723 1155 1723 1154 1723

C1154 1723 1153 1723 1152 1724

C1150 1724 1147 1725 1144 1726

C1141 1727 1139 1728 1138 1728

L1138 1729

L1137 1728

L1136 1728

L1135 1729

C1134 1729 1131 1730 1128 1731

L1123 1732

L1123 1736

C1122 1738 1123 1740 1123 1741

C1124 1742 1125 1743 1125 1744

C1128 1748 1133 1755 1138 1762

C1148 1775 1162 1797 1161 1798

C1161 1799 1161 1802 1161 1806

C1160 1809 1160 1814 1159 1816

L1157 1820

L1155 1820

C1153 1819 1151 1819 1150 1818

C1147 1815 1133 1810 1126 1809

C1119 1807 1119 1806 1118 1850

C1117 1856 1117 1863 1116 1864

C1116 1866 1116 1871 1115 1875

C1115 1878 1115 1886 1115 1892

C1114 1897 1114 1904 1114 1906

C1113 1914 1109 1920 1100 1926

C1094 1931 1094 1931 1084 1932

C1078 1933 1074 1933 1073 1933

C1073 1933 1073 1932 1072 1930

Z

M1098 1612

C1099 1611 1102 1610 1102 1610

C1103 1610 1106 1608 1109 1606

L1114 1602

L1113 1600

L1112 1599

L1113 1599

C1113 1599 1114 1599 1115 1600

L1116 1601

L1128 1592

C1134 1587 1143 1580 1147 1577

C1151 1574 1155 1571 1156 1570

C1156 1570 1159 1568 1161 1567

L1164 1565

L1163 1563

C1163 1561 1162 1559 1160 1558

C1158 1556 1157 1556 1150 1556

C1138 1556 1115 1558 1114 1559

C1113 1560 1113 1562 1113 1563

C1113 1566 1108 1576 1107 1576

L1106 1576

L1106 1578

L1105 1579

L1107 1581

C1108 1581 1109 1582 1110 1583

L1112 1585

L1112 1586

L1111 1587

L1110 1586

C1110 1586 1108 1585 1107 1584

L1105 1582

L1103 1584

C1102 1585 1101 1587 1101 1588

C1101 1589 1100 1591 1099 1592

C1095 1596 1092 1601 1092 1603

L1092 1605

L1091 1605

L1090 1605

L1090 1607

C1090 1608 1089 1609 1088 1610

C1087 1611 1087 1613 1087 1614

L1088 1615

L1091 1614

C1093 1614 1096 1613 1098 1612

Z

M1068 1584

C1068 1579 1070 1575 1079 1565

C1083 1560 1083 1558 1078 1552

C1075 1548 1074 1547 1070 1546

C1064 1544 1049 1543 1041 1544

C1037 1544 1033 1544 1033 1544

C1031 1543 1019 1548 1018 1549

C1018 1551 1026 1558 1034 1561

C1037 1563 1039 1565 1039 1566

L1039 1567

L1041 1567

L1043 1567

L1043 1568

C1043 1568 1045 1572 1048 1575

C1051 1579 1053 1583 1053 1583

L1053 1584

L1054 1584

C1054 1584 1056 1585 1057 1587

C1058 1590 1059 1590 1063 1590

L1068 1590

L1068 1584

Z

M534 1896

C529 1895 510 1889 505 1886

C502 1885 500 1884 499 1884

C498 1884 476 1873 467 1867

C452 1859 447 1854 439 1838

C427 1815 419 1800 415 1795

C412 1793 407 1789 403 1786

C395 1782 376 1774 359 1769

C352 1766 343 1763 338 1762

C333 1760 322 1757 314 1755

C282 1748 283 1749 275 1740

C265 1730 263 1728 251 1721

C236 1711 222 1704 220 1705

C213 1707 216 1717 230 1733

C232 1735 234 1738 235 1740

C235 1741 238 1744 240 1747

C242 1749 244 1752 244 1753

C244 1754 245 1756 246 1757

C248 1759 250 1763 252 1767

C257 1778 266 1785 288 1793

C290 1794 292 1796 293 1796

L295 1797

L296 1797

L296 1796

L299 1797

C302 1799 311 1801 322 1803

C325 1804 329 1804 330 1805

C331 1805 337 1805 343 1806

C349 1806 355 1806 355 1807

C356 1808 358 1808 359 1808

C361 1808 362 1809 363 1809

C364 1810 365 1811 366 1810

C367 1810 368 1811 369 1811

L370 1813

L366 1816

C362 1819 359 1824 359 1829

C359 1832 363 1846 364 1848

L365 1849

L361 1849

C355 1849 354 1850 355 1856

L355 1862

L354 1862

C351 1862 343 1856 332 1845

C315 1828 283 1803 276 1801

C273 1800 269 1802 268 1804

C267 1808 268 1824 269 1830

C271 1835 271 1838 270 1848

C270 1854 269 1861 268 1862

C263 1871 250 1859 240 1836

C238 1831 235 1827 235 1826

C232 1821 226 1801 223 1788

C217 1768 216 1765 214 1764

L212 1764

L210 1765

C208 1768 208 1777 208 1794

C209 1815 210 1821 211 1831

C213 1849 213 1855 210 1862

C208 1865 205 1869 203 1870

C190 1882 159 1885 149 1876

C146 1873 143 1866 142 1859

C141 1852 141 1838 143 1832

C143 1830 145 1825 146 1822

C146 1818 149 1810 151 1804

C171 1749 180 1719 183 1704

C185 1686 183 1670 176 1667

C173 1665 173 1665 170 1666

C168 1667 165 1669 163 1671

C160 1676 155 1689 151 1701

C147 1719 144 1724 134 1734

C123 1745 118 1750 107 1765

C101 1772 94 1781 91 1785

C84 1793 76 1801 75 1801

L74 1801

L74 1797

C74 1783 85 1736 98 1692

C102 1678 103 1675 100 1672

C98 1669 90 1667 80 1665

C75 1664 68 1663 65 1662

C58 1660 56 1658 56 1653

L57 1651

L68 1650

C78 1650 80 1649 84 1647

C93 1643 96 1634 92 1628

C88 1624 87 1623 77 1618

C72 1616 66 1613 64 1612

C59 1610 54 1606 54 1604

L54 1603

L57 1603

C59 1603 63 1604 65 1604

C83 1607 83 1607 86 1606

C88 1605 90 1603 91 1601

C94 1594 92 1588 82 1567

C79 1560 75 1551 73 1547

C71 1542 70 1537 69 1536

C66 1530 58 1502 55 1490

L54 1484

L55 1484

C56 1484 63 1492 68 1499

C71 1502 74 1506 74 1507

C75 1508 76 1509 76 1510

L76 1511

L77 1511

C78 1511 79 1513 80 1515

C82 1517 84 1520 85 1521

C86 1522 89 1526 91 1528

C93 1530 98 1535 101 1539

C105 1543 108 1547 108 1547

L108 1548

L109 1548

C109 1548 113 1551 116 1554

C120 1557 123 1560 124 1560

C125 1560 141 1576 143 1580

C144 1582 146 1588 147 1594

C154 1623 174 1639 184 1624

C185 1622 186 1619 186 1606

C186 1597 185 1587 184 1583

C183 1578 181 1565 179 1554

C177 1543 175 1527 173 1518

C167 1485 164 1447 166 1435

C169 1419 174 1417 188 1427

C198 1434 207 1444 217 1459

C223 1467 236 1492 237 1497

C237 1499 238 1500 238 1501

C239 1501 239 1502 239 1503

C239 1504 240 1506 240 1508

C243 1512 244 1520 245 1530

C245 1541 243 1553 239 1564

C238 1567 236 1574 235 1578

C233 1581 231 1589 229 1594

C224 1605 224 1608 227 1611

C233 1614 239 1610 250 1594

C265 1573 284 1556 290 1556

C292 1556 293 1557 295 1559

C298 1565 303 1579 304 1588

C305 1598 307 1601 311 1603

C316 1606 319 1606 326 1605

C337 1603 347 1602 354 1602

C358 1601 366 1601 373 1600

C387 1599 405 1600 414 1602

C428 1607 434 1620 431 1640

C429 1651 424 1664 421 1664

C420 1664 419 1662 418 1660

C416 1654 413 1652 406 1649

C400 1647 394 1643 393 1638

C391 1625 387 1620 379 1618

C370 1617 348 1620 328 1627

C306 1634 295 1639 288 1645

C281 1651 273 1657 268 1659

C264 1661 262 1664 263 1668

C264 1671 274 1678 281 1681

C287 1683 303 1689 309 1691

C311 1691 314 1692 315 1693

C316 1693 318 1694 320 1695

C322 1695 324 1696 325 1696

C325 1697 326 1697 327 1697

C329 1697 332 1698 336 1699

C339 1700 344 1702 348 1702

C352 1703 359 1705 365 1707

C371 1708 381 1711 388 1712

C394 1714 401 1716 403 1716

C405 1717 429 1722 438 1724

C440 1724 443 1725 445 1726

C448 1727 457 1735 462 1743

C464 1745 465 1747 466 1747

C466 1747 469 1750 472 1754

C475 1758 479 1762 480 1764

C484 1769 484 1769 494 1781

C504 1795 503 1794 511 1803

C524 1818 536 1829 541 1831

L543 1831

L543 1832

C543 1833 550 1836 557 1837

C562 1839 569 1839 580 1839

C614 1839 615 1839 623 1841

C632 1844 635 1846 638 1849

C641 1852 641 1853 641 1856

C640 1859 639 1862 638 1863

C633 1871 607 1877 581 1876

C561 1875 557 1877 554 1888

C551 1895 548 1897 541 1897

C538 1897 535 1897 534 1896

Z

M511 1848

L515 1848

L516 1844

C516 1842 516 1840 514 1837

C510 1831 497 1815 481 1796

C473 1786 465 1776 463 1774

C449 1757 444 1752 440 1751

C433 1749 356 1734 354 1734

C352 1734 350 1735 348 1736

L344 1737

L345 1739

C346 1739 347 1740 348 1740

C348 1740 351 1741 354 1742

C356 1744 362 1746 367 1748

C371 1750 376 1752 378 1753

C380 1754 384 1756 388 1758

C392 1759 396 1761 398 1763

C400 1764 402 1765 403 1765

C404 1765 413 1771 414 1772

C414 1773 415 1773 415 1773

C418 1773 429 1786 433 1794

C434 1796 435 1798 436 1798

C436 1799 438 1801 439 1803

C440 1806 442 1809 444 1812

C446 1814 447 1817 447 1818

C448 1820 456 1830 462 1836

C465 1840 479 1846 488 1847

C499 1849 503 1850 505 1849

C506 1849 508 1849 511 1848

Z

M506 1620

C500 1612 496 1606 495 1602

C495 1601 494 1599 494 1598

C492 1596 485 1578 485 1576

C485 1575 484 1574 484 1573

C483 1572 482 1570 482 1568

C481 1565 477 1558 473 1550

C471 1548 470 1546 470 1545

C470 1545 469 1544 469 1543

C468 1543 467 1541 466 1540

C465 1538 462 1534 460 1532

C458 1530 455 1526 454 1524

C453 1522 451 1519 448 1516

C439 1506 433 1500 433 1499

C433 1498 429 1494 428 1494

C428 1494 426 1493 425 1491

C422 1486 412 1477 411 1477

L410 1477

L410 1475

C410 1474 408 1472 406 1471

C402 1468 399 1462 385 1435

C382 1428 379 1422 379 1422

C379 1422 377 1419 375 1415

C373 1411 371 1406 369 1404

C367 1401 366 1399 366 1399

C366 1398 364 1394 361 1389

C358 1385 356 1380 356 1380

C356 1380 355 1378 354 1377

C353 1375 350 1371 348 1366

C341 1353 338 1348 333 1343

C331 1341 330 1339 330 1339

L330 1338

L327 1338

C322 1337 311 1339 289 1348

C265 1357 225 1373 222 1376

L219 1379

L219 1380

C220 1381 222 1384 226 1386

C229 1388 238 1395 246 1400

C265 1415 284 1426 294 1432

C300 1435 304 1438 306 1440

C309 1445 313 1457 317 1479

C322 1503 323 1517 321 1523

C317 1532 310 1535 304 1533

C300 1531 295 1523 295 1516

C294 1513 294 1510 293 1510

C293 1509 293 1507 292 1505

C291 1494 290 1485 289 1484

C289 1483 288 1482 288 1482

C288 1480 284 1471 281 1466

C278 1461 271 1450 265 1444

C260 1438 238 1420 222 1409

C202 1396 186 1381 184 1376

C184 1373 186 1370 192 1367

C219 1351 247 1337 276 1324

C306 1312 305 1312 301 1298

C299 1293 298 1289 297 1288

C294 1282 292 1276 292 1276

C292 1275 285 1264 281 1257

C280 1255 278 1251 277 1249

C276 1246 273 1243 271 1241

C261 1233 209 1212 177 1203

C165 1200 162 1200 151 1200

C137 1199 134 1201 126 1208

C119 1214 115 1216 112 1213

C110 1210 114 1203 123 1193

C127 1188 131 1183 131 1182

L131 1180

L130 1180

L129 1180

L129 1181

L129 1182

L121 1183

C111 1185 101 1186 99 1184

L98 1182

L100 1179

C104 1174 112 1170 125 1168

C140 1165 140 1165 144 1161

C149 1156 151 1157 156 1163

C167 1178 167 1178 217 1196

C251 1208 256 1210 260 1210

L263 1210

L263 1209

C263 1209 260 1204 256 1200

C255 1197 249 1190 244 1183

C240 1175 233 1165 229 1161

C219 1147 213 1138 209 1129

C207 1125 205 1120 204 1117

C201 1112 188 1099 171 1086

C159 1075 152 1069 152 1066

L152 1065

L155 1065

C166 1065 204 1085 224 1102

C231 1108 235 1110 237 1109

C237 1108 237 1103 236 1096

C236 1090 235 1083 236 1081

L237 1078

L239 1077

C243 1077 248 1084 263 1109

C271 1123 278 1131 286 1134

C290 1135 304 1138 317 1141

C340 1146 344 1146 357 1146

C370 1146 372 1146 380 1144

C395 1139 399 1138 421 1139

C442 1139 450 1140 454 1143

L456 1145

L454 1147

C452 1147 446 1150 439 1152

C420 1158 407 1167 391 1182

C376 1195 364 1203 355 1205

C347 1207 340 1210 333 1215

C326 1219 323 1223 323 1226

C323 1229 324 1230 331 1233

C338 1236 378 1254 404 1265

C409 1267 422 1272 433 1277

C473 1294 504 1311 522 1327

L528 1332

L527 1333

L526 1334

L528 1334

C531 1335 532 1339 531 1344

C529 1348 521 1357 515 1360

C510 1363 509 1363 499 1363

C493 1362 485 1362 482 1361

L476 1360

L476 1359

L476 1358

L473 1358

C469 1358 463 1356 459 1352

C457 1350 454 1348 454 1348

C453 1348 450 1345 447 1342

C435 1332 427 1325 424 1323

C423 1322 421 1320 419 1319

C418 1318 416 1317 416 1317

C414 1317 407 1311 397 1301

C391 1295 387 1293 386 1293

L383 1293

L384 1295

C384 1296 394 1307 405 1319

C441 1361 451 1374 453 1385

C454 1388 455 1392 457 1395

C462 1400 464 1406 465 1414

C467 1425 465 1435 461 1436

L459 1436

L457 1432

C454 1428 454 1426 451 1415

C449 1404 440 1396 425 1391

C413 1387 406 1387 400 1392

C395 1397 397 1406 406 1425

C417 1446 436 1474 462 1505

C500 1550 515 1571 526 1593

C531 1602 531 1605 532 1611

C532 1617 532 1618 530 1620

C527 1623 522 1625 515 1625

C510 1625 510 1625 506 1620

Z

M392 1376

C399 1369 396 1354 387 1345

C377 1336 373 1332 369 1329

L365 1326

L364 1327

L363 1327

L364 1330

C364 1332 366 1338 369 1343

C371 1348 373 1352 373 1353

C373 1354 384 1375 386 1377

C388 1380 390 1379 392 1376

Z

M521 1340

C520 1339 519 1339 519 1339

L518 1339

L519 1340

C519 1341 520 1341 520 1341

L521 1341

L521 1340

Z

M1386 1621

C1384 1618 1382 1616 1381 1615

C1381 1613 1380 1611 1378 1609

C1377 1608 1375 1604 1375 1602

C1374 1600 1373 1598 1373 1598

C1373 1598 1371 1595 1370 1592

C1369 1588 1367 1584 1366 1582

C1365 1580 1364 1577 1364 1575

C1364 1574 1364 1573 1363 1573

C1363 1572 1362 1570 1361 1568

C1360 1565 1359 1563 1359 1562

C1358 1562 1358 1561 1358 1560

L1358 1558

L1357 1558

C1357 1558 1355 1556 1354 1554

C1351 1547 1350 1546 1347 1542

C1345 1540 1344 1538 1344 1538

C1344 1537 1343 1536 1343 1536

C1340 1533 1335 1527 1334 1524

C1333 1523 1331 1519 1328 1517

C1326 1515 1321 1509 1318 1506

C1304 1489 1295 1480 1292 1478

C1291 1477 1290 1476 1290 1476

C1290 1475 1288 1473 1286 1471

C1281 1467 1277 1461 1273 1451

C1268 1440 1260 1425 1254 1414

C1251 1408 1247 1401 1246 1399

C1245 1397 1242 1393 1240 1390

C1239 1386 1236 1382 1236 1381

C1235 1380 1234 1378 1234 1377

C1232 1376 1228 1367 1223 1358

C1219 1351 1210 1339 1207 1338

C1204 1337 1190 1339 1182 1343

C1180 1343 1175 1345 1170 1347

C1155 1353 1148 1355 1128 1364

C1106 1373 1102 1375 1100 1378

L1098 1380

L1099 1381

C1101 1383 1143 1413 1159 1423

C1165 1427 1174 1432 1177 1434

C1185 1437 1186 1439 1190 1453

C1194 1462 1201 1497 1201 1508

C1202 1519 1200 1527 1195 1531

C1191 1534 1186 1534 1182 1532

C1179 1530 1175 1521 1174 1515

C1172 1502 1171 1496 1170 1491

C1170 1488 1169 1485 1169 1485

C1168 1484 1168 1483 1168 1482

C1168 1480 1158 1460 1155 1457

C1154 1456 1152 1453 1150 1450

C1148 1448 1146 1445 1146 1444

L1146 1443

L1145 1443

C1144 1443 1142 1441 1139 1439

C1133 1432 1118 1420 1102 1409

C1076 1391 1064 1381 1064 1375

C1064 1372 1065 1371 1072 1367

C1077 1364 1084 1359 1089 1357

C1099 1351 1134 1333 1136 1333

C1136 1333 1140 1331 1145 1329

C1150 1327 1157 1323 1162 1321

C1180 1314 1184 1312 1183 1306

C1180 1293 1172 1274 1163 1261

C1160 1257 1157 1252 1156 1249

C1154 1241 1147 1237 1123 1227

C1087 1211 1051 1200 1033 1199

C1020 1199 1015 1200 1006 1208

C1000 1213 997 1214 993 1214

L992 1213

L991 1212

C991 1209 995 1201 1003 1193

C1008 1187 1010 1184 1010 1182

L1010 1180

L1009 1181

C1008 1183 984 1186 980 1184

L978 1184

L978 1182

C978 1180 984 1175 988 1172

C991 1171 998 1169 1004 1168

C1018 1166 1020 1165 1024 1161

L1028 1157

L1031 1158

C1033 1159 1035 1162 1037 1164

C1043 1176 1050 1179 1100 1197

C1131 1209 1136 1210 1140 1210

L1143 1210

L1140 1205

C1137 1201 1126 1186 1118 1174

C1117 1172 1115 1169 1114 1168

C1101 1152 1086 1127 1086 1122

C1086 1120 1077 1108 1071 1103

C1068 1100 1059 1092 1051 1086

C1036 1074 1032 1070 1032 1066

L1032 1065

L1036 1065

C1049 1067 1088 1088 1105 1103

C1110 1108 1115 1110 1116 1108

C1117 1107 1117 1104 1116 1098

C1114 1083 1115 1077 1119 1077

C1122 1077 1129 1086 1140 1105

C1155 1129 1159 1133 1177 1137

C1204 1143 1223 1146 1235 1147

C1246 1147 1247 1147 1256 1144

C1273 1140 1282 1138 1298 1138

C1316 1138 1333 1140 1335 1143

L1335 1144

L1333 1146

C1333 1147 1327 1150 1321 1152

C1302 1158 1290 1164 1274 1179

C1252 1197 1242 1204 1233 1205

C1226 1206 1213 1213 1207 1219

C1197 1228 1196 1227 1262 1255

C1279 1263 1301 1272 1312 1277

C1350 1292 1386 1313 1402 1327

C1414 1338 1414 1343 1403 1353

C1396 1360 1391 1363 1385 1363

C1376 1363 1360 1361 1357 1359

C1355 1359 1353 1358 1352 1358

C1348 1358 1343 1356 1338 1352

C1336 1350 1334 1348 1333 1348

C1333 1348 1330 1346 1327 1343

C1324 1340 1319 1335 1316 1333

C1313 1331 1310 1327 1309 1326

C1308 1325 1306 1324 1306 1324

C1305 1324 1293 1316 1287 1311

C1285 1309 1279 1304 1275 1300

C1270 1295 1267 1293 1265 1293

L1263 1293

L1263 1294

C1263 1295 1266 1299 1284 1319

C1317 1357 1326 1369 1330 1378

C1332 1381 1333 1385 1333 1386

C1333 1390 1335 1394 1338 1396

C1344 1401 1347 1424 1344 1432

L1342 1436

L1341 1436

C1338 1436 1334 1430 1332 1422

C1331 1419 1330 1415 1330 1413

C1329 1408 1323 1400 1320 1398

C1318 1398 1315 1396 1312 1394

C1298 1387 1287 1386 1280 1392

C1278 1394 1277 1395 1277 1399

C1277 1415 1303 1458 1335 1497

C1385 1556 1407 1589 1411 1608

C1412 1613 1412 1614 1411 1618

C1409 1622 1406 1624 1397 1625

C1390 1625 1390 1625 1386 1621

Z

M1272 1376

C1274 1374 1275 1371 1275 1367

C1276 1362 1276 1361 1273 1355

C1271 1351 1268 1347 1263 1342

C1252 1332 1245 1326 1244 1326

L1243 1326

L1243 1330

C1244 1333 1246 1339 1249 1344

C1251 1349 1253 1353 1253 1354

C1253 1354 1264 1376 1265 1378

C1267 1380 1270 1379 1272 1376

Z

M1400 1340

L1400 1339

L1399 1339

L1398 1339

L1398 1340

L1398 1341

L1399 1341

L1400 1341

L1400 1340

Z

M1402 1330

L1402 1329

L1401 1329

L1400 1329

L1400 1330

L1400 1331

L1401 1331

L1402 1331

L1402 1330

Z

M697 1547

L696 1547

L698 1544

C700 1540 704 1535 711 1527

C718 1519 729 1504 732 1498

C734 1496 735 1491 736 1488

C737 1480 744 1461 749 1449

C754 1437 758 1429 764 1419

C771 1410 774 1402 775 1395

L775 1390

L773 1391

C764 1394 737 1412 686 1449

C646 1478 625 1490 610 1495

C597 1499 593 1496 593 1485

C593 1465 607 1434 619 1425

C622 1423 623 1423 633 1423

C638 1424 644 1424 645 1423

L647 1423

L647 1421

L647 1420

L642 1419

C631 1415 622 1414 609 1414

C586 1414 569 1420 549 1435

C535 1446 523 1453 516 1457

C510 1460 501 1461 500 1459

L499 1458

L501 1455

C502 1454 507 1450 511 1447

C515 1445 520 1441 521 1440

L523 1437

L522 1436

C521 1436 517 1435 513 1435

C504 1435 498 1434 496 1432

L495 1430

L496 1429

C496 1429 500 1427 504 1426

C520 1422 528 1420 537 1416

C547 1412 557 1408 573 1405

C596 1399 609 1397 671 1386

C697 1382 706 1380 709 1378

L711 1377

L710 1376

C710 1375 701 1374 690 1374

C664 1373 639 1370 634 1369

C630 1367 629 1364 632 1359

C636 1351 641 1347 649 1348

C652 1349 655 1349 656 1348

L657 1347

L655 1345

C653 1342 654 1340 659 1338

C668 1334 675 1333 710 1332

C728 1332 744 1332 746 1331

C749 1331 753 1327 753 1324

C749 1312 748 1309 744 1303

C740 1299 735 1294 728 1288

C711 1276 687 1260 677 1255

C669 1251 668 1251 656 1250

C646 1250 641 1249 639 1247

C634 1245 626 1238 617 1227

C598 1203 593 1184 603 1178

C609 1174 620 1177 626 1184

C634 1191 637 1197 641 1212

C643 1218 645 1221 647 1224

C651 1227 651 1227 661 1228

C674 1229 684 1233 702 1244

C722 1256 738 1263 752 1264

C766 1265 768 1262 765 1246

C760 1220 745 1189 727 1168

C714 1152 706 1126 706 1102

C706 1075 715 1062 731 1069

C737 1072 738 1074 739 1084

C739 1089 738 1101 738 1111

C735 1137 735 1143 738 1150

C740 1153 744 1158 748 1163

C757 1172 765 1185 775 1206

C784 1226 791 1245 793 1257

C795 1269 797 1274 806 1290

C820 1315 829 1329 833 1329

C836 1329 836 1328 835 1324

C833 1316 839 1303 852 1289

C864 1276 872 1262 881 1238

C889 1217 892 1200 891 1189

C888 1169 874 1145 861 1141

C858 1139 856 1138 855 1137

C854 1135 857 1133 863 1133

C870 1133 876 1135 886 1139

C892 1141 894 1142 897 1142

C905 1140 910 1133 916 1113

C921 1098 924 1092 927 1090

L928 1089

L929 1090

C931 1092 929 1110 927 1125

C926 1133 925 1139 925 1141

L926 1143

L928 1143

C928 1143 934 1141 939 1138

C945 1134 951 1132 952 1132

L954 1132

L954 1133

C954 1136 948 1145 941 1153

C933 1161 926 1173 918 1187

C910 1204 895 1246 895 1252

L895 1255

L898 1255

C899 1255 902 1254 904 1253

C909 1250 934 1243 943 1242

C953 1240 957 1241 959 1245

C960 1248 962 1249 966 1246

L970 1245

L971 1245

L971 1246

L968 1250

C961 1260 942 1276 910 1299

C887 1315 875 1324 872 1328

L871 1330

L871 1331

C872 1332 879 1329 881 1327

C882 1326 884 1325 887 1325

C890 1325 892 1324 894 1322

C896 1320 898 1319 900 1319

C903 1319 916 1313 918 1311

C919 1310 922 1308 924 1307

C925 1307 928 1306 930 1304

C933 1303 936 1302 938 1302

C939 1302 943 1301 947 1299

C954 1297 957 1296 975 1287

C991 1280 997 1279 1014 1282

C1036 1285 1056 1293 1066 1301

C1076 1310 1074 1313 1052 1323

C1043 1327 1036 1331 1036 1332

L1036 1333

L1042 1331

C1046 1331 1050 1330 1052 1329

C1053 1329 1055 1328 1056 1328

C1056 1328 1059 1327 1062 1326

C1064 1325 1067 1324 1069 1324

C1070 1323 1072 1322 1074 1322

L1077 1321

L1072 1325

C1057 1339 1018 1350 976 1353

C922 1357 889 1360 862 1365

C838 1368 829 1371 826 1376

C825 1378 824 1381 824 1384

C824 1388 825 1390 828 1394

C833 1400 836 1403 844 1406

C849 1409 853 1410 859 1411

C876 1413 877 1414 895 1434

C909 1450 934 1473 949 1485

C965 1498 969 1501 965 1504

C962 1507 928 1500 906 1493

C900 1491 889 1486 881 1483

C856 1473 843 1471 834 1475

C828 1478 826 1482 822 1494

C818 1505 815 1510 809 1510

C803 1510 802 1508 805 1500

C810 1485 809 1479 801 1480

C794 1482 790 1486 783 1503

C778 1514 776 1517 771 1518

C766 1519 762 1518 758 1515

L756 1513

L753 1515

C748 1517 740 1522 727 1532

C711 1544 699 1550 697 1547

Z

M1227 1123

L1227 1122

L1225 1122

C1224 1121 1222 1119 1222 1116

C1220 1112 1220 1112 1223 1106

C1224 1103 1226 1098 1227 1095

C1228 1091 1233 1081 1237 1072

C1248 1050 1249 1046 1249 1037

C1249 1033 1249 1032 1244 1028

C1242 1026 1239 1024 1239 1024

C1238 1024 1237 1023 1236 1023

C1235 1022 1232 1021 1229 1021

C1227 1020 1224 1020 1223 1020

C1222 1019 1219 1020 1215 1021

L1208 1022

L1208 1023

C1208 1024 1207 1025 1206 1026

C1201 1031 1194 1040 1192 1044

C1191 1046 1189 1050 1187 1051

C1186 1053 1185 1055 1184 1057

C1183 1059 1181 1062 1180 1064

C1178 1067 1177 1069 1177 1070

C1177 1075 1174 1085 1171 1088

L1168 1091

L1167 1090

C1165 1090 1160 1089 1156 1089

L1154 1089

L1155 1085

C1156 1078 1172 1047 1181 1034

C1183 1030 1187 1025 1190 1022

C1194 1015 1200 1007 1203 1004

C1206 1001 1204 992 1200 992

C1199 991 1195 991 1193 990

C1182 988 1174 985 1169 982

C1157 975 1142 968 1136 966

L1129 965

L1129 963

L1129 962

L1138 961

C1143 960 1150 958 1153 958

C1163 956 1173 955 1181 955

C1191 956 1195 954 1202 947

C1209 940 1216 931 1216 930

L1216 929

L1217 929

C1218 929 1220 928 1220 927

C1222 924 1233 918 1242 913

C1254 907 1253 908 1254 905

C1254 902 1252 899 1249 897

C1245 896 1229 898 1226 901

L1224 902

L1223 901

L1222 900

L1221 901

C1220 901 1219 901 1218 902

C1216 902 1210 904 1207 906

C1206 906 1203 907 1201 908

C1199 909 1196 910 1195 910

L1194 911

L1194 910

L1194 910

L1192 911

C1191 912 1189 913 1188 913

L1185 913

L1185 914

L1185 915

L1181 916

C1179 917 1176 918 1175 919

C1173 919 1170 920 1168 921

C1159 925 1129 941 1127 943

C1125 946 1118 950 1117 950

C1116 950 1113 952 1109 955

L1102 960

L1101 959

L1099 958

L1105 951

C1108 948 1110 944 1110 944

C1110 943 1111 942 1112 941

C1113 940 1117 936 1121 931

C1125 926 1129 922 1130 922

C1130 921 1133 917 1136 913

C1139 909 1143 905 1144 903

C1149 899 1152 888 1148 886

C1146 884 1136 891 1130 897

L1126 902

L1126 901

C1126 901 1127 897 1128 894

C1128 891 1129 888 1129 887

L1128 887

L1125 889

L1121 891

L1121 890

L1121 889

L1122 889

C1122 889 1123 888 1124 886

C1126 884 1128 880 1131 878

C1133 876 1136 872 1138 870

C1139 868 1142 864 1144 862

C1147 860 1149 856 1150 855

C1151 854 1154 849 1158 844

C1161 840 1163 836 1163 835

C1163 835 1164 833 1166 831

C1168 829 1170 826 1171 825

C1175 819 1180 812 1182 808

C1185 803 1189 800 1197 800

L1204 800

L1207 792

C1210 781 1213 769 1213 766

C1213 758 1221 751 1228 752

L1232 752

L1234 748

C1238 739 1244 739 1250 748

C1252 750 1254 753 1254 753

C1254 753 1258 759 1261 765

C1265 771 1269 777 1270 778

C1271 780 1275 788 1277 793

C1278 796 1280 797 1282 796

C1284 795 1290 783 1290 778

C1293 758 1313 728 1337 706

C1344 700 1344 699 1350 693

C1352 691 1357 686 1360 682

C1363 678 1366 675 1367 673

C1367 672 1368 671 1369 670

C1371 669 1375 665 1383 654

C1392 643 1396 636 1396 633

C1396 631 1398 626 1406 609

C1411 597 1419 586 1421 586

L1422 586

L1422 585

L1422 584

L1426 583

C1431 581 1434 582 1435 585

C1435 587 1434 592 1433 596

C1431 606 1431 608 1432 610

L1434 611

L1440 607

C1446 603 1452 601 1456 601

L1457 601

L1457 604

C1458 606 1458 608 1457 608

C1456 610 1454 618 1453 628

C1452 638 1452 638 1448 642

C1446 643 1443 645 1441 646

C1439 647 1433 649 1428 652

C1418 657 1412 662 1401 675

C1399 677 1396 680 1396 681

C1395 682 1393 684 1392 686

C1391 688 1388 691 1386 693

C1382 698 1380 700 1379 702

C1378 703 1376 706 1375 707

C1373 708 1372 710 1372 710

C1372 711 1371 713 1370 714

C1369 714 1368 716 1368 717

C1368 717 1367 719 1365 721

C1363 723 1361 726 1360 728

C1360 730 1358 731 1358 731

L1357 731

L1356 734

C1356 735 1355 737 1355 738

C1352 740 1347 747 1340 754

C1333 761 1333 761 1333 766

C1333 772 1336 776 1339 776

C1344 776 1348 777 1350 780

C1351 781 1352 782 1353 782

C1354 782 1355 783 1356 783

C1357 785 1368 785 1370 783

C1371 782 1372 781 1372 781

C1375 781 1376 781 1377 780

C1378 779 1380 778 1382 777

C1383 776 1386 774 1387 773

C1389 771 1391 770 1393 770

C1397 769 1404 765 1404 764

C1405 763 1406 763 1407 763

C1408 763 1410 762 1412 760

C1414 758 1416 757 1418 757

C1419 757 1421 756 1422 755

L1423 752

L1424 752

C1424 753 1426 752 1429 750

C1431 748 1433 747 1434 747

C1434 747 1435 746 1436 745

C1436 744 1437 743 1438 743

C1441 743 1445 736 1444 734

C1444 731 1439 730 1432 730

C1429 730 1426 729 1425 729

L1424 728

L1423 729

L1423 730

L1421 729

L1420 728

L1420 729

L1420 730

L1417 730

C1415 729 1413 729 1412 729

C1410 729 1404 720 1405 718

L1405 717

L1404 716

L1403 715

L1404 714

C1405 713 1405 711 1405 710

C1404 707 1412 701 1417 699

C1421 698 1423 697 1425 693

C1427 691 1429 688 1429 688

C1429 686 1439 677 1440 677

C1442 677 1449 674 1467 668

L1473 665

L1473 666

C1474 667 1472 671 1469 675

C1467 679 1465 683 1465 684

L1466 687

L1472 687

C1475 687 1478 687 1478 688

L1479 689

L1476 693

C1473 697 1468 707 1468 708

L1468 709

L1474 709

C1479 709 1480 709 1482 707

C1483 705 1485 704 1489 704

C1491 703 1494 703 1495 702

C1496 702 1498 701 1499 702

L1502 702

L1502 704

L1502 705

L1504 705

L1505 705

L1506 707

L1506 708

L1508 708

L1509 708

L1510 711

C1511 713 1511 715 1511 716

L1511 717

L1510 717

L1508 717

L1508 719

L1508 720

L1507 720

C1506 720 1498 728 1496 731

C1496 732 1494 733 1492 733

L1488 734

L1488 735

C1488 736 1486 737 1485 738

C1483 739 1481 741 1481 742

C1481 742 1479 744 1477 745

C1475 746 1470 750 1467 753

C1464 756 1459 760 1456 762

C1453 764 1449 767 1447 769

C1445 771 1438 776 1432 780

C1424 785 1420 789 1418 791

C1416 795 1414 796 1383 813

C1374 818 1373 819 1373 828

C1371 847 1371 852 1370 855

L1370 858

L1373 859

C1376 861 1382 861 1384 860

C1384 859 1385 859 1386 859

C1387 859 1396 857 1405 855

C1414 853 1427 850 1433 849

L1444 846

L1445 848

L1445 849

L1447 849

C1449 849 1454 851 1454 852

L1454 853

L1455 853

C1456 853 1459 855 1461 857

L1464 860

L1463 861

C1463 861 1462 862 1462 863

L1461 865

L1460 865

C1459 865 1455 868 1451 872

C1437 888 1437 889 1449 895

C1476 908 1489 914 1491 916

C1492 916 1494 918 1496 918

C1498 919 1502 921 1505 922

C1509 924 1512 926 1512 926

C1513 926 1514 927 1515 927

C1516 928 1517 929 1519 929

C1521 930 1523 931 1525 932

C1526 933 1527 934 1528 934

C1529 933 1534 937 1536 942

C1538 944 1540 950 1541 954

C1542 961 1542 961 1540 967

C1539 971 1538 975 1538 977

C1537 979 1536 980 1536 980

C1529 982 1529 982 1527 988

C1527 991 1526 995 1526 997

L1527 1000

L1525 1001

L1523 1002

L1523 997

C1524 995 1525 990 1525 988

C1526 984 1526 980 1524 972

C1522 959 1521 956 1517 950

L1514 946

L1513 947

C1512 947 1507 945 1500 942

C1494 939 1487 936 1484 935

C1479 934 1469 931 1464 929

C1462 929 1460 928 1459 927

L1456 926

L1455 926

L1455 927

L1450 925

C1448 924 1445 923 1444 923

C1444 924 1439 922 1435 921

C1429 918 1424 917 1419 917

C1411 916 1409 917 1409 920

C1408 921 1408 923 1407 925

L1405 928

L1407 930

C1408 931 1410 932 1410 932

C1411 932 1414 934 1416 936

C1419 939 1422 942 1424 944

C1427 945 1429 948 1430 951

C1432 954 1442 967 1446 969

C1452 974 1454 977 1458 982

C1460 985 1462 988 1463 990

C1465 992 1467 998 1466 999

L1465 1000

L1466 1000

L1466 999

L1468 1000

C1469 1001 1474 1011 1475 1014

C1475 1016 1475 1018 1476 1021

C1476 1023 1477 1026 1478 1027

C1479 1029 1480 1032 1480 1034

C1480 1036 1481 1039 1482 1040

C1483 1041 1483 1044 1483 1047

C1483 1053 1483 1059 1483 1072

C1483 1092 1482 1097 1477 1103

L1476 1105

L1474 1102

C1474 1101 1473 1099 1474 1098

L1474 1097

L1473 1097

L1471 1097

L1470 1093

C1470 1091 1469 1087 1468 1085

C1468 1083 1467 1080 1467 1079

C1466 1078 1465 1076 1465 1074

C1464 1071 1463 1069 1463 1068

L1462 1067

L1462 1066

L1463 1065

L1462 1066

L1460 1066

L1459 1063

C1458 1061 1456 1058 1454 1055

C1452 1051 1451 1048 1451 1046

L1451 1043

L1449 1043

C1447 1043 1446 1041 1446 1039

L1445 1036

L1443 1036

C1441 1036 1439 1032 1439 1030

L1440 1029

L1437 1028

L1435 1028

L1435 1026

C1435 1026 1434 1024 1432 1022

C1431 1020 1429 1018 1428 1016

L1427 1013

L1426 1014

L1424 1014

L1424 1012

C1423 1011 1422 1010 1421 1009

C1418 1008 1414 1004 1414 1001

C1413 1000 1412 998 1410 997

C1409 997 1407 995 1406 993

C1405 991 1403 990 1403 990

C1402 990 1400 988 1399 987

C1398 985 1396 983 1396 983

L1394 983

L1394 982

C1394 982 1392 979 1390 977

C1388 974 1386 972 1386 971

L1386 970

L1383 969

C1381 968 1380 967 1379 965

L1379 963

L1378 963

L1377 963

L1377 962

L1378 960

L1375 959

C1373 958 1372 957 1372 956

C1372 956 1371 954 1370 953

C1369 952 1368 951 1368 950

L1368 948

L1366 948

L1364 948

L1364 947

C1364 945 1361 938 1360 938

L1359 938

L1359 937

C1359 933 1345 928 1341 929

L1338 930

L1338 932

L1338 933

L1336 933

L1334 933

L1333 936

C1332 937 1332 939 1332 941

C1331 942 1331 944 1331 947

C1330 950 1330 953 1332 959

C1335 969 1336 972 1341 977

L1345 981

L1346 981

L1347 980

L1352 985

C1355 988 1358 991 1359 993

C1360 994 1361 995 1362 996

C1365 998 1369 1003 1375 1013

C1378 1018 1381 1028 1381 1035

C1383 1053 1384 1058 1387 1064

C1392 1074 1396 1080 1400 1082

C1401 1083 1404 1085 1404 1087

C1405 1089 1406 1090 1407 1090

L1408 1090

L1408 1091

C1408 1092 1410 1096 1412 1101

L1416 1110

L1416 1111

L1415 1111

L1408 1108

C1405 1106 1401 1104 1400 1104

C1399 1103 1397 1103 1396 1103

C1395 1103 1388 1099 1387 1098

C1387 1098 1384 1096 1380 1094

C1377 1092 1374 1091 1374 1090

C1373 1089 1372 1089 1371 1089

C1369 1089 1363 1086 1361 1084

C1360 1084 1356 1081 1352 1079

C1343 1074 1334 1066 1332 1062

L1332 1059

L1331 1059

C1330 1059 1329 1058 1328 1057

C1322 1049 1312 1039 1308 1038

C1303 1037 1293 1036 1286 1037

C1279 1038 1269 1044 1265 1048

C1263 1050 1261 1053 1260 1054

L1258 1056

L1259 1057

L1259 1058

L1257 1059

L1255 1059

L1255 1061

C1255 1065 1244 1096 1238 1108

C1234 1115 1228 1124 1228 1124

L1227 1124

L1227 1123

Z

M1169 881

C1172 880 1175 877 1178 875

L1182 871

L1183 872

L1184 872

L1185 871

C1186 869 1189 869 1196 867

C1197 867 1200 867 1201 866

C1202 866 1206 865 1209 864

C1214 863 1215 861 1216 856

L1217 855

L1212 852

C1207 850 1206 848 1202 840

C1199 835 1196 831 1194 830

C1191 828 1181 831 1177 835

C1174 838 1165 856 1165 859

C1165 859 1164 861 1164 863

C1163 865 1162 867 1163 867

L1163 869

L1162 869

L1160 869

L1160 875

C1160 878 1160 881 1159 881

C1159 881 1159 883 1160 883

L1160 885

L1163 885

C1164 884 1167 883 1169 881

Z

M1249 838

C1249 834 1249 831 1249 830

C1249 829 1249 826 1248 823

L1247 817

L1246 817

C1245 817 1244 817 1243 817

L1242 817

L1242 816

C1243 815 1244 815 1244 815

L1246 815

L1243 806

C1240 796 1235 775 1232 764

L1231 756

L1227 756

C1224 756 1222 757 1221 758

C1218 761 1214 770 1214 772

C1214 774 1210 788 1207 794

C1205 799 1206 800 1209 802

C1213 804 1215 805 1215 807

L1215 808

L1216 808

L1217 808

L1219 811

C1221 816 1221 816 1226 813

L1229 811

L1230 812

L1231 813

L1228 815

C1226 816 1224 816 1224 817

L1224 817

L1226 820

C1226 822 1228 823 1228 823

C1228 823 1230 825 1231 827

C1234 833 1245 845 1247 845

L1249 844

L1249 838

Z

M121 1111

C117 1109 116 1108 114 1104

C110 1094 108 1083 108 1066

C108 1058 108 1049 109 1046

C111 1035 108 1029 98 1026

C89 1024 88 1019 94 1000

C99 986 102 980 111 961

C120 942 123 936 128 929

C135 919 135 919 171 899

C200 883 203 879 219 832

C222 823 225 813 226 809

C231 796 236 779 238 770

C241 758 245 749 247 747

C254 742 264 730 274 714

C282 700 284 696 285 691

C285 687 285 686 283 685

C281 683 280 683 277 684

C276 685 273 686 272 688

C271 689 269 690 267 691

C266 692 264 693 263 695

C259 698 255 701 254 701

C254 701 251 703 249 705

C242 711 235 716 221 724

C217 726 212 731 207 736

C206 737 205 740 204 743

C203 745 200 751 199 755

C197 758 195 763 194 766

C193 768 192 770 192 772

C192 773 191 775 191 776

C190 777 189 783 188 788

C187 792 186 800 186 805

C184 823 179 841 175 841

C174 841 173 839 172 838

C169 833 165 831 159 832

C156 832 153 833 153 833

C152 833 149 835 146 836

L140 838

L141 834

C141 830 141 829 139 828

C137 827 136 826 133 827

L130 828

L130 827

C130 823 138 813 146 805

C155 796 170 778 177 767

C179 765 181 763 181 763

L182 763

L182 761

C183 760 185 757 186 754

C191 746 191 741 188 739

C184 737 175 738 166 741

C156 744 138 744 134 742

C127 737 133 727 150 716

C153 714 156 712 156 712

C157 712 159 711 162 709

C168 706 186 698 197 695

C227 686 229 685 230 681

L230 679

L211 679

C183 681 183 681 166 683

C144 687 141 687 135 684

C129 681 126 677 123 670

C121 665 121 646 122 639

C124 625 126 622 135 618

C140 616 142 616 155 616

C171 616 174 616 200 625

C226 633 235 636 247 639

C253 641 260 643 262 644

C265 645 283 649 286 650

C287 650 290 650 293 650

C304 652 321 647 324 642

C329 635 320 627 299 621

C294 620 285 617 279 615

C268 612 268 612 259 603

C254 598 239 585 226 574

C202 555 197 550 197 547

L197 546

L208 546

C226 547 257 553 274 558

C278 559 282 560 282 560

C283 560 287 561 290 562

C301 565 310 567 316 567

C321 567 322 567 323 565

C325 562 328 554 329 546

C332 527 334 522 339 520

C342 519 344 520 344 522

C344 523 344 528 344 534

C345 543 345 545 347 549

C351 557 357 560 364 557

C369 554 372 549 378 535

C382 525 387 518 389 518

L391 518

L390 522

C390 524 389 529 389 533

C385 547 388 556 397 556

C401 556 411 552 429 544

C446 535 458 530 461 530

C462 530 463 530 463 529

C464 528 477 524 480 524

C481 524 482 523 483 523

C483 522 484 522 485 522

L487 522

L487 521

C487 521 489 520 492 520

C494 520 496 519 498 518

C499 518 502 517 504 517

L509 516

L509 517

C509 518 502 524 499 526

C495 528 493 530 490 533

C489 534 488 535 488 535

C487 535 485 536 483 538

C482 539 479 542 477 543

C475 545 472 546 471 547

L468 547

L469 548

L469 549

L466 551

C464 552 463 553 462 555

C461 556 459 558 457 559

C455 559 454 561 453 562

C452 564 437 579 436 579

L434 579

L434 580

L434 581

L435 581

L436 581

L433 585

C431 587 429 589 427 591

C426 592 425 594 425 594

C424 595 423 596 422 597

C421 597 419 599 418 600

C416 602 414 603 413 603

L412 603

L412 604

C412 606 408 609 403 610

C387 614 374 620 371 625

C370 625 369 626 369 626

C368 626 366 628 365 630

C362 633 362 636 361 640

C361 646 361 646 365 648

C370 651 370 651 384 651

C391 650 402 649 407 649

C416 647 421 646 445 643

C494 634 507 633 533 633

C556 633 569 636 571 641

C572 643 572 645 569 650

C566 658 559 667 552 673

C546 679 534 688 532 688

L531 688

L531 689

L531 690

L528 691

C526 692 522 694 520 695

C514 698 498 705 494 706

C492 707 486 708 481 710

C473 712 470 712 461 712

C450 712 440 710 433 707

C432 707 430 706 429 706

C428 706 425 705 422 704

C419 703 416 702 415 701

C412 701 410 700 404 697

C402 696 398 695 396 695

C394 694 393 693 392 693

C392 692 381 692 379 693

C375 697 380 704 394 715

C400 719 406 724 409 726

C414 731 427 744 427 745

C427 746 428 746 428 747

C431 750 434 757 434 759

C433 763 414 770 398 772

C383 775 382 777 385 803

C388 828 389 860 387 870

C383 887 377 896 366 899

C353 902 323 896 322 890

L322 888

L323 887

C324 886 326 886 328 885

C333 884 336 880 339 873

C341 865 345 862 354 859

C359 858 362 856 365 854

C369 850 369 850 368 840

C368 828 366 815 360 795

C355 774 349 762 342 753

C339 750 335 745 332 741

C323 726 319 727 309 747

C306 752 304 757 304 758

C304 759 303 761 302 764

C300 768 297 779 287 808

C286 813 284 818 284 820

C284 822 280 837 276 853

C272 869 266 890 264 898

C262 907 259 915 258 917

C257 921 248 929 247 929

L246 929

L246 931

L246 932

L245 932

C244 932 243 933 241 935

C240 936 233 942 226 947

C219 953 212 958 211 960

C209 961 208 962 207 962

C207 962 195 972 184 981

C174 990 157 1007 155 1012

C154 1014 152 1017 151 1018

C151 1019 149 1023 148 1027

C146 1033 146 1036 145 1055

C145 1066 145 1077 145 1078

C145 1082 140 1101 138 1104

C137 1105 136 1107 135 1108

C134 1111 129 1114 127 1114

C127 1114 124 1113 121 1111

Z

M150 984

C154 982 165 973 171 967

C173 966 177 962 181 959

C184 957 187 954 187 954

C187 954 196 946 207 938

C235 914 233 916 236 906

C237 902 239 895 239 891

C241 884 246 859 248 851

C248 849 249 845 250 842

C251 839 251 836 252 836

C253 834 255 820 254 819

C253 817 250 818 248 821

C247 823 246 824 246 825

C246 825 245 828 243 831

C241 835 239 841 237 845

C231 858 225 871 223 873

C222 875 221 876 221 877

C221 880 213 890 206 895

C194 905 190 908 186 909

C184 910 182 911 182 912

C182 912 179 914 177 915

C170 919 163 924 156 930

C151 934 145 945 143 952

C143 953 142 955 142 957

C140 961 138 973 138 979

C138 989 141 990 150 984

Z

M477 1099

C478 1096 479 1090 480 1086

C481 1078 481 1073 477 1070

C475 1068 474 1068 469 1068

C462 1068 459 1069 440 1078

C429 1083 415 1089 406 1092

C403 1092 400 1094 399 1094

C398 1094 396 1095 394 1096

C392 1096 390 1097 389 1097

C388 1098 384 1099 380 1100

C375 1101 370 1102 369 1103

C368 1103 364 1104 362 1104

L358 1105

L361 1101

C365 1097 376 1088 378 1088

C378 1088 380 1086 382 1085

C384 1083 387 1080 389 1079

C398 1073 407 1065 415 1056

C417 1054 420 1052 421 1052

L422 1052

L422 1051

C422 1050 426 1045 431 1040

C433 1038 434 1037 434 1036

C434 1034 449 1019 454 1017

C456 1016 462 1014 466 1013

C477 1010 482 1008 489 1004

C505 993 509 981 498 975

C495 974 492 974 482 974

C466 974 442 977 403 985

C366 991 344 994 321 994

C303 994 295 991 295 984

C295 976 311 958 329 945

C340 937 366 924 372 922

C374 922 375 921 376 921

C376 920 377 920 378 920

C380 920 381 919 383 919

C385 917 394 915 405 914

C415 913 431 917 453 926

C468 931 480 935 482 935

C483 934 484 933 485 931

C487 927 483 921 475 915

C459 903 453 898 445 890

C436 881 430 873 430 869

C430 867 432 865 438 863

C440 862 442 860 444 860

C447 858 455 857 463 855

C472 854 476 852 477 848

C480 842 480 840 479 833

C477 820 476 811 475 804

C475 799 474 793 474 789

C473 780 474 758 475 750

C478 740 482 734 490 731

C498 727 511 727 523 731

C532 733 538 736 538 738

C538 739 536 740 533 741

C528 744 524 749 523 755

C522 756 521 759 520 761

C518 764 516 765 510 766

C501 769 497 771 495 774

C493 777 493 779 493 788

C493 802 495 815 503 838

C509 856 514 866 522 876

C525 879 529 885 531 889

C535 896 535 896 540 896

C544 896 545 895 549 889

C552 885 560 868 560 863

C561 861 562 859 562 858

C563 856 564 854 564 852

C565 850 566 847 566 846

C567 844 568 840 569 837

C570 833 572 829 572 828

C573 823 576 814 578 806

C579 801 581 794 582 791

C583 787 585 778 586 772

C588 765 590 758 590 757

C591 754 597 728 598 723

C599 714 604 706 615 699

C617 697 621 694 624 691

C626 689 630 685 632 684

C634 683 636 681 637 680

C638 679 640 677 642 676

C644 675 647 672 650 670

C652 668 655 665 656 665

C658 664 659 663 660 662

C661 661 662 660 663 660

C665 659 682 644 690 636

C697 630 710 612 710 609

C710 608 711 605 711 601

C713 597 713 591 713 580

C713 547 713 543 715 536

C718 526 721 522 724 520

C727 518 728 518 732 519

C737 520 740 524 743 530

C748 541 749 550 750 574

C750 589 750 597 751 599

C753 602 757 605 762 606

C768 608 770 610 771 616

C771 623 767 640 760 654

C759 657 758 659 758 659

C758 660 749 678 744 688

C738 699 730 709 727 712

C724 714 710 721 703 725

C698 727 694 730 693 730

C692 731 687 733 682 736

C663 747 656 759 643 799

C641 806 637 818 635 825

C633 831 630 842 629 849

C622 876 623 875 613 885

C603 895 591 912 583 928

C578 938 578 938 579 941

C583 946 592 942 605 931

C607 930 611 927 614 925

C616 923 619 921 620 920

C620 919 636 910 637 910

C637 910 638 909 640 908

C641 907 644 906 645 905

C647 905 655 897 655 896

C655 896 656 894 657 893

C658 892 659 890 659 889

L659 888

L660 888

L661 888

L664 881

C665 877 667 874 667 873

C668 873 668 872 668 872

C668 871 668 869 669 867

C670 866 670 864 670 864

C670 864 671 863 671 861

C673 859 675 849 678 835

C679 829 679 827 679 816

C680 809 681 804 681 804

C682 803 682 802 682 800

C682 799 683 798 683 797

C684 796 685 794 685 793

L685 791

L686 790

L688 790

L690 793

C695 801 703 802 719 797

L723 795

L723 799

C723 804 725 805 731 805

L736 805

L735 807

C735 811 729 818 723 824

C708 837 686 864 676 881

C674 884 675 888 677 891

C679 892 680 892 688 892

C692 892 699 891 702 890

C708 889 725 889 732 890

C746 894 737 906 711 919

C696 927 680 932 661 937

C643 942 640 943 639 945

L638 947

L639 949

C641 950 643 950 670 950

C687 950 700 950 701 949

C702 948 707 948 711 948

L719 948

L719 947

L719 946

L723 946

C731 947 732 948 736 950

C749 958 756 974 755 994

C754 1006 751 1011 742 1015

C738 1017 736 1017 723 1017

C707 1017 699 1016 679 1009

C644 996 595 981 585 978

C566 974 550 975 543 981

C539 984 539 988 541 992

C543 996 554 1002 567 1005

C596 1014 598 1015 606 1023

C609 1027 616 1034 621 1038

C628 1044 634 1049 656 1067

C665 1074 675 1083 675 1084

L675 1085

L668 1085

C661 1085 647 1083 636 1080

C631 1079 625 1077 622 1077

C618 1076 613 1074 611 1074

C609 1073 606 1072 605 1072

C604 1072 599 1071 595 1069

C590 1068 581 1066 577 1064

C572 1063 564 1061 560 1059

C551 1056 550 1056 546 1060

C542 1063 541 1068 539 1083

C536 1098 533 1104 527 1104

L525 1104

L525 1102

C524 1102 524 1097 524 1093

C524 1081 522 1074 517 1069

C509 1063 500 1066 495 1077

C493 1080 491 1086 488 1091

C485 1099 480 1106 478 1106

L477 1106

L477 1099

Z

M614 812

C614 811 616 807 617 804

C619 802 620 799 620 798

C620 797 624 788 628 780

C629 777 631 773 632 771

C633 768 635 764 636 762

C638 759 639 757 639 756

C639 755 645 746 646 745

L647 745

L646 744

L646 743

L653 737

C662 729 663 729 667 727

C669 726 673 723 677 721

C680 719 684 716 686 715

C694 711 696 710 703 703

C712 696 713 695 718 684

C722 673 724 656 722 650

C721 644 721 644 718 644

C714 642 706 648 654 691

C640 703 628 714 627 715

C625 718 608 800 608 806

C608 809 610 815 612 815

L613 815

L614 812

Z

M902 1087

C900 1086 901 1081 902 1071

C904 1060 901 1059 893 1066

C889 1069 885 1072 882 1072

L878 1074

L877 1071

C876 1069 876 1066 877 1064

C878 1061 878 1054 878 1047

C878 1035 878 1035 881 1032

C883 1030 888 1027 892 1025

C895 1023 899 1021 899 1021

C899 1021 902 1019 905 1017

C910 1013 918 1005 921 999

C922 997 924 995 924 994

C927 992 934 981 934 980

C934 979 936 977 937 974

C939 972 942 968 943 966

C944 963 946 960 948 959

C949 958 950 956 950 955

C950 954 951 953 952 952

C952 951 953 950 953 949

C953 949 954 946 955 944

C957 942 958 939 959 937

L960 934

L961 934

L962 934

L963 931

C963 927 967 921 969 919

C970 918 971 917 971 917

C971 916 972 914 974 912

C981 904 983 900 982 896

C981 891 980 888 977 887

L975 886

L974 887

L974 888

L972 887

C971 886 969 886 968 886

C967 886 965 885 964 884

C963 883 961 882 961 883

L959 883

L958 882

C957 880 945 881 944 884

C943 884 942 885 941 885

C940 885 938 886 932 891

L931 892

L931 891

L930 891

L929 893

C928 895 926 897 921 900

C918 901 914 903 913 905

C911 906 909 907 909 907

C908 907 907 909 905 910

C903 912 901 914 899 914

C897 915 896 916 896 917

L895 919

L893 919

C893 919 888 923 884 927

C877 934 875 936 875 938

L875 941

L878 942

C879 943 883 943 888 943

L895 942

L895 943

L896 945

L897 943

L898 942

L899 943

L900 945

L900 943

L900 941

L905 941

C908 942 910 943 913 946

C916 948 917 950 916 951

L916 953

L917 953

C917 954 918 956 918 958

C917 963 912 969 907 971

C901 973 900 974 896 984

C893 989 888 994 886 996

C885 996 881 998 877 1000

C873 1002 867 1005 863 1007

C858 1009 854 1011 854 1010

L853 1010

L857 1003

C859 998 860 994 860 992

L860 990

L853 990

L846 990

L847 988

C847 987 848 985 849 983

C851 980 855 969 854 968

C854 967 847 968 843 969

L841 970

L841 971

C841 973 833 977 824 978

L821 978

L821 977

L821 975

L818 974

C814 973 811 969 811 966

L811 964

L813 964

L814 964

L814 963

C814 962 815 961 816 960

C820 956 824 950 824 948

L824 947

L827 946

C829 945 838 938 838 937

C838 936 841 933 844 930

C848 926 852 922 854 920

C855 918 859 914 862 912

C865 910 868 907 868 907

C868 906 877 897 886 890

C890 886 894 882 895 880

C896 878 898 876 900 874

C911 866 925 856 927 855

C929 854 932 852 933 850

C937 847 936 848 936 817

L935 809

L932 807

C930 806 928 806 927 807

L925 808

L925 807

L924 807

L923 808

C922 808 919 809 917 810

C915 811 907 813 901 816

C895 818 883 822 876 824

L863 828

L862 827

C862 827 860 826 859 826

C854 825 849 823 845 820

L842 817

L843 814

C844 813 845 812 846 811

C848 811 860 795 860 793

C860 793 861 792 862 791

C862 790 863 789 863 787

L863 784

L855 781

C850 780 845 778 843 777

C841 777 836 775 831 773

C826 771 821 769 820 769

C818 769 814 767 812 766

C810 765 805 763 802 762

C799 762 795 760 793 759

C791 758 788 757 787 757

C786 757 785 756 784 756

C783 755 781 754 780 754

C778 754 776 753 774 752

C773 751 771 750 770 751

C769 751 765 749 760 742

C759 741 757 736 756 732

C753 725 753 725 755 715

C756 709 757 705 757 704

L757 704

L759 704

C762 705 764 703 765 696

C766 692 766 690 765 688

C764 686 765 683 767 683

L768 683

L767 692

C767 700 767 703 770 712

C773 725 774 727 777 730

C778 731 780 733 781 735

L782 737

L784 736

C784 736 790 738 797 740

C803 742 811 744 814 744

C817 745 822 745 825 746

C827 747 830 747 832 747

C833 748 834 748 835 748

C838 749 850 751 855 752

C858 752 862 752 863 753

L865 754

L866 754

L866 753

L868 754

C869 755 873 756 878 756

C887 756 891 755 891 751

C891 750 891 747 892 746

L893 743

L891 741

C890 740 888 739 887 740

L885 740

L885 739

L884 737

L883 737

L881 737

L881 736

C881 736 878 734 875 731

C871 729 867 725 865 723

C864 720 862 718 861 718

C861 717 858 715 856 713

C848 706 847 705 846 705

C844 705 831 692 831 691

C831 690 830 689 829 688

C828 687 827 685 826 683

L824 680

L825 679

L827 678

L825 678

L823 679

L821 675

C820 674 818 672 818 672

L817 672

L817 671

C817 671 816 668 815 665

C813 660 812 660 812 657

C812 656 811 654 810 653

C809 652 807 649 807 646

C806 644 805 641 804 640

C803 638 802 636 802 630

C802 626 802 620 801 617

C800 611 799 606 798 594

C798 584 798 583 803 576

L803 575

L805 577

C806 578 807 580 806 580

L806 582

L807 582

L809 582

L810 586

C811 589 812 592 813 595

C814 597 815 599 816 599

C816 600 817 601 817 602

C817 603 818 606 819 608

C820 610 821 612 820 612

L820 613

L821 613

L822 612

L825 615

C826 616 827 618 827 618

C827 618 829 621 830 623

C833 625 834 628 835 630

L835 634

L837 633

L839 633

L840 636

C841 638 842 639 843 639

C845 639 848 643 848 645

L848 647

L850 647

C851 647 853 648 854 650

C854 652 856 653 857 653

C858 654 859 655 860 657

L862 660

L863 660

L865 659

L865 662

L866 664

L868 664

C869 664 872 666 876 669

C885 679 888 681 889 681

L891 681

L891 683

C892 684 893 685 895 686

C897 687 898 688 899 690

C900 691 901 692 902 693

L904 693

L904 694

L904 695

L906 695

C907 696 908 697 908 698

L909 700

L910 700

L911 699

L912 700

C913 701 914 702 914 703

L915 705

L916 705

L917 705

L917 707

L917 708

L918 708

C919 708 920 709 922 710

C927 715 928 716 928 717

L928 719

L930 719

L932 719

L932 720

C932 721 934 724 936 726

C938 730 940 732 943 733

C945 734 948 735 948 734

C949 734 950 734 951 735

C952 736 954 736 956 735

L959 734

L959 733

C959 732 960 731 961 730

C964 729 965 726 965 716

C964 710 964 707 962 704

C961 701 960 698 960 698

C960 697 954 689 953 688

C952 688 951 687 950 686

C949 685 947 684 946 684

L945 685

L944 683

C943 683 942 682 942 682

C941 682 938 680 935 677

C932 674 930 672 929 672

C929 672 926 670 924 667

C921 664 918 660 916 658

C912 653 906 642 905 635

C904 631 903 627 903 625

C902 624 902 621 902 619

C901 618 900 614 899 612

C897 605 886 590 883 590

C883 590 880 588 877 586

L872 581

L873 581

L873 580

L868 572

C865 568 862 564 862 563

L862 562

L863 562

C863 562 867 563 872 565

C876 567 881 568 882 568

C885 568 890 570 892 572

C893 572 896 574 900 575

C903 576 906 578 907 578

C907 579 908 579 910 579

C911 579 915 580 917 582

C920 583 925 585 929 587

C937 590 943 593 943 594

C943 595 944 596 945 596

C947 597 949 599 950 601

C951 602 952 604 952 604

C953 604 957 608 962 612

C967 617 972 621 974 622

C978 624 985 624 992 623

L998 622

L998 621

L998 621

L1002 620

C1004 620 1006 619 1008 618

C1009 617 1011 616 1012 616

C1015 614 1019 610 1019 609

C1019 608 1023 602 1024 601

L1025 600

L1024 599

L1024 598

L1025 597

C1026 596 1027 592 1028 588

C1030 576 1040 542 1045 534

L1047 529

L1050 531

C1052 531 1054 534 1055 536

C1057 540 1057 540 1054 547

C1053 551 1052 555 1052 556

C1052 558 1046 577 1040 594

C1038 598 1036 604 1036 609

C1035 616 1035 617 1037 621

C1038 623 1040 625 1042 626

C1043 627 1046 628 1048 629

C1054 632 1066 632 1073 630

C1076 628 1079 626 1079 625

C1080 624 1083 620 1086 616

C1089 611 1092 606 1093 603

C1093 601 1095 598 1095 597

C1096 596 1097 594 1098 592

C1099 590 1100 586 1102 584

C1103 580 1104 576 1105 571

C1105 565 1106 562 1108 559

C1110 555 1110 555 1116 555

C1119 556 1122 556 1123 556

L1125 556

L1124 561

C1123 568 1109 605 1106 610

C1106 610 1103 615 1100 622

C1093 634 1087 644 1085 646

C1084 647 1085 652 1086 653

C1086 653 1087 654 1087 655

C1088 656 1092 657 1103 659

C1115 660 1119 661 1124 664

C1133 668 1151 675 1158 676

L1164 676

L1164 677

L1164 678

L1162 679

C1157 681 1134 688 1130 689

C1128 689 1125 690 1123 690

C1122 691 1118 691 1114 692

C1111 692 1107 692 1106 692

C1105 693 1103 693 1102 693

C1101 693 1090 704 1090 705

L1090 707

L1089 707

L1088 707

L1087 709

C1087 711 1086 712 1085 712

L1084 713

L1084 714

L1084 716

L1083 716

L1082 716

L1081 719

L1080 722

L1079 721

L1078 721

L1077 723

C1075 726 1061 738 1060 738

C1059 738 1057 739 1056 741

C1054 742 1052 743 1051 743

L1050 743

L1050 744

L1050 745

L1048 745

L1046 746

L1046 749

C1046 755 1051 757 1059 756

C1061 756 1065 754 1067 754

C1069 753 1071 752 1071 752

C1072 752 1073 751 1074 751

C1075 750 1076 749 1077 750

C1079 750 1090 745 1091 743

C1092 743 1093 742 1094 742

C1095 742 1097 741 1100 739

C1102 738 1105 737 1106 737

L1107 737

L1107 736

L1107 734

L1109 734

C1110 734 1111 734 1112 734

L1113 734

L1113 733

L1113 731

L1115 731

C1116 731 1117 731 1118 730

C1118 730 1123 727 1128 724

C1134 721 1139 718 1140 717

C1141 717 1143 715 1144 714

C1147 713 1154 708 1162 702

C1164 701 1168 697 1171 694

C1174 691 1177 689 1177 689

C1178 689 1180 688 1181 686

C1182 685 1185 682 1187 681

L1191 678

L1192 679

L1193 680

L1189 687

C1186 691 1184 695 1184 695

C1184 696 1179 704 1172 713

C1166 721 1165 722 1161 730

C1159 734 1157 737 1156 738

C1154 739 1151 746 1150 751

L1150 755

L1152 756

L1155 757

L1161 753

C1164 750 1168 746 1170 743

L1173 739

L1172 744

C1172 748 1172 751 1171 752

L1171 753

L1172 753

C1173 753 1175 752 1176 751

C1177 750 1179 749 1179 749

L1180 749

L1178 752

C1177 753 1176 755 1176 755

C1176 756 1175 758 1173 760

C1172 761 1169 765 1167 769

C1165 772 1161 777 1159 780

C1153 788 1144 806 1144 809

L1144 810

L1143 810

L1142 810

L1142 812

C1141 813 1140 815 1140 815

C1138 817 1137 818 1131 830

C1129 835 1127 839 1127 840

C1127 840 1125 842 1123 844

C1119 847 1117 848 1110 848

L1107 848

L1106 855

C1103 864 1101 880 1102 883

C1102 885 1101 888 1100 890

C1099 895 1095 898 1088 899

C1084 899 1084 900 1082 904

C1079 917 1071 912 1052 887

C1048 882 1045 878 1044 877

C1043 875 1040 871 1037 867

C1035 863 1032 860 1031 860

L1029 860

L1027 866

C1025 870 1024 875 1024 879

C1022 890 1019 903 1014 912

C1008 924 1000 938 999 939

L998 939

L998 940

C998 941 995 945 992 949

C988 952 985 956 985 956

C985 956 983 959 981 961

C979 963 977 966 976 967

C975 968 974 970 973 971

C972 972 970 974 970 976

C969 977 967 979 966 980

C965 981 964 983 964 984

C964 984 963 985 962 986

C961 987 960 989 960 990

C959 992 958 994 956 996

C952 1000 949 1004 948 1008

C947 1009 946 1011 946 1011

C945 1012 942 1017 939 1023

C936 1028 934 1036 932 1045

L932 1049

L931 1049

L930 1049

L929 1053

C929 1055 928 1057 928 1058

C928 1058 927 1060 927 1061

C926 1063 925 1067 923 1071

C921 1074 920 1077 920 1077

C920 1078 919 1079 918 1081

L915 1085

L915 1084

L914 1084

L914 1085

L914 1087

L911 1088

C906 1089 904 1089 902 1087

Z

M1093 894

C1096 893 1099 883 1101 873

C1101 869 1102 863 1103 858

C1104 853 1105 849 1105 848

C1104 848 1103 847 1101 847

C1099 846 1096 844 1093 840

L1088 834

L1084 837

L1081 839

L1079 838

L1078 836

L1079 836

C1080 837 1082 836 1083 835

L1086 833

L1084 832

L1083 832

L1083 831

C1083 828 1062 808 1059 808

L1058 808

L1058 809

C1058 810 1058 813 1058 816

C1059 819 1059 822 1059 823

C1058 823 1059 827 1060 830

C1062 834 1063 836 1065 836

L1068 837

L1066 837

L1064 837

L1064 838

C1064 838 1066 843 1068 848

C1074 862 1085 893 1085 895

L1085 895

L1088 895

C1090 894 1092 894 1093 894

Z

M1121 816

C1129 813 1132 809 1137 794

C1138 790 1139 785 1140 782

C1141 778 1142 775 1142 775

C1143 773 1142 760 1141 759

L1141 758

L1138 760

C1136 760 1132 764 1128 768

C1124 772 1120 775 1119 774

L1118 774

L1118 776

L1117 778

L1116 778

C1114 778 1101 783 1098 784

C1096 785 1094 785 1093 786

C1091 787 1090 788 1089 791

C1089 793 1088 795 1089 795

C1089 795 1091 796 1093 797

C1097 798 1099 799 1104 806

C1113 820 1113 819 1121 816

Z

M126 551

C125 550 122 549 119 549

C106 546 99 540 101 533

C101 527 107 516 113 507

C124 493 135 481 168 449

C201 416 212 404 224 385

C243 357 245 339 230 333

C224 331 215 332 202 336

C186 342 181 346 179 359

C177 369 176 371 171 371

C165 372 163 370 162 363

C160 353 162 342 168 336

C173 330 174 328 174 324

C174 320 179 312 191 298

C196 292 215 272 226 261

C239 249 246 241 246 238

L246 237

L244 237

C242 237 239 239 227 249

C222 254 214 258 206 262

C198 266 191 270 189 272

C187 274 185 275 185 275

C184 275 181 278 177 281

C164 291 157 295 149 296

C140 297 107 296 102 295

C100 295 96 294 95 293

C93 293 90 292 89 291

C87 289 84 288 83 287

C78 285 65 272 64 269

C63 265 66 262 78 256

C100 245 139 232 185 220

C195 217 206 214 210 213

C213 213 219 211 223 210

C244 205 289 191 298 187

C304 185 309 181 309 179

C309 175 300 168 290 163

C287 162 283 160 282 159

C277 157 270 155 266 154

C258 153 243 144 223 129

C209 119 207 117 200 113

C196 111 191 108 187 106

C184 104 180 102 180 102

C179 102 178 101 176 101

C175 99 163 94 149 89

C146 87 143 86 142 85

L140 83

L147 83

C169 83 210 90 234 98

C249 102 249 102 271 102

C303 102 337 99 347 93

C356 89 358 87 372 63

C380 51 387 45 390 48

C391 48 391 54 392 60

C392 76 396 79 405 72

C417 64 435 54 456 45

C467 40 478 37 480 38

L480 39

L478 41

C477 42 473 45 470 47

C466 49 463 52 463 53

C462 53 460 55 458 56

C453 59 443 68 434 75

C430 80 429 81 423 94

C421 100 406 121 395 135

C382 152 374 164 374 167

C374 171 376 172 379 171

C383 171 410 163 425 159

C432 157 442 154 447 153

C461 148 478 142 482 138

C483 137 486 134 488 131

C494 124 496 124 501 128

C505 131 509 133 516 133

C518 134 522 134 525 135

C527 135 531 135 533 135

C538 136 546 139 548 141

L549 143

L548 144

C548 144 544 144 541 144

C515 141 510 144 524 155

C532 161 538 167 538 170

L538 171

L536 171

C534 171 526 166 523 164

C523 163 520 161 516 160

C505 156 477 158 448 167

C444 168 438 170 435 171

C426 173 399 182 394 184

C392 185 389 186 389 186

C386 186 367 195 364 198

C362 200 360 203 360 206

C359 208 357 213 354 216

C349 223 344 235 341 246

C338 258 339 265 344 267

C345 267 352 270 359 271

C387 280 422 294 453 309

C469 317 475 321 475 325

C475 327 465 337 457 343

C449 349 446 351 431 361

C424 366 418 370 418 370

C414 373 395 389 393 391

C387 398 380 408 377 416

C372 426 370 434 369 449

C369 465 367 471 362 476

C359 479 359 479 354 479

C344 478 337 469 336 459

C336 441 343 402 348 390

C351 384 352 383 359 381

C365 379 387 366 404 354

C412 348 420 342 422 341

C441 328 442 326 430 322

C426 320 419 317 413 315

C406 313 398 310 394 308

C382 303 354 294 351 293

C350 293 348 292 348 292

C346 291 322 285 319 285

C317 285 314 286 312 286

C310 288 304 294 304 295

C304 296 302 300 299 305

C295 310 293 314 293 314

C293 315 292 317 290 319

C289 321 286 327 283 332

C281 337 276 345 274 350

C264 367 257 383 253 393

C248 406 244 412 235 419

C233 420 230 423 227 425

C225 427 223 429 222 429

L221 429

L221 430

C221 430 217 434 213 439

C186 464 181 470 171 484

C168 488 161 502 161 504

C161 504 161 506 160 507

C160 508 158 511 157 515

L156 521

L155 521

L154 521

L154 523

C154 524 151 530 150 531

C149 532 147 535 146 537

L146 539

L145 539

L144 539

L144 540

C144 542 136 550 134 550

C133 550 131 550 129 551

C128 551 126 551 126 551

Z

M252 321

C256 317 262 303 269 287

C273 276 273 274 270 274

C268 274 259 280 251 287

C241 297 237 306 240 316

C244 326 247 327 252 321

Z

M88 267

C90 265 93 263 93 262

L93 260

L92 259

C89 258 82 262 79 265

L77 268

L78 269

C79 271 83 270 88 267

Z

M1100 532

C1100 530 1109 518 1116 511

C1122 503 1134 487 1137 481

C1138 479 1140 474 1140 471

C1143 454 1157 420 1167 407

C1172 399 1179 383 1179 378

L1179 376

L1178 376

C1174 376 1138 400 1100 427

C1047 466 1022 480 1008 482

C1002 482 1001 482 999 480

C997 478 997 478 997 470

C997 453 1005 431 1016 417

C1022 410 1025 409 1037 409

C1043 409 1048 409 1049 408

L1051 408

L1051 407

L1051 406

L1047 405

C1040 402 1024 399 1014 399

C989 399 971 406 948 424

C928 439 916 446 907 446

L904 446

L903 444

C903 442 905 440 914 433

C918 431 923 427 924 425

L927 422

L926 422

C925 421 920 421 915 421

C909 420 903 419 901 419

L898 417

L898 416

L898 415

L902 413

C903 413 909 411 913 410

C923 409 930 406 941 402

C956 394 985 387 1031 380

C1074 372 1097 368 1103 367

C1109 366 1113 364 1114 362

L1114 361

L1111 361

C1109 360 1094 359 1079 359

C1049 357 1037 355 1034 353

C1032 351 1033 346 1037 341

C1041 335 1045 334 1052 334

C1056 334 1059 334 1060 334

L1060 333

L1059 331

C1057 328 1058 325 1061 324

C1071 319 1091 317 1126 318

C1145 318 1148 318 1151 316

C1156 314 1157 312 1155 306

C1151 289 1144 282 1107 257

C1080 239 1071 235 1055 235

C1047 235 1046 235 1041 232

C1027 225 1002 190 1001 176

C1000 160 1019 157 1032 171

C1037 178 1040 183 1045 196

C1047 204 1049 208 1052 210

C1055 213 1056 213 1065 214

C1070 214 1076 215 1079 216

C1084 218 1097 224 1106 230

C1123 241 1142 249 1154 250

C1170 251 1173 247 1168 227

C1161 203 1146 171 1134 157

C1122 144 1116 130 1111 108

C1106 85 1110 61 1119 55

C1125 51 1137 54 1140 59

C1142 62 1143 81 1141 98

C1140 104 1140 114 1140 120

C1140 129 1140 131 1142 136

C1144 139 1147 144 1150 147

C1157 154 1166 167 1175 186

C1188 212 1193 225 1198 251

C1199 257 1205 268 1214 285

C1227 307 1234 315 1237 315

L1238 314

L1239 306

C1239 300 1239 298 1241 293

C1245 287 1249 281 1257 273

C1270 259 1284 229 1292 201

C1296 184 1296 174 1291 161

C1285 144 1276 131 1264 126

C1261 124 1258 123 1258 122

C1258 120 1262 119 1267 119

C1275 119 1279 120 1288 124

C1304 131 1310 126 1319 99

C1326 81 1329 75 1332 75

L1333 75

L1333 88

C1332 96 1331 105 1331 110

C1329 121 1328 127 1330 128

L1331 129

L1342 124

C1348 121 1354 118 1355 118

L1357 118

L1357 121

C1356 125 1352 129 1345 137

C1342 140 1338 146 1335 149

C1330 156 1317 182 1313 192

C1306 210 1298 236 1298 238

L1299 241

L1302 240

C1305 240 1307 239 1308 238

C1311 237 1331 230 1340 228

C1343 228 1349 227 1353 227

C1359 227 1361 228 1364 233

L1365 235

L1369 232

C1372 231 1374 230 1375 230

L1375 230

L1373 234

C1368 243 1345 262 1316 283

C1293 298 1277 311 1276 314

L1275 316

L1275 317

L1276 317

L1280 316

C1282 315 1284 313 1284 313

L1284 312

L1286 311

C1287 311 1290 311 1291 311

C1293 311 1295 310 1297 308

C1299 306 1301 305 1304 305

C1308 304 1319 299 1321 297

C1323 295 1335 289 1340 288

C1344 288 1356 283 1362 281

C1364 279 1368 278 1369 277

C1370 277 1372 276 1372 276

C1372 276 1377 273 1383 271

C1394 266 1403 265 1416 267

C1440 271 1460 278 1470 288

C1479 296 1477 299 1458 307

C1443 314 1440 316 1439 318

L1439 319

L1440 319

C1440 319 1444 317 1449 317

C1453 316 1458 314 1460 313

C1461 313 1464 312 1465 312

C1466 312 1468 311 1470 310

C1471 310 1474 308 1476 308

L1480 306

L1478 308

C1477 309 1474 312 1471 314

C1452 327 1417 336 1375 339

C1316 343 1259 350 1239 356

C1232 358 1227 362 1227 368

C1227 378 1237 389 1251 394

C1254 395 1260 396 1264 397

C1278 398 1282 401 1294 414

C1314 437 1334 456 1354 472

C1367 482 1370 485 1370 488

L1370 490

L1363 490

C1356 490 1345 488 1330 484

C1315 481 1308 478 1290 471

C1264 460 1252 457 1242 459

C1234 461 1230 465 1226 478

C1224 483 1222 489 1221 491

C1218 494 1213 496 1209 495

L1207 495

L1207 491

C1207 489 1209 484 1210 479

C1212 471 1212 471 1211 468

C1209 466 1205 465 1200 468

C1196 470 1192 475 1187 487

C1185 493 1181 499 1179 501

C1177 504 1176 504 1171 504

C1167 504 1166 503 1163 501

C1160 499 1160 499 1155 501

C1152 503 1145 507 1139 512

C1118 527 1108 533 1103 533

L1100 533

L1100 532

Z

M789 494

C787 493 784 491 784 490

C781 486 781 475 783 453

C785 417 785 414 772 401

C755 384 730 332 725 305

C724 295 717 281 704 259

C695 243 688 235 685 235

L683 235

L684 240

C685 250 679 262 667 276

C655 289 647 303 638 328

C630 349 627 367 629 378

C630 386 634 396 639 405

C643 412 653 422 659 424

C663 426 665 427 665 429

L665 430

L662 431

C658 433 646 431 636 426

C626 422 622 422 618 425

C613 429 609 435 603 453

C600 462 597 471 595 473

L593 476

L591 474

C590 472 590 460 593 440

C594 433 595 426 594 424

L594 422

L592 422

C591 422 587 424 583 426

C574 432 570 433 568 433

L566 433

L566 432

C566 429 572 420 579 413

C587 403 595 390 603 373

C612 353 624 319 624 312

L624 310

L621 310

C620 310 616 311 612 313

C603 317 582 323 575 324

C565 325 561 324 560 320

L559 317

L558 317

C557 317 555 318 553 319

L549 321

L548 320

L548 320

L550 316

C555 307 577 289 603 270

C635 248 647 238 647 235

L647 233

L646 233

C645 233 639 236 638 237

C637 239 633 240 630 240

C627 240 626 241 624 243

C622 245 620 246 618 246

C615 246 610 248 600 254

C597 256 594 258 593 258

C592 258 591 259 589 260

C588 261 584 262 581 263

C576 264 568 267 560 270

C558 272 554 273 553 274

L550 274

L550 275

L550 276

L546 277

C544 278 539 280 535 282

C528 285 527 285 518 285

C502 285 478 280 464 272

C460 271 455 267 452 265

C448 261 447 259 447 257

C447 254 448 253 452 250

C454 249 461 245 467 242

C473 240 479 237 480 236

L483 234

L483 233

C482 233 469 236 458 239

C455 240 452 241 452 242

C451 242 448 244 446 244

L442 246

L447 241

C463 227 501 216 548 212

C610 207 668 199 683 194

C697 189 698 178 686 166

C679 159 670 155 658 153

C642 151 639 150 626 135

C608 115 582 90 562 76

C554 70 550 66 550 63

L550 61

L557 61

C574 61 609 70 633 80

C650 88 669 93 676 91

C686 90 690 85 694 71

C696 66 698 61 699 60

C701 56 705 54 709 54

L712 54

L713 56

C713 57 712 61 711 66

C709 76 708 80 711 82

C713 84 714 84 718 83

C723 81 728 74 732 65

C734 60 736 55 738 52

C742 45 750 43 757 48

C760 50 760 50 765 48

C768 46 777 40 786 33

C805 19 817 13 819 16

C820 17 817 23 809 32

C799 44 788 59 784 65

C783 68 781 73 780 77

C779 85 776 94 775 96

C774 97 774 98 774 99

C774 101 765 122 762 130

C760 133 757 138 755 140

C748 150 740 170 742 173

L743 173

L746 172

C755 168 788 146 821 122

C870 85 893 71 909 66

C921 63 925 67 923 82

C922 95 916 113 909 125

C905 131 897 139 894 139

C893 139 888 139 883 139

C877 139 872 139 871 140

L870 141

L870 142

C871 143 885 147 896 148

C913 150 931 147 947 140

C956 136 961 132 974 122

C985 113 996 106 1003 103

C1009 101 1016 100 1018 102

L1018 103

L1015 107

C1013 109 1009 112 1005 115

C1001 117 997 120 996 121

L994 124

L994 125

C995 125 1000 126 1006 126

C1012 126 1018 127 1019 128

L1022 129

L1022 131

C1021 133 1016 135 1002 138

C997 139 988 142 982 145

C976 148 967 151 962 152

C950 156 918 164 892 168

C880 170 867 173 865 173

C862 174 852 175 843 177

C824 180 814 183 810 184

L807 185

L807 186

C808 188 816 189 845 190

C858 191 871 191 873 192

C874 192 877 192 879 193

C881 193 884 194 885 194

L888 195

L888 198

C888 201 885 207 881 211

C877 214 876 214 870 214

C866 214 862 214 862 215

L861 215

L863 218

C865 221 864 223 859 225

C849 229 840 230 805 231

C775 231 771 232 769 233

C765 236 765 239 768 247

C770 253 774 260 779 265

C788 274 822 297 837 305

C849 312 854 313 866 313

C878 312 882 314 893 326

C908 342 921 361 922 371

C923 381 917 387 907 386

C901 385 896 382 891 376

C885 370 882 364 878 352

C876 345 874 341 872 338

C868 335 868 335 862 335

C849 335 835 330 811 316

C790 303 767 296 758 300

C756 300 754 302 753 303

C752 306 752 307 753 313

C755 324 762 345 769 359

C776 373 783 384 792 395

C803 408 810 425 813 446

C818 473 811 496 798 496

C795 496 792 495 789 494

Z

"/>

<path fill="#ffffff" stroke="none" d="
"/>

</svg>

