<?xml version="1.0" encoding="UTF-8" standalone="no"?>
<!DOCTYPE svg PUBLIC "-//W3C//DTD SVG 1.1//EN" "http://www.w3.org/Graphics/SVG/1.1/DTD/svg11.dtd">
<svg width="100%" height="100%" viewBox="0 0 3600 600" version="1.1" xmlns="http://www.w3.org/2000/svg" xmlns:xlink="http://www.w3.org/1999/xlink" xml:space="preserve" xmlns:serif="http://www.serif.com/" style="fill-rule:evenodd;clip-rule:evenodd;stroke-linejoin:round;stroke-miterlimit:1.41421;">
    <g transform="matrix(1.2,0,0,1,-452.469,-214.286)">
        <path d="M635.671,616.312L629.279,619.754L562.412,619.754C556.512,615.165 555.693,610.412 559.954,605.495C563.887,604.184 568.312,600.415 573.229,594.187C570.607,575.176 563.396,557.476 551.596,541.087C545.04,540.104 531.929,540.759 512.262,543.054C508.657,543.381 503.248,543.217 496.037,542.562C488.826,541.906 483.582,541.579 480.304,541.579C468.504,541.579 459.982,544.692 454.737,550.92C454.082,554.854 450.968,561.737 445.396,571.57C440.807,579.765 438.676,586.976 439.004,593.204C442.282,595.17 445.805,597.301 449.575,599.595C453.344,601.89 456.048,604.676 457.687,607.954C457.687,615.82 455.885,619.754 452.279,619.754L394.262,619.754C389.346,616.476 388.198,613.034 390.821,609.429C402.948,600.906 413.437,588.287 422.287,571.57C429.171,556.82 436.218,542.07 443.429,527.32C447.69,518.47 468.176,472.745 504.887,390.145C507.51,386.54 511.771,385.72 517.671,387.687C519.637,390.309 521.44,394.079 523.079,398.995C525.046,405.223 526.357,408.992 527.012,410.304C536.19,432.92 549.629,461.929 567.329,497.329C590.273,542.89 604.532,571.57 610.104,583.37C611.415,588.287 616.086,593.204 624.117,598.12C632.147,603.037 636.162,607.626 636.162,611.887C636.162,613.198 635.998,614.673 635.671,616.312ZM539.796,516.504C528.651,487.331 516.687,462.912 503.904,443.245C500.954,447.179 497.348,453.57 493.087,462.42C491.776,466.354 487.515,476.187 480.304,491.92C474.732,504.048 471.454,514.045 470.471,521.912C476.043,518.962 482.107,517.487 488.662,517.487C491.94,517.487 499.643,518.47 511.771,520.437C521.604,522.076 529.635,522.076 535.862,520.437L539.796,516.504Z" style="fill-rule:nonzero;"/>
        <path d="M877.571,549.937L846.596,623.195C843.973,626.145 840.86,626.473 837.254,624.179L829.879,616.804C816.44,616.804 797.921,616.476 774.321,615.82C748.426,614.837 730.235,614.345 719.746,614.345C694.507,614.345 672.382,615.82 653.371,618.77C647.798,616.148 645.668,612.542 646.979,607.954C671.562,578.126 709.421,533.548 760.554,474.22L761.537,469.795C777.598,456.356 795.298,436.854 814.637,411.287C815.293,410.631 815.621,409.976 815.621,409.32C815.621,408.009 813.326,405.551 808.737,401.945C788.743,402.273 768.912,402.765 749.246,403.42C725.646,404.076 706.471,406.042 691.721,409.32C683.854,414.892 676.971,422.759 671.071,432.92C666.482,442.098 661.893,451.276 657.304,460.454C653.043,464.059 649.273,464.715 645.996,462.42C645.34,460.126 645.012,457.831 645.012,455.537C645.012,451.931 646.405,446.195 649.192,438.329C651.978,430.462 653.371,424.398 653.371,420.137C655.01,412.598 656.485,405.059 657.796,397.52C659.435,388.342 663.368,382.442 669.596,379.82C678.446,384.409 688.279,386.867 699.096,387.195C764.323,388.179 817.423,386.704 858.396,382.77C861.018,383.426 863.722,384.163 866.508,384.983C869.294,385.802 871.179,387.523 872.162,390.145L870.196,398.504C851.84,415.22 823.979,446.359 786.612,491.92C771.535,508.965 756.457,525.845 741.379,542.562C724.007,562.229 711.715,580.256 704.504,596.645L708.437,598.612C714.665,597.301 721.712,596.645 729.579,596.645C735.479,596.645 744.411,597.137 756.375,598.12C768.339,599.104 777.107,599.595 782.679,599.595C798.085,599.595 811.032,596.809 821.521,591.237C829.715,589.926 837.418,584.354 844.629,574.52C850.201,566.326 855.937,558.131 861.837,549.937C861.837,549.609 863.148,548.134 865.771,545.512C867.41,543.873 869.048,543.054 870.687,543.054C871.343,543.054 872.162,543.217 873.146,543.545L877.571,549.937Z" style="fill-rule:nonzero;"/>
        <path d="M1102.26,610.904C1103.25,612.215 1103.74,613.69 1103.74,615.329C1103.74,621.229 1100.79,624.342 1094.89,624.67C1074.57,624.998 1055.23,618.606 1036.87,605.495C1024.09,596.645 1008.85,581.895 991.146,561.245C970.168,536.334 955.91,520.437 948.371,513.554L944.437,518.962C942.143,546.823 943.126,573.209 947.387,598.12C949.026,600.415 953.615,602.381 961.154,604.02C967.71,605.004 970.987,607.298 970.987,610.904C970.987,612.542 970.496,614.509 969.512,616.804C964.596,620.081 958.204,621.72 950.337,621.72C943.782,621.065 937.062,620.573 930.179,620.245C930.179,620.245 915.429,620.245 885.929,620.245C882.651,617.623 882.16,613.69 884.454,608.445C889.043,606.806 893.796,605.085 898.712,603.283C903.629,601.48 906.743,598.284 908.054,593.695C912.315,536.99 914.446,497.165 914.446,474.22C914.446,452.259 913.298,432.265 911.004,414.237C909.693,410.304 905.596,408.091 898.712,407.599C891.829,407.108 888.387,405.059 888.387,401.454C888.387,400.142 888.551,398.667 888.879,397.029L892.812,393.587C902.318,394.898 915.265,395.226 931.654,394.57C950.337,393.587 962.957,393.259 969.512,393.587L972.462,397.029C973.118,398.012 973.446,399.159 973.446,400.47C973.446,402.437 972.298,404.158 970.004,405.633C967.71,407.108 965.579,408.501 963.612,409.812C954.762,411.451 949.354,417.351 947.387,427.512C947.06,429.151 946.732,437.837 946.404,453.57C946.076,458.159 945.748,461.929 945.421,464.879C945.093,465.862 944.929,466.681 944.929,467.337C944.929,469.304 947.06,471.598 951.321,474.22C972.298,461.109 985.737,452.423 991.637,448.162C1006.72,437.345 1018.84,426.529 1028.02,415.712C1027.69,413.09 1025.15,410.385 1020.4,407.599C1015.65,404.813 1013.27,402.437 1013.27,400.47C1013.27,398.504 1014.58,396.209 1017.2,393.587C1025.07,394.898 1037.85,395.062 1055.55,394.079C1071.94,393.423 1084.56,394.079 1093.41,396.045C1097.35,398.34 1097.84,401.126 1094.89,404.404C1092.92,406.37 1089.97,407.599 1086.04,408.091C1082.1,408.583 1078.5,409.156 1075.22,409.812C1062.77,415.056 1046.87,425.381 1027.53,440.787C1006.22,457.831 990.982,468.976 981.804,474.22C976.56,478.481 973.937,482.742 973.937,487.004C973.937,491.92 978.198,498.148 986.721,505.687C995.898,514.209 1001.31,520.437 1002.95,524.37C1038.02,573.865 1071.12,602.709 1102.26,610.904Z" style="fill-rule:nonzero;"/>
        <path d="M1354,616.312L1347.6,619.754L1280.74,619.754C1274.84,615.165 1274.02,610.412 1278.28,605.495C1282.21,604.184 1286.64,600.415 1291.55,594.187C1288.93,575.176 1281.72,557.476 1269.92,541.087C1263.37,540.104 1250.25,540.759 1230.59,543.054C1226.98,543.381 1221.57,543.217 1214.36,542.562C1207.15,541.906 1201.91,541.579 1198.63,541.579C1186.83,541.579 1178.31,544.692 1173.06,550.92C1172.41,554.854 1169.29,561.737 1163.72,571.57C1159.13,579.765 1157,586.976 1157.33,593.204C1160.61,595.17 1164.13,597.301 1167.9,599.595C1171.67,601.89 1174.37,604.676 1176.01,607.954C1176.01,615.82 1174.21,619.754 1170.6,619.754L1112.59,619.754C1107.67,616.476 1106.52,613.034 1109.15,609.429C1121.27,600.906 1131.76,588.287 1140.61,571.57C1147.5,556.82 1154.54,542.07 1161.75,527.32C1166.02,518.47 1186.5,472.745 1223.21,390.145C1225.84,386.54 1230.1,385.72 1236,387.687C1237.96,390.309 1239.77,394.079 1241.4,398.995C1243.37,405.223 1244.68,408.992 1245.34,410.304C1254.52,432.92 1267.95,461.929 1285.65,497.329C1308.6,542.89 1322.86,571.57 1328.43,583.37C1329.74,588.287 1334.41,593.204 1342.44,598.12C1350.47,603.037 1354.49,607.626 1354.49,611.887C1354.49,613.198 1354.32,614.673 1354,616.312ZM1258.12,516.504C1246.98,487.331 1235.01,462.912 1222.23,443.245C1219.28,447.179 1215.67,453.57 1211.41,462.42C1210.1,466.354 1205.84,476.187 1198.63,491.92C1193.06,504.048 1189.78,514.045 1188.8,521.912C1194.37,518.962 1200.43,517.487 1206.99,517.487C1210.27,517.487 1217.97,518.47 1230.1,520.437C1239.93,522.076 1247.96,522.076 1254.19,520.437L1258.12,516.504Z" style="fill-rule:nonzero;"/>
        <path d="M1548.7,537.154C1550.01,542.07 1550.66,546.987 1550.66,551.904C1550.66,570.259 1543.29,585.829 1528.54,598.612C1516.74,611.067 1501.17,618.115 1481.83,619.754C1473.31,620.737 1455.44,620.081 1428.24,617.787C1405.62,616.148 1388.09,616.967 1375.63,620.245C1373.34,619.59 1370.88,617.787 1368.25,614.837C1367.6,613.854 1367.27,612.87 1367.27,611.887C1367.27,609.92 1370.38,607.298 1376.61,604.02C1381.53,604.676 1384.97,601.398 1386.94,594.187C1391.53,549.937 1393.82,511.915 1393.82,480.12C1393.82,455.865 1392.67,433.412 1390.38,412.762C1389.07,410.14 1385.87,407.845 1380.79,405.879C1375.71,403.912 1373.17,401.617 1373.17,398.995C1373.17,397.684 1373.5,396.209 1374.15,394.57C1383.66,394.898 1397.59,393.915 1415.95,391.62C1449.71,391.62 1470.68,392.276 1478.88,393.587C1501.5,397.192 1518.38,406.698 1529.52,422.104C1532.47,427.02 1533.95,432.92 1533.95,439.804C1533.95,448.981 1531.82,457.012 1527.55,463.895L1505.43,485.037L1505.43,490.445C1514.28,497.001 1523.13,503.392 1531.98,509.62C1541.81,517.815 1547.38,526.992 1548.7,537.154ZM1501,458.487C1503.3,447.015 1502.32,436.69 1498.05,427.512L1484.29,412.762C1475.11,407.517 1464.46,404.895 1452.33,404.895C1442.82,404.895 1434.46,406.862 1427.25,410.795C1424.96,418.662 1423.98,429.479 1424.3,443.245C1424.3,463.895 1424.3,475.367 1424.3,477.662L1427.25,482.087C1441.35,481.431 1455.61,480.776 1470.03,480.12C1485.43,477.826 1495.76,470.615 1501,458.487ZM1510.84,575.504C1513.46,568.292 1514.77,560.754 1514.77,552.887C1514.77,540.759 1510.84,529.533 1502.97,519.208C1495.1,508.883 1485.27,502.573 1473.47,500.279C1470.52,500.279 1466.01,499.951 1459.95,499.295C1453.89,498.64 1449.38,498.312 1446.43,498.312C1436.92,498.312 1429.55,500.606 1424.3,505.195L1423.32,593.695C1422.66,596.645 1423.65,598.694 1426.27,599.841C1428.89,600.988 1431.52,602.054 1434.14,603.037C1456.75,603.365 1471.34,602.709 1477.9,601.07C1494.29,597.792 1505.27,589.27 1510.84,575.504Z" style="fill-rule:nonzero;"/>
        <path d="M1788.63,616.312L1782.24,619.754L1715.37,619.754C1709.47,615.165 1708.65,610.412 1712.91,605.495C1716.85,604.184 1721.27,600.415 1726.19,594.187C1723.57,575.176 1716.35,557.476 1704.55,541.087C1698,540.104 1684.89,540.759 1665.22,543.054C1661.62,543.381 1656.21,543.217 1649,542.562C1641.79,541.906 1636.54,541.579 1633.26,541.579C1621.46,541.579 1612.94,544.692 1607.7,550.92C1607.04,554.854 1603.93,561.737 1598.35,571.57C1593.77,579.765 1591.63,586.976 1591.96,593.204C1595.24,595.17 1598.76,597.301 1602.53,599.595C1606.3,601.89 1609.01,604.676 1610.65,607.954C1610.65,615.82 1608.84,619.754 1605.24,619.754L1547.22,619.754C1542.3,616.476 1541.16,613.034 1543.78,609.429C1555.91,600.906 1566.4,588.287 1575.25,571.57C1582.13,556.82 1589.18,542.07 1596.39,527.32C1600.65,518.47 1621.13,472.745 1657.85,390.145C1660.47,386.54 1664.73,385.72 1670.63,387.687C1672.6,390.309 1674.4,394.079 1676.04,398.995C1678,405.223 1679.32,408.992 1679.97,410.304C1689.15,432.92 1702.59,461.929 1720.29,497.329C1743.23,542.89 1757.49,571.57 1763.06,583.37C1764.37,588.287 1769.04,593.204 1777.08,598.12C1785.11,603.037 1789.12,607.626 1789.12,611.887C1789.12,613.198 1788.96,614.673 1788.63,616.312ZM1692.75,516.504C1681.61,487.331 1669.65,462.912 1656.86,443.245C1653.91,447.179 1650.31,453.57 1646.05,462.42C1644.74,466.354 1640.47,476.187 1633.26,491.92C1627.69,504.048 1624.41,514.045 1623.43,521.912C1629,518.962 1635.07,517.487 1641.62,517.487C1644.9,517.487 1652.6,518.47 1664.73,520.437C1674.56,522.076 1682.59,522.076 1688.82,520.437L1692.75,516.504Z" style="fill-rule:nonzero;"/>
        <path d="M2064.45,390.637C2066.09,392.931 2066.26,395.39 2064.95,398.012C2063.96,400.634 2062.16,401.945 2059.54,401.945C2048.39,402.273 2042,405.551 2040.36,411.779C2040.04,420.301 2038.89,442.426 2036.92,478.154C2035.61,504.704 2034.95,526.337 2034.95,543.054C2034.95,565.015 2035.94,585.337 2037.9,604.02C2037.58,606.642 2037.17,609.265 2036.67,611.887C2036.18,614.509 2034.63,615.82 2032,615.82L2023.65,614.837C2013.49,593.531 1994.47,570.095 1966.61,544.529C1929.25,510.44 1906.63,488.806 1898.76,479.629C1893.52,473.401 1885.32,465.534 1874.18,456.029C1861.4,444.884 1853.04,437.181 1849.1,432.92L1845.66,436.854L1846.65,581.895C1847.63,589.762 1852.22,594.679 1860.41,596.645C1865.33,597.301 1870.41,598.12 1875.65,599.104C1880.9,600.087 1884.34,602.545 1885.98,606.479C1885.65,608.117 1885.16,609.838 1884.5,611.641C1883.85,613.444 1882.54,614.509 1880.57,614.837L1801.9,614.837C1799.28,604.02 1801.58,598.612 1808.79,598.612C1815.34,600.251 1819.93,598.284 1822.55,592.712C1822.55,582.879 1823.54,563.54 1825.5,534.695C1827.14,510.44 1827.96,491.101 1827.96,476.679C1827.96,454.062 1826.32,433.74 1823.05,415.712C1822.72,412.762 1819.52,409.32 1813.46,405.387C1807.39,401.454 1804.36,398.34 1804.36,396.045C1804.36,393.751 1806,391.129 1809.28,388.179C1830.59,388.834 1842.38,389.326 1844.68,389.654C1857.46,391.948 1866.31,398.34 1871.23,408.829C1889.59,428.495 1937.11,474.548 2013.81,546.987L2016.76,543.545C2018.73,527.812 2019.38,506.834 2018.73,480.612C2017.75,449.473 2017.58,428.659 2018.24,418.17C2017.25,411.942 2013.65,407.763 2007.42,405.633C2001.19,403.502 1995.13,401.617 1989.23,399.979C1989.23,399.979 1988.74,397.192 1987.75,391.62L1994.64,388.179C2001.52,389.49 2013.16,389.654 2029.55,388.67C2044.62,388.015 2056.26,388.67 2064.45,390.637Z" style="fill-rule:nonzero;"/>
        <path d="M2359.45,474.22C2352.9,490.281 2342.33,503.392 2327.74,513.554C2313.16,523.715 2297.18,529.451 2279.8,530.762C2278.16,531.417 2276.2,531.745 2273.9,531.745C2271.61,531.745 2268.25,531.417 2263.83,530.762C2259.4,530.106 2256.2,529.779 2254.24,529.779C2248.01,529.779 2244.08,532.565 2242.44,538.137C2242.44,548.954 2242.27,559.77 2241.95,570.587C2242.27,583.698 2247.85,591.729 2258.66,594.679C2262.27,595.006 2266.2,595.416 2270.46,595.908C2274.72,596.399 2277.51,598.448 2278.82,602.054C2280.46,608.937 2278,613.198 2271.45,614.837L2192.78,614.837C2188.52,613.526 2186.72,609.592 2187.37,603.037C2192.29,599.759 2197.37,596.235 2202.61,592.466C2207.86,588.697 2210.32,583.698 2209.99,577.47C2209.33,569.604 2209.33,558.951 2209.99,545.512C2210.97,529.123 2211.46,518.306 2211.46,513.062L2211.46,411.779C2211.14,407.19 2207.45,404.485 2200.4,403.666C2193.35,402.847 2190.49,399.487 2191.8,393.587C2196.39,389.981 2204.25,388.179 2215.4,388.179C2227.85,388.506 2236.21,387.851 2240.47,386.212C2247.68,385.556 2254.73,385.229 2261.61,385.229C2299.96,385.229 2330.12,396.865 2352.08,420.137C2358.31,430.626 2361.42,442.262 2361.42,455.045C2361.42,461.273 2360.76,467.665 2359.45,474.22ZM2322.58,470.287C2321.92,466.681 2321.92,461.929 2322.58,456.029C2323.24,448.49 2323.56,443.737 2323.56,441.77C2323.56,433.576 2321.43,426.692 2317.17,421.12C2310.62,412.598 2302.42,407.026 2292.59,404.404C2273.25,402.437 2265.22,401.454 2268.5,401.454C2259.65,401.454 2253.09,404.24 2248.83,409.812C2245.88,421.94 2244.08,453.734 2243.42,505.195L2246.86,510.604C2250.47,511.587 2254.07,512.079 2257.68,512.079C2261.94,512.079 2267.51,511.423 2274.4,510.112C2282.59,508.473 2288.16,507.654 2291.11,507.654C2293.08,505.031 2299.8,499.623 2311.27,491.429C2319.47,485.529 2323.24,478.481 2322.58,470.287Z" style="fill-rule:nonzero;"/>
        <path d="M2546.29,606.479C2546.62,609.756 2543.83,612.87 2537.93,615.82C2534.98,616.476 2532.19,616.804 2529.57,616.804C2506.63,616.804 2485.98,602.709 2467.62,574.52C2463.36,566.654 2459.1,558.787 2454.84,550.92C2449.59,541.742 2446.48,533.548 2445.5,526.337C2439.92,518.47 2431.24,516.012 2419.44,518.962C2415.5,520.601 2413.54,523.387 2413.54,527.32C2414.85,533.22 2415.5,544.037 2415.5,559.77C2415.18,573.537 2416.49,584.026 2419.44,591.237C2421.08,592.876 2425.17,594.842 2431.73,597.137C2436.65,598.448 2438.94,601.562 2438.61,606.479C2437.63,611.723 2434.02,614.345 2427.8,614.345C2425.83,614.345 2422.47,613.935 2417.72,613.116C2412.96,612.297 2409.44,611.887 2407.15,611.887C2405.18,611.887 2403.38,612.051 2401.74,612.379C2381.74,615.001 2366.5,614.673 2356.01,611.395C2354.7,604.512 2356.83,600.087 2362.4,598.12C2369.29,598.448 2374.7,595.17 2378.63,588.287C2377.65,571.57 2378.63,552.723 2381.58,531.745C2383.22,479.956 2382.73,438.984 2380.1,408.829C2379.12,407.19 2375.93,405.469 2370.52,403.666C2365.11,401.863 2362.4,399.815 2362.4,397.52C2362.4,396.209 2363.06,394.57 2364.37,392.604C2368.63,389.981 2375.02,388.342 2383.55,387.687C2390.76,387.031 2397.97,386.54 2405.18,386.212C2434.35,384.901 2457.3,386.867 2474.01,392.112C2498.6,399.323 2515.15,413.254 2523.67,433.904C2524.98,439.148 2525.64,444.392 2525.64,449.637C2525.64,467.992 2517.28,485.037 2500.56,500.77C2493.35,502.409 2486.96,507.817 2481.39,516.995C2480.08,526.501 2483.35,537.154 2491.22,548.954C2500.07,563.048 2504.99,573.045 2505.97,578.945C2509.58,584.845 2516.46,589.762 2526.62,593.695C2536.78,597.629 2543.34,601.89 2546.29,606.479ZM2490.24,429.97C2479.09,409.976 2457.79,401.126 2426.32,403.42C2422.72,404.076 2419.11,407.19 2415.5,412.762L2415.5,464.879C2415.5,467.173 2415.26,470.533 2414.77,474.958C2414.28,479.383 2414.03,482.579 2414.03,484.545C2414.03,490.117 2415.67,494.542 2418.95,497.82C2423.86,499.787 2429.27,500.77 2435.17,500.77C2453.53,500.77 2470.74,492.412 2486.8,475.695C2486.47,471.762 2487.62,466.108 2490.24,458.733C2492.86,451.358 2494.17,445.867 2494.17,442.262C2494.17,437.673 2492.86,433.576 2490.24,429.97Z" style="fill-rule:nonzero;"/>
        <path d="M2667.24,604.512C2667.24,611.395 2665.43,614.837 2661.83,614.837L2566.94,614.837C2561.37,613.198 2560.38,609.756 2563.99,604.512C2565.95,600.251 2571.53,597.956 2580.7,597.629C2588.9,597.301 2593.65,594.187 2594.96,588.287C2594.64,581.404 2595.13,571.734 2596.44,559.279C2597.75,543.873 2598.57,534.04 2598.9,529.779C2598.9,518.962 2599.55,502.737 2600.86,481.104C2603.49,459.798 2602.5,435.706 2597.91,408.829C2596.27,404.895 2590.21,402.765 2579.72,402.437C2571.2,402.109 2567.43,398.504 2568.41,391.62L2574.31,387.195L2663.8,388.67C2669.04,390.309 2669.7,393.423 2665.76,398.012C2659.21,399.651 2652.65,401.454 2646.1,403.42C2638.56,405.715 2634.13,410.467 2632.82,417.679C2629.87,487.823 2629.22,545.02 2630.85,589.27C2633.15,595.17 2638.56,598.612 2647.08,599.595C2657.9,600.906 2664.62,602.545 2667.24,604.512Z" style="fill-rule:nonzero;"/>
        <path d="M2846.7,534.695C2849.65,541.906 2851.12,549.609 2851.12,557.804C2851.12,573.209 2846.61,586.238 2837.6,596.891C2828.59,607.544 2815.39,614.509 2798.02,617.787C2782.29,619.426 2766.55,621.229 2750.82,623.195L2690.35,620.737C2687.4,616.804 2685.76,610.74 2685.43,602.545C2685.1,592.056 2684.45,585.337 2683.46,582.387C2683.46,580.42 2682.81,577.224 2681.5,572.799C2680.18,568.374 2679.53,565.015 2679.53,562.72C2679.53,559.442 2680.84,556.492 2683.46,553.87C2688.71,553.87 2692.97,556.492 2696.25,561.737C2698.54,566.326 2700.84,570.915 2703.13,575.504C2708.05,586.32 2716.4,594.187 2728.2,599.104C2735.09,602.054 2746.56,604.676 2762.62,606.97C2797.37,599.431 2814.74,584.845 2814.74,563.212C2814.74,551.74 2810.8,542.562 2802.94,535.679C2795.4,529.779 2776.22,521.092 2745.41,509.62C2721.16,500.77 2704.93,488.315 2696.74,472.254C2692.8,465.042 2690.84,457.176 2690.84,448.654C2690.84,432.92 2696.25,419.809 2707.06,409.32C2725.42,391.292 2750.66,382.279 2782.78,382.279C2792.28,382.279 2802.28,383.098 2812.77,384.737C2815.72,382.442 2819,381.295 2822.6,381.295C2826.87,381.295 2829.49,383.262 2830.47,387.195L2836.86,438.82C2835.88,442.426 2834.08,444.72 2831.45,445.704C2826.54,444.72 2822.77,440.951 2820.15,434.395C2816.21,425.545 2813.75,420.465 2812.77,419.154C2807.85,410.959 2800.48,405.715 2790.65,403.42C2781.47,402.109 2772.45,400.962 2763.6,399.979C2745.25,400.962 2732.14,408.665 2724.27,423.087C2724.27,423.087 2724.27,428.659 2724.27,439.804C2723.94,446.687 2725.25,452.095 2728.2,456.029C2737.05,463.895 2758.2,475.204 2791.63,489.954C2818.51,502.081 2836.86,516.995 2846.7,534.695Z" style="fill-rule:nonzero;"/>
        <path d="M3090.07,560.754C3062.21,600.087 3026.32,619.754 2982.4,619.754C2974.86,619.754 2967.32,619.098 2959.78,617.787C2939.46,614.181 2920.77,605.167 2903.73,590.745C2885.37,575.34 2873.9,557.804 2869.31,538.137C2866.36,526.337 2864.89,514.537 2864.89,502.737C2864.89,468.976 2875.7,441.77 2897.34,421.12C2923.56,395.881 2953.72,383.262 2987.8,383.262C3000.59,383.262 3013.21,385.229 3025.66,389.162C3042.38,394.734 3062.21,408.665 3085.15,430.954C3098.92,448.654 3105.8,470.942 3105.8,497.82C3105.8,520.765 3100.56,541.742 3090.07,560.754ZM3062.05,538.137C3066.31,528.631 3068.44,517.979 3068.44,506.179C3068.44,484.545 3062.7,464.715 3051.23,446.687C3035.17,415.22 3005.01,401.126 2960.76,404.404C2948.64,408.337 2937.49,415.63 2927.33,426.283C2917.17,436.935 2910.28,448.326 2906.68,460.454C2906.68,461.437 2906.02,468.648 2904.71,482.087C2903.73,489.954 2904.39,496.673 2906.68,502.245C2909.3,514.373 2914.22,532.073 2921.43,555.345C2925.69,560.59 2930.28,565.916 2935.2,571.324C2940.11,576.733 2945.68,579.273 2951.91,578.945C2960.11,588.123 2972.24,592.712 2988.3,592.712C2991.9,592.712 2996.98,592.466 3003.54,591.974C3010.09,591.483 3015.01,591.237 3018.29,591.237L3045.82,573.537C3046.15,569.604 3049.02,564.523 3054.43,558.295C3059.83,552.067 3062.54,546.823 3062.54,542.562C3062.54,540.923 3062.37,539.448 3062.05,538.137Z" style="fill-rule:nonzero;"/>
        <path d="M3368.35,390.637C3369.99,392.931 3370.16,395.39 3368.85,398.012C3367.86,400.634 3366.06,401.945 3363.44,401.945C3352.29,402.273 3345.9,405.551 3344.26,411.779C3343.93,420.301 3342.79,442.426 3340.82,478.154C3339.51,504.704 3338.85,526.337 3338.85,543.054C3338.85,565.015 3339.84,585.337 3341.8,604.02C3341.48,606.642 3341.07,609.265 3340.58,611.887C3340.08,614.509 3338.53,615.82 3335.9,615.82L3327.55,614.837C3317.39,593.531 3298.37,570.095 3270.51,544.529C3233.15,510.44 3210.53,488.806 3202.66,479.629C3197.42,473.401 3189.22,465.534 3178.08,456.029C3165.3,444.884 3156.94,437.181 3153,432.92L3149.56,436.854L3150.55,581.895C3151.53,589.762 3156.12,594.679 3164.31,596.645C3169.23,597.301 3174.31,598.12 3179.55,599.104C3184.8,600.087 3188.24,602.545 3189.88,606.479C3189.55,608.117 3189.06,609.838 3188.4,611.641C3187.75,613.444 3186.44,614.509 3184.47,614.837L3105.8,614.837C3103.18,604.02 3105.48,598.612 3112.69,598.612C3119.24,600.251 3123.83,598.284 3126.45,592.712C3126.45,582.879 3127.44,563.54 3129.4,534.695C3131.04,510.44 3131.86,491.101 3131.86,476.679C3131.86,454.062 3130.22,433.74 3126.95,415.712C3126.62,412.762 3123.42,409.32 3117.36,405.387C3111.29,401.454 3108.26,398.34 3108.26,396.045C3108.26,393.751 3109.9,391.129 3113.18,388.179C3134.49,388.834 3146.28,389.326 3148.58,389.654C3161.36,391.948 3170.21,398.34 3175.13,408.829C3193.49,428.495 3241.01,474.548 3317.71,546.987L3320.66,543.545C3322.63,527.812 3323.28,506.834 3322.63,480.612C3321.65,449.473 3321.48,428.659 3322.14,418.17C3321.15,411.942 3317.55,407.763 3311.32,405.633C3305.09,403.502 3299.03,401.617 3293.13,399.979C3293.13,399.979 3292.64,397.192 3291.65,391.62L3298.54,388.179C3305.42,389.49 3317.06,389.654 3333.45,388.67C3348.52,388.015 3360.16,388.67 3368.35,390.637Z" style="fill-rule:nonzero;"/>
    </g>
</svg>
