<?xml version="1.0" encoding="UTF-8" standalone="no"?>
<!DOCTYPE svg PUBLIC "-//W3C//DTD SVG 1.1//EN" "http://www.w3.org/Graphics/SVG/1.1/DTD/svg11.dtd">
<svg width="100%" height="100%" viewBox="0 0 6000 3600" version="1.1" xmlns="http://www.w3.org/2000/svg" xmlns:xlink="http://www.w3.org/1999/xlink" xml:space="preserve" xmlns:serif="http://www.serif.com/" style="fill-rule:evenodd;clip-rule:evenodd;stroke-linecap:round;stroke-linejoin:round;stroke-miterlimit:1.5;">
    <g transform="matrix(1,0,0,1,0,-141.732)">
        <g transform="matrix(0.844828,0,0,1.34483,45.0041,-252.512)">
            <rect x="366.142" y="732.283" width="685.039" height="685.039" style="fill:none;stroke:rgb(0,0,255);stroke-width:3.71px;"/>
        </g>
        <g transform="matrix(0.844828,0,0,1.34483,786.146,-252.512)">
            <rect x="366.142" y="732.283" width="685.039" height="685.039" style="fill:none;stroke:rgb(0,0,255);stroke-width:3.71px;"/>
        </g>
        <g transform="matrix(0.844828,0,0,1.34483,1527.29,-252.512)">
            <rect x="366.142" y="732.283" width="685.039" height="685.039" style="fill:none;stroke:rgb(0,0,255);stroke-width:3.71px;"/>
        </g>
        <g transform="matrix(0.844828,0,0,1.34483,2268.43,-252.512)">
            <rect x="366.142" y="732.283" width="685.039" height="685.039" style="fill:none;stroke:rgb(0,0,255);stroke-width:3.71px;"/>
        </g>
        <g transform="matrix(0.844828,0,0,1.34483,3009.57,-252.512)">
            <rect x="366.142" y="732.283" width="685.039" height="685.039" style="fill:none;stroke:rgb(0,0,255);stroke-width:3.71px;"/>
        </g>
    </g>
    <g transform="matrix(3.4,0,0,1.87654,-5022.05,-1943.13)">
        <path d="M2692.91,1117.56C2692.91,1107 2688.18,1098.42 2682.35,1098.42L1522.37,1098.42C1516.54,1098.42 1511.81,1107 1511.81,1117.56L1511.81,2035.98C1511.81,2046.55 1516.54,2055.12 1522.37,2055.12L2682.35,2055.12C2688.18,2055.12 2692.91,2046.55 2692.91,2035.98L2692.91,1117.56Z" style="fill:none;stroke:rgb(0,0,255);stroke-width:1.52px;"/>
    </g>
    <g transform="matrix(1,0,0,1.66667,0,-1057.09)">
        <rect x="354.331" y="1594.49" width="1319.88" height="106.299" style="fill:none;stroke:rgb(0,0,255);stroke-width:3.03px;"/>
    </g>
    <g transform="matrix(1.56152,0,0,1.66667,1283.32,-1057.09)">
        <rect x="354.331" y="1594.49" width="1319.88" height="106.299" style="fill:none;stroke:rgb(0,0,255);stroke-width:2.58px;"/>
    </g>
    <g transform="matrix(1.2,0,0,1,-132.493,-67.4016)">
        <path d="M890.464,552.054L885.264,554.854L830.864,554.854C826.064,551.12 825.398,547.254 828.864,543.254C832.064,542.187 835.664,539.12 839.664,534.054C837.531,518.587 831.664,504.187 822.064,490.854C816.731,490.054 806.064,490.587 790.064,492.454C787.131,492.72 782.731,492.587 776.864,492.054C770.998,491.52 766.731,491.254 764.064,491.254C754.464,491.254 747.531,493.787 743.264,498.854C742.731,502.054 740.198,507.654 735.664,515.654C731.931,522.32 730.198,528.187 730.464,533.254C733.131,534.854 735.998,536.587 739.064,538.454C742.131,540.32 744.331,542.587 745.664,545.254C745.664,551.654 744.198,554.854 741.264,554.854L694.064,554.854C690.064,552.187 689.131,549.387 691.264,546.454C701.131,539.52 709.664,529.254 716.864,515.654C722.464,503.654 728.198,491.654 734.064,479.654C737.531,472.454 754.198,435.254 784.064,368.054C786.198,365.12 789.664,364.454 794.464,366.054C796.064,368.187 797.531,371.254 798.864,375.254C800.464,380.32 801.531,383.387 802.064,384.454C809.531,402.854 820.464,426.454 834.864,455.254C853.531,492.32 865.131,515.654 869.664,525.254C870.731,529.254 874.531,533.254 881.064,537.254C887.598,541.254 890.864,544.987 890.864,548.454C890.864,549.52 890.731,550.72 890.464,552.054ZM812.464,470.854C803.398,447.12 793.664,427.254 783.264,411.254C780.864,414.454 777.931,419.654 774.464,426.854C773.398,430.054 769.931,438.054 764.064,450.854C759.531,460.72 756.864,468.854 756.064,475.254C760.598,472.854 765.531,471.654 770.864,471.654C773.531,471.654 779.798,472.454 789.664,474.054C797.664,475.387 804.198,475.387 809.264,474.054L812.464,470.854Z" style="fill-rule:nonzero;"/>
        <path d="M1087.26,498.054L1062.06,557.654C1059.93,560.054 1057.4,560.32 1054.46,558.454L1048.46,552.454C1037.53,552.454 1022.46,552.187 1003.26,551.654C982.198,550.854 967.398,550.454 958.864,550.454C938.331,550.454 920.331,551.654 904.864,554.054C900.331,551.92 898.598,548.987 899.664,545.254C919.664,520.987 950.464,484.72 992.064,436.454L992.864,432.854C1005.93,421.92 1020.33,406.054 1036.06,385.254C1036.6,384.72 1036.86,384.187 1036.86,383.654C1036.86,382.587 1035,380.587 1031.26,377.654C1015,377.92 998.864,378.32 982.864,378.854C963.664,379.387 948.064,380.987 936.064,383.654C929.664,388.187 924.064,394.587 919.264,402.854C915.531,410.32 911.798,417.787 908.064,425.254C904.598,428.187 901.531,428.72 898.864,426.854C898.331,424.987 898.064,423.12 898.064,421.254C898.064,418.32 899.198,413.654 901.464,407.254C903.731,400.854 904.864,395.92 904.864,392.454C906.198,386.32 907.398,380.187 908.464,374.054C909.798,366.587 912.998,361.787 918.064,359.654C925.264,363.387 933.264,365.387 942.064,365.654C995.131,366.454 1038.33,365.254 1071.66,362.054C1073.8,362.587 1076,363.187 1078.26,363.854C1080.53,364.52 1082.06,365.92 1082.86,368.054L1081.26,374.854C1066.33,388.454 1043.66,413.787 1013.26,450.854C1001,464.72 988.731,478.454 976.464,492.054C962.331,508.054 952.331,522.72 946.464,536.054L949.664,537.654C954.731,536.587 960.464,536.054 966.864,536.054C971.664,536.054 978.931,536.454 988.664,537.254C998.398,538.054 1005.53,538.454 1010.06,538.454C1022.6,538.454 1033.13,536.187 1041.66,531.654C1048.33,530.587 1054.6,526.054 1060.46,518.054C1065,511.387 1069.66,504.72 1074.46,498.054C1074.46,497.787 1075.53,496.587 1077.66,494.454C1079,493.12 1080.33,492.454 1081.66,492.454C1082.2,492.454 1082.86,492.587 1083.66,492.854L1087.26,498.054Z" style="fill-rule:nonzero;"/>
        <path d="M1270.06,547.654C1270.86,548.72 1271.26,549.92 1271.26,551.254C1271.26,556.054 1268.86,558.587 1264.06,558.854C1247.53,559.12 1231.8,553.92 1216.86,543.254C1206.46,536.054 1194.06,524.054 1179.66,507.254C1162.6,486.987 1151,474.054 1144.86,468.454L1141.66,472.854C1139.8,495.52 1140.6,516.987 1144.06,537.254C1145.4,539.12 1149.13,540.72 1155.26,542.054C1160.6,542.854 1163.26,544.72 1163.26,547.654C1163.26,548.987 1162.86,550.587 1162.06,552.454C1158.06,555.12 1152.86,556.454 1146.46,556.454C1141.13,555.92 1135.66,555.52 1130.06,555.254C1130.06,555.254 1118.06,555.254 1094.06,555.254C1091.4,553.12 1091,549.92 1092.86,545.654C1096.6,544.32 1100.46,542.92 1104.46,541.454C1108.46,539.987 1111,537.387 1112.06,533.654C1115.53,487.52 1117.26,455.12 1117.26,436.454C1117.26,418.587 1116.33,402.32 1114.46,387.654C1113.4,384.454 1110.06,382.654 1104.46,382.254C1098.86,381.854 1096.06,380.187 1096.06,377.254C1096.06,376.187 1096.2,374.987 1096.46,373.654L1099.66,370.854C1107.4,371.92 1117.93,372.187 1131.26,371.654C1146.46,370.854 1156.73,370.587 1162.06,370.854L1164.46,373.654C1165,374.454 1165.26,375.387 1165.26,376.454C1165.26,378.054 1164.33,379.454 1162.46,380.654C1160.6,381.854 1158.86,382.987 1157.26,384.054C1150.06,385.387 1145.66,390.187 1144.06,398.454C1143.8,399.787 1143.53,406.854 1143.26,419.654C1143,423.387 1142.73,426.454 1142.46,428.854C1142.2,429.654 1142.06,430.32 1142.06,430.854C1142.06,432.454 1143.8,434.32 1147.26,436.454C1164.33,425.787 1175.26,418.72 1180.06,415.254C1192.33,406.454 1202.2,397.654 1209.66,388.854C1209.4,386.72 1207.33,384.52 1203.46,382.254C1199.6,379.987 1197.66,378.054 1197.66,376.454C1197.66,374.854 1198.73,372.987 1200.86,370.854C1207.26,371.92 1217.66,372.054 1232.06,371.254C1245.4,370.72 1255.66,371.254 1262.86,372.854C1266.06,374.72 1266.46,376.987 1264.06,379.654C1262.46,381.254 1260.06,382.254 1256.86,382.654C1253.66,383.054 1250.73,383.52 1248.06,384.054C1237.93,388.32 1225,396.72 1209.26,409.254C1191.93,423.12 1179.53,432.187 1172.06,436.454C1167.8,439.92 1165.66,443.387 1165.66,446.854C1165.66,450.854 1169.13,455.92 1176.06,462.054C1183.53,468.987 1187.93,474.054 1189.26,477.254C1217.8,517.52 1244.73,540.987 1270.06,547.654Z" style="fill-rule:nonzero;"/>
        <path d="M1474.86,552.054L1469.66,554.854L1415.26,554.854C1410.46,551.12 1409.8,547.254 1413.26,543.254C1416.46,542.187 1420.06,539.12 1424.06,534.054C1421.93,518.587 1416.06,504.187 1406.46,490.854C1401.13,490.054 1390.46,490.587 1374.46,492.454C1371.53,492.72 1367.13,492.587 1361.26,492.054C1355.4,491.52 1351.13,491.254 1348.46,491.254C1338.86,491.254 1331.93,493.787 1327.66,498.854C1327.13,502.054 1324.6,507.654 1320.06,515.654C1316.33,522.32 1314.6,528.187 1314.86,533.254C1317.53,534.854 1320.4,536.587 1323.46,538.454C1326.53,540.32 1328.73,542.587 1330.06,545.254C1330.06,551.654 1328.6,554.854 1325.66,554.854L1278.46,554.854C1274.46,552.187 1273.53,549.387 1275.66,546.454C1285.53,539.52 1294.06,529.254 1301.26,515.654C1306.86,503.654 1312.6,491.654 1318.46,479.654C1321.93,472.454 1338.6,435.254 1368.46,368.054C1370.6,365.12 1374.06,364.454 1378.86,366.054C1380.46,368.187 1381.93,371.254 1383.26,375.254C1384.86,380.32 1385.93,383.387 1386.46,384.454C1393.93,402.854 1404.86,426.454 1419.26,455.254C1437.93,492.32 1449.53,515.654 1454.06,525.254C1455.13,529.254 1458.93,533.254 1465.46,537.254C1472,541.254 1475.26,544.987 1475.26,548.454C1475.26,549.52 1475.13,550.72 1474.86,552.054ZM1396.86,470.854C1387.8,447.12 1378.06,427.254 1367.66,411.254C1365.26,414.454 1362.33,419.654 1358.86,426.854C1357.8,430.054 1354.33,438.054 1348.46,450.854C1343.93,460.72 1341.26,468.854 1340.46,475.254C1345,472.854 1349.93,471.654 1355.26,471.654C1357.93,471.654 1364.2,472.454 1374.06,474.054C1382.06,475.387 1388.6,475.387 1393.66,474.054L1396.86,470.854Z" style="fill-rule:nonzero;"/>
        <path d="M1633.26,487.654C1634.33,491.654 1634.86,495.654 1634.86,499.654C1634.86,514.587 1628.86,527.254 1616.86,537.654C1607.26,547.787 1594.6,553.52 1578.86,554.854C1571.93,555.654 1557.4,555.12 1535.26,553.254C1516.86,551.92 1502.6,552.587 1492.46,555.254C1490.6,554.72 1488.6,553.254 1486.46,550.854C1485.93,550.054 1485.66,549.254 1485.66,548.454C1485.66,546.854 1488.2,544.72 1493.26,542.054C1497.26,542.587 1500.06,539.92 1501.66,534.054C1505.4,498.054 1507.26,467.12 1507.26,441.254C1507.26,421.52 1506.33,403.254 1504.46,386.454C1503.4,384.32 1500.8,382.454 1496.66,380.854C1492.53,379.254 1490.46,377.387 1490.46,375.254C1490.46,374.187 1490.73,372.987 1491.26,371.654C1499,371.92 1510.33,371.12 1525.26,369.254C1552.73,369.254 1569.8,369.787 1576.46,370.854C1594.86,373.787 1608.6,381.52 1617.66,394.054C1620.06,398.054 1621.26,402.854 1621.26,408.454C1621.26,415.92 1619.53,422.454 1616.06,428.054L1598.06,445.254L1598.06,449.654C1605.26,454.987 1612.46,460.187 1619.66,465.254C1627.66,471.92 1632.2,479.387 1633.26,487.654ZM1594.46,423.654C1596.33,414.32 1595.53,405.92 1592.06,398.454L1580.86,386.454C1573.4,382.187 1564.73,380.054 1554.86,380.054C1547.13,380.054 1540.33,381.654 1534.46,384.854C1532.6,391.254 1531.8,400.054 1532.06,411.254C1532.06,428.054 1532.06,437.387 1532.06,439.254L1534.46,442.854C1545.93,442.32 1557.53,441.787 1569.26,441.254C1581.8,439.387 1590.2,433.52 1594.46,423.654ZM1602.46,518.854C1604.6,512.987 1605.66,506.854 1605.66,500.454C1605.66,490.587 1602.46,481.454 1596.06,473.054C1589.66,464.654 1581.66,459.52 1572.06,457.654C1569.66,457.654 1566,457.387 1561.06,456.854C1556.13,456.32 1552.46,456.054 1550.06,456.054C1542.33,456.054 1536.33,457.92 1532.06,461.654L1531.26,533.654C1530.73,536.054 1531.53,537.72 1533.66,538.654C1535.8,539.587 1537.93,540.454 1540.06,541.254C1558.46,541.52 1570.33,540.987 1575.66,539.654C1589,536.987 1597.93,530.054 1602.46,518.854Z" style="fill-rule:nonzero;"/>
        <path d="M1828.46,552.054L1823.26,554.854L1768.86,554.854C1764.06,551.12 1763.4,547.254 1766.86,543.254C1770.06,542.187 1773.66,539.12 1777.66,534.054C1775.53,518.587 1769.66,504.187 1760.06,490.854C1754.73,490.054 1744.06,490.587 1728.06,492.454C1725.13,492.72 1720.73,492.587 1714.86,492.054C1709,491.52 1704.73,491.254 1702.06,491.254C1692.46,491.254 1685.53,493.787 1681.26,498.854C1680.73,502.054 1678.2,507.654 1673.66,515.654C1669.93,522.32 1668.2,528.187 1668.46,533.254C1671.13,534.854 1674,536.587 1677.06,538.454C1680.13,540.32 1682.33,542.587 1683.66,545.254C1683.66,551.654 1682.2,554.854 1679.26,554.854L1632.06,554.854C1628.06,552.187 1627.13,549.387 1629.26,546.454C1639.13,539.52 1647.66,529.254 1654.86,515.654C1660.46,503.654 1666.2,491.654 1672.06,479.654C1675.53,472.454 1692.2,435.254 1722.06,368.054C1724.2,365.12 1727.66,364.454 1732.46,366.054C1734.06,368.187 1735.53,371.254 1736.86,375.254C1738.46,380.32 1739.53,383.387 1740.06,384.454C1747.53,402.854 1758.46,426.454 1772.86,455.254C1791.53,492.32 1803.13,515.654 1807.66,525.254C1808.73,529.254 1812.53,533.254 1819.06,537.254C1825.6,541.254 1828.86,544.987 1828.86,548.454C1828.86,549.52 1828.73,550.72 1828.46,552.054ZM1750.46,470.854C1741.4,447.12 1731.66,427.254 1721.26,411.254C1718.86,414.454 1715.93,419.654 1712.46,426.854C1711.4,430.054 1707.93,438.054 1702.06,450.854C1697.53,460.72 1694.86,468.854 1694.06,475.254C1698.6,472.854 1703.53,471.654 1708.86,471.654C1711.53,471.654 1717.8,472.454 1727.66,474.054C1735.66,475.387 1742.2,475.387 1747.26,474.054L1750.46,470.854Z" style="fill-rule:nonzero;"/>
        <path d="M2052.86,368.454C2054.2,370.32 2054.33,372.32 2053.26,374.454C2052.46,376.587 2051,377.654 2048.86,377.654C2039.8,377.92 2034.6,380.587 2033.26,385.654C2033,392.587 2032.06,410.587 2030.46,439.654C2029.4,461.254 2028.86,478.854 2028.86,492.454C2028.86,510.32 2029.66,526.854 2031.26,542.054C2031,544.187 2030.66,546.32 2030.26,548.454C2029.86,550.587 2028.6,551.654 2026.46,551.654L2019.66,550.854C2011.4,533.52 1995.93,514.454 1973.26,493.654C1942.86,465.92 1924.46,448.32 1918.06,440.854C1913.8,435.787 1907.13,429.387 1898.06,421.654C1887.66,412.587 1880.86,406.32 1877.66,402.854L1874.86,406.054L1875.66,524.054C1876.46,530.454 1880.2,534.454 1886.86,536.054C1890.86,536.587 1895,537.254 1899.26,538.054C1903.53,538.854 1906.33,540.854 1907.66,544.054C1907.4,545.387 1907,546.787 1906.46,548.254C1905.93,549.72 1904.86,550.587 1903.26,550.854L1839.26,550.854C1837.13,542.054 1839,537.654 1844.86,537.654C1850.2,538.987 1853.93,537.387 1856.06,532.854C1856.06,524.854 1856.86,509.12 1858.46,485.654C1859.8,465.92 1860.46,450.187 1860.46,438.454C1860.46,420.054 1859.13,403.52 1856.46,388.854C1856.2,386.454 1853.6,383.654 1848.66,380.454C1843.73,377.254 1841.26,374.72 1841.26,372.854C1841.26,370.987 1842.6,368.854 1845.26,366.454C1862.6,366.987 1872.2,367.387 1874.06,367.654C1884.46,369.52 1891.66,374.72 1895.66,383.254C1910.6,399.254 1949.26,436.72 2011.66,495.654L2014.06,492.854C2015.66,480.054 2016.2,462.987 2015.66,441.654C2014.86,416.32 2014.73,399.387 2015.26,390.854C2014.46,385.787 2011.53,382.387 2006.46,380.654C2001.4,378.92 1996.46,377.387 1991.66,376.054C1991.66,376.054 1991.26,373.787 1990.46,369.254L1996.06,366.454C2001.66,367.52 2011.13,367.654 2024.46,366.854C2036.73,366.32 2046.2,366.854 2052.86,368.454Z" style="fill-rule:nonzero;"/>
        <path d="M2292.86,436.454C2287.53,449.52 2278.93,460.187 2267.06,468.454C2255.2,476.72 2242.2,481.387 2228.06,482.454C2226.73,482.987 2225.13,483.254 2223.26,483.254C2221.4,483.254 2218.66,482.987 2215.06,482.454C2211.46,481.92 2208.86,481.654 2207.26,481.654C2202.2,481.654 2199,483.92 2197.66,488.454C2197.66,497.254 2197.53,506.054 2197.26,514.854C2197.53,525.52 2202.06,532.054 2210.86,534.454C2213.8,534.72 2217,535.054 2220.46,535.454C2223.93,535.854 2226.2,537.52 2227.26,540.454C2228.6,546.054 2226.6,549.52 2221.26,550.854L2157.26,550.854C2153.8,549.787 2152.33,546.587 2152.86,541.254C2156.86,538.587 2161,535.72 2165.26,532.654C2169.53,529.587 2171.53,525.52 2171.26,520.454C2170.73,514.054 2170.73,505.387 2171.26,494.454C2172.06,481.12 2172.46,472.32 2172.46,468.054L2172.46,385.654C2172.2,381.92 2169.2,379.72 2163.46,379.054C2157.73,378.387 2155.4,375.654 2156.46,370.854C2160.2,367.92 2166.6,366.454 2175.66,366.454C2185.8,366.72 2192.6,366.187 2196.06,364.854C2201.93,364.32 2207.66,364.054 2213.26,364.054C2244.46,364.054 2269,373.52 2286.86,392.454C2291.93,400.987 2294.46,410.454 2294.46,420.854C2294.46,425.92 2293.93,431.12 2292.86,436.454ZM2262.86,433.254C2262.33,430.32 2262.33,426.454 2262.86,421.654C2263.4,415.52 2263.66,411.654 2263.66,410.054C2263.66,403.387 2261.93,397.787 2258.46,393.254C2253.13,386.32 2246.46,381.787 2238.46,379.654C2222.73,378.054 2216.2,377.254 2218.86,377.254C2211.66,377.254 2206.33,379.52 2202.86,384.054C2200.46,393.92 2199,419.787 2198.46,461.654L2201.26,466.054C2204.2,466.854 2207.13,467.254 2210.06,467.254C2213.53,467.254 2218.06,466.72 2223.66,465.654C2230.33,464.32 2234.86,463.654 2237.26,463.654C2238.86,461.52 2244.33,457.12 2253.66,450.454C2260.33,445.654 2263.4,439.92 2262.86,433.254Z" style="fill-rule:nonzero;"/>
        <path d="M2444.86,544.054C2445.13,546.72 2442.86,549.254 2438.06,551.654C2435.66,552.187 2433.4,552.454 2431.26,552.454C2412.6,552.454 2395.8,540.987 2380.86,518.054C2377.4,511.654 2373.93,505.254 2370.46,498.854C2366.2,491.387 2363.66,484.72 2362.86,478.854C2358.33,472.454 2351.26,470.454 2341.66,472.854C2338.46,474.187 2336.86,476.454 2336.86,479.654C2337.93,484.454 2338.46,493.254 2338.46,506.054C2338.2,517.254 2339.26,525.787 2341.66,531.654C2343,532.987 2346.33,534.587 2351.66,536.454C2355.66,537.52 2357.53,540.054 2357.26,544.054C2356.46,548.32 2353.53,550.454 2348.46,550.454C2346.86,550.454 2344.13,550.12 2340.26,549.454C2336.4,548.787 2333.53,548.454 2331.66,548.454C2330.06,548.454 2328.6,548.587 2327.26,548.854C2311,550.987 2298.6,550.72 2290.06,548.054C2289,542.454 2290.73,538.854 2295.26,537.254C2300.86,537.52 2305.26,534.854 2308.46,529.254C2307.66,515.654 2308.46,500.32 2310.86,483.254C2312.2,441.12 2311.8,407.787 2309.66,383.254C2308.86,381.92 2306.26,380.52 2301.86,379.054C2297.46,377.587 2295.26,375.92 2295.26,374.054C2295.26,372.987 2295.8,371.654 2296.86,370.054C2300.33,367.92 2305.53,366.587 2312.46,366.054C2318.33,365.52 2324.2,365.12 2330.06,364.854C2353.8,363.787 2372.46,365.387 2386.06,369.654C2406.06,375.52 2419.53,386.854 2426.46,403.654C2427.53,407.92 2428.06,412.187 2428.06,416.454C2428.06,431.387 2421.26,445.254 2407.66,458.054C2401.8,459.387 2396.6,463.787 2392.06,471.254C2391,478.987 2393.66,487.654 2400.06,497.254C2407.26,508.72 2411.26,516.854 2412.06,521.654C2415,526.454 2420.6,530.454 2428.86,533.654C2437.13,536.854 2442.46,540.32 2444.86,544.054ZM2399.26,400.454C2390.2,384.187 2372.86,376.987 2347.26,378.854C2344.33,379.387 2341.4,381.92 2338.46,386.454L2338.46,428.854C2338.46,430.72 2338.26,433.454 2337.86,437.054C2337.46,440.654 2337.26,443.254 2337.26,444.854C2337.26,449.387 2338.6,452.987 2341.26,455.654C2345.26,457.254 2349.66,458.054 2354.46,458.054C2369.4,458.054 2383.4,451.254 2396.46,437.654C2396.2,434.454 2397.13,429.854 2399.26,423.854C2401.4,417.854 2402.46,413.387 2402.46,410.454C2402.46,406.72 2401.4,403.387 2399.26,400.454Z" style="fill-rule:nonzero;"/>
        <path d="M2543.26,542.454C2543.26,548.054 2541.8,550.854 2538.86,550.854L2461.66,550.854C2457.13,549.52 2456.33,546.72 2459.26,542.454C2460.86,538.987 2465.4,537.12 2472.86,536.854C2479.53,536.587 2483.4,534.054 2484.46,529.254C2484.2,523.654 2484.6,515.787 2485.66,505.654C2486.73,493.12 2487.4,485.12 2487.66,481.654C2487.66,472.854 2488.2,459.654 2489.26,442.054C2491.4,424.72 2490.6,405.12 2486.86,383.254C2485.53,380.054 2480.6,378.32 2472.06,378.054C2465.13,377.787 2462.06,374.854 2462.86,369.254L2467.66,365.654L2540.46,366.854C2544.73,368.187 2545.26,370.72 2542.06,374.454C2536.73,375.787 2531.4,377.254 2526.06,378.854C2519.93,380.72 2516.33,384.587 2515.26,390.454C2512.86,447.52 2512.33,494.054 2513.66,530.054C2515.53,534.854 2519.93,537.654 2526.86,538.454C2535.66,539.52 2541.13,540.854 2543.26,542.454Z" style="fill-rule:nonzero;"/>
        <path d="M2689.26,485.654C2691.66,491.52 2692.86,497.787 2692.86,504.454C2692.86,516.987 2689.2,527.587 2681.86,536.254C2674.53,544.92 2663.8,550.587 2649.66,553.254C2636.86,554.587 2624.06,556.054 2611.26,557.654L2562.06,555.654C2559.66,552.454 2558.33,547.52 2558.06,540.854C2557.8,532.32 2557.26,526.854 2556.46,524.454C2556.46,522.854 2555.93,520.254 2554.86,516.654C2553.8,513.054 2553.26,510.32 2553.26,508.454C2553.26,505.787 2554.33,503.387 2556.46,501.254C2560.73,501.254 2564.2,503.387 2566.86,507.654C2568.73,511.387 2570.6,515.12 2572.46,518.854C2576.46,527.654 2583.26,534.054 2592.86,538.054C2598.46,540.454 2607.8,542.587 2620.86,544.454C2649.13,538.32 2663.26,526.454 2663.26,508.854C2663.26,499.52 2660.06,492.054 2653.66,486.454C2647.53,481.654 2631.93,474.587 2606.86,465.254C2587.13,458.054 2573.93,447.92 2567.26,434.854C2564.06,428.987 2562.46,422.587 2562.46,415.654C2562.46,402.854 2566.86,392.187 2575.66,383.654C2590.6,368.987 2611.13,361.654 2637.26,361.654C2645,361.654 2653.13,362.32 2661.66,363.654C2664.06,361.787 2666.73,360.854 2669.66,360.854C2673.13,360.854 2675.26,362.454 2676.06,365.654L2681.26,407.654C2680.46,410.587 2679,412.454 2676.86,413.254C2672.86,412.454 2669.8,409.387 2667.66,404.054C2664.46,396.854 2662.46,392.72 2661.66,391.654C2657.66,384.987 2651.66,380.72 2643.66,378.854C2636.2,377.787 2628.86,376.854 2621.66,376.054C2606.73,376.854 2596.06,383.12 2589.66,394.854C2589.66,394.854 2589.66,399.387 2589.66,408.454C2589.4,414.054 2590.46,418.454 2592.86,421.654C2600.06,428.054 2617.26,437.254 2644.46,449.254C2666.33,459.12 2681.26,471.254 2689.26,485.654Z" style="fill-rule:nonzero;"/>
        <path d="M2887.26,506.854C2864.6,538.854 2835.4,554.854 2799.66,554.854C2793.53,554.854 2787.4,554.32 2781.26,553.254C2764.73,550.32 2749.53,542.987 2735.66,531.254C2720.73,518.72 2711.4,504.454 2707.66,488.454C2705.26,478.854 2704.06,469.254 2704.06,459.654C2704.06,432.187 2712.86,410.054 2730.46,393.254C2751.8,372.72 2776.33,362.454 2804.06,362.454C2814.46,362.454 2824.73,364.054 2834.86,367.254C2848.46,371.787 2864.6,383.12 2883.26,401.254C2894.46,415.654 2900.06,433.787 2900.06,455.654C2900.06,474.32 2895.8,491.387 2887.26,506.854ZM2864.46,488.454C2867.93,480.72 2869.66,472.054 2869.66,462.454C2869.66,444.854 2865,428.72 2855.66,414.054C2842.6,388.454 2818.06,376.987 2782.06,379.654C2772.2,382.854 2763.13,388.787 2754.86,397.454C2746.6,406.12 2741,415.387 2738.06,425.254C2738.06,426.054 2737.53,431.92 2736.46,442.854C2735.66,449.254 2736.2,454.72 2738.06,459.254C2740.2,469.12 2744.2,483.52 2750.06,502.454C2753.53,506.72 2757.26,511.054 2761.26,515.454C2765.26,519.854 2769.8,521.92 2774.86,521.654C2781.53,529.12 2791.4,532.854 2804.46,532.854C2807.4,532.854 2811.53,532.654 2816.86,532.254C2822.2,531.854 2826.2,531.654 2828.86,531.654L2851.26,517.254C2851.53,514.054 2853.86,509.92 2858.26,504.854C2862.66,499.787 2864.86,495.52 2864.86,492.054C2864.86,490.72 2864.73,489.52 2864.46,488.454Z" style="fill-rule:nonzero;"/>
        <path d="M3113.66,368.454C3115,370.32 3115.13,372.32 3114.06,374.454C3113.26,376.587 3111.8,377.654 3109.66,377.654C3100.6,377.92 3095.4,380.587 3094.06,385.654C3093.8,392.587 3092.86,410.587 3091.26,439.654C3090.2,461.254 3089.66,478.854 3089.66,492.454C3089.66,510.32 3090.46,526.854 3092.06,542.054C3091.8,544.187 3091.46,546.32 3091.06,548.454C3090.66,550.587 3089.4,551.654 3087.26,551.654L3080.46,550.854C3072.2,533.52 3056.73,514.454 3034.06,493.654C3003.66,465.92 2985.26,448.32 2978.86,440.854C2974.6,435.787 2967.93,429.387 2958.86,421.654C2948.46,412.587 2941.66,406.32 2938.46,402.854L2935.66,406.054L2936.46,524.054C2937.26,530.454 2941,534.454 2947.66,536.054C2951.66,536.587 2955.8,537.254 2960.06,538.054C2964.33,538.854 2967.13,540.854 2968.46,544.054C2968.2,545.387 2967.8,546.787 2967.26,548.254C2966.73,549.72 2965.66,550.587 2964.06,550.854L2900.06,550.854C2897.93,542.054 2899.8,537.654 2905.66,537.654C2911,538.987 2914.73,537.387 2916.86,532.854C2916.86,524.854 2917.66,509.12 2919.26,485.654C2920.6,465.92 2921.26,450.187 2921.26,438.454C2921.26,420.054 2919.93,403.52 2917.26,388.854C2917,386.454 2914.4,383.654 2909.46,380.454C2904.53,377.254 2902.06,374.72 2902.06,372.854C2902.06,370.987 2903.4,368.854 2906.06,366.454C2923.4,366.987 2933,367.387 2934.86,367.654C2945.26,369.52 2952.46,374.72 2956.46,383.254C2971.4,399.254 3010.06,436.72 3072.46,495.654L3074.86,492.854C3076.46,480.054 3077,462.987 3076.46,441.654C3075.66,416.32 3075.53,399.387 3076.06,390.854C3075.26,385.787 3072.33,382.387 3067.26,380.654C3062.2,378.92 3057.26,377.387 3052.46,376.054C3052.46,376.054 3052.06,373.787 3051.26,369.254L3056.86,366.454C3062.46,367.52 3071.93,367.654 3085.26,366.854C3097.53,366.32 3107,366.854 3113.66,368.454Z" style="fill-rule:nonzero;"/>
    </g>
    <g transform="matrix(0.235294,0,0,0.4,109.773,-642.52)">
        <ellipse cx="537.402" cy="2196.85" rx="100.394" ry="59.055" style="fill:none;stroke:rgb(0,0,255);stroke-width:12.7px;"/>
    </g>
    <g transform="matrix(0.235294,0,0,0.4,3889.3,-642.52)">
        <ellipse cx="537.402" cy="2196.85" rx="100.394" ry="59.055" style="fill:none;stroke:rgb(0,0,255);stroke-width:12.7px;"/>
    </g>
</svg>
