<?xml version="1.0" encoding="UTF-8" standalone="no"?>
<!DOCTYPE svg PUBLIC "-//W3C//DTD SVG 1.1//EN" "http://www.w3.org/Graphics/SVG/1.1/DTD/svg11.dtd">
<svg width="100%" height="100%" viewBox="0 0 6000 3600" version="1.1" xmlns="http://www.w3.org/2000/svg" xmlns:xlink="http://www.w3.org/1999/xlink" xml:space="preserve" xmlns:serif="http://www.serif.com/" style="fill-rule:evenodd;clip-rule:evenodd;stroke-linejoin:round;stroke-miterlimit:2;">
    <g transform="matrix(10.0009,0,0,10.0009,-10175.4,-5191.36)">
        <path d="M1029.26,720C1032.02,716.53 1032.33,712.518 1033.16,701.677C1034.49,680.495 1029.19,693.734 1074.2,595.768C1080.82,581.205 1080.82,579.881 1083.47,560.023C1084.79,549.432 1086.12,537.518 1086.12,534.87L1086.12,530.898L1088.77,530.898L1095.38,558.699C1102,583.853 1104.65,591.796 1119.21,628.864C1128.48,651.37 1135.1,669.904 1136.42,669.904L1137.75,669.904C1137.75,668.58 1140.4,656.666 1143.04,642.103L1148.34,615.626L1149.66,615.626C1149.66,615.626 1153.63,623.569 1156.28,632.836C1160.25,642.103 1164.23,654.018 1166.87,657.99L1169.52,667.257L1170.85,667.257C1170.85,667.257 1173.49,663.285 1176.14,659.313L1180.11,651.37L1181.44,651.37C1182.76,651.37 1185.41,656.666 1189.38,663.285C1194.67,673.876 1194.67,673.876 1193.35,687.115C1193.35,699.029 1193.35,700.353 1197.32,709.62C1199.48,713.935 1200.46,716.688 1200.91,720L1178.79,720L1178.79,710.944L1173.49,710.944L1172.17,713.592L1172.17,720L1029.26,720ZM1209.24,720C1209.26,700.32 1209.55,699.935 1213.21,695.058C1215.86,691.086 1217.18,688.438 1218.5,688.438C1218.5,688.438 1222.48,691.086 1225.12,695.058C1231.28,702.44 1231.71,702.961 1231.74,720L1209.24,720Z" style="fill:rgb(2,2,5);fill-rule:nonzero;"/>
    </g>
</svg>
