<?xml version="1.0" encoding="UTF-8" standalone="no"?>
<!DOCTYPE svg PUBLIC "-//W3C//DTD SVG 1.1//EN" "http://www.w3.org/Graphics/SVG/1.1/DTD/svg11.dtd">
<svg width="100%" height="100%" viewBox="0 0 6000 3600" version="1.1" xmlns="http://www.w3.org/2000/svg" xmlns:xlink="http://www.w3.org/1999/xlink" xml:space="preserve" xmlns:serif="http://www.serif.com/" style="fill-rule:evenodd;clip-rule:evenodd;stroke-linejoin:round;stroke-miterlimit:2;">
    <g transform="matrix(10,0,0,10,-4081.89,-9481.89)">
        <path d="M840,960L840,1200L420,1200L420,960L840,960ZM828.742,1127.96L824.77,1127.96L823.446,1130.61L823.446,1137.23L824.77,1138.55L826.094,1138.55L828.742,1137.23L828.742,1127.96ZM638.105,1056.47C638.105,1056.47 638.105,1053.83 636.781,1053.83L635.457,1052.5L634.133,1053.83C632.809,1053.83 632.809,1056.47 632.809,1056.47L634.133,1059.12L636.781,1059.12L638.105,1056.47ZM561.32,1031.32C561.32,1030 561.32,1028.67 559.996,1028.67L558.672,1027.35L557.349,1028.67L556.025,1031.32L556.025,1032.64C557.349,1033.97 558.672,1033.97 559.996,1033.97L561.32,1033.97L561.32,1031.32ZM514.985,984.985C514.985,984.985 514.985,982.337 513.661,982.337L512.337,981.013L511.013,982.337C509.689,982.337 509.689,984.985 509.689,984.985L511.013,987.633L513.661,987.633L514.985,984.985ZM781.082,978.366C781.082,978.366 781.082,975.718 779.758,975.718L778.435,974.394L777.111,975.718C775.787,975.718 775.787,978.366 775.787,978.366L777.111,981.013L779.758,981.013L781.082,978.366Z" style="fill:rgb(2,2,5);fill-rule:nonzero;"/>
    </g>
</svg>
