<?xml version="1.0" encoding="UTF-8" standalone="no"?>
<!DOCTYPE svg PUBLIC "-//W3C//DTD SVG 1.1//EN" "http://www.w3.org/Graphics/SVG/1.1/DTD/svg11.dtd">
<svg width="100%" height="100%" viewBox="0 0 6000 3600" version="1.1" xmlns="http://www.w3.org/2000/svg" xmlns:xlink="http://www.w3.org/1999/xlink" xml:space="preserve" xmlns:serif="http://www.serif.com/" style="fill-rule:evenodd;clip-rule:evenodd;stroke-linejoin:round;stroke-miterlimit:2;">
    <g transform="matrix(10,0,0,10,-8281.89,-7081.89)">
        <path d="M1231.74,720C1231.74,721.295 1231.74,722.686 1231.74,724.183C1233.07,745.365 1233.07,745.365 1239.69,749.336C1241.14,750.425 1249.12,753.255 1260,755.593L1260,960L840,960L840,870.422L857.333,874.323C859.276,874.323 900.607,880.954 940.998,878.879C983.162,876.712 1002.26,863.617 1018.94,861.223C1026.33,860.162 1041.11,864.513 1041.11,864.513L1041.11,842.007C1041.11,820.825 1041.11,820.825 1038.46,818.178C1034.49,816.854 1034.49,816.854 1034.49,790.376C1034.49,770.518 1034.49,763.899 1033.16,762.575C1031.84,762.575 1026.54,759.927 1021.25,757.28C1011.98,753.308 1011.98,753.308 1010.66,744.041C1010.66,734.774 1010.66,734.774 1021.25,726.831C1025.17,723.891 1027.64,722.039 1029.26,720L1172.17,720L1172.17,720.211L1173.49,721.535L1176.14,721.535L1178.79,720.211L1178.79,720L1200.91,720C1201.29,722.784 1201.29,725.965 1201.29,730.802C1201.29,740.069 1201.29,742.717 1203.94,745.365C1205.27,748.013 1207.91,749.336 1207.91,749.336L1209.24,749.336L1209.24,725.507C1209.24,723.519 1209.24,721.688 1209.24,720L1231.74,720ZM1160.25,909.524L1153.63,909.524L1152.31,913.496L1152.31,920.115L1153.63,921.439L1160.25,921.439L1160.25,909.524ZM1095.38,890.99L1088.77,890.99L1087.44,893.638L1087.44,900.257L1088.77,901.581L1095.38,901.581L1095.38,890.99ZM1063.61,852.598L1056.99,852.598L1055.67,855.246L1055.67,861.865L1056.99,863.189L1063.61,863.189L1063.61,852.598ZM1160.25,831.416L1153.63,831.416L1152.31,835.388L1152.31,842.007L1153.63,843.331L1160.25,843.331L1160.25,831.416ZM1064.93,808.91L1058.32,808.91L1056.99,811.558L1056.99,818.178L1058.32,819.501L1064.93,819.501L1064.93,808.91ZM1095.38,803.615L1088.77,803.615L1087.44,806.263C1087.44,811.558 1090.09,814.206 1092.74,814.206L1095.38,812.882L1095.38,803.615ZM1064.93,762.575L1058.32,762.575L1056.99,766.547L1056.99,773.166L1058.32,774.49L1064.93,774.49L1064.93,762.575ZM1178.79,738.745L1173.49,738.745L1172.17,741.393L1172.17,748.013L1173.49,749.336L1176.14,749.336L1178.79,748.013L1178.79,738.745Z" style="fill:rgb(2,2,5);fill-rule:nonzero;"/>
    </g>
</svg>
