<?xml version="1.0" encoding="UTF-8" standalone="no"?>
<!DOCTYPE svg PUBLIC "-//W3C//DTD SVG 1.1//EN" "http://www.w3.org/Graphics/SVG/1.1/DTD/svg11.dtd">
<svg width="100%" height="100%" viewBox="0 0 6000 3600" version="1.1" xmlns="http://www.w3.org/2000/svg" xmlns:xlink="http://www.w3.org/1999/xlink" xml:space="preserve" xmlns:serif="http://www.serif.com/" style="fill-rule:evenodd;clip-rule:evenodd;stroke-linejoin:round;stroke-miterlimit:2;">
    <g transform="matrix(10,0,0,10,-4081.89,-4681.89)">
        <path d="M611.207,480C616.512,496.535 617.449,500.721 616.923,501.773C615.599,501.773 612.951,504.421 611.627,505.745C607.656,507.069 607.656,507.069 607.656,522.955C608.276,526.678 608.897,531.856 609.517,537.125L609.765,539.234C610.386,544.503 611.007,549.681 611.627,553.404C612.951,567.966 612.951,567.966 610.303,571.938C603.684,583.853 603.684,579.881 608.979,626.217C611.627,648.722 614.275,668.58 614.275,669.904C616.923,671.228 635.457,675.2 636.781,673.876C636.781,672.552 638.105,667.257 640.752,660.637C642.076,654.018 643.4,648.722 643.4,647.399L644.724,647.399L646.048,648.722C646.048,648.722 652.667,661.961 659.286,677.848C667.23,693.734 672.525,706.973 673.849,706.973C673.849,708.297 687.088,709.62 702.974,709.62C722.832,710.944 730.775,712.268 732.099,710.944C732.099,709.62 747.986,644.751 761.224,590.472L761.224,587.824L762.548,587.824C763.872,589.148 767.844,597.092 779.758,630.188C785.054,642.103 790.349,655.342 791.673,657.99L794.321,664.609L796.969,664.609L798.293,650.046C799.616,642.103 800.94,636.808 802.264,635.484L803.588,635.484L806.236,654.018C810.207,668.58 810.207,675.2 810.207,689.762C810.207,706.973 805.838,706.973 817.753,718.887L818.643,720L420,720L420,480L611.207,480ZM526.9,650.046L520.28,650.046L518.956,652.694L518.956,657.99L520.28,659.313L526.9,659.313L526.9,650.046ZM454.087,650.046L450.115,650.046L448.791,651.37L448.791,656.666L450.115,657.99L451.439,657.99C451.439,657.99 452.763,656.666 454.087,656.666C455.411,655.342 455.411,652.694 455.411,651.37L454.087,650.046ZM557.349,615.626L552.053,615.626L550.729,618.273L550.729,623.569L552.053,624.893L554.701,624.893L557.349,623.569L557.349,615.626ZM526.9,607.683L520.28,607.683L518.956,610.33L518.956,615.626L520.28,616.95L526.9,616.95L526.9,607.683ZM455.411,603.711L450.115,603.711L448.791,606.359L448.791,611.654L450.115,612.978L452.763,612.978L455.411,611.654L455.411,603.711ZM489.831,603.711L485.86,603.711L485.86,611.654L489.831,611.654L489.831,603.711ZM529.547,579.881L525.576,579.881L524.252,582.529L524.252,587.824L525.576,589.148L526.9,589.148L529.547,587.824L529.547,579.881ZM455.411,573.262L450.115,573.262L448.791,575.91L448.791,581.205L450.115,582.529L452.763,582.529L455.411,581.205L455.411,573.262ZM561.32,557.376L556.025,557.376L554.701,560.023C554.701,563.995 556.025,566.643 559.996,565.319L561.32,565.319L561.32,557.376ZM529.547,545.461L524.252,545.461L524.252,549.432C524.252,552.08 524.252,554.728 525.576,556.052L525.576,557.376L526.9,557.376L529.547,556.052L529.547,545.461ZM455.411,545.461L450.115,545.461L448.791,550.756L448.791,556.052L455.411,556.052L455.411,545.461ZM492.479,545.461L487.184,545.461L485.86,546.785C485.86,548.108 485.86,550.756 487.184,552.08L488.507,553.404L489.831,553.404L492.479,552.08L492.479,545.461ZM529.547,518.983L526.9,518.983C524.251,518.984 522.928,520.308 524.252,524.279L525.576,526.927L528.223,525.603C528.223,524.982 528.514,524.362 528.823,523.741L528.947,523.493C529.256,522.872 529.547,522.252 529.547,521.631L529.547,518.983Z" style="fill:rgb(2,2,5);fill-rule:nonzero;"/>
    </g>
</svg>
