<?xml version="1.0" encoding="UTF-8" standalone="no"?>
<!DOCTYPE svg PUBLIC "-//W3C//DTD SVG 1.1//EN" "http://www.w3.org/Graphics/SVG/1.1/DTD/svg11.dtd">
<svg width="100%" height="100%" viewBox="0 0 6000 3600" version="1.1" xmlns="http://www.w3.org/2000/svg" xmlns:xlink="http://www.w3.org/1999/xlink" xml:space="preserve" xmlns:serif="http://www.serif.com/" style="fill-rule:evenodd;clip-rule:evenodd;stroke-linejoin:round;stroke-miterlimit:2;">
    <g transform="matrix(10,0,0,10,55.6369,-7081.89)">
        <path d="M420,960L41.992,960C42.913,949.755 43.688,939.474 43.688,937.326C43.688,932.03 43.688,930.706 21.182,912.172C0,892.314 7.611,896.829 7.611,880.942C7.611,869.027 5.338,860.541 6.662,859.217C7.985,857.894 10.591,857.894 27.801,857.894L51.631,859.217L52.955,844.655C54.196,833.485 55.728,818.533 57.278,803.345L57.898,797.266C59.449,782.078 60.981,767.126 62.222,755.956C63.304,742.345 64.243,730.433 65.064,720L420,720L420,960ZM336.263,888.343L332.291,888.343L330.967,892.314C330.967,893.638 330.967,896.286 332.291,897.61L332.291,898.934L333.615,898.934L336.263,897.61L336.263,888.343ZM390.541,893.638L389.217,892.314L387.893,893.638C386.57,893.638 386.57,896.286 386.57,897.61L387.893,898.934L389.217,897.61C390.541,897.61 390.541,894.962 390.541,893.638ZM329.643,847.303L326.995,847.303L325.672,851.274L325.672,857.894L326.995,859.217L328.319,857.894C329.643,857.894 329.643,855.246 329.643,851.274L329.643,847.303ZM383.922,845.979L382.598,845.979L381.274,847.303L381.274,852.598L382.598,853.922L383.922,853.922C385.246,852.598 385.246,851.274 385.246,849.95C385.246,848.627 385.246,847.304 383.922,845.979ZM84.728,845.979L80.756,845.979L79.432,847.303L79.432,849.95L82.08,849.95L84.728,848.627L84.728,845.979ZM137.682,844.655L137.682,845.979C139.006,847.303 140.33,847.303 140.33,847.303C140.33,847.303 141.654,847.303 142.978,845.979L142.978,844.655L140.33,842.007L137.682,844.655ZM191.961,840.683L191.961,842.007C193.285,843.331 194.609,843.331 194.609,843.331C194.609,843.331 195.933,843.331 197.256,842.007L197.256,840.683L194.609,838.036L191.961,840.683ZM256.83,839.359C256.83,839.359 256.83,836.712 255.507,836.712L254.183,835.388L252.859,836.712L251.535,839.359L251.535,840.683C252.859,842.007 254.183,842.007 254.183,842.007L255.507,842.007L256.83,839.359ZM126.429,811.558L115.849,811.981L116.01,830.566L127.091,829.882L126.429,811.558ZM95.431,811.558L84.851,811.981L85.013,830.566L96.094,829.882L95.431,811.558ZM157.529,809.761L146.949,810.184L147.111,828.769L158.192,828.084L157.529,809.761ZM192.622,808.674L182.042,809.097L182.204,827.681L193.285,826.997L192.622,808.674ZM231.666,806.263L221.086,806.686L221.248,825.27L232.329,824.586L231.666,806.263ZM270.72,803.378L260.14,803.801L260.302,822.386L271.383,821.702L270.72,803.378ZM307.126,800.731L296.546,801.154L296.708,819.738L307.789,819.054L307.126,800.731ZM91.347,734.317C90.629,733.209 88.309,733.204 87.392,734.153C83.939,737.723 84.106,749.836 83.449,757.801C82.784,765.847 83.404,782.433 83.404,782.433L93.94,781.949C93.94,781.949 94.38,767.035 93.975,759.594C93.543,751.656 94.23,738.765 91.347,734.317ZM124.292,733.648C123.574,732.541 121.254,732.536 120.337,733.485C116.884,737.055 117.051,749.168 116.393,757.132C115.729,765.179 116.348,781.765 116.348,781.765L126.885,781.28C126.885,781.28 127.325,766.367 126.92,758.926C126.488,750.988 127.175,738.097 124.292,733.648ZM155.733,730.345C155.016,729.238 152.696,729.233 151.778,730.181C148.326,733.752 148.493,745.865 147.835,753.829C147.17,761.876 147.79,778.462 147.79,778.462L158.327,777.977C158.327,777.977 158.767,763.063 158.362,755.623C157.93,747.684 158.617,734.793 155.733,730.345ZM190.485,727.029C189.767,725.922 187.447,725.917 186.53,726.865C183.077,730.436 183.245,742.549 182.587,750.513C181.922,758.56 182.542,775.146 182.542,775.146L193.078,774.661C193.078,774.661 193.518,759.747 193.113,752.307C192.681,744.368 193.368,731.477 190.485,727.029ZM229.292,725.05C228.574,723.942 226.254,723.937 225.337,724.886C221.884,728.456 222.051,740.569 221.394,748.534C220.729,756.58 221.349,773.166 221.349,773.166L231.885,772.682C231.885,772.682 232.325,757.768 231.92,750.327C231.488,742.389 232.175,729.498 229.292,725.05ZM267.269,722.389C266.552,721.282 264.232,721.277 263.314,722.225C259.862,725.796 260.029,737.909 259.371,745.873C258.706,753.92 259.326,770.506 259.326,770.506L269.863,770.021C269.863,770.021 270.303,755.107 269.898,747.667C269.465,739.728 270.153,726.837 267.269,722.389ZM303.014,722.389C302.296,721.282 299.976,721.277 299.059,722.225C295.606,725.796 295.773,737.909 295.115,745.873C294.451,753.92 295.071,770.506 295.071,770.506L305.607,770.021C305.607,770.021 306.047,755.107 305.642,747.667C305.21,739.728 305.897,726.837 303.014,722.389Z" style="fill:rgb(2,2,5);fill-rule:nonzero;"/>
    </g>
</svg>
