<?xml version="1.0" encoding="UTF-8" standalone="no"?>
<!DOCTYPE svg PUBLIC "-//W3C//DTD SVG 1.1//EN" "http://www.w3.org/Graphics/SVG/1.1/DTD/svg11.dtd">
<svg width="100%" height="100%" viewBox="0 0 6000 3600" version="1.1" xmlns="http://www.w3.org/2000/svg" xmlns:xlink="http://www.w3.org/1999/xlink" xml:space="preserve" xmlns:serif="http://www.serif.com/" style="fill-rule:evenodd;clip-rule:evenodd;stroke-linejoin:round;stroke-miterlimit:2;">
    <g transform="matrix(10,0,0,10,-8281.89,-9481.89)">
        <path d="M1260,960L1260,1200L840,1200L840,960L1260,960ZM1016.73,1113.4C1016.73,1063.09 1015.41,1057.8 1014.08,1055.15C1011.44,1049.86 1008.79,1049.86 1006.14,1053.83C1003.49,1056.47 1003.49,1064.42 1003.49,1112.08C1003.49,1142.53 1003.49,1167.68 1004.82,1167.68C1004.82,1169 1007.46,1169 1010.11,1169L1016.73,1169L1016.73,1113.4ZM983.634,1106.78C983.634,1056.47 982.31,1051.18 980.986,1048.53C978.339,1043.24 975.691,1043.24 971.719,1047.21C969.072,1049.86 969.072,1049.86 969.072,1105.46C969.072,1135.91 969.072,1161.06 970.395,1161.06C970.395,1162.38 973.043,1162.38 977.015,1162.38L983.634,1162.38L983.634,1106.78ZM947.89,1105.46C947.89,1051.18 947.89,1044.56 943.918,1040.59L941.27,1037.94L938.623,1040.59C934.651,1043.24 934.651,1043.24 934.651,1098.84C934.651,1129.29 934.651,1154.44 935.975,1154.44C935.975,1155.76 938.623,1155.76 941.27,1155.76L947.89,1155.76L947.89,1105.46ZM913.469,1094.87C913.469,1048.53 912.145,1039.26 910.821,1036.62C908.174,1031.32 906.85,1030 902.878,1033.97C898.907,1037.94 898.907,1037.94 898.907,1092.22C898.907,1122.67 898.907,1147.82 900.23,1147.82C900.23,1149.14 902.878,1149.14 906.85,1149.14L913.469,1149.14L913.469,1094.87ZM873.753,1026.03L871.105,1026.03C869.78,1026.03 868.457,1027.35 867.134,1028.67C864.486,1030 864.486,1033.97 864.486,1085.6C864.486,1117.37 864.486,1142.53 865.81,1142.53C865.81,1143.85 868.458,1143.85 871.105,1143.85L877.725,1143.85L877.725,1089.57C877.725,1044.56 877.725,1033.97 876.401,1030L873.753,1026.03ZM1036.59,1023.38L1033.94,1023.38L1032.62,1026.03L1032.62,1027.35L1033.94,1027.35L1036.59,1026.03L1036.59,1023.38ZM980.986,1019.41L980.986,1014.11L979.663,1012.79L977.015,1014.11C975.691,1015.43 975.691,1018.08 975.691,1018.08L977.015,1020.73L979.663,1020.73L980.986,1019.41ZM914.793,1000.87L912.145,999.548L910.821,1000.87L910.821,1006.17L912.145,1007.49L914.793,1006.17L916.117,1003.52L914.793,1000.87ZM844.628,986.309L843.304,986.309L841.98,987.633L841.98,992.928L843.304,994.252L844.628,994.252L847.276,992.928L847.276,987.633L844.628,986.309Z" style="fill:rgb(2,2,5);fill-rule:nonzero;"/>
    </g>
</svg>
