<?xml version="1.0" encoding="UTF-8" standalone="no"?>
<!DOCTYPE svg PUBLIC "-//W3C//DTD SVG 1.1//EN" "http://www.w3.org/Graphics/SVG/1.1/DTD/svg11.dtd">
<svg width="100%" height="100%" viewBox="0 0 6000 3600" version="1.1" xmlns="http://www.w3.org/2000/svg" xmlns:xlink="http://www.w3.org/1999/xlink" xml:space="preserve" xmlns:serif="http://www.serif.com/" style="fill-rule:evenodd;clip-rule:evenodd;stroke-linejoin:round;stroke-miterlimit:2;">
    <g transform="matrix(10,0,0,10,-12481.9,-7081.89)">
        <path d="M1614.83,720C1615.29,723.747 1615.76,726.601 1616.22,727.992L1616.22,735.935L1618.87,735.935C1620.14,735.935 1647.06,729.15 1680,725.155L1680,960L1260,960L1260,755.593C1268.82,757.489 1279.56,759.061 1290.28,759.12C1314.59,759.254 1338.83,751.822 1343.5,751.822L1352.77,751.822L1352.77,743.878C1352.77,738.583 1352.77,737.259 1348.8,734.611C1344.83,731.964 1344.83,731.964 1344.83,722.696C1344.98,721.768 1345.14,720.875 1345.3,720L1434.55,720C1434.86,720.304 1435.94,720.262 1437.45,720L1614.83,720ZM1426.91,868.322L1422.93,868.322L1421.61,872.294C1421.61,876.265 1421.61,930.544 1422.93,931.868L1422.93,933.192L1425.58,933.192L1428.23,931.868L1428.23,905.39C1428.23,890.828 1428.23,877.589 1426.91,873.617L1426.91,868.322ZM1449.41,861.703L1448.09,861.703L1446.76,863.026C1445.44,864.35 1444.12,872.294 1444.12,894.799L1444.12,926.572L1445.44,927.896L1448.09,927.896L1450.74,926.572L1450.74,894.799C1450.74,877.596 1449.41,863.039 1449.41,861.703ZM1616.22,860.379L1609.6,860.379L1608.28,863.026L1608.28,869.646L1609.6,870.97L1616.22,870.97L1616.22,860.379ZM1360.71,855.083L1363.36,855.083L1363.36,833.901C1363.36,816.691 1363.36,811.396 1362.04,808.748L1359.39,807.424L1358.07,808.748C1356.74,810.072 1355.42,816.691 1355.42,831.254L1355.42,855.083L1356.74,856.407L1358.07,856.407C1358.07,856.407 1360.71,856.407 1360.71,855.083ZM1376.6,804.776L1372.63,804.776L1371.3,808.748C1369.98,811.396 1369.98,849.788 1371.3,851.112C1371.3,852.436 1372.63,852.436 1373.95,852.436L1377.92,852.436L1377.92,807.424L1376.6,804.776ZM1494.42,836.549C1494.42,833.901 1494.42,831.254 1493.1,829.93L1490.45,828.606L1489.13,829.93C1486.48,831.254 1485.16,840.521 1487.8,841.845C1487.8,843.168 1489.13,843.168 1490.45,843.168L1494.42,843.168L1494.42,836.549ZM1523.55,821.987L1522.22,821.987L1519.58,824.634C1518.25,825.958 1516.93,840.521 1519.58,841.845C1519.58,843.168 1520.9,843.168 1522.22,843.168L1524.87,843.168L1526.2,837.873C1527.52,829.931 1526.2,823.313 1523.55,821.987ZM1424.26,815.367C1424.26,798.157 1422.93,792.861 1421.61,791.538L1420.29,790.214L1417.64,791.538C1416.32,794.185 1416.32,799.481 1416.32,816.691C1416.32,827.282 1416.32,837.873 1417.64,837.873C1417.64,839.197 1418.96,839.197 1420.29,839.197L1424.26,839.197L1424.26,815.367ZM1446.76,808.748C1446.76,790.214 1446.76,786.242 1444.12,784.918L1442.79,783.594L1440.14,784.918C1438.82,787.566 1438.82,792.861 1438.82,808.748C1438.82,820.663 1438.82,829.93 1440.14,829.93C1440.14,831.254 1441.47,831.254 1442.79,831.254L1446.76,831.254L1446.76,808.748ZM1605.63,771.68L1602.98,771.68L1602.98,782.271C1602.98,787.566 1602.98,792.861 1604.3,792.861L1604.3,794.185L1605.63,794.185L1608.28,792.861L1608.28,773.003L1605.63,771.68ZM1542.08,761.089C1542.08,755.793 1542.08,750.498 1540.76,750.498L1539.43,749.174L1538.11,750.498C1535.46,751.822 1535.46,754.469 1535.46,759.765C1535.46,769.032 1535.46,770.356 1539.43,770.356L1543.41,770.356L1542.08,761.089ZM1485.16,753.145L1482.51,753.145L1482.51,758.441C1482.51,765.06 1483.83,766.384 1486.48,766.384L1489.13,765.06L1489.13,754.469L1485.16,753.145ZM1389.48,722.035C1388.5,722.045 1387.85,722.707 1387.19,724.02C1386.57,724.641 1385.95,725.552 1385.33,726.482L1385.08,726.854C1384.46,727.784 1383.84,728.695 1383.22,729.316L1380.57,731.964L1384.54,734.611C1387.19,735.935 1389.84,737.259 1391.16,737.259L1392.49,737.259L1392.49,734.611C1392.49,733.287 1393.81,730.64 1395.13,729.316L1396.46,726.668L1393.81,724.02C1391.82,722.696 1390.5,722.035 1389.51,722.035L1389.48,722.035Z" style="fill:rgb(2,2,5);fill-rule:nonzero;"/>
    </g>
</svg>
