<?xml version="1.0" encoding="UTF-8" standalone="no"?>
<!DOCTYPE svg PUBLIC "-//W3C//DTD SVG 1.1//EN" "http://www.w3.org/Graphics/SVG/1.1/DTD/svg11.dtd">
<svg width="100%" height="100%" viewBox="0 0 6000 3600" version="1.1" xmlns="http://www.w3.org/2000/svg" xmlns:xlink="http://www.w3.org/1999/xlink" xml:space="preserve" xmlns:serif="http://www.serif.com/" style="fill-rule:evenodd;clip-rule:evenodd;stroke-linejoin:round;stroke-miterlimit:2;">
    <g transform="matrix(10,0,0,10,-16681.9,-7081.89)">
        <path d="M1870.29,720L1870.29,720.049C1870.29,727.992 1870.48,734.177 1873.13,735.501C1879.75,739.473 1890.71,722.155 1890.71,722.155L1898.11,732.709C1908.7,747.271 1902.07,729.316 1906.04,783.594C1908.69,819.339 1910.01,833.901 1911.33,835.225C1912.66,835.225 1919.28,837.873 1925.9,839.197L1939.13,843.168L1940.46,863.026C1941.78,880.237 1941.78,885.532 1943.11,886.856C1944.43,886.856 1951.05,888.18 1958.99,889.504C1965.61,889.504 1976.2,890.828 1981.5,892.152C1992.09,893.475 1992.09,893.475 1997.38,901.419C2002.68,908.038 2002.68,908.038 2002.68,922.601L2002.68,935.839L2010.62,935.839C2015.92,934.515 2026.51,933.192 2035.78,933.192C2045,931.773 2072.64,946.146 2097.74,960L1680,960L1680,725.155C1686.51,724.366 1693.25,723.685 1700.08,723.188C1730.44,720.976 1764.18,726.058 1777.62,722.696C1782.92,721.373 1789.54,720.049 1794.83,720.049L1802.78,721.373L1802.97,720L1870.29,720ZM1798.81,882.885L1794.83,882.885L1794.83,901.419C1794.83,912.01 1796.16,921.277 1796.16,922.601L1797.48,923.924L1798.81,923.924L1801.45,922.601L1800.13,906.714L1800.13,886.856L1798.81,882.885ZM1826.61,904.066L1819.99,904.066L1818.66,910.686L1818.66,921.277L1819.99,922.601L1826.61,922.601L1826.61,904.066ZM1784.24,902.743C1784.24,890.828 1784.24,882.885 1782.92,882.885L1781.6,881.561L1780.27,882.885C1777.62,884.208 1776.3,913.333 1778.95,918.629L1780.27,922.601L1781.6,922.601L1784.24,921.277L1784.24,902.743ZM1850.44,840.521C1853.08,837.873 1851.76,811.396 1850.44,806.1C1846.46,795.509 1837.2,794.185 1829.25,802.129C1825.28,806.1 1825.28,806.1 1825.28,816.691C1826.61,821.987 1826.61,828.606 1826.61,832.578L1826.61,839.197L1829.25,840.521C1834.55,841.845 1847.79,841.845 1850.44,840.521Z" style="fill:rgb(2,2,5);fill-rule:nonzero;"/>
    </g>
</svg>
