<?xml version="1.0" encoding="UTF-8" standalone="no"?>
<!DOCTYPE svg PUBLIC "-//W3C//DTD SVG 1.1//EN" "http://www.w3.org/Graphics/SVG/1.1/DTD/svg11.dtd">
<svg width="100%" height="100%" viewBox="0 0 6000 3600" version="1.1" xmlns="http://www.w3.org/2000/svg" xmlns:xlink="http://www.w3.org/1999/xlink" xml:space="preserve" xmlns:serif="http://www.serif.com/" style="fill-rule:evenodd;clip-rule:evenodd;stroke-linejoin:round;stroke-miterlimit:2;">
    <g transform="matrix(10,0,0,10,-4081.89,-7081.89)">
        <path d="M818.643,720C828.344,732.151 828.344,733.003 828.344,762.575C828.344,794.348 828.344,794.348 834.964,795.672L838.935,796.996L838.935,802.291C838.935,810.234 838.935,811.558 832.316,812.882C825.696,814.206 830.065,816.854 830.065,844.655L831.389,868.485L840,870.422L840,960L420,960L420,720L818.643,720ZM660.61,951.888L659.286,951.888L657.963,953.212L657.963,958.508L659.286,959.831L660.61,959.831L663.258,958.508L663.258,953.212L660.61,951.888ZM693.707,955.86L693.707,957.184C695.031,958.508 696.355,958.508 696.355,958.508C696.355,958.508 697.679,958.508 699.002,957.184L699.002,955.86L696.355,953.212L693.707,955.86ZM639.428,937.326C639.428,937.326 639.428,934.678 638.105,934.678L636.781,933.354L635.457,934.678C634.133,934.678 634.133,937.326 634.133,937.326L635.457,939.973L638.105,939.973L639.428,937.326ZM469.973,926.735L466.002,926.735L466.002,928.059C466.002,929.383 466.002,930.706 467.325,930.706L467.325,932.03L468.649,930.706C469.973,930.706 469.973,929.383 469.973,928.059L469.973,926.735ZM720.184,910.848C725.48,906.877 725.48,906.877 725.48,896.286C726.804,879.076 724.156,871.132 714.889,865.837C710.917,864.513 710.917,864.513 706.946,865.837C704.298,867.161 701.65,871.132 699.002,873.78C696.355,877.752 696.355,877.752 695.031,902.905L695.031,929.383L696.355,930.706L705.622,922.763C709.593,918.792 716.213,913.496 720.184,910.848ZM525.576,925.411L526.9,922.763L526.9,921.439C524.252,917.468 518.956,921.439 520.28,925.411L521.604,926.735L522.928,926.735C522.928,926.735 524.252,925.411 525.576,925.411ZM611.627,921.439C611.627,921.439 611.627,918.792 610.303,918.792L608.979,917.468L607.656,918.792C606.332,918.792 606.332,921.439 606.332,921.439L607.656,924.087L610.303,924.087L611.627,921.439ZM585.15,912.172L583.826,912.172C581.178,912.173 579.855,914.82 581.178,916.144L581.178,917.468L582.502,917.468C583.826,917.468 585.15,916.144 585.15,914.82L585.15,912.172ZM835.361,885.695L828.742,885.695L827.418,888.343L827.418,894.962L828.742,896.286L835.361,896.286L835.361,885.695ZM567.939,843.331C567.939,843.331 568.338,834.083 567.242,831.474C566.339,829.324 563.343,827.686 561.364,827.681C559.385,827.677 556.362,829.306 555.366,831.446C554.256,833.834 554.701,842.007 554.701,842.007C554.701,848.627 555.003,855.232 555.003,855.232L567.939,855.246L567.939,843.331ZM525.576,855.246L537.63,854.946L537.491,842.007C537.491,842.007 537.893,833.705 536.971,831.5C536.237,829.745 533.638,828.789 531.959,828.775C530.281,828.761 527.726,829.703 526.9,831.416C525.836,833.622 525.576,842.007 525.576,842.007L525.576,855.246ZM815.503,830.092L811.531,830.092L810.207,832.74L810.207,839.359L811.531,840.683L812.855,840.683L815.503,839.359L815.503,830.092ZM770.491,826.121L766.52,826.121L766.52,830.092C765.196,835.388 765.196,836.712 769.167,836.712L770.491,836.712L770.491,826.121ZM741.366,828.769L737.395,828.769L736.071,830.092L736.071,835.388L737.395,836.712L738.718,836.712L741.366,835.388L741.366,828.769ZM720.184,820.825L717.537,820.825L716.213,822.149L714.889,824.797L714.889,831.416L716.213,832.74L717.537,831.416C718.86,831.416 718.86,828.769 720.184,826.121L720.184,820.825ZM695.031,818.178L692.383,818.178L691.059,820.825L691.059,826.121L692.383,827.445L693.707,826.121C695.031,826.121 695.031,823.473 695.031,822.149L695.031,818.178ZM488.507,794.348L488.507,771.842C488.507,751.984 488.507,750.66 485.86,746.689C484.536,745.365 481.888,742.717 480.564,741.393C476.593,740.069 476.593,740.069 472.621,741.393C466.002,746.689 464.678,750.66 463.354,771.842L463.354,794.348L464.678,795.672L487.184,795.672L488.507,794.348ZM562.644,789.052C563.968,786.405 563.968,751.984 562.644,746.689C561.32,741.393 554.701,734.774 550.729,734.774C549.405,734.774 546.758,737.422 544.11,740.069C538.814,745.365 538.814,745.365 537.491,765.223L537.491,787.729L538.814,790.376L549.405,790.376C557.349,790.376 561.32,790.376 562.644,789.052ZM804.912,774.49C806.236,773.166 806.236,770.518 806.236,767.871L806.236,763.899L803.588,762.575C798.293,761.251 794.321,770.518 798.293,774.49C800.94,775.814 802.264,775.814 804.912,774.49Z" style="fill:rgb(2,2,5);fill-rule:nonzero;"/>
    </g>
</svg>
