<?xml version="1.0" encoding="UTF-8" standalone="no"?>
<!DOCTYPE svg PUBLIC "-//W3C//DTD SVG 1.1//EN" "http://www.w3.org/Graphics/SVG/1.1/DTD/svg11.dtd">
<svg width="100%" height="100%" viewBox="0 0 6000 3600" version="1.1" xmlns="http://www.w3.org/2000/svg" xmlns:xlink="http://www.w3.org/1999/xlink" xml:space="preserve" xmlns:serif="http://www.serif.com/" style="fill-rule:evenodd;clip-rule:evenodd;stroke-linejoin:round;stroke-miterlimit:2;">
    <g transform="matrix(10,0,0,10,-532.525,-4681.89)">
        <path d="M420,720L65.064,720C71.27,641.131 70.784,646.78 75.46,642.103C78.108,640.779 80.756,638.131 82.08,638.131L83.404,638.131L84.728,642.103C86.051,644.751 87.375,647.399 88.699,647.399L88.699,648.722L93.995,644.751C97.966,640.779 97.966,640.779 97.966,582.529C97.966,525.603 97.966,525.603 105.909,505.745C111.214,492.482 116.292,484.226 116.292,484.226C116.292,484.226 120.212,488.685 129.739,503.097C137.682,528.25 135.035,558.699 135.035,562.671L135.035,567.966L137.682,567.966C140.33,567.966 154.893,566.643 170.779,563.995C186.665,561.347 211.819,558.699 226.381,556.052L252.859,553.404L252.859,545.461C254.183,540.165 254.183,525.603 255.507,512.364C256.156,501.325 256.805,492.516 258.08,480L292.972,480C293.399,482.604 293.721,484.64 293.899,485.887C295.223,489.858 295.223,505.745 296.546,520.307L297.87,546.785L309.785,545.461C315.081,545.461 336.263,544.137 354.797,541.489L387.893,537.518L387.893,522.955C387.893,508.392 387.893,508.392 382.598,503.097C377.302,496.478 377.302,496.478 379.95,488.534C379.95,486.946 380.585,483.875 381.433,480L420,480L420,720ZM278.599,571.626L278.101,559.465L271.383,559.858L271.393,571.938L278.599,571.626ZM278.012,538.841L278.012,526.927L270.147,526.901C270.147,526.901 270.069,537.994 270.069,539.318L278.012,538.841Z" style="fill:rgb(2,2,5);fill-rule:nonzero;"/>
    </g>
</svg>
