<?xml version="1.0" encoding="UTF-8" standalone="no"?>
<!DOCTYPE svg PUBLIC "-//W3C//DTD SVG 1.1//EN" "http://www.w3.org/Graphics/SVG/1.1/DTD/svg11.dtd">
<svg width="100%" height="100%" viewBox="0 0 6000 3600" version="1.1" xmlns="http://www.w3.org/2000/svg" xmlns:xlink="http://www.w3.org/1999/xlink" xml:space="preserve" xmlns:serif="http://www.serif.com/" style="fill-rule:evenodd;clip-rule:evenodd;stroke-linejoin:round;stroke-miterlimit:2;">
    <g transform="matrix(6.12394e-16,-10.0012,10.0012,6.12394e-16,-655.648,6360.42)">
        <path d="M381.433,480C382.703,474.185 384.451,466.559 385.246,459.409C387.893,446.171 394.513,414.398 401.132,387.92C410.399,338.937 410.399,338.937 407.751,327.022C405.104,319.079 405.104,311.136 405.104,304.517C405.104,295.25 405.104,293.926 401.132,289.954C394.513,279.363 394.513,280.687 394.513,247.59C395.837,217.141 395.837,217.141 401.132,197.283C405.104,186.692 409.075,177.425 410.399,176.101L411.723,174.778L422.314,194.636C432.905,215.818 432.905,215.818 431.581,240.971C431.581,266.125 431.581,266.125 435.553,272.744C438.2,276.715 440.848,279.363 440.848,279.363L442.172,279.363L452.763,244.943C467.325,205.227 480.564,165.511 488.507,145.652L493.803,131.09L495.127,131.09C496.451,132.414 499.098,136.385 509.689,172.13C518.956,201.255 530.871,238.323 546.758,287.306C585.058,401.409 603.159,454.915 611.207,480L381.433,480ZM501.746,424.989L499.098,424.989L499.098,427.636L501.746,427.636L501.746,424.989ZM499.098,340.261L500.422,341.585L500.422,342.909L503.07,340.261L503.07,338.937L501.746,337.613L499.098,340.261ZM440.848,334.966L438.2,334.966L438.2,337.613L440.848,337.613L440.848,334.966ZM499.098,283.335L497.774,283.335L499.098,284.659L499.098,285.983L500.422,284.659L501.746,284.659L500.422,283.335L500.422,282.011L499.098,283.335ZM460.706,255.534L462.03,256.857L462.03,258.181L464.678,255.534L464.678,254.21L463.354,252.886L460.706,255.534ZM500.422,231.704C500.422,231.704 500.422,230.38 499.098,230.38L497.774,229.056L497.774,233.028L500.422,233.028L500.422,231.704ZM409.075,213.17L405.104,213.17L405.104,215.818C405.104,218.465 405.104,219.789 406.428,219.789L406.428,221.113L407.751,219.789C409.075,219.789 409.075,218.465 409.075,215.818L409.075,213.17ZM499.098,128.442L497.774,127.118L501.746,127.118L501.746,129.766C501.746,129.766 500.422,129.766 499.098,128.442Z" style="fill:rgb(2,2,5);fill-rule:nonzero;"/>
    </g>
    <g transform="matrix(6.13072e-16,10.0122,-10.0122,6.13072e-16,5643.97,-2052.11)">
        <path d="M258.08,480C259.403,466.998 261.401,449.997 264.774,422.341C270.069,379.977 271.393,368.062 274.041,366.738L275.365,366.738L275.365,370.71C275.365,374.682 279.336,401.159 281.984,418.369C283.13,422.953 290.226,463.239 292.972,480L258.08,480Z" style="fill:rgb(2,2,5);fill-rule:nonzero;"/>
    </g>
</svg>
