<?xml version="1.0" encoding="UTF-8" standalone="no"?>
<!DOCTYPE svg PUBLIC "-//W3C//DTD SVG 1.1//EN" "http://www.w3.org/Graphics/SVG/1.1/DTD/svg11.dtd">
<svg width="100%" height="100%" viewBox="0 0 6000 3600" version="1.1" xmlns="http://www.w3.org/2000/svg" xmlns:xlink="http://www.w3.org/1999/xlink" xml:space="preserve" xmlns:serif="http://www.serif.com/" style="fill-rule:evenodd;clip-rule:evenodd;stroke-linejoin:round;stroke-miterlimit:2;">
    <g transform="matrix(10.0523,0,0,10.0523,-20991.7,-9544.66)">
        <path d="M2100,961.249C2120.85,972.796 2139.48,983.638 2143.63,984.231C2146.28,985.555 2154.22,988.202 2160.84,990.85C2178.05,1000.12 2267.95,991.963 2314.28,1001.23C2346.05,1007.85 2343.41,1005.2 2354,1026.38C2368.56,1048.89 2386.77,1039.1 2389.42,1060.28C2392.07,1078.82 2398.69,1090.73 2413.25,1100C2417.22,1102.65 2425.51,1115.28 2428.16,1117.93C2433.45,1121.9 2451.32,1124.6 2452.64,1132.54C2452.64,1143.13 2483.77,1166.46 2490,1177.7C2493.59,1184.19 2490.01,1199.94 2490,1200L2100,1200L2100,961.249Z" style="fill:rgb(2,2,5);fill-rule:nonzero;"/>
    </g>
</svg>
