<?xml version="1.0" encoding="UTF-8" standalone="no"?>
<!DOCTYPE svg PUBLIC "-//W3C//DTD SVG 1.1//EN" "http://www.w3.org/Graphics/SVG/1.1/DTD/svg11.dtd">
<svg width="100%" height="100%" viewBox="0 0 6000 3600" version="1.1" xmlns="http://www.w3.org/2000/svg" xmlns:xlink="http://www.w3.org/1999/xlink" xml:space="preserve" xmlns:serif="http://www.serif.com/" style="fill-rule:evenodd;clip-rule:evenodd;stroke-linejoin:round;stroke-miterlimit:2;">
    <g transform="matrix(10,0,0,10,-12716.6,-4405.71)">
        <path d="M1345.3,720C1346.51,713.388 1348.09,707.755 1352.77,694.895C1356.74,685.628 1364.68,665.77 1369.98,653.855C1375.28,640.617 1380.57,628.702 1381.89,628.702L1383.22,628.702L1389.84,640.617C1393.81,647.236 1401.75,661.799 1408.37,672.389C1413.67,682.98 1418.96,690.924 1418.96,692.247C1418.96,692.247 1421.61,697.543 1425.58,702.838C1428.23,708.134 1430.88,714.753 1430.88,716.077C1430.88,718.724 1433.23,719.999 1434.55,720L1345.3,720ZM1581.8,480C1581.74,493.779 1580.42,496.425 1577.83,501.61C1572.53,509.554 1572.53,517.497 1577.83,532.059C1580.48,540.003 1580.48,545.298 1581.8,562.508L1583.12,583.69L1585.77,583.69C1592.39,583.69 1593.71,578.395 1593.71,562.508C1593.71,550.594 1593.71,546.622 1596.36,540.003C1600.33,529.412 1605.63,520.145 1606.95,520.145L1608.28,520.145L1610.92,528.088C1614.89,536.031 1613.38,556.991 1614.47,570.462C1615.51,583.275 1617.01,596.064 1617.47,608.911C1617.98,623.251 1618.41,642.393 1617.54,656.503C1616.78,668.961 1610.92,667.094 1612.25,693.571C1613.11,703.032 1613.97,713.052 1614.83,720L1437.45,720C1442.52,719.123 1452.36,715.773 1453.38,714.753C1454.71,714.753 1453.38,692.247 1452.06,667.094C1449.41,624.73 1449.41,619.435 1446.76,616.787C1444.12,615.463 1444.12,612.815 1444.12,603.548C1444.12,598.253 1442.79,591.633 1442.79,590.31C1441.47,586.338 1441.47,582.366 1446.76,563.832C1450.74,551.917 1454.71,538.679 1454.71,536.031C1455,535.452 1455.29,534.809 1455.58,534.159L1455.82,533.601C1456.78,531.463 1457.73,529.412 1458.68,529.412L1460,529.412L1470.59,554.565C1475.89,567.804 1481.18,578.395 1481.18,579.719L1482.51,579.719L1482.51,566.48C1482.51,558.537 1482.51,542.65 1481.18,532.059C1479.86,510.878 1479.86,510.878 1475.89,505.582C1471.92,501.61 1470.59,498.963 1470.59,493.667C1469.27,489.696 1467.95,484.4 1467.95,481.752C1467.74,481.132 1467.57,480.577 1467.45,480L1524.44,480L1524.87,480.429L1525.73,480L1581.8,480ZM1600.33,692.247L1595.04,692.247L1593.71,694.895L1593.71,701.515L1595.04,702.838L1597.68,702.838L1600.33,701.515L1600.33,692.247ZM1595.04,657.827L1592.39,657.827L1591.07,661.799L1591.07,667.094L1592.39,668.418L1593.71,667.094C1595.04,667.094 1595.04,664.446 1595.04,661.799L1595.04,657.827ZM1483.83,655.179L1478.54,655.179L1477.21,657.827L1477.21,663.122L1478.54,664.446L1481.18,664.446L1483.83,663.122L1483.83,655.179ZM1512.96,651.208L1506.34,651.208L1505.01,653.855L1505.01,660.475L1506.34,661.799L1512.96,661.799L1512.96,651.208ZM1477.21,627.378C1477.21,624.73 1477.21,622.082 1475.89,622.082L1474.57,620.759L1473.24,622.082C1471.92,624.73 1471.92,630.026 1473.24,631.35C1474.57,633.997 1477.21,631.35 1477.21,627.378ZM1544.73,623.406C1544.73,619.435 1544.73,616.787 1543.41,616.787L1542.08,615.463L1540.76,616.787C1536.79,619.435 1538.11,630.026 1542.08,628.702L1544.73,627.378L1544.73,623.406ZM1497.07,547.946L1493.1,547.946L1491.78,553.241L1491.78,561.185L1493.1,562.508L1494.42,562.508L1497.07,561.185L1497.07,547.946ZM1562.97,545.039C1559.61,545.06 1556.64,548.489 1556.64,551.917C1556.64,553.241 1556.64,555.889 1557.97,555.889C1559.29,557.213 1561.94,557.213 1564.59,555.889C1564.59,555.268 1564.88,554.357 1565.19,553.427L1565.31,553.055C1565.62,552.126 1565.91,551.214 1565.91,550.594L1565.91,546.622L1564.59,545.298C1564.06,545.122 1563.53,545.04 1563.02,545.038L1562.97,545.039ZM1497.07,521.468L1493.1,521.468L1491.78,526.764L1491.78,534.707L1493.1,536.031L1494.42,536.031L1497.07,534.707L1497.07,521.468ZM1481.18,485.724L1481.18,487.048C1482.51,488.372 1483.83,488.372 1483.83,488.372C1483.83,488.372 1485.16,488.372 1486.48,487.048L1486.48,485.724L1483.83,483.076L1481.18,485.724Z" style="fill:rgb(2,2,5);fill-rule:nonzero;"/>
    </g>
    <g transform="matrix(9.99638,0,0,9.99638,-14549.8,-3480.15)">
        <path d="M1467.45,480C1466.85,476.883 1468.07,473.149 1475.89,455.275C1482.51,442.036 1493.1,419.531 1499.72,404.968C1506.34,389.082 1512.96,373.195 1515.61,367.9L1519.58,359.957L1522.22,362.604C1523.55,363.928 1528.84,373.195 1534.14,382.462C1539.43,391.729 1550.03,407.616 1556.64,419.531C1563.26,431.445 1572.53,444.684 1575.18,451.303C1581.8,463.218 1581.8,463.218 1581.8,479.105C1581.8,479.408 1581.8,479.707 1581.8,480L1525.73,480L1527.52,479.105L1528.84,479.105L1528.84,475.133L1527.52,475.133C1524.87,475.134 1523.55,477.781 1523.55,479.105L1524.44,480L1467.45,480Z" style="fill:rgb(2,2,5);fill-rule:nonzero;"/>
    </g>
    <g transform="matrix(9.982,0,0,9.982,-14365.5,-5848.42)">
        <path d="M1802.97,720L1804.1,712.106C1805.42,706.81 1809.4,697.543 1813.37,690.924C1816.02,684.304 1821.31,676.361 1823.96,671.066C1826.61,667.094 1829.25,663.122 1830.58,661.799L1831.9,660.475L1835.87,664.446C1837.2,665.77 1845.14,677.685 1854.41,689.6C1870.27,710.745 1870.29,710.782 1870.29,720L1802.97,720Z" style="fill:rgb(2,2,5);fill-rule:nonzero;"/>
    </g>
</svg>
