<?xml version="1.0" encoding="UTF-8" standalone="no"?>
<!DOCTYPE svg PUBLIC "-//W3C//DTD SVG 1.1//EN" "http://www.w3.org/Graphics/SVG/1.1/DTD/svg11.dtd">
<svg width="100%" height="100%" viewBox="0 0 6000 3600" version="1.1" xmlns="http://www.w3.org/2000/svg" xmlns:xlink="http://www.w3.org/1999/xlink" xml:space="preserve" xmlns:serif="http://www.serif.com/" style="fill-rule:evenodd;clip-rule:evenodd;stroke-linecap:round;stroke-linejoin:round;stroke-miterlimit:1.5;">
    <g id="Body" transform="matrix(1,0,0,1,94.4882,2.84217e-14)">
        <g transform="matrix(1.16667,0,0,0.990099,-629.921,390.933)">
            <rect x="590.551" y="118.11" width="35.433" height="119.291" style="fill:none;stroke:rgb(255,0,0);stroke-width:0.77px;"/>
        </g>
        <g transform="matrix(1.16667,0,0,0.990099,1537.4,390.933)">
            <rect x="590.551" y="118.11" width="35.433" height="119.291" style="fill:none;stroke:rgb(255,0,0);stroke-width:0.77px;"/>
        </g>
        <g transform="matrix(1.64706,0,0,1.64706,-281.38,-462.923)">
            <circle cx="507.874" cy="625.984" r="200.787" style="fill:none;stroke:rgb(255,0,0);stroke-width:0.51px;"/>
        </g>
        <g transform="matrix(1.64706,0,0,1.64706,923.344,-464.104)">
            <circle cx="507.874" cy="625.984" r="200.787" style="fill:none;stroke:rgb(255,0,0);stroke-width:0.51px;"/>
        </g>
        <g transform="matrix(1,0,0,1,-590.551,-2.84217e-14)">
            <path d="M724.349,450C776.281,258.853 951.165,118.11 1158.66,118.11C1396.44,118.11 1591.39,302.931 1607.58,536.629C1640.99,497.953 1694.14,472.925 1753.94,472.925C1813.74,472.925 1866.88,497.953 1900.3,536.629C1916.48,302.931 2111.43,118.11 2349.21,118.11C2556.71,118.11 2731.59,258.853 2783.53,450L2893.7,450L2893.7,686.22L2783.53,686.22C2731.59,877.368 2556.71,1018.11 2349.21,1018.11C2133.47,1018.11 1952.98,865.956 1909.3,663.192C1876.94,618.103 1819.43,588.083 1753.94,588.083C1688.44,588.083 1630.93,618.103 1598.58,663.192C1554.89,865.956 1374.41,1018.11 1158.66,1018.11C951.165,1018.11 776.281,877.368 724.349,686.22L614.173,686.22L614.173,450L724.349,450Z" style="fill:none;stroke:rgb(0,0,255);stroke-width:0.83px;"/>
        </g>
    </g>
    <g transform="matrix(1,0,0,1,-295.276,-106.11)">
        <path d="M413.386,1476.38C413.386,1313.41 545.694,1181.1 708.661,1181.1L2208.66,1181.1C2234.74,1181.1 2255.91,1159.93 2255.91,1133.86C2255.91,1133.43 2279.53,1133.86 2279.53,1133.86L2279.53,1181.1L2326.77,1180.91L2326.77,1145.48L2350.39,1145.48L2362.2,1198.82L2362.2,1216.54L2125.98,1240.16L2362.2,1263.59L2362.2,1281.31L2350.39,1334.46L2326.77,1334.46L2326.77,1299.02L2279.53,1299.02L2279.53,1346.27C2279.53,1346.27 2255.91,1346.69 2255.91,1346.27C2255.91,1320.19 2234.74,1299.02 2208.66,1299.02L708.661,1299.21C610.881,1299.21 531.496,1378.6 531.496,1476.38C531.496,1508.97 505.034,1535.43 472.441,1535.43C439.848,1535.43 413.386,1508.97 413.386,1476.38C413.386,1464.65 413.386,1494.91 413.386,1476.38Z" style="fill:none;stroke:rgb(0,0,255);stroke-width:0.83px;"/>
    </g>
    <g transform="matrix(-1,0,0,1,2710.63,82.8663)">
        <path d="M413.386,1476.38C413.386,1313.41 545.694,1181.1 708.661,1181.1L2208.66,1181.1C2234.74,1181.1 2255.91,1159.93 2255.91,1133.86C2255.91,1133.43 2279.53,1133.86 2279.53,1133.86L2279.53,1181.1L2326.77,1180.91L2326.77,1145.48L2350.39,1145.48L2362.2,1198.82L2362.2,1216.54L2125.98,1240.16L2362.2,1263.59L2362.2,1281.31L2350.39,1334.46L2326.77,1334.46L2326.77,1299.02L2279.53,1299.02L2279.53,1346.27C2279.53,1346.27 2255.91,1346.69 2255.91,1346.27C2255.91,1320.19 2234.74,1299.02 2208.66,1299.02L708.661,1299.21C610.881,1299.21 531.496,1378.6 531.496,1476.38C531.496,1508.97 505.034,1535.43 472.441,1535.43C439.848,1535.43 413.386,1508.97 413.386,1476.38C413.386,1463.25 413.386,1498.11 413.386,1476.38Z" style="fill:none;stroke:rgb(0,0,255);stroke-width:0.83px;"/>
    </g>
    <g transform="matrix(1,0,0,1,-153.543,-449.086)">
        <path d="M590.551,1535.43L606.251,1570.63L589.651,1606.83L610.151,1606.83L617.251,1585.33L617.451,1585.33L624.551,1606.83L645.351,1606.83L628.651,1570.63L644.151,1535.43L623.351,1535.43L617.451,1556.13L617.251,1556.13L611.351,1535.43L590.551,1535.43Z" style="fill-rule:nonzero;"/>
        <rect x="646.951" y="1570.33" width="31.2" height="15.2" style="fill-rule:nonzero;"/>
        <path d="M703.951,1565.63L703.951,1548.83L707.551,1548.83C710.351,1548.83 712.368,1549.47 713.601,1550.73C714.835,1552 715.451,1554.13 715.451,1557.13C715.451,1559.67 714.818,1561.72 713.551,1563.28C712.285,1564.85 710.318,1565.63 707.651,1565.63L703.951,1565.63ZM685.351,1535.43L685.351,1606.83L703.951,1606.83L703.951,1578.23L708.851,1578.23C709.985,1578.23 710.935,1578.38 711.701,1578.68C712.468,1578.98 713.101,1579.52 713.601,1580.28C714.101,1581.05 714.451,1582.1 714.651,1583.43C714.851,1584.77 714.951,1586.43 714.951,1588.43L714.951,1593.23C714.951,1593.97 714.968,1594.92 715.001,1596.08C715.035,1597.25 715.101,1598.47 715.201,1599.73C715.301,1601 715.468,1602.27 715.701,1603.53C715.935,1604.8 716.285,1605.9 716.751,1606.83L736.551,1606.83L736.551,1605.83C735.951,1605.5 735.518,1605.15 735.251,1604.78C734.985,1604.42 734.718,1604.03 734.451,1603.63C734.251,1603.23 734.085,1602.67 733.951,1601.93C733.818,1601.2 733.718,1600.38 733.651,1599.48C733.585,1598.58 733.551,1597.63 733.551,1596.63C733.551,1595.63 733.551,1594.67 733.551,1593.73L733.551,1587.63C733.551,1582.83 732.718,1579.07 731.051,1576.33C729.385,1573.6 726.318,1572.03 721.851,1571.63L721.851,1571.43C726.118,1570.77 729.218,1568.97 731.151,1566.03C733.085,1563.1 734.051,1559.23 734.051,1554.43C734.051,1551.7 733.701,1549.17 733.001,1546.83C732.301,1544.5 731.168,1542.48 729.601,1540.78C728.035,1539.08 726.001,1537.77 723.501,1536.83C721.001,1535.9 717.985,1535.43 714.451,1535.43L685.351,1535.43Z" style="fill-rule:nonzero;"/>
        <path d="M761.551,1596.13C760.218,1596.13 759.151,1595.6 758.351,1594.53C757.551,1593.47 757.151,1592.03 757.151,1590.23C757.151,1588.43 757.418,1586.98 757.951,1585.88C758.485,1584.78 759.451,1583.9 760.851,1583.23C762.185,1582.63 763.401,1582.25 764.501,1582.08C765.601,1581.92 766.418,1581.47 766.951,1580.73L767.151,1580.73L767.151,1587.23C767.151,1590.23 766.718,1592.47 765.851,1593.93C764.985,1595.4 763.551,1596.13 761.551,1596.13ZM768.251,1606.83L785.651,1606.83C784.918,1605.43 784.451,1603.77 784.251,1601.83C784.051,1599.9 783.951,1597.67 783.951,1595.13L783.951,1568.73C783.951,1565.2 783.435,1562.32 782.401,1560.08C781.368,1557.85 779.901,1556.08 778.001,1554.78C776.101,1553.48 773.835,1552.58 771.201,1552.08C768.568,1551.58 765.685,1551.33 762.551,1551.33C760.485,1551.33 758.251,1551.55 755.851,1551.98C753.451,1552.42 751.218,1553.28 749.151,1554.58C747.085,1555.88 745.351,1557.72 743.951,1560.08C742.551,1562.45 741.851,1565.6 741.851,1569.53L757.451,1569.53C757.518,1566.67 757.951,1564.75 758.751,1563.78C759.551,1562.82 760.818,1562.33 762.551,1562.33C765.618,1562.33 767.151,1564 767.151,1567.33C767.151,1569 766.751,1570.28 765.951,1571.18C765.151,1572.08 763.785,1572.77 761.851,1573.23L754.751,1574.93C751.885,1575.6 749.485,1576.42 747.551,1577.38C745.618,1578.35 744.085,1579.52 742.951,1580.88C741.818,1582.25 741.001,1583.87 740.501,1585.73C740.001,1587.6 739.751,1589.8 739.751,1592.33C739.751,1594.67 740.018,1596.8 740.551,1598.73C741.085,1600.67 741.951,1602.33 743.151,1603.73C744.351,1605.13 745.901,1606.18 747.801,1606.88C749.701,1607.58 752.018,1607.93 754.751,1607.93C757.551,1607.93 760.035,1607.33 762.201,1606.13C764.368,1604.93 765.951,1603.13 766.951,1600.73L767.151,1600.73C767.285,1601.87 767.418,1602.93 767.551,1603.93C767.685,1604.93 767.918,1605.9 768.251,1606.83Z" style="fill-rule:nonzero;"/>
        <path d="M793.351,1611.13L793.351,1623.73C794.885,1623.87 796.468,1623.97 798.101,1624.03C799.735,1624.1 801.518,1624.13 803.451,1624.13C805.851,1624.13 807.985,1623.9 809.851,1623.43C811.718,1622.97 813.368,1622.13 814.801,1620.93C816.235,1619.73 817.468,1618.12 818.501,1616.08C819.535,1614.05 820.451,1611.47 821.251,1608.33L835.751,1552.73L817.751,1552.73L812.551,1589.23L812.351,1589.23L806.851,1552.73L788.351,1552.73L802.551,1603.73C802.751,1604.47 802.935,1605.17 803.101,1605.83C803.268,1606.5 803.351,1607.03 803.351,1607.43C803.351,1607.7 803.251,1608.07 803.051,1608.53C802.851,1609 802.518,1609.45 802.051,1609.88C801.585,1610.32 800.968,1610.7 800.201,1611.03C799.435,1611.37 798.485,1611.53 797.351,1611.53C796.685,1611.53 796.018,1611.5 795.351,1611.43C794.685,1611.37 794.018,1611.27 793.351,1611.13Z" style="fill-rule:nonzero;"/>
        <rect x="837.451" y="1570.33" width="31.2" height="15.2" style="fill-rule:nonzero;"/>
        <path d="M895.051,1593.43L895.051,1576.03L900.251,1576.03C901.985,1576.03 903.518,1576.77 904.851,1578.23C906.185,1579.7 906.851,1581.83 906.851,1584.63C906.851,1587.63 906.185,1589.85 904.851,1591.28C903.518,1592.72 901.985,1593.43 900.251,1593.43L895.051,1593.43ZM895.051,1563.43L895.051,1548.83L899.551,1548.83C901.485,1548.83 902.951,1549.57 903.951,1551.03C904.951,1552.5 905.451,1554.23 905.451,1556.23C905.451,1558.17 904.951,1559.85 903.951,1561.28C902.951,1562.72 901.485,1563.43 899.551,1563.43L895.051,1563.43ZM876.451,1535.43L876.451,1606.83L904.551,1606.83C908.418,1606.83 911.718,1606.32 914.451,1605.28C917.185,1604.25 919.401,1602.8 921.101,1600.93C922.801,1599.07 924.051,1596.83 924.851,1594.23C925.651,1591.63 926.051,1588.8 926.051,1585.73C926.051,1583.87 925.801,1582.02 925.301,1580.18C924.801,1578.35 924.018,1576.67 922.951,1575.13C921.885,1573.6 920.518,1572.32 918.851,1571.28C917.185,1570.25 915.185,1569.63 912.851,1569.43L912.851,1569.23C914.851,1568.83 916.551,1568.13 917.951,1567.13C919.351,1566.13 920.501,1564.92 921.401,1563.48C922.301,1562.05 922.968,1560.45 923.401,1558.68C923.835,1556.92 924.051,1555.1 924.051,1553.23C924.051,1547.83 922.468,1543.52 919.301,1540.28C916.135,1537.05 911.218,1535.43 904.551,1535.43L876.451,1535.43Z" style="fill-rule:nonzero;"/>
        <path d="M952.051,1596.13C950.718,1596.13 949.651,1595.6 948.851,1594.53C948.051,1593.47 947.651,1592.03 947.651,1590.23C947.651,1588.43 947.918,1586.98 948.451,1585.88C948.985,1584.78 949.951,1583.9 951.351,1583.23C952.685,1582.63 953.901,1582.25 955.001,1582.08C956.101,1581.92 956.918,1581.47 957.451,1580.73L957.651,1580.73L957.651,1587.23C957.651,1590.23 957.218,1592.47 956.351,1593.93C955.485,1595.4 954.051,1596.13 952.051,1596.13ZM958.751,1606.83L976.151,1606.83C975.418,1605.43 974.951,1603.77 974.751,1601.83C974.551,1599.9 974.451,1597.67 974.451,1595.13L974.451,1568.73C974.451,1565.2 973.935,1562.32 972.901,1560.08C971.868,1557.85 970.401,1556.08 968.501,1554.78C966.601,1553.48 964.335,1552.58 961.701,1552.08C959.068,1551.58 956.185,1551.33 953.051,1551.33C950.985,1551.33 948.751,1551.55 946.351,1551.98C943.951,1552.42 941.718,1553.28 939.651,1554.58C937.585,1555.88 935.851,1557.72 934.451,1560.08C933.051,1562.45 932.351,1565.6 932.351,1569.53L947.951,1569.53C948.018,1566.67 948.451,1564.75 949.251,1563.78C950.051,1562.82 951.318,1562.33 953.051,1562.33C956.118,1562.33 957.651,1564 957.651,1567.33C957.651,1569 957.251,1570.28 956.451,1571.18C955.651,1572.08 954.285,1572.77 952.351,1573.23L945.251,1574.93C942.385,1575.6 939.985,1576.42 938.051,1577.38C936.118,1578.35 934.585,1579.52 933.451,1580.88C932.318,1582.25 931.501,1583.87 931.001,1585.73C930.501,1587.6 930.251,1589.8 930.251,1592.33C930.251,1594.67 930.518,1596.8 931.051,1598.73C931.585,1600.67 932.451,1602.33 933.651,1603.73C934.851,1605.13 936.401,1606.18 938.301,1606.88C940.201,1607.58 942.518,1607.93 945.251,1607.93C948.051,1607.93 950.535,1607.33 952.701,1606.13C954.868,1604.93 956.451,1603.13 957.451,1600.73L957.651,1600.73C957.785,1601.87 957.918,1602.93 958.051,1603.93C958.185,1604.93 958.418,1605.9 958.751,1606.83Z" style="fill-rule:nonzero;"/>
        <path d="M982.451,1552.73L982.451,1606.83L1000.45,1606.83L1000.45,1571.13C1000.45,1568.87 1000.78,1567.23 1001.45,1566.23C1002.12,1565.23 1003.25,1564.73 1004.85,1564.73C1006.45,1564.73 1007.59,1565.23 1008.25,1566.23C1008.92,1567.23 1009.25,1568.87 1009.25,1571.13L1009.25,1606.83L1027.25,1606.83L1027.25,1566.03C1027.25,1563.1 1026.88,1560.7 1026.15,1558.83C1025.42,1556.97 1024.42,1555.47 1023.15,1554.33C1021.88,1553.2 1020.4,1552.42 1018.7,1551.98C1017,1551.55 1015.15,1551.33 1013.15,1551.33C1006.75,1551.33 1002.38,1554 1000.05,1559.33L999.851,1559.33L999.851,1552.73L982.451,1552.73Z" style="fill-rule:nonzero;"/>
    </g>
    <g transform="matrix(1,0,0,1,862.205,-254.07)">
        <path d="M612.051,1571.13C612.051,1566.33 612.118,1562.35 612.251,1559.18C612.385,1556.02 612.668,1553.5 613.101,1551.63C613.535,1549.77 614.168,1548.47 615.001,1547.73C615.835,1547 616.951,1546.63 618.351,1546.63C619.751,1546.63 620.868,1547 621.701,1547.73C622.535,1548.47 623.168,1549.77 623.601,1551.63C624.035,1553.5 624.318,1556.02 624.451,1559.18C624.585,1562.35 624.651,1566.33 624.651,1571.13C624.651,1575.93 624.585,1579.92 624.451,1583.08C624.318,1586.25 624.035,1588.77 623.601,1590.63C623.168,1592.5 622.535,1593.8 621.701,1594.53C620.868,1595.27 619.751,1595.63 618.351,1595.63C616.951,1595.63 615.835,1595.27 615.001,1594.53C614.168,1593.8 613.535,1592.5 613.101,1590.63C612.668,1588.77 612.385,1586.25 612.251,1583.08C612.118,1579.92 612.051,1575.93 612.051,1571.13ZM592.851,1571.13C592.851,1577.8 593.285,1583.48 594.151,1588.18C595.018,1592.88 596.451,1596.72 598.451,1599.68C600.451,1602.65 603.085,1604.77 606.351,1606.03C609.618,1607.3 613.618,1607.93 618.351,1607.93C623.085,1607.93 627.085,1607.3 630.351,1606.03C633.618,1604.77 636.251,1602.65 638.251,1599.68C640.251,1596.72 641.685,1592.88 642.551,1588.18C643.418,1583.48 643.851,1577.8 643.851,1571.13C643.851,1564.47 643.418,1558.78 642.551,1554.08C641.685,1549.38 640.251,1545.55 638.251,1542.58C636.251,1539.62 633.618,1537.45 630.351,1536.08C627.085,1534.72 623.085,1534.03 618.351,1534.03C613.618,1534.03 609.618,1534.72 606.351,1536.08C603.085,1537.45 600.451,1539.62 598.451,1542.58C596.451,1545.55 595.018,1549.38 594.151,1554.08C593.285,1558.78 592.851,1564.47 592.851,1571.13Z" style="fill-rule:nonzero;"/>
        <path d="M669.351,1596.13C668.018,1596.13 666.951,1595.6 666.151,1594.53C665.351,1593.47 664.951,1592.03 664.951,1590.23C664.951,1588.43 665.218,1586.98 665.751,1585.88C666.285,1584.78 667.251,1583.9 668.651,1583.23C669.985,1582.63 671.201,1582.25 672.301,1582.08C673.401,1581.92 674.218,1581.47 674.751,1580.73L674.951,1580.73L674.951,1587.23C674.951,1590.23 674.518,1592.47 673.651,1593.93C672.785,1595.4 671.351,1596.13 669.351,1596.13ZM676.051,1606.83L693.451,1606.83C692.718,1605.43 692.251,1603.77 692.051,1601.83C691.851,1599.9 691.751,1597.67 691.751,1595.13L691.751,1568.73C691.751,1565.2 691.235,1562.32 690.201,1560.08C689.168,1557.85 687.701,1556.08 685.801,1554.78C683.901,1553.48 681.635,1552.58 679.001,1552.08C676.368,1551.58 673.485,1551.33 670.351,1551.33C668.285,1551.33 666.051,1551.55 663.651,1551.98C661.251,1552.42 659.018,1553.28 656.951,1554.58C654.885,1555.88 653.151,1557.72 651.751,1560.08C650.351,1562.45 649.651,1565.6 649.651,1569.53L665.251,1569.53C665.318,1566.67 665.751,1564.75 666.551,1563.78C667.351,1562.82 668.618,1562.33 670.351,1562.33C673.418,1562.33 674.951,1564 674.951,1567.33C674.951,1569 674.551,1570.28 673.751,1571.18C672.951,1572.08 671.585,1572.77 669.651,1573.23L662.551,1574.93C659.685,1575.6 657.285,1576.42 655.351,1577.38C653.418,1578.35 651.885,1579.52 650.751,1580.88C649.618,1582.25 648.801,1583.87 648.301,1585.73C647.801,1587.6 647.551,1589.8 647.551,1592.33C647.551,1594.67 647.818,1596.8 648.351,1598.73C648.885,1600.67 649.751,1602.33 650.951,1603.73C652.151,1605.13 653.701,1606.18 655.601,1606.88C657.501,1607.58 659.818,1607.93 662.551,1607.93C665.351,1607.93 667.835,1607.33 670.001,1606.13C672.168,1604.93 673.751,1603.13 674.751,1600.73L674.951,1600.73C675.085,1601.87 675.218,1602.93 675.351,1603.93C675.485,1604.93 675.718,1605.9 676.051,1606.83Z" style="fill-rule:nonzero;"/>
        <path d="M699.251,1535.43L699.251,1606.83L717.251,1606.83L717.251,1592.93L720.251,1588.23L729.351,1606.83L748.551,1606.83L731.651,1575.03L746.651,1552.73L727.451,1552.73L717.451,1571.43L717.251,1571.43L717.251,1535.43L699.251,1535.43Z" style="fill-rule:nonzero;"/>
        <rect x="748.951" y="1570.33" width="31.2" height="15.2" style="fill-rule:nonzero;"/>
        <path d="M787.351,1535.43L787.351,1606.83L828.851,1606.83L828.851,1591.63L805.951,1591.63L805.951,1535.43L787.351,1535.43Z" style="fill-rule:nonzero;"/>
        <path d="M859.151,1570.63L859.151,1573.03L849.251,1573.03L849.251,1570.63C849.251,1567.77 849.601,1565.67 850.301,1564.33C851.001,1563 852.285,1562.33 854.151,1562.33C856.085,1562.33 857.401,1563 858.101,1564.33C858.801,1565.67 859.151,1567.77 859.151,1570.63ZM849.251,1582.83L875.951,1582.83L875.951,1577.33C875.951,1572.4 875.501,1568.28 874.601,1564.98C873.701,1561.68 872.335,1559.02 870.501,1556.98C868.668,1554.95 866.401,1553.5 863.701,1552.63C861.001,1551.77 857.851,1551.33 854.251,1551.33C850.185,1551.33 846.701,1551.85 843.801,1552.88C840.901,1553.92 838.518,1555.57 836.651,1557.83C834.785,1560.1 833.418,1563.03 832.551,1566.63C831.685,1570.23 831.251,1574.63 831.251,1579.83C831.251,1584.97 831.635,1589.33 832.401,1592.93C833.168,1596.53 834.451,1599.45 836.251,1601.68C838.051,1603.92 840.418,1605.52 843.351,1606.48C846.285,1607.45 849.918,1607.93 854.251,1607.93C861.718,1607.93 867.085,1606.25 870.351,1602.88C873.618,1599.52 875.318,1594.5 875.451,1587.83L859.251,1587.83C859.251,1591.5 858.801,1593.98 857.901,1595.28C857.001,1596.58 855.751,1597.23 854.151,1597.23C852.885,1597.23 851.751,1596.75 850.751,1595.78C849.751,1594.82 849.251,1592.87 849.251,1589.93L849.251,1582.83Z" style="fill-rule:nonzero;"/>
        <path d="M882.351,1611.13L882.351,1623.73C883.885,1623.87 885.468,1623.97 887.101,1624.03C888.735,1624.1 890.518,1624.13 892.451,1624.13C894.851,1624.13 896.985,1623.9 898.851,1623.43C900.718,1622.97 902.368,1622.13 903.801,1620.93C905.235,1619.73 906.468,1618.12 907.501,1616.08C908.535,1614.05 909.451,1611.47 910.251,1608.33L924.751,1552.73L906.751,1552.73L901.551,1589.23L901.351,1589.23L895.851,1552.73L877.351,1552.73L891.551,1603.73C891.751,1604.47 891.935,1605.17 892.101,1605.83C892.268,1606.5 892.351,1607.03 892.351,1607.43C892.351,1607.7 892.251,1608.07 892.051,1608.53C891.851,1609 891.518,1609.45 891.051,1609.88C890.585,1610.32 889.968,1610.7 889.201,1611.03C888.435,1611.37 887.485,1611.53 886.351,1611.53C885.685,1611.53 885.018,1611.5 884.351,1611.43C883.685,1611.37 883.018,1611.27 882.351,1611.13Z" style="fill-rule:nonzero;"/>
        <rect x="926.451" y="1570.33" width="31.2" height="15.2" style="fill-rule:nonzero;"/>
        <path d="M964.851,1535.43L964.851,1606.83L1006.35,1606.83L1006.35,1591.63L983.451,1591.63L983.451,1535.43L964.851,1535.43Z" style="fill-rule:nonzero;"/>
        <path d="M1010.65,1535.43L1010.65,1548.83L1028.65,1548.83L1028.65,1535.43L1010.65,1535.43ZM1010.65,1552.73L1010.65,1606.83L1028.65,1606.83L1028.65,1552.73L1010.65,1552.73Z" style="fill-rule:nonzero;"/>
        <path d="M1036.15,1552.73L1036.15,1606.83L1054.15,1606.83L1054.15,1571.13C1054.15,1568.87 1054.49,1567.23 1055.15,1566.23C1055.82,1565.23 1056.95,1564.73 1058.55,1564.73C1060.15,1564.73 1061.29,1565.23 1061.95,1566.23C1062.62,1567.23 1062.95,1568.87 1062.95,1571.13L1062.95,1606.83L1080.95,1606.83L1080.95,1566.03C1080.95,1563.1 1080.59,1560.7 1079.85,1558.83C1079.12,1556.97 1078.12,1555.47 1076.85,1554.33C1075.59,1553.2 1074.1,1552.42 1072.4,1551.98C1070.7,1551.55 1068.85,1551.33 1066.85,1551.33C1060.45,1551.33 1056.09,1554 1053.75,1559.33L1053.55,1559.33L1053.55,1552.73L1036.15,1552.73Z" style="fill-rule:nonzero;"/>
        <path d="M1114.45,1570.63L1114.45,1573.03L1104.55,1573.03L1104.55,1570.63C1104.55,1567.77 1104.9,1565.67 1105.6,1564.33C1106.3,1563 1107.59,1562.33 1109.45,1562.33C1111.38,1562.33 1112.7,1563 1113.4,1564.33C1114.1,1565.67 1114.45,1567.77 1114.45,1570.63ZM1104.55,1582.83L1131.25,1582.83L1131.25,1577.33C1131.25,1572.4 1130.8,1568.28 1129.9,1564.98C1129,1561.68 1127.63,1559.02 1125.8,1556.98C1123.97,1554.95 1121.7,1553.5 1119,1552.63C1116.3,1551.77 1113.15,1551.33 1109.55,1551.33C1105.49,1551.33 1102,1551.85 1099.1,1552.88C1096.2,1553.92 1093.82,1555.57 1091.95,1557.83C1090.09,1560.1 1088.72,1563.03 1087.85,1566.63C1086.99,1570.23 1086.55,1574.63 1086.55,1579.83C1086.55,1584.97 1086.93,1589.33 1087.7,1592.93C1088.47,1596.53 1089.75,1599.45 1091.55,1601.68C1093.35,1603.92 1095.72,1605.52 1098.65,1606.48C1101.59,1607.45 1105.22,1607.93 1109.55,1607.93C1117.02,1607.93 1122.38,1606.25 1125.65,1602.88C1128.92,1599.52 1130.62,1594.5 1130.75,1587.83L1114.55,1587.83C1114.55,1591.5 1114.1,1593.98 1113.2,1595.28C1112.3,1596.58 1111.05,1597.23 1109.45,1597.23C1108.18,1597.23 1107.05,1596.75 1106.05,1595.78C1105.05,1594.82 1104.55,1592.87 1104.55,1589.93L1104.55,1582.83Z" style="fill-rule:nonzero;"/>
        <path d="M1150.15,1590.03L1134.35,1590.03C1134.35,1595.97 1136,1600.43 1139.3,1603.43C1142.6,1606.43 1148.02,1607.93 1155.55,1607.93C1158.95,1607.93 1162,1607.53 1164.7,1606.73C1167.4,1605.93 1169.67,1604.73 1171.5,1603.13C1173.34,1601.53 1174.75,1599.63 1175.75,1597.43C1176.75,1595.23 1177.25,1592.8 1177.25,1590.13C1177.25,1586.67 1176.6,1583.88 1175.3,1581.78C1174,1579.68 1172.38,1578.02 1170.45,1576.78C1168.52,1575.55 1166.43,1574.6 1164.2,1573.93C1161.97,1573.27 1159.88,1572.63 1157.95,1572.03C1156.02,1571.43 1154.4,1570.75 1153.1,1569.98C1151.8,1569.22 1151.15,1568.07 1151.15,1566.53C1151.15,1565.2 1151.59,1564.17 1152.45,1563.43C1153.32,1562.7 1154.42,1562.33 1155.75,1562.33C1157.29,1562.33 1158.47,1562.75 1159.3,1563.58C1160.13,1564.42 1160.55,1566 1160.55,1568.33L1176.15,1568.33C1176.15,1557 1169.38,1551.33 1155.85,1551.33C1152.18,1551.33 1149,1551.77 1146.3,1552.63C1143.6,1553.5 1141.37,1554.7 1139.6,1556.23C1137.84,1557.77 1136.52,1559.55 1135.65,1561.58C1134.79,1563.62 1134.35,1565.83 1134.35,1568.23C1134.35,1571.63 1135,1574.38 1136.3,1576.48C1137.6,1578.58 1139.22,1580.27 1141.15,1581.53C1143.09,1582.8 1145.17,1583.8 1147.4,1584.53C1149.63,1585.27 1151.72,1585.97 1153.65,1586.63C1155.59,1587.3 1157.2,1588.07 1158.5,1588.93C1159.8,1589.8 1160.45,1591.03 1160.45,1592.63C1160.45,1594.1 1159.93,1595.23 1158.9,1596.03C1157.87,1596.83 1156.65,1597.23 1155.25,1597.23C1153.59,1597.23 1152.32,1596.6 1151.45,1595.33C1150.99,1594.73 1150.65,1593.97 1150.45,1593.03C1150.25,1592.1 1150.15,1591.1 1150.15,1590.03Z" style="fill-rule:nonzero;"/>
    </g>
</svg>
