<?xml version="1.0" standalone="no"?>

<!DOCTYPE svg PUBLIC "-//W3C//DTD SVG 20010904//EN"

 "http://www.w3.org/TR/2001/REC-SVG-20010904/DTD/svg10.dtd">

<svg version="1.0" xmlns="http://www.w3.org/2000/svg"

 width="512.000000pt" height="512.000000pt" viewBox="0 0 512.000000 512.000000"

 preserveAspectRatio="xMidYMid meet">

<path fill="#000000" stroke="none" d="
M261 511

C260 511 259 510 258 509

C256 505 120 207 120 204

C120 200 124 197 128 197

C130 197 157 202 189 208

C220 215 246 220 246 220

C246 219 239 173 230 115

C221 58 214 10 214 9

C214 2 219 -1 225 1

C227 2 229 4 231 8

C238 23 366 304 366 306

C367 308 365 313 362 314

C362 315 360 315 358 315

C356 315 253 295 243 293

L241 292

L241 294

C241 295 248 343 257 400

C266 457 273 505 273 506

C271 510 265 513 261 511

Z

"/>

<path fill="#ffffff" stroke="none" d="
"/>

</svg>

