<?xml version="1.0" encoding="UTF-8" standalone="no"?>
<!DOCTYPE svg PUBLIC "-//W3C//DTD SVG 1.1//EN" "http://www.w3.org/Graphics/SVG/1.1/DTD/svg11.dtd">
<svg width="100%" height="100%" viewBox="0 0 6000 3600" version="1.1" xmlns="http://www.w3.org/2000/svg" xmlns:xlink="http://www.w3.org/1999/xlink" xml:space="preserve" xmlns:serif="http://www.serif.com/" style="fill-rule:evenodd;clip-rule:evenodd;stroke-linejoin:round;stroke-miterlimit:1.41421;">
    <g transform="matrix(1.46701,0,0,1.46701,-57.9307,117.536)">
        <path d="M261,511C260,511 259,510 258,509C256,505 120,207 120,204C120,200 124,197 128,197C130,197 157,202 189,208C220,215 246,220 246,220C246,219 239,173 230,115C221,58 214,10 214,9C214,2 219,-1 225,1C227,2 229,4 231,8C238,23 366,304 366,306C367,308 365,313 362,314C362,315 360,315 358,315C356,315 253,295 243,293L241,292L241,294C241,295 248,343 257,400C266,457 273,505 273,506C271,510 265,513 261,511Z" style="fill:none;stroke:black;stroke-width:0.68px;"/>
    </g>
    <g transform="matrix(1.46701,0,0,1.46701,296.4,117.536)">
        <path d="M261,511C260,511 259,510 258,509C256,505 120,207 120,204C120,200 124,197 128,197C130,197 157,202 189,208C220,215 246,220 246,220C246,219 239,173 230,115C221,58 214,10 214,9C214,2 219,-1 225,1C227,2 229,4 231,8C238,23 366,304 366,306C367,308 365,313 362,314C362,315 360,315 358,315C356,315 253,295 243,293L241,292L241,294C241,295 248,343 257,400C266,457 273,505 273,506C271,510 265,513 261,511Z" style="fill:none;stroke:black;stroke-width:0.68px;"/>
    </g>
    <g transform="matrix(1.46701,0,0,1.46701,650.731,117.536)">
        <path d="M261,511C260,511 259,510 258,509C256,505 120,207 120,204C120,200 124,197 128,197C130,197 157,202 189,208C220,215 246,220 246,220C246,219 239,173 230,115C221,58 214,10 214,9C214,2 219,-1 225,1C227,2 229,4 231,8C238,23 366,304 366,306C367,308 365,313 362,314C362,315 360,315 358,315C356,315 253,295 243,293L241,292L241,294C241,295 248,343 257,400C266,457 273,505 273,506C271,510 265,513 261,511Z" style="fill:none;stroke:black;stroke-width:0.68px;"/>
    </g>
    <g transform="matrix(1.46701,0,0,1.46701,1005.06,117.536)">
        <path d="M261,511C260,511 259,510 258,509C256,505 120,207 120,204C120,200 124,197 128,197C130,197 157,202 189,208C220,215 246,220 246,220C246,219 239,173 230,115C221,58 214,10 214,9C214,2 219,-1 225,1C227,2 229,4 231,8C238,23 366,304 366,306C367,308 365,313 362,314C362,315 360,315 358,315C356,315 253,295 243,293L241,292L241,294C241,295 248,343 257,400C266,457 273,505 273,506C271,510 265,513 261,511Z" style="fill:none;stroke:black;stroke-width:0.68px;"/>
    </g>
    <g transform="matrix(1.46701,0,0,1.46701,60.1796,592.929)">
        <path d="M261,511C260,511 259,510 258,509C256,505 120,207 120,204C120,200 124,197 128,197C130,197 157,202 189,208C220,215 246,220 246,220C246,219 239,173 230,115C221,58 214,10 214,9C214,2 219,-1 225,1C227,2 229,4 231,8C238,23 366,304 366,306C367,308 365,313 362,314C362,315 360,315 358,315C356,315 253,295 243,293L241,292L241,294C241,295 248,343 257,400C266,457 273,505 273,506C271,510 265,513 261,511Z" style="fill:none;stroke:black;stroke-width:0.68px;"/>
    </g>
    <g transform="matrix(1.46701,0,0,1.46701,414.51,592.929)">
        <path d="M261,511C260,511 259,510 258,509C256,505 120,207 120,204C120,200 124,197 128,197C130,197 157,202 189,208C220,215 246,220 246,220C246,219 239,173 230,115C221,58 214,10 214,9C214,2 219,-1 225,1C227,2 229,4 231,8C238,23 366,304 366,306C367,308 365,313 362,314C362,315 360,315 358,315C356,315 253,295 243,293L241,292L241,294C241,295 248,343 257,400C266,457 273,505 273,506C271,510 265,513 261,511Z" style="fill:none;stroke:black;stroke-width:0.68px;"/>
    </g>
    <g transform="matrix(1.46701,0,0,1.46701,768.841,592.929)">
        <path d="M261,511C260,511 259,510 258,509C256,505 120,207 120,204C120,200 124,197 128,197C130,197 157,202 189,208C220,215 246,220 246,220C246,219 239,173 230,115C221,58 214,10 214,9C214,2 219,-1 225,1C227,2 229,4 231,8C238,23 366,304 366,306C367,308 365,313 362,314C362,315 360,315 358,315C356,315 253,295 243,293L241,292L241,294C241,295 248,343 257,400C266,457 273,505 273,506C271,510 265,513 261,511Z" style="fill:none;stroke:black;stroke-width:0.68px;"/>
    </g>
    <g transform="matrix(1.46701,0,0,1.46701,1123.17,592.929)">
        <path d="M261,511C260,511 259,510 258,509C256,505 120,207 120,204C120,200 124,197 128,197C130,197 157,202 189,208C220,215 246,220 246,220C246,219 239,173 230,115C221,58 214,10 214,9C214,2 219,-1 225,1C227,2 229,4 231,8C238,23 366,304 366,306C367,308 365,313 362,314C362,315 360,315 358,315C356,315 253,295 243,293L241,292L241,294C241,295 248,343 257,400C266,457 273,505 273,506C271,510 265,513 261,511Z" style="fill:none;stroke:black;stroke-width:0.68px;"/>
    </g>
    <g transform="matrix(1.46701,0,0,1.46701,-57.9307,1068.32)">
        <path d="M261,511C260,511 259,510 258,509C256,505 120,207 120,204C120,200 124,197 128,197C130,197 157,202 189,208C220,215 246,220 246,220C246,219 239,173 230,115C221,58 214,10 214,9C214,2 219,-1 225,1C227,2 229,4 231,8C238,23 366,304 366,306C367,308 365,313 362,314C362,315 360,315 358,315C356,315 253,295 243,293L241,292L241,294C241,295 248,343 257,400C266,457 273,505 273,506C271,510 265,513 261,511Z" style="fill:none;stroke:black;stroke-width:0.68px;"/>
    </g>
    <g transform="matrix(1.46701,0,0,1.46701,296.4,1068.32)">
        <path d="M261,511C260,511 259,510 258,509C256,505 120,207 120,204C120,200 124,197 128,197C130,197 157,202 189,208C220,215 246,220 246,220C246,219 239,173 230,115C221,58 214,10 214,9C214,2 219,-1 225,1C227,2 229,4 231,8C238,23 366,304 366,306C367,308 365,313 362,314C362,315 360,315 358,315C356,315 253,295 243,293L241,292L241,294C241,295 248,343 257,400C266,457 273,505 273,506C271,510 265,513 261,511Z" style="fill:none;stroke:black;stroke-width:0.68px;"/>
    </g>
    <g transform="matrix(1.46701,0,0,1.46701,650.731,1068.32)">
        <path d="M261,511C260,511 259,510 258,509C256,505 120,207 120,204C120,200 124,197 128,197C130,197 157,202 189,208C220,215 246,220 246,220C246,219 239,173 230,115C221,58 214,10 214,9C214,2 219,-1 225,1C227,2 229,4 231,8C238,23 366,304 366,306C367,308 365,313 362,314C362,315 360,315 358,315C356,315 253,295 243,293L241,292L241,294C241,295 248,343 257,400C266,457 273,505 273,506C271,510 265,513 261,511Z" style="fill:none;stroke:black;stroke-width:0.68px;"/>
    </g>
    <g transform="matrix(1.46701,0,0,1.46701,1005.06,1068.32)">
        <path d="M261,511C260,511 259,510 258,509C256,505 120,207 120,204C120,200 124,197 128,197C130,197 157,202 189,208C220,215 246,220 246,220C246,219 239,173 230,115C221,58 214,10 214,9C214,2 219,-1 225,1C227,2 229,4 231,8C238,23 366,304 366,306C367,308 365,313 362,314C362,315 360,315 358,315C356,315 253,295 243,293L241,292L241,294C241,295 248,343 257,400C266,457 273,505 273,506C271,510 265,513 261,511Z" style="fill:none;stroke:black;stroke-width:0.68px;"/>
    </g>
</svg>
