<?xml version="1.0" encoding="UTF-8" standalone="no"?>
<!DOCTYPE svg PUBLIC "-//W3C//DTD SVG 1.1//EN" "http://www.w3.org/Graphics/SVG/1.1/DTD/svg11.dtd">
<svg width="100%" height="100%" viewBox="0 0 2000 1401" version="1.1" xmlns="http://www.w3.org/2000/svg" xmlns:xlink="http://www.w3.org/1999/xlink" xml:space="preserve" xmlns:serif="http://www.serif.com/" style="fill-rule:evenodd;clip-rule:evenodd;stroke-linejoin:round;stroke-miterlimit:2;">
    <path d="M995,1363C994,1363 993,1359 991,1354C989,1350 987,1343 985,1340C983,1336 978,1323 973,1311C965,1289 965,1289 965,1264C966,1251 966,1212 967,1178C967,1143 968,1109 968,1101C970,1070 971,1006 972,919C974,806 975,766 976,744C976,729 977,689 978,655C979,621 980,573 980,549C981,524 982,483 982,456C983,411 983,398 985,358C985,348 986,339 987,336C987,332 988,328 989,327C989,326 990,323 992,321C993,319 994,317 994,316L994,315L995,315C996,315 1003,325 1004,331C1005,333 1006,337 1007,340C1008,344 1009,374 1011,459C1012,518 1014,595 1015,630C1015,641 1015,665 1016,685C1016,705 1016,734 1017,751C1018,768 1019,809 1019,842C1023,1043 1024,1099 1024,1111C1025,1117 1025,1147 1026,1179C1027,1210 1027,1246 1028,1259C1028,1283 1028,1283 1024,1293C1022,1299 1019,1304 1019,1306C1019,1307 1013,1320 1007,1335C1002,1349 996,1362 996,1363L995,1364L995,1363ZM948,1242C947,1241 940,1220 930,1197C921,1173 913,1151 911,1148C908,1139 881,1069 875,1053C872,1046 868,1036 867,1031C861,1016 858,1010 844,974C831,938 807,877 803,866C801,862 796,849 792,837C787,825 782,812 781,809C779,805 777,798 775,793C772,788 770,781 768,778C765,768 698,596 694,584C692,580 691,577 691,576L690,574L689,575C689,575 682,587 675,601C653,642 642,663 627,691C620,706 605,734 594,754C583,774 571,797 567,806C562,815 550,837 540,856C515,904 480,969 469,989C459,1007 456,1014 457,1025C459,1051 486,1067 525,1067L539,1067L539,1072C540,1078 540,1106 539,1153L539,1191L288,1190L36,1190L36,1189L38,1184C45,1158 60,1098 64,1081C66,1074 67,1069 67,1068C68,1067 70,1067 73,1067C76,1067 83,1066 89,1065C118,1059 137,1044 161,1012C167,1004 174,994 178,990C186,980 213,932 309,760C319,743 331,721 338,710C351,686 371,651 396,605C406,587 431,543 451,508C483,450 504,411 547,335C562,308 566,297 571,273C579,231 574,193 555,164C542,144 522,130 506,128L500,128L500,127C500,127 508,110 517,90C526,69 534,52 534,52L534,51L686,51C837,52 837,52 856,92C866,114 879,143 885,157C897,183 897,183 888,201C883,211 874,228 869,239C864,250 855,269 848,282C837,305 837,305 839,313C841,317 847,335 853,353C863,382 885,445 907,512C922,557 951,642 956,657C962,675 962,664 959,802C957,908 956,933 955,983C954,1012 954,1045 954,1056C953,1067 953,1101 952,1130C951,1159 951,1184 950,1185L950,1244L949,1244L948,1242ZM1044,1238C1043,1234 1041,1174 1040,1118C1040,1104 1040,1088 1039,1082C1039,1075 1038,1039 1037,1001C1037,963 1036,915 1035,893C1034,871 1034,837 1033,817C1033,797 1032,757 1031,728C1030,675 1030,675 1043,636C1050,614 1061,582 1067,565C1073,547 1084,514 1092,491C1100,468 1107,446 1109,441C1112,433 1132,374 1148,326C1155,305 1155,305 1153,300C1151,297 1141,276 1130,253C1119,230 1107,205 1103,198C1099,191 1096,184 1096,183C1096,182 1098,178 1100,174C1109,153 1125,118 1139,86C1155,52 1155,52 1306,51C1458,51 1458,51 1461,59C1463,63 1471,80 1478,96C1486,113 1492,127 1492,127L1492,128L1488,128C1475,128 1457,139 1445,153C1420,183 1411,227 1422,276C1426,297 1431,309 1442,330C1448,340 1463,366 1475,388C1486,409 1500,434 1505,443C1511,452 1525,477 1537,499C1548,520 1566,551 1575,567C1583,582 1600,613 1612,634C1624,655 1641,685 1650,701C1659,717 1673,743 1683,760C1713,813 1784,941 1796,962C1803,973 1811,985 1814,990C1818,994 1825,1004 1831,1012C1849,1037 1865,1051 1883,1059C1893,1063 1910,1067 1918,1067L1924,1067L1925,1069C1925,1070 1929,1086 1934,1104C1943,1141 1955,1186 1955,1188L1956,1190L1705,1190C1567,1191 1453,1191 1453,1190L1453,1129L1453,1068L1467,1067C1499,1067 1523,1056 1531,1038C1537,1026 1536,1011 1528,998C1508,961 1442,838 1383,726C1380,719 1367,695 1355,672C1342,649 1326,617 1318,602C1310,587 1303,575 1302,575L1301,575L1301,576C1301,577 1297,587 1293,599C1288,611 1278,638 1270,659C1261,679 1254,699 1253,703C1248,714 1243,726 1235,747C1231,758 1226,770 1225,775C1215,799 1191,862 1183,882C1179,894 1174,906 1173,910C1171,913 1164,933 1155,954C1139,997 1135,1007 1131,1016C1130,1019 1119,1049 1106,1082C1073,1167 1054,1216 1051,1223C1050,1226 1048,1232 1047,1236L1044,1242L1044,1238Z" style="fill:rgb(89,89,89);fill-rule:nonzero;"/>
    <path d="M1135,803C1134,797 1132,789 1131,786C1129,775 1123,748 1122,740C1120,733 1116,711 1110,688C1109,681 1106,669 1105,660C1103,651 1099,636 1098,628C1093,610 1091,588 1090,569C1089,562 1089,555 1088,554L1088,552L1089,555C1090,556 1092,564 1094,573C1096,581 1099,591 1100,595C1102,601 1107,632 1114,672C1114,675 1116,681 1116,686C1117,691 1118,697 1119,701C1120,705 1121,713 1122,719C1123,725 1125,735 1126,740C1126,744 1128,754 1129,760C1130,766 1132,777 1133,784C1134,790 1135,798 1136,801C1136,803 1137,807 1138,810L1138,814L1137,814L1135,803ZM851,802C851,800 852,797 852,796L853,794L853,797C853,799 852,802 852,803L851,806L851,802ZM853,790C854,784 857,767 863,733C864,726 866,718 866,714C867,710 868,704 868,701C869,697 871,687 872,680C873,672 875,662 876,659C876,655 878,646 879,639C883,613 888,589 892,573C898,550 900,544 901,543L901,546C900,548 900,552 900,556C897,585 895,604 894,605C894,606 893,612 888,636C887,641 881,668 879,676C876,692 871,713 868,728C866,735 864,746 863,753C861,759 859,769 857,777C856,784 854,790 854,792L853,794L853,790ZM808,728L808,727L809,728L809,730L808,730L808,728ZM1180,722C1179,720 1176,711 1172,702C1169,693 1167,685 1166,684C1166,683 1164,678 1162,673C1160,668 1157,660 1155,655C1154,650 1150,639 1147,632C1144,624 1140,613 1139,608C1131,587 1127,575 1126,574C1125,572 1124,567 1122,562C1120,556 1117,549 1116,546C1115,543 1112,532 1110,521C1108,510 1106,499 1105,498L1105,496C1106,497 1107,499 1109,502C1110,505 1112,511 1114,515C1124,537 1127,547 1138,584C1140,591 1144,602 1146,608C1147,614 1151,625 1154,634C1156,643 1160,656 1163,664C1165,671 1169,682 1170,689C1172,695 1176,706 1178,713C1180,720 1182,726 1182,727L1181,727L1180,722ZM809,725C809,725 810,722 811,719C812,716 816,703 820,690C824,677 828,662 830,658C832,653 835,641 838,632C841,622 845,610 846,604C848,598 852,587 854,580C856,573 860,561 862,554C864,547 866,541 866,540C866,540 867,537 868,534C870,531 874,521 878,512C882,502 885,494 886,494L886,497C885,499 884,505 883,511C880,523 879,529 879,532C877,539 875,544 870,558C867,566 863,577 862,582C856,598 850,614 848,620C847,622 843,633 839,643C826,682 823,690 822,693C821,694 819,699 818,704C816,708 814,715 812,719L809,727L809,725ZM810,624C820,601 824,589 831,572C838,555 841,550 848,538L850,534L851,534C851,535 850,539 848,545C846,554 842,563 826,596C815,618 806,636 806,636L805,636L810,624ZM769,634C769,633 773,627 778,618C782,610 788,600 790,596C793,592 801,577 810,563C818,548 830,527 836,516C843,504 851,492 854,488C857,484 862,478 864,476C866,474 869,470 870,468L873,464L874,464L874,465L865,483C855,502 854,505 837,531C830,541 819,558 813,567C807,577 798,591 794,597C789,604 782,615 778,622C773,629 770,634 769,634ZM1216,624C1212,619 1205,608 1200,600C1195,592 1187,579 1182,572C1177,564 1168,550 1160,539C1140,508 1136,502 1127,483L1118,465L1118,464L1119,464L1123,470C1126,473 1131,480 1135,485C1143,494 1148,503 1163,529C1167,535 1175,550 1182,561C1188,572 1196,586 1200,593C1203,599 1210,610 1214,618L1223,633L1223,634L1222,634L1216,624ZM1270,552C1257,539 1241,524 1213,498C1169,456 1162,449 1153,439C1149,433 1143,426 1141,424C1139,421 1137,419 1137,419L1137,418L1153,430C1169,442 1174,447 1202,477C1211,487 1225,501 1233,510C1241,519 1251,529 1255,533C1259,538 1267,546 1272,551L1281,561L1280,561C1280,561 1275,557 1270,552ZM1210,541C1202,533 1193,523 1191,521C1189,518 1181,509 1174,502C1167,494 1157,484 1152,478C1146,472 1140,464 1139,461C1137,458 1133,452 1131,448L1127,441L1127,440L1128,440L1141,453C1148,460 1158,471 1163,478C1169,485 1176,495 1181,501C1185,506 1191,514 1195,519C1199,523 1203,529 1205,531C1206,533 1209,537 1212,540C1214,543 1218,548 1221,551L1225,557C1224,557 1218,550 1210,541ZM720,549C723,545 730,538 736,532C741,526 749,518 753,514C756,510 768,498 778,487C787,477 802,461 811,452C824,438 829,433 843,423L859,411L859,412C859,412 859,413 858,414C857,414 852,421 845,428C839,436 829,446 825,451C802,473 791,482 769,504C756,516 739,532 731,539C724,546 717,553 716,554L714,555L720,549ZM769,549C771,545 775,540 790,520C798,511 805,502 828,473C840,457 844,452 857,441L864,435L863,437C855,452 849,462 841,470C836,475 830,482 827,485C824,489 818,496 813,501C808,506 797,518 788,528C780,537 771,547 769,549L766,553L769,549ZM1254,503C1247,498 1233,488 1224,482C1208,472 1204,469 1196,459L1194,456L1202,460C1209,464 1219,472 1261,506C1265,509 1268,511 1268,512C1268,512 1261,508 1254,503ZM1263,479C1256,475 1246,469 1223,456C1197,441 1175,429 1168,424C1160,420 1139,403 1139,402L1139,401L1140,401C1141,402 1147,404 1155,407C1167,413 1171,415 1202,436C1208,440 1226,452 1241,463C1257,473 1270,482 1270,483C1270,483 1267,481 1263,479ZM717,478C718,477 727,471 737,464C747,457 759,449 764,446C768,443 780,435 791,428C801,420 812,413 814,412C816,410 821,407 825,406C832,403 837,401 842,399L846,397L847,397L847,398L839,405C825,416 825,416 802,430C798,432 793,435 789,437C785,439 776,444 769,448C762,453 751,459 745,462C739,465 734,468 734,469C733,469 730,471 728,472C726,474 722,476 720,477L716,479L717,478ZM1337,443C1335,442 1329,439 1324,437C1290,424 1286,423 1245,407C1238,404 1227,399 1221,397C1195,387 1191,385 1179,379C1174,376 1167,373 1164,371C1160,368 1156,366 1156,366L1155,365L1156,365C1156,366 1165,368 1175,370C1191,375 1197,377 1219,387C1222,389 1230,392 1236,395C1247,400 1254,403 1270,411C1274,413 1279,415 1282,416C1286,418 1314,431 1334,440L1345,445L1343,445C1342,445 1339,444 1337,443ZM1242,435C1239,433 1232,429 1226,427C1220,424 1206,417 1195,412C1184,406 1172,401 1169,399C1166,398 1160,394 1155,389L1146,381L1147,381C1149,381 1169,389 1174,391C1181,396 1229,425 1232,426C1242,432 1250,437 1250,438L1249,438C1249,438 1246,437 1242,435ZM739,433C739,433 744,429 751,426C764,418 797,398 809,390C814,387 822,383 829,381C835,379 841,377 841,377L833,385C828,390 823,393 818,396C813,398 805,402 800,404C795,407 779,414 765,421C750,428 738,434 738,434L739,433ZM654,432C654,432 660,429 666,426C677,421 688,417 702,410C705,408 716,403 727,398C737,394 751,387 757,385C805,363 801,364 825,358C831,356 837,355 838,354L840,354C840,355 838,356 835,357C833,358 826,362 820,365C805,374 806,373 726,405C718,408 708,411 705,413C701,414 691,418 684,421C677,424 667,428 662,430C658,431 654,433 653,433L654,432ZM1392,420L1391,419L1392,419C1393,419 1394,419 1395,420L1395,421L1394,421C1394,421 1393,421 1392,420ZM1363,412C1350,408 1335,404 1331,403C1322,401 1307,396 1292,392C1280,389 1267,385 1247,380C1240,378 1231,375 1229,374C1227,374 1220,372 1216,371C1211,369 1198,365 1188,360C1177,355 1167,351 1166,351L1164,350L1164,349C1165,349 1168,350 1172,350C1183,353 1186,354 1194,356C1207,358 1213,360 1244,370C1327,398 1362,409 1375,413C1383,416 1390,418 1390,419L1389,419C1388,419 1376,416 1363,412ZM605,407C607,406 614,404 619,402C656,390 788,347 794,346C797,345 804,343 808,343C811,342 818,340 823,339L831,337L831,339L823,342C818,344 812,347 809,348C805,350 799,352 794,354C790,356 786,358 785,358C784,358 779,359 774,361C769,362 761,365 755,366C738,371 726,374 723,375C720,376 690,384 669,390C663,392 652,395 644,397C636,399 627,402 623,403C614,406 601,409 600,409L605,407ZM1307,364C1292,361 1283,359 1275,358C1270,357 1264,355 1262,355C1259,354 1256,354 1254,354C1252,353 1247,352 1244,351C1240,351 1228,348 1217,346C1206,344 1195,342 1192,341C1181,337 1168,333 1168,332L1167,331L1170,331C1182,331 1200,333 1208,335C1216,338 1221,339 1241,344C1244,345 1254,348 1264,350C1286,357 1297,360 1306,362C1311,363 1315,364 1315,365L1313,365C1312,365 1309,364 1307,364ZM673,355C673,355 678,353 684,352C690,350 697,348 700,348C702,347 712,344 722,342C731,339 742,336 746,335C790,323 791,323 809,322L821,321L820,322C820,322 814,325 807,327C795,332 788,334 767,337C759,339 709,349 690,352C682,354 675,355 674,356L672,356L673,355ZM625,332C627,332 631,331 634,331C636,330 645,329 654,328C690,323 693,323 702,324C707,324 711,325 712,325L713,326L703,328C694,330 690,330 633,333L622,333L625,332ZM1208,321C1206,321 1200,320 1195,319C1189,318 1182,317 1180,317C1177,316 1173,316 1171,316L1168,316L1168,315C1169,314 1207,312 1221,312C1248,312 1381,315 1384,316L1388,317L1373,317C1364,317 1343,318 1326,318C1309,319 1277,319 1257,320C1236,321 1217,321 1215,321C1213,322 1210,321 1208,321ZM756,309C743,309 703,308 668,307C633,306 604,305 604,305L604,304L629,304C753,300 788,299 798,301C803,301 810,302 814,303C818,303 823,303 825,304L827,305L814,306C807,307 799,308 797,308C789,309 781,310 756,309ZM1185,299C1175,299 1166,299 1166,298L1165,297L1167,297C1168,297 1175,296 1182,294C1195,291 1205,290 1219,289C1227,288 1243,287 1263,285C1269,284 1279,284 1284,283C1288,283 1295,283 1297,282C1299,282 1305,282 1310,281C1320,281 1349,278 1357,277L1363,277L1362,277C1361,278 1343,281 1329,283C1326,283 1316,284 1306,286C1276,290 1260,292 1244,294C1235,295 1224,297 1219,298C1213,298 1207,299 1206,299L1185,299ZM784,287C781,287 772,285 764,284C755,283 745,282 743,281C741,281 738,281 737,280C729,279 716,278 707,277C701,276 692,275 687,274C676,272 667,271 647,268C640,268 634,267 634,266L643,266C647,267 657,267 663,268C676,269 694,271 713,272C719,273 731,273 739,274C746,275 753,275 755,275C756,275 761,276 766,276C770,277 778,277 783,277C787,278 795,279 801,280C806,281 814,283 819,284C824,284 828,286 829,286L831,287L826,287L804,287C795,288 786,288 784,287ZM1165,278C1173,274 1194,269 1204,267C1211,267 1217,266 1217,265C1217,265 1220,265 1223,264C1226,264 1233,263 1238,263C1242,262 1249,261 1252,260C1255,260 1259,259 1261,259C1263,259 1270,257 1277,257C1288,255 1295,254 1306,252L1311,251L1311,253L1309,253C1308,253 1305,254 1302,254C1298,255 1292,257 1289,257C1280,259 1259,264 1244,267C1238,269 1230,271 1226,271C1222,272 1213,274 1206,276C1195,279 1193,279 1178,279L1163,279L1165,278ZM795,266C793,265 787,264 782,263C777,262 772,260 770,260C766,259 750,256 727,250C721,249 711,247 704,245C696,244 689,242 686,242L682,241L682,240C683,240 688,241 711,244C718,245 727,246 731,247C743,249 746,249 756,251C761,251 767,252 768,253C786,255 806,258 818,262L832,267L816,267C807,267 797,266 795,266ZM628,265L630,265L630,266L628,266L627,266L628,265ZM1150,257C1150,257 1154,255 1159,253C1163,252 1168,250 1171,249C1173,248 1177,247 1181,246C1184,245 1189,244 1191,244C1196,243 1241,234 1272,229C1282,227 1292,224 1294,224C1296,223 1298,223 1299,223L1299,224L1296,225C1294,225 1286,227 1279,230C1271,232 1262,234 1260,234C1258,235 1252,237 1248,238C1243,239 1232,242 1224,244C1182,256 1180,256 1166,257C1159,258 1152,258 1151,258L1149,258L1150,257ZM827,249C821,249 814,248 813,247C811,247 804,245 798,243C791,241 783,239 779,238C770,235 720,222 704,218L700,217L700,216C701,216 703,216 706,217C717,219 737,223 746,225C765,228 769,229 774,230C776,231 787,233 798,235C809,237 820,239 823,240C831,243 848,249 849,250L844,250C841,250 833,249 827,249ZM1139,240C1139,238 1167,224 1179,220C1187,217 1202,212 1212,208C1253,194 1273,187 1277,186C1279,185 1282,184 1282,184L1283,184L1280,185C1279,186 1265,192 1251,198C1236,205 1222,211 1221,212C1219,212 1212,215 1206,218C1189,225 1180,229 1175,232C1172,233 1163,235 1156,236C1148,238 1141,239 1141,240L1139,240ZM850,234C843,233 836,231 834,230C823,229 816,227 794,218C768,209 762,206 743,199C737,197 723,192 712,188C701,183 688,179 684,177C668,171 664,170 664,169L663,168L664,168C664,169 674,172 686,175C697,179 711,184 717,185C723,187 733,191 741,193C786,207 797,211 810,215C821,219 855,233 857,235L855,235C854,235 851,234 850,234ZM854,218C849,217 841,214 836,212C830,210 825,208 825,208C823,207 804,197 799,194C797,193 792,191 788,188C784,186 775,181 768,177C735,160 695,139 688,135L683,132L684,132C685,133 694,137 704,141C730,153 731,154 737,157C739,158 746,161 751,163C756,166 766,170 772,173C778,176 787,180 792,182C797,184 804,188 808,189C819,194 836,203 840,206C843,207 849,212 854,215L864,221L863,221C862,221 858,220 854,218ZM1133,219C1135,217 1137,216 1137,216C1138,216 1143,213 1148,209C1158,203 1175,194 1185,190C1187,189 1193,186 1198,184C1202,182 1206,180 1206,180C1207,180 1212,178 1219,175C1225,171 1230,169 1231,169C1231,169 1234,168 1237,166C1241,164 1247,161 1251,160C1255,158 1261,155 1265,153C1269,151 1280,146 1291,141L1310,132L1311,132L1311,133L1290,144C1278,150 1265,157 1262,159C1258,161 1243,169 1229,176C1215,184 1200,191 1197,193C1173,206 1165,210 1157,213C1152,214 1145,217 1140,218C1136,220 1131,221 1131,221L1130,221L1133,219ZM866,205C863,204 857,201 853,199C846,196 833,186 798,160C791,155 781,147 775,143C769,138 760,131 755,127L745,120L745,119L746,119L759,128C773,137 793,150 810,161C841,180 851,188 862,197C868,203 873,207 873,208L872,208C872,208 869,207 866,205ZM1125,201C1127,198 1133,192 1137,188C1141,183 1146,178 1149,176C1152,173 1159,167 1166,162C1172,156 1179,150 1180,149C1191,141 1222,114 1245,95L1259,83L1260,83L1260,84L1242,101C1232,110 1213,128 1200,140C1169,170 1152,186 1148,188C1146,190 1139,194 1133,199L1121,206L1125,201ZM877,195C876,195 870,190 862,185C855,181 846,174 842,171C826,156 760,92 748,81L740,73L742,75C743,76 751,82 759,89C766,95 776,103 780,107C784,110 792,117 797,121C803,126 810,132 813,134C830,148 852,167 856,171C858,174 865,180 869,185L878,195L878,196L877,196L877,195ZM1108,190C1109,188 1112,181 1116,175C1119,169 1125,160 1129,155C1135,147 1139,142 1160,116C1164,109 1172,99 1177,93C1181,87 1186,81 1188,79C1190,76 1193,72 1196,69L1200,63C1200,64 1196,69 1192,76C1188,82 1180,94 1175,102C1129,171 1129,172 1118,183C1112,188 1107,193 1106,193L1108,190ZM875,172C866,163 868,167 837,112C832,103 826,92 824,89C822,85 820,82 820,81L830,96C836,104 844,116 849,122C868,149 874,159 876,162C876,164 878,167 879,169C879,170 881,174 882,176L884,181C884,181 880,177 875,172ZM1189,168C1195,162 1201,157 1209,151C1222,143 1235,135 1261,118L1276,108L1277,108L1277,109L1269,115C1258,123 1239,138 1220,154C1203,167 1199,169 1182,176L1181,176L1189,168Z" style="fill:white;fill-rule:nonzero;"/>
</svg>
