<?xml version="1.0" standalone="no"?>

<!DOCTYPE svg PUBLIC "-//W3C//DTD SVG 20010904//EN"

 "http://www.w3.org/TR/2001/REC-SVG-20010904/DTD/svg10.dtd">

<svg version="1.0" xmlns="http://www.w3.org/2000/svg"

 width="2000.000000pt" height="1401.000000pt" viewBox="0 0 2000.000000 1401.000000"

 preserveAspectRatio="xMidYMid meet">

<path fill="#595959" stroke="none" d="
M995 1363

C994 1363 993 1359 991 1354

C989 1350 987 1343 985 1340

C983 1336 978 1323 973 1311

C965 1289 965 1289 965 1264

C966 1251 966 1212 967 1178

C967 1143 968 1109 968 1101

C970 1070 971 1006 972 919

C974 806 975 766 976 744

C976 729 977 689 978 655

C979 621 980 573 980 549

C981 524 982 483 982 456

C983 411 983 398 985 358

C985 348 986 339 987 336

C987 332 988 328 989 327

C989 326 990 323 992 321

C993 319 994 317 994 316

L994 315

L995 315

C996 315 1003 325 1004 331

C1005 333 1006 337 1007 340

C1008 344 1009 374 1011 459

C1012 518 1014 595 1015 630

C1015 641 1015 665 1016 685

C1016 705 1016 734 1017 751

C1018 768 1019 809 1019 842

C1023 1043 1024 1099 1024 1111

C1025 1117 1025 1147 1026 1179

C1027 1210 1027 1246 1028 1259

C1028 1283 1028 1283 1024 1293

C1022 1299 1019 1304 1019 1306

C1019 1307 1013 1320 1007 1335

C1002 1349 996 1362 996 1363

L995 1364

L995 1363

Z

M52 1350

L52 1339

L54 1339

C55 1339 56 1339 57 1338

C57 1338 59 1338 61 1338

L65 1338

L65 1286

C64 1257 64 1233 63 1233

C63 1232 60 1232 57 1232

L51 1232

L51 1221

L51 1210

L83 1210

L115 1210

L115 1212

C116 1213 118 1226 122 1242

C125 1257 127 1270 128 1271

L128 1272

L128 1272

C129 1272 132 1258 136 1242

C139 1226 143 1212 143 1212

C143 1211 157 1211 174 1210

L205 1210

L205 1221

L205 1232

L199 1232

L194 1233

L194 1241

C194 1245 194 1269 194 1294

L194 1339

L200 1339

L205 1339

L205 1350

L205 1360

L191 1360

C184 1360 170 1360 162 1361

L147 1361

L147 1350

L147 1338

L153 1338

L159 1338

L158 1295

C158 1271 158 1251 157 1250

L157 1249

L157 1249

C156 1249 154 1259 151 1271

C145 1298 134 1349 133 1356

L132 1361

L122 1361

L112 1361

L110 1353

C108 1345 105 1332 95 1287

C93 1277 90 1264 89 1259

C88 1254 86 1249 86 1248

L85 1247

L85 1276

C86 1292 86 1313 86 1321

L86 1337

L89 1337

C90 1337 93 1337 94 1338

L96 1338

L96 1350

L96 1361

L74 1361

L52 1361

L52 1350

Z

M216 1351

C215 1346 215 1342 215 1341

C216 1341 218 1340 220 1340

C223 1339 225 1339 226 1338

L228 1338

L228 1301

C227 1281 227 1257 226 1247

L226 1230

L220 1230

L214 1230

L214 1220

L214 1210

L244 1210

L274 1210

L274 1220

L274 1231

L269 1231

C266 1232 264 1232 263 1232

C263 1233 263 1257 264 1286

L264 1339

L270 1340

L275 1340

L275 1351

L275 1361

L246 1361

L216 1361

L216 1351

Z

M285 1360

C284 1360 284 1356 284 1350

L284 1341

L287 1340

C289 1339 290 1338 290 1335

C291 1333 291 1304 291 1271

L291 1211

L310 1211

L330 1211

L336 1231

C342 1251 350 1279 356 1297

L358 1305

L359 1305

L359 1305

L359 1281

C358 1268 358 1252 357 1245

L357 1233

L352 1232

L347 1232

L346 1224

C346 1219 346 1214 346 1213

L347 1211

L370 1211

L392 1211

L392 1223

L392 1234

L386 1234

L380 1234

L380 1287

L380 1339

L381 1339

C382 1340 385 1340 387 1341

L392 1341

L392 1349

C391 1354 391 1358 390 1359

L390 1361

L364 1361

L339 1361

L326 1321

C319 1299 313 1281 313 1280

L312 1280

L312 1298

C312 1308 312 1321 311 1328

L311 1340

L313 1340

C314 1340 316 1340 318 1341

L322 1342

L322 1350

C322 1354 322 1359 321 1359

L321 1361

L303 1361

C293 1361 285 1361 285 1360

Z

M403 1351

L403 1340

L408 1339

C411 1339 414 1339 415 1338

C416 1338 416 1327 415 1297

C414 1275 414 1251 414 1244

L414 1231

L407 1230

L401 1230

L401 1220

L401 1210

L431 1210

L461 1210

L461 1219

C461 1223 461 1228 461 1229

L462 1230

L456 1231

C453 1232 451 1232 450 1232

C450 1233 452 1338 452 1339

C453 1339 455 1339 458 1340

L463 1340

L463 1345

C462 1347 462 1352 462 1355

L462 1361

L433 1361

L403 1361

L403 1351

Z

M476 1336

L476 1311

L482 1312

C485 1312 489 1313 491 1313

L495 1314

L497 1322

C497 1329 498 1330 501 1333

C506 1339 514 1342 519 1339

C526 1335 522 1318 513 1307

C511 1305 505 1300 499 1295

C481 1280 476 1274 472 1262

C470 1256 470 1253 470 1245

C471 1234 473 1226 478 1220

C488 1209 507 1209 522 1218

L527 1222

L528 1221

C528 1220 528 1218 528 1216

L529 1212

L541 1211

L553 1211

L553 1236

L553 1262

L548 1262

C545 1262 540 1262 536 1261

L529 1261

L529 1253

C528 1243 526 1238 521 1234

C519 1232 517 1231 513 1231

C506 1231 502 1233 501 1238

C500 1240 500 1243 500 1245

C501 1250 508 1259 519 1269

C540 1289 540 1289 544 1297

C549 1308 551 1318 551 1329

C550 1340 548 1346 543 1351

C537 1358 532 1359 520 1359

C510 1358 508 1358 498 1352

L497 1352

L497 1356

L497 1361

L487 1361

L476 1361

L476 1336

Z

M594 1351

L594 1341

L599 1340

L604 1340

L604 1302

C603 1281 603 1257 603 1248

L603 1233

L595 1234

C590 1234 586 1234 586 1234

C586 1235 586 1242 585 1251

L585 1267

L575 1267

C569 1267 564 1268 564 1268

L564 1268

L564 1240

L564 1212

L619 1211

L674 1211

L674 1232

C675 1244 675 1256 675 1260

L675 1267

L665 1267

C660 1267 656 1266 656 1266

C655 1266 655 1258 654 1250

L654 1234

L646 1234

L638 1234

L638 1267

C637 1285 637 1309 637 1320

L637 1339

L643 1339

C646 1340 648 1340 648 1340

C649 1340 649 1345 649 1351

L650 1361

L622 1361

L594 1361

L594 1351

Z

M684 1351

L684 1340

L691 1340

L697 1339

L697 1286

C696 1256 696 1232 695 1232

C695 1231 692 1231 688 1231

L682 1231

L682 1222

L682 1212

L715 1212

C751 1212 757 1213 767 1217

C778 1223 783 1234 783 1251

C783 1267 780 1275 770 1282

C767 1285 765 1287 765 1287

L765 1288

L766 1288

C769 1288 777 1296 779 1302

C783 1309 784 1316 785 1329

L786 1340

L790 1340

L795 1340

L795 1351

L795 1361

L779 1361

C763 1361 762 1361 759 1359

C753 1353 752 1349 751 1327

C750 1316 750 1306 749 1304

C749 1299 745 1297 738 1296

L732 1296

L732 1308

C732 1314 732 1324 733 1329

L733 1339

L736 1339

C737 1339 739 1339 741 1340

L743 1340

L743 1351

L743 1361

L714 1361

L684 1361

L684 1351

Z

M742 1275

C744 1274 746 1273 747 1271

C749 1268 749 1266 749 1253

C749 1244 748 1238 747 1236

C745 1233 741 1231 736 1231

L731 1231

L731 1247

C731 1256 731 1266 732 1270

L732 1276

L736 1276

C738 1276 741 1276 742 1275

Z

M833 1359

C833 1358 833 1353 832 1348

L832 1340

L834 1340

C835 1339 838 1339 840 1339

L843 1339

L843 1318

C842 1297 842 1297 827 1264

C813 1232 813 1232 808 1232

L804 1232

L804 1221

L804 1210

L833 1210

L862 1210

L862 1213

C862 1215 862 1220 863 1224

L863 1232

L859 1232

C857 1232 855 1232 855 1233

C854 1234 863 1258 867 1264

L868 1267

L869 1264

C869 1263 872 1255 875 1248

C878 1241 881 1234 881 1234

L881 1233

L876 1233

L871 1233

L871 1222

L871 1210

L893 1210

L914 1210

L914 1212

C913 1212 913 1217 913 1223

L913 1232

L908 1232

C904 1233 904 1233 890 1265

C877 1297 877 1297 878 1317

C878 1330 879 1338 879 1338

C880 1339 882 1339 885 1339

L889 1339

L889 1349

L889 1360

L869 1360

C858 1361 845 1361 841 1361

L833 1361

L833 1359

Z

M1107 1356

C1091 1352 1081 1341 1077 1323

C1072 1307 1071 1274 1073 1255

C1076 1233 1087 1219 1106 1215

C1127 1209 1149 1218 1157 1235

C1163 1246 1164 1251 1163 1285

C1163 1307 1163 1318 1162 1323

C1159 1336 1151 1346 1138 1353

C1132 1356 1130 1356 1122 1357

C1117 1357 1111 1356 1107 1356

Z

M1124 1336

C1125 1335 1127 1333 1128 1331

C1130 1327 1130 1294 1129 1266

C1128 1238 1127 1236 1122 1233

C1119 1231 1114 1231 1111 1233

C1108 1236 1107 1240 1106 1268

C1106 1302 1107 1328 1110 1332

C1113 1337 1119 1338 1124 1336

Z

M1178 1347

L1178 1337

L1183 1337

C1186 1337 1189 1337 1191 1336

L1193 1336

L1192 1320

C1192 1311 1192 1288 1191 1269

L1191 1234

L1184 1233

L1178 1233

L1178 1222

L1178 1212

L1211 1212

C1230 1212 1252 1212 1262 1213

L1279 1213

L1279 1240

L1279 1267

L1269 1266

L1259 1266

L1259 1249

L1259 1233

L1244 1233

L1228 1233

L1228 1254

L1228 1274

L1234 1274

L1239 1274

L1239 1269

L1239 1263

L1243 1263

C1246 1263 1249 1263 1249 1264

L1251 1264

L1251 1285

L1251 1305

L1247 1306

C1245 1306 1243 1306 1242 1307

L1240 1307

L1240 1302

C1240 1299 1240 1296 1239 1296

C1239 1295 1236 1295 1233 1296

L1227 1296

L1227 1305

C1227 1310 1227 1319 1228 1325

L1228 1336

L1234 1336

L1240 1336

L1240 1346

L1240 1356

L1232 1356

C1227 1356 1213 1356 1201 1357

L1178 1357

L1178 1347

Z

M1354 1346

L1354 1335

L1361 1335

L1368 1335

L1367 1301

C1367 1283 1367 1260 1366 1250

L1366 1233

L1359 1233

L1353 1233

L1353 1222

L1353 1211

L1386 1211

C1404 1212 1419 1212 1420 1212

C1420 1213 1423 1224 1426 1238

C1429 1251 1432 1264 1432 1267

L1433 1271

L1434 1270

C1434 1269 1438 1256 1442 1241

L1448 1213

L1472 1213

C1485 1212 1499 1212 1504 1211

L1513 1211

L1513 1221

C1514 1227 1514 1232 1513 1232

C1513 1233 1510 1233 1507 1233

L1502 1234

L1502 1234

C1502 1235 1502 1258 1502 1286

L1502 1336

L1508 1336

L1513 1336

L1513 1346

L1513 1356

L1494 1356

C1484 1356 1470 1356 1464 1357

L1453 1357

L1453 1346

L1453 1335

L1459 1335

L1465 1335

L1465 1315

C1465 1304 1465 1285 1464 1272

L1464 1249

L1463 1249

L1463 1249

L1458 1268

C1456 1278 1450 1302 1446 1321

C1436 1361 1439 1357 1424 1357

L1416 1357

L1413 1343

C1411 1336 1406 1312 1400 1292

C1395 1271 1391 1252 1391 1250

L1390 1247

L1389 1247

C1389 1248 1389 1301 1390 1320

L1390 1334

L1394 1334

C1395 1334 1398 1334 1398 1335

L1400 1335

L1400 1345

L1400 1356

L1390 1356

C1385 1357 1375 1357 1367 1357

L1354 1357

L1354 1346

Z

M1527 1347

L1527 1337

L1534 1337

L1540 1337

L1540 1337

C1540 1336 1544 1318 1548 1296

C1552 1274 1558 1247 1560 1235

L1564 1213

L1583 1213

L1601 1213

L1601 1215

C1602 1218 1603 1221 1617 1293

C1622 1316 1626 1335 1627 1336

L1627 1337

L1632 1337

L1637 1337

L1637 1347

L1637 1357

L1608 1357

L1579 1357

L1579 1350

C1579 1345 1579 1341 1579 1340

L1579 1338

L1583 1337

L1588 1337

L1586 1329

C1586 1324 1585 1320 1585 1319

L1584 1318

L1575 1318

L1566 1319

L1564 1324

C1564 1327 1563 1331 1563 1333

L1562 1337

L1567 1337

L1571 1337

L1571 1346

L1571 1356

L1554 1356

C1545 1357 1535 1357 1532 1357

L1527 1357

L1527 1347

Z

M1582 1304

C1582 1303 1580 1295 1578 1287

L1575 1271

L1574 1271

L1573 1271

L1573 1275

C1572 1278 1571 1285 1570 1292

L1567 1305

L1575 1305

L1582 1305

L1582 1304

Z

M1678 1355

C1665 1350 1656 1341 1652 1330

C1650 1321 1649 1306 1649 1278

C1649 1254 1649 1250 1650 1245

C1655 1231 1662 1221 1673 1216

C1677 1214 1679 1214 1688 1214

C1699 1214 1706 1216 1714 1222

L1718 1225

L1718 1218

L1718 1212

L1730 1212

L1741 1212

L1741 1239

L1741 1266

L1730 1266

C1724 1267 1720 1267 1719 1267

C1719 1267 1719 1263 1718 1258

C1717 1249 1714 1242 1710 1238

C1705 1232 1696 1230 1691 1234

C1685 1238 1685 1239 1685 1270

C1685 1286 1685 1306 1686 1316

C1687 1333 1687 1333 1689 1336

C1692 1338 1693 1338 1697 1338

C1704 1337 1704 1336 1705 1322

L1705 1310

L1700 1310

L1695 1310

L1694 1299

L1694 1289

L1723 1289

L1753 1289

L1753 1299

L1753 1310

L1747 1310

L1742 1310

L1742 1334

L1742 1357

L1733 1357

C1724 1357 1724 1357 1721 1354

L1719 1350

L1713 1353

C1707 1356 1706 1357 1696 1357

C1686 1357 1684 1357 1678 1355

Z

M1765 1352

C1764 1350 1764 1345 1764 1342

L1764 1337

L1771 1336

L1778 1335

L1777 1311

C1777 1297 1776 1274 1776 1259

L1776 1232

L1769 1231

L1763 1231

L1763 1222

L1763 1212

L1777 1212

C1784 1211 1798 1211 1808 1211

L1825 1211

L1825 1221

C1826 1226 1826 1231 1825 1231

C1825 1232 1823 1232 1821 1232

C1818 1232 1816 1232 1815 1233

C1814 1234 1814 1242 1814 1280

C1815 1305 1815 1328 1816 1331

L1816 1336

L1819 1336

C1821 1336 1824 1336 1825 1337

L1827 1337

L1827 1347

L1827 1357

L1796 1357

L1765 1357

L1765 1352

Z

M1870 1356

C1864 1355 1858 1351 1853 1346

C1843 1336 1840 1325 1839 1291

C1838 1254 1842 1236 1851 1226

C1858 1218 1866 1214 1874 1214

C1881 1214 1891 1217 1897 1220

C1899 1221 1900 1222 1901 1222

L1901 1222

L1901 1217

L1901 1212

L1909 1212

C1913 1213 1918 1213 1920 1214

L1924 1214

L1924 1219

C1925 1222 1925 1234 1925 1246

L1925 1267

L1915 1267

L1904 1267

L1904 1259

C1902 1242 1897 1234 1888 1234

C1882 1234 1881 1235 1878 1240

C1877 1244 1877 1249 1876 1282

C1876 1303 1876 1322 1876 1326

C1878 1336 1885 1340 1893 1336

C1899 1333 1900 1330 1901 1318

L1901 1307

L1913 1307

L1924 1307

L1924 1312

C1924 1319 1921 1331 1918 1338

C1914 1346 1907 1352 1899 1354

C1893 1356 1875 1358 1870 1356

Z

M948 1242

C947 1241 940 1220 930 1197

C921 1173 913 1151 911 1148

C908 1139 881 1069 875 1053

C872 1046 868 1036 867 1031

C861 1016 858 1010 844 974

C831 938 807 877 803 866

C801 862 796 849 792 837

C787 825 782 812 781 809

C779 805 777 798 775 793

C772 788 770 781 768 778

C765 768 698 596 694 584

C692 580 691 577 691 576

L690 574

L689 575

C689 575 682 587 675 601

C653 642 642 663 627 691

C620 706 605 734 594 754

C583 774 571 797 567 806

C562 815 550 837 540 856

C515 904 480 969 469 989

C459 1007 456 1014 457 1025

C459 1051 486 1067 525 1067

L539 1067

L539 1072

C540 1078 540 1106 539 1153

L539 1191

L288 1190

C149 1190 36 1190 36 1190

L36 1189

L38 1184

C45 1158 60 1098 64 1081

C66 1074 67 1069 67 1068

C68 1067 70 1067 73 1067

C76 1067 83 1066 89 1065

C118 1059 137 1044 161 1012

C167 1004 174 994 178 990

C186 980 213 932 309 760

C319 743 331 721 338 710

C351 686 371 651 396 605

C406 587 431 543 451 508

C483 450 504 411 547 335

C562 308 566 297 571 273

C579 231 574 193 555 164

C542 144 522 130 506 128

L500 128

L500 127

C500 127 508 110 517 90

C526 69 534 52 534 52

L534 51

L686 51

C837 52 837 52 856 92

C866 114 879 143 885 157

C897 183 897 183 888 201

C883 211 874 228 869 239

C864 250 855 269 848 282

C837 305 837 305 839 313

C841 317 847 335 853 353

C863 382 885 445 907 512

C922 557 951 642 956 657

C962 675 962 664 959 802

C957 908 956 933 955 983

C954 1012 954 1045 954 1056

C953 1067 953 1101 952 1130

C951 1159 951 1184 950 1185

C950 1186 950 1199 950 1215

L950 1244

L949 1244

L949 1244

L948 1242

Z

M1044 1238

C1043 1234 1041 1174 1040 1118

C1040 1104 1040 1088 1039 1082

C1039 1075 1038 1039 1037 1001

C1037 963 1036 915 1035 893

C1034 871 1034 837 1033 817

C1033 797 1032 757 1031 728

C1030 675 1030 675 1043 636

C1050 614 1061 582 1067 565

C1073 547 1084 514 1092 491

C1100 468 1107 446 1109 441

C1112 433 1132 374 1148 326

C1155 305 1155 305 1153 300

C1151 297 1141 276 1130 253

C1119 230 1107 205 1103 198

C1099 191 1096 184 1096 183

C1096 182 1098 178 1100 174

C1109 153 1125 118 1139 86

C1155 52 1155 52 1306 51

C1458 51 1458 51 1461 59

C1463 63 1471 80 1478 96

C1486 113 1492 127 1492 127

L1492 128

L1488 128

C1475 128 1457 139 1445 153

C1420 183 1411 227 1422 276

C1426 297 1431 309 1442 330

C1448 340 1463 366 1475 388

C1486 409 1500 434 1505 443

C1511 452 1525 477 1537 499

C1548 520 1566 551 1575 567

C1583 582 1600 613 1612 634

C1624 655 1641 685 1650 701

C1659 717 1673 743 1683 760

C1713 813 1784 941 1796 962

C1803 973 1811 985 1814 990

C1818 994 1825 1004 1831 1012

C1849 1037 1865 1051 1883 1059

C1893 1063 1910 1067 1918 1067

L1924 1067

L1925 1069

C1925 1070 1929 1086 1934 1104

C1943 1141 1955 1186 1955 1188

L1956 1190

L1705 1190

C1567 1191 1453 1191 1453 1190

C1453 1190 1453 1162 1453 1129

L1453 1068

L1467 1067

C1499 1067 1523 1056 1531 1038

C1537 1026 1536 1011 1528 998

C1508 961 1442 838 1383 726

C1380 719 1367 695 1355 672

C1342 649 1326 617 1318 602

C1310 587 1303 575 1302 575

L1301 575

L1301 576

C1301 577 1297 587 1293 599

C1288 611 1278 638 1270 659

C1261 679 1254 699 1253 703

C1248 714 1243 726 1235 747

C1231 758 1226 770 1225 775

C1215 799 1191 862 1183 882

C1179 894 1174 906 1173 910

C1171 913 1164 933 1155 954

C1139 997 1135 1007 1131 1016

C1130 1019 1119 1049 1106 1082

C1073 1167 1054 1216 1051 1223

C1050 1226 1048 1232 1047 1236

L1044 1242

L1044 1238

Z

"/>

<path fill="#ffffff" stroke="none" d="
M1135 803

C1134 797 1132 789 1131 786

C1129 775 1123 748 1122 740

C1120 733 1116 711 1110 688

C1109 681 1106 669 1105 660

C1103 651 1099 636 1098 628

C1093 610 1091 588 1090 569

C1089 562 1089 555 1088 554

L1088 552

L1089 555

C1090 556 1092 564 1094 573

C1096 581 1099 591 1100 595

C1102 601 1107 632 1114 672

C1114 675 1116 681 1116 686

C1117 691 1118 697 1119 701

C1120 705 1121 713 1122 719

C1123 725 1125 735 1126 740

C1126 744 1128 754 1129 760

C1130 766 1132 777 1133 784

C1134 790 1135 798 1136 801

C1136 803 1137 807 1138 810

L1138 814

L1138 814

L1137 814

L1135 803

Z

M851 802

C851 800 852 797 852 796

L853 794

L853 797

C853 799 852 802 852 803

L851 806

L851 802

Z

M853 790

C854 784 857 767 863 733

C864 726 866 718 866 714

C867 710 868 704 868 701

C869 697 871 687 872 680

C873 672 875 662 876 659

C876 655 878 646 879 639

C883 613 888 589 892 573

C898 550 900 544 901 543

L901 543

L901 546

C900 548 900 552 900 556

C897 585 895 604 894 605

C894 606 893 612 888 636

C887 641 881 668 879 676

C876 692 871 713 868 728

C866 735 864 746 863 753

C861 759 859 769 857 777

C856 784 854 790 854 792

L853 794

L853 790

Z

M808 728

L808 727

L809 728

L809 729

L809 730

L808 730

L808 728

Z

M1180 722

C1179 720 1176 711 1172 702

C1169 693 1167 685 1166 684

C1166 683 1164 678 1162 673

C1160 668 1157 660 1155 655

C1154 650 1150 639 1147 632

C1144 624 1140 613 1139 608

C1131 587 1127 575 1126 574

C1125 572 1124 567 1122 562

C1120 556 1117 549 1116 546

C1115 543 1112 532 1110 521

C1108 510 1106 499 1105 498

L1105 496

L1105 496

C1106 497 1107 499 1109 502

C1110 505 1112 511 1114 515

C1124 537 1127 547 1138 584

C1140 591 1144 602 1146 608

C1147 614 1151 625 1154 634

C1156 643 1160 656 1163 664

C1165 671 1169 682 1170 689

C1172 695 1176 706 1178 713

C1180 720 1182 726 1182 727

L1181 727

L1180 722

Z

M809 725

C809 725 810 722 811 719

C812 716 816 703 820 690

C824 677 828 662 830 658

C832 653 835 641 838 632

C841 622 845 610 846 604

C848 598 852 587 854 580

C856 573 860 561 862 554

C864 547 866 541 866 540

C866 540 867 537 868 534

C870 531 874 521 878 512

C882 502 885 494 886 494

L886 494

L886 497

C885 499 884 505 883 511

C880 523 879 529 879 532

C877 539 875 544 870 558

C867 566 863 577 862 582

C856 598 850 614 848 620

C847 622 843 633 839 643

C826 682 823 690 822 693

C821 694 819 699 818 704

C816 708 814 715 812 719

L809 727

L809 725

Z

M810 624

C820 601 824 589 831 572

C838 555 841 550 848 538

L850 534

L851 534

C851 535 850 539 848 545

C846 554 842 563 826 596

C815 618 806 636 806 636

L805 636

L810 624

Z

M769 634

C769 633 773 627 778 618

C782 610 788 600 790 596

C793 592 801 577 810 563

C818 548 830 527 836 516

C843 504 851 492 854 488

C857 484 862 478 864 476

C866 474 869 470 870 468

L873 464

L874 464

L874 465

L865 483

C855 502 854 505 837 531

C830 541 819 558 813 567

C807 577 798 591 794 597

C789 604 782 615 778 622

C773 629 770 634 769 634

L769 634

L769 634

Z

M1216 624

C1212 619 1205 608 1200 600

C1195 592 1187 579 1182 572

C1177 564 1168 550 1160 539

C1140 508 1136 502 1127 483

L1118 465

L1118 464

L1119 464

L1123 470

C1126 473 1131 480 1135 485

C1143 494 1148 503 1163 529

C1167 535 1175 550 1182 561

C1188 572 1196 586 1200 593

C1203 599 1210 610 1214 618

L1223 633

L1223 634

L1222 634

L1216 624

Z

M1270 552

C1257 539 1241 524 1213 498

C1169 456 1162 449 1153 439

C1149 433 1143 426 1141 424

C1139 421 1137 419 1137 419

L1137 418

L1153 430

C1169 442 1174 447 1202 477

C1211 487 1225 501 1233 510

C1241 519 1251 529 1255 533

C1259 538 1267 546 1272 551

L1281 561

L1280 561

C1280 561 1275 557 1270 552

Z

M1210 541

C1202 533 1193 523 1191 521

C1189 518 1181 509 1174 502

C1167 494 1157 484 1152 478

C1146 472 1140 464 1139 461

C1137 458 1133 452 1131 448

L1127 441

L1127 440

L1128 440

L1141 453

C1148 460 1158 471 1163 478

C1169 485 1176 495 1181 501

C1185 506 1191 514 1195 519

C1199 523 1203 529 1205 531

C1206 533 1209 537 1212 540

C1214 543 1218 548 1221 551

L1225 557

L1225 557

C1224 557 1218 550 1210 541

Z

M720 549

C723 545 730 538 736 532

C741 526 749 518 753 514

C756 510 768 498 778 487

C787 477 802 461 811 452

C824 438 829 433 843 423

L859 411

L859 412

C859 412 859 413 858 414

C857 414 852 421 845 428

C839 436 829 446 825 451

C802 473 791 482 769 504

C756 516 739 532 731 539

C724 546 717 553 716 554

L714 555

L720 549

Z

M769 549

C771 545 775 540 790 520

C798 511 805 502 828 473

C840 457 844 452 857 441

L864 435

L863 437

C855 452 849 462 841 470

C836 475 830 482 827 485

C824 489 818 496 813 501

C808 506 797 518 788 528

C780 537 771 547 769 549

L766 553

L769 549

Z

M1254 503

C1247 498 1233 488 1224 482

C1208 472 1204 469 1196 459

L1194 456

L1202 460

C1209 464 1219 472 1261 506

C1265 509 1268 511 1268 512

L1268 512

L1268 512

C1268 512 1261 508 1254 503

Z

M1263 479

C1256 475 1246 469 1223 456

C1197 441 1175 429 1168 424

C1160 420 1139 403 1139 402

L1139 401

L1140 401

C1141 402 1147 404 1155 407

C1167 413 1171 415 1202 436

C1208 440 1226 452 1241 463

C1257 473 1270 482 1270 483

L1270 483

L1270 483

C1270 483 1267 481 1263 479

Z

M717 478

C718 477 727 471 737 464

C747 457 759 449 764 446

C768 443 780 435 791 428

C801 420 812 413 814 412

C816 410 821 407 825 406

C832 403 837 401 842 399

L846 397

L847 397

L847 398

L839 405

C825 416 825 416 802 430

C798 432 793 435 789 437

C785 439 776 444 769 448

C762 453 751 459 745 462

C739 465 734 468 734 469

C733 469 730 471 728 472

C726 474 722 476 720 477

L716 479

L717 478

Z

M1337 443

C1335 442 1329 439 1324 437

C1290 424 1286 423 1245 407

C1238 404 1227 399 1221 397

C1195 387 1191 385 1179 379

C1174 376 1167 373 1164 371

C1160 368 1156 366 1156 366

L1155 365

L1156 365

C1156 366 1165 368 1175 370

C1191 375 1197 377 1219 387

C1222 389 1230 392 1236 395

C1247 400 1254 403 1270 411

C1274 413 1279 415 1282 416

C1286 418 1314 431 1334 440

L1345 445

L1343 445

C1342 445 1339 444 1337 443

Z

M1242 435

C1239 433 1232 429 1226 427

C1220 424 1206 417 1195 412

C1184 406 1172 401 1169 399

C1166 398 1160 394 1155 389

L1146 381

L1147 381

C1149 381 1169 389 1174 391

C1181 396 1229 425 1232 426

C1242 432 1250 437 1250 438

L1250 438

L1249 438

C1249 438 1246 437 1242 435

Z

M739 433

C739 433 744 429 751 426

C764 418 797 398 809 390

C814 387 822 383 829 381

C835 379 841 377 841 377

L841 377

L833 385

C828 390 823 393 818 396

C813 398 805 402 800 404

C795 407 779 414 765 421

C750 428 738 434 738 434

L738 434

L739 433

Z

M654 432

C654 432 660 429 666 426

C677 421 688 417 702 410

C705 408 716 403 727 398

C737 394 751 387 757 385

C805 363 801 364 825 358

C831 356 837 355 838 354

L840 354

L840 354

C840 355 838 356 835 357

C833 358 826 362 820 365

C805 374 806 373 726 405

C718 408 708 411 705 413

C701 414 691 418 684 421

C677 424 667 428 662 430

C658 431 654 433 653 433

L653 433

L654 432

Z

M1392 420

L1391 419

L1392 419

C1393 419 1394 419 1395 420

L1395 421

L1394 421

C1394 421 1393 421 1392 420

Z

M1363 412

C1350 408 1335 404 1331 403

C1322 401 1307 396 1292 392

C1280 389 1267 385 1247 380

C1240 378 1231 375 1229 374

C1227 374 1220 372 1216 371

C1211 369 1198 365 1188 360

C1177 355 1167 351 1166 351

L1164 350

L1164 349

C1165 349 1168 350 1172 350

C1183 353 1186 354 1194 356

C1207 358 1213 360 1244 370

C1327 398 1362 409 1375 413

C1383 416 1390 418 1390 419

L1390 419

L1389 419

C1388 419 1376 416 1363 412

Z

M605 407

C607 406 614 404 619 402

C656 390 788 347 794 346

C797 345 804 343 808 343

C811 342 818 340 823 339

L831 337

L831 338

L831 339

L823 342

C818 344 812 347 809 348

C805 350 799 352 794 354

C790 356 786 358 785 358

C784 358 779 359 774 361

C769 362 761 365 755 366

C738 371 726 374 723 375

C720 376 690 384 669 390

C663 392 652 395 644 397

C636 399 627 402 623 403

C614 406 601 409 600 409

L600 409

L605 407

Z

M1307 364

C1292 361 1283 359 1275 358

C1270 357 1264 355 1262 355

C1259 354 1256 354 1254 354

C1252 353 1247 352 1244 351

C1240 351 1228 348 1217 346

C1206 344 1195 342 1192 341

C1181 337 1168 333 1168 332

L1167 331

L1170 331

C1182 331 1200 333 1208 335

C1216 338 1221 339 1241 344

C1244 345 1254 348 1264 350

C1286 357 1297 360 1306 362

C1311 363 1315 364 1315 365

L1315 365

L1313 365

C1312 365 1309 364 1307 364

Z

M673 355

C673 355 678 353 684 352

C690 350 697 348 700 348

C702 347 712 344 722 342

C731 339 742 336 746 335

C790 323 791 323 809 322

L821 321

L820 322

C820 322 814 325 807 327

C795 332 788 334 767 337

C759 339 709 349 690 352

C682 354 675 355 674 356

L672 356

L673 355

Z

M625 332

C627 332 631 331 634 331

C636 330 645 329 654 328

C690 323 693 323 702 324

C707 324 711 325 712 325

L713 326

L703 328

C694 330 690 330 633 333

L622 333

L625 332

Z

M1208 321

C1206 321 1200 320 1195 319

C1189 318 1182 317 1180 317

C1177 316 1173 316 1171 316

L1168 316

L1168 315

C1169 314 1207 312 1221 312

C1248 312 1381 315 1384 316

L1388 317

L1373 317

C1364 317 1343 318 1326 318

C1309 319 1277 319 1257 320

C1236 321 1217 321 1215 321

C1213 322 1210 321 1208 321

Z

M756 309

C743 309 703 308 668 307

C633 306 604 305 604 305

L604 304

L629 304

C753 300 788 299 798 301

C803 301 810 302 814 303

C818 303 823 303 825 304

L827 305

L814 306

C807 307 799 308 797 308

C789 309 781 310 756 309

Z

M1185 299

C1175 299 1166 299 1166 298

L1165 297

L1167 297

C1168 297 1175 296 1182 294

C1195 291 1205 290 1219 289

C1227 288 1243 287 1263 285

C1269 284 1279 284 1284 283

C1288 283 1295 283 1297 282

C1299 282 1305 282 1310 281

C1320 281 1349 278 1357 277

L1363 277

L1362 277

C1361 278 1343 281 1329 283

C1326 283 1316 284 1306 286

C1276 290 1260 292 1244 294

C1235 295 1224 297 1219 298

C1213 298 1207 299 1206 299

C1204 299 1194 299 1185 299

Z

M784 287

C781 287 772 285 764 284

C755 283 745 282 743 281

C741 281 738 281 737 280

C729 279 716 278 707 277

C701 276 692 275 687 274

C676 272 667 271 647 268

C640 268 634 267 634 266

L634 266

L643 266

C647 267 657 267 663 268

C676 269 694 271 713 272

C719 273 731 273 739 274

C746 275 753 275 755 275

C756 275 761 276 766 276

C770 277 778 277 783 277

C787 278 795 279 801 280

C806 281 814 283 819 284

C824 284 828 286 829 286

L831 287

L826 287

C823 287 813 287 804 287

C795 288 786 288 784 287

Z

M1165 278

C1173 274 1194 269 1204 267

C1211 267 1217 266 1217 265

C1217 265 1220 265 1223 264

C1226 264 1233 263 1238 263

C1242 262 1249 261 1252 260

C1255 260 1259 259 1261 259

C1263 259 1270 257 1277 257

C1288 255 1295 254 1306 252

L1311 251

L1311 252

L1311 253

L1309 253

C1308 253 1305 254 1302 254

C1298 255 1292 257 1289 257

C1280 259 1259 264 1244 267

C1238 269 1230 271 1226 271

C1222 272 1213 274 1206 276

C1195 279 1193 279 1178 279

L1163 279

L1165 278

Z

M795 266

C793 265 787 264 782 263

C777 262 772 260 770 260

C766 259 750 256 727 250

C721 249 711 247 704 245

C696 244 689 242 686 242

L682 241

L682 240

C683 240 688 241 711 244

C718 245 727 246 731 247

C743 249 746 249 756 251

C761 251 767 252 768 253

C786 255 806 258 818 262

L832 267

L816 267

C807 267 797 266 795 266

Z

M628 265

L629 265

L630 265

L630 266

L628 266

L627 266

L628 265

Z

M1150 257

C1150 257 1154 255 1159 253

C1163 252 1168 250 1171 249

C1173 248 1177 247 1181 246

C1184 245 1189 244 1191 244

C1196 243 1241 234 1272 229

C1282 227 1292 224 1294 224

C1296 223 1298 223 1299 223

L1299 224

L1296 225

C1294 225 1286 227 1279 230

C1271 232 1262 234 1260 234

C1258 235 1252 237 1248 238

C1243 239 1232 242 1224 244

C1182 256 1180 256 1166 257

C1159 258 1152 258 1151 258

L1149 258

L1150 257

Z

M827 249

C821 249 814 248 813 247

C811 247 804 245 798 243

C791 241 783 239 779 238

C770 235 720 222 704 218

L700 217

L700 216

C701 216 703 216 706 217

C717 219 737 223 746 225

C765 228 769 229 774 230

C776 231 787 233 798 235

C809 237 820 239 823 240

C831 243 848 249 849 250

L849 250

L844 250

C841 250 833 249 827 249

Z

M1139 240

C1139 238 1167 224 1179 220

C1187 217 1202 212 1212 208

C1253 194 1273 187 1277 186

C1279 185 1282 184 1282 184

L1283 184

L1280 185

C1279 186 1265 192 1251 198

C1236 205 1222 211 1221 212

C1219 212 1212 215 1206 218

C1189 225 1180 229 1175 232

C1172 233 1163 235 1156 236

C1148 238 1141 239 1141 240

L1139 240

L1139 240

Z

M850 234

C843 233 836 231 834 230

C823 229 816 227 794 218

C768 209 762 206 743 199

C737 197 723 192 712 188

C701 183 688 179 684 177

C668 171 664 170 664 169

L663 168

L664 168

C664 169 674 172 686 175

C697 179 711 184 717 185

C723 187 733 191 741 193

C786 207 797 211 810 215

C821 219 855 233 857 235

L857 235

L855 235

C854 235 851 234 850 234

Z

M854 218

C849 217 841 214 836 212

C830 210 825 208 825 208

C823 207 804 197 799 194

C797 193 792 191 788 188

C784 186 775 181 768 177

C735 160 695 139 688 135

L683 132

L684 132

C685 133 694 137 704 141

C730 153 731 154 737 157

C739 158 746 161 751 163

C756 166 766 170 772 173

C778 176 787 180 792 182

C797 184 804 188 808 189

C819 194 836 203 840 206

C843 207 849 212 854 215

L864 221

L863 221

C862 221 858 220 854 218

Z

M1133 219

C1135 217 1137 216 1137 216

C1138 216 1143 213 1148 209

C1158 203 1175 194 1185 190

C1187 189 1193 186 1198 184

C1202 182 1206 180 1206 180

C1207 180 1212 178 1219 175

C1225 171 1230 169 1231 169

C1231 169 1234 168 1237 166

C1241 164 1247 161 1251 160

C1255 158 1261 155 1265 153

C1269 151 1280 146 1291 141

L1310 132

L1311 132

L1311 133

L1290 144

C1278 150 1265 157 1262 159

C1258 161 1243 169 1229 176

C1215 184 1200 191 1197 193

C1173 206 1165 210 1157 213

C1152 214 1145 217 1140 218

C1136 220 1131 221 1131 221

L1130 221

L1133 219

Z

M866 205

C863 204 857 201 853 199

C846 196 833 186 798 160

C791 155 781 147 775 143

C769 138 760 131 755 127

L745 120

L745 119

L746 119

L759 128

C773 137 793 150 810 161

C841 180 851 188 862 197

C868 203 873 207 873 208

L873 208

L872 208

C872 208 869 207 866 205

Z

M1125 201

C1127 198 1133 192 1137 188

C1141 183 1146 178 1149 176

C1152 173 1159 167 1166 162

C1172 156 1179 150 1180 149

C1191 141 1222 114 1245 95

L1259 83

L1260 83

L1260 84

L1242 101

C1232 110 1213 128 1200 140

C1169 170 1152 186 1148 188

C1146 190 1139 194 1133 199

L1121 206

L1125 201

Z

M877 195

C876 195 870 190 862 185

C855 181 846 174 842 171

C826 156 760 92 748 81

L740 73

L742 75

C743 76 751 82 759 89

C766 95 776 103 780 107

C784 110 792 117 797 121

C803 126 810 132 813 134

C830 148 852 167 856 171

C858 174 865 180 869 185

L878 195

L878 196

L877 196

L877 195

Z

M1108 190

C1109 188 1112 181 1116 175

C1119 169 1125 160 1129 155

C1135 147 1139 142 1160 116

C1164 109 1172 99 1177 93

C1181 87 1186 81 1188 79

C1190 76 1193 72 1196 69

L1200 63

L1200 63

C1200 64 1196 69 1192 76

C1188 82 1180 94 1175 102

C1129 171 1129 172 1118 183

C1112 188 1107 193 1106 193

L1106 193

L1108 190

Z

M875 172

C866 163 868 167 837 112

C832 103 826 92 824 89

C822 85 820 82 820 81

L820 81

L830 96

C836 104 844 116 849 122

C868 149 874 159 876 162

C876 164 878 167 879 169

C879 170 881 174 882 176

L884 181

L884 181

C884 181 880 177 875 172

Z

M1189 168

C1195 162 1201 157 1209 151

C1222 143 1235 135 1261 118

L1276 108

L1277 108

L1277 109

L1269 115

C1258 123 1239 138 1220 154

C1203 167 1199 169 1182 176

L1181 176

L1189 168

Z

"/>

</svg>

