<?xml version="1.0" encoding="UTF-8" standalone="no"?>
<!DOCTYPE svg PUBLIC "-//W3C//DTD SVG 1.1//EN" "http://www.w3.org/Graphics/SVG/1.1/DTD/svg11.dtd">
<svg width="100%" height="100%" viewBox="0 0 6000 3600" version="1.1" xmlns="http://www.w3.org/2000/svg" xmlns:xlink="http://www.w3.org/1999/xlink" xml:space="preserve" xmlns:serif="http://www.serif.com/" style="fill-rule:evenodd;clip-rule:evenodd;stroke-miterlimit:10;">
    <g transform="matrix(2.55135e-16,-4.16666,4.16666,2.55135e-16,-3891.04,4547.83)">
        <path d="M327.543,2082.45L348.805,2082.45M348.805,2082.45C348.961,2082.45 349.09,2082.32 349.09,2082.16M349.09,2082.16L349.09,2073.66C349.09,2073.82 348.965,2073.95 348.805,2073.95M348.805,2073.95L365.813,2073.95C365.656,2073.95 365.527,2073.82 365.527,2073.66M365.527,2073.66L365.527,2082.16C365.527,2082.32 365.652,2082.45 365.813,2082.45M365.813,2082.45L382.82,2082.45M382.82,2082.45C382.977,2082.45 383.105,2082.32 383.105,2082.16M383.105,2082.16L383.105,2073.66C383.105,2073.82 382.98,2073.95 382.82,2073.95M382.82,2073.95L399.828,2073.95C399.672,2073.95 399.543,2073.82 399.543,2073.66M399.543,2073.66L399.543,2082.16C399.543,2082.32 399.668,2082.45 399.828,2082.45M399.828,2082.45L416.836,2082.45M416.836,2082.45C416.992,2082.45 417.121,2082.32 417.121,2082.16M417.121,2082.16L417.121,2073.66C417.121,2073.82 416.996,2073.95 416.836,2073.95M416.836,2073.95L433.844,2073.95C433.688,2073.95 433.559,2073.82 433.559,2073.66M433.559,2073.66L433.559,2082.16C433.559,2082.32 433.684,2082.45 433.844,2082.45M433.844,2082.45L450.852,2082.45M450.852,2082.45C451.008,2082.45 451.137,2082.32 451.137,2082.16M451.137,2082.16L451.137,2073.66C451.137,2073.82 451.012,2073.95 450.852,2073.95M450.852,2073.95L467.859,2073.95C467.703,2073.95 467.574,2073.82 467.574,2073.66M467.574,2073.66L467.574,2082.16C467.574,2082.32 467.699,2082.45 467.859,2082.45M467.859,2082.45L484.867,2082.45M484.867,2082.45C485.023,2082.45 485.152,2082.32 485.152,2082.16M485.152,2082.16L485.152,2073.66C485.152,2073.82 485.027,2073.95 484.867,2073.95M484.867,2073.95L501.875,2073.95C501.719,2073.95 501.59,2073.82 501.59,2073.66M501.59,2073.66L501.59,2082.16C501.59,2082.32 501.715,2082.45 501.875,2082.45M501.875,2082.45L518.883,2082.45M518.883,2082.45C519.039,2082.45 519.168,2082.32 519.168,2082.16M519.168,2082.16L519.168,2073.66C519.168,2073.82 519.043,2073.95 518.883,2073.95M518.883,2073.95L535.891,2073.95C535.734,2073.95 535.605,2073.82 535.605,2073.66M535.605,2073.66L535.605,2082.16C535.605,2082.32 535.73,2082.45 535.891,2082.45M535.891,2082.45L552.898,2082.45M552.898,2082.45C553.055,2082.45 553.184,2082.32 553.184,2082.16M553.184,2082.16L553.184,2073.66C553.184,2073.82 553.059,2073.95 552.898,2073.95M552.898,2073.95L569.906,2073.95C569.75,2073.95 569.621,2073.82 569.621,2073.66M569.621,2073.66L569.621,2082.16C569.621,2082.32 569.746,2082.45 569.906,2082.45M569.906,2082.45L586.914,2082.45M586.914,2082.45C587.07,2082.45 587.199,2082.32 587.199,2082.16M587.199,2082.16L587.199,2073.66C587.199,2073.82 587.074,2073.95 586.914,2073.95M586.914,2073.95L603.922,2073.95C603.766,2073.95 603.637,2073.82 603.637,2073.66M603.637,2073.66L603.637,2082.16C603.637,2082.32 603.762,2082.45 603.922,2082.45M603.922,2082.45L620.93,2082.45M620.93,2082.45C621.086,2082.45 621.215,2082.32 621.215,2082.16M621.215,2082.16L621.215,2073.66C621.215,2073.82 621.09,2073.95 620.93,2073.95M620.93,2073.95L637.938,2073.95C637.781,2073.95 637.652,2073.82 637.652,2073.66M637.652,2073.66L637.652,2082.16C637.652,2082.32 637.777,2082.45 637.938,2082.45M637.938,2082.45L654.945,2082.45M654.945,2082.45C655.102,2082.45 655.23,2082.32 655.23,2082.16M655.23,2082.16L655.23,2073.66C655.23,2073.82 655.105,2073.95 654.945,2073.95M654.945,2073.95L671.953,2073.95C671.797,2073.95 671.668,2073.82 671.668,2073.66M671.668,2073.66L671.668,2082.16C671.668,2082.32 671.793,2082.45 671.953,2082.45M671.953,2082.45L688.961,2082.45M688.961,2082.45C689.117,2082.45 689.246,2082.32 689.246,2082.16M689.246,2082.16L689.246,2073.66C689.246,2073.82 689.121,2073.95 688.961,2073.95M688.961,2073.95L705.969,2073.95C705.813,2073.95 705.684,2073.82 705.684,2073.66M705.684,2073.66L705.684,2082.16C705.684,2082.32 705.809,2082.45 705.969,2082.45M705.969,2082.45L722.977,2082.45M722.977,2082.45C723.133,2082.45 723.262,2082.32 723.262,2082.16M723.262,2082.16L723.262,2073.66C723.262,2073.82 723.137,2073.95 722.977,2073.95M722.977,2073.95L739.984,2073.95C739.828,2073.95 739.699,2073.82 739.699,2073.66M739.699,2073.66L739.699,2082.16C739.699,2082.32 739.824,2082.45 739.984,2082.45M739.984,2082.45L756.992,2082.45M756.992,2082.45C757.148,2082.45 757.277,2082.32 757.277,2082.16M757.277,2082.16L757.277,2073.66C757.277,2073.82 757.152,2073.95 756.992,2073.95M756.992,2073.95L774,2073.95C773.844,2073.95 773.715,2073.82 773.715,2073.66M773.715,2073.66L773.715,2082.16C773.715,2082.32 773.84,2082.45 774,2082.45M774,2082.45L791.008,2082.45M791.008,2082.45C791.164,2082.45 791.293,2082.32 791.293,2082.16M791.293,2082.16L791.293,2073.66C791.293,2073.82 791.168,2073.95 791.008,2073.95M791.008,2073.95L808.016,2073.95C807.859,2073.95 807.73,2073.82 807.73,2073.66M807.73,2073.66L807.73,2082.16C807.73,2082.32 807.855,2082.45 808.016,2082.45M808.016,2082.45L825.023,2082.45M825.023,2082.45C825.18,2082.45 825.309,2082.32 825.309,2082.16M825.309,2082.16L825.309,2073.66C825.309,2073.82 825.184,2073.95 825.023,2073.95M825.023,2073.95L842.031,2073.95C841.875,2073.95 841.746,2073.82 841.746,2073.66M841.746,2073.66L841.746,2082.16C841.746,2082.32 841.871,2082.45 842.031,2082.45M842.031,2082.45L859.039,2082.45M859.039,2082.45C859.195,2082.45 859.324,2082.32 859.324,2082.16M859.324,2082.16L859.324,2073.66C859.324,2073.82 859.199,2073.95 859.039,2073.95M859.039,2073.95L876.047,2073.95C875.891,2073.95 875.762,2073.82 875.762,2073.66M875.762,2073.66L875.762,2082.16C875.762,2082.32 875.887,2082.45 876.047,2082.45M876.047,2082.45L893.055,2082.45M893.055,2082.45C893.211,2082.45 893.34,2082.32 893.34,2082.16M893.34,2082.16L893.34,2073.66C893.34,2073.82 893.215,2073.95 893.055,2073.95M893.055,2073.95L910.063,2073.95C909.906,2073.95 909.777,2073.82 909.777,2073.66M909.777,2073.66L909.777,2082.16C909.777,2082.32 909.902,2082.45 910.063,2082.45M910.063,2082.45L927.07,2082.45M927.07,2082.45C927.227,2082.45 927.355,2082.32 927.355,2082.16M927.355,2082.16L927.355,2073.66C927.355,2073.82 927.23,2073.95 927.07,2073.95M927.07,2073.95L944.078,2073.95C943.922,2073.95 943.793,2073.82 943.793,2073.66M943.793,2073.66L943.793,2082.16C943.793,2082.32 943.918,2082.45 944.078,2082.45M944.078,2082.45L961.086,2082.45M961.086,2082.45C961.242,2082.45 961.371,2082.32 961.371,2082.16M961.371,2082.16L961.371,2073.66C961.371,2073.82 961.246,2073.95 961.086,2073.95M961.086,2073.95L978.094,2073.95C977.938,2073.95 977.809,2073.82 977.809,2073.66M977.809,2073.66L977.809,2082.16C977.809,2082.32 977.934,2082.45 978.094,2082.45M978.094,2082.45L995.102,2082.45M995.102,2082.45C995.258,2082.45 995.387,2082.32 995.387,2082.16M995.387,2082.16L995.387,2073.66C995.387,2073.82 995.262,2073.95 995.102,2073.95M995.102,2073.95L1012.11,2073.95C1011.95,2073.95 1011.82,2073.82 1011.82,2073.66M1011.82,2073.66L1011.82,2082.16C1011.82,2082.32 1011.95,2082.45 1012.11,2082.45M1012.11,2082.45L1033.37,2082.45M1033.37,2082.45C1033.53,2082.45 1033.66,2082.32 1033.66,2082.16M1033.66,2082.16L1033.66,2073.66M1033.66,2073.66L1033.66,2056.65M1033.66,2056.65C1033.66,2056.81 1033.53,2056.94 1033.37,2056.94M1033.37,2056.94L1041.88,2056.94C1042.03,2056.94 1042.16,2056.81 1042.16,2056.65M1042.16,2056.65L1042.16,2039.65C1042.16,2039.49 1042.04,2039.36 1041.88,2039.36M1041.88,2039.36L1033.37,2039.36C1033.53,2039.36 1033.66,2039.48 1033.66,2039.65M1033.66,2039.65L1033.66,2022.64M1033.66,2022.64C1033.66,2022.79 1033.53,2022.92 1033.37,2022.92M1033.37,2022.92L1041.88,2022.92C1042.03,2022.92 1042.16,2022.8 1042.16,2022.64M1042.16,2022.64L1042.16,2005.63C1042.16,2005.47 1042.04,2005.34 1041.88,2005.34M1041.88,2005.34L1033.37,2005.34C1033.53,2005.34 1033.66,2005.47 1033.66,2005.63M1033.66,2005.63L1033.66,1988.62M1033.66,1988.62C1033.66,1988.78 1033.53,1988.91 1033.37,1988.91M1033.37,1988.91L1041.88,1988.91C1042.03,1988.91 1042.16,1988.78 1042.16,1988.62M1042.16,1988.62L1042.16,1971.61C1042.16,1971.46 1042.04,1971.33 1041.88,1971.33M1041.88,1971.33L1033.37,1971.33C1033.53,1971.33 1033.66,1971.45 1033.66,1971.61M1033.66,1971.61L1033.66,1954.61M1033.66,1954.61C1033.66,1954.76 1033.53,1954.89 1033.37,1954.89M1033.37,1954.89L1041.88,1954.89C1042.03,1954.89 1042.16,1954.77 1042.16,1954.61M1042.16,1954.61L1042.16,1937.6C1042.16,1937.44 1042.04,1937.31 1041.88,1937.31M1041.88,1937.31L1033.37,1937.31C1033.53,1937.31 1033.66,1937.44 1033.66,1937.6M1033.66,1937.6L1033.66,1920.59M1033.66,1920.59C1033.66,1920.75 1033.53,1920.88 1033.37,1920.88M1033.37,1920.88L1041.88,1920.88C1042.03,1920.88 1042.16,1920.75 1042.16,1920.59M1042.16,1920.59L1042.16,1903.58C1042.16,1903.43 1042.04,1903.3 1041.88,1903.3M1041.88,1903.3L1033.37,1903.3C1033.53,1903.3 1033.66,1903.42 1033.66,1903.58M1033.66,1903.58L1033.66,1886.57M1033.66,1886.57C1033.66,1886.73 1033.53,1886.86 1033.37,1886.86M1033.37,1886.86L1041.88,1886.86C1042.03,1886.86 1042.16,1886.73 1042.16,1886.57M1042.16,1886.57L1042.16,1869.57C1042.16,1869.41 1042.04,1869.28 1041.88,1869.28M1041.88,1869.28L1033.37,1869.28C1033.53,1869.28 1033.66,1869.41 1033.66,1869.57M1033.66,1869.57L1033.66,1852.56M1033.66,1852.56C1033.66,1852.72 1033.53,1852.84 1033.37,1852.84M1033.37,1852.84L1041.88,1852.84C1042.03,1852.84 1042.16,1852.72 1042.16,1852.56M1042.16,1852.56L1042.16,1835.55C1042.16,1835.4 1042.04,1835.27 1041.88,1835.27M1041.88,1835.27L1033.37,1835.27C1033.53,1835.27 1033.66,1835.39 1033.66,1835.55M1033.66,1835.55L1033.66,1818.54M1033.66,1818.54C1033.66,1818.7 1033.53,1818.83 1033.37,1818.83M1033.37,1818.83L1041.88,1818.83C1042.03,1818.83 1042.16,1818.7 1042.16,1818.54M1042.16,1818.54L1042.16,1801.54C1042.16,1801.38 1042.04,1801.25 1041.88,1801.25M1041.88,1801.25L1033.37,1801.25C1033.53,1801.25 1033.66,1801.38 1033.66,1801.54M1033.66,1801.54L1033.66,1784.53M1033.66,1784.53C1033.66,1784.68 1033.53,1784.81 1033.37,1784.81M1033.37,1784.81L1041.88,1784.81C1042.03,1784.81 1042.16,1784.69 1042.16,1784.53M1042.16,1784.53L1042.16,1767.52C1042.16,1767.36 1042.04,1767.23 1041.88,1767.23M1041.88,1767.23L1033.37,1767.23C1033.53,1767.23 1033.66,1767.36 1033.66,1767.52M1033.66,1767.52L1033.66,1750.51M1033.66,1750.51C1033.66,1750.67 1033.53,1750.8 1033.37,1750.8M1033.37,1750.8L1041.88,1750.8C1042.03,1750.8 1042.16,1750.67 1042.16,1750.51M1042.16,1750.51L1042.16,1733.5C1042.16,1733.35 1042.04,1733.22 1041.88,1733.22M1041.88,1733.22L1033.37,1733.22C1033.53,1733.22 1033.66,1733.34 1033.66,1733.5M1033.66,1733.5L1033.66,1716.5M1033.66,1716.5C1033.66,1716.65 1033.53,1716.78 1033.37,1716.78M1033.37,1716.78L1041.88,1716.78C1042.03,1716.78 1042.16,1716.66 1042.16,1716.5M1042.16,1716.5L1042.16,1699.49C1042.16,1699.33 1042.04,1699.2 1041.88,1699.2M1041.88,1699.2L1033.37,1699.2C1033.53,1699.2 1033.66,1699.33 1033.66,1699.49M1033.66,1699.49L1033.66,1682.48M1033.66,1682.48C1033.66,1682.64 1033.53,1682.77 1033.37,1682.77M1033.37,1682.77L1041.88,1682.77C1042.03,1682.77 1042.16,1682.64 1042.16,1682.48M1042.16,1682.48L1042.16,1665.47C1042.16,1665.32 1042.04,1665.19 1041.88,1665.19M1041.88,1665.19L1033.37,1665.19C1033.53,1665.19 1033.66,1665.31 1033.66,1665.47M1033.66,1665.47L1033.66,1648.47M1033.66,1648.47C1033.66,1648.62 1033.53,1648.75 1033.37,1648.75M1033.37,1648.75L1041.88,1648.75C1042.03,1648.75 1042.16,1648.63 1042.16,1648.47M1042.16,1648.47L1042.16,1631.46C1042.16,1631.3 1042.04,1631.17 1041.88,1631.17M1041.88,1631.17L1033.37,1631.17C1033.53,1631.17 1033.66,1631.3 1033.66,1631.46M1033.66,1631.46L1033.66,1614.45M1033.66,1614.45C1033.66,1614.61 1033.53,1614.73 1033.37,1614.73M1033.37,1614.73L1041.88,1614.73C1042.03,1614.73 1042.16,1614.61 1042.16,1614.45M1042.16,1614.45L1042.16,1597.44C1042.16,1597.29 1042.04,1597.16 1041.88,1597.16M1041.88,1597.16L1033.37,1597.16C1033.53,1597.16 1033.66,1597.28 1033.66,1597.44M1033.66,1597.44L1033.66,1580.43M1033.66,1580.43C1033.66,1580.59 1033.53,1580.72 1033.37,1580.72M1033.37,1580.72L1041.88,1580.72C1042.03,1580.72 1042.16,1580.59 1042.16,1580.43M1042.16,1580.43L1042.16,1563.43C1042.16,1563.27 1042.04,1563.14 1041.88,1563.14M1041.88,1563.14L1033.37,1563.14C1033.53,1563.14 1033.66,1563.27 1033.66,1563.43M1033.66,1563.43L1033.66,1546.42M1033.66,1546.42C1033.66,1546.57 1033.53,1546.7 1033.37,1546.7M1033.37,1546.7L1041.88,1546.7C1042.03,1546.7 1042.16,1546.58 1042.16,1546.42M1042.16,1546.42L1042.16,1529.41C1042.16,1529.25 1042.04,1529.13 1041.88,1529.13M1041.88,1529.13L1033.37,1529.13C1033.53,1529.13 1033.66,1529.25 1033.66,1529.41M1033.66,1529.41L1033.66,1512.4M1033.66,1512.4C1033.66,1512.56 1033.53,1512.69 1033.37,1512.69M1033.37,1512.69L1041.88,1512.69C1042.03,1512.69 1042.16,1512.56 1042.16,1512.4M1042.16,1512.4L1042.16,1495.4C1042.16,1495.24 1042.04,1495.11 1041.88,1495.11M1041.88,1495.11L1033.37,1495.11C1033.53,1495.11 1033.66,1495.23 1033.66,1495.4M1033.66,1495.4L1033.66,1478.39M1033.66,1478.39C1033.66,1478.54 1033.53,1478.67 1033.37,1478.67M1033.37,1478.67L1041.88,1478.67C1042.03,1478.67 1042.16,1478.55 1042.16,1478.39M1042.16,1478.39L1042.16,1461.38C1042.16,1461.22 1042.04,1461.09 1041.88,1461.09M1041.88,1461.09L1033.37,1461.09C1033.53,1461.09 1033.66,1461.22 1033.66,1461.38M1033.66,1461.38L1033.66,1444.37M1033.66,1444.37C1033.66,1444.53 1033.53,1444.66 1033.37,1444.66M1033.37,1444.66L1041.88,1444.66C1042.03,1444.66 1042.16,1444.53 1042.16,1444.37M1042.16,1444.37L1042.16,1427.36C1042.16,1427.21 1042.04,1427.08 1041.88,1427.08M1041.88,1427.08L1033.37,1427.08C1033.53,1427.08 1033.66,1427.2 1033.66,1427.36M1033.66,1427.36L1033.66,1410.36M1033.66,1410.36C1033.66,1410.51 1033.53,1410.64 1033.37,1410.64M1033.37,1410.64L1041.88,1410.64C1042.03,1410.64 1042.16,1410.52 1042.16,1410.36M1042.16,1410.36L1042.16,1393.35C1042.16,1393.19 1042.04,1393.06 1041.88,1393.06M1041.88,1393.06L1033.37,1393.06C1033.53,1393.06 1033.66,1393.19 1033.66,1393.35M1033.66,1393.35L1033.66,1376.34M1033.66,1376.34C1033.66,1376.5 1033.53,1376.63 1033.37,1376.63M1033.37,1376.63L1041.88,1376.63C1042.03,1376.63 1042.16,1376.5 1042.16,1376.34M1042.16,1376.34L1042.16,1359.33C1042.16,1359.18 1042.04,1359.05 1041.88,1359.05M1041.88,1359.05L1033.37,1359.05C1033.53,1359.05 1033.66,1359.17 1033.66,1359.33M1033.66,1359.33L1033.66,1342.32M1033.66,1342.32C1033.66,1342.48 1033.53,1342.61 1033.37,1342.61M1033.37,1342.61L1041.88,1342.61C1042.03,1342.61 1042.16,1342.48 1042.16,1342.32M1042.16,1342.32L1042.16,1325.32C1042.16,1325.16 1042.04,1325.03 1041.88,1325.03M1041.88,1325.03L1033.37,1325.03C1033.53,1325.03 1033.66,1325.16 1033.66,1325.32M1033.66,1325.32L1033.66,1308.31M1033.66,1308.31C1033.66,1308.47 1033.53,1308.59 1033.37,1308.59M1033.37,1308.59L1041.88,1308.59C1042.03,1308.59 1042.16,1308.47 1042.16,1308.31M1042.16,1308.31L1042.16,1291.3C1042.16,1291.15 1042.04,1291.02 1041.88,1291.02M1041.88,1291.02L1033.37,1291.02C1033.53,1291.02 1033.66,1291.14 1033.66,1291.3M1033.66,1291.3L1033.66,1274.29M1033.66,1274.29C1033.66,1274.45 1033.53,1274.58 1033.37,1274.58M1033.37,1274.58L1041.88,1274.58C1042.03,1274.58 1042.16,1274.45 1042.16,1274.29M1042.16,1274.29L1042.16,1257.29C1042.16,1257.13 1042.04,1257 1041.88,1257M1041.88,1257L1033.37,1257C1033.53,1257 1033.66,1257.13 1033.66,1257.29M1033.66,1257.29L1033.66,1231.49M652.111,1231.49L327.26,1231.49M327.258,1231.49L327.258,1257.29M327.258,1257.29C327.258,1257.13 327.383,1257 327.543,1257M327.543,1257L319.039,1257C318.883,1257 318.754,1257.13 318.754,1257.29M318.754,1257.29L318.754,1274.29C318.754,1274.45 318.879,1274.58 319.039,1274.58M319.039,1274.58L327.543,1274.58C327.387,1274.58 327.258,1274.45 327.258,1274.29M327.258,1274.29L327.258,1291.3M327.258,1291.3C327.258,1291.15 327.383,1291.02 327.543,1291.02M327.543,1291.02L319.039,1291.02C318.883,1291.02 318.754,1291.14 318.754,1291.3M318.754,1291.3L318.754,1308.31C318.754,1308.47 318.879,1308.59 319.039,1308.59M319.039,1308.59L327.543,1308.59C327.387,1308.59 327.258,1308.47 327.258,1308.31M327.258,1308.31L327.258,1325.32M327.258,1325.32C327.258,1325.16 327.383,1325.03 327.543,1325.03M327.543,1325.03L319.039,1325.03C318.883,1325.03 318.754,1325.16 318.754,1325.32M318.754,1325.32L318.754,1342.32C318.754,1342.48 318.879,1342.61 319.039,1342.61M319.039,1342.61L327.543,1342.61C327.387,1342.61 327.258,1342.48 327.258,1342.32M327.258,1342.32L327.258,1359.33M327.258,1359.33C327.258,1359.18 327.383,1359.05 327.543,1359.05M327.543,1359.05L319.039,1359.05C318.883,1359.05 318.754,1359.17 318.754,1359.33M318.754,1359.33L318.754,1376.34C318.754,1376.5 318.879,1376.63 319.039,1376.63M319.039,1376.63L327.543,1376.63C327.387,1376.63 327.258,1376.5 327.258,1376.34M327.258,1376.34L327.258,1393.35M327.258,1393.35C327.258,1393.19 327.383,1393.06 327.543,1393.06M327.543,1393.06L319.039,1393.06C318.883,1393.06 318.754,1393.19 318.754,1393.35M318.754,1393.35L318.754,1410.36C318.754,1410.51 318.879,1410.64 319.039,1410.64M319.039,1410.64L327.543,1410.64C327.387,1410.64 327.258,1410.52 327.258,1410.36M327.258,1410.36L327.258,1427.36M327.258,1427.36C327.258,1427.21 327.383,1427.08 327.543,1427.08M327.543,1427.08L319.039,1427.08C318.883,1427.08 318.754,1427.2 318.754,1427.36M318.754,1427.36L318.754,1444.37C318.754,1444.53 318.879,1444.66 319.039,1444.66M319.039,1444.66L327.543,1444.66C327.387,1444.66 327.258,1444.53 327.258,1444.37M327.258,1444.37L327.258,1461.38M327.258,1461.38C327.258,1461.22 327.383,1461.09 327.543,1461.09M327.543,1461.09L319.039,1461.09C318.883,1461.09 318.754,1461.22 318.754,1461.38M318.754,1461.38L318.754,1478.39C318.754,1478.54 318.879,1478.67 319.039,1478.67M319.039,1478.67L327.543,1478.67C327.387,1478.67 327.258,1478.55 327.258,1478.39M327.258,1478.39L327.258,1495.4M327.258,1495.4C327.258,1495.24 327.383,1495.11 327.543,1495.11M327.543,1495.11L319.039,1495.11C318.883,1495.11 318.754,1495.23 318.754,1495.4M318.754,1495.4L318.754,1512.4C318.754,1512.56 318.879,1512.69 319.039,1512.69M319.039,1512.69L327.543,1512.69C327.387,1512.69 327.258,1512.56 327.258,1512.4M327.258,1512.4L327.258,1529.41M327.258,1529.41C327.258,1529.25 327.383,1529.13 327.543,1529.13M327.543,1529.13L319.039,1529.13C318.883,1529.13 318.754,1529.25 318.754,1529.41M318.754,1529.41L318.754,1546.42C318.754,1546.57 318.879,1546.7 319.039,1546.7M319.039,1546.7L327.543,1546.7C327.387,1546.7 327.258,1546.58 327.258,1546.42M327.258,1546.42L327.258,1563.43M327.258,1563.43C327.258,1563.27 327.383,1563.14 327.543,1563.14M327.543,1563.14L319.039,1563.14C318.883,1563.14 318.754,1563.27 318.754,1563.43M318.754,1563.43L318.754,1580.43C318.754,1580.59 318.879,1580.72 319.039,1580.72M319.039,1580.72L327.543,1580.72C327.387,1580.72 327.258,1580.59 327.258,1580.43M327.258,1580.43L327.258,1597.44M327.258,1597.44C327.258,1597.29 327.383,1597.16 327.543,1597.16M327.543,1597.16L319.039,1597.16C318.883,1597.16 318.754,1597.28 318.754,1597.44M318.754,1597.44L318.754,1614.45C318.754,1614.61 318.879,1614.73 319.039,1614.73M319.039,1614.73L327.543,1614.73C327.387,1614.73 327.258,1614.61 327.258,1614.45M327.258,1614.45L327.258,1631.46M327.258,1631.46C327.258,1631.3 327.383,1631.17 327.543,1631.17M327.543,1631.17L319.039,1631.17C318.883,1631.17 318.754,1631.3 318.754,1631.46M318.754,1631.46L318.754,1648.47C318.754,1648.62 318.879,1648.75 319.039,1648.75M319.039,1648.75L327.543,1648.75C327.387,1648.75 327.258,1648.63 327.258,1648.47M327.258,1648.47L327.258,1665.47M327.258,1665.47C327.258,1665.32 327.383,1665.19 327.543,1665.19M327.543,1665.19L319.039,1665.19C318.883,1665.19 318.754,1665.31 318.754,1665.47M318.754,1665.47L318.754,1682.48C318.754,1682.64 318.879,1682.77 319.039,1682.77M319.039,1682.77L327.543,1682.77C327.387,1682.77 327.258,1682.64 327.258,1682.48M327.258,1682.48L327.258,1699.49M327.258,1699.49C327.258,1699.33 327.383,1699.2 327.543,1699.2M327.543,1699.2L319.039,1699.2C318.883,1699.2 318.754,1699.33 318.754,1699.49M318.754,1699.49L318.754,1716.5C318.754,1716.65 318.879,1716.78 319.039,1716.78M319.039,1716.78L327.543,1716.78C327.387,1716.78 327.258,1716.66 327.258,1716.5M327.258,1716.5L327.258,1733.5M327.258,1733.5C327.258,1733.35 327.383,1733.22 327.543,1733.22M327.543,1733.22L319.039,1733.22C318.883,1733.22 318.754,1733.34 318.754,1733.5M318.754,1733.5L318.754,1750.51C318.754,1750.67 318.879,1750.8 319.039,1750.8M319.039,1750.8L327.543,1750.8C327.387,1750.8 327.258,1750.67 327.258,1750.51M327.258,1750.51L327.258,1767.52M327.258,1767.52C327.258,1767.36 327.383,1767.23 327.543,1767.23M327.543,1767.23L319.039,1767.23C318.883,1767.23 318.754,1767.36 318.754,1767.52M318.754,1767.52L318.754,1784.53C318.754,1784.68 318.879,1784.81 319.039,1784.81M319.039,1784.81L327.543,1784.81C327.387,1784.81 327.258,1784.69 327.258,1784.53M327.258,1784.53L327.258,1801.54M327.258,1801.54C327.258,1801.38 327.383,1801.25 327.543,1801.25M327.543,1801.25L319.039,1801.25C318.883,1801.25 318.754,1801.38 318.754,1801.54M318.754,1801.54L318.754,1818.54C318.754,1818.7 318.879,1818.83 319.039,1818.83M319.039,1818.83L327.543,1818.83C327.387,1818.83 327.258,1818.7 327.258,1818.54M327.258,1818.54L327.258,1835.55M327.258,1835.55C327.258,1835.4 327.383,1835.27 327.543,1835.27M327.543,1835.27L319.039,1835.27C318.883,1835.27 318.754,1835.39 318.754,1835.55M318.754,1835.55L318.754,1852.56C318.754,1852.72 318.879,1852.84 319.039,1852.84M319.039,1852.84L327.543,1852.84C327.387,1852.84 327.258,1852.72 327.258,1852.56M327.258,1852.56L327.258,1869.57M327.258,1869.57C327.258,1869.41 327.383,1869.28 327.543,1869.28M327.543,1869.28L319.039,1869.28C318.883,1869.28 318.754,1869.41 318.754,1869.57M318.754,1869.57L318.754,1886.57C318.754,1886.73 318.879,1886.86 319.039,1886.86M319.039,1886.86L327.543,1886.86C327.387,1886.86 327.258,1886.73 327.258,1886.57M327.258,1886.57L327.258,1903.58M327.258,1903.58C327.258,1903.43 327.383,1903.3 327.543,1903.3M327.543,1903.3L319.039,1903.3C318.883,1903.3 318.754,1903.42 318.754,1903.58M318.754,1903.58L318.754,1920.59C318.754,1920.75 318.879,1920.88 319.039,1920.88M319.039,1920.88L327.543,1920.88C327.387,1920.88 327.258,1920.75 327.258,1920.59M327.258,1920.59L327.258,1937.6M327.258,1937.6C327.258,1937.44 327.383,1937.31 327.543,1937.31M327.543,1937.31L319.039,1937.31C318.883,1937.31 318.754,1937.44 318.754,1937.6M318.754,1937.6L318.754,1954.61C318.754,1954.76 318.879,1954.89 319.039,1954.89M319.039,1954.89L327.543,1954.89C327.387,1954.89 327.258,1954.77 327.258,1954.61M327.258,1954.61L327.258,1971.61M327.258,1971.61C327.258,1971.46 327.383,1971.33 327.543,1971.33M327.543,1971.33L319.039,1971.33C318.883,1971.33 318.754,1971.45 318.754,1971.61M318.754,1971.61L318.754,1988.62C318.754,1988.78 318.879,1988.91 319.039,1988.91M319.039,1988.91L327.543,1988.91C327.387,1988.91 327.258,1988.78 327.258,1988.62M327.258,1988.62L327.258,2005.63M327.258,2005.63C327.258,2005.47 327.383,2005.34 327.543,2005.34M327.543,2005.34L319.039,2005.34C318.883,2005.34 318.754,2005.47 318.754,2005.63M318.754,2005.63L318.754,2022.64C318.754,2022.79 318.879,2022.92 319.039,2022.92M319.039,2022.92L327.543,2022.92C327.387,2022.92 327.258,2022.8 327.258,2022.64M327.258,2022.64L327.258,2039.65M327.258,2039.65C327.258,2039.49 327.383,2039.36 327.543,2039.36M327.543,2039.36L319.039,2039.36C318.883,2039.36 318.754,2039.48 318.754,2039.65M318.754,2039.65L318.754,2056.65C318.754,2056.81 318.879,2056.94 319.039,2056.94M319.039,2056.94L327.543,2056.94C327.387,2056.94 327.258,2056.81 327.258,2056.65M327.258,2056.65L327.258,2073.66M327.258,2073.66L327.258,2082.16C327.258,2082.32 327.383,2082.45 327.543,2082.45" style="fill:none;stroke:black;stroke-width:0.14px;"/>
    </g>
    <g transform="matrix(1,0,0,1,-510.827,-318.898)">
        <path d="M1497.05,714.19C1509.92,689.838 1535.52,673.228 1564.96,673.228C1594.4,673.228 1620,689.838 1632.87,714.19L1632.87,785.81C1620,810.162 1594.4,826.772 1564.96,826.772C1535.52,826.772 1509.92,810.162 1497.05,785.81L1497.05,714.19Z" style="fill:none;stroke:black;stroke-width:0.42px;stroke-linecap:round;stroke-linejoin:round;stroke-miterlimit:1.5;"/>
    </g>
    <g transform="matrix(1.26471,0,0,1,-328.277,0)">
        <path d="M1240.16,240.945L945.981,240.945L945.981,625.984" style="fill:none;stroke:black;stroke-width:0.37px;stroke-linecap:round;stroke-linejoin:round;stroke-miterlimit:1.5;"/>
    </g>
    <path d="M868.11,625.984C868.11,658.578 951.465,685.039 1054.13,685.039C1156.8,685.039 1240.16,711.501 1240.16,744.094" style="fill:none;stroke:black;stroke-width:0.42px;stroke-linecap:round;stroke-linejoin:round;stroke-miterlimit:1.5;"/>
    <g transform="matrix(1,0,0,1,-259.843,413.386)">
        <path d="M1500,1181.1L1535.43,1181.1L1535.43,1417.32L1500,1417.32" style="fill:none;stroke:rgb(0,0,255);stroke-width:0.83px;stroke-linecap:round;stroke-linejoin:round;stroke-miterlimit:1.5;"/>
    </g>
    <g transform="matrix(3.31579,0,0,3.78947,-2871.94,-4447.78)">
        <path d="M1240.16,1594.49L1240.16,1370.08" style="fill:none;stroke:black;stroke-width:0.12px;stroke-linecap:round;stroke-linejoin:round;stroke-miterlimit:1.5;"/>
    </g>
</svg>
