<?xml version="1.0" encoding="UTF-8" standalone="no"?>
<!DOCTYPE svg PUBLIC "-//W3C//DTD SVG 1.1//EN" "http://www.w3.org/Graphics/SVG/1.1/DTD/svg11.dtd">
<svg width="100%" height="100%" viewBox="0 0 6000 3600" version="1.1" xmlns="http://www.w3.org/2000/svg" xmlns:xlink="http://www.w3.org/1999/xlink" xml:space="preserve" xmlns:serif="http://www.serif.com/" style="fill-rule:evenodd;clip-rule:evenodd;stroke-miterlimit:10;">
    <g transform="matrix(2.55134e-16,-4.16665,4.16665,2.55134e-16,-32.3767,4460.43)">
        <path d="M327.543,1057.16L348.805,1057.16M348.805,1057.16C348.961,1057.16 349.09,1057.04 349.09,1056.88M349.09,1056.88L349.09,1048.37C349.09,1048.53 348.965,1048.66 348.805,1048.66M348.805,1048.66L365.813,1048.66C365.656,1048.66 365.527,1048.53 365.527,1048.37M365.527,1048.37L365.527,1056.88C365.527,1057.03 365.652,1057.16 365.813,1057.16M365.813,1057.16L382.82,1057.16M382.82,1057.16C382.977,1057.16 383.105,1057.04 383.105,1056.88M383.105,1056.88L383.105,1048.37C383.105,1048.53 382.98,1048.66 382.82,1048.66M382.82,1048.66L399.828,1048.66C399.672,1048.66 399.543,1048.53 399.543,1048.37M399.543,1048.37L399.543,1056.88C399.543,1057.03 399.668,1057.16 399.828,1057.16M399.828,1057.16L416.836,1057.16M416.836,1057.16C416.992,1057.16 417.121,1057.04 417.121,1056.88M417.121,1056.88L417.121,1048.37C417.121,1048.53 416.996,1048.66 416.836,1048.66M416.836,1048.66L433.844,1048.66C433.688,1048.66 433.559,1048.53 433.559,1048.37M433.559,1048.37L433.559,1056.88C433.559,1057.03 433.684,1057.16 433.844,1057.16M433.844,1057.16L450.852,1057.16M450.852,1057.16C451.008,1057.16 451.137,1057.04 451.137,1056.88M451.137,1056.88L451.137,1048.37C451.137,1048.53 451.012,1048.66 450.852,1048.66M450.852,1048.66L467.859,1048.66C467.703,1048.66 467.574,1048.53 467.574,1048.37M467.574,1048.37L467.574,1056.88C467.574,1057.03 467.699,1057.16 467.859,1057.16M467.859,1057.16L484.867,1057.16M484.867,1057.16C485.023,1057.16 485.152,1057.04 485.152,1056.88M485.152,1056.88L485.152,1048.37C485.152,1048.53 485.027,1048.66 484.867,1048.66M484.867,1048.66L501.875,1048.66C501.719,1048.66 501.59,1048.53 501.59,1048.37M501.59,1048.37L501.59,1056.88C501.59,1057.03 501.715,1057.16 501.875,1057.16M501.875,1057.16L518.883,1057.16M518.883,1057.16C519.039,1057.16 519.168,1057.04 519.168,1056.88M519.168,1056.88L519.168,1048.37C519.168,1048.53 519.043,1048.66 518.883,1048.66M518.883,1048.66L535.891,1048.66C535.734,1048.66 535.605,1048.53 535.605,1048.37M535.605,1048.37L535.605,1056.88C535.605,1057.03 535.73,1057.16 535.891,1057.16M535.891,1057.16L552.898,1057.16M552.898,1057.16C553.055,1057.16 553.184,1057.04 553.184,1056.88M553.184,1056.88L553.184,1048.37C553.184,1048.53 553.059,1048.66 552.898,1048.66M552.898,1048.66L569.906,1048.66C569.75,1048.66 569.621,1048.53 569.621,1048.37M569.621,1048.37L569.621,1056.88C569.621,1057.03 569.746,1057.16 569.906,1057.16M569.906,1057.16L586.914,1057.16M586.914,1057.16C587.07,1057.16 587.199,1057.04 587.199,1056.88M587.199,1056.88L587.199,1048.37C587.199,1048.53 587.074,1048.66 586.914,1048.66M586.914,1048.66L603.922,1048.66C603.766,1048.66 603.637,1048.53 603.637,1048.37M603.637,1048.37L603.637,1056.88C603.637,1057.03 603.762,1057.16 603.922,1057.16M603.922,1057.16L620.93,1057.16M620.93,1057.16C621.086,1057.16 621.215,1057.04 621.215,1056.88M621.215,1056.88L621.215,1048.37C621.215,1048.53 621.09,1048.66 620.93,1048.66M620.93,1048.66L637.938,1048.66C637.781,1048.66 637.652,1048.53 637.652,1048.37M637.652,1048.37L637.652,1056.88C637.652,1057.03 637.777,1057.16 637.938,1057.16M637.938,1057.16L654.945,1057.16M654.945,1057.16C655.102,1057.16 655.23,1057.04 655.23,1056.88M655.23,1056.88L655.23,1048.37C655.23,1048.53 655.105,1048.66 654.945,1048.66M654.945,1048.66L671.953,1048.66C671.797,1048.66 671.668,1048.53 671.668,1048.37M671.668,1048.37L671.668,1056.88C671.668,1057.03 671.793,1057.16 671.953,1057.16M671.953,1057.16L688.961,1057.16M688.961,1057.16C689.117,1057.16 689.246,1057.04 689.246,1056.88M689.246,1056.88L689.246,1048.37C689.246,1048.53 689.121,1048.66 688.961,1048.66M688.961,1048.66L705.969,1048.66C705.813,1048.66 705.684,1048.53 705.684,1048.37M705.684,1048.37L705.684,1056.88C705.684,1057.03 705.809,1057.16 705.969,1057.16M705.969,1057.16L722.977,1057.16M722.977,1057.16C723.133,1057.16 723.262,1057.04 723.262,1056.88M723.262,1056.88L723.262,1048.37C723.262,1048.53 723.137,1048.66 722.977,1048.66M722.977,1048.66L739.984,1048.66C739.828,1048.66 739.699,1048.53 739.699,1048.37M739.699,1048.37L739.699,1056.88C739.699,1057.03 739.824,1057.16 739.984,1057.16M739.984,1057.16L756.992,1057.16M756.992,1057.16C757.148,1057.16 757.277,1057.04 757.277,1056.88M757.277,1056.88L757.277,1048.37C757.277,1048.53 757.152,1048.66 756.992,1048.66M756.992,1048.66L774,1048.66C773.844,1048.66 773.715,1048.53 773.715,1048.37M773.715,1048.37L773.715,1056.88C773.715,1057.03 773.84,1057.16 774,1057.16M774,1057.16L791.008,1057.16M791.008,1057.16C791.164,1057.16 791.293,1057.04 791.293,1056.88M791.293,1056.88L791.293,1048.37C791.293,1048.53 791.168,1048.66 791.008,1048.66M791.008,1048.66L808.016,1048.66C807.859,1048.66 807.73,1048.53 807.73,1048.37M807.73,1048.37L807.73,1056.88C807.73,1057.03 807.855,1057.16 808.016,1057.16M808.016,1057.16L825.023,1057.16M825.023,1057.16C825.18,1057.16 825.309,1057.04 825.309,1056.88M825.309,1056.88L825.309,1048.37C825.309,1048.53 825.184,1048.66 825.023,1048.66M825.023,1048.66L842.031,1048.66C841.875,1048.66 841.746,1048.53 841.746,1048.37M841.746,1048.37L841.746,1056.88C841.746,1057.03 841.871,1057.16 842.031,1057.16M842.031,1057.16L859.039,1057.16M859.039,1057.16C859.195,1057.16 859.324,1057.04 859.324,1056.88M859.324,1056.88L859.324,1048.37C859.324,1048.53 859.199,1048.66 859.039,1048.66M859.039,1048.66L876.047,1048.66C875.891,1048.66 875.762,1048.53 875.762,1048.37M875.762,1048.37L875.762,1056.88C875.762,1057.03 875.887,1057.16 876.047,1057.16M876.047,1057.16L893.055,1057.16M893.055,1057.16C893.211,1057.16 893.34,1057.04 893.34,1056.88M893.34,1056.88L893.34,1048.37C893.34,1048.53 893.215,1048.66 893.055,1048.66M893.055,1048.66L910.063,1048.66C909.906,1048.66 909.777,1048.53 909.777,1048.37M909.777,1048.37L909.777,1056.88C909.777,1057.03 909.902,1057.16 910.063,1057.16M910.063,1057.16L927.07,1057.16M927.07,1057.16C927.227,1057.16 927.355,1057.04 927.355,1056.88M927.355,1056.88L927.355,1048.37C927.355,1048.53 927.23,1048.66 927.07,1048.66M927.07,1048.66L944.078,1048.66C943.922,1048.66 943.793,1048.53 943.793,1048.37M943.793,1048.37L943.793,1056.88C943.793,1057.03 943.918,1057.16 944.078,1057.16M944.078,1057.16L961.086,1057.16M961.086,1057.16C961.242,1057.16 961.371,1057.04 961.371,1056.88M961.371,1056.88L961.371,1048.37C961.371,1048.53 961.246,1048.66 961.086,1048.66M961.086,1048.66L978.094,1048.66C977.938,1048.66 977.809,1048.53 977.809,1048.37M977.809,1048.37L977.809,1056.88C977.809,1057.03 977.934,1057.16 978.094,1057.16M978.094,1057.16L995.102,1057.16M995.102,1057.16C995.258,1057.16 995.387,1057.04 995.387,1056.88M995.387,1056.88L995.387,1048.37C995.387,1048.53 995.262,1048.66 995.102,1048.66M995.102,1048.66L1012.11,1048.66C1011.95,1048.66 1011.82,1048.53 1011.82,1048.37M1011.82,1048.37L1011.82,1056.88C1011.82,1057.03 1011.95,1057.16 1012.11,1057.16M1012.11,1057.16L1033.37,1057.16M1033.37,1057.16C1033.53,1057.16 1033.66,1057.04 1033.66,1056.88M1033.66,1056.88L1033.66,1048.37M1033.66,1048.37L1033.66,1031.36M1033.66,1031.36C1033.66,1031.52 1033.53,1031.65 1033.37,1031.65M1033.37,1031.65L1041.88,1031.65C1042.03,1031.65 1042.16,1031.52 1042.16,1031.36M1042.16,1031.36L1042.16,1014.36C1042.16,1014.2 1042.04,1014.07 1041.88,1014.07M1041.88,1014.07L1033.37,1014.07C1033.53,1014.07 1033.66,1014.2 1033.66,1014.36M1033.66,1014.36L1033.66,997.347M1033.66,997.347C1033.66,997.504 1033.53,997.632 1033.37,997.632M1033.37,997.632L1041.88,997.632C1042.03,997.632 1042.16,997.507 1042.16,997.347M1042.16,997.347L1042.16,980.339C1042.16,980.183 1042.04,980.054 1041.88,980.054M1041.88,980.054L1033.37,980.054C1033.53,980.054 1033.66,980.179 1033.66,980.339M1033.66,980.339L1033.66,963.332M1033.66,963.332C1033.66,963.488 1033.53,963.617 1033.37,963.617M1033.37,963.617L1041.88,963.617C1042.03,963.617 1042.16,963.492 1042.16,963.332M1042.16,963.332L1042.16,946.324C1042.16,946.168 1042.04,946.039 1041.88,946.039M1041.88,946.039L1033.37,946.039C1033.53,946.039 1033.66,946.164 1033.66,946.324M1033.66,946.324L1033.66,929.316M1033.66,929.316C1033.66,929.472 1033.53,929.601 1033.37,929.601M1033.37,929.601L1041.88,929.601C1042.03,929.601 1042.16,929.476 1042.16,929.316M1042.16,929.316L1042.16,912.308C1042.16,912.152 1042.04,912.023 1041.88,912.023M1041.88,912.023L1033.37,912.023C1033.53,912.023 1033.66,912.148 1033.66,912.308M1033.66,912.308L1033.66,895.3M1033.66,895.3C1033.66,895.457 1033.53,895.586 1033.37,895.586M1033.37,895.586L1041.88,895.586C1042.03,895.586 1042.16,895.461 1042.16,895.3M1042.16,895.3L1042.16,878.293C1042.16,878.136 1042.04,878.007 1041.88,878.007M1041.88,878.007L1033.37,878.007C1033.53,878.007 1033.66,878.132 1033.66,878.293M1033.66,878.293L1033.66,861.285M1033.66,861.285C1033.66,861.441 1033.53,861.57 1033.37,861.57M1033.37,861.57L1041.88,861.57C1042.03,861.57 1042.16,861.445 1042.16,861.285M1042.16,861.285L1042.16,844.277C1042.16,844.121 1042.04,843.992 1041.88,843.992M1041.88,843.992L1033.37,843.992C1033.53,843.992 1033.66,844.117 1033.66,844.277M1033.66,844.277L1033.66,827.269M1033.66,827.269C1033.66,827.425 1033.53,827.554 1033.37,827.554M1033.37,827.554L1041.88,827.554C1042.03,827.554 1042.16,827.429 1042.16,827.269M1042.16,827.269L1042.16,810.261C1042.16,810.105 1042.04,809.976 1041.88,809.976M1041.88,809.976L1033.37,809.976C1033.53,809.976 1033.66,810.101 1033.66,810.261M1033.66,810.261L1033.66,793.254M1033.66,793.254C1033.66,793.41 1033.53,793.539 1033.37,793.539M1033.37,793.539L1041.88,793.539C1042.03,793.539 1042.16,793.414 1042.16,793.254M1042.16,793.254L1042.16,776.246C1042.16,776.089 1042.04,775.961 1041.88,775.961M1041.88,775.961L1033.37,775.961C1033.53,775.961 1033.66,776.086 1033.66,776.246M1033.66,776.246L1033.66,759.238M1033.66,759.238C1033.66,759.394 1033.53,759.523 1033.37,759.523M1033.37,759.523L1041.88,759.523C1042.03,759.523 1042.16,759.398 1042.16,759.238M1042.16,759.238L1042.16,742.23C1042.16,742.074 1042.04,741.945 1041.88,741.945M1041.88,741.945L1033.37,741.945C1033.53,741.945 1033.66,742.07 1033.66,742.23M1033.66,742.23L1033.66,725.222M1033.66,725.222C1033.66,725.379 1033.53,725.507 1033.37,725.507M1033.37,725.507L1041.88,725.507C1042.03,725.507 1042.16,725.382 1042.16,725.222M1042.16,725.222L1042.16,708.214C1042.16,708.058 1042.04,707.929 1041.88,707.929M1041.88,707.929L1033.37,707.929C1033.53,707.929 1033.66,708.054 1033.66,708.214M1033.66,708.214L1033.66,691.207M1033.66,691.207C1033.66,691.363 1033.53,691.492 1033.37,691.492M1033.37,691.492L1041.88,691.492C1042.03,691.492 1042.16,691.367 1042.16,691.207M1042.16,691.207L1042.16,674.199C1042.16,674.043 1042.04,673.914 1041.88,673.914M1041.88,673.914L1033.37,673.914C1033.53,673.914 1033.66,674.039 1033.66,674.199M1033.66,674.199L1033.66,657.191M1033.66,657.191C1033.66,657.347 1033.53,657.476 1033.37,657.476M1033.37,657.476L1041.88,657.476C1042.03,657.476 1042.16,657.351 1042.16,657.191M1042.16,657.191L1042.16,640.183C1042.16,640.027 1042.04,639.898 1041.88,639.898M1041.88,639.898L1033.37,639.898C1033.53,639.898 1033.66,640.023 1033.66,640.183M1033.66,640.183L1033.66,623.175M1033.66,623.175C1033.66,623.332 1033.53,623.461 1033.37,623.461M1033.37,623.461L1041.88,623.461C1042.03,623.461 1042.16,623.336 1042.16,623.175M1042.16,623.175L1042.16,606.168C1042.16,606.011 1042.04,605.882 1041.88,605.882M1041.88,605.882L1033.37,605.882C1033.53,605.882 1033.66,606.007 1033.66,606.168M1033.66,606.168L1033.66,589.16M1033.66,589.16C1033.66,589.316 1033.53,589.445 1033.37,589.445M1033.37,589.445L1041.88,589.445C1042.03,589.445 1042.16,589.32 1042.16,589.16M1042.16,589.16L1042.16,572.152C1042.16,571.996 1042.04,571.867 1041.88,571.867M1041.88,571.867L1033.37,571.867C1033.53,571.867 1033.66,571.992 1033.66,572.152M1033.66,572.152L1033.66,555.144M1033.66,555.144C1033.66,555.3 1033.53,555.429 1033.37,555.429M1033.37,555.429L1041.88,555.429C1042.03,555.429 1042.16,555.304 1042.16,555.144M1042.16,555.144L1042.16,538.136C1042.16,537.98 1042.04,537.851 1041.88,537.851M1041.88,537.851L1033.37,537.851C1033.53,537.851 1033.66,537.976 1033.66,538.136M1033.66,538.136L1033.66,521.129M1033.66,521.129C1033.66,521.285 1033.53,521.414 1033.37,521.414M1033.37,521.414L1041.88,521.414C1042.03,521.414 1042.16,521.289 1042.16,521.129M1042.16,521.129L1042.16,504.121C1042.16,503.964 1042.04,503.836 1041.88,503.836M1041.88,503.836L1033.37,503.836C1033.53,503.836 1033.66,503.961 1033.66,504.121M1033.66,504.121L1033.66,487.113M1033.66,487.113C1033.66,487.269 1033.53,487.398 1033.37,487.398M1033.37,487.398L1041.88,487.398C1042.03,487.398 1042.16,487.273 1042.16,487.113M1042.16,487.113L1042.16,470.105C1042.16,469.949 1042.04,469.82 1041.88,469.82M1041.88,469.82L1033.37,469.82C1033.53,469.82 1033.66,469.945 1033.66,470.105M1033.66,470.105L1033.66,453.097M1033.66,453.097C1033.66,453.254 1033.53,453.382 1033.37,453.382M1033.37,453.382L1041.88,453.382C1042.03,453.382 1042.16,453.257 1042.16,453.097M1042.16,453.097L1042.16,436.089C1042.16,435.933 1042.04,435.804 1041.88,435.804M1041.88,435.804L1033.37,435.804C1033.53,435.804 1033.66,435.929 1033.66,436.089M1033.66,436.089L1033.66,419.082M1033.66,419.082C1033.66,419.238 1033.53,419.367 1033.37,419.367M1033.37,419.367L1041.88,419.367C1042.03,419.367 1042.16,419.242 1042.16,419.082M1042.16,419.082L1042.16,402.074C1042.16,401.918 1042.04,401.789 1041.88,401.789M1041.88,401.789L1033.37,401.789C1033.53,401.789 1033.66,401.914 1033.66,402.074M1033.66,402.074L1033.66,385.066M1033.66,385.066C1033.66,385.222 1033.53,385.351 1033.37,385.351M1033.37,385.351L1041.88,385.351C1042.03,385.351 1042.16,385.226 1042.16,385.066M1042.16,385.066L1042.16,368.058C1042.16,367.902 1042.04,367.773 1041.88,367.773M1041.88,367.773L1033.37,367.773C1033.53,367.773 1033.66,367.898 1033.66,368.058M1033.66,368.058L1033.66,351.05M1033.66,351.05C1033.66,351.207 1033.53,351.336 1033.37,351.336M1033.37,351.336L1041.88,351.336C1042.03,351.336 1042.16,351.211 1042.16,351.05M1042.16,351.05L1042.16,334.043C1042.16,333.886 1042.04,333.757 1041.88,333.757M1041.88,333.757L1033.37,333.757C1033.53,333.757 1033.66,333.882 1033.66,334.043M1033.66,334.043L1033.66,317.035M1033.66,317.035C1033.66,317.191 1033.53,317.32 1033.37,317.32M1033.37,317.32L1041.88,317.32C1042.03,317.32 1042.16,317.195 1042.16,317.035M1042.16,317.035L1042.16,300.027C1042.16,299.871 1042.04,299.742 1041.88,299.742M1041.88,299.742L1033.37,299.742C1033.53,299.742 1033.66,299.867 1033.66,300.027M1033.66,300.027L1033.66,283.019M1033.66,283.019C1033.66,283.175 1033.53,283.304 1033.37,283.304M1033.37,283.304L1041.88,283.304C1042.03,283.304 1042.16,283.179 1042.16,283.019M1042.16,283.019L1042.16,266.011C1042.16,265.855 1042.04,265.726 1041.88,265.726M1041.88,265.726L1033.37,265.726C1033.53,265.726 1033.66,265.851 1033.66,266.011M1033.66,266.011L1033.66,249.004M1033.66,249.004C1033.66,249.16 1033.53,249.289 1033.37,249.289M1033.37,249.289L1041.88,249.289C1042.03,249.289 1042.16,249.164 1042.16,249.004M1042.16,249.004L1042.16,231.996C1042.16,231.839 1042.04,231.711 1041.88,231.711M1041.88,231.711L1033.37,231.711C1033.53,231.711 1033.66,231.836 1033.66,231.996M1033.66,231.996L1033.66,214.988M1033.66,214.988C1033.66,215.144 1033.53,215.273 1033.37,215.273M1033.37,215.273L1041.88,215.273C1042.03,215.273 1042.16,215.148 1042.16,214.988M1042.16,214.988L1042.16,197.98C1042.16,197.824 1042.04,197.695 1041.88,197.695M1041.88,197.695L1033.37,197.695C1033.53,197.695 1033.66,197.82 1033.66,197.98M1033.66,197.98L1033.66,180.972M1033.66,180.972C1033.66,181.129 1033.53,181.257 1033.37,181.257M1033.37,181.257L1041.88,181.257C1042.03,181.257 1042.16,181.132 1042.16,180.972M1042.16,180.972L1042.16,163.964C1042.16,163.808 1042.04,163.679 1041.88,163.679M1041.88,163.679L1033.37,163.679C1033.53,163.679 1033.66,163.804 1033.66,163.964M1033.66,163.964L1033.66,146.957M1033.66,146.957C1033.66,147.113 1033.53,147.242 1033.37,147.242M1033.37,147.242L1041.88,147.242C1042.03,147.242 1042.16,147.117 1042.16,146.957M1042.16,146.957L1042.16,129.949C1042.16,129.793 1042.04,129.664 1041.88,129.664M1041.88,129.664L1033.37,129.664C1033.53,129.664 1033.66,129.789 1033.66,129.949M1033.66,129.949L1033.66,112.941M1033.66,112.941C1033.66,113.097 1033.53,113.226 1033.37,113.226M1033.37,113.226L1041.88,113.226C1042.03,113.226 1042.16,113.101 1042.16,112.941M1042.16,112.941L1042.16,95.933C1042.16,95.777 1042.04,95.648 1041.88,95.648M1041.88,95.648L1033.37,95.648C1033.53,95.648 1033.66,95.773 1033.66,95.933M1033.66,95.933L1033.66,78.927M1033.66,78.927C1033.66,79.077 1033.53,79.207 1033.37,79.207M1033.37,79.207L1041.88,79.207C1042.03,79.207 1042.16,79.087 1042.16,78.927M1042.16,78.927L1042.16,61.917C1042.16,61.757 1042.04,61.637 1041.88,61.637M1041.88,61.637L1033.37,61.637C1033.53,61.637 1033.66,61.757 1033.66,61.917M1033.66,61.917L1033.66,44.907M1033.66,44.907L1033.66,36.407C1033.66,36.247 1033.53,36.117 1033.37,36.117M1033.37,36.117L1012.11,36.117M1012.11,36.117C1011.95,36.117 1011.82,36.247 1011.82,36.407M1011.82,36.407L1011.82,44.907C1011.82,44.757 1011.95,44.627 1012.11,44.627M1012.11,44.627L995.102,44.627C995.258,44.627 995.387,44.747 995.387,44.907M995.387,44.907L995.387,36.407C995.387,36.247 995.262,36.117 995.102,36.117M995.102,36.117L978.094,36.117M978.094,36.117C977.938,36.117 977.809,36.247 977.809,36.407M977.809,36.407L977.809,44.907C977.809,44.757 977.934,44.627 978.094,44.627M978.094,44.627L961.086,44.627C961.242,44.627 961.371,44.747 961.371,44.907M961.371,44.907L961.371,36.407C961.371,36.247 961.246,36.117 961.086,36.117M961.086,36.117L944.078,36.117M944.078,36.117C943.922,36.117 943.793,36.247 943.793,36.407M943.793,36.407L943.793,44.907C943.793,44.757 943.918,44.627 944.078,44.627M944.078,44.627L927.07,44.627C927.227,44.627 927.355,44.747 927.355,44.907M927.355,44.907L927.355,36.407C927.355,36.247 927.23,36.117 927.07,36.117M927.07,36.117L910.063,36.117M910.063,36.117C909.906,36.117 909.777,36.247 909.777,36.407M909.777,36.407L909.777,44.907C909.777,44.757 909.902,44.627 910.063,44.627M910.063,44.627L893.055,44.627C893.211,44.627 893.34,44.747 893.34,44.907M893.34,44.907L893.34,36.407C893.34,36.247 893.215,36.117 893.055,36.117M893.055,36.117L876.047,36.117M876.047,36.117C875.891,36.117 875.762,36.247 875.762,36.407M875.762,36.407L875.762,44.907C875.762,44.757 875.887,44.627 876.047,44.627M876.047,44.627L859.039,44.627C859.195,44.627 859.324,44.747 859.324,44.907M859.324,44.907L859.324,36.407C859.324,36.247 859.199,36.117 859.039,36.117M859.039,36.117L842.031,36.117M842.031,36.117C841.875,36.117 841.746,36.247 841.746,36.407M841.746,36.407L841.746,44.907C841.746,44.757 841.871,44.627 842.031,44.627M842.031,44.627L825.023,44.627C825.18,44.627 825.309,44.747 825.309,44.907M825.309,44.907L825.309,36.407C825.309,36.247 825.184,36.117 825.023,36.117M825.023,36.117L808.016,36.117M808.016,36.117C807.859,36.117 807.73,36.247 807.73,36.407M807.73,36.407L807.73,44.907C807.73,44.757 807.855,44.627 808.016,44.627M808.016,44.627L791.008,44.627C791.164,44.627 791.293,44.747 791.293,44.907M791.293,44.907L791.293,36.407C791.293,36.247 791.168,36.117 791.008,36.117M791.008,36.117L774,36.117M774,36.117C773.844,36.117 773.715,36.247 773.715,36.407M773.715,36.407L773.715,44.907C773.715,44.757 773.84,44.627 774,44.627M774,44.627L756.992,44.627C757.148,44.627 757.277,44.747 757.277,44.907M757.277,44.907L757.277,36.407C757.277,36.247 757.152,36.117 756.992,36.117M756.992,36.117L739.984,36.117M739.984,36.117C739.828,36.117 739.699,36.247 739.699,36.407M739.699,36.407L739.699,44.907C739.699,44.757 739.824,44.627 739.984,44.627M739.984,44.627L722.977,44.627C723.133,44.627 723.262,44.747 723.262,44.907M723.262,44.907L723.262,36.407C723.262,36.247 723.137,36.117 722.977,36.117M722.977,36.117L705.969,36.117M705.969,36.117C705.813,36.117 705.684,36.247 705.684,36.407M705.684,36.407L705.684,44.907C705.684,44.757 705.809,44.627 705.969,44.627M705.969,44.627L688.961,44.627C689.117,44.627 689.246,44.747 689.246,44.907M689.246,44.907L689.246,36.407C689.246,36.247 689.121,36.117 688.961,36.117M688.961,36.117L671.953,36.117M671.953,36.117C671.797,36.117 671.668,36.247 671.668,36.407M671.668,36.407L671.668,44.907C671.668,44.757 671.793,44.627 671.953,44.627M671.953,44.627L654.945,44.627C655.102,44.627 655.23,44.747 655.23,44.907M655.23,44.907L655.23,36.407C655.23,36.247 655.105,36.117 654.945,36.117M654.945,36.117L637.938,36.117M637.938,36.117C637.781,36.117 637.652,36.247 637.652,36.407M637.652,36.407L637.652,44.907C637.652,44.757 637.777,44.627 637.938,44.627M637.938,44.627L620.93,44.627C621.086,44.627 621.215,44.747 621.215,44.907M621.215,44.907L621.215,36.407C621.215,36.247 621.09,36.117 620.93,36.117M620.93,36.117L603.922,36.117M603.922,36.117C603.766,36.117 603.637,36.247 603.637,36.407M603.637,36.407L603.637,44.907C603.637,44.757 603.762,44.627 603.922,44.627M603.922,44.627L586.914,44.627C587.07,44.627 587.199,44.747 587.199,44.907M587.199,44.907L587.199,36.407C587.199,36.247 587.074,36.117 586.914,36.117M586.914,36.117L569.906,36.117M569.906,36.117C569.75,36.117 569.621,36.247 569.621,36.407M569.621,36.407L569.621,44.907C569.621,44.757 569.746,44.627 569.906,44.627M569.906,44.627L552.898,44.627C553.055,44.627 553.184,44.747 553.184,44.907M553.184,44.907L553.184,36.407C553.184,36.247 553.059,36.117 552.898,36.117M552.898,36.117L535.891,36.117M535.891,36.117C535.734,36.117 535.605,36.247 535.605,36.407M535.605,36.407L535.605,44.907C535.605,44.757 535.73,44.627 535.891,44.627M535.891,44.627L518.883,44.627C519.039,44.627 519.168,44.747 519.168,44.907M519.168,44.907L519.168,36.407C519.168,36.247 519.043,36.117 518.883,36.117M518.883,36.117L501.875,36.117M501.875,36.117C501.719,36.117 501.59,36.247 501.59,36.407M501.59,36.407L501.59,44.907C501.59,44.757 501.715,44.627 501.875,44.627M501.875,44.627L484.867,44.627C485.023,44.627 485.152,44.747 485.152,44.907M485.152,44.907L485.152,36.407C485.152,36.247 485.027,36.117 484.867,36.117M484.867,36.117L467.859,36.117M467.859,36.117C467.703,36.117 467.574,36.247 467.574,36.407M467.574,36.407L467.574,44.907C467.574,44.757 467.699,44.627 467.859,44.627M467.859,44.627L450.852,44.627C451.008,44.627 451.137,44.747 451.137,44.907M451.137,44.907L451.137,36.407C451.137,36.247 451.012,36.117 450.852,36.117M450.852,36.117L433.844,36.117M433.844,36.117C433.688,36.117 433.559,36.247 433.559,36.407M433.559,36.407L433.559,44.907C433.559,44.757 433.684,44.627 433.844,44.627M433.844,44.627L416.836,44.627C416.992,44.627 417.121,44.747 417.121,44.907M417.121,44.907L417.121,36.407C417.121,36.247 416.996,36.117 416.836,36.117M416.836,36.117L399.828,36.117M399.828,36.117C399.672,36.117 399.543,36.247 399.543,36.407M399.543,36.407L399.543,44.907C399.543,44.757 399.668,44.627 399.828,44.627M399.828,44.627L382.82,44.627C382.977,44.627 383.105,44.747 383.105,44.907M383.105,44.907L383.105,36.407C383.105,36.247 382.98,36.117 382.82,36.117M382.82,36.117L365.813,36.117M365.813,36.117C365.656,36.117 365.527,36.247 365.527,36.407M365.527,36.407L365.527,44.907C365.527,44.757 365.652,44.627 365.813,44.627M365.813,44.627L348.805,44.627C348.961,44.627 349.09,44.747 349.09,44.907M349.09,44.907L349.09,36.407C349.09,36.247 348.965,36.117 348.805,36.117M348.805,36.117L327.543,36.117M327.543,36.117C327.387,36.117 327.258,36.247 327.258,36.407M327.258,36.407L327.258,44.907M327.258,44.907L327.258,61.917M327.258,61.917C327.258,61.757 327.383,61.637 327.543,61.637M327.543,61.637L319.039,61.637C318.883,61.637 318.754,61.757 318.754,61.917M318.754,61.917L318.754,78.927C318.754,79.077 318.879,79.207 319.039,79.207M319.039,79.207L327.543,79.207C327.387,79.207 327.258,79.087 327.258,78.927M327.258,78.927L327.258,95.933M327.258,95.933C327.258,95.777 327.383,95.648 327.543,95.648M327.543,95.648L319.039,95.648C318.883,95.648 318.754,95.773 318.754,95.933M318.754,95.933L318.754,112.941C318.754,113.097 318.879,113.226 319.039,113.226M319.039,113.226L327.543,113.226C327.387,113.226 327.258,113.101 327.258,112.941M327.258,112.941L327.258,129.949M327.258,129.949C327.258,129.793 327.383,129.664 327.543,129.664M327.543,129.664L318.754,129.661M318.754,147.242L318.754,861.285C318.754,861.441 318.879,861.57 319.039,861.57M319.039,861.57L327.543,861.57C327.387,861.57 327.258,861.445 327.258,861.285M327.258,861.285L327.258,878.293M327.258,878.293C327.258,878.136 327.383,878.007 327.543,878.007M327.543,878.007L319.039,878.007C318.883,878.007 318.754,878.132 318.754,878.293M318.754,878.293L318.754,895.3C318.754,895.457 318.879,895.586 319.039,895.586M319.039,895.586L327.543,895.586C327.387,895.586 327.258,895.461 327.258,895.3M327.258,895.3L327.258,912.308M327.258,912.308C327.258,912.152 327.383,912.023 327.543,912.023M327.543,912.023L319.039,912.023C318.883,912.023 318.754,912.148 318.754,912.308M318.754,912.308L318.754,929.316C318.754,929.472 318.879,929.601 319.039,929.601M319.039,929.601L327.543,929.601C327.387,929.601 327.258,929.476 327.258,929.316M327.258,929.316L327.258,946.324M327.258,946.324C327.258,946.168 327.383,946.039 327.543,946.039M327.543,946.039L319.039,946.039C318.883,946.039 318.754,946.164 318.754,946.324M318.754,946.324L318.754,963.332C318.754,963.488 318.879,963.617 319.039,963.617M319.039,963.617L327.543,963.617C327.387,963.617 327.258,963.492 327.258,963.332M327.258,963.332L327.258,980.339M327.258,980.339C327.258,980.183 327.383,980.054 327.543,980.054M327.543,980.054L319.039,980.054C318.883,980.054 318.754,980.179 318.754,980.339M318.754,980.339L318.754,997.347C318.754,997.504 318.879,997.632 319.039,997.632M319.039,997.632L327.543,997.632C327.387,997.632 327.258,997.507 327.258,997.347M327.258,997.347L327.258,1014.36M327.258,1014.36C327.258,1014.2 327.383,1014.07 327.543,1014.07M327.543,1014.07L319.039,1014.07C318.883,1014.07 318.754,1014.2 318.754,1014.36M318.754,1014.36L318.754,1031.36C318.754,1031.52 318.879,1031.65 319.039,1031.65M319.039,1031.65L327.543,1031.65C327.387,1031.65 327.258,1031.52 327.258,1031.36M327.258,1031.36L327.258,1048.37M327.258,1048.37L327.258,1056.88C327.258,1057.03 327.383,1057.16 327.543,1057.16" style="fill:none;stroke:black;stroke-width:0.14px;"/>
    </g>
    <g transform="matrix(0.986956,0,0,2.57955,153.284,-4458.98)">
        <path d="M3448.82,1889.76L3448.82,2929.13" style="fill:none;stroke:rgb(255,0,0);stroke-width:0.21px;stroke-linecap:round;stroke-linejoin:round;stroke-miterlimit:1.5;"/>
    </g>
    <g transform="matrix(1,0,0,2.61364,-2867.72,-4523.4)">
        <path d="M6424.84,1889.76L3448.82,1889.76L3448.82,2929.13" style="fill:none;stroke:rgb(255,0,0);stroke-width:0.21px;stroke-linecap:round;stroke-linejoin:round;stroke-miterlimit:1.5;"/>
    </g>
    <g transform="matrix(1.83697e-17,0.3,-0.3,1.83697e-17,4118.5,2740.16)">
        <path d="M545.121,463.373C502.456,445.559 472.441,403.422 472.441,354.331C472.441,289.144 525.364,236.22 590.551,236.22C655.738,236.22 708.661,289.144 708.661,354.331C708.661,403.422 678.646,445.559 635.982,463.373L708.661,826.772L472.441,826.772L545.121,463.373Z" style="fill:none;stroke:rgb(255,0,0);stroke-width:13.89px;stroke-linecap:round;stroke-linejoin:round;stroke-miterlimit:1.5;"/>
    </g>
    <g transform="matrix(1.03371,0,0,1.03371,129.391,-115.341)">
        <path d="M366.142,3141.73L437.008,3141.73" style="fill:none;stroke:black;stroke-width:0.4px;stroke-linecap:round;stroke-linejoin:round;stroke-miterlimit:1.5;"/>
    </g>
    <g id="Lid-Artwork-1" serif:id="Lid Artwork 1">
        <g transform="matrix(6.7276e-16,10.987,-10.987,6.7276e-16,3139.26,434.261)">
            <path d="M27,45L17,45L17,44C17,44 18,42 19,41C20,40 23,36 25,33C30,26 30,26 25,19L24,17L20,19C18,20 15,21 14,21L12,22L11,20L11,19L13,19C17,19 25,14 29,9C31,6 34,3 34,3L35,3L35,4C35,5 30,12 29,13L28,14L30,17C31,19 32,21 32,21C33,21 35,18 37,15C40,11 42,8 43,8C43,8 45,10 46,13C47,15 49,17 49,17C52,17 60,11 60,9L60,8L61,8C63,8 67,14 67,16L67,17L66,17C66,17 65,17 64,16L63,15L57,19C53,21 49,23 49,23C49,23 48,21 46,19C45,17 44,15 43,14L39,20C35,26 35,26 37,30L38,33L37,34L36,36L34,33L32,31C30,33 26,40 26,40L26,41L59,41L59,40C59,40 58,38 56,35L54,32L56,30C57,29 61,27 63,25L68,23L68,21L67,20L68,20C69,20 71,22 72,24L75,28L74,29L73,29L72,28L70,27L65,30C62,32 59,34 59,35C59,35 60,37 62,39C63,41 64,44 64,44L64,46L51,46C43,46 33,45 27,45Z" style="fill:rgb(160,160,160);fill-rule:nonzero;"/>
        </g>
        <g transform="matrix(5.10526e-16,8.33752,-8.33752,5.10526e-16,3309.08,1926.52)">
            <path d="M11,58C10.394,56.534 10.624,47.454 11.262,46.06C11.899,44.666 13.209,49.172 14.826,49.636C17.116,50.292 21.727,50.655 25,50C30,49 32,49 34,47C36,44 40,38 40,35L40,33L31,33C24,33 22.649,33.272 20.177,33.93C18.562,34.36 16.17,36.945 16.17,36.945C16.17,35.945 15.173,23.281 15.173,23.281C15.173,23.281 17.625,25.541 19.177,25.93C21.648,26.55 30,27 30,27L40,27L40,26C40,24 35,15 32,13C30,11 24,9 17,9C17,9 13.079,9.312 11.673,10.129C10.266,10.946 9.015,15.273 8.56,13.904C8.105,12.534 8.424,3.539 8.943,1.91C9.298,0.792 10.58,3.703 11.673,4.129C13.849,4.977 19.498,6.722 22,7C31,8 37,10 41,14C44,17 46,22 46,25L46,27L56,27L66,26L66,27C66,28 65,30 64,31C60,35 60,38 64,41C67,44 68,44 71,44C74,43 76,42 78,41C80,40 83,35 83,32C83,30 79,27 77,27C75,27 73,30 74,33L74,35L78,35L76,34L75,33L75,32L76,30L78,30L80,31L80,33C80,36 78,38 74,39C67,40 66,33 71,27C75,24 78,23 83,25C87,26 88,29 87,35C86,38 85,40 83,43C78,46 71.254,47.423 67,47C63.168,46.619 59.13,42.573 57.474,40.464C56.211,38.856 57.139,35.755 57.06,34.345C57.016,33.564 57,32 57,32L52,32L47,32L47,34C46.921,35.262 46.21,37.3 46,38C43,48 34.996,52.698 24,53C21.565,53.067 17.063,54.025 14.896,54.858C13.339,55.457 11.606,59.466 11,58Z" style="fill:rgb(160,160,160);fill-rule:nonzero;"/>
        </g>
        <g transform="matrix(5.79636e-16,9.46618,-9.46618,5.79636e-16,2286.65,1541.34)">
            <path d="M48.339,51.908L34.894,50.552C34.894,50.552 36.554,49.009 37,48C37.851,46.075 40,39 40,39C40,39 35.952,37.864 33.935,38.174C31.769,38.508 27,41 27,41L27,37L27,32L18,32L9,32L9,31C9,31 12.484,27.805 14,26C17.5,21.833 28,10 30,6L32,3L32,4C32,6 28,14 24,22C22,24 19,29 19,29L39,29L39,17C39,17 39.5,8.5 39,6C38.673,4.366 36,2 36,2L46,2C46,2 44.491,3.867 44.278,5C43.778,7.667 43,9 43,18L43,29L58,29C58,29 57.321,27.004 57,26C55.667,21.833 49,5 50,4L51,3C51,3 53.453,8.452 55,11C57.833,15.667 68,30 68,31L68,32L61,32L54,32L54,42C54,42 50.753,39.911 48.737,38.969C46.487,37.917 44,38 44,38L44,40C44,42 45.278,44.019 46,46C46.723,47.985 48.339,51.908 48.339,51.908ZM40,33L40,32L34,32L27,32L29.12,33.902C30.12,34.902 33,34 35,34L40,34L40,33ZM52,33L54,32L48,32L43,32L43,34L47,34C49,34 51,34 52,33Z" style="fill:rgb(160,160,160);fill-rule:nonzero;"/>
        </g>
        <g transform="matrix(6.27847e-16,10.2535,-10.2535,6.27847e-16,1329.07,502.798)">
            <path d="M33.682,50.942C31.057,51.186 15.911,51.291 15.911,51.291C15.911,51.291 18.632,49.804 19.603,48.642C20.618,47.426 21.601,45.274 22,44C22.299,43.046 22,41 22,41L20,41C19,41 16.996,42.456 16,43C15.313,43.375 14.022,44.263 14.022,44.263L14,41L14,36C14,36 15.591,37.151 16.508,37.457C17.508,37.79 18,38 20,38L22,38L22,35L22,32L20,31C20,31 17.943,31.529 17,32C16,32.5 14,34 14,34L14,26C14,26 15.157,27.578 16,28C17,28.5 19,29 20,29L21,29L21,20C21,11 20,9 17,9L15,9L15,8L15,7L31,6C50,4 56,6 59,10C61,14 61,17 58,20C56,22 43,24 27,25L26,25C26,25 25.509,26.822 26.509,27.822L28,29C28,29 29.361,28.383 30,28C30.833,27.5 33,26 33,26C33,26 34,32 33,33C33,33 29.833,31.333 29,31C28.691,30.876 28,31 28,31C27,32 27,33 27,35L27,38C27,38 28.893,37.885 29.726,37.552C30.559,37.219 31.312,36.425 32,36C32.597,35.631 33.854,35 33.854,35L34,44C34,44 32.642,43.379 32,43C31.287,42.579 30.556,41.805 29.723,41.472C28.889,41.138 27,41 27,41C27,41 27.003,44.352 27.67,45.685C28.337,47.019 29.998,48.124 31,49C31.831,49.727 33.682,50.942 33.682,50.942ZM43,21C46.371,20.56 51.5,20.667 53,19C54.5,17.333 54.167,12.589 52,11C49.5,9.167 50,8 38,8L26,8.834L26,22L30,22C33,22 39.167,21.5 43,21Z" style="fill:rgb(160,160,160);fill-rule:nonzero;"/>
        </g>
        <g>
            <g transform="matrix(5.67229e-16,9.26355,-9.26355,5.67229e-16,1731.13,2189.44)">
                <path d="M11,47C11,44 11,41 12,40L13,39L13,42L14,45L16,45C20,45 27,45 30,44C33,43 36,40 36,34L37,30L31,30C28,31 25,31 25,31L25,34L24,34L23,34L23,33L23,24L23,20L25,20L25,22C25,25 28,26 33,26L37,26L36,23C35,16 31,12 23,10C16,8 13,10 13,14L13,18L12,17L11,17L11,16C11,15 11,12 11,8L11,2L13,4C15,6 16,6 22,7C37,9 44,16 44,30C44,36 41,42 37,44C35,45 29,47 24,47C16,48 14,49 14,51C13,52 12,53 12,53L11,53L11,47ZM48,45C48,45 49,44 51,43C53,42 53,42 53,32C53,26 53,19 52,16L52,11L49,10L47,10L47,9L47,8L54,8C57,7 61,8 61,8L62,9L60,10C59,10 58,11 58,11C57,13 57,23 58,27L58,36C58,41 58,42 60,43C61,44 62,45 62,45L62,46L55,46L48,46L48,45Z" style="fill:rgb(160,160,160);fill-rule:nonzero;"/>
            </g>
            <g transform="matrix(5.67229e-16,9.26355,-9.26355,5.67229e-16,1731.13,2189.44)">
                <ellipse cx="49.281" cy="28.155" rx="2.231" ry="2.743" style="fill:rgb(160,160,160);"/>
            </g>
            <g transform="matrix(6.60268e-16,10.783,-7.62012,4.66598e-16,1663.95,2230.83)">
                <ellipse cx="49.281" cy="28.155" rx="2.231" ry="2.743" style="fill:rgb(160,160,160);"/>
            </g>
        </g>
        <g transform="matrix(6.30166e-16,10.2914,-10.2914,6.30166e-16,1310.53,1462.69)">
            <path d="M52,51C48,49 46.412,45.221 44.049,40.331L42,36L36,51L35,51C34,51 32,47 29,42L25,34L24.206,36.404C18.206,49.404 13,55 7,50C4,48 3,44 4,39C4,39 5.19,36.733 6,36C6.787,35.288 7.86,34.6 8.86,34.6C9.86,34.6 11.346,35.406 12,36C12.568,36.516 12.911,37.407 12.784,38.164C12.618,39.164 11.57,41.28 11,42C10.648,42.445 9.866,42.483 9.366,42.483C8.883,42.483 8.389,42.287 8,42C7.439,41.586 6,40 6,40L5.343,42.571C5.661,44.5 6,46 8,48C10,50 12,50 17,46C21,42 23,34 23,26C22,20 22,19 19,15C17,12 16,11 12,11L9,11C9,11 10.441,12.288 11,13C11.545,13.694 12.227,14.55 12.356,15.274C12.482,15.979 12.271,16.825 11.777,17.342C11.262,17.88 10.189,18.556 9.27,18.502C8.307,18.445 6.712,17.75 6,17C5.288,16.25 4.833,15 5,14C5.167,13 7,11 7,11C13,3 23,7 26,19L28,23L36,8L37,8C37,9 42,24 43,26L44.246,28.784L46,23C49,13 56,6 59,9C60.979,10.484 61.244,13.191 60.403,15.306C59.543,17.467 57.632,17.922 56.561,17.977C55.489,18.032 54.237,16.481 53.975,15.636C53.713,14.79 54.38,13.364 54.989,12.904C55.599,12.444 56.965,12.695 57.634,12.878C58.202,13.033 59,14 59,14L59,13C59,12 58.425,11.292 57.751,10.619C55.751,8.619 53,12 50,18C48,23 48,25 48,32C48,40 48,41 50,44C52,46 54,48 55,49L57,50L59,48C60,47 61,46 61,45L61,43C61,43 60.323,42.918 60,43C59.336,43.169 57.872,44.091 57.019,44.012C56.165,43.934 55.178,43.344 54.879,42.529C54.563,41.672 54.446,39.65 55.128,38.872C55.811,38.093 57.822,37.411 58.974,37.858C60.125,38.304 61.11,38.636 62.036,41.549C62.788,43.915 62.896,46.759 62,49C59,53 56,54 52,51ZM36,44L40.936,33.837L34,16C34,16 28,26 28,27L35,44L36,44Z" style="fill:rgb(160,160,160);fill-rule:nonzero;"/>
        </g>
        <g transform="matrix(5.28711e-16,8.63451,-8.63451,5.28711e-16,2411.01,442.261)">
            <path d="M54,59L37.079,58.124L38,57C38,57 40.272,55.213 41,54C42,52.333 44,50 44,47L44,42L38,40C31,38 29,35 27,29L25.819,25.848L20,25C15,25 15.468,24.838 13.968,25.505C12.572,26.126 11,29 11,29L11,17C11,17 12.318,19.327 13.462,19.836C14.962,20.502 15,21 20,21L25,21L25,16C25.019,14.595 24.325,12.291 23.445,10.95C22.571,9.618 19.72,7.955 19.72,7.955C19.72,7.955 31.225,7.963 32.225,7.963C32.225,7.963 30.02,9.538 29.541,10.73C29.004,12.069 29,14 29,16L29,21L44,22L44,15L44,8L40,6L36.793,4.285C36.793,4.285 54.566,4.735 55.566,4.735L53,6C49,7 48,10 49,16L49,22L62,23L62,18C62,18 62.506,14.03 61.742,12.738C60.978,11.446 57.415,10.245 57.415,10.245L72.424,10.267L69.725,11.819C69.725,11.819 68.266,12.356 68,13C67.713,13.697 68,16 68,16C68,18 67,23 67,23L73,23C77,23 79,23 80,21L81.465,18.649L81.056,32.318L79,30C78,28 74,27 68,27L66,27L64.286,30.165C63.286,33.165 62,35 55,39C49,42 49,43 49,47C49,50 50.429,53.018 51.262,55.018C51.882,56.505 54,59 54,59ZM44,33L44,27L30,26L30,27C30,30 34,35 38,37C41,38 43,39 43,39L44,39L44,33ZM55.285,35.511C57.119,34.011 60,31 61,29L62,27L49,27L49,38L50,38C51,38 53.778,36.744 55.285,35.511Z" style="fill:rgb(160,160,160);fill-rule:nonzero;"/>
        </g>
    </g>
    <g transform="matrix(1,0,0,1,-86.2205,31.8898)">
        <g transform="matrix(1,0,0,1,118.11,0)">
            <g transform="matrix(1,0,0,1.2,2562.99,1564.96)">
                <ellipse cx="253.937" cy="1077.76" rx="17.717" ry="14.764" style="fill:none;stroke:rgb(255,0,0);stroke-width:0.75px;stroke-linecap:round;stroke-linejoin:round;stroke-miterlimit:1.5;"/>
            </g>
            <g transform="matrix(1,0,0,1.2,2562.99,1671.26)">
                <ellipse cx="253.937" cy="1077.76" rx="17.717" ry="14.764" style="fill:none;stroke:rgb(255,0,0);stroke-width:0.75px;stroke-linecap:round;stroke-linejoin:round;stroke-miterlimit:1.5;"/>
            </g>
        </g>
        <g transform="matrix(1,0,0,1,-82.6772,0)">
            <g transform="matrix(1,0,0,1.2,2562.99,1564.96)">
                <ellipse cx="253.937" cy="1077.76" rx="17.717" ry="14.764" style="fill:none;stroke:rgb(255,0,0);stroke-width:0.75px;stroke-linecap:round;stroke-linejoin:round;stroke-miterlimit:1.5;"/>
            </g>
            <g transform="matrix(1,0,0,1.2,2562.99,1671.26)">
                <ellipse cx="253.937" cy="1077.76" rx="17.717" ry="14.764" style="fill:none;stroke:rgb(255,0,0);stroke-width:0.75px;stroke-linecap:round;stroke-linejoin:round;stroke-miterlimit:1.5;"/>
            </g>
        </g>
    </g>
</svg>
