<?xml version="1.0" encoding="UTF-8" standalone="no"?>
<!DOCTYPE svg PUBLIC "-//W3C//DTD SVG 1.1//EN" "http://www.w3.org/Graphics/SVG/1.1/DTD/svg11.dtd">
<svg width="100%" height="100%" viewBox="0 0 6000 3600" version="1.1" xmlns="http://www.w3.org/2000/svg" xmlns:xlink="http://www.w3.org/1999/xlink" xml:space="preserve" xmlns:serif="http://www.serif.com/" style="fill-rule:evenodd;clip-rule:evenodd;stroke-miterlimit:10;">
    <g transform="matrix(2.55134e-16,-4.16665,4.16665,2.55134e-16,-32.3767,4460.43)">
        <path d="M327.543,1057.16L348.805,1057.16M348.805,1057.16C348.961,1057.16 349.09,1057.04 349.09,1056.88M349.09,1056.88L349.09,1048.37C349.09,1048.53 348.965,1048.66 348.805,1048.66M348.805,1048.66L365.813,1048.66C365.656,1048.66 365.527,1048.53 365.527,1048.37M365.527,1048.37L365.527,1056.88C365.527,1057.03 365.652,1057.16 365.813,1057.16M365.813,1057.16L382.82,1057.16M382.82,1057.16C382.977,1057.16 383.105,1057.04 383.105,1056.88M383.105,1056.88L383.105,1048.37C383.105,1048.53 382.98,1048.66 382.82,1048.66M382.82,1048.66L399.828,1048.66C399.672,1048.66 399.543,1048.53 399.543,1048.37M399.543,1048.37L399.543,1056.88C399.543,1057.03 399.668,1057.16 399.828,1057.16M399.828,1057.16L416.836,1057.16M416.836,1057.16C416.992,1057.16 417.121,1057.04 417.121,1056.88M417.121,1056.88L417.121,1048.37C417.121,1048.53 416.996,1048.66 416.836,1048.66M416.836,1048.66L433.844,1048.66C433.688,1048.66 433.559,1048.53 433.559,1048.37M433.559,1048.37L433.559,1056.88C433.559,1057.03 433.684,1057.16 433.844,1057.16M433.844,1057.16L450.852,1057.16M450.852,1057.16C451.008,1057.16 451.137,1057.04 451.137,1056.88M451.137,1056.88L451.137,1048.37C451.137,1048.53 451.012,1048.66 450.852,1048.66M450.852,1048.66L467.859,1048.66C467.703,1048.66 467.574,1048.53 467.574,1048.37M467.574,1048.37L467.574,1056.88C467.574,1057.03 467.699,1057.16 467.859,1057.16M467.859,1057.16L484.867,1057.16M484.867,1057.16C485.023,1057.16 485.152,1057.04 485.152,1056.88M485.152,1056.88L485.152,1048.37C485.152,1048.53 485.027,1048.66 484.867,1048.66M484.867,1048.66L501.875,1048.66C501.719,1048.66 501.59,1048.53 501.59,1048.37M501.59,1048.37L501.59,1056.88C501.59,1057.03 501.715,1057.16 501.875,1057.16M501.875,1057.16L518.883,1057.16M518.883,1057.16C519.039,1057.16 519.168,1057.04 519.168,1056.88M519.168,1056.88L519.168,1048.37C519.168,1048.53 519.043,1048.66 518.883,1048.66M518.883,1048.66L535.891,1048.66C535.734,1048.66 535.605,1048.53 535.605,1048.37M535.605,1048.37L535.605,1056.88C535.605,1057.03 535.73,1057.16 535.891,1057.16M535.891,1057.16L552.898,1057.16M552.898,1057.16C553.055,1057.16 553.184,1057.04 553.184,1056.88M553.184,1056.88L553.184,1048.37C553.184,1048.53 553.059,1048.66 552.898,1048.66M552.898,1048.66L569.906,1048.66C569.75,1048.66 569.621,1048.53 569.621,1048.37M569.621,1048.37L569.621,1056.88C569.621,1057.03 569.746,1057.16 569.906,1057.16M569.906,1057.16L586.914,1057.16M586.914,1057.16C587.07,1057.16 587.199,1057.04 587.199,1056.88M587.199,1056.88L587.199,1048.37C587.199,1048.53 587.074,1048.66 586.914,1048.66M586.914,1048.66L603.922,1048.66C603.766,1048.66 603.637,1048.53 603.637,1048.37M603.637,1048.37L603.637,1056.88C603.637,1057.03 603.762,1057.16 603.922,1057.16M603.922,1057.16L620.93,1057.16M620.93,1057.16C621.086,1057.16 621.215,1057.04 621.215,1056.88M621.215,1056.88L621.215,1048.37C621.215,1048.53 621.09,1048.66 620.93,1048.66M620.93,1048.66L637.938,1048.66C637.781,1048.66 637.652,1048.53 637.652,1048.37M637.652,1048.37L637.652,1056.88C637.652,1057.03 637.777,1057.16 637.938,1057.16M637.938,1057.16L654.945,1057.16M654.945,1057.16C655.102,1057.16 655.23,1057.04 655.23,1056.88M655.23,1056.88L655.23,1048.37C655.23,1048.53 655.105,1048.66 654.945,1048.66M654.945,1048.66L671.953,1048.66C671.797,1048.66 671.668,1048.53 671.668,1048.37M671.668,1048.37L671.668,1056.88C671.668,1057.03 671.793,1057.16 671.953,1057.16M671.953,1057.16L688.961,1057.16M688.961,1057.16C689.117,1057.16 689.246,1057.04 689.246,1056.88M689.246,1056.88L689.246,1048.37C689.246,1048.53 689.121,1048.66 688.961,1048.66M688.961,1048.66L705.969,1048.66C705.813,1048.66 705.684,1048.53 705.684,1048.37M705.684,1048.37L705.684,1056.88C705.684,1057.03 705.809,1057.16 705.969,1057.16M705.969,1057.16L722.977,1057.16M722.977,1057.16C723.133,1057.16 723.262,1057.04 723.262,1056.88M723.262,1056.88L723.262,1048.37C723.262,1048.53 723.137,1048.66 722.977,1048.66M722.977,1048.66L739.984,1048.66C739.828,1048.66 739.699,1048.53 739.699,1048.37M739.699,1048.37L739.699,1056.88C739.699,1057.03 739.824,1057.16 739.984,1057.16M739.984,1057.16L756.992,1057.16M756.992,1057.16C757.148,1057.16 757.277,1057.04 757.277,1056.88M757.277,1056.88L757.277,1048.37C757.277,1048.53 757.152,1048.66 756.992,1048.66M756.992,1048.66L774,1048.66C773.844,1048.66 773.715,1048.53 773.715,1048.37M773.715,1048.37L773.715,1056.88C773.715,1057.03 773.84,1057.16 774,1057.16M774,1057.16L791.008,1057.16M791.008,1057.16C791.164,1057.16 791.293,1057.04 791.293,1056.88M791.293,1056.88L791.293,1048.37C791.293,1048.53 791.168,1048.66 791.008,1048.66M791.008,1048.66L808.016,1048.66C807.859,1048.66 807.73,1048.53 807.73,1048.37M807.73,1048.37L807.73,1056.88C807.73,1057.03 807.855,1057.16 808.016,1057.16M808.016,1057.16L825.023,1057.16M825.023,1057.16C825.18,1057.16 825.309,1057.04 825.309,1056.88M825.309,1056.88L825.309,1048.37C825.309,1048.53 825.184,1048.66 825.023,1048.66M825.023,1048.66L842.031,1048.66C841.875,1048.66 841.746,1048.53 841.746,1048.37M841.746,1048.37L841.746,1056.88C841.746,1057.03 841.871,1057.16 842.031,1057.16M842.031,1057.16L859.039,1057.16M859.039,1057.16C859.195,1057.16 859.324,1057.04 859.324,1056.88M859.324,1056.88L859.324,1048.37C859.324,1048.53 859.199,1048.66 859.039,1048.66M859.039,1048.66L876.047,1048.66C875.891,1048.66 875.762,1048.53 875.762,1048.37M875.762,1048.37L875.762,1056.88C875.762,1057.03 875.887,1057.16 876.047,1057.16M876.047,1057.16L893.055,1057.16M893.055,1057.16C893.211,1057.16 893.34,1057.04 893.34,1056.88M893.34,1056.88L893.34,1048.37C893.34,1048.53 893.215,1048.66 893.055,1048.66M893.055,1048.66L910.063,1048.66C909.906,1048.66 909.777,1048.53 909.777,1048.37M909.777,1048.37L909.777,1056.88C909.777,1057.03 909.902,1057.16 910.063,1057.16M910.063,1057.16L927.07,1057.16M927.07,1057.16C927.227,1057.16 927.355,1057.04 927.355,1056.88M927.355,1056.88L927.355,1048.37C927.355,1048.53 927.23,1048.66 927.07,1048.66M927.07,1048.66L944.078,1048.66C943.922,1048.66 943.793,1048.53 943.793,1048.37M943.793,1048.37L943.793,1056.88C943.793,1057.03 943.918,1057.16 944.078,1057.16M944.078,1057.16L961.086,1057.16M961.086,1057.16C961.242,1057.16 961.371,1057.04 961.371,1056.88M961.371,1056.88L961.371,1048.37C961.371,1048.53 961.246,1048.66 961.086,1048.66M961.086,1048.66L978.094,1048.66C977.938,1048.66 977.809,1048.53 977.809,1048.37M977.809,1048.37L977.809,1056.88C977.809,1057.03 977.934,1057.16 978.094,1057.16M978.094,1057.16L995.102,1057.16M995.102,1057.16C995.258,1057.16 995.387,1057.04 995.387,1056.88M995.387,1056.88L995.387,1048.37C995.387,1048.53 995.262,1048.66 995.102,1048.66M995.102,1048.66L1012.11,1048.66C1011.95,1048.66 1011.82,1048.53 1011.82,1048.37M1011.82,1048.37L1011.82,1056.88C1011.82,1057.03 1011.95,1057.16 1012.11,1057.16M1012.11,1057.16L1033.37,1057.16M1033.37,1057.16C1033.53,1057.16 1033.66,1057.04 1033.66,1056.88M1033.66,1056.88L1033.66,1048.37M1033.66,1048.37L1033.66,1031.36M1033.66,1031.36C1033.66,1031.52 1033.53,1031.65 1033.37,1031.65M1033.37,1031.65L1041.88,1031.65C1042.03,1031.65 1042.16,1031.52 1042.16,1031.36M1042.16,1031.36L1042.16,1014.36C1042.16,1014.2 1042.04,1014.07 1041.88,1014.07M1041.88,1014.07L1033.37,1014.07C1033.53,1014.07 1033.66,1014.2 1033.66,1014.36M1033.66,1014.36L1033.66,997.347M1033.66,997.347C1033.66,997.504 1033.53,997.632 1033.37,997.632M1033.37,997.632L1041.88,997.632C1042.03,997.632 1042.16,997.507 1042.16,997.347M1042.16,997.347L1042.16,980.339C1042.16,980.183 1042.04,980.054 1041.88,980.054M1041.88,980.054L1033.37,980.054C1033.53,980.054 1033.66,980.179 1033.66,980.339M1033.66,980.339L1033.66,963.332M1033.66,963.332C1033.66,963.488 1033.53,963.617 1033.37,963.617M1033.37,963.617L1041.88,963.617C1042.03,963.617 1042.16,963.492 1042.16,963.332M1042.16,963.332L1042.16,946.324C1042.16,946.168 1042.04,946.039 1041.88,946.039M1041.88,946.039L1033.37,946.039C1033.53,946.039 1033.66,946.164 1033.66,946.324M1033.66,946.324L1033.66,929.316M1033.66,929.316C1033.66,929.472 1033.53,929.601 1033.37,929.601M1033.37,929.601L1041.88,929.601C1042.03,929.601 1042.16,929.476 1042.16,929.316M1042.16,929.316L1042.16,912.308C1042.16,912.152 1042.04,912.023 1041.88,912.023M1041.88,912.023L1033.37,912.023C1033.53,912.023 1033.66,912.148 1033.66,912.308M1033.66,912.308L1033.66,895.3M1033.66,895.3C1033.66,895.457 1033.53,895.586 1033.37,895.586M1033.37,895.586L1041.88,895.586C1042.03,895.586 1042.16,895.461 1042.16,895.3M1042.16,895.3L1042.16,878.293C1042.16,878.136 1042.04,878.007 1041.88,878.007M1041.88,878.007L1033.37,878.007C1033.53,878.007 1033.66,878.132 1033.66,878.293M1033.66,878.293L1033.66,861.285M1033.66,861.285C1033.66,861.441 1033.53,861.57 1033.37,861.57M1033.37,861.57L1041.88,861.57C1042.03,861.57 1042.16,861.445 1042.16,861.285M1042.16,861.285L1042.16,844.277C1042.16,844.121 1042.04,843.992 1041.88,843.992M1041.88,843.992L1033.37,843.992C1033.53,843.992 1033.66,844.117 1033.66,844.277M1033.66,844.277L1033.66,827.269M1033.66,827.269C1033.66,827.425 1033.53,827.554 1033.37,827.554M1033.37,827.554L1041.88,827.554C1042.03,827.554 1042.16,827.429 1042.16,827.269M1042.16,827.269L1042.16,810.261C1042.16,810.105 1042.04,809.976 1041.88,809.976M1041.88,809.976L1033.37,809.976C1033.53,809.976 1033.66,810.101 1033.66,810.261M1033.66,810.261L1033.66,793.254M1033.66,793.254C1033.66,793.41 1033.53,793.539 1033.37,793.539M1033.37,793.539L1041.88,793.539C1042.03,793.539 1042.16,793.414 1042.16,793.254M1042.16,793.254L1042.16,776.246C1042.16,776.089 1042.04,775.961 1041.88,775.961M1041.88,775.961L1033.37,775.961C1033.53,775.961 1033.66,776.086 1033.66,776.246M1033.66,776.246L1033.66,759.238M1033.66,759.238C1033.66,759.394 1033.53,759.523 1033.37,759.523M1033.37,759.523L1041.88,759.523C1042.03,759.523 1042.16,759.398 1042.16,759.238M1042.16,759.238L1042.16,742.23C1042.16,742.074 1042.04,741.945 1041.88,741.945M1041.88,741.945L1033.37,741.945C1033.53,741.945 1033.66,742.07 1033.66,742.23M1033.66,742.23L1033.66,725.222M1033.66,725.222C1033.66,725.379 1033.53,725.507 1033.37,725.507M1033.37,725.507L1041.88,725.507C1042.03,725.507 1042.16,725.382 1042.16,725.222M1042.16,725.222L1042.16,708.214C1042.16,708.058 1042.04,707.929 1041.88,707.929M1041.88,707.929L1033.37,707.929C1033.53,707.929 1033.66,708.054 1033.66,708.214M1033.66,708.214L1033.66,691.207M1033.66,691.207C1033.66,691.363 1033.53,691.492 1033.37,691.492M1033.37,691.492L1041.88,691.492C1042.03,691.492 1042.16,691.367 1042.16,691.207M1042.16,691.207L1042.16,674.199C1042.16,674.043 1042.04,673.914 1041.88,673.914M1041.88,673.914L1033.37,673.914C1033.53,673.914 1033.66,674.039 1033.66,674.199M1033.66,674.199L1033.66,657.191M1033.66,657.191C1033.66,657.347 1033.53,657.476 1033.37,657.476M1033.37,657.476L1041.88,657.476C1042.03,657.476 1042.16,657.351 1042.16,657.191M1042.16,657.191L1042.16,640.183C1042.16,640.027 1042.04,639.898 1041.88,639.898M1041.88,639.898L1033.37,639.898C1033.53,639.898 1033.66,640.023 1033.66,640.183M1033.66,640.183L1033.66,623.175M1033.66,623.175C1033.66,623.332 1033.53,623.461 1033.37,623.461M1033.37,623.461L1041.88,623.461C1042.03,623.461 1042.16,623.336 1042.16,623.175M1042.16,623.175L1042.16,606.168C1042.16,606.011 1042.04,605.882 1041.88,605.882M1041.88,605.882L1033.37,605.882C1033.53,605.882 1033.66,606.007 1033.66,606.168M1033.66,606.168L1033.66,589.16M1033.66,589.16C1033.66,589.316 1033.53,589.445 1033.37,589.445M1033.37,589.445L1041.88,589.445C1042.03,589.445 1042.16,589.32 1042.16,589.16M1042.16,589.16L1042.16,572.152C1042.16,571.996 1042.04,571.867 1041.88,571.867M1041.88,571.867L1033.37,571.867C1033.53,571.867 1033.66,571.992 1033.66,572.152M1033.66,572.152L1033.66,555.144M1033.66,555.144C1033.66,555.3 1033.53,555.429 1033.37,555.429M1033.37,555.429L1041.88,555.429C1042.03,555.429 1042.16,555.304 1042.16,555.144M1042.16,555.144L1042.16,538.136C1042.16,537.98 1042.04,537.851 1041.88,537.851M1041.88,537.851L1033.37,537.851C1033.53,537.851 1033.66,537.976 1033.66,538.136M1033.66,538.136L1033.66,521.129M1033.66,521.129C1033.66,521.285 1033.53,521.414 1033.37,521.414M1033.37,521.414L1041.88,521.414C1042.03,521.414 1042.16,521.289 1042.16,521.129M1042.16,521.129L1042.16,504.121C1042.16,503.964 1042.04,503.836 1041.88,503.836M1041.88,503.836L1033.37,503.836C1033.53,503.836 1033.66,503.961 1033.66,504.121M1033.66,504.121L1033.66,487.113M1033.66,487.113C1033.66,487.269 1033.53,487.398 1033.37,487.398M1033.37,487.398L1041.88,487.398C1042.03,487.398 1042.16,487.273 1042.16,487.113M1042.16,487.113L1042.16,470.105C1042.16,469.949 1042.04,469.82 1041.88,469.82M1041.88,469.82L1033.37,469.82C1033.53,469.82 1033.66,469.945 1033.66,470.105M1033.66,470.105L1033.66,453.097M1033.66,453.097C1033.66,453.254 1033.53,453.382 1033.37,453.382M1033.37,453.382L1041.88,453.382C1042.03,453.382 1042.16,453.257 1042.16,453.097M1042.16,453.097L1042.16,436.089C1042.16,435.933 1042.04,435.804 1041.88,435.804M1041.88,435.804L1033.37,435.804C1033.53,435.804 1033.66,435.929 1033.66,436.089M1033.66,436.089L1033.66,419.082M1033.66,419.082C1033.66,419.238 1033.53,419.367 1033.37,419.367M1033.37,419.367L1041.88,419.367C1042.03,419.367 1042.16,419.242 1042.16,419.082M1042.16,419.082L1042.16,402.074C1042.16,401.918 1042.04,401.789 1041.88,401.789M1041.88,401.789L1033.37,401.789C1033.53,401.789 1033.66,401.914 1033.66,402.074M1033.66,402.074L1033.66,385.066M1033.66,385.066C1033.66,385.222 1033.53,385.351 1033.37,385.351M1033.37,385.351L1041.88,385.351C1042.03,385.351 1042.16,385.226 1042.16,385.066M1042.16,385.066L1042.16,368.058C1042.16,367.902 1042.04,367.773 1041.88,367.773M1041.88,367.773L1033.37,367.773C1033.53,367.773 1033.66,367.898 1033.66,368.058M1033.66,368.058L1033.66,351.05M1033.66,351.05C1033.66,351.207 1033.53,351.336 1033.37,351.336M1033.37,351.336L1041.88,351.336C1042.03,351.336 1042.16,351.211 1042.16,351.05M1042.16,351.05L1042.16,334.043C1042.16,333.886 1042.04,333.757 1041.88,333.757M1041.88,333.757L1033.37,333.757C1033.53,333.757 1033.66,333.882 1033.66,334.043M1033.66,334.043L1033.66,317.035M1033.66,317.035C1033.66,317.191 1033.53,317.32 1033.37,317.32M1033.37,317.32L1041.88,317.32C1042.03,317.32 1042.16,317.195 1042.16,317.035M1042.16,317.035L1042.16,300.027C1042.16,299.871 1042.04,299.742 1041.88,299.742M1041.88,299.742L1033.37,299.742C1033.53,299.742 1033.66,299.867 1033.66,300.027M1033.66,300.027L1033.66,283.019M1033.66,283.019C1033.66,283.175 1033.53,283.304 1033.37,283.304M1033.37,283.304L1041.88,283.304C1042.03,283.304 1042.16,283.179 1042.16,283.019M1042.16,283.019L1042.16,266.011C1042.16,265.855 1042.04,265.726 1041.88,265.726M1041.88,265.726L1033.37,265.726C1033.53,265.726 1033.66,265.851 1033.66,266.011M1033.66,266.011L1033.66,249.004M1033.66,249.004C1033.66,249.16 1033.53,249.289 1033.37,249.289M1033.37,249.289L1041.88,249.289C1042.03,249.289 1042.16,249.164 1042.16,249.004M1042.16,249.004L1042.16,231.996C1042.16,231.839 1042.04,231.711 1041.88,231.711M1041.88,231.711L1033.37,231.711C1033.53,231.711 1033.66,231.836 1033.66,231.996M1033.66,231.996L1033.66,214.988M1033.66,214.988C1033.66,215.144 1033.53,215.273 1033.37,215.273M1033.37,215.273L1041.88,215.273C1042.03,215.273 1042.16,215.148 1042.16,214.988M1042.16,214.988L1042.16,197.98C1042.16,197.824 1042.04,197.695 1041.88,197.695M1041.88,197.695L1033.37,197.695C1033.53,197.695 1033.66,197.82 1033.66,197.98M1033.66,197.98L1033.66,180.972M1033.66,180.972C1033.66,181.129 1033.53,181.257 1033.37,181.257M1033.37,181.257L1041.88,181.257C1042.03,181.257 1042.16,181.132 1042.16,180.972M1042.16,180.972L1042.16,163.964C1042.16,163.808 1042.04,163.679 1041.88,163.679M1041.88,163.679L1033.37,163.679C1033.53,163.679 1033.66,163.804 1033.66,163.964M1033.66,163.964L1033.66,146.957M1033.66,146.957C1033.66,147.113 1033.53,147.242 1033.37,147.242M1033.37,147.242L1041.88,147.242C1042.03,147.242 1042.16,147.117 1042.16,146.957M1042.16,146.957L1042.16,129.949C1042.16,129.793 1042.04,129.664 1041.88,129.664M1041.88,129.664L1033.37,129.664C1033.53,129.664 1033.66,129.789 1033.66,129.949M1033.66,129.949L1033.66,112.941M1033.66,112.941C1033.66,113.097 1033.53,113.226 1033.37,113.226M1033.37,113.226L1041.88,113.226C1042.03,113.226 1042.16,113.101 1042.16,112.941M1042.16,112.941L1042.16,95.933C1042.16,95.777 1042.04,95.648 1041.88,95.648M1041.88,95.648L1033.37,95.648C1033.53,95.648 1033.66,95.773 1033.66,95.933M1033.66,95.933L1033.66,78.927M1033.66,78.927C1033.66,79.077 1033.53,79.207 1033.37,79.207M1033.37,79.207L1041.88,79.207C1042.03,79.207 1042.16,79.087 1042.16,78.927M1042.16,78.927L1042.16,61.917C1042.16,61.757 1042.04,61.637 1041.88,61.637M1041.88,61.637L1033.37,61.637C1033.53,61.637 1033.66,61.757 1033.66,61.917M1033.66,61.917L1033.66,44.907M1033.66,44.907L1033.66,36.407C1033.66,36.247 1033.53,36.117 1033.37,36.117M1033.37,36.117L1012.11,36.117M1012.11,36.117C1011.95,36.117 1011.82,36.247 1011.82,36.407M1011.82,36.407L1011.82,44.907C1011.82,44.757 1011.95,44.627 1012.11,44.627M1012.11,44.627L995.102,44.627C995.258,44.627 995.387,44.747 995.387,44.907M995.387,44.907L995.387,36.407C995.387,36.247 995.262,36.117 995.102,36.117M995.102,36.117L978.094,36.117M978.094,36.117C977.938,36.117 977.809,36.247 977.809,36.407M977.809,36.407L977.809,44.907C977.809,44.757 977.934,44.627 978.094,44.627M978.094,44.627L961.086,44.627C961.242,44.627 961.371,44.747 961.371,44.907M961.371,44.907L961.371,36.407C961.371,36.247 961.246,36.117 961.086,36.117M961.086,36.117L944.078,36.117M944.078,36.117C943.922,36.117 943.793,36.247 943.793,36.407M943.793,36.407L943.793,44.907C943.793,44.757 943.918,44.627 944.078,44.627M944.078,44.627L927.07,44.627C927.227,44.627 927.355,44.747 927.355,44.907M927.355,44.907L927.355,36.407C927.355,36.247 927.23,36.117 927.07,36.117M927.07,36.117L910.063,36.117M910.063,36.117C909.906,36.117 909.777,36.247 909.777,36.407M909.777,36.407L909.777,44.907C909.777,44.757 909.902,44.627 910.063,44.627M910.063,44.627L893.055,44.627C893.211,44.627 893.34,44.747 893.34,44.907M893.34,44.907L893.34,36.407C893.34,36.247 893.215,36.117 893.055,36.117M893.055,36.117L876.047,36.117M876.047,36.117C875.891,36.117 875.762,36.247 875.762,36.407M875.762,36.407L875.762,44.907C875.762,44.757 875.887,44.627 876.047,44.627M876.047,44.627L859.039,44.627C859.195,44.627 859.324,44.747 859.324,44.907M859.324,44.907L859.324,36.407C859.324,36.247 859.199,36.117 859.039,36.117M859.039,36.117L842.031,36.117M842.031,36.117C841.875,36.117 841.746,36.247 841.746,36.407M841.746,36.407L841.746,44.907C841.746,44.757 841.871,44.627 842.031,44.627M842.031,44.627L825.023,44.627C825.18,44.627 825.309,44.747 825.309,44.907M825.309,44.907L825.309,36.407C825.309,36.247 825.184,36.117 825.023,36.117M825.023,36.117L808.016,36.117M808.016,36.117C807.859,36.117 807.73,36.247 807.73,36.407M807.73,36.407L807.73,44.907C807.73,44.757 807.855,44.627 808.016,44.627M808.016,44.627L791.008,44.627C791.164,44.627 791.293,44.747 791.293,44.907M791.293,44.907L791.293,36.407C791.293,36.247 791.168,36.117 791.008,36.117M791.008,36.117L774,36.117M774,36.117C773.844,36.117 773.715,36.247 773.715,36.407M773.715,36.407L773.715,44.907C773.715,44.757 773.84,44.627 774,44.627M774,44.627L756.992,44.627C757.148,44.627 757.277,44.747 757.277,44.907M757.277,44.907L757.277,36.407C757.277,36.247 757.152,36.117 756.992,36.117M756.992,36.117L739.984,36.117M739.984,36.117C739.828,36.117 739.699,36.247 739.699,36.407M739.699,36.407L739.699,44.907C739.699,44.757 739.824,44.627 739.984,44.627M739.984,44.627L722.977,44.627C723.133,44.627 723.262,44.747 723.262,44.907M723.262,44.907L723.262,36.407C723.262,36.247 723.137,36.117 722.977,36.117M722.977,36.117L705.969,36.117M705.969,36.117C705.813,36.117 705.684,36.247 705.684,36.407M705.684,36.407L705.684,44.907C705.684,44.757 705.809,44.627 705.969,44.627M705.969,44.627L688.961,44.627C689.117,44.627 689.246,44.747 689.246,44.907M689.246,44.907L689.246,36.407C689.246,36.247 689.121,36.117 688.961,36.117M688.961,36.117L671.953,36.117M671.953,36.117C671.797,36.117 671.668,36.247 671.668,36.407M671.668,36.407L671.668,44.907C671.668,44.757 671.793,44.627 671.953,44.627M671.953,44.627L654.945,44.627C655.102,44.627 655.23,44.747 655.23,44.907M655.23,44.907L655.23,36.407C655.23,36.247 655.105,36.117 654.945,36.117M654.945,36.117L637.938,36.117M637.938,36.117C637.781,36.117 637.652,36.247 637.652,36.407M637.652,36.407L637.652,44.907C637.652,44.757 637.777,44.627 637.938,44.627M637.938,44.627L620.93,44.627C621.086,44.627 621.215,44.747 621.215,44.907M621.215,44.907L621.215,36.407C621.215,36.247 621.09,36.117 620.93,36.117M620.93,36.117L603.922,36.117M603.922,36.117C603.766,36.117 603.637,36.247 603.637,36.407M603.637,36.407L603.637,44.907C603.637,44.757 603.762,44.627 603.922,44.627M603.922,44.627L586.914,44.627C587.07,44.627 587.199,44.747 587.199,44.907M587.199,44.907L587.199,36.407C587.199,36.247 587.074,36.117 586.914,36.117M586.914,36.117L569.906,36.117M569.906,36.117C569.75,36.117 569.621,36.247 569.621,36.407M569.621,36.407L569.621,44.907C569.621,44.757 569.746,44.627 569.906,44.627M569.906,44.627L552.898,44.627C553.055,44.627 553.184,44.747 553.184,44.907M553.184,44.907L553.184,36.407C553.184,36.247 553.059,36.117 552.898,36.117M552.898,36.117L535.891,36.117M535.891,36.117C535.734,36.117 535.605,36.247 535.605,36.407M535.605,36.407L535.605,44.907C535.605,44.757 535.73,44.627 535.891,44.627M535.891,44.627L518.883,44.627C519.039,44.627 519.168,44.747 519.168,44.907M519.168,44.907L519.168,36.407C519.168,36.247 519.043,36.117 518.883,36.117M518.883,36.117L501.875,36.117M501.875,36.117C501.719,36.117 501.59,36.247 501.59,36.407M501.59,36.407L501.59,44.907C501.59,44.757 501.715,44.627 501.875,44.627M501.875,44.627L484.867,44.627C485.023,44.627 485.152,44.747 485.152,44.907M485.152,44.907L485.152,36.407C485.152,36.247 485.027,36.117 484.867,36.117M484.867,36.117L467.859,36.117M467.859,36.117C467.703,36.117 467.574,36.247 467.574,36.407M467.574,36.407L467.574,44.907C467.574,44.757 467.699,44.627 467.859,44.627M467.859,44.627L450.852,44.627C451.008,44.627 451.137,44.747 451.137,44.907M451.137,44.907L451.137,36.407C451.137,36.247 451.012,36.117 450.852,36.117M450.852,36.117L433.844,36.117M433.844,36.117C433.688,36.117 433.559,36.247 433.559,36.407M433.559,36.407L433.559,44.907C433.559,44.757 433.684,44.627 433.844,44.627M433.844,44.627L416.836,44.627C416.992,44.627 417.121,44.747 417.121,44.907M417.121,44.907L417.121,36.407C417.121,36.247 416.996,36.117 416.836,36.117M416.836,36.117L399.828,36.117M399.828,36.117C399.672,36.117 399.543,36.247 399.543,36.407M399.543,36.407L399.543,44.907C399.543,44.757 399.668,44.627 399.828,44.627M399.828,44.627L382.82,44.627C382.977,44.627 383.105,44.747 383.105,44.907M383.105,44.907L383.105,36.407C383.105,36.247 382.98,36.117 382.82,36.117M382.82,36.117L365.813,36.117M365.813,36.117C365.656,36.117 365.527,36.247 365.527,36.407M365.527,36.407L365.527,44.907C365.527,44.757 365.652,44.627 365.813,44.627M365.813,44.627L348.805,44.627C348.961,44.627 349.09,44.747 349.09,44.907M349.09,44.907L349.09,36.407C349.09,36.247 348.965,36.117 348.805,36.117M348.805,36.117L327.543,36.117M327.543,36.117C327.387,36.117 327.258,36.247 327.258,36.407M327.258,36.407L327.258,44.907M327.258,44.907L327.258,61.917M327.258,61.917C327.258,61.757 327.383,61.637 327.543,61.637M327.543,61.637L319.039,61.637C318.883,61.637 318.754,61.757 318.754,61.917M318.754,61.917L318.754,78.927C318.754,79.077 318.879,79.207 319.039,79.207M319.039,79.207L327.543,79.207C327.387,79.207 327.258,79.087 327.258,78.927M327.258,78.927L327.258,95.933M327.258,95.933C327.258,95.777 327.383,95.648 327.543,95.648M327.543,95.648L319.039,95.648C318.883,95.648 318.754,95.773 318.754,95.933M318.754,95.933L318.754,112.941C318.754,113.097 318.879,113.226 319.039,113.226M319.039,113.226L327.543,113.226C327.387,113.226 327.258,113.101 327.258,112.941M327.258,112.941L327.258,129.949M327.258,129.949C327.258,129.793 327.383,129.664 327.543,129.664M327.543,129.664L318.754,129.661M318.754,147.242L318.754,861.285C318.754,861.441 318.879,861.57 319.039,861.57M319.039,861.57L327.543,861.57C327.387,861.57 327.258,861.445 327.258,861.285M327.258,861.285L327.258,878.293M327.258,878.293C327.258,878.136 327.383,878.007 327.543,878.007M327.543,878.007L319.039,878.007C318.883,878.007 318.754,878.132 318.754,878.293M318.754,878.293L318.754,895.3C318.754,895.457 318.879,895.586 319.039,895.586M319.039,895.586L327.543,895.586C327.387,895.586 327.258,895.461 327.258,895.3M327.258,895.3L327.258,912.308M327.258,912.308C327.258,912.152 327.383,912.023 327.543,912.023M327.543,912.023L319.039,912.023C318.883,912.023 318.754,912.148 318.754,912.308M318.754,912.308L318.754,929.316C318.754,929.472 318.879,929.601 319.039,929.601M319.039,929.601L327.543,929.601C327.387,929.601 327.258,929.476 327.258,929.316M327.258,929.316L327.258,946.324M327.258,946.324C327.258,946.168 327.383,946.039 327.543,946.039M327.543,946.039L319.039,946.039C318.883,946.039 318.754,946.164 318.754,946.324M318.754,946.324L318.754,963.332C318.754,963.488 318.879,963.617 319.039,963.617M319.039,963.617L327.543,963.617C327.387,963.617 327.258,963.492 327.258,963.332M327.258,963.332L327.258,980.339M327.258,980.339C327.258,980.183 327.383,980.054 327.543,980.054M327.543,980.054L319.039,980.054C318.883,980.054 318.754,980.179 318.754,980.339M318.754,980.339L318.754,997.347C318.754,997.504 318.879,997.632 319.039,997.632M319.039,997.632L327.543,997.632C327.387,997.632 327.258,997.507 327.258,997.347M327.258,997.347L327.258,1014.36M327.258,1014.36C327.258,1014.2 327.383,1014.07 327.543,1014.07M327.543,1014.07L319.039,1014.07C318.883,1014.07 318.754,1014.2 318.754,1014.36M318.754,1014.36L318.754,1031.36C318.754,1031.52 318.879,1031.65 319.039,1031.65M319.039,1031.65L327.543,1031.65C327.387,1031.65 327.258,1031.52 327.258,1031.36M327.258,1031.36L327.258,1048.37M327.258,1048.37L327.258,1056.88C327.258,1057.03 327.383,1057.16 327.543,1057.16" style="fill:none;stroke:black;stroke-width:0.14px;"/>
    </g>
    <g transform="matrix(0.986956,0,0,2.57955,153.284,-4458.98)">
        <path d="M3448.82,1889.76L3448.82,2929.13" style="fill:none;stroke:rgb(255,0,0);stroke-width:0.21px;stroke-linecap:round;stroke-linejoin:round;stroke-miterlimit:1.5;"/>
    </g>
    <g transform="matrix(1,0,0,2.61364,-2867.72,-4523.4)">
        <path d="M6424.84,1889.76L3448.82,1889.76L3448.82,2929.13" style="fill:none;stroke:rgb(255,0,0);stroke-width:0.21px;stroke-linecap:round;stroke-linejoin:round;stroke-miterlimit:1.5;"/>
    </g>
    <g transform="matrix(1.83697e-17,0.3,-0.3,1.83697e-17,4118.5,2740.16)">
        <path d="M545.121,463.373C502.456,445.559 472.441,403.422 472.441,354.331C472.441,289.144 525.364,236.22 590.551,236.22C655.738,236.22 708.661,289.144 708.661,354.331C708.661,403.422 678.646,445.559 635.982,463.373L708.661,826.772L472.441,826.772L545.121,463.373Z" style="fill:none;stroke:rgb(255,0,0);stroke-width:13.89px;stroke-linecap:round;stroke-linejoin:round;stroke-miterlimit:1.5;"/>
    </g>
    <g transform="matrix(1.03371,0,0,1.03371,129.391,-115.341)">
        <path d="M366.142,3141.73L437.008,3141.73" style="fill:none;stroke:black;stroke-width:0.4px;stroke-linecap:round;stroke-linejoin:round;stroke-miterlimit:1.5;"/>
    </g>
    <g transform="matrix(1.12215e-16,1.8326,-1.8326,1.12215e-16,3168.31,674.379)">
        <g id="Lid-Artwork-3" serif:id="Lid Artwork 3">
            <path d="M651,1183C629,1178 615,1169 600,1150C583,1129 569,1105 565,1088C557,1062 560,1034 573,1014C586,992 597,985 608,993C612,996 620,1007 627,1018C636,1034 640,1055 637,1072C634,1085 619,1123 615,1125L614,1126L612,1123C610,1121 608,1118 607,1115C604,1111 604,1111 609,1097C617,1072 619,1059 617,1048C615,1036 606,1023 599,1023C595,1023 589,1027 586,1034C580,1047 580,1070 587,1092C594,1113 612,1137 628,1145C633,1147 634,1147 643,1147C650,1147 652,1147 657,1145C669,1138 680,1123 685,1104C688,1092 689,1073 686,1059C682,1041 678,1031 658,998C627,947 612,929 600,929C590,929 576,942 560,967C552,978 535,1007 529,1019C505,1064 505,1109 529,1134C543,1149 561,1152 579,1144L585,1141L589,1147C591,1150 593,1154 594,1155L595,1157L591,1161C587,1166 576,1173 569,1176C555,1182 551,1183 536,1184C516,1184 504,1182 489,1173C471,1162 447,1138 430,1113C425,1106 417,1096 412,1091C389,1067 375,1063 343,1073C339,1074 335,1075 334,1075L333,1075L331,1066C329,1061 328,1057 328,1056L328,1055L331,1054C332,1054 340,1052 348,1050C367,1045 372,1044 379,1044C403,1044 422,1061 444,1101C459,1128 470,1141 483,1147C492,1151 506,1156 510,1156C513,1156 516,1154 516,1152C516,1151 514,1148 512,1145C498,1121 491,1097 489,1072C489,1061 488,1060 483,1062C478,1065 472,1072 462,1086C457,1092 453,1098 453,1098C452,1098 439,1079 436,1074C435,1071 435,1071 437,1067C446,1055 445,1042 435,1034C429,1029 418,1024 407,1020C380,1013 360,1017 334,1035C329,1038 325,1041 325,1041L324,1041L321,1032L318,1024C318,1023 323,1020 330,1016C342,1008 357,1000 367,997C389,990 418,993 435,1006C446,1013 452,1015 460,1015C470,1015 479,1011 492,999C515,977 522,956 511,944C507,940 503,942 493,950C480,961 466,969 451,973C442,975 440,975 422,975C380,975 345,968 311,950C299,944 292,940 278,931C260,918 247,913 230,913C215,913 199,917 182,925C166,933 160,947 165,964C169,978 181,989 193,992L196,993L196,999C196,1002 196,1006 197,1008L198,1011L195,1010C190,1009 178,1004 172,1000C153,988 144,970 142,942C139,912 135,905 117,896C104,890 97,883 92,872C89,866 89,864 89,858C89,838 101,825 119,826C127,827 133,829 136,834C140,838 140,840 137,843C134,845 134,845 127,844C118,844 115,845 112,851C109,857 109,861 112,868C119,881 139,894 162,900C170,902 173,902 183,902C194,901 199,900 216,896C234,891 238,891 250,890C269,889 277,892 301,907C330,925 362,937 387,938C413,939 444,931 455,920C463,913 468,896 466,887C465,885 464,882 462,881C460,880 459,880 444,885C435,888 421,892 414,894C400,897 398,897 377,898C351,899 340,901 328,905C323,907 319,908 319,907C318,907 313,904 307,900L297,894L298,893C299,891 312,885 320,883C324,882 335,880 345,878C386,872 418,862 445,847C471,832 484,818 496,794C507,772 509,762 508,733C507,714 507,712 509,706C515,690 529,675 561,653C612,617 619,611 630,599C642,587 646,580 653,562C660,544 670,522 676,511C679,506 685,496 688,490C698,470 703,467 736,464C748,463 761,459 769,455C776,452 786,445 789,441L792,439L790,440C789,440 787,442 784,444C778,448 766,454 756,458C749,460 745,460 730,461C711,462 707,463 700,467C693,471 688,479 681,493C672,514 643,572 639,578C635,584 617,605 609,614C602,621 592,628 580,635C549,652 526,669 517,683L514,687L514,686C514,686 515,682 516,678C517,673 518,666 519,658C519,646 519,644 516,629C511,605 509,593 512,582C515,563 522,549 541,516C551,498 555,490 557,483C560,474 560,474 559,461C559,453 558,446 557,444C555,437 547,429 544,429L542,429L541,431C541,432 540,436 539,440C538,447 530,463 525,469C523,471 518,475 514,478C502,487 496,492 493,497C491,501 491,502 491,507L492,513L484,506C475,499 464,493 453,490C444,488 421,489 410,491C400,494 386,501 379,507C371,514 370,517 370,532C370,543 369,544 367,549C361,558 351,565 333,569C328,571 320,573 315,575C298,579 288,585 284,593L283,597L281,594C280,592 279,588 278,584C275,567 282,545 296,531C306,520 314,517 331,517C347,517 356,513 373,500C395,483 398,478 392,472C388,469 380,466 367,463C360,462 352,462 337,462C305,462 295,464 265,479C245,489 232,498 220,509C190,538 174,580 178,619C180,641 181,643 195,644C219,647 229,650 239,660C247,668 249,673 251,688C252,702 253,706 257,713C259,717 267,726 272,729L275,731L269,731C258,731 240,726 225,719C207,710 193,698 185,686C180,679 175,663 172,646C165,612 166,586 175,553C177,546 179,538 179,537C182,527 165,523 148,531C137,535 125,544 115,554C103,566 97,575 93,586C90,597 90,613 94,647C94,653 94,653 99,656C108,661 112,666 116,678C118,683 120,690 122,692C126,701 135,707 142,707L144,707L144,708C144,708 141,710 138,712C133,714 132,714 122,714C102,714 89,708 82,694C77,683 77,673 83,661C86,653 86,653 86,641C85,629 83,618 78,609C74,601 72,601 66,608C57,617 49,638 46,657C45,662 45,670 45,676C46,698 53,706 80,715C94,720 99,723 105,729C115,739 121,756 121,775C121,789 118,797 108,809C105,813 96,820 95,820L94,820L95,818C97,814 98,806 97,800C95,789 89,782 69,764C60,756 59,752 59,735C59,722 59,722 52,714C40,701 35,690 34,670C33,646 37,625 47,606C60,579 82,551 106,531C118,521 135,510 144,506C153,503 159,499 160,496C161,491 157,488 147,487C132,485 120,482 113,479C106,476 85,463 84,461L83,460L90,455C93,452 97,450 98,450C98,450 101,452 104,453C115,460 135,467 153,470C162,471 168,471 180,471C205,470 217,466 244,452C253,447 263,441 267,440C276,436 295,432 309,430C314,429 320,428 321,427L323,427L323,426C323,422 307,418 292,417C283,417 278,417 269,419C261,420 252,420 243,420C216,420 205,415 197,400C195,394 195,393 195,382C195,370 195,369 199,359C204,346 205,339 202,333L200,330L202,331C211,333 220,341 225,351C229,359 230,362 231,375C233,389 236,395 242,400C250,408 254,408 283,409C311,409 313,409 342,418C352,421 362,424 364,424L367,424L367,421C367,418 362,409 350,393C344,385 338,375 336,371C327,352 326,331 333,306C336,294 341,283 352,259C365,233 366,230 366,219C366,208 364,201 360,197C356,192 353,193 348,200C343,206 337,210 331,210C329,210 323,209 317,208C312,207 305,206 303,206C298,206 292,209 287,213L283,217L283,210C284,205 285,201 288,195C300,171 327,160 349,170C356,174 369,189 374,200C376,206 378,214 378,219C378,231 371,257 361,283C350,308 350,312 350,327C350,335 350,340 352,346C359,374 380,400 404,412C409,415 419,418 420,418C420,417 419,413 417,408C415,401 415,397 415,390C415,382 416,381 419,374C429,356 430,353 431,348L431,344L420,343C411,343 409,343 404,341C397,337 391,332 387,325C385,320 385,319 385,308C385,298 385,295 387,290C390,282 394,271 396,271L397,270L397,274C399,281 404,291 410,297C413,300 420,305 425,308C436,315 439,318 441,325C443,332 441,342 436,358C429,380 429,389 432,400C437,417 453,429 476,432C492,434 502,430 507,421C509,416 509,415 509,403C509,393 509,389 507,380C498,348 488,327 469,304C447,277 421,260 391,255C387,254 381,253 380,252L378,252L378,250C378,248 379,245 380,243L381,239L383,239C387,239 405,242 414,244C430,248 439,252 449,258C454,262 458,264 460,264L463,264L464,260C467,248 455,222 441,212C435,207 427,205 411,203C402,202 394,201 392,200C375,195 362,173 362,149L362,140L364,140L364,141C364,144 371,151 376,153C378,155 386,157 392,159C414,165 419,168 425,184C428,190 429,193 433,196C438,201 446,205 451,207L453,207L453,204C452,198 446,186 441,179C421,149 383,124 345,118C331,116 314,116 304,119C283,124 265,139 255,160C251,167 251,168 241,170L238,170L240,165C247,139 263,120 286,109C322,91 383,98 426,125C430,127 439,134 445,141C452,147 458,152 459,152C463,153 467,151 469,146C474,131 489,105 500,90C504,86 512,75 519,67L532,52L538,55C541,56 546,59 549,61L555,64L554,66C553,67 549,71 546,75C519,106 503,136 497,165C495,174 495,179 495,198C495,247 505,290 531,341C549,377 573,410 587,420C592,423 594,424 599,424C603,424 606,423 609,421C622,413 638,389 645,366C654,341 652,320 639,293C632,281 632,280 622,271C609,259 608,256 608,238C608,224 609,216 614,205C619,197 628,186 638,179L644,174L645,174C645,174 644,177 643,181C640,189 641,194 646,207C651,218 652,228 650,236C649,238 647,245 644,250C637,267 637,273 650,300C655,310 660,321 661,324L663,331L665,326C672,307 675,285 675,259C675,236 674,224 668,201C661,173 654,156 644,144C639,138 639,138 638,122L638,106L643,109C664,120 686,150 697,182C702,196 704,201 708,205C710,208 711,208 716,208C722,208 733,203 742,195C770,173 775,121 753,82C747,72 735,59 726,55C723,53 718,52 713,51C705,50 705,50 699,42L693,34L694,34C695,32 717,33 723,34C739,38 757,50 768,64C773,72 776,77 780,90C788,109 795,120 805,124C811,128 822,128 838,124C855,121 864,119 869,119C872,119 872,120 874,123C877,128 880,138 880,140L880,142L872,142C848,144 828,149 814,157C801,165 785,183 783,193C782,195 782,196 784,199C787,202 787,202 800,201C810,201 815,201 825,199C866,190 884,176 887,153C888,141 882,123 872,110C859,94 834,78 812,72C803,70 784,68 779,68L776,69L774,66C773,65 772,62 771,61L769,59L769,58C771,57 798,57 808,58C828,61 852,71 868,82C887,96 904,121 909,144C910,152 910,167 909,177C907,193 909,194 949,196C961,197 971,197 971,198C972,198 972,203 973,208L973,218L965,217C954,216 932,217 917,218C909,219 893,221 880,222C843,224 823,227 802,232C771,240 748,251 736,261C722,275 709,303 697,351C689,382 688,395 690,407C692,418 698,426 705,428C715,431 746,424 763,415C770,412 778,404 781,398C782,395 784,389 785,384C786,378 788,372 789,370C796,357 815,348 836,346C849,346 857,348 863,353L868,357L865,356C862,354 860,354 854,356C847,358 843,362 841,370C836,385 824,395 808,395C800,395 795,397 790,400C783,407 783,413 790,413C794,413 813,409 822,406C848,397 874,376 885,354C891,342 892,336 892,323C893,300 885,290 866,286C859,284 838,284 831,285C827,286 827,286 823,282C822,280 820,278 820,278L820,277L829,276C846,273 867,274 880,279C891,284 900,292 906,301C915,315 916,339 909,361C902,382 892,397 877,412C866,423 864,426 868,430C872,433 882,435 901,434C914,434 918,434 925,432C949,426 962,418 966,408C967,406 967,401 968,396C969,382 971,379 987,370C1006,360 1012,351 1016,333L1016,329L1018,330C1020,332 1023,341 1025,350C1028,368 1025,381 1015,395C1009,403 1005,405 988,412C968,421 961,425 956,433L954,436L954,437C955,438 976,434 989,431C1018,424 1048,410 1066,395C1076,387 1087,369 1091,353C1093,347 1093,342 1093,334C1094,319 1091,312 1084,300C1080,294 1078,291 1078,289C1078,287 1078,284 1077,282L1076,278L1077,278C1079,278 1087,284 1092,289C1101,300 1107,315 1108,335C1109,361 1101,386 1084,409C1080,414 1077,420 1076,422C1075,431 1081,438 1098,448C1113,456 1120,461 1131,472C1157,498 1173,533 1179,573C1181,588 1180,617 1178,630C1175,640 1170,657 1161,678C1157,687 1153,696 1153,699C1151,705 1151,705 1154,714C1156,721 1156,725 1156,733C1156,743 1156,744 1153,750C1149,760 1143,766 1130,774C1124,777 1118,782 1117,784C1114,788 1114,794 1118,802L1121,808L1120,808C1118,808 1111,802 1108,797C1099,784 1096,764 1100,751C1103,741 1108,734 1123,720C1140,703 1144,697 1150,678C1161,646 1164,626 1160,618L1158,615L1152,621C1144,630 1139,639 1137,651C1136,662 1134,668 1129,677C1121,694 1106,701 1080,701C1070,701 1068,701 1064,699C1061,698 1059,697 1059,696L1058,695L1065,695C1079,694 1083,689 1089,666C1093,648 1096,643 1102,637C1109,631 1114,629 1124,629C1132,629 1132,629 1137,624C1142,619 1147,610 1151,597C1154,588 1154,587 1154,574C1154,561 1154,559 1152,551C1148,542 1133,511 1126,501C1114,482 1092,467 1068,461C1064,460 1060,459 1060,460L1063,464C1067,468 1069,469 1080,473C1093,478 1104,487 1109,497C1115,509 1116,534 1110,548L1109,552L1108,552C1108,552 1106,549 1105,546C1102,538 1092,529 1080,522C1075,519 1068,515 1066,512C1058,505 1057,501 1056,485C1055,469 1054,466 1049,462C1037,454 1017,452 982,457C955,460 940,463 938,468C935,474 941,481 964,496C987,510 997,517 1008,528C1019,538 1023,540 1033,542C1050,545 1055,546 1062,549C1073,555 1079,561 1085,574C1091,585 1096,590 1103,595C1107,597 1118,600 1126,600L1131,600L1127,602C1115,607 1087,607 1069,603C1063,601 1056,598 1052,596C1039,590 1033,582 1023,562C1016,550 1007,538 998,531L994,528L1002,544C1015,571 1018,585 1018,619C1017,631 1017,644 1016,648C1013,666 1005,685 995,696C988,703 983,706 974,709C961,713 953,723 952,737C952,740 952,745 953,747C953,750 954,752 954,752L953,752L949,749C934,740 924,724 924,709C924,697 928,686 936,678C943,671 948,669 963,668C984,666 994,663 1001,655C1007,649 1008,643 1009,626C1009,605 1006,584 998,563L995,554L994,562C993,576 988,589 982,597C980,599 975,603 970,607C961,613 956,619 948,628C944,633 936,637 918,642C903,646 896,649 892,653C888,656 885,663 885,666L885,669L884,669L883,669L882,665C879,658 879,652 880,645C885,625 901,606 916,604C919,603 924,604 932,605C951,609 958,607 967,598C977,588 982,573 981,556C980,530 971,515 947,499C921,482 884,473 839,471L819,471C819,472 821,475 823,478C825,481 828,487 830,492C833,499 839,520 839,524C839,525 841,531 844,537C849,547 849,548 849,555C849,559 848,565 847,568C844,580 835,595 823,608C815,616 802,629 801,629L800,629L802,625C805,617 806,610 805,604C804,601 801,595 798,589C794,583 791,577 790,574C787,564 791,549 800,540C805,536 809,534 821,529C828,527 829,524 827,514C826,509 824,503 823,500C819,493 811,485 804,481C798,479 797,479 781,479C765,479 765,479 756,482C725,495 703,521 696,552C695,557 695,564 695,577C695,597 694,604 689,617C683,635 682,641 682,657C683,665 684,674 685,678C686,685 686,687 685,693C683,707 677,717 662,734C644,755 635,771 625,800C620,815 617,825 617,838C616,849 614,856 609,867C603,880 595,891 591,891C589,891 587,888 587,884C587,882 588,875 590,869C595,849 596,836 596,820C595,808 595,803 597,792C598,784 599,772 600,765C601,745 603,739 615,712C623,693 627,687 633,679C639,671 640,667 641,653C641,642 642,638 646,624C651,605 655,586 654,584L653,584L650,587C649,589 643,595 639,600C633,606 626,615 622,622C610,640 606,646 593,658C579,671 559,693 549,707C542,717 534,731 532,739C531,742 531,746 531,749L531,755L534,746C545,717 556,701 583,674C602,655 607,650 624,625C630,616 638,605 642,600L649,591L650,592C650,593 648,600 646,607C643,615 640,627 638,638C633,664 631,671 614,708C598,743 598,743 595,766C593,783 590,790 583,805C575,821 568,831 555,844C542,857 531,865 516,872C508,876 505,878 495,887C489,893 483,898 481,899L478,901L477,900C477,899 477,898 478,898L478,897L476,899C474,900 473,902 473,904L473,906L475,905C479,905 487,900 496,891C502,886 509,881 521,874C550,857 559,849 573,833C584,819 587,818 587,826C587,832 584,839 576,849C573,853 569,859 566,863C564,866 557,875 549,882C538,894 535,896 527,901C510,910 496,922 486,936L483,941L485,939C486,938 492,933 498,927C513,915 517,912 530,906C545,899 551,894 568,876C577,867 584,860 585,860L587,860L588,862C589,869 582,884 562,921C556,931 549,943 547,947L544,954L545,953C545,952 548,948 552,943C562,929 573,916 586,904C601,890 607,882 614,869C620,856 622,848 625,832C628,811 630,807 642,793C646,787 650,780 656,768C658,763 660,759 660,759L661,758L656,775C653,784 649,795 648,798C646,802 644,812 642,820C640,828 636,841 633,849C629,860 628,866 627,872C627,879 627,881 632,896C635,905 637,915 638,917L639,922L637,923C634,924 629,919 624,910C621,905 618,901 618,900L617,900L619,904C622,910 629,921 639,934C646,944 649,948 657,954L667,962L666,960C666,959 662,953 657,947C651,938 649,934 647,929C646,925 643,917 640,911C633,895 632,889 632,879C632,868 633,861 640,846C649,823 650,819 653,798C654,790 656,780 658,774C660,769 663,757 665,749C670,731 671,728 679,718C684,710 687,705 689,700L689,697L692,706C694,715 694,718 695,745C696,779 696,782 704,797C714,819 732,835 764,850C800,867 819,873 858,879C888,884 891,885 903,898C912,908 917,910 937,917C945,919 955,922 957,923C964,927 973,933 978,940C988,951 996,972 996,984L996,989L987,989L979,989L977,983C971,966 959,951 945,944C936,939 923,935 911,933C906,932 898,930 894,930C882,927 877,925 872,917C865,906 862,902 854,899C839,893 813,889 781,887C764,886 752,884 744,881L742,880L741,881C737,885 738,900 742,908C746,916 756,925 766,930C777,935 784,936 804,936C825,936 839,934 854,927C859,926 863,924 864,924C865,924 867,925 868,927C872,931 877,933 901,937L908,938L908,939C908,940 875,956 864,961C850,966 830,971 813,973C780,978 757,973 713,951C700,944 688,939 687,939L685,939L684,942C682,948 686,966 693,980C698,989 708,1002 715,1008C723,1014 728,1017 737,1016C746,1016 751,1014 769,1004C788,992 794,990 810,991C821,991 824,991 831,993C855,1001 873,1014 886,1036C894,1049 903,1059 909,1060C925,1063 959,1043 974,1021C977,1016 977,1016 985,1016L993,1016L992,1018C992,1019 990,1023 989,1026C976,1049 946,1070 915,1076C892,1080 881,1080 857,1073C833,1066 819,1066 803,1074C799,1075 795,1078 792,1080C789,1082 787,1083 786,1082C784,1082 776,1073 776,1072C776,1072 778,1069 781,1066C791,1055 806,1046 817,1044C824,1043 831,1044 847,1049C854,1051 861,1053 864,1053L868,1054L868,1053C868,1052 866,1048 865,1044C858,1032 845,1020 831,1015C822,1012 808,1011 799,1014C785,1018 752,1035 745,1041L742,1044L746,1052C757,1069 774,1087 790,1097C810,1109 832,1111 851,1101C856,1098 870,1086 870,1084L870,1083L898,1083L898,1086C896,1091 890,1101 882,1108C859,1131 823,1141 802,1131C786,1124 769,1111 742,1086C723,1069 716,1063 712,1062L710,1061L710,1071C708,1100 701,1123 686,1144C683,1149 681,1153 681,1154L681,1156L684,1157C693,1158 708,1152 719,1143C726,1136 735,1126 744,1114C748,1110 751,1106 751,1106C751,1106 755,1108 758,1111L765,1117L760,1124C746,1142 728,1161 714,1170C694,1183 672,1188 651,1183ZM674,909C666,897 664,885 668,873C669,870 672,863 675,858C678,853 682,845 684,840C686,835 688,830 689,829L692,827L694,829C697,832 698,837 699,849C700,864 702,872 707,883C712,894 719,901 727,905L733,908L731,907C729,906 726,903 723,901C716,896 713,890 709,877C704,863 702,854 702,846C702,824 694,802 685,798L682,797L680,799C678,801 678,802 677,812C677,828 672,848 665,861C659,875 659,888 665,902C668,907 674,914 676,914L677,914L674,909ZM506,865C523,850 538,827 544,807C548,794 544,774 538,774C537,774 534,776 531,779C528,782 522,787 518,789C503,799 490,813 485,824C483,827 480,834 477,840C474,847 471,853 467,856L463,861L466,859C471,856 476,850 479,843C492,815 492,815 524,790C531,784 538,779 538,779C539,779 542,783 542,787C544,796 536,817 525,834C522,839 514,848 508,855C494,871 491,875 487,883L483,889L490,881C494,877 501,870 506,865ZM508,844C528,823 537,806 534,798L534,796L532,796C530,796 516,804 508,810C498,818 491,825 489,833L488,836C489,836 491,833 493,829C501,819 520,804 526,804L528,804L528,805C530,810 519,828 506,843C502,847 498,852 497,853L496,856L499,854C500,853 505,849 508,844ZM1130,746C1139,739 1146,730 1148,724C1150,719 1150,718 1149,714L1148,712L1147,713C1146,713 1145,716 1144,719C1142,727 1137,734 1126,746C1120,752 1115,758 1114,759L1113,762L1118,757C1120,755 1126,750 1130,746ZM100,748C92,732 74,717 65,717L62,717L63,719C64,719 67,722 71,724C79,728 91,738 96,744C99,747 100,749 101,749L100,748ZM577,691C580,688 586,682 590,678C603,667 610,661 618,651L627,641L627,643C628,651 620,670 606,690L598,702L603,698C613,688 623,669 630,649C633,639 635,630 634,627L633,625L631,626C630,627 627,631 625,635C619,646 613,654 595,670C586,678 578,686 576,688C572,693 564,705 564,706L564,707L568,702C571,699 575,694 577,691ZM949,691C955,685 962,680 973,677L983,674L983,673L979,672C975,672 966,674 959,678C949,684 939,696 939,704L939,706L942,701C943,698 946,693 949,691ZM101,699C96,693 92,681 92,670C92,666 92,662 91,661L90,660L89,660C88,662 88,674 89,680C91,687 95,694 99,698C101,700 103,701 103,701L101,699ZM218,696C205,688 197,679 189,663C184,651 180,645 178,645L177,645L178,649C179,659 190,676 201,686C207,692 218,699 221,699L222,699L218,696ZM1113,673C1114,671 1116,665 1118,661C1120,656 1123,649 1125,646C1127,643 1129,640 1129,639L1130,638L1129,638C1128,638 1125,640 1123,642C1119,646 1118,647 1115,659C1113,665 1110,673 1109,676L1106,681L1109,679C1110,678 1112,675 1113,673ZM566,635C571,630 578,623 581,621C599,606 616,590 623,581C629,573 643,551 647,543C650,537 653,526 653,523C653,522 655,513 657,503C660,489 661,484 661,478L661,471L659,470C657,470 642,485 637,493C635,497 631,503 629,508C625,515 618,533 618,534L618,535L626,518C631,510 636,500 638,498C642,492 648,486 651,486L653,486L654,488C655,492 654,501 650,517C648,524 647,531 647,532C647,536 644,542 639,550C637,553 632,561 628,568C624,574 619,581 617,584C606,597 590,613 577,622L569,627L568,627L568,626L570,621C572,619 577,610 581,602C590,586 595,574 596,566L597,562L591,573C583,588 572,608 566,616C560,625 554,639 554,642L554,644L555,644C556,644 560,640 566,635ZM919,619C923,618 930,617 935,616L944,616L945,614L945,613L941,612C934,611 923,613 917,616C911,618 899,627 899,629L899,630L906,625C909,623 915,620 919,619ZM543,618C545,616 547,612 549,609L552,603L548,607C546,609 544,612 542,614L540,617L540,610C540,586 558,538 578,510C593,489 623,457 642,441C649,436 655,430 656,429C659,424 666,403 667,393C670,380 669,355 666,349L665,348L665,349C664,350 663,355 661,360C654,382 644,402 634,416C631,419 625,425 619,430C613,435 605,443 600,448L591,457L589,456C588,455 587,452 586,450L585,447L585,449C585,453 587,458 589,458C589,459 591,458 592,458C597,455 632,423 637,417C642,410 652,393 659,374L664,363L665,367C667,378 664,398 658,411C652,424 646,431 620,457C581,495 570,509 558,533C550,551 540,576 539,586C537,596 536,618 537,620C539,622 541,621 543,618ZM830,579C832,576 834,570 835,566C837,557 837,540 836,537L835,534L834,534C834,535 833,541 833,549C832,565 830,575 825,585L821,593L824,589C825,587 828,583 830,579ZM1065,582C1058,572 1051,565 1045,560C1039,555 1031,550 1029,550L1027,550L1027,551C1027,553 1033,559 1041,563C1047,567 1052,571 1059,578C1065,584 1069,588 1069,588L1070,588L1065,582ZM625,566C634,552 641,538 642,531C643,528 644,520 646,514C648,508 649,502 649,500L649,497L647,497C644,497 640,502 640,505L640,506L642,505C643,504 644,503 645,503L646,503L646,509C645,517 638,537 632,550C629,556 623,565 619,572L612,583L615,579C617,577 621,571 625,566ZM569,545C573,540 580,530 585,523C590,517 597,507 600,502C605,493 614,480 624,469L629,463C628,463 623,468 617,475C607,486 581,520 570,536C562,549 556,562 556,568L556,572L559,564C561,559 566,551 569,545ZM320,544C324,540 330,536 336,533C347,528 352,523 353,520L354,518L352,519C346,520 336,526 329,532C321,538 306,554 301,561L299,564L306,556C310,553 316,547 320,544ZM686,554C687,553 688,550 688,548L689,545L688,545C688,545 687,547 686,549C685,550 684,552 683,552L682,552L682,544C684,527 688,515 695,501C700,490 705,485 712,481C717,479 718,478 737,478L757,478L757,477L757,476L753,475C749,473 727,473 717,475C711,476 709,477 704,481C691,493 682,512 680,532C678,547 678,555 680,557L681,559L683,558C684,557 686,556 686,554ZM702,504C704,500 707,496 709,494C713,490 722,486 725,486L728,486L728,485L727,484L724,485C711,487 704,492 698,504C696,509 695,513 694,517L694,523L696,517C697,514 700,508 702,504ZM1089,508C1080,498 1076,493 1071,485C1068,479 1064,474 1063,474L1062,473L1061,474C1060,479 1068,492 1079,503C1085,509 1099,520 1101,520L1089,508ZM984,403C995,397 1006,386 1008,378L1009,376L1006,380C1002,386 996,391 989,395C979,400 971,405 971,406L971,407L975,407C977,406 981,405 984,403ZM232,404C228,401 225,395 221,383C219,376 217,370 216,369L215,368L215,369C215,374 218,390 220,394C223,400 229,406 234,406L235,406L232,404ZM792,390C793,389 796,386 797,383C801,376 809,368 817,362L822,359L822,358L821,358L814,362C802,369 792,380 790,389L789,391C790,391 791,391 792,390ZM429,334C428,333 424,330 420,328C414,324 413,322 407,314C404,309 401,304 400,304L399,303L400,305C402,311 408,322 412,327C416,332 424,337 428,337L430,337L429,334ZM625,250C621,238 620,226 620,219L621,213L620,215C615,227 618,253 624,258L626,259L627,259C627,258 626,254 625,250ZM418,196L420,196L420,195L420,194L413,191C397,185 388,180 384,176L381,173L383,176C386,181 394,189 400,192C405,195 412,197 415,196C416,196 417,196 418,196ZM350,182L351,181L348,179C342,174 329,173 317,177L312,178L312,179C312,179 315,179 318,178C325,177 332,178 340,181C345,183 350,184 350,182ZM358,1133C340,1130 330,1124 317,1112C306,1100 301,1091 298,1075C294,1053 291,1043 284,1032C274,1016 259,1009 238,1009C228,1009 227,1009 226,1000L226,994L235,993C245,993 263,994 273,996C281,999 292,1004 297,1008C306,1017 314,1031 322,1059C327,1078 331,1086 337,1092C346,1101 357,1105 376,1105C389,1105 397,1104 404,1101L409,1099L414,1103C419,1109 425,1120 425,1122C424,1124 414,1127 398,1132C387,1134 383,1135 375,1135C369,1135 361,1134 358,1133ZM279,1078C258,1073 243,1066 230,1054C219,1043 209,1027 205,1012C202,1000 202,981 205,970C211,951 223,935 238,926C245,921 246,921 258,926C264,929 272,934 272,936L272,937L265,938C250,940 234,951 228,963C217,985 217,1007 228,1023C237,1036 248,1042 269,1043L282,1043L283,1049C284,1053 286,1061 288,1067C289,1074 291,1079 291,1080L289,1080C288,1080 283,1079 279,1078ZM901,1047C897,1043 889,1027 889,1024C889,1021 904,1006 911,1002C921,996 930,992 940,991C948,990 952,990 969,991C998,994 1008,992 1018,982C1027,972 1033,959 1033,948C1033,937 1030,932 1020,926C1013,923 979,913 970,912C964,911 959,911 954,912C941,914 927,910 915,902C913,900 911,898 911,898L911,897L919,895C937,889 955,889 976,894C982,895 991,897 998,899C1012,902 1027,902 1039,899C1055,894 1075,883 1082,874C1092,861 1094,848 1085,843C1082,842 1081,842 1073,844C1068,846 1063,847 1063,847C1060,846 1059,841 1060,838C1061,830 1070,826 1081,826C1087,826 1089,826 1094,828C1109,836 1115,853 1108,871C1105,879 1100,884 1085,893C1071,901 1066,905 1063,911C1059,918 1058,922 1057,940C1054,964 1050,975 1036,989C1020,1005 1000,1012 976,1010C945,1007 935,1010 921,1024C916,1029 913,1033 909,1041L904,1051L901,1047ZM565,873C563,872 564,869 572,859C581,845 583,843 586,843L589,844L588,846C588,849 580,859 572,867L565,874L565,873ZM628,802C629,801 630,797 631,793C635,779 639,770 650,754C656,745 662,737 664,736L666,734L665,738C664,740 660,747 657,754C654,760 647,771 643,780C639,789 633,797 631,800L628,804L628,802ZM511,563C511,550 511,548 514,539C517,529 523,517 530,507C536,498 539,490 539,485C539,480 538,477 535,477C535,477 530,481 525,486C520,491 513,498 509,500C502,506 499,510 498,515L498,519L496,517C493,514 493,505 496,498C499,493 504,488 517,481C527,475 536,463 542,445C544,440 546,435 546,435L548,435L549,439C553,447 555,465 553,477C550,491 545,503 536,519C532,523 527,532 524,539C519,549 512,569 512,573C512,574 512,575 511,576L511,577L511,563ZM37,567C26,556 20,541 20,524C20,516 22,508 27,498C35,480 48,466 73,448C109,421 127,403 138,381C144,369 147,355 149,343C149,335 149,335 155,333C158,331 161,330 162,330L163,330L163,337C163,340 162,354 162,367C160,395 161,398 168,405C170,408 174,409 178,411C188,414 193,418 200,428C209,440 214,442 226,442L235,443C235,443 229,448 226,450C221,453 212,456 204,457C184,460 165,453 158,439C154,432 153,424 154,405C155,396 155,388 154,386L153,383L146,393C135,408 111,432 97,442C80,453 69,464 65,472C62,479 62,480 66,489C71,498 71,502 70,509C67,518 64,524 55,534C45,546 42,551 42,560C42,563 43,568 43,570L45,573L44,573C43,573 40,570 37,567ZM45,489C52,479 54,476 54,475L53,474L50,475C47,477 41,484 38,491C36,495 32,507 32,509L32,510L36,503C38,498 42,492 45,489ZM183,443C176,439 170,432 164,421L159,411L159,414C159,419 163,429 167,434C170,438 182,445 185,445L187,445L183,443ZM508,539C507,537 505,532 503,528C500,522 500,521 501,517C503,511 507,506 517,497C523,493 528,487 530,485L534,481L535,482C536,486 531,499 519,521C516,525 513,533 512,536L510,543L509,543L508,543L508,539ZM1160,478C1158,473 1154,463 1149,458C1145,452 1139,449 1127,445C1120,443 1114,441 1111,439C1107,437 1102,431 1102,427C1102,426 1101,424 1100,422C1097,420 1096,420 1091,420L1084,420L1084,419C1084,418 1085,416 1087,413C1089,408 1089,408 1095,408C1100,408 1101,408 1105,405C1124,390 1156,403 1162,430C1166,445 1165,464 1162,477L1160,482L1160,478ZM1147,423C1141,418 1132,413 1125,411C1118,409 1108,410 1107,412L1106,413L1107,414C1108,414 1112,415 1117,415C1127,416 1138,420 1146,425C1148,427 1151,428 1152,428L1153,428L1147,423ZM64,436C55,415 56,388 67,369C77,350 96,335 123,325C127,323 139,319 149,317C181,307 187,306 193,303C196,301 200,299 200,297C201,296 203,290 204,284C206,272 208,268 213,264C218,260 221,259 232,255C238,253 243,250 245,249C251,246 262,237 268,230L273,223L274,224C276,225 277,235 277,243C276,264 265,282 248,290C247,291 239,294 231,295C213,300 206,303 197,308C187,315 180,318 159,327C128,339 113,348 98,362C84,376 79,389 79,406C79,412 80,417 81,423C83,430 84,432 83,433C80,436 70,443 68,443L66,443L64,436ZM226,290C238,284 250,273 254,264C254,262 255,261 255,260L250,266C244,274 235,281 226,285C217,288 211,291 211,293L210,294L214,293C217,293 222,291 226,290ZM592,410C597,397 590,387 571,377C556,369 550,362 550,349C550,344 550,343 542,332C539,328 536,321 534,318C527,303 528,276 537,250L539,242L540,242C540,242 541,246 543,251C545,258 545,259 544,264C542,273 541,293 542,305C543,319 545,324 551,330C555,334 557,335 565,338C580,343 587,347 593,353C601,361 603,367 603,383C604,397 602,402 596,408L592,412L592,410ZM589,363C586,359 575,349 571,347C569,346 565,345 563,344L560,344L561,345C561,346 567,349 572,353C578,356 584,360 587,362C589,364 591,366 591,366L589,363ZM1048,397C1041,384 1040,370 1044,357C1059,317 1061,306 1056,286C1050,260 1027,232 1007,224L1002,223L1002,212C1001,206 1001,201 1002,201L1008,203C1019,208 1033,218 1042,227C1057,241 1066,258 1071,278C1075,294 1073,321 1065,345C1059,365 1058,374 1061,386C1063,391 1063,391 1060,395C1058,397 1055,399 1053,400L1050,402L1048,397ZM754,382C747,362 750,337 760,320C767,309 783,296 799,289L805,286L807,288C811,291 811,292 806,295C804,296 801,299 799,301C795,305 795,305 795,311C795,314 796,320 797,324C798,331 798,332 797,336C794,343 789,348 779,355C765,365 761,370 757,382L755,388L754,382ZM769,328C770,324 774,318 778,314C783,308 786,303 785,302L784,302L781,305C776,309 769,319 767,327C766,330 765,335 764,339L764,346L765,340C766,336 767,331 769,328ZM935,370C942,365 948,358 951,355C952,352 954,346 955,340C958,324 962,316 969,313C971,312 976,311 981,310C991,309 992,308 1002,299C1005,295 1011,290 1015,288C1021,284 1036,278 1044,277L1049,277L1050,280C1051,281 1051,284 1052,286L1052,291L1040,291C1029,291 1028,291 1021,294C1017,296 1012,300 1009,303C1002,310 1001,314 1001,329C1002,342 1000,346 992,354C985,360 977,364 966,367C955,369 939,372 935,372L933,372L935,370ZM969,334C971,331 976,327 980,325C984,323 989,319 991,318L994,315L992,314C991,314 987,315 985,316C975,321 962,336 960,346L959,349L962,343C964,341 967,336 969,334ZM261,349C258,341 257,319 259,310C261,302 266,291 271,285C277,279 284,275 299,271C307,269 313,267 316,265C318,264 323,260 327,257C334,252 348,244 353,243L355,242L352,248C349,254 348,255 340,260C335,262 330,266 327,269C323,273 323,273 324,278C325,290 325,295 321,302C315,314 306,321 288,324C276,327 269,335 266,349C265,352 264,355 264,356L263,356L261,349ZM287,291C291,287 295,284 299,282C303,280 307,278 309,277L312,275L308,275C298,277 294,279 287,285C282,291 277,299 276,306L275,309L279,302C281,299 285,294 287,291ZM600,340C599,334 594,323 589,318C588,317 583,313 578,311C552,296 549,291 552,270C553,263 553,263 549,252C526,191 542,135 590,110C595,108 599,106 599,106L601,106L602,112C603,116 604,121 605,125L605,131L597,134C572,147 553,185 554,221C555,245 564,259 577,256C580,256 582,256 585,258C594,262 599,271 604,288C608,308 608,328 602,341L600,346L600,340ZM588,286C583,276 569,263 564,263L562,263L562,264C562,265 567,270 577,278C583,283 588,287 589,289C589,290 590,291 591,291L588,286ZM877,323C861,321 845,315 834,308C831,306 823,299 817,292C804,278 799,275 796,276C795,276 793,278 790,280C782,286 775,287 766,284C755,280 742,282 733,289L729,293L730,290C733,277 742,265 754,259C760,255 772,254 781,255C792,257 795,259 816,280C837,300 839,302 853,307C862,310 875,312 881,312L887,312L887,317C888,320 888,323 887,323C887,324 885,324 877,323ZM763,265C766,265 773,266 778,268C784,269 789,270 790,270L793,270L793,268L793,267L787,265C775,260 756,262 749,267L747,270L752,267C756,265 759,265 763,265ZM919,319C918,318 916,309 916,309C916,308 921,306 927,303C933,300 940,297 942,295C948,290 958,278 958,276L958,274L957,274C956,274 949,274 941,274C930,274 924,275 918,276C908,278 898,279 894,277C893,276 888,272 883,267C872,256 864,252 853,252L846,252L846,251C847,249 858,243 865,240C878,236 891,238 905,245C911,247 914,250 922,257C930,266 931,267 935,268C946,269 959,263 967,253C975,242 978,231 978,215C978,192 971,174 959,162C949,153 932,144 919,140C914,139 913,138 913,136C912,134 911,130 909,126C907,123 906,120 906,119L912,119C918,120 933,125 940,129C962,140 981,158 990,178C1000,202 998,238 983,268C971,291 955,306 931,316C921,320 919,321 919,319ZM922,269C922,269 920,266 917,263C912,259 902,253 895,250L891,248C891,249 892,250 894,251C896,251 901,255 905,259C916,268 918,270 920,270L922,270L922,269ZM142,298C137,274 137,262 143,244C151,220 169,201 195,188C205,182 220,178 240,174C265,168 276,165 285,161C302,154 316,144 329,130C336,122 337,122 341,122C343,123 347,124 350,125L355,126L355,127C355,129 343,143 337,149C319,165 289,177 248,185C203,193 172,214 164,242C159,257 158,271 161,301L161,309L159,309C157,310 146,312 145,312L144,312L142,298ZM186,261C187,243 194,224 201,217C203,215 210,211 216,208C230,202 233,199 235,195C236,191 239,190 246,189L248,189L249,193C250,195 250,204 250,211C251,226 250,229 244,235C240,240 235,242 224,245C211,248 205,252 195,262L186,271L186,261ZM210,233C223,228 234,217 236,208L236,205L234,207C232,208 228,212 225,217C217,226 212,230 205,234L200,237L202,236C203,236 207,235 210,233ZM559,229C558,221 558,221 569,211C581,199 587,193 592,186C610,159 615,132 608,109C601,91 589,77 565,62C527,40 499,34 477,45C466,51 464,54 467,63C470,73 469,77 462,92C451,112 451,121 461,126L465,128L461,128C452,128 440,123 433,116C421,104 418,88 426,74C430,65 433,62 447,56C454,52 460,49 461,47L463,45L461,44C456,44 439,49 428,54C411,62 393,76 380,90C374,97 374,97 365,95C360,94 355,94 355,93L359,88C385,54 428,30 477,24C491,22 510,22 521,23C538,26 561,35 581,46C611,64 619,65 635,54C640,49 654,43 661,41C664,40 665,40 670,42C675,45 681,50 681,52L681,53L678,53C667,55 647,69 641,78C633,89 633,92 632,123C632,154 632,157 625,170C617,185 603,201 584,215C578,220 571,226 567,229C564,232 561,235 561,235L560,235L559,229ZM443,79C444,76 447,71 450,67L456,61L456,60L455,59L453,60C449,61 442,69 441,75C439,82 438,91 439,94L439,96L440,89C441,86 442,81 443,79ZM710,162C715,154 716,147 714,135C709,112 710,105 715,95C719,88 727,78 734,73L738,70L740,71C741,71 742,73 743,74L745,77L742,80C738,84 735,90 735,95C735,99 735,100 743,109C755,125 749,151 731,160C726,163 716,166 711,166L708,166L710,162ZM726,118C726,112 726,106 727,103C728,100 728,96 728,93L728,89L726,91C723,95 723,102 724,121L724,136L725,132C726,129 726,123 726,118ZM688,133C680,127 675,118 673,106C671,93 675,79 685,69C690,63 690,63 690,58C688,41 664,31 629,32C614,33 601,35 590,39C582,42 582,42 578,39C576,37 571,35 568,33C565,32 562,30 562,30L562,29L567,27C575,24 590,19 601,17C628,11 659,17 681,32C700,45 714,70 710,84C710,86 707,92 704,96C695,110 694,114 694,126L694,136L693,136C693,136 691,135 688,133ZM694,94C700,85 703,76 701,71L701,68L700,68L699,68L697,74C697,78 694,86 692,93C689,99 687,106 687,107L687,109L688,105C689,103 692,98 694,94ZM670,860C671,858 672,853 674,848C680,829 681,821 682,812L682,802L683,802C683,802 686,804 688,807C692,811 697,823 697,827L697,829L696,827C695,826 694,825 693,824C689,822 687,825 684,834C681,841 673,857 671,860L670,862L670,860Z" style="fill:rgb(160,160,160);fill-rule:nonzero;"/>
        </g>
    </g>
    <g transform="matrix(1,0,0,1,-86.2205,31.8898)">
        <g transform="matrix(1,0,0,1,118.11,0)">
            <g transform="matrix(1,0,0,1.2,2562.99,1564.96)">
                <ellipse cx="253.937" cy="1077.76" rx="17.717" ry="14.764" style="fill:none;stroke:rgb(255,0,0);stroke-width:0.75px;stroke-linecap:round;stroke-linejoin:round;stroke-miterlimit:1.5;"/>
            </g>
            <g transform="matrix(1,0,0,1.2,2562.99,1671.26)">
                <ellipse cx="253.937" cy="1077.76" rx="17.717" ry="14.764" style="fill:none;stroke:rgb(255,0,0);stroke-width:0.75px;stroke-linecap:round;stroke-linejoin:round;stroke-miterlimit:1.5;"/>
            </g>
        </g>
        <g transform="matrix(1,0,0,1,-82.6772,0)">
            <g transform="matrix(1,0,0,1.2,2562.99,1564.96)">
                <ellipse cx="253.937" cy="1077.76" rx="17.717" ry="14.764" style="fill:none;stroke:rgb(255,0,0);stroke-width:0.75px;stroke-linecap:round;stroke-linejoin:round;stroke-miterlimit:1.5;"/>
            </g>
            <g transform="matrix(1,0,0,1.2,2562.99,1671.26)">
                <ellipse cx="253.937" cy="1077.76" rx="17.717" ry="14.764" style="fill:none;stroke:rgb(255,0,0);stroke-width:0.75px;stroke-linecap:round;stroke-linejoin:round;stroke-miterlimit:1.5;"/>
            </g>
        </g>
    </g>
</svg>
