<?xml version="1.0" encoding="UTF-8" standalone="no"?>
<!DOCTYPE svg PUBLIC "-//W3C//DTD SVG 1.1//EN" "http://www.w3.org/Graphics/SVG/1.1/DTD/svg11.dtd">
<svg width="100%" height="100%" viewBox="0 0 6000 3600" version="1.1" xmlns="http://www.w3.org/2000/svg" xmlns:xlink="http://www.w3.org/1999/xlink" xml:space="preserve" xmlns:serif="http://www.serif.com/" style="fill-rule:evenodd;clip-rule:evenodd;stroke-linecap:round;stroke-linejoin:round;stroke-miterlimit:1.5;">
    <g>
        <g transform="matrix(0.846154,0,0,1,36.3416,-23.622)">
            <path d="M389.764,236.22L236.22,236.22" style="fill:none;stroke:rgb(0,0,255);stroke-width:0.9px;"/>
        </g>
        <g transform="matrix(0.846154,0,0,1,36.3416,377.953)">
            <path d="M389.764,236.22L236.22,236.22" style="fill:none;stroke:rgb(0,0,255);stroke-width:0.9px;"/>
        </g>
        <path d="M366.142,555.118L366.142,614.173" style="fill:none;stroke:rgb(0,0,255);stroke-width:0.83px;"/>
        <path d="M637.795,354.331L637.795,283.465" style="fill:none;stroke:rgb(0,0,255);stroke-width:0.83px;"/>
        <g transform="matrix(1.08333,0,0,1,-53.1496,0)">
            <path d="M354.331,354.331L637.795,354.331" style="fill:none;stroke:rgb(0,0,255);stroke-width:0.8px;"/>
        </g>
        <g transform="matrix(1.08333,0,0,1,-53.1496,118.11)">
            <path d="M354.331,354.331L637.795,354.331" style="fill:none;stroke:rgb(0,0,255);stroke-width:0.8px;"/>
        </g>
        <g transform="matrix(1,0,0,1.4,-23.622,-141.732)">
            <path d="M354.331,354.331L354.331,295.276" style="fill:none;stroke:rgb(0,0,255);stroke-width:0.68px;"/>
        </g>
        <g transform="matrix(1,0,0,1.4,-23.622,59.0551)">
            <path d="M354.331,354.331L354.331,295.276" style="fill:none;stroke:rgb(0,0,255);stroke-width:0.68px;"/>
        </g>
        <g transform="matrix(1,0,0,1.13333,0,-55.1181)">
            <path d="M236.22,236.22L236.22,590.551" style="fill:none;stroke:rgb(0,0,255);stroke-width:0.78px;"/>
        </g>
        <path d="M637.795,283.465C637.795,283.465 696.85,328.74 708.661,354.331C720.21,379.353 720.472,417.323 708.661,437.008C696.85,456.693 659.73,472.571 637.795,472.441" style="fill:none;stroke:rgb(0,0,255);stroke-width:0.83px;"/>
        <path d="M330.709,555.118L366.142,555.118" style="fill:none;stroke:rgb(0,0,255);stroke-width:0.83px;"/>
        <path d="M366.142,212.598L366.142,271.654" style="fill:none;stroke:rgb(0,0,255);stroke-width:0.83px;"/>
        <path d="M330.709,271.654L366.142,271.654" style="fill:none;stroke:rgb(0,0,255);stroke-width:0.83px;"/>
    </g>
    <g transform="matrix(1,-0,0,-1,0,1251.97)">
        <g transform="matrix(0.846154,0,0,1,36.3416,-23.622)">
            <path d="M389.764,236.22L236.22,236.22" style="fill:none;stroke:rgb(0,0,255);stroke-width:0.9px;"/>
        </g>
        <g transform="matrix(0.846154,0,0,1,36.3416,377.953)">
            <path d="M389.764,236.22L236.22,236.22" style="fill:none;stroke:rgb(0,0,255);stroke-width:0.9px;"/>
        </g>
        <path d="M366.142,555.118L366.142,614.173" style="fill:none;stroke:rgb(0,0,255);stroke-width:0.83px;"/>
        <path d="M637.795,354.331L637.795,283.465" style="fill:none;stroke:rgb(0,0,255);stroke-width:0.83px;"/>
        <g transform="matrix(1.08333,0,0,1,-53.1496,0)">
            <path d="M354.331,354.331L637.795,354.331" style="fill:none;stroke:rgb(0,0,255);stroke-width:0.8px;"/>
        </g>
        <g transform="matrix(1.08333,0,0,1,-53.1496,118.11)">
            <path d="M354.331,354.331L637.795,354.331" style="fill:none;stroke:rgb(0,0,255);stroke-width:0.8px;"/>
        </g>
        <g transform="matrix(1,0,0,1.4,-23.622,-141.732)">
            <path d="M354.331,354.331L354.331,295.276" style="fill:none;stroke:rgb(0,0,255);stroke-width:0.68px;"/>
        </g>
        <g transform="matrix(1,0,0,1.4,-23.622,59.0551)">
            <path d="M354.331,354.331L354.331,295.276" style="fill:none;stroke:rgb(0,0,255);stroke-width:0.68px;"/>
        </g>
        <g transform="matrix(1,0,0,1.13333,0,-55.1181)">
            <path d="M236.22,236.22L236.22,590.551" style="fill:none;stroke:rgb(0,0,255);stroke-width:0.78px;"/>
        </g>
        <path d="M637.795,283.465C637.795,283.465 696.85,328.74 708.661,354.331C720.21,379.353 720.472,417.323 708.661,437.008C696.85,456.693 659.73,472.571 637.795,472.441" style="fill:none;stroke:rgb(0,0,255);stroke-width:0.83px;"/>
        <path d="M330.709,555.118L366.142,555.118" style="fill:none;stroke:rgb(0,0,255);stroke-width:0.83px;"/>
        <path d="M366.142,212.598L366.142,271.654" style="fill:none;stroke:rgb(0,0,255);stroke-width:0.83px;"/>
        <path d="M330.709,271.654L366.142,271.654" style="fill:none;stroke:rgb(0,0,255);stroke-width:0.83px;"/>
    </g>
    <g transform="matrix(1,0,0,1,-64.9606,0)">
        <g transform="matrix(1,0,0,1.2,283.465,-732.283)">
            <ellipse cx="253.937" cy="1077.76" rx="17.717" ry="14.764" style="fill:none;stroke:rgb(0,0,255);stroke-width:0.75px;"/>
        </g>
        <g transform="matrix(1,0,0,1.2,389.764,-732.283)">
            <ellipse cx="253.937" cy="1077.76" rx="17.717" ry="14.764" style="fill:none;stroke:rgb(0,0,255);stroke-width:0.75px;"/>
        </g>
        <g transform="matrix(0.375,0,0,1,475.394,-578.74)">
            <path d="M118.11,1181.1L496.063,1181.1" style="fill:none;stroke:rgb(0,0,255);stroke-width:1.1px;"/>
        </g>
        <g transform="matrix(0.375,0,0,1,475.394,-661.417)">
            <path d="M118.11,1181.1L496.063,1181.1" style="fill:none;stroke:rgb(0,0,255);stroke-width:1.1px;"/>
        </g>
        <g transform="matrix(1,0,0,1.2,283.465,-649.606)">
            <ellipse cx="253.937" cy="1077.76" rx="17.717" ry="14.764" style="fill:none;stroke:rgb(0,0,255);stroke-width:0.75px;"/>
        </g>
        <g transform="matrix(1,0,0,1.2,389.764,-649.606)">
            <ellipse cx="253.937" cy="1077.76" rx="17.717" ry="14.764" style="fill:none;stroke:rgb(0,0,255);stroke-width:0.75px;"/>
        </g>
        <g transform="matrix(0.375,0,0,1,475.394,-496.063)">
            <path d="M118.11,1181.1L496.063,1181.1" style="fill:none;stroke:rgb(0,0,255);stroke-width:1.1px;"/>
        </g>
        <g transform="matrix(1,0,0,1,-171.26,0)">
            <path d="M832.677,519.685C855.493,519.685 874.016,538.208 874.016,561.024C874.016,583.839 855.493,602.362 832.677,602.362" style="fill:none;stroke:rgb(0,0,255);stroke-width:0.83px;"/>
        </g>
        <g transform="matrix(1,0,0,1,-171.26,82.6772)">
            <path d="M832.677,519.685C855.493,519.685 874.016,538.208 874.016,561.024C874.016,583.839 855.493,602.362 832.677,602.362" style="fill:none;stroke:rgb(0,0,255);stroke-width:0.83px;"/>
        </g>
        <g transform="matrix(-1,0,0,1,1352.36,0)">
            <path d="M832.677,519.685C855.493,519.685 874.016,538.208 874.016,561.024C874.016,583.839 855.493,602.362 832.677,602.362" style="fill:none;stroke:rgb(0,0,255);stroke-width:0.83px;"/>
        </g>
        <g transform="matrix(-1,0,0,1,1352.36,82.6772)">
            <path d="M832.677,519.685C855.493,519.685 874.016,538.208 874.016,561.024C874.016,583.839 855.493,602.362 832.677,602.362" style="fill:none;stroke:rgb(0,0,255);stroke-width:0.83px;"/>
        </g>
    </g>
</svg>
