<?xml version="1.0" encoding="UTF-8" standalone="no"?>
<!DOCTYPE svg PUBLIC "-//W3C//DTD SVG 1.1//EN" "http://www.w3.org/Graphics/SVG/1.1/DTD/svg11.dtd">
<svg width="100%" height="100%" viewBox="0 0 6000 3600" version="1.1" xmlns="http://www.w3.org/2000/svg" xmlns:xlink="http://www.w3.org/1999/xlink" xml:space="preserve" xmlns:serif="http://www.serif.com/" style="fill-rule:evenodd;clip-rule:evenodd;stroke-miterlimit:10;">
    <g transform="matrix(4.16659,1.02081e-15,1.02081e-15,-4.16659,154.742,-115684)">
        <path d="M-8.792,-27949L218.556,-27949L218.556,-27909.6M218.556,-27909.6C218.556,-27909.5 218.434,-27909.3 218.268,-27909.3M218.268,-27909.3L209.764,-27909.3C209.919,-27909.3 210.052,-27909.5 210.052,-27909.6M210.052,-27909.6L210.052,-27892.6C210.052,-27892.8 209.93,-27892.9 209.764,-27892.9M209.764,-27892.9L218.268,-27892.9C218.423,-27892.9 218.556,-27892.8 218.556,-27892.6M218.556,-27892.6L218.556,-27875.6M218.556,-27875.6C218.556,-27875.5 218.434,-27875.3 218.268,-27875.3M218.268,-27875.3L209.764,-27875.3C209.919,-27875.3 210.052,-27875.5 210.052,-27875.6M210.052,-27875.6L210.052,-27858.6C210.052,-27858.8 209.93,-27858.9 209.764,-27858.9M209.764,-27858.9L218.268,-27858.9C218.423,-27858.9 218.556,-27858.8 218.556,-27858.6M218.556,-27858.6L218.556,-27841.6M218.556,-27841.6C218.556,-27841.4 218.434,-27841.3 218.268,-27841.3M218.268,-27841.3L209.764,-27841.3C209.919,-27841.3 210.052,-27841.4 210.052,-27841.6M210.052,-27841.6L210.052,-27824.6C210.052,-27824.7 209.93,-27824.9 209.764,-27824.9M209.764,-27824.9L218.268,-27824.9C218.423,-27824.9 218.556,-27824.8 218.556,-27824.6M218.556,-27824.6L218.556,-27793.4M218.556,-27793.4C218.556,-27793.3 218.434,-27793.1 218.268,-27793.1M218.268,-27793.1L209.764,-27793.1M209.764,-27793.1L0,-27793.1M0,-27793.1L-8.504,-27793.1C-8.659,-27793.1 -8.792,-27793.2 -8.792,-27793.4M-8.792,-27793.4L-8.792,-27949" style="fill:none;stroke:black;stroke-width:0.57px;"/>
    </g>
    <g transform="matrix(4.16659,1.02081e-15,1.02081e-15,-4.16659,1119.68,-115684)">
        <path d="M105.17,-27857.2L105.17,-27793.1L0,-27793.1M0,-27793.1C-0.155,-27793.1 -0.288,-27793.2 -0.288,-27793.4M-0.288,-27793.4L-0.288,-27824.6M-0.288,-27824.6C-0.288,-27824.4 -0.166,-27824.3 0,-27824.3M0,-27824.3L-8.504,-27824.3C-8.659,-27824.3 -8.792,-27824.4 -8.792,-27824.6M-8.792,-27824.6L-8.792,-27841.6C-8.792,-27841.8 -8.67,-27841.9 -8.504,-27841.9M-8.504,-27841.9L0,-27841.9C-0.155,-27841.9 -0.288,-27841.8 -0.288,-27841.6M-0.288,-27841.6L-0.288,-27858.6M-0.288,-27858.6C-0.288,-27858.5 -0.166,-27858.3 0,-27858.3M0,-27858.3L-8.504,-27858.3C-8.659,-27858.3 -8.792,-27858.4 -8.792,-27858.6M-8.792,-27858.6L-8.792,-27875.6C-8.792,-27875.8 -8.67,-27875.9 -8.504,-27875.9M-8.504,-27875.9L0,-27875.9C-0.155,-27875.9 -0.288,-27875.8 -0.288,-27875.6M-0.288,-27875.6L-0.288,-27892.6M-0.288,-27892.6C-0.288,-27892.5 -0.166,-27892.3 0,-27892.3M0,-27892.3L-8.504,-27892.3C-8.659,-27892.3 -8.792,-27892.5 -8.792,-27892.6M-8.792,-27892.6L-8.792,-27909.6C-8.792,-27909.8 -8.67,-27909.9 -8.504,-27909.9M-8.504,-27909.9L0,-27909.9C-0.155,-27909.9 -0.288,-27909.8 -0.288,-27909.6M-0.288,-27909.6L-0.288,-27949.6" style="fill:none;stroke:black;stroke-width:0.57px;"/>
    </g>
    <path d="M1557.87,385.052C1525.28,385.052 1498.82,411.513 1498.82,444.107C1498.82,476.7 1525.28,503.162 1557.87,503.162C1557.87,503.162 1557.87,770.103 1557.87,770.103L1118.48,770.103" style="fill:none;stroke:black;stroke-width:2.5px;stroke-linecap:round;stroke-linejoin:round;stroke-miterlimit:1.5;"/>
    <g transform="matrix(1,0,0,1,-59.0551,37.5161)">
        <g>
            <path d="M249.42,253.17L265.02,253.17C266.62,253.17 267.754,252.862 268.42,252.245C269.087,251.629 269.42,250.487 269.42,248.82C269.42,247.22 269.12,246.062 268.52,245.345C267.92,244.629 266.754,244.27 265.02,244.27L249.42,244.27L249.42,253.17ZM239.17,269.57L239.17,236.17L266.22,236.17C268.62,236.17 270.67,236.312 272.37,236.595C274.07,236.879 275.504,237.554 276.67,238.62C277.837,239.687 278.62,241.029 279.02,242.645C279.42,244.262 279.62,246.22 279.62,248.52C279.62,250.987 279.437,253.037 279.07,254.67C278.704,256.304 278.045,257.612 277.095,258.595C276.145,259.579 274.87,260.279 273.27,260.695C271.67,261.112 269.637,261.32 267.17,261.32C266.804,261.32 266.479,261.312 266.195,261.295C265.912,261.279 265.587,261.27 265.22,261.27L249.42,261.27L249.42,269.57L239.17,269.57Z" style="fill-rule:nonzero;"/>
            <path d="M292.62,251.47C292.62,253.17 292.645,254.604 292.695,255.77C292.745,256.937 292.879,257.904 293.095,258.67C293.312,259.437 293.645,260.02 294.095,260.42C294.545,260.82 295.179,261.12 295.995,261.32C296.812,261.52 297.829,261.637 299.045,261.67C300.262,261.704 301.737,261.72 303.47,261.72C306.937,261.72 309.637,261.679 311.57,261.595C313.504,261.512 314.929,261.187 315.845,260.62C316.762,260.054 317.32,259.129 317.52,257.845C317.72,256.562 317.82,254.737 317.82,252.37C317.82,250.437 317.729,248.912 317.545,247.795C317.362,246.679 316.97,245.845 316.37,245.295C315.77,244.745 314.887,244.404 313.72,244.27C312.554,244.137 311.004,244.07 309.07,244.07C305.57,244.07 302.737,244.07 300.57,244.07C298.404,244.07 296.737,244.279 295.57,244.695C294.404,245.112 293.62,245.837 293.22,246.87C292.82,247.904 292.62,249.437 292.62,251.47ZM282.27,256.07C282.27,252.904 282.312,250.179 282.395,247.895C282.479,245.612 282.795,243.687 283.345,242.12C283.895,240.554 284.762,239.312 285.945,238.395C287.129,237.479 288.82,236.82 291.02,236.42C292.52,236.154 295.245,235.995 299.195,235.945C303.145,235.895 308.32,235.87 314.72,235.87C316.82,235.87 318.637,236.054 320.17,236.42C321.704,236.787 322.995,237.362 324.045,238.145C325.095,238.929 325.92,239.954 326.52,241.22C327.12,242.487 327.537,244.02 327.77,245.82C327.904,246.754 327.979,247.97 327.995,249.47C328.012,250.97 328.02,252.72 328.02,254.72C328.02,257.154 327.87,259.212 327.57,260.895C327.27,262.579 326.754,263.987 326.02,265.12C325.287,266.254 324.312,267.137 323.095,267.77C321.879,268.404 320.354,268.879 318.52,269.195C316.687,269.512 314.529,269.712 312.045,269.795C309.562,269.879 306.67,269.92 303.37,269.92C299.637,269.92 296.437,269.812 293.77,269.595C291.104,269.379 288.92,268.812 287.22,267.895C285.52,266.979 284.27,265.595 283.47,263.745C282.67,261.895 282.27,259.337 282.27,256.07Z" style="fill-rule:nonzero;"/>
            <path d="M355.47,244.57L355.47,269.57L345.22,269.57L345.22,244.57L330.27,244.57L330.27,236.22L370.17,236.22L370.17,244.57L355.47,244.57Z" style="fill-rule:nonzero;"/>
            <rect x="373.82" y="236.22" width="10.25" height="33.35" style="fill-rule:nonzero;"/>
            <path d="M398.82,251.47C398.82,253.17 398.845,254.604 398.895,255.77C398.945,256.937 399.079,257.904 399.295,258.67C399.512,259.437 399.845,260.02 400.295,260.42C400.745,260.82 401.379,261.12 402.195,261.32C403.012,261.52 404.029,261.637 405.245,261.67C406.462,261.704 407.937,261.72 409.67,261.72C413.137,261.72 415.837,261.679 417.77,261.595C419.704,261.512 421.129,261.187 422.045,260.62C422.962,260.054 423.52,259.129 423.72,257.845C423.92,256.562 424.02,254.737 424.02,252.37C424.02,250.437 423.929,248.912 423.745,247.795C423.562,246.679 423.17,245.845 422.57,245.295C421.97,244.745 421.087,244.404 419.92,244.27C418.754,244.137 417.204,244.07 415.27,244.07C411.77,244.07 408.937,244.07 406.77,244.07C404.604,244.07 402.937,244.279 401.77,244.695C400.604,245.112 399.82,245.837 399.42,246.87C399.02,247.904 398.82,249.437 398.82,251.47ZM388.47,256.07C388.47,252.904 388.512,250.179 388.595,247.895C388.679,245.612 388.995,243.687 389.545,242.12C390.095,240.554 390.962,239.312 392.145,238.395C393.329,237.479 395.02,236.82 397.22,236.42C398.72,236.154 401.445,235.995 405.395,235.945C409.345,235.895 414.52,235.87 420.92,235.87C423.02,235.87 424.837,236.054 426.37,236.42C427.904,236.787 429.195,237.362 430.245,238.145C431.295,238.929 432.12,239.954 432.72,241.22C433.32,242.487 433.737,244.02 433.97,245.82C434.104,246.754 434.179,247.97 434.195,249.47C434.212,250.97 434.22,252.72 434.22,254.72C434.22,257.154 434.07,259.212 433.77,260.895C433.47,262.579 432.954,263.987 432.22,265.12C431.487,266.254 430.512,267.137 429.295,267.77C428.079,268.404 426.554,268.879 424.72,269.195C422.887,269.512 420.729,269.712 418.245,269.795C415.762,269.879 412.87,269.92 409.57,269.92C405.837,269.92 402.637,269.812 399.97,269.595C397.304,269.379 395.12,268.812 393.42,267.895C391.72,266.979 390.47,265.595 389.67,263.745C388.87,261.895 388.47,259.337 388.47,256.07Z" style="fill-rule:nonzero;"/>
            <path d="M484.57,236.22L484.57,269.57L468.42,269.57L448.37,244.52L448.37,269.57L438.77,269.57L438.77,236.22L454.92,236.22L474.97,261.22L474.97,236.22L484.57,236.22Z" style="fill-rule:nonzero;"/>
            <path d="M519.57,246.42C519.537,245.654 519.404,245.045 519.17,244.595C518.937,244.145 518.529,243.812 517.945,243.595C517.362,243.379 516.595,243.237 515.645,243.17C514.695,243.104 513.47,243.07 511.97,243.07C511.704,243.07 511.487,243.07 511.32,243.07C511.154,243.07 510.937,243.087 510.67,243.12C508.504,243.22 506.687,243.27 505.22,243.27C503.754,243.27 502.57,243.345 501.67,243.495C500.77,243.645 500.12,243.92 499.72,244.32C499.32,244.72 499.12,245.387 499.12,246.32C499.12,247.154 499.42,247.779 500.02,248.195C500.62,248.612 501.454,248.837 502.52,248.87C504.02,248.904 505.445,248.937 506.795,248.97C508.145,249.004 509.404,249.02 510.57,249.02C511.27,249.02 511.995,249.012 512.745,248.995C513.495,248.979 514.204,248.97 514.87,248.97C517.637,248.97 520.037,249.045 522.07,249.195C524.104,249.345 525.779,249.754 527.095,250.42C528.412,251.087 529.387,252.104 530.02,253.47C530.654,254.837 530.97,256.754 530.97,259.22C530.97,260.954 530.804,262.42 530.47,263.62C530.137,264.82 529.612,265.812 528.895,266.595C528.179,267.379 527.27,267.987 526.17,268.42C525.07,268.854 523.754,269.154 522.22,269.32C521.32,269.42 519.587,269.537 517.02,269.67C514.454,269.804 511.17,269.87 507.17,269.87C503.237,269.87 500.029,269.754 497.545,269.52C495.062,269.287 493.254,268.77 492.12,267.97C491.32,267.404 490.729,266.795 490.345,266.145C489.962,265.495 489.695,264.804 489.545,264.07C489.395,263.337 489.32,262.545 489.32,261.695C489.32,260.845 489.32,259.92 489.32,258.92L499.37,258.92C499.37,259.287 499.37,259.67 499.37,260.07C499.37,260.47 499.454,260.829 499.62,261.145C499.787,261.462 500.087,261.745 500.52,261.995C500.954,262.245 501.62,262.404 502.52,262.47C502.954,262.504 503.762,262.537 504.945,262.57C506.129,262.604 507.62,262.62 509.42,262.62C511.754,262.62 513.662,262.604 515.145,262.57C516.629,262.537 517.787,262.42 518.62,262.22C519.454,262.02 520.02,261.72 520.32,261.32C520.62,260.92 520.77,260.337 520.77,259.57C520.77,258.837 520.62,258.262 520.32,257.845C520.02,257.429 519.587,257.129 519.02,256.945C518.454,256.762 517.779,256.654 516.995,256.62C516.212,256.587 515.354,256.57 514.42,256.57C511.154,256.537 508.254,256.529 505.72,256.545C503.187,256.562 500.987,256.504 499.12,256.37C497.254,256.237 495.679,256.004 494.395,255.67C493.112,255.337 492.079,254.804 491.295,254.07C490.512,253.337 489.945,252.37 489.595,251.17C489.245,249.97 489.07,248.454 489.07,246.62C489.07,244.987 489.212,243.57 489.495,242.37C489.779,241.17 490.254,240.162 490.92,239.345C491.587,238.529 492.462,237.895 493.545,237.445C494.629,236.995 495.97,236.67 497.57,236.47C498.637,236.337 500.362,236.204 502.745,236.07C505.129,235.937 508.12,235.87 511.72,235.87C513.62,235.87 515.329,235.879 516.845,235.895C518.362,235.912 519.712,235.987 520.895,236.12C522.079,236.254 523.12,236.445 524.02,236.695C524.92,236.945 525.704,237.32 526.37,237.82C527.104,238.354 527.679,238.92 528.095,239.52C528.512,240.12 528.82,240.77 529.02,241.47C529.22,242.17 529.354,242.929 529.42,243.745C529.487,244.562 529.52,245.454 529.52,246.42L519.57,246.42Z" style="fill-rule:nonzero;"/>
            <path d="M577.32,247.97C577.287,246.937 577.137,246.154 576.87,245.62C576.604,245.087 576.104,244.704 575.37,244.47C574.637,244.237 573.595,244.112 572.245,244.095C570.895,244.079 569.12,244.07 566.92,244.07C564.42,244.07 562.404,244.095 560.87,244.145C559.337,244.195 558.137,244.437 557.27,244.87C556.404,245.304 555.82,246.029 555.52,247.045C555.22,248.062 555.07,249.537 555.07,251.47C555.07,253.937 555.145,255.845 555.295,257.195C555.445,258.545 555.895,259.545 556.645,260.195C557.395,260.845 558.554,261.229 560.12,261.345C561.687,261.462 563.87,261.52 566.67,261.52C568.77,261.52 570.52,261.52 571.92,261.52C573.32,261.52 574.429,261.387 575.245,261.12C576.062,260.854 576.645,260.395 576.995,259.745C577.345,259.095 577.52,258.12 577.52,256.82L587.52,256.82C587.52,257.087 587.529,257.329 587.545,257.545C587.562,257.762 587.57,258.004 587.57,258.27C587.57,259.97 587.462,261.47 587.245,262.77C587.029,264.07 586.654,265.17 586.12,266.07C585.587,266.97 584.87,267.687 583.97,268.22C583.07,268.754 581.954,269.087 580.62,269.22C578.454,269.454 576.412,269.629 574.495,269.745C572.579,269.862 570.82,269.92 569.22,269.92C563.987,269.92 559.104,269.77 554.57,269.47C552.804,269.37 551.304,268.987 550.07,268.32C548.837,267.654 547.837,266.679 547.07,265.395C546.304,264.112 545.745,262.504 545.395,260.57C545.045,258.637 544.87,256.32 544.87,253.62C544.87,251.92 544.887,250.362 544.92,248.945C544.954,247.529 545.079,246.229 545.295,245.045C545.512,243.862 545.845,242.779 546.295,241.795C546.745,240.812 547.387,239.92 548.22,239.12C549.054,238.32 550.029,237.704 551.145,237.27C552.262,236.837 553.57,236.52 555.07,236.32C556.57,236.12 558.27,235.995 560.17,235.945C562.07,235.895 564.204,235.87 566.57,235.87C570.67,235.87 574.045,235.954 576.695,236.12C579.345,236.287 581.437,236.754 582.97,237.52C584.504,238.287 585.57,239.487 586.17,241.12C586.77,242.754 587.087,245.037 587.12,247.97L577.32,247.97Z" style="fill-rule:nonzero;"/>
            <path d="M622.02,256.62L614.92,243.42L607.72,256.62L622.02,256.62ZM625.72,263.52L604.17,263.52L600.87,269.57L589.57,269.57L608.17,236.22L621.87,236.22L640.07,269.57L628.87,269.57L625.72,263.52Z" style="fill-rule:nonzero;"/>
            <path d="M653.77,262.02L672.12,262.02C672.787,262.02 673.395,261.987 673.945,261.92C674.495,261.854 674.97,261.712 675.37,261.495C675.77,261.279 676.079,260.954 676.295,260.52C676.512,260.087 676.62,259.504 676.62,258.77C676.62,257.604 676.27,256.837 675.57,256.47C674.87,256.104 673.77,255.92 672.27,255.92L653.77,255.92L653.77,262.02ZM653.77,249.32L671.17,249.32C672.504,249.32 673.529,249.137 674.245,248.77C674.962,248.404 675.32,247.587 675.32,246.32C675.32,244.454 674.337,243.52 672.37,243.52L653.77,243.52L653.77,249.32ZM643.72,269.52L643.72,236.22L675.17,236.22C678.704,236.22 681.312,236.879 682.995,238.195C684.679,239.512 685.52,241.72 685.52,244.82C685.52,246.187 685.404,247.304 685.17,248.17C684.937,249.037 684.579,249.754 684.095,250.32C683.612,250.887 683.004,251.337 682.27,251.67C681.537,252.004 680.654,252.304 679.62,252.57C680.72,252.737 681.72,252.937 682.62,253.17C683.52,253.404 684.279,253.779 684.895,254.295C685.512,254.812 685.987,255.52 686.32,256.42C686.654,257.32 686.82,258.504 686.82,259.97C686.82,261.77 686.612,263.279 686.195,264.495C685.779,265.712 685.12,266.695 684.22,267.445C683.32,268.195 682.162,268.729 680.745,269.045C679.329,269.362 677.637,269.52 675.67,269.52L643.72,269.52Z" style="fill-rule:nonzero;"/>
            <rect x="691.47" y="236.22" width="10.25" height="33.35" style="fill-rule:nonzero;"/>
            <path d="M753.32,236.22L753.32,269.57L737.17,269.57L717.12,244.52L717.12,269.57L707.52,269.57L707.52,236.22L723.67,236.22L743.72,261.22L743.72,236.22L753.32,236.22Z" style="fill-rule:nonzero;"/>
            <path d="M758.47,269.57L758.47,236.22L795.67,236.22L795.67,243.72L768.52,243.72L768.52,249.52L793.87,249.52L793.87,256.12L768.52,256.12L768.52,262.07L795.67,262.07L795.67,269.57L758.47,269.57Z" style="fill-rule:nonzero;"/>
            <path d="M823.97,244.57L823.97,269.57L813.72,269.57L813.72,244.57L798.77,244.57L798.77,236.22L838.67,236.22L838.67,244.57L823.97,244.57Z" style="fill-rule:nonzero;"/>
            <path d="M848.17,260.27L848.17,270.87C848.17,272.337 848.004,273.554 847.67,274.52C847.337,275.487 846.812,276.254 846.095,276.82C845.379,277.387 844.454,277.795 843.32,278.045C842.187,278.295 840.837,278.42 839.27,278.42C838.837,278.42 838.395,278.42 837.945,278.42C837.495,278.42 837.087,278.404 836.72,278.37L836.72,273.12C836.92,273.154 837.095,273.187 837.245,273.22C837.395,273.254 837.57,273.27 837.77,273.27C839.004,273.27 839.829,272.945 840.245,272.295C840.662,271.645 840.887,270.737 840.92,269.57L838.12,269.57L838.12,260.27L848.17,260.27Z" style="fill-rule:nonzero;"/>
            <path d="M921.57,236.22L921.57,269.57L911.97,269.57L911.97,244.17L897.27,269.57L889.12,269.57L874.62,244.17L874.62,269.57L865.02,269.57L865.02,236.22L881.17,236.22L893.42,258.32L905.52,236.22L921.57,236.22Z" style="fill-rule:nonzero;"/>
            <path d="M937.47,236.22L937.47,248.77L942.72,248.77L956.47,236.22L970.47,236.22L951.37,252.72L972.52,269.57L957.67,269.57L942.72,256.87L937.47,256.87L937.47,269.57L927.42,269.57L927.42,236.22L937.47,236.22Z" style="fill-rule:nonzero;"/>
            <path d="M1013.82,260.67C1013.82,262.67 1013.53,264.279 1012.95,265.495C1012.36,266.712 1011.41,267.637 1010.1,268.27C1008.78,268.904 1007.04,269.32 1004.87,269.52C1002.7,269.72 1000.04,269.82 996.87,269.82C996.104,269.82 995.454,269.812 994.92,269.795C994.387,269.779 993.737,269.754 992.97,269.72C990.104,269.62 987.495,269.587 985.145,269.62C982.795,269.654 980.787,269.437 979.12,268.97C977.454,268.504 976.17,267.595 975.27,266.245C974.37,264.895 973.92,262.77 973.92,259.87C973.92,259.504 973.929,259.195 973.945,258.945C973.962,258.695 973.987,258.387 974.02,258.02L983.17,258.02C983.17,259.52 983.329,260.662 983.645,261.445C983.962,262.229 984.57,262.654 985.47,262.72C986.27,262.787 987.62,262.845 989.52,262.895C991.42,262.945 993.837,262.97 996.77,262.97C998.037,262.97 999.145,262.962 1000.1,262.945C1001.05,262.929 1001.83,262.82 1002.45,262.62C1003.06,262.42 1003.53,262.104 1003.85,261.67C1004.16,261.237 1004.32,260.604 1004.32,259.77C1004.32,258.237 1003.98,257.237 1003.3,256.77C1002.61,256.304 1001.52,256.07 1000.02,256.07L997.92,256.07L989.92,256.07L989.92,249.72L996.67,249.72C997.87,249.72 998.904,249.712 999.77,249.695C1000.64,249.679 1001.35,249.57 1001.89,249.37C1002.45,249.17 1002.85,248.862 1003.12,248.445C1003.39,248.029 1003.52,247.42 1003.52,246.62C1003.52,245.754 1003.4,245.054 1003.17,244.52C1002.94,243.987 1002.54,243.67 1001.97,243.57C1000.7,243.337 999.429,243.17 998.145,243.07C996.862,242.97 995.587,242.92 994.32,242.92C992.32,242.92 990.637,242.937 989.27,242.97C987.904,243.004 986.795,243.129 985.945,243.345C985.095,243.562 984.479,243.929 984.095,244.445C983.712,244.962 983.52,245.72 983.52,246.72C983.52,246.887 983.52,247.037 983.52,247.17C983.52,247.304 983.537,247.454 983.57,247.62L974.12,247.62C974.154,245.954 974.262,244.504 974.445,243.27C974.629,242.037 974.97,240.995 975.47,240.145C975.97,239.295 976.679,238.604 977.595,238.07C978.512,237.537 979.72,237.12 981.22,236.82C982.72,236.52 984.554,236.32 986.72,236.22C988.887,236.12 991.47,236.07 994.47,236.07C998.104,236.07 1001.11,236.145 1003.5,236.295C1005.88,236.445 1007.78,236.837 1009.2,237.47C1010.61,238.104 1011.6,239.054 1012.17,240.32C1012.74,241.587 1013.02,243.337 1013.02,245.57C1013.02,247.07 1012.88,248.237 1012.6,249.07C1012.31,249.904 1011.89,250.554 1011.35,251.02C1010.8,251.487 1010.1,251.837 1009.27,252.07C1008.44,252.304 1007.47,252.587 1006.37,252.92C1007.57,253.087 1008.64,253.279 1009.57,253.495C1010.5,253.712 1011.29,254.079 1011.92,254.595C1012.55,255.112 1013.03,255.845 1013.35,256.795C1013.66,257.745 1013.82,259.037 1013.82,260.67Z" style="fill-rule:nonzero;"/>
            <path d="M249.22,362.02L267.57,362.02C268.237,362.02 268.845,361.987 269.395,361.92C269.945,361.854 270.42,361.712 270.82,361.495C271.22,361.279 271.529,360.954 271.745,360.52C271.962,360.087 272.07,359.504 272.07,358.77C272.07,357.604 271.72,356.837 271.02,356.47C270.32,356.104 269.22,355.92 267.72,355.92L249.22,355.92L249.22,362.02ZM249.22,349.32L266.62,349.32C267.954,349.32 268.979,349.137 269.695,348.77C270.412,348.404 270.77,347.587 270.77,346.32C270.77,344.454 269.787,343.52 267.82,343.52L249.22,343.52L249.22,349.32ZM239.17,369.52L239.17,336.22L270.62,336.22C274.154,336.22 276.762,336.879 278.445,338.195C280.129,339.512 280.97,341.72 280.97,344.82C280.97,346.187 280.854,347.304 280.62,348.17C280.387,349.037 280.029,349.754 279.545,350.32C279.062,350.887 278.454,351.337 277.72,351.67C276.987,352.004 276.104,352.304 275.07,352.57C276.17,352.737 277.17,352.937 278.07,353.17C278.97,353.404 279.729,353.779 280.345,354.295C280.962,354.812 281.437,355.52 281.77,356.42C282.104,357.32 282.27,358.504 282.27,359.97C282.27,361.77 282.062,363.279 281.645,364.495C281.229,365.712 280.57,366.695 279.67,367.445C278.77,368.195 277.612,368.729 276.195,369.045C274.779,369.362 273.087,369.52 271.12,369.52L239.17,369.52Z" style="fill-rule:nonzero;"/>
            <path d="M286.22,369.57L286.22,336.22L323.42,336.22L323.42,343.72L296.27,343.72L296.27,349.52L321.62,349.52L321.62,356.12L296.27,356.12L296.27,362.07L323.42,362.07L323.42,369.57L286.22,369.57Z" style="fill-rule:nonzero;"/>
            <path d="M357.97,346.42C357.937,345.654 357.804,345.045 357.57,344.595C357.337,344.145 356.929,343.812 356.345,343.595C355.762,343.379 354.995,343.237 354.045,343.17C353.095,343.104 351.87,343.07 350.37,343.07C350.104,343.07 349.887,343.07 349.72,343.07C349.554,343.07 349.337,343.087 349.07,343.12C346.904,343.22 345.087,343.27 343.62,343.27C342.154,343.27 340.97,343.345 340.07,343.495C339.17,343.645 338.52,343.92 338.12,344.32C337.72,344.72 337.52,345.387 337.52,346.32C337.52,347.154 337.82,347.779 338.42,348.195C339.02,348.612 339.854,348.837 340.92,348.87C342.42,348.904 343.845,348.937 345.195,348.97C346.545,349.004 347.804,349.02 348.97,349.02C349.67,349.02 350.395,349.012 351.145,348.995C351.895,348.979 352.604,348.97 353.27,348.97C356.037,348.97 358.437,349.045 360.47,349.195C362.504,349.345 364.179,349.754 365.495,350.42C366.812,351.087 367.787,352.104 368.42,353.47C369.054,354.837 369.37,356.754 369.37,359.22C369.37,360.954 369.204,362.42 368.87,363.62C368.537,364.82 368.012,365.812 367.295,366.595C366.579,367.379 365.67,367.987 364.57,368.42C363.47,368.854 362.154,369.154 360.62,369.32C359.72,369.42 357.987,369.537 355.42,369.67C352.854,369.804 349.57,369.87 345.57,369.87C341.637,369.87 338.429,369.754 335.945,369.52C333.462,369.287 331.654,368.77 330.52,367.97C329.72,367.404 329.129,366.795 328.745,366.145C328.362,365.495 328.095,364.804 327.945,364.07C327.795,363.337 327.72,362.545 327.72,361.695C327.72,360.845 327.72,359.92 327.72,358.92L337.77,358.92C337.77,359.287 337.77,359.67 337.77,360.07C337.77,360.47 337.854,360.829 338.02,361.145C338.187,361.462 338.487,361.745 338.92,361.995C339.354,362.245 340.02,362.404 340.92,362.47C341.354,362.504 342.162,362.537 343.345,362.57C344.529,362.604 346.02,362.62 347.82,362.62C350.154,362.62 352.062,362.604 353.545,362.57C355.029,362.537 356.187,362.42 357.02,362.22C357.854,362.02 358.42,361.72 358.72,361.32C359.02,360.92 359.17,360.337 359.17,359.57C359.17,358.837 359.02,358.262 358.72,357.845C358.42,357.429 357.987,357.129 357.42,356.945C356.854,356.762 356.179,356.654 355.395,356.62C354.612,356.587 353.754,356.57 352.82,356.57C349.554,356.537 346.654,356.529 344.12,356.545C341.587,356.562 339.387,356.504 337.52,356.37C335.654,356.237 334.079,356.004 332.795,355.67C331.512,355.337 330.479,354.804 329.695,354.07C328.912,353.337 328.345,352.37 327.995,351.17C327.645,349.97 327.47,348.454 327.47,346.62C327.47,344.987 327.612,343.57 327.895,342.37C328.179,341.17 328.654,340.162 329.32,339.345C329.987,338.529 330.862,337.895 331.945,337.445C333.029,336.995 334.37,336.67 335.97,336.47C337.037,336.337 338.762,336.204 341.145,336.07C343.529,335.937 346.52,335.87 350.12,335.87C352.02,335.87 353.729,335.879 355.245,335.895C356.762,335.912 358.112,335.987 359.295,336.12C360.479,336.254 361.52,336.445 362.42,336.695C363.32,336.945 364.104,337.32 364.77,337.82C365.504,338.354 366.079,338.92 366.495,339.52C366.912,340.12 367.22,340.77 367.42,341.47C367.62,342.17 367.754,342.929 367.82,343.745C367.887,344.562 367.92,345.454 367.92,346.42L357.97,346.42Z" style="fill-rule:nonzero;"/>
            <path d="M383.92,353.17L399.52,353.17C401.12,353.17 402.254,352.862 402.92,352.245C403.587,351.629 403.92,350.487 403.92,348.82C403.92,347.22 403.62,346.062 403.02,345.345C402.42,344.629 401.254,344.27 399.52,344.27L383.92,344.27L383.92,353.17ZM373.67,369.57L373.67,336.17L400.72,336.17C403.12,336.17 405.17,336.312 406.87,336.595C408.57,336.879 410.004,337.554 411.17,338.62C412.337,339.687 413.12,341.029 413.52,342.645C413.92,344.262 414.12,346.22 414.12,348.52C414.12,350.987 413.937,353.037 413.57,354.67C413.204,356.304 412.545,357.612 411.595,358.595C410.645,359.579 409.37,360.279 407.77,360.695C406.17,361.112 404.137,361.32 401.67,361.32C401.304,361.32 400.979,361.312 400.695,361.295C400.412,361.279 400.087,361.27 399.72,361.27L383.92,361.27L383.92,369.57L373.67,369.57Z" style="fill-rule:nonzero;"/>
            <path d="M427.12,351.47C427.12,353.17 427.145,354.604 427.195,355.77C427.245,356.937 427.379,357.904 427.595,358.67C427.812,359.437 428.145,360.02 428.595,360.42C429.045,360.82 429.679,361.12 430.495,361.32C431.312,361.52 432.329,361.637 433.545,361.67C434.762,361.704 436.237,361.72 437.97,361.72C441.437,361.72 444.137,361.679 446.07,361.595C448.004,361.512 449.429,361.187 450.345,360.62C451.262,360.054 451.82,359.129 452.02,357.845C452.22,356.562 452.32,354.737 452.32,352.37C452.32,350.437 452.229,348.912 452.045,347.795C451.862,346.679 451.47,345.845 450.87,345.295C450.27,344.745 449.387,344.404 448.22,344.27C447.054,344.137 445.504,344.07 443.57,344.07C440.07,344.07 437.237,344.07 435.07,344.07C432.904,344.07 431.237,344.279 430.07,344.695C428.904,345.112 428.12,345.837 427.72,346.87C427.32,347.904 427.12,349.437 427.12,351.47ZM416.77,356.07C416.77,352.904 416.812,350.179 416.895,347.895C416.979,345.612 417.295,343.687 417.845,342.12C418.395,340.554 419.262,339.312 420.445,338.395C421.629,337.479 423.32,336.82 425.52,336.42C427.02,336.154 429.745,335.995 433.695,335.945C437.645,335.895 442.82,335.87 449.22,335.87C451.32,335.87 453.137,336.054 454.67,336.42C456.204,336.787 457.495,337.362 458.545,338.145C459.595,338.929 460.42,339.954 461.02,341.22C461.62,342.487 462.037,344.02 462.27,345.82C462.404,346.754 462.479,347.97 462.495,349.47C462.512,350.97 462.52,352.72 462.52,354.72C462.52,357.154 462.37,359.212 462.07,360.895C461.77,362.579 461.254,363.987 460.52,365.12C459.787,366.254 458.812,367.137 457.595,367.77C456.379,368.404 454.854,368.879 453.02,369.195C451.187,369.512 449.029,369.712 446.545,369.795C444.062,369.879 441.17,369.92 437.87,369.92C434.137,369.92 430.937,369.812 428.27,369.595C425.604,369.379 423.42,368.812 421.72,367.895C420.02,366.979 418.77,365.595 417.97,363.745C417.17,361.895 416.77,359.337 416.77,356.07Z" style="fill-rule:nonzero;"/>
            <path d="M477.17,336.22L477.17,348.77L482.42,348.77L496.17,336.22L510.17,336.22L491.07,352.72L512.22,369.57L497.37,369.57L482.42,356.87L477.17,356.87L477.17,369.57L467.12,369.57L467.12,336.22L477.17,336.22Z" style="fill-rule:nonzero;"/>
            <path d="M513.57,369.57L513.57,336.22L550.77,336.22L550.77,343.72L523.62,343.72L523.62,349.52L548.97,349.52L548.97,356.12L523.62,356.12L523.62,362.07L550.77,362.07L550.77,369.57L513.57,369.57Z" style="fill-rule:nonzero;"/>
            <path d="M623.72,336.22L623.72,369.57L614.12,369.57L614.12,344.17L599.42,369.57L591.27,369.57L576.77,344.17L576.77,369.57L567.17,369.57L567.17,336.22L583.32,336.22L595.57,358.32L607.67,336.22L623.72,336.22Z" style="fill-rule:nonzero;"/>
            <path d="M629.57,369.57L629.57,336.22L664.92,336.22L664.92,344.02L639.62,344.02L639.62,350.57L663.62,350.57L663.62,358.07L639.62,358.07L639.62,369.57L629.57,369.57Z" style="fill-rule:nonzero;"/>
            <path d="M688.07,357.07L688.07,350.72L710.92,350.72C710.887,353.287 710.862,355.537 710.845,357.47C710.829,359.404 710.729,361.079 710.545,362.495C710.362,363.912 710.02,365.095 709.52,366.045C709.02,366.995 708.279,367.762 707.295,368.345C706.312,368.929 705.012,369.337 703.395,369.57C701.779,369.804 699.754,369.92 697.32,369.92C696.254,369.92 695.179,369.912 694.095,369.895C693.012,369.879 691.954,369.87 690.92,369.87L687.82,369.87C684.12,369.87 680.979,369.77 678.395,369.57C675.812,369.37 673.704,368.804 672.07,367.87C670.437,366.937 669.254,365.52 668.52,363.62C667.787,361.72 667.42,359.07 667.42,355.67C667.42,354.637 667.454,353.245 667.52,351.495C667.587,349.745 667.687,347.654 667.82,345.22C667.854,344.154 668.087,343.12 668.52,342.12C668.954,341.12 669.512,340.237 670.195,339.47C670.879,338.704 671.662,338.062 672.545,337.545C673.429,337.029 674.37,336.704 675.37,336.57C677.37,336.304 679.37,336.12 681.37,336.02C683.37,335.92 685.37,335.87 687.37,335.87C690.07,335.87 692.495,335.87 694.645,335.87C696.795,335.87 698.704,335.937 700.37,336.07C702.037,336.204 703.47,336.429 704.67,336.745C705.87,337.062 706.87,337.537 707.67,338.17C708.437,338.77 709.037,339.404 709.47,340.07C709.904,340.737 710.22,341.454 710.42,342.22C710.62,342.987 710.745,343.82 710.795,344.72C710.845,345.62 710.87,346.587 710.87,347.62L700.92,347.62C700.854,346.754 700.72,346.079 700.52,345.595C700.32,345.112 699.962,344.745 699.445,344.495C698.929,344.245 698.212,344.087 697.295,344.02C696.379,343.954 695.204,343.92 693.77,343.92L691.22,343.92C690.32,343.92 689.437,343.912 688.57,343.895C687.704,343.879 686.904,343.87 686.17,343.87C684.504,343.87 683.129,343.895 682.045,343.945C680.962,343.995 680.087,344.254 679.42,344.72C678.754,345.187 678.287,345.945 678.02,346.995C677.754,348.045 677.62,349.57 677.62,351.57C677.62,353.404 677.662,354.937 677.745,356.17C677.829,357.404 678.02,358.404 678.32,359.17C678.62,359.937 679.07,360.512 679.67,360.895C680.27,361.279 681.079,361.554 682.095,361.72C683.112,361.887 684.379,361.97 685.895,361.97L695.62,361.97C696.82,361.97 697.82,361.854 698.62,361.62C699.42,361.387 700.012,360.995 700.395,360.445C700.779,359.895 700.97,359.07 700.97,357.97C700.97,357.77 700.962,357.62 700.945,357.52C700.929,357.42 700.92,357.27 700.92,357.07L688.07,357.07Z" style="fill-rule:nonzero;"/>
            <path d="M736.52,362.02L754.87,362.02C755.537,362.02 756.145,361.987 756.695,361.92C757.245,361.854 757.72,361.712 758.12,361.495C758.52,361.279 758.829,360.954 759.045,360.52C759.262,360.087 759.37,359.504 759.37,358.77C759.37,357.604 759.02,356.837 758.32,356.47C757.62,356.104 756.52,355.92 755.02,355.92L736.52,355.92L736.52,362.02ZM736.52,349.32L753.92,349.32C755.254,349.32 756.279,349.137 756.995,348.77C757.712,348.404 758.07,347.587 758.07,346.32C758.07,344.454 757.087,343.52 755.12,343.52L736.52,343.52L736.52,349.32ZM726.47,369.52L726.47,336.22L757.92,336.22C761.454,336.22 764.062,336.879 765.745,338.195C767.429,339.512 768.27,341.72 768.27,344.82C768.27,346.187 768.154,347.304 767.92,348.17C767.687,349.037 767.329,349.754 766.845,350.32C766.362,350.887 765.754,351.337 765.02,351.67C764.287,352.004 763.404,352.304 762.37,352.57C763.47,352.737 764.47,352.937 765.37,353.17C766.27,353.404 767.029,353.779 767.645,354.295C768.262,354.812 768.737,355.52 769.07,356.42C769.404,357.32 769.57,358.504 769.57,359.97C769.57,361.77 769.362,363.279 768.945,364.495C768.529,365.712 767.87,366.695 766.97,367.445C766.07,368.195 764.912,368.729 763.495,369.045C762.079,369.362 760.387,369.52 758.42,369.52L726.47,369.52Z" style="fill-rule:nonzero;"/>
            <path d="M796.02,349.97L807.22,336.22L819.97,336.22L801.27,357.87L801.27,369.57L790.87,369.57L790.87,357.87L771.92,336.22L784.72,336.22L796.02,349.97Z" style="fill-rule:nonzero;"/>
            <path d="M857.47,344.57L857.47,369.57L847.22,369.57L847.22,344.57L832.27,344.57L832.27,336.22L872.17,336.22L872.17,344.57L857.47,344.57Z" style="fill-rule:nonzero;"/>
            <path d="M909.02,348.22L909.02,336.22L919.27,336.22L919.27,369.57L909.02,369.57L909.02,356.87L886.07,356.87L886.07,369.57L875.82,369.57L875.82,336.22L886.07,336.22L886.07,348.22L909.02,348.22Z" style="fill-rule:nonzero;"/>
            <path d="M924.42,369.57L924.42,336.22L961.62,336.22L961.62,343.72L934.47,343.72L934.47,349.52L959.82,349.52L959.82,356.12L934.47,356.12L934.47,362.07L961.62,362.07L961.62,369.57L924.42,369.57Z" style="fill-rule:nonzero;"/>
            <path d="M238.47,419.57L238.47,386.22L275.67,386.22L275.67,393.72L248.52,393.72L248.52,399.52L273.87,399.52L273.87,406.12L248.52,406.12L248.52,412.07L275.67,412.07L275.67,419.57L238.47,419.57Z" style="fill-rule:nonzero;"/>
            <path d="M326.87,386.22L326.87,419.57L310.72,419.57L290.67,394.52L290.67,419.57L281.07,419.57L281.07,386.22L297.22,386.22L317.27,411.22L317.27,386.22L326.87,386.22Z" style="fill-rule:nonzero;"/>
            <rect x="332.72" y="386.22" width="10.25" height="33.35" style="fill-rule:nonzero;"/>
            <path d="M368.07,407.07L368.07,400.72L390.92,400.72C390.887,403.287 390.862,405.537 390.845,407.47C390.829,409.404 390.729,411.079 390.545,412.495C390.362,413.912 390.02,415.095 389.52,416.045C389.02,416.995 388.279,417.762 387.295,418.345C386.312,418.929 385.012,419.337 383.395,419.57C381.779,419.804 379.754,419.92 377.32,419.92C376.254,419.92 375.179,419.912 374.095,419.895C373.012,419.879 371.954,419.87 370.92,419.87L367.82,419.87C364.12,419.87 360.979,419.77 358.395,419.57C355.812,419.37 353.704,418.804 352.07,417.87C350.437,416.937 349.254,415.52 348.52,413.62C347.787,411.72 347.42,409.07 347.42,405.67C347.42,404.637 347.454,403.245 347.52,401.495C347.587,399.745 347.687,397.654 347.82,395.22C347.854,394.154 348.087,393.12 348.52,392.12C348.954,391.12 349.512,390.237 350.195,389.47C350.879,388.704 351.662,388.062 352.545,387.545C353.429,387.029 354.37,386.704 355.37,386.57C357.37,386.304 359.37,386.12 361.37,386.02C363.37,385.92 365.37,385.87 367.37,385.87C370.07,385.87 372.495,385.87 374.645,385.87C376.795,385.87 378.704,385.937 380.37,386.07C382.037,386.204 383.47,386.429 384.67,386.745C385.87,387.062 386.87,387.537 387.67,388.17C388.437,388.77 389.037,389.404 389.47,390.07C389.904,390.737 390.22,391.454 390.42,392.22C390.62,392.987 390.745,393.82 390.795,394.72C390.845,395.62 390.87,396.587 390.87,397.62L380.92,397.62C380.854,396.754 380.72,396.079 380.52,395.595C380.32,395.112 379.962,394.745 379.445,394.495C378.929,394.245 378.212,394.087 377.295,394.02C376.379,393.954 375.204,393.92 373.77,393.92L371.22,393.92C370.32,393.92 369.437,393.912 368.57,393.895C367.704,393.879 366.904,393.87 366.17,393.87C364.504,393.87 363.129,393.895 362.045,393.945C360.962,393.995 360.087,394.254 359.42,394.72C358.754,395.187 358.287,395.945 358.02,396.995C357.754,398.045 357.62,399.57 357.62,401.57C357.62,403.404 357.662,404.937 357.745,406.17C357.829,407.404 358.02,408.404 358.32,409.17C358.62,409.937 359.07,410.512 359.67,410.895C360.27,411.279 361.079,411.554 362.095,411.72C363.112,411.887 364.379,411.97 365.895,411.97L375.62,411.97C376.82,411.97 377.82,411.854 378.62,411.62C379.42,411.387 380.012,410.995 380.395,410.445C380.779,409.895 380.97,409.07 380.97,407.97C380.97,407.77 380.962,407.62 380.945,407.52C380.929,407.42 380.92,407.27 380.92,407.07L368.07,407.07Z" style="fill-rule:nonzero;"/>
            <path d="M452.02,386.22L452.02,419.57L442.42,419.57L442.42,394.17L427.72,419.57L419.57,419.57L405.07,394.17L405.07,419.57L395.47,419.57L395.47,386.22L411.62,386.22L423.87,408.32L435.97,386.22L452.02,386.22Z" style="fill-rule:nonzero;"/>
            <path d="M487.97,406.62L480.87,393.42L473.67,406.62L487.97,406.62ZM491.67,413.52L470.12,413.52L466.82,419.57L455.52,419.57L474.12,386.22L487.82,386.22L506.02,419.57L494.82,419.57L491.67,413.52Z" style="fill-rule:nonzero;"/>
            <path d="M524.02,394.57L524.02,419.57L513.77,419.57L513.77,394.57L498.82,394.57L498.82,386.22L538.72,386.22L538.72,394.57L524.02,394.57Z" style="fill-rule:nonzero;"/>
            <rect x="542.37" y="386.22" width="10.25" height="33.35" style="fill-rule:nonzero;"/>
            <path d="M589.47,397.97C589.437,396.937 589.287,396.154 589.02,395.62C588.754,395.087 588.254,394.704 587.52,394.47C586.787,394.237 585.745,394.112 584.395,394.095C583.045,394.079 581.27,394.07 579.07,394.07C576.57,394.07 574.554,394.095 573.02,394.145C571.487,394.195 570.287,394.437 569.42,394.87C568.554,395.304 567.97,396.029 567.67,397.045C567.37,398.062 567.22,399.537 567.22,401.47C567.22,403.937 567.295,405.845 567.445,407.195C567.595,408.545 568.045,409.545 568.795,410.195C569.545,410.845 570.704,411.229 572.27,411.345C573.837,411.462 576.02,411.52 578.82,411.52C580.92,411.52 582.67,411.52 584.07,411.52C585.47,411.52 586.579,411.387 587.395,411.12C588.212,410.854 588.795,410.395 589.145,409.745C589.495,409.095 589.67,408.12 589.67,406.82L599.67,406.82C599.67,407.087 599.679,407.329 599.695,407.545C599.712,407.762 599.72,408.004 599.72,408.27C599.72,409.97 599.612,411.47 599.395,412.77C599.179,414.07 598.804,415.17 598.27,416.07C597.737,416.97 597.02,417.687 596.12,418.22C595.22,418.754 594.104,419.087 592.77,419.22C590.604,419.454 588.562,419.629 586.645,419.745C584.729,419.862 582.97,419.92 581.37,419.92C576.137,419.92 571.254,419.77 566.72,419.47C564.954,419.37 563.454,418.987 562.22,418.32C560.987,417.654 559.987,416.679 559.22,415.395C558.454,414.112 557.895,412.504 557.545,410.57C557.195,408.637 557.02,406.32 557.02,403.62C557.02,401.92 557.037,400.362 557.07,398.945C557.104,397.529 557.229,396.229 557.445,395.045C557.662,393.862 557.995,392.779 558.445,391.795C558.895,390.812 559.537,389.92 560.37,389.12C561.204,388.32 562.179,387.704 563.295,387.27C564.412,386.837 565.72,386.52 567.22,386.32C568.72,386.12 570.42,385.995 572.32,385.945C574.22,385.895 576.354,385.87 578.72,385.87C582.82,385.87 586.195,385.954 588.845,386.12C591.495,386.287 593.587,386.754 595.12,387.52C596.654,388.287 597.72,389.487 598.32,391.12C598.92,392.754 599.237,395.037 599.27,397.97L589.47,397.97Z" style="fill-rule:nonzero;"/>
            <path d="M625.32,402.87L640.57,402.87C640.837,402.87 641.054,402.879 641.22,402.895C641.387,402.912 641.604,402.92 641.87,402.92C643.07,402.92 644.012,402.854 644.695,402.72C645.379,402.587 645.895,402.345 646.245,401.995C646.595,401.645 646.812,401.17 646.895,400.57C646.979,399.97 647.02,399.204 647.02,398.27C647.02,397.37 646.929,396.662 646.745,396.145C646.562,395.629 646.254,395.229 645.82,394.945C645.387,394.662 644.804,394.487 644.07,394.42C643.337,394.354 642.42,394.32 641.32,394.32L625.32,394.32L625.32,402.87ZM625.32,410.97L625.32,419.57L615.07,419.57L615.07,386.22L646.07,386.22C648.137,386.22 649.879,386.412 651.295,386.795C652.712,387.179 653.862,387.787 654.745,388.62C655.629,389.454 656.262,390.537 656.645,391.87C657.029,393.204 657.22,394.837 657.22,396.77C657.22,398.77 657.062,400.354 656.745,401.52C656.429,402.687 655.962,403.604 655.345,404.27C654.729,404.937 653.97,405.437 653.07,405.77C652.17,406.104 651.154,406.437 650.02,406.77C650.954,406.97 651.837,407.145 652.67,407.295C653.504,407.445 654.229,407.737 654.845,408.17C655.462,408.604 655.945,409.229 656.295,410.045C656.645,410.862 656.82,412.037 656.82,413.57L656.82,419.57L646.57,419.57L646.57,415.17C646.57,413.737 646.279,412.679 645.695,411.995C645.112,411.312 643.937,410.97 642.17,410.97L625.32,410.97Z" style="fill-rule:nonzero;"/>
            <path d="M671.22,401.47C671.22,403.17 671.245,404.604 671.295,405.77C671.345,406.937 671.479,407.904 671.695,408.67C671.912,409.437 672.245,410.02 672.695,410.42C673.145,410.82 673.779,411.12 674.595,411.32C675.412,411.52 676.429,411.637 677.645,411.67C678.862,411.704 680.337,411.72 682.07,411.72C685.537,411.72 688.237,411.679 690.17,411.595C692.104,411.512 693.529,411.187 694.445,410.62C695.362,410.054 695.92,409.129 696.12,407.845C696.32,406.562 696.42,404.737 696.42,402.37C696.42,400.437 696.329,398.912 696.145,397.795C695.962,396.679 695.57,395.845 694.97,395.295C694.37,394.745 693.487,394.404 692.32,394.27C691.154,394.137 689.604,394.07 687.67,394.07C684.17,394.07 681.337,394.07 679.17,394.07C677.004,394.07 675.337,394.279 674.17,394.695C673.004,395.112 672.22,395.837 671.82,396.87C671.42,397.904 671.22,399.437 671.22,401.47ZM660.87,406.07C660.87,402.904 660.912,400.179 660.995,397.895C661.079,395.612 661.395,393.687 661.945,392.12C662.495,390.554 663.362,389.312 664.545,388.395C665.729,387.479 667.42,386.82 669.62,386.42C671.12,386.154 673.845,385.995 677.795,385.945C681.745,385.895 686.92,385.87 693.32,385.87C695.42,385.87 697.237,386.054 698.77,386.42C700.304,386.787 701.595,387.362 702.645,388.145C703.695,388.929 704.52,389.954 705.12,391.22C705.72,392.487 706.137,394.02 706.37,395.82C706.504,396.754 706.579,397.97 706.595,399.47C706.612,400.97 706.62,402.72 706.62,404.72C706.62,407.154 706.47,409.212 706.17,410.895C705.87,412.579 705.354,413.987 704.62,415.12C703.887,416.254 702.912,417.137 701.695,417.77C700.479,418.404 698.954,418.879 697.12,419.195C695.287,419.512 693.129,419.712 690.645,419.795C688.162,419.879 685.27,419.92 681.97,419.92C678.237,419.92 675.037,419.812 672.37,419.595C669.704,419.379 667.52,418.812 665.82,417.895C664.12,416.979 662.87,415.595 662.07,413.745C661.27,411.895 660.87,409.337 660.87,406.07Z" style="fill-rule:nonzero;"/>
            <path d="M740.32,396.42C740.287,395.654 740.154,395.045 739.92,394.595C739.687,394.145 739.279,393.812 738.695,393.595C738.112,393.379 737.345,393.237 736.395,393.17C735.445,393.104 734.22,393.07 732.72,393.07C732.454,393.07 732.237,393.07 732.07,393.07C731.904,393.07 731.687,393.087 731.42,393.12C729.254,393.22 727.437,393.27 725.97,393.27C724.504,393.27 723.32,393.345 722.42,393.495C721.52,393.645 720.87,393.92 720.47,394.32C720.07,394.72 719.87,395.387 719.87,396.32C719.87,397.154 720.17,397.779 720.77,398.195C721.37,398.612 722.204,398.837 723.27,398.87C724.77,398.904 726.195,398.937 727.545,398.97C728.895,399.004 730.154,399.02 731.32,399.02C732.02,399.02 732.745,399.012 733.495,398.995C734.245,398.979 734.954,398.97 735.62,398.97C738.387,398.97 740.787,399.045 742.82,399.195C744.854,399.345 746.529,399.754 747.845,400.42C749.162,401.087 750.137,402.104 750.77,403.47C751.404,404.837 751.72,406.754 751.72,409.22C751.72,410.954 751.554,412.42 751.22,413.62C750.887,414.82 750.362,415.812 749.645,416.595C748.929,417.379 748.02,417.987 746.92,418.42C745.82,418.854 744.504,419.154 742.97,419.32C742.07,419.42 740.337,419.537 737.77,419.67C735.204,419.804 731.92,419.87 727.92,419.87C723.987,419.87 720.779,419.754 718.295,419.52C715.812,419.287 714.004,418.77 712.87,417.97C712.07,417.404 711.479,416.795 711.095,416.145C710.712,415.495 710.445,414.804 710.295,414.07C710.145,413.337 710.07,412.545 710.07,411.695C710.07,410.845 710.07,409.92 710.07,408.92L720.12,408.92C720.12,409.287 720.12,409.67 720.12,410.07C720.12,410.47 720.204,410.829 720.37,411.145C720.537,411.462 720.837,411.745 721.27,411.995C721.704,412.245 722.37,412.404 723.27,412.47C723.704,412.504 724.512,412.537 725.695,412.57C726.879,412.604 728.37,412.62 730.17,412.62C732.504,412.62 734.412,412.604 735.895,412.57C737.379,412.537 738.537,412.42 739.37,412.22C740.204,412.02 740.77,411.72 741.07,411.32C741.37,410.92 741.52,410.337 741.52,409.57C741.52,408.837 741.37,408.262 741.07,407.845C740.77,407.429 740.337,407.129 739.77,406.945C739.204,406.762 738.529,406.654 737.745,406.62C736.962,406.587 736.104,406.57 735.17,406.57C731.904,406.537 729.004,406.529 726.47,406.545C723.937,406.562 721.737,406.504 719.87,406.37C718.004,406.237 716.429,406.004 715.145,405.67C713.862,405.337 712.829,404.804 712.045,404.07C711.262,403.337 710.695,402.37 710.345,401.17C709.995,399.97 709.82,398.454 709.82,396.62C709.82,394.987 709.962,393.57 710.245,392.37C710.529,391.17 711.004,390.162 711.67,389.345C712.337,388.529 713.212,387.895 714.295,387.445C715.379,386.995 716.72,386.67 718.32,386.47C719.387,386.337 721.112,386.204 723.495,386.07C725.879,385.937 728.87,385.87 732.47,385.87C734.37,385.87 736.079,385.879 737.595,385.895C739.112,385.912 740.462,385.987 741.645,386.12C742.829,386.254 743.87,386.445 744.77,386.695C745.67,386.945 746.454,387.32 747.12,387.82C747.854,388.354 748.429,388.92 748.845,389.52C749.262,390.12 749.57,390.77 749.77,391.47C749.97,392.17 750.104,392.929 750.17,393.745C750.237,394.562 750.27,395.454 750.27,396.42L740.32,396.42Z" style="fill-rule:nonzero;"/>
            <path d="M755.32,419.57L755.32,386.22L792.52,386.22L792.52,393.72L765.37,393.72L765.37,399.52L790.72,399.52L790.72,406.12L765.37,406.12L765.37,412.07L792.52,412.07L792.52,419.57L755.32,419.57Z" style="fill-rule:nonzero;"/>
            <path d="M270.22,447.97C270.187,446.937 270.037,446.154 269.77,445.62C269.504,445.087 269.004,444.704 268.27,444.47C267.537,444.237 266.495,444.112 265.145,444.095C263.795,444.079 262.02,444.07 259.82,444.07C257.32,444.07 255.304,444.095 253.77,444.145C252.237,444.195 251.037,444.437 250.17,444.87C249.304,445.304 248.72,446.029 248.42,447.045C248.12,448.062 247.97,449.537 247.97,451.47C247.97,453.937 248.045,455.845 248.195,457.195C248.345,458.545 248.795,459.545 249.545,460.195C250.295,460.845 251.454,461.229 253.02,461.345C254.587,461.462 256.77,461.52 259.57,461.52C261.67,461.52 263.42,461.52 264.82,461.52C266.22,461.52 267.329,461.387 268.145,461.12C268.962,460.854 269.545,460.395 269.895,459.745C270.245,459.095 270.42,458.12 270.42,456.82L280.42,456.82C280.42,457.087 280.429,457.329 280.445,457.545C280.462,457.762 280.47,458.004 280.47,458.27C280.47,459.97 280.362,461.47 280.145,462.77C279.929,464.07 279.554,465.17 279.02,466.07C278.487,466.97 277.77,467.687 276.87,468.22C275.97,468.754 274.854,469.087 273.52,469.22C271.354,469.454 269.312,469.629 267.395,469.745C265.479,469.862 263.72,469.92 262.12,469.92C256.887,469.92 252.004,469.77 247.47,469.47C245.704,469.37 244.204,468.987 242.97,468.32C241.737,467.654 240.737,466.679 239.97,465.395C239.204,464.112 238.645,462.504 238.295,460.57C237.945,458.637 237.77,456.32 237.77,453.62C237.77,451.92 237.787,450.362 237.82,448.945C237.854,447.529 237.979,446.229 238.195,445.045C238.412,443.862 238.745,442.779 239.195,441.795C239.645,440.812 240.287,439.92 241.12,439.12C241.954,438.32 242.929,437.704 244.045,437.27C245.162,436.837 246.47,436.52 247.97,436.32C249.47,436.12 251.17,435.995 253.07,435.945C254.97,435.895 257.104,435.87 259.47,435.87C263.57,435.87 266.945,435.954 269.595,436.12C272.245,436.287 274.337,436.754 275.87,437.52C277.404,438.287 278.47,439.487 279.07,441.12C279.67,442.754 279.987,445.037 280.02,447.97L270.22,447.97Z" style="fill-rule:nonzero;"/>
            <path d="M293.72,451.47C293.72,453.17 293.745,454.604 293.795,455.77C293.845,456.937 293.979,457.904 294.195,458.67C294.412,459.437 294.745,460.02 295.195,460.42C295.645,460.82 296.279,461.12 297.095,461.32C297.912,461.52 298.929,461.637 300.145,461.67C301.362,461.704 302.837,461.72 304.57,461.72C308.037,461.72 310.737,461.679 312.67,461.595C314.604,461.512 316.029,461.187 316.945,460.62C317.862,460.054 318.42,459.129 318.62,457.845C318.82,456.562 318.92,454.737 318.92,452.37C318.92,450.437 318.829,448.912 318.645,447.795C318.462,446.679 318.07,445.845 317.47,445.295C316.87,444.745 315.987,444.404 314.82,444.27C313.654,444.137 312.104,444.07 310.17,444.07C306.67,444.07 303.837,444.07 301.67,444.07C299.504,444.07 297.837,444.279 296.67,444.695C295.504,445.112 294.72,445.837 294.32,446.87C293.92,447.904 293.72,449.437 293.72,451.47ZM283.37,456.07C283.37,452.904 283.412,450.179 283.495,447.895C283.579,445.612 283.895,443.687 284.445,442.12C284.995,440.554 285.862,439.312 287.045,438.395C288.229,437.479 289.92,436.82 292.12,436.42C293.62,436.154 296.345,435.995 300.295,435.945C304.245,435.895 309.42,435.87 315.82,435.87C317.92,435.87 319.737,436.054 321.27,436.42C322.804,436.787 324.095,437.362 325.145,438.145C326.195,438.929 327.02,439.954 327.62,441.22C328.22,442.487 328.637,444.02 328.87,445.82C329.004,446.754 329.079,447.97 329.095,449.47C329.112,450.97 329.12,452.72 329.12,454.72C329.12,457.154 328.97,459.212 328.67,460.895C328.37,462.579 327.854,463.987 327.12,465.12C326.387,466.254 325.412,467.137 324.195,467.77C322.979,468.404 321.454,468.879 319.62,469.195C317.787,469.512 315.629,469.712 313.145,469.795C310.662,469.879 307.77,469.92 304.47,469.92C300.737,469.92 297.537,469.812 294.87,469.595C292.204,469.379 290.02,468.812 288.32,467.895C286.62,466.979 285.37,465.595 284.57,463.745C283.77,461.895 283.37,459.337 283.37,456.07Z" style="fill-rule:nonzero;"/>
            <path d="M343.92,436.22L343.92,461.27L366.87,461.27L366.87,469.57L333.67,469.57L333.67,436.22L343.92,436.22Z" style="fill-rule:nonzero;"/>
            <path d="M380.32,436.22L380.32,461.27L403.27,461.27L403.27,469.57L370.07,469.57L370.07,436.22L380.32,436.22Z" style="fill-rule:nonzero;"/>
            <path d="M405.77,469.57L405.77,436.22L442.97,436.22L442.97,443.72L415.82,443.72L415.82,449.52L441.17,449.52L441.17,456.12L415.82,456.12L415.82,462.07L442.97,462.07L442.97,469.57L405.77,469.57Z" style="fill-rule:nonzero;"/>
            <path d="M479.42,447.97C479.387,446.937 479.237,446.154 478.97,445.62C478.704,445.087 478.204,444.704 477.47,444.47C476.737,444.237 475.695,444.112 474.345,444.095C472.995,444.079 471.22,444.07 469.02,444.07C466.52,444.07 464.504,444.095 462.97,444.145C461.437,444.195 460.237,444.437 459.37,444.87C458.504,445.304 457.92,446.029 457.62,447.045C457.32,448.062 457.17,449.537 457.17,451.47C457.17,453.937 457.245,455.845 457.395,457.195C457.545,458.545 457.995,459.545 458.745,460.195C459.495,460.845 460.654,461.229 462.22,461.345C463.787,461.462 465.97,461.52 468.77,461.52C470.87,461.52 472.62,461.52 474.02,461.52C475.42,461.52 476.529,461.387 477.345,461.12C478.162,460.854 478.745,460.395 479.095,459.745C479.445,459.095 479.62,458.12 479.62,456.82L489.62,456.82C489.62,457.087 489.629,457.329 489.645,457.545C489.662,457.762 489.67,458.004 489.67,458.27C489.67,459.97 489.562,461.47 489.345,462.77C489.129,464.07 488.754,465.17 488.22,466.07C487.687,466.97 486.97,467.687 486.07,468.22C485.17,468.754 484.054,469.087 482.72,469.22C480.554,469.454 478.512,469.629 476.595,469.745C474.679,469.862 472.92,469.92 471.32,469.92C466.087,469.92 461.204,469.77 456.67,469.47C454.904,469.37 453.404,468.987 452.17,468.32C450.937,467.654 449.937,466.679 449.17,465.395C448.404,464.112 447.845,462.504 447.495,460.57C447.145,458.637 446.97,456.32 446.97,453.62C446.97,451.92 446.987,450.362 447.02,448.945C447.054,447.529 447.179,446.229 447.395,445.045C447.612,443.862 447.945,442.779 448.395,441.795C448.845,440.812 449.487,439.92 450.32,439.12C451.154,438.32 452.129,437.704 453.245,437.27C454.362,436.837 455.67,436.52 457.17,436.32C458.67,436.12 460.37,435.995 462.27,435.945C464.17,435.895 466.304,435.87 468.67,435.87C472.77,435.87 476.145,435.954 478.795,436.12C481.445,436.287 483.537,436.754 485.07,437.52C486.604,438.287 487.67,439.487 488.27,441.12C488.87,442.754 489.187,445.037 489.22,447.97L479.42,447.97Z" style="fill-rule:nonzero;"/>
            <path d="M516.87,444.57L516.87,469.57L506.62,469.57L506.62,444.57L491.67,444.57L491.67,436.22L531.57,436.22L531.57,444.57L516.87,444.57Z" style="fill-rule:nonzero;"/>
            <rect x="535.22" y="436.22" width="10.25" height="33.35" style="fill-rule:nonzero;"/>
            <path d="M598.12,436.22L579.52,469.57L566.57,469.57L548.97,436.22L560.12,436.22L573.17,461.37L586.82,436.22L598.12,436.22Z" style="fill-rule:nonzero;"/>
            <path d="M601.07,469.57L601.07,436.22L638.27,436.22L638.27,443.72L611.12,443.72L611.12,449.52L636.47,449.52L636.47,456.12L611.12,456.12L611.12,462.07L638.27,462.07L638.27,469.57L601.07,469.57Z" style="fill-rule:nonzero;"/>
            <path d="M654.42,460.27L654.42,470.87C654.42,472.337 654.254,473.554 653.92,474.52C653.587,475.487 653.062,476.254 652.345,476.82C651.629,477.387 650.704,477.795 649.57,478.045C648.437,478.295 647.087,478.42 645.52,478.42C645.087,478.42 644.645,478.42 644.195,478.42C643.745,478.42 643.337,478.404 642.97,478.37L642.97,473.12C643.17,473.154 643.345,473.187 643.495,473.22C643.645,473.254 643.82,473.27 644.02,473.27C645.254,473.27 646.079,472.945 646.495,472.295C646.912,471.645 647.137,470.737 647.17,469.57L644.37,469.57L644.37,460.27L654.42,460.27Z" style="fill-rule:nonzero;"/>
            <path d="M709.97,462.92L709.97,469.52L670.82,469.52L670.82,461.27C670.82,458.87 671.137,457.037 671.77,455.77C672.404,454.504 673.395,453.57 674.745,452.97C676.095,452.37 677.837,451.979 679.97,451.795C682.104,451.612 684.67,451.42 687.67,451.22C690.504,451.02 692.762,450.862 694.445,450.745C696.129,450.629 697.42,450.437 698.32,450.17C699.22,449.904 699.812,449.512 700.095,448.995C700.379,448.479 700.52,447.704 700.52,446.67C700.52,445.737 700.362,445.037 700.045,444.57C699.729,444.104 699.195,443.779 698.445,443.595C697.695,443.412 696.687,443.32 695.42,443.32C694.154,443.32 692.587,443.32 690.72,443.32C688.154,443.32 686.104,443.354 684.57,443.42C683.037,443.487 681.937,443.804 681.27,444.37C680.904,444.67 680.645,444.979 680.495,445.295C680.345,445.612 680.237,445.954 680.17,446.32C680.104,446.687 680.07,447.07 680.07,447.47C680.07,447.87 680.07,448.304 680.07,448.77L670.82,448.77L670.82,446.42C670.82,444.054 671.062,442.204 671.545,440.87C672.029,439.537 673.045,438.545 674.595,437.895C676.145,437.245 678.37,436.845 681.27,436.695C684.17,436.545 688.02,436.47 692.82,436.47C695.92,436.47 698.562,436.529 700.745,436.645C702.929,436.762 704.712,437.145 706.095,437.795C707.479,438.445 708.479,439.445 709.095,440.795C709.712,442.145 710.02,444.07 710.02,446.57C710.02,449.67 709.579,452.062 708.695,453.745C707.812,455.429 706.354,456.454 704.32,456.82C702.42,457.187 700.362,457.479 698.145,457.695C695.929,457.912 693.604,458.054 691.17,458.12C688.237,458.22 686.012,458.345 684.495,458.495C682.979,458.645 681.887,458.887 681.22,459.22C680.554,459.554 680.179,460.02 680.095,460.62C680.012,461.22 679.97,461.987 679.97,462.92L709.97,462.92Z" style="fill-rule:nonzero;"/>
            <path d="M725.17,452.92C725.17,455.02 725.262,456.645 725.445,457.795C725.629,458.945 726.095,459.804 726.845,460.37C727.595,460.937 728.712,461.279 730.195,461.395C731.679,461.512 733.72,461.57 736.32,461.57C738.82,461.57 740.779,461.504 742.195,461.37C743.612,461.237 744.687,460.879 745.42,460.295C746.154,459.712 746.612,458.845 746.795,457.695C746.979,456.545 747.07,454.937 747.07,452.87C747.07,450.737 746.979,449.07 746.795,447.87C746.612,446.67 746.162,445.779 745.445,445.195C744.729,444.612 743.645,444.254 742.195,444.12C740.745,443.987 738.754,443.92 736.22,443.92C733.687,443.92 731.687,443.979 730.22,444.095C728.754,444.212 727.645,444.562 726.895,445.145C726.145,445.729 725.67,446.62 725.47,447.82C725.27,449.02 725.17,450.72 725.17,452.92ZM715.32,452.77C715.32,449.97 715.445,447.612 715.695,445.695C715.945,443.779 716.379,442.204 716.995,440.97C717.612,439.737 718.47,438.787 719.57,438.12C720.67,437.454 722.062,436.97 723.745,436.67C725.429,436.37 727.454,436.195 729.82,436.145C732.187,436.095 734.97,436.07 738.17,436.07C740.837,436.07 743.162,436.137 745.145,436.27C747.129,436.404 748.812,436.67 750.195,437.07C751.579,437.47 752.712,438.045 753.595,438.795C754.479,439.545 755.17,440.537 755.67,441.77C756.17,443.004 756.512,444.52 756.695,446.32C756.879,448.12 756.97,450.27 756.97,452.77C756.97,455.637 756.862,458.054 756.645,460.02C756.429,461.987 756.02,463.595 755.42,464.845C754.82,466.095 753.995,467.054 752.945,467.72C751.895,468.387 750.512,468.879 748.795,469.195C747.079,469.512 745.004,469.687 742.57,469.72C740.137,469.754 737.254,469.77 733.92,469.77C731.187,469.77 728.837,469.72 726.87,469.62C724.904,469.52 723.229,469.279 721.845,468.895C720.462,468.512 719.345,467.954 718.495,467.22C717.645,466.487 716.987,465.487 716.52,464.22C716.054,462.954 715.737,461.387 715.57,459.52C715.404,457.654 715.32,455.404 715.32,452.77Z" style="fill-rule:nonzero;"/>
            <path d="M788.67,436.22L788.67,469.57L778.62,469.57L778.62,444.07L766.52,452.37L762.02,445.57L776.27,436.22L788.67,436.22Z" style="fill-rule:nonzero;"/>
            <path d="M809.62,459.27C809.62,460.037 809.745,460.654 809.995,461.12C810.245,461.587 810.704,461.954 811.37,462.22C812.037,462.487 812.929,462.67 814.045,462.77C815.162,462.87 816.604,462.92 818.37,462.92C820.404,462.92 822.179,462.929 823.695,462.945C825.212,462.962 826.47,462.879 827.47,462.695C828.47,462.512 829.212,462.179 829.695,461.695C830.179,461.212 830.42,460.487 830.42,459.52C830.42,458.387 830.179,457.554 829.695,457.02C829.212,456.487 828.445,456.12 827.395,455.92C826.345,455.72 824.97,455.637 823.27,455.67C821.57,455.704 819.504,455.72 817.07,455.72C816.604,455.72 816.145,455.712 815.695,455.695C815.245,455.679 814.854,455.67 814.52,455.67C812.754,455.67 811.495,455.945 810.745,456.495C809.995,457.045 809.62,457.97 809.62,459.27ZM825.77,449.32C827.37,449.32 828.504,449.012 829.17,448.395C829.837,447.779 830.17,446.854 830.17,445.62C830.17,445.02 829.987,444.487 829.62,444.02C829.254,443.554 828.737,443.22 828.07,443.02C827.704,442.887 826.445,442.795 824.295,442.745C822.145,442.695 819.137,442.67 815.27,442.67C811.804,442.67 810.07,443.704 810.07,445.77C810.07,446.87 810.32,447.67 810.82,448.17C811.32,448.67 812.129,449.012 813.245,449.195C814.362,449.379 815.845,449.445 817.695,449.395C819.545,449.345 821.82,449.32 824.52,449.32L825.77,449.32ZM800.72,444.57C800.72,442.57 801.054,440.995 801.72,439.845C802.387,438.695 803.395,437.845 804.745,437.295C806.095,436.745 807.762,436.404 809.745,436.27C811.729,436.137 814.054,436.07 816.72,436.07C820.887,436.07 824.429,436.095 827.345,436.145C830.262,436.195 832.629,436.487 834.445,437.02C836.262,437.554 837.587,438.429 838.42,439.645C839.254,440.862 839.67,442.637 839.67,444.97C839.67,446.237 839.562,447.287 839.345,448.12C839.129,448.954 838.77,449.662 838.27,450.245C837.77,450.829 837.112,451.304 836.295,451.67C835.479,452.037 834.47,452.387 833.27,452.72C834.37,453.02 835.337,453.354 836.17,453.72C837.004,454.087 837.695,454.529 838.245,455.045C838.795,455.562 839.212,456.187 839.495,456.92C839.779,457.654 839.92,458.57 839.92,459.67C839.92,460.67 839.904,461.57 839.87,462.37C839.837,463.17 839.729,463.904 839.545,464.57C839.362,465.237 839.07,465.854 838.67,466.42C838.27,466.987 837.72,467.52 837.02,468.02C836.354,468.52 835.562,468.887 834.645,469.12C833.729,469.354 832.67,469.52 831.47,469.62C830.27,469.72 828.895,469.77 827.345,469.77C825.795,469.77 824.054,469.77 822.12,469.77C819.82,469.77 817.504,469.754 815.17,469.72C812.837,469.687 810.47,469.62 808.07,469.52C805.57,469.42 803.654,468.637 802.32,467.17C800.987,465.704 800.32,463.62 800.32,460.92C800.32,459.454 800.537,458.154 800.97,457.02C801.404,455.887 801.954,455.037 802.62,454.47C803.087,454.07 803.72,453.737 804.52,453.47C805.32,453.204 806.187,452.92 807.12,452.62C805.887,452.287 804.862,451.929 804.045,451.545C803.229,451.162 802.57,450.679 802.07,450.095C801.57,449.512 801.22,448.787 801.02,447.92C800.82,447.054 800.72,445.937 800.72,444.57Z" style="fill-rule:nonzero;"/>
            <path d="M269.32,556.62L262.22,543.42L255.02,556.62L269.32,556.62ZM273.02,563.52L251.47,563.52L248.17,569.57L236.87,569.57L255.47,536.22L269.17,536.22L287.37,569.57L276.17,569.57L273.02,563.52Z" style="fill-rule:nonzero;"/>
            <path d="M301.27,536.22L301.27,561.27L324.22,561.27L324.22,569.57L291.02,569.57L291.02,536.22L301.27,536.22Z" style="fill-rule:nonzero;"/>
            <path d="M337.67,536.22L337.67,561.27L360.62,561.27L360.62,569.57L327.42,569.57L327.42,536.22L337.67,536.22Z" style="fill-rule:nonzero;"/>
            <path d="M385.12,552.87L400.37,552.87C400.637,552.87 400.854,552.879 401.02,552.895C401.187,552.912 401.404,552.92 401.67,552.92C402.87,552.92 403.812,552.854 404.495,552.72C405.179,552.587 405.695,552.345 406.045,551.995C406.395,551.645 406.612,551.17 406.695,550.57C406.779,549.97 406.82,549.204 406.82,548.27C406.82,547.37 406.729,546.662 406.545,546.145C406.362,545.629 406.054,545.229 405.62,544.945C405.187,544.662 404.604,544.487 403.87,544.42C403.137,544.354 402.22,544.32 401.12,544.32L385.12,544.32L385.12,552.87ZM385.12,560.97L385.12,569.57L374.87,569.57L374.87,536.22L405.87,536.22C407.937,536.22 409.679,536.412 411.095,536.795C412.512,537.179 413.662,537.787 414.545,538.62C415.429,539.454 416.062,540.537 416.445,541.87C416.829,543.204 417.02,544.837 417.02,546.77C417.02,548.77 416.862,550.354 416.545,551.52C416.229,552.687 415.762,553.604 415.145,554.27C414.529,554.937 413.77,555.437 412.87,555.77C411.97,556.104 410.954,556.437 409.82,556.77C410.754,556.97 411.637,557.145 412.47,557.295C413.304,557.445 414.029,557.737 414.645,558.17C415.262,558.604 415.745,559.229 416.095,560.045C416.445,560.862 416.62,562.037 416.62,563.57L416.62,569.57L406.37,569.57L406.37,565.17C406.37,563.737 406.079,562.679 405.495,561.995C404.912,561.312 403.737,560.97 401.97,560.97L385.12,560.97Z" style="fill-rule:nonzero;"/>
            <rect x="422.07" y="536.22" width="10.25" height="33.35" style="fill-rule:nonzero;"/>
            <path d="M457.42,557.07L457.42,550.72L480.27,550.72C480.237,553.287 480.212,555.537 480.195,557.47C480.179,559.404 480.079,561.079 479.895,562.495C479.712,563.912 479.37,565.095 478.87,566.045C478.37,566.995 477.629,567.762 476.645,568.345C475.662,568.929 474.362,569.337 472.745,569.57C471.129,569.804 469.104,569.92 466.67,569.92C465.604,569.92 464.529,569.912 463.445,569.895C462.362,569.879 461.304,569.87 460.27,569.87L457.17,569.87C453.47,569.87 450.329,569.77 447.745,569.57C445.162,569.37 443.054,568.804 441.42,567.87C439.787,566.937 438.604,565.52 437.87,563.62C437.137,561.72 436.77,559.07 436.77,555.67C436.77,554.637 436.804,553.245 436.87,551.495C436.937,549.745 437.037,547.654 437.17,545.22C437.204,544.154 437.437,543.12 437.87,542.12C438.304,541.12 438.862,540.237 439.545,539.47C440.229,538.704 441.012,538.062 441.895,537.545C442.779,537.029 443.72,536.704 444.72,536.57C446.72,536.304 448.72,536.12 450.72,536.02C452.72,535.92 454.72,535.87 456.72,535.87C459.42,535.87 461.845,535.87 463.995,535.87C466.145,535.87 468.054,535.937 469.72,536.07C471.387,536.204 472.82,536.429 474.02,536.745C475.22,537.062 476.22,537.537 477.02,538.17C477.787,538.77 478.387,539.404 478.82,540.07C479.254,540.737 479.57,541.454 479.77,542.22C479.97,542.987 480.095,543.82 480.145,544.72C480.195,545.62 480.22,546.587 480.22,547.62L470.27,547.62C470.204,546.754 470.07,546.079 469.87,545.595C469.67,545.112 469.312,544.745 468.795,544.495C468.279,544.245 467.562,544.087 466.645,544.02C465.729,543.954 464.554,543.92 463.12,543.92L460.57,543.92C459.67,543.92 458.787,543.912 457.92,543.895C457.054,543.879 456.254,543.87 455.52,543.87C453.854,543.87 452.479,543.895 451.395,543.945C450.312,543.995 449.437,544.254 448.77,544.72C448.104,545.187 447.637,545.945 447.37,546.995C447.104,548.045 446.97,549.57 446.97,551.57C446.97,553.404 447.012,554.937 447.095,556.17C447.179,557.404 447.37,558.404 447.67,559.17C447.97,559.937 448.42,560.512 449.02,560.895C449.62,561.279 450.429,561.554 451.445,561.72C452.462,561.887 453.729,561.97 455.245,561.97L464.97,561.97C466.17,561.97 467.17,561.854 467.97,561.62C468.77,561.387 469.362,560.995 469.745,560.445C470.129,559.895 470.32,559.07 470.32,557.97C470.32,557.77 470.312,557.62 470.295,557.52C470.279,557.42 470.27,557.27 470.27,557.07L457.42,557.07Z" style="fill-rule:nonzero;"/>
            <path d="M518.02,548.22L518.02,536.22L528.27,536.22L528.27,569.57L518.02,569.57L518.02,556.87L495.07,556.87L495.07,569.57L484.82,569.57L484.82,536.22L495.07,536.22L495.07,548.22L518.02,548.22Z" style="fill-rule:nonzero;"/>
            <path d="M557.02,544.57L557.02,569.57L546.77,569.57L546.77,544.57L531.82,544.57L531.82,536.22L571.72,536.22L571.72,544.57L557.02,544.57Z" style="fill-rule:nonzero;"/>
            <path d="M604.52,546.42C604.487,545.654 604.354,545.045 604.12,544.595C603.887,544.145 603.479,543.812 602.895,543.595C602.312,543.379 601.545,543.237 600.595,543.17C599.645,543.104 598.42,543.07 596.92,543.07C596.654,543.07 596.437,543.07 596.27,543.07C596.104,543.07 595.887,543.087 595.62,543.12C593.454,543.22 591.637,543.27 590.17,543.27C588.704,543.27 587.52,543.345 586.62,543.495C585.72,543.645 585.07,543.92 584.67,544.32C584.27,544.72 584.07,545.387 584.07,546.32C584.07,547.154 584.37,547.779 584.97,548.195C585.57,548.612 586.404,548.837 587.47,548.87C588.97,548.904 590.395,548.937 591.745,548.97C593.095,549.004 594.354,549.02 595.52,549.02C596.22,549.02 596.945,549.012 597.695,548.995C598.445,548.979 599.154,548.97 599.82,548.97C602.587,548.97 604.987,549.045 607.02,549.195C609.054,549.345 610.729,549.754 612.045,550.42C613.362,551.087 614.337,552.104 614.97,553.47C615.604,554.837 615.92,556.754 615.92,559.22C615.92,560.954 615.754,562.42 615.42,563.62C615.087,564.82 614.562,565.812 613.845,566.595C613.129,567.379 612.22,567.987 611.12,568.42C610.02,568.854 608.704,569.154 607.17,569.32C606.27,569.42 604.537,569.537 601.97,569.67C599.404,569.804 596.12,569.87 592.12,569.87C588.187,569.87 584.979,569.754 582.495,569.52C580.012,569.287 578.204,568.77 577.07,567.97C576.27,567.404 575.679,566.795 575.295,566.145C574.912,565.495 574.645,564.804 574.495,564.07C574.345,563.337 574.27,562.545 574.27,561.695C574.27,560.845 574.27,559.92 574.27,558.92L584.32,558.92C584.32,559.287 584.32,559.67 584.32,560.07C584.32,560.47 584.404,560.829 584.57,561.145C584.737,561.462 585.037,561.745 585.47,561.995C585.904,562.245 586.57,562.404 587.47,562.47C587.904,562.504 588.712,562.537 589.895,562.57C591.079,562.604 592.57,562.62 594.37,562.62C596.704,562.62 598.612,562.604 600.095,562.57C601.579,562.537 602.737,562.42 603.57,562.22C604.404,562.02 604.97,561.72 605.27,561.32C605.57,560.92 605.72,560.337 605.72,559.57C605.72,558.837 605.57,558.262 605.27,557.845C604.97,557.429 604.537,557.129 603.97,556.945C603.404,556.762 602.729,556.654 601.945,556.62C601.162,556.587 600.304,556.57 599.37,556.57C596.104,556.537 593.204,556.529 590.67,556.545C588.137,556.562 585.937,556.504 584.07,556.37C582.204,556.237 580.629,556.004 579.345,555.67C578.062,555.337 577.029,554.804 576.245,554.07C575.462,553.337 574.895,552.37 574.545,551.17C574.195,549.97 574.02,548.454 574.02,546.62C574.02,544.987 574.162,543.57 574.445,542.37C574.729,541.17 575.204,540.162 575.87,539.345C576.537,538.529 577.412,537.895 578.495,537.445C579.579,536.995 580.92,536.67 582.52,536.47C583.587,536.337 585.312,536.204 587.695,536.07C590.079,535.937 593.07,535.87 596.67,535.87C598.57,535.87 600.279,535.879 601.795,535.895C603.312,535.912 604.662,535.987 605.845,536.12C607.029,536.254 608.07,536.445 608.97,536.695C609.87,536.945 610.654,537.32 611.32,537.82C612.054,538.354 612.629,538.92 613.045,539.52C613.462,540.12 613.77,540.77 613.97,541.47C614.17,542.17 614.304,542.929 614.37,543.745C614.437,544.562 614.47,545.454 614.47,546.42L604.52,546.42Z" style="fill-rule:nonzero;"/>
            <path d="M641.52,552.87L656.77,552.87C657.037,552.87 657.254,552.879 657.42,552.895C657.587,552.912 657.804,552.92 658.07,552.92C659.27,552.92 660.212,552.854 660.895,552.72C661.579,552.587 662.095,552.345 662.445,551.995C662.795,551.645 663.012,551.17 663.095,550.57C663.179,549.97 663.22,549.204 663.22,548.27C663.22,547.37 663.129,546.662 662.945,546.145C662.762,545.629 662.454,545.229 662.02,544.945C661.587,544.662 661.004,544.487 660.27,544.42C659.537,544.354 658.62,544.32 657.52,544.32L641.52,544.32L641.52,552.87ZM641.52,560.97L641.52,569.57L631.27,569.57L631.27,536.22L662.27,536.22C664.337,536.22 666.079,536.412 667.495,536.795C668.912,537.179 670.062,537.787 670.945,538.62C671.829,539.454 672.462,540.537 672.845,541.87C673.229,543.204 673.42,544.837 673.42,546.77C673.42,548.77 673.262,550.354 672.945,551.52C672.629,552.687 672.162,553.604 671.545,554.27C670.929,554.937 670.17,555.437 669.27,555.77C668.37,556.104 667.354,556.437 666.22,556.77C667.154,556.97 668.037,557.145 668.87,557.295C669.704,557.445 670.429,557.737 671.045,558.17C671.662,558.604 672.145,559.229 672.495,560.045C672.845,560.862 673.02,562.037 673.02,563.57L673.02,569.57L662.77,569.57L662.77,565.17C662.77,563.737 662.479,562.679 661.895,561.995C661.312,561.312 660.137,560.97 658.37,560.97L641.52,560.97Z" style="fill-rule:nonzero;"/>
            <path d="M677.77,569.57L677.77,536.22L714.97,536.22L714.97,543.72L687.82,543.72L687.82,549.52L713.17,549.52L713.17,556.12L687.82,556.12L687.82,562.07L714.97,562.07L714.97,569.57L677.77,569.57Z" style="fill-rule:nonzero;"/>
            <path d="M749.52,546.42C749.487,545.654 749.354,545.045 749.12,544.595C748.887,544.145 748.479,543.812 747.895,543.595C747.312,543.379 746.545,543.237 745.595,543.17C744.645,543.104 743.42,543.07 741.92,543.07C741.654,543.07 741.437,543.07 741.27,543.07C741.104,543.07 740.887,543.087 740.62,543.12C738.454,543.22 736.637,543.27 735.17,543.27C733.704,543.27 732.52,543.345 731.62,543.495C730.72,543.645 730.07,543.92 729.67,544.32C729.27,544.72 729.07,545.387 729.07,546.32C729.07,547.154 729.37,547.779 729.97,548.195C730.57,548.612 731.404,548.837 732.47,548.87C733.97,548.904 735.395,548.937 736.745,548.97C738.095,549.004 739.354,549.02 740.52,549.02C741.22,549.02 741.945,549.012 742.695,548.995C743.445,548.979 744.154,548.97 744.82,548.97C747.587,548.97 749.987,549.045 752.02,549.195C754.054,549.345 755.729,549.754 757.045,550.42C758.362,551.087 759.337,552.104 759.97,553.47C760.604,554.837 760.92,556.754 760.92,559.22C760.92,560.954 760.754,562.42 760.42,563.62C760.087,564.82 759.562,565.812 758.845,566.595C758.129,567.379 757.22,567.987 756.12,568.42C755.02,568.854 753.704,569.154 752.17,569.32C751.27,569.42 749.537,569.537 746.97,569.67C744.404,569.804 741.12,569.87 737.12,569.87C733.187,569.87 729.979,569.754 727.495,569.52C725.012,569.287 723.204,568.77 722.07,567.97C721.27,567.404 720.679,566.795 720.295,566.145C719.912,565.495 719.645,564.804 719.495,564.07C719.345,563.337 719.27,562.545 719.27,561.695C719.27,560.845 719.27,559.92 719.27,558.92L729.32,558.92C729.32,559.287 729.32,559.67 729.32,560.07C729.32,560.47 729.404,560.829 729.57,561.145C729.737,561.462 730.037,561.745 730.47,561.995C730.904,562.245 731.57,562.404 732.47,562.47C732.904,562.504 733.712,562.537 734.895,562.57C736.079,562.604 737.57,562.62 739.37,562.62C741.704,562.62 743.612,562.604 745.095,562.57C746.579,562.537 747.737,562.42 748.57,562.22C749.404,562.02 749.97,561.72 750.27,561.32C750.57,560.92 750.72,560.337 750.72,559.57C750.72,558.837 750.57,558.262 750.27,557.845C749.97,557.429 749.537,557.129 748.97,556.945C748.404,556.762 747.729,556.654 746.945,556.62C746.162,556.587 745.304,556.57 744.37,556.57C741.104,556.537 738.204,556.529 735.67,556.545C733.137,556.562 730.937,556.504 729.07,556.37C727.204,556.237 725.629,556.004 724.345,555.67C723.062,555.337 722.029,554.804 721.245,554.07C720.462,553.337 719.895,552.37 719.545,551.17C719.195,549.97 719.02,548.454 719.02,546.62C719.02,544.987 719.162,543.57 719.445,542.37C719.729,541.17 720.204,540.162 720.87,539.345C721.537,538.529 722.412,537.895 723.495,537.445C724.579,536.995 725.92,536.67 727.52,536.47C728.587,536.337 730.312,536.204 732.695,536.07C735.079,535.937 738.07,535.87 741.67,535.87C743.57,535.87 745.279,535.879 746.795,535.895C748.312,535.912 749.662,535.987 750.845,536.12C752.029,536.254 753.07,536.445 753.97,536.695C754.87,536.945 755.654,537.32 756.32,537.82C757.054,538.354 757.629,538.92 758.045,539.52C758.462,540.12 758.77,540.77 758.97,541.47C759.17,542.17 759.304,542.929 759.37,543.745C759.437,544.562 759.47,545.454 759.47,546.42L749.52,546.42Z" style="fill-rule:nonzero;"/>
            <path d="M764.52,569.57L764.52,536.22L801.72,536.22L801.72,543.72L774.57,543.72L774.57,549.52L799.92,549.52L799.92,556.12L774.57,556.12L774.57,562.07L801.72,562.07L801.72,569.57L764.52,569.57Z" style="fill-rule:nonzero;"/>
            <path d="M817.42,552.87L832.67,552.87C832.937,552.87 833.154,552.879 833.32,552.895C833.487,552.912 833.704,552.92 833.97,552.92C835.17,552.92 836.112,552.854 836.795,552.72C837.479,552.587 837.995,552.345 838.345,551.995C838.695,551.645 838.912,551.17 838.995,550.57C839.079,549.97 839.12,549.204 839.12,548.27C839.12,547.37 839.029,546.662 838.845,546.145C838.662,545.629 838.354,545.229 837.92,544.945C837.487,544.662 836.904,544.487 836.17,544.42C835.437,544.354 834.52,544.32 833.42,544.32L817.42,544.32L817.42,552.87ZM817.42,560.97L817.42,569.57L807.17,569.57L807.17,536.22L838.17,536.22C840.237,536.22 841.979,536.412 843.395,536.795C844.812,537.179 845.962,537.787 846.845,538.62C847.729,539.454 848.362,540.537 848.745,541.87C849.129,543.204 849.32,544.837 849.32,546.77C849.32,548.77 849.162,550.354 848.845,551.52C848.529,552.687 848.062,553.604 847.445,554.27C846.829,554.937 846.07,555.437 845.17,555.77C844.27,556.104 843.254,556.437 842.12,556.77C843.054,556.97 843.937,557.145 844.77,557.295C845.604,557.445 846.329,557.737 846.945,558.17C847.562,558.604 848.045,559.229 848.395,560.045C848.745,560.862 848.92,562.037 848.92,563.57L848.92,569.57L838.67,569.57L838.67,565.17C838.67,563.737 838.379,562.679 837.795,561.995C837.212,561.312 836.037,560.97 834.27,560.97L817.42,560.97Z" style="fill-rule:nonzero;"/>
            <path d="M900.02,536.22L881.42,569.57L868.47,569.57L850.87,536.22L862.02,536.22L875.07,561.37L888.72,536.22L900.02,536.22Z" style="fill-rule:nonzero;"/>
            <path d="M902.97,569.57L902.97,536.22L940.17,536.22L940.17,543.72L913.02,543.72L913.02,549.52L938.37,549.52L938.37,556.12L913.02,556.12L913.02,562.07L940.17,562.07L940.17,569.57L902.97,569.57Z" style="fill-rule:nonzero;"/>
            <path d="M955.82,561.47L972.92,561.47C974.387,561.47 975.587,561.37 976.52,561.17C977.454,560.97 978.187,560.562 978.72,559.945C979.254,559.329 979.62,558.445 979.82,557.295C980.02,556.145 980.12,554.62 980.12,552.72C980.12,551.287 980.054,550.037 979.92,548.97C979.787,547.904 979.504,547.037 979.07,546.37C978.637,545.704 978.037,545.204 977.27,544.87C976.504,544.537 975.487,544.37 974.22,544.37L955.82,544.37L955.82,561.47ZM945.57,569.57L945.57,536.27L975.07,536.27C975.97,536.27 977.045,536.32 978.295,536.42C979.545,536.52 980.954,536.654 982.52,536.82C984.92,537.054 986.82,538.329 988.22,540.645C989.62,542.962 990.32,546.304 990.32,550.67C990.32,551.704 990.295,552.987 990.245,554.52C990.195,556.054 990.137,557.82 990.07,559.82C989.937,562.854 988.879,565.237 986.895,566.97C984.912,568.704 982.22,569.57 978.82,569.57L945.57,569.57Z" style="fill-rule:nonzero;"/>
        </g>
    </g>
</svg>
