<?xml version="1.0" encoding="UTF-8" standalone="no"?>
<!DOCTYPE svg PUBLIC "-//W3C//DTD SVG 1.1//EN" "http://www.w3.org/Graphics/SVG/1.1/DTD/svg11.dtd">
<svg width="100%" height="100%" viewBox="0 0 6000 3600" version="1.1" xmlns="http://www.w3.org/2000/svg" xmlns:xlink="http://www.w3.org/1999/xlink" xml:space="preserve" xmlns:serif="http://www.serif.com/" style="fill-rule:evenodd;clip-rule:evenodd;stroke-miterlimit:10;">
    <g transform="matrix(2.55131e-16,-4.1666,4.1666,2.55131e-16,-32.3748,2796.26)">
        <path d="M10.914,1057.16L30.758,1057.16M30.758,1057.16C30.914,1057.16 31.043,1057.04 31.043,1056.88M31.043,1056.88L31.043,1048.37C31.043,1048.53 30.918,1048.66 30.758,1048.66M30.758,1048.66L47.766,1048.66C47.609,1048.66 47.481,1048.53 47.481,1048.37M47.481,1048.37L47.481,1056.88C47.481,1057.03 47.606,1057.16 47.766,1057.16M47.766,1057.16L64.773,1057.16M64.773,1057.16C64.93,1057.16 65.059,1057.04 65.059,1056.88M65.059,1056.88L65.059,1048.37C65.059,1048.53 64.934,1048.66 64.773,1048.66M64.773,1048.66L81.781,1048.66C81.625,1048.66 81.496,1048.53 81.496,1048.37M81.496,1048.37L81.496,1056.88C81.496,1057.03 81.621,1057.16 81.781,1057.16M81.781,1057.16L98.789,1057.16M98.789,1057.16C98.945,1057.16 99.074,1057.04 99.074,1056.88M99.074,1056.88L99.074,1048.37C99.074,1048.53 98.949,1048.66 98.789,1048.66M98.789,1048.66L115.797,1048.66C115.641,1048.66 115.512,1048.53 115.512,1048.37M115.512,1048.37L115.512,1056.88C115.512,1057.03 115.637,1057.16 115.797,1057.16M115.797,1057.16L132.805,1057.16M132.805,1057.16C132.961,1057.16 133.09,1057.04 133.09,1056.88M133.09,1056.88L133.09,1048.37C133.09,1048.53 132.965,1048.66 132.805,1048.66M132.805,1048.66L149.813,1048.66C149.656,1048.66 149.527,1048.53 149.527,1048.37M149.527,1048.37L149.527,1056.88C149.527,1057.03 149.652,1057.16 149.813,1057.16M149.813,1057.16L166.82,1057.16M166.82,1057.16C166.977,1057.16 167.105,1057.04 167.105,1056.88M167.105,1056.88L167.105,1048.37C167.105,1048.53 166.98,1048.66 166.82,1048.66M166.82,1048.66L183.828,1048.66C183.672,1048.66 183.543,1048.53 183.543,1048.37M183.543,1048.37L183.543,1056.88C183.543,1057.03 183.668,1057.16 183.828,1057.16M183.828,1057.16L200.836,1057.16M200.836,1057.16C200.992,1057.16 201.121,1057.04 201.121,1056.88M201.121,1056.88L201.121,1048.37C201.121,1048.53 200.996,1048.66 200.836,1048.66M200.836,1048.66L217.844,1048.66C217.688,1048.66 217.559,1048.53 217.559,1048.37M217.559,1048.37L217.559,1056.88C217.559,1057.03 217.684,1057.16 217.844,1057.16M217.844,1057.16L234.852,1057.16M234.852,1057.16C235.008,1057.16 235.137,1057.04 235.137,1056.88M235.137,1056.88L235.137,1048.37C235.137,1048.53 235.012,1048.66 234.852,1048.66M234.852,1048.66L251.859,1048.66C251.703,1048.66 251.574,1048.53 251.574,1048.37M251.574,1048.37L251.574,1056.88C251.574,1057.03 251.699,1057.16 251.859,1057.16M251.859,1057.16L268.867,1057.16M268.867,1057.16C269.023,1057.16 269.152,1057.04 269.152,1056.88M269.152,1056.88L269.152,1048.37C269.152,1048.53 269.027,1048.66 268.867,1048.66M268.867,1048.66L285.875,1048.66C285.719,1048.66 285.59,1048.53 285.59,1048.37M285.59,1048.37L285.59,1056.88C285.59,1057.03 285.715,1057.16 285.875,1057.16M285.875,1057.16L305.719,1057.16M305.719,1057.16L314.223,1057.16C314.379,1057.16 314.508,1057.04 314.508,1056.88M314.508,1056.88L314.508,1048.37M314.508,1048.37L314.508,1031.36M314.508,1031.36C314.508,1031.21 314.383,1031.08 314.223,1031.08M314.223,1031.08L305.719,1031.08C305.875,1031.08 306.004,1031.2 306.004,1031.36M306.004,1031.36L306.004,1014.36C306.004,1014.51 305.879,1014.64 305.719,1014.64M305.719,1014.64L314.223,1014.64C314.379,1014.64 314.508,1014.51 314.508,1014.36M314.508,1014.36L314.508,997.347M314.508,997.347C314.508,997.191 314.383,997.062 314.223,997.062M314.223,997.062L305.719,997.062C305.875,997.062 306.004,997.187 306.004,997.347M306.004,997.347L306.004,980.339C306.004,980.496 305.879,980.625 305.719,980.625M305.719,980.625L314.223,980.625C314.379,980.625 314.508,980.5 314.508,980.339M314.508,980.339L314.508,963.332M314.508,963.332C314.508,963.175 314.383,963.047 314.223,963.047M314.223,963.047L305.719,963.047C305.875,963.047 306.004,963.172 306.004,963.332M306.004,963.332L306.004,946.324C306.004,946.48 305.879,946.609 305.719,946.609M305.719,946.609L314.223,946.609C314.379,946.609 314.508,946.484 314.508,946.324M314.508,946.324L314.508,929.316M314.508,929.316C314.508,929.16 314.383,929.031 314.223,929.031M314.223,929.031L305.719,929.031C305.875,929.031 306.004,929.156 306.004,929.316M306.004,929.316L306.004,912.308C306.004,912.464 305.879,912.593 305.719,912.593M305.719,912.593L314.223,912.593C314.379,912.593 314.508,912.468 314.508,912.308M314.508,912.308L314.508,895.3M314.508,895.3C314.508,895.144 314.383,895.015 314.223,895.015M314.223,895.015L305.719,895.015C305.875,895.015 306.004,895.14 306.004,895.3M306.004,895.3L306.004,878.293C306.004,878.449 305.879,878.578 305.719,878.578M305.719,878.578L314.223,878.578C314.379,878.578 314.508,878.453 314.508,878.293M314.508,878.293L314.508,861.285M314.508,861.285C314.508,861.129 314.383,861 314.223,861M314.223,861L305.719,861C305.875,861 306.004,861.125 306.004,861.285M306.004,861.285L306.004,146.67M306.004,146.957L306.004,129.949C306.004,130.105 305.879,130.234 305.719,130.234M305.719,130.234L314.223,130.234C314.379,130.234 314.508,130.109 314.508,129.949M314.508,129.949L314.508,112.941M314.508,112.941C314.508,112.785 314.383,112.656 314.223,112.656M314.223,112.656L305.719,112.656C305.875,112.656 306.004,112.781 306.004,112.941M306.004,112.941L306.004,95.933C306.004,96.089 305.879,96.218 305.719,96.218M305.719,96.218L314.223,96.218C314.379,96.218 314.508,96.093 314.508,95.933M314.508,95.933L314.508,78.927M314.508,78.927C314.508,78.767 314.383,78.637 314.223,78.637M314.223,78.637L305.719,78.637C305.875,78.637 306.004,78.767 306.004,78.927M306.004,78.927L306.004,61.917C306.004,62.077 305.879,62.207 305.719,62.207M305.719,62.207L314.223,62.207C314.379,62.207 314.508,62.077 314.508,61.917M314.508,61.917L314.508,44.907M314.508,44.907L314.508,36.407C314.508,36.247 314.383,36.117 314.223,36.117M314.223,36.117L305.719,36.117M305.719,36.117L285.875,36.117M285.875,36.117C285.719,36.117 285.59,36.247 285.59,36.407M285.59,36.407L285.59,44.907C285.59,44.757 285.715,44.627 285.875,44.627M285.875,44.627L268.867,44.627C269.023,44.627 269.152,44.747 269.152,44.907M269.152,44.907L269.152,36.407C269.152,36.247 269.027,36.117 268.867,36.117M268.867,36.117L251.859,36.117M251.859,36.117C251.703,36.117 251.574,36.247 251.574,36.407M251.574,36.407L251.574,44.907C251.574,44.757 251.699,44.627 251.859,44.627M251.859,44.627L234.852,44.627C235.008,44.627 235.137,44.747 235.137,44.907M235.137,44.907L235.137,36.407C235.137,36.247 235.012,36.117 234.852,36.117M234.852,36.117L217.844,36.117M217.844,36.117C217.688,36.117 217.559,36.247 217.559,36.407M217.559,36.407L217.559,44.907C217.559,44.757 217.684,44.627 217.844,44.627M217.844,44.627L200.836,44.627C200.992,44.627 201.121,44.747 201.121,44.907M201.121,44.907L201.121,36.407C201.121,36.247 200.996,36.117 200.836,36.117M200.836,36.117L183.828,36.117M183.828,36.117C183.672,36.117 183.543,36.247 183.543,36.407M183.543,36.407L183.543,44.907C183.543,44.757 183.668,44.627 183.828,44.627M183.828,44.627L166.82,44.627C166.977,44.627 167.105,44.747 167.105,44.907M167.105,44.907L167.105,36.407C167.105,36.247 166.98,36.117 166.82,36.117M166.82,36.117L149.813,36.117M149.813,36.117C149.656,36.117 149.527,36.247 149.527,36.407M149.527,36.407L149.527,44.907C149.527,44.757 149.652,44.627 149.813,44.627M149.813,44.627L132.805,44.627C132.961,44.627 133.09,44.747 133.09,44.907M133.09,44.907L133.09,36.407C133.09,36.247 132.965,36.117 132.805,36.117M132.805,36.117L115.797,36.117M115.797,36.117C115.641,36.117 115.512,36.247 115.512,36.407M115.512,36.407L115.512,44.907C115.512,44.757 115.637,44.627 115.797,44.627M115.797,44.627L98.789,44.627C98.945,44.627 99.074,44.747 99.074,44.907M99.074,44.907L99.074,36.407C99.074,36.247 98.949,36.117 98.789,36.117M98.789,36.117L81.781,36.117M81.781,36.117C81.625,36.117 81.496,36.247 81.496,36.407M81.496,36.407L81.496,44.907C81.496,44.757 81.621,44.627 81.781,44.627M81.781,44.627L64.773,44.627C64.93,44.627 65.059,44.747 65.059,44.907M65.059,44.907L65.059,36.407C65.059,36.247 64.934,36.117 64.773,36.117M64.773,36.117L47.766,36.117M47.766,36.117C47.609,36.117 47.481,36.247 47.481,36.407M47.481,36.407L47.481,44.907C47.481,44.757 47.606,44.627 47.766,44.627M47.766,44.627L30.758,44.627C30.914,44.627 31.043,44.747 31.043,44.907M31.043,44.907L31.043,36.407C31.043,36.247 30.918,36.117 30.758,36.117M30.758,36.117L10.914,36.117M10.914,36.117L2.41,36.117C2.254,36.117 2.125,36.247 2.125,36.407M2.125,36.407L2.125,44.907M2.125,44.907L2.125,61.917M2.125,61.917C2.125,62.077 2.25,62.207 2.41,62.207M2.41,62.207L10.914,62.207C10.758,62.207 10.629,62.077 10.629,61.917M10.629,61.917L10.629,78.927C10.629,78.767 10.754,78.637 10.914,78.637M10.914,78.637L2.41,78.637C2.254,78.637 2.125,78.767 2.125,78.927M2.125,78.927L2.125,95.933M2.125,95.933C2.125,96.089 2.25,96.218 2.41,96.218M2.41,96.218L10.914,96.218C10.758,96.218 10.629,96.093 10.629,95.933M10.629,95.933L10.629,112.941C10.629,112.785 10.754,112.656 10.914,112.656M10.914,112.656L2.41,112.656C2.254,112.656 2.125,112.781 2.125,112.941M2.125,112.941L2.125,129.949M2.125,129.949C2.125,130.105 2.25,130.234 2.41,130.234M2.41,130.234L10.914,130.234C10.758,130.234 10.629,130.109 10.629,129.949M10.629,129.949L10.629,146.957C10.629,146.8 10.754,146.672 10.914,146.672M10.914,146.672L2.41,146.672C2.254,146.672 2.125,146.797 2.125,146.957M2.125,146.957L2.125,163.964M2.125,163.964C2.125,164.121 2.25,164.25 2.41,164.25M2.41,164.25L10.914,164.25C10.758,164.25 10.629,164.125 10.629,163.964M10.629,163.964L10.629,180.972C10.629,180.816 10.754,180.687 10.914,180.687M10.914,180.687L2.41,180.687C2.254,180.687 2.125,180.812 2.125,180.972M2.125,180.972L2.125,197.98M2.125,197.98C2.125,198.136 2.25,198.265 2.41,198.265M2.41,198.265L10.914,198.265C10.758,198.265 10.629,198.14 10.629,197.98M10.629,197.98L10.629,214.988C10.629,214.832 10.754,214.703 10.914,214.703M10.914,214.703L2.41,214.703C2.254,214.703 2.125,214.828 2.125,214.988M2.125,214.988L2.125,231.996M2.125,231.996C2.125,232.152 2.25,232.281 2.41,232.281M2.41,232.281L10.914,232.281C10.758,232.281 10.629,232.156 10.629,231.996M10.629,231.996L10.629,249.004C10.629,248.847 10.754,248.718 10.914,248.718M10.914,248.718L2.41,248.718C2.254,248.718 2.125,248.843 2.125,249.004M2.125,249.004L2.125,266.011M2.125,266.011C2.125,266.168 2.25,266.297 2.41,266.297M2.41,266.297L10.914,266.297C10.758,266.297 10.629,266.172 10.629,266.011M10.629,266.011L10.629,283.019C10.629,282.863 10.754,282.734 10.914,282.734M10.914,282.734L2.41,282.734C2.254,282.734 2.125,282.859 2.125,283.019M2.125,283.019L2.125,300.027M2.125,300.027C2.125,300.183 2.25,300.312 2.41,300.312M2.41,300.312L10.914,300.312C10.758,300.312 10.629,300.187 10.629,300.027M10.629,300.027L10.629,317.035C10.629,316.879 10.754,316.75 10.914,316.75M10.914,316.75L2.41,316.75C2.254,316.75 2.125,316.875 2.125,317.035M2.125,317.035L2.125,334.043M2.125,334.043C2.125,334.199 2.25,334.328 2.41,334.328M2.41,334.328L10.914,334.328C10.758,334.328 10.629,334.203 10.629,334.043M10.629,334.043L10.629,351.05C10.629,350.894 10.754,350.765 10.914,350.765M10.914,350.765L2.41,350.765C2.254,350.765 2.125,350.89 2.125,351.05M2.125,351.05L2.125,368.058M2.125,368.058C2.125,368.214 2.25,368.343 2.41,368.343M2.41,368.343L10.914,368.343C10.758,368.343 10.629,368.218 10.629,368.058M10.629,368.058L10.629,385.066C10.629,384.91 10.754,384.781 10.914,384.781M10.914,384.781L2.41,384.781C2.254,384.781 2.125,384.906 2.125,385.066M2.125,385.066L2.125,402.074M2.125,402.074C2.125,402.23 2.25,402.359 2.41,402.359M2.41,402.359L10.914,402.359C10.758,402.359 10.629,402.234 10.629,402.074M10.629,402.074L10.629,419.082C10.629,418.925 10.754,418.797 10.914,418.797M10.914,418.797L2.41,418.797C2.254,418.797 2.125,418.922 2.125,419.082M2.125,419.082L2.125,436.089M2.125,436.089C2.125,436.246 2.25,436.375 2.41,436.375M2.41,436.375L10.914,436.375C10.758,436.375 10.629,436.25 10.629,436.089M10.629,436.089L10.629,453.097C10.629,452.941 10.754,452.812 10.914,452.812M10.914,452.812L2.41,452.812C2.254,452.812 2.125,452.937 2.125,453.097M2.125,453.097L2.125,470.105M2.125,470.105C2.125,470.261 2.25,470.39 2.41,470.39M2.41,470.39L10.914,470.39C10.758,470.39 10.629,470.265 10.629,470.105M10.629,470.105L10.629,487.113C10.629,486.957 10.754,486.828 10.914,486.828M10.914,486.828L2.41,486.828C2.254,486.828 2.125,486.953 2.125,487.113M2.125,487.113L2.125,504.121M2.125,504.121C2.125,504.277 2.25,504.406 2.41,504.406M2.41,504.406L10.914,504.406C10.758,504.406 10.629,504.281 10.629,504.121M10.629,504.121L10.629,521.129C10.629,520.972 10.754,520.843 10.914,520.843M10.914,520.843L2.41,520.843C2.254,520.843 2.125,520.968 2.125,521.129M2.125,521.129L2.125,538.136M2.125,538.136C2.125,538.293 2.25,538.422 2.41,538.422M2.41,538.422L10.914,538.422C10.758,538.422 10.629,538.297 10.629,538.136M10.629,538.136L10.629,555.144C10.629,554.988 10.754,554.859 10.914,554.859M10.914,554.859L2.41,554.859C2.254,554.859 2.125,554.984 2.125,555.144M2.125,555.144L2.125,572.152M2.125,572.152C2.125,572.308 2.25,572.437 2.41,572.437M2.41,572.437L10.914,572.437C10.758,572.437 10.629,572.312 10.629,572.152M10.629,572.152L10.629,589.16C10.629,589.004 10.754,588.875 10.914,588.875M10.914,588.875L2.41,588.875C2.254,588.875 2.125,589 2.125,589.16M2.125,589.16L2.125,606.168M2.125,606.168C2.125,606.324 2.25,606.453 2.41,606.453M2.41,606.453L10.914,606.453C10.758,606.453 10.629,606.328 10.629,606.168M10.629,606.168L10.629,623.175C10.629,623.019 10.754,622.89 10.914,622.89M10.914,622.89L2.41,622.89C2.254,622.89 2.125,623.015 2.125,623.175M2.125,623.175L2.125,640.183M2.125,640.183C2.125,640.339 2.25,640.468 2.41,640.468M2.41,640.468L10.914,640.468C10.758,640.468 10.629,640.343 10.629,640.183M10.629,640.183L10.629,657.191C10.629,657.035 10.754,656.906 10.914,656.906M10.914,656.906L2.41,656.906C2.254,656.906 2.125,657.031 2.125,657.191M2.125,657.191L2.125,674.199M2.125,674.199C2.125,674.355 2.25,674.484 2.41,674.484M2.41,674.484L10.914,674.484C10.758,674.484 10.629,674.359 10.629,674.199M10.629,674.199L10.629,691.207C10.629,691.05 10.754,690.922 10.914,690.922M10.914,690.922L2.41,690.922C2.254,690.922 2.125,691.047 2.125,691.207M2.125,691.207L2.125,708.214M2.125,708.214C2.125,708.371 2.25,708.5 2.41,708.5M2.41,708.5L10.914,708.5C10.758,708.5 10.629,708.375 10.629,708.214M10.629,708.214L10.629,725.222C10.629,725.066 10.754,724.937 10.914,724.937M10.914,724.937L2.41,724.937C2.254,724.937 2.125,725.062 2.125,725.222M2.125,725.222L2.125,742.23M2.125,742.23C2.125,742.386 2.25,742.515 2.41,742.515M2.41,742.515L10.914,742.515C10.758,742.515 10.629,742.39 10.629,742.23M10.629,742.23L10.629,759.238C10.629,759.082 10.754,758.953 10.914,758.953M10.914,758.953L2.41,758.953C2.254,758.953 2.125,759.078 2.125,759.238M2.125,759.238L2.125,776.246M2.125,776.246C2.125,776.402 2.25,776.531 2.41,776.531M2.41,776.531L10.914,776.531C10.758,776.531 10.629,776.406 10.629,776.246M10.629,776.246L10.629,793.254C10.629,793.097 10.754,792.968 10.914,792.968M10.914,792.968L2.41,792.968C2.254,792.968 2.125,793.093 2.125,793.254M2.125,793.254L2.125,810.261M2.125,810.261C2.125,810.418 2.25,810.547 2.41,810.547M2.41,810.547L10.914,810.547C10.758,810.547 10.629,810.422 10.629,810.261M10.629,810.261L10.629,827.269C10.629,827.113 10.754,826.984 10.914,826.984M10.914,826.984L2.41,826.984C2.254,826.984 2.125,827.109 2.125,827.269M2.125,827.269L2.125,844.277M2.125,844.277C2.125,844.433 2.25,844.562 2.41,844.562M2.41,844.562L10.914,844.562C10.758,844.562 10.629,844.437 10.629,844.277M10.629,844.277L10.629,861.285C10.629,861.129 10.754,861 10.914,861M10.914,861L2.41,861C2.254,861 2.125,861.125 2.125,861.285M2.125,861.285L2.125,880.855M2.125,880.855L2.125,1056.88C2.125,1057.03 2.25,1057.16 2.41,1057.16M2.41,1057.16L10.914,1057.16" style="fill:none;stroke:black;stroke-width:0.14px;"/>
    </g>
    <g transform="matrix(2.55131e-16,-4.1666,4.1666,2.55131e-16,-4304.36,1428.54)">
        <path d="M10.914,2082.45L30.758,2082.45M30.758,2082.45C30.914,2082.45 31.043,2082.32 31.043,2082.16M31.043,2082.16L31.043,2073.66C31.043,2073.82 30.918,2073.95 30.758,2073.95M30.758,2073.95L47.766,2073.95C47.609,2073.95 47.481,2073.82 47.481,2073.66M47.481,2073.66L47.481,2082.16C47.481,2082.32 47.606,2082.45 47.766,2082.45M47.766,2082.45L64.773,2082.45M64.773,2082.45C64.93,2082.45 65.059,2082.32 65.059,2082.16M65.059,2082.16L65.059,2073.66C65.059,2073.82 64.934,2073.95 64.773,2073.95M64.773,2073.95L81.781,2073.95C81.625,2073.95 81.496,2073.82 81.496,2073.66M81.496,2073.66L81.496,2082.16C81.496,2082.32 81.621,2082.45 81.781,2082.45M81.781,2082.45L98.789,2082.45M98.789,2082.45C98.945,2082.45 99.074,2082.32 99.074,2082.16M99.074,2082.16L99.074,2073.66C99.074,2073.82 98.949,2073.95 98.789,2073.95M98.789,2073.95L115.797,2073.95C115.641,2073.95 115.512,2073.82 115.512,2073.66M115.512,2073.66L115.512,2082.16C115.512,2082.32 115.637,2082.45 115.797,2082.45M115.797,2082.45L132.805,2082.45M132.805,2082.45C132.961,2082.45 133.09,2082.32 133.09,2082.16M133.09,2082.16L133.09,2073.66C133.09,2073.82 132.965,2073.95 132.805,2073.95M132.805,2073.95L149.813,2073.95C149.656,2073.95 149.527,2073.82 149.527,2073.66M149.527,2073.66L149.527,2082.16C149.527,2082.32 149.652,2082.45 149.813,2082.45M149.813,2082.45L166.82,2082.45M166.82,2082.45C166.977,2082.45 167.105,2082.32 167.105,2082.16M167.105,2082.16L167.105,2073.66C167.105,2073.82 166.98,2073.95 166.82,2073.95M166.82,2073.95L183.828,2073.95C183.672,2073.95 183.543,2073.82 183.543,2073.66M183.543,2073.66L183.543,2082.16C183.543,2082.32 183.668,2082.45 183.828,2082.45M183.828,2082.45L200.836,2082.45M200.836,2082.45C200.992,2082.45 201.121,2082.32 201.121,2082.16M201.121,2082.16L201.121,2073.66C201.121,2073.82 200.996,2073.95 200.836,2073.95M200.836,2073.95L217.844,2073.95C217.688,2073.95 217.559,2073.82 217.559,2073.66M217.559,2073.66L217.559,2082.16C217.559,2082.32 217.684,2082.45 217.844,2082.45M217.844,2082.45L234.852,2082.45M234.852,2082.45C235.008,2082.45 235.137,2082.32 235.137,2082.16M235.137,2082.16L235.137,2073.66C235.137,2073.82 235.012,2073.95 234.852,2073.95M234.852,2073.95L251.859,2073.95C251.703,2073.95 251.574,2073.82 251.574,2073.66M251.574,2073.66L251.574,2082.16C251.574,2082.32 251.699,2082.45 251.859,2082.45M251.859,2082.45L268.867,2082.45M268.867,2082.45C269.023,2082.45 269.152,2082.32 269.152,2082.16M269.152,2082.16L269.152,2073.66C269.152,2073.82 269.027,2073.95 268.867,2073.95M268.867,2073.95L285.875,2073.95C285.719,2073.95 285.59,2073.82 285.59,2073.66M285.59,2073.66L285.59,2082.16C285.59,2082.32 285.715,2082.45 285.875,2082.45M285.875,2082.45L305.719,2082.45M305.719,2082.45L314.223,2082.45C314.379,2082.45 314.508,2082.32 314.508,2082.16M314.508,2082.16L314.508,1903.31M314.508,1903.58L314.508,1886.57M314.508,1886.57C314.508,1886.42 314.383,1886.29 314.223,1886.29M314.223,1886.29L305.719,1886.29C305.875,1886.29 306.004,1886.41 306.004,1886.57M306.004,1886.57L306.004,1869.57C306.004,1869.72 305.879,1869.85 305.719,1869.85M305.719,1869.85L314.223,1869.85C314.379,1869.85 314.508,1869.73 314.508,1869.57M314.508,1869.57L314.508,1852.56M314.508,1852.56C314.508,1852.4 314.383,1852.27 314.223,1852.27M314.223,1852.27L305.719,1852.27C305.875,1852.27 306.004,1852.4 306.004,1852.56M306.004,1852.56L306.004,1835.55C306.004,1835.71 305.879,1835.84 305.719,1835.84M305.719,1835.84L314.223,1835.84C314.379,1835.84 314.508,1835.71 314.508,1835.55M314.508,1835.55L314.508,1818.54M314.508,1818.54C314.508,1818.39 314.383,1818.26 314.223,1818.26M314.223,1818.26L305.719,1818.26C305.875,1818.26 306.004,1818.38 306.004,1818.54M306.004,1818.54L306.004,1801.54C306.004,1801.69 305.879,1801.82 305.719,1801.82M305.719,1801.82L314.223,1801.82C314.379,1801.82 314.508,1801.7 314.508,1801.54M314.508,1801.54L314.508,1784.53M314.508,1784.53C314.508,1784.37 314.383,1784.24 314.223,1784.24M314.223,1784.24L305.719,1784.24C305.875,1784.24 306.004,1784.37 306.004,1784.53M306.004,1784.53L306.004,1767.52C306.004,1767.68 305.879,1767.81 305.719,1767.81M305.719,1767.81L314.223,1767.81C314.379,1767.81 314.508,1767.68 314.508,1767.52M314.508,1767.52L314.508,1750.51M314.508,1750.51C314.508,1750.36 314.383,1750.23 314.223,1750.23M314.223,1750.23L305.719,1750.23C305.875,1750.23 306.004,1750.35 306.004,1750.51M306.004,1750.51L306.004,1733.5C306.004,1733.66 305.879,1733.79 305.719,1733.79M305.719,1733.79L314.223,1733.79C314.379,1733.79 314.508,1733.66 314.508,1733.5M314.508,1733.5L314.508,1716.5M314.508,1716.5C314.508,1716.34 314.383,1716.21 314.223,1716.21M314.223,1716.21L305.719,1716.21C305.875,1716.21 306.004,1716.34 306.004,1716.5M306.004,1716.5L306.004,1699.49C306.004,1699.65 305.879,1699.77 305.719,1699.77M305.719,1699.77L314.223,1699.77C314.379,1699.77 314.508,1699.65 314.508,1699.49M314.508,1699.49L314.508,1682.48M314.508,1682.48C314.508,1682.32 314.383,1682.2 314.223,1682.2M314.223,1682.2L305.719,1682.2C305.875,1682.2 306.004,1682.32 306.004,1682.48M306.004,1682.48L306.004,1665.47C306.004,1665.63 305.879,1665.76 305.719,1665.76M305.719,1665.76L314.223,1665.76C314.379,1665.76 314.508,1665.63 314.508,1665.47M314.508,1665.47L314.508,1648.47M314.508,1648.47C314.508,1648.31 314.383,1648.18 314.223,1648.18M314.223,1648.18L305.719,1648.18C305.875,1648.18 306.004,1648.31 306.004,1648.47M306.004,1648.47L306.004,1631.46C306.004,1631.61 305.879,1631.74 305.719,1631.74M305.719,1631.74L314.223,1631.74C314.379,1631.74 314.508,1631.62 314.508,1631.46M314.508,1631.46L314.508,1614.45M314.508,1614.45C314.508,1614.29 314.383,1614.16 314.223,1614.16M314.223,1614.16L305.719,1614.16C305.875,1614.16 306.004,1614.29 306.004,1614.45M306.004,1614.45L306.004,1597.44C306.004,1597.6 305.879,1597.73 305.719,1597.73M305.719,1597.73L314.223,1597.73C314.379,1597.73 314.508,1597.6 314.508,1597.44M314.508,1597.44L314.508,1580.43M314.508,1580.43C314.508,1580.28 314.383,1580.15 314.223,1580.15M314.223,1580.15L305.719,1580.15C305.875,1580.15 306.004,1580.27 306.004,1580.43M306.004,1580.43L306.004,1563.43C306.004,1563.58 305.879,1563.71 305.719,1563.71M305.719,1563.71L314.223,1563.71C314.379,1563.71 314.508,1563.59 314.508,1563.43M314.508,1563.43L314.508,1546.42M314.508,1546.42C314.508,1546.26 314.383,1546.13 314.223,1546.13M314.223,1546.13L305.719,1546.13C305.875,1546.13 306.004,1546.26 306.004,1546.42M306.004,1546.42L306.004,1529.41C306.004,1529.57 305.879,1529.7 305.719,1529.7M305.719,1529.7L314.223,1529.7C314.379,1529.7 314.508,1529.57 314.508,1529.41M314.508,1529.41L314.508,1512.4M314.508,1512.4C314.508,1512.25 314.383,1512.12 314.223,1512.12M314.223,1512.12L305.719,1512.12C305.875,1512.12 306.004,1512.24 306.004,1512.4M306.004,1512.4L306.004,1495.4C306.004,1495.55 305.879,1495.68 305.719,1495.68M305.719,1495.68L314.223,1495.68C314.379,1495.68 314.508,1495.56 314.508,1495.4M314.508,1495.4L314.508,1478.39M314.508,1478.39C314.508,1478.23 314.383,1478.1 314.223,1478.1M314.223,1478.1L305.719,1478.1C305.875,1478.1 306.004,1478.23 306.004,1478.39M306.004,1478.39L306.004,1461.38C306.004,1461.54 305.879,1461.66 305.719,1461.66M305.719,1461.66L314.223,1461.66C314.379,1461.66 314.508,1461.54 314.508,1461.38M314.508,1461.38L314.508,1444.37M314.508,1444.37C314.508,1444.22 314.383,1444.09 314.223,1444.09M314.223,1444.09L305.719,1444.09C305.875,1444.09 306.004,1444.21 306.004,1444.37M306.004,1444.37L306.004,1427.36C306.004,1427.52 305.879,1427.65 305.719,1427.65M305.719,1427.65L314.223,1427.65C314.379,1427.65 314.508,1427.52 314.508,1427.36M314.508,1427.36L314.508,1410.36M314.508,1410.36C314.508,1410.2 314.383,1410.07 314.223,1410.07M314.223,1410.07L305.719,1410.07C305.875,1410.07 306.004,1410.2 306.004,1410.36M306.004,1410.36L306.004,1393.35C306.004,1393.5 305.879,1393.63 305.719,1393.63M305.719,1393.63L314.223,1393.63C314.379,1393.63 314.508,1393.51 314.508,1393.35M314.508,1393.35L314.508,1376.34M314.508,1376.34C314.508,1376.18 314.383,1376.06 314.223,1376.06M314.223,1376.06L305.719,1376.06C305.875,1376.06 306.004,1376.18 306.004,1376.34M306.004,1376.34L306.004,1359.33C306.004,1359.49 305.879,1359.62 305.719,1359.62M305.719,1359.62L314.223,1359.62C314.379,1359.62 314.508,1359.49 314.508,1359.33M314.508,1359.33L314.508,1342.32M314.508,1342.32C314.508,1342.17 314.383,1342.04 314.223,1342.04M314.223,1342.04L305.719,1342.04C305.875,1342.04 306.004,1342.16 306.004,1342.32M306.004,1342.32L306.004,1325.32C306.004,1325.47 305.879,1325.6 305.719,1325.6M305.719,1325.6L314.223,1325.6C314.379,1325.6 314.508,1325.48 314.508,1325.32M314.508,1325.32L314.508,1308.31M314.508,1308.31C314.508,1308.15 314.383,1308.02 314.223,1308.02M314.223,1308.02L305.719,1308.02C305.875,1308.02 306.004,1308.15 306.004,1308.31M306.004,1308.31L306.004,1291.3C306.004,1291.46 305.879,1291.59 305.719,1291.59M305.719,1291.59L314.223,1291.59C314.379,1291.59 314.508,1291.46 314.508,1291.3M314.508,1291.3L314.508,1274.29M314.508,1274.29C314.508,1274.14 314.383,1274.01 314.223,1274.01M314.223,1274.01L305.719,1274.01C305.875,1274.01 306.004,1274.13 306.004,1274.29M306.004,1274.29L306.004,1257.29C306.004,1257.44 305.879,1257.57 305.719,1257.57M305.719,1257.57L314.223,1257.57C314.379,1257.57 314.508,1257.45 314.508,1257.29M314.508,1257.29L314.508,1240.28M314.508,1240.28C314.508,1240.12 314.383,1239.99 314.223,1239.99M314.223,1239.99L305.719,1239.99C305.875,1239.99 306.004,1240.12 306.004,1240.28M306.004,1240.28L306.004,1223.27C306.004,1223.43 305.879,1223.56 305.719,1223.56M305.719,1223.56L314.223,1223.56C314.379,1223.56 314.508,1223.43 314.508,1223.27M314.508,1223.27L314.508,1206.26M314.508,1206.26C314.508,1206.11 314.383,1205.98 314.223,1205.98M314.223,1205.98L305.719,1205.98C305.875,1205.98 306.004,1206.1 306.004,1206.26M306.004,1206.26L306.004,1189.25C306.004,1189.41 305.879,1189.54 305.719,1189.54M305.719,1189.54L314.223,1189.54C314.379,1189.54 314.508,1189.41 314.508,1189.25M314.508,1189.25L314.508,1172.25M314.508,1172.25C314.508,1172.09 314.383,1171.96 314.223,1171.96M314.223,1171.96L305.719,1171.96C305.875,1171.96 306.004,1172.09 306.004,1172.25M306.004,1172.25L306.004,1155.24C306.004,1155.4 305.879,1155.52 305.719,1155.52M305.719,1155.52L314.223,1155.52C314.379,1155.52 314.508,1155.4 314.508,1155.24M314.508,1155.24L314.508,1138.23M314.508,1138.23C314.508,1138.07 314.383,1137.95 314.223,1137.95M314.223,1137.95L305.719,1137.95C305.875,1137.95 306.004,1138.07 306.004,1138.23M306.004,1138.23L306.004,1121.22C306.004,1121.38 305.879,1121.51 305.719,1121.51M305.719,1121.51L314.223,1121.51C314.379,1121.51 314.508,1121.38 314.508,1121.22M314.508,1121.22L314.508,1104.22M314.508,1104.22C314.508,1104.06 314.383,1103.93 314.223,1103.93M314.223,1103.93L305.719,1103.93C305.875,1103.93 306.004,1104.06 306.004,1104.22M306.004,1104.22L306.004,1087.21C306.004,1087.36 305.879,1087.49 305.719,1087.49M305.719,1087.49L314.223,1087.49C314.379,1087.49 314.508,1087.37 314.508,1087.21M314.508,1087.21L314.508,1070.2M314.508,1070.2L314.508,1061.7C314.508,1061.54 314.383,1061.41 314.223,1061.41M314.223,1061.41L305.719,1061.41M305.719,1061.41L285.875,1061.41M285.875,1061.41C285.719,1061.41 285.59,1061.54 285.59,1061.7M285.59,1061.7L285.59,1070.2C285.59,1070.04 285.715,1069.91 285.875,1069.91M285.875,1069.91L268.867,1069.91C269.023,1069.91 269.152,1070.04 269.152,1070.2M269.152,1070.2L269.152,1061.7C269.152,1061.54 269.027,1061.41 268.867,1061.41M268.867,1061.41L251.859,1061.41M251.859,1061.41C251.703,1061.41 251.574,1061.54 251.574,1061.7M251.574,1061.7L251.574,1070.2C251.574,1070.04 251.699,1069.91 251.859,1069.91M251.859,1069.91L234.852,1069.91C235.008,1069.91 235.137,1070.04 235.137,1070.2M235.137,1070.2L235.137,1061.7C235.137,1061.54 235.012,1061.41 234.852,1061.41M234.852,1061.41L217.844,1061.41M217.844,1061.41C217.688,1061.41 217.559,1061.54 217.559,1061.7M217.559,1061.7L217.559,1070.2C217.559,1070.04 217.684,1069.91 217.844,1069.91M217.844,1069.91L200.836,1069.91C200.992,1069.91 201.121,1070.04 201.121,1070.2M201.121,1070.2L201.121,1061.7C201.121,1061.54 200.996,1061.41 200.836,1061.41M200.836,1061.41L183.828,1061.41M183.828,1061.41C183.672,1061.41 183.543,1061.54 183.543,1061.7M183.543,1061.7L183.543,1070.2C183.543,1070.04 183.668,1069.91 183.828,1069.91M183.828,1069.91L166.82,1069.91C166.977,1069.91 167.105,1070.04 167.105,1070.2M167.105,1070.2L167.105,1061.7C167.105,1061.54 166.98,1061.41 166.82,1061.41M166.82,1061.41L149.813,1061.41M149.813,1061.41C149.656,1061.41 149.527,1061.54 149.527,1061.7M149.527,1061.7L149.527,1070.2C149.527,1070.04 149.652,1069.91 149.813,1069.91M149.813,1069.91L132.805,1069.91C132.961,1069.91 133.09,1070.04 133.09,1070.2M133.09,1070.2L133.09,1061.7C133.09,1061.54 132.965,1061.41 132.805,1061.41M132.805,1061.41L115.797,1061.41M115.797,1061.41C115.641,1061.41 115.512,1061.54 115.512,1061.7M115.512,1061.7L115.512,1070.2C115.512,1070.04 115.637,1069.91 115.797,1069.91M115.797,1069.91L98.789,1069.91C98.945,1069.91 99.074,1070.04 99.074,1070.2M99.074,1070.2L99.074,1061.7C99.074,1061.54 98.949,1061.41 98.789,1061.41M98.789,1061.41L81.781,1061.41M81.781,1061.41C81.625,1061.41 81.496,1061.54 81.496,1061.7M81.496,1061.7L81.496,1070.2C81.496,1070.04 81.621,1069.91 81.781,1069.91M81.781,1069.91L64.773,1069.91C64.93,1069.91 65.059,1070.04 65.059,1070.2M65.059,1070.2L65.059,1061.7C65.059,1061.54 64.934,1061.41 64.773,1061.41M64.773,1061.41L47.766,1061.41M47.766,1061.41C47.609,1061.41 47.481,1061.54 47.481,1061.7M47.481,1061.7L47.481,1070.2C47.481,1070.04 47.606,1069.91 47.766,1069.91M47.766,1069.91L30.758,1069.91C30.914,1069.91 31.043,1070.04 31.043,1070.2M31.043,1070.2L31.043,1061.7C31.043,1061.54 30.918,1061.41 30.758,1061.41M30.758,1061.41L10.914,1061.41M10.914,1061.41L2.41,1061.41C2.254,1061.41 2.125,1061.54 2.125,1061.7M2.125,1061.7L2.125,1070.2M2.125,1070.2L2.125,1087.21M2.125,1087.21C2.125,1087.36 2.25,1087.49 2.41,1087.49M2.41,1087.49L10.914,1087.49C10.758,1087.49 10.629,1087.37 10.629,1087.21M10.629,1087.21L10.629,1104.22C10.629,1104.06 10.754,1103.93 10.914,1103.93M10.914,1103.93L2.41,1103.93C2.254,1103.93 2.125,1104.06 2.125,1104.22M2.125,1104.22L2.125,1121.22M2.125,1121.22C2.125,1121.38 2.25,1121.51 2.41,1121.51M2.41,1121.51L10.914,1121.51C10.758,1121.51 10.629,1121.38 10.629,1121.22M10.629,1121.22L10.629,1138.23C10.629,1138.07 10.754,1137.95 10.914,1137.95M10.914,1137.95L2.41,1137.95C2.254,1137.95 2.125,1138.07 2.125,1138.23M2.125,1138.23L2.125,1155.24M2.125,1155.24C2.125,1155.4 2.25,1155.52 2.41,1155.52M2.41,1155.52L10.914,1155.52C10.758,1155.52 10.629,1155.4 10.629,1155.24M10.629,1155.24L10.629,1172.25C10.629,1172.09 10.754,1171.96 10.914,1171.96M10.914,1171.96L2.41,1171.96C2.254,1171.96 2.125,1172.09 2.125,1172.25M2.125,1172.25L2.125,1189.25M2.125,1189.25C2.125,1189.41 2.25,1189.54 2.41,1189.54M2.41,1189.54L10.914,1189.54C10.758,1189.54 10.629,1189.41 10.629,1189.25M10.629,1189.25L10.629,1206.26C10.629,1206.11 10.754,1205.98 10.914,1205.98M10.914,1205.98L2.41,1205.98C2.254,1205.98 2.125,1206.1 2.125,1206.26M2.125,1206.26L2.125,1223.27M2.125,1223.27C2.125,1223.43 2.25,1223.56 2.41,1223.56M2.41,1223.56L10.914,1223.56C10.758,1223.56 10.629,1223.43 10.629,1223.27M10.629,1223.27L10.629,1240.28C10.629,1240.12 10.754,1239.99 10.914,1239.99M10.914,1239.99L2.41,1239.99C2.254,1239.99 2.125,1240.12 2.125,1240.28M2.125,1240.28L2.125,1257.29M2.125,1257.29C2.125,1257.44 2.25,1257.57 2.41,1257.57M2.41,1257.57L10.914,1257.57C10.758,1257.57 10.629,1257.45 10.629,1257.29M10.629,1257.29L10.629,1274.29C10.629,1274.14 10.754,1274.01 10.914,1274.01M10.914,1274.01L2.41,1274.01C2.254,1274.01 2.125,1274.13 2.125,1274.29M2.125,1274.29L2.125,1291.3M2.125,1291.3C2.125,1291.46 2.25,1291.59 2.41,1291.59M2.41,1291.59L10.914,1291.59C10.758,1291.59 10.629,1291.46 10.629,1291.3M10.629,1291.3L10.629,1308.31C10.629,1308.15 10.754,1308.02 10.914,1308.02M10.914,1308.02L2.41,1308.02C2.254,1308.02 2.125,1308.15 2.125,1308.31M2.125,1308.31L2.125,1325.32M2.125,1325.32C2.125,1325.47 2.25,1325.6 2.41,1325.6M2.41,1325.6L10.914,1325.6C10.758,1325.6 10.629,1325.48 10.629,1325.32M10.629,1325.32L10.629,1342.32C10.629,1342.17 10.754,1342.04 10.914,1342.04M10.914,1342.04L2.41,1342.04C2.254,1342.04 2.125,1342.16 2.125,1342.32M2.125,1342.32L2.125,1359.33M2.125,1359.33C2.125,1359.49 2.25,1359.62 2.41,1359.62M2.41,1359.62L10.914,1359.62C10.758,1359.62 10.629,1359.49 10.629,1359.33M10.629,1359.33L10.629,1376.34C10.629,1376.18 10.754,1376.06 10.914,1376.06M10.914,1376.06L2.41,1376.06C2.254,1376.06 2.125,1376.18 2.125,1376.34M2.125,1376.34L2.125,1393.35M2.125,1393.35C2.125,1393.5 2.25,1393.63 2.41,1393.63M2.41,1393.63L10.914,1393.63C10.758,1393.63 10.629,1393.51 10.629,1393.35M10.629,1393.35L10.629,1410.36C10.629,1410.2 10.754,1410.07 10.914,1410.07M10.914,1410.07L2.41,1410.07C2.254,1410.07 2.125,1410.2 2.125,1410.36M2.125,1410.36L2.125,1427.36M2.125,1427.36C2.125,1427.52 2.25,1427.65 2.41,1427.65M2.41,1427.65L10.914,1427.65C10.758,1427.65 10.629,1427.52 10.629,1427.36M10.629,1427.36L10.629,1444.37C10.629,1444.22 10.754,1444.09 10.914,1444.09M10.914,1444.09L2.41,1444.09C2.254,1444.09 2.125,1444.21 2.125,1444.37M2.125,1444.37L2.125,1461.38M2.125,1461.38C2.125,1461.54 2.25,1461.66 2.41,1461.66M2.41,1461.66L10.914,1461.66C10.758,1461.66 10.629,1461.54 10.629,1461.38M10.629,1461.38L10.629,1478.39C10.629,1478.23 10.754,1478.1 10.914,1478.1M10.914,1478.1L2.41,1478.1C2.254,1478.1 2.125,1478.23 2.125,1478.39M2.125,1478.39L2.125,1495.4M2.125,1495.4C2.125,1495.55 2.25,1495.68 2.41,1495.68M2.41,1495.68L10.914,1495.68C10.758,1495.68 10.629,1495.56 10.629,1495.4M10.629,1495.4L10.629,1512.4C10.629,1512.25 10.754,1512.12 10.914,1512.12M10.914,1512.12L2.41,1512.12C2.254,1512.12 2.125,1512.24 2.125,1512.4M2.125,1512.4L2.125,1529.41M2.125,1529.41C2.125,1529.57 2.25,1529.7 2.41,1529.7M2.41,1529.7L10.914,1529.7C10.758,1529.7 10.629,1529.57 10.629,1529.41M10.629,1529.41L10.629,1546.42C10.629,1546.26 10.754,1546.13 10.914,1546.13M10.914,1546.13L2.41,1546.13C2.254,1546.13 2.125,1546.26 2.125,1546.42M2.125,1546.42L2.125,1563.43M2.125,1563.43C2.125,1563.58 2.25,1563.71 2.41,1563.71M2.41,1563.71L10.914,1563.71C10.758,1563.71 10.629,1563.59 10.629,1563.43M10.629,1563.43L10.629,1580.43C10.629,1580.28 10.754,1580.15 10.914,1580.15M10.914,1580.15L2.41,1580.15C2.254,1580.15 2.125,1580.27 2.125,1580.43M2.125,1580.43L2.125,1597.44M2.125,1597.44C2.125,1597.6 2.25,1597.73 2.41,1597.73M2.41,1597.73L10.914,1597.73C10.758,1597.73 10.629,1597.6 10.629,1597.44M10.629,1597.44L10.629,1614.45C10.629,1614.29 10.754,1614.16 10.914,1614.16M10.914,1614.16L2.41,1614.16C2.254,1614.16 2.125,1614.29 2.125,1614.45M2.125,1614.45L2.125,1631.46M2.125,1631.46C2.125,1631.61 2.25,1631.74 2.41,1631.74M2.41,1631.74L10.914,1631.74C10.758,1631.74 10.629,1631.62 10.629,1631.46M10.629,1631.46L10.629,1648.47C10.629,1648.31 10.754,1648.18 10.914,1648.18M10.914,1648.18L2.41,1648.18C2.254,1648.18 2.125,1648.31 2.125,1648.47M2.125,1648.47L2.125,1665.47M2.125,1665.47C2.125,1665.63 2.25,1665.76 2.41,1665.76M2.41,1665.76L10.914,1665.76C10.758,1665.76 10.629,1665.63 10.629,1665.47M10.629,1665.47L10.629,1682.48C10.629,1682.32 10.754,1682.2 10.914,1682.2M10.914,1682.2L2.41,1682.2C2.254,1682.2 2.125,1682.32 2.125,1682.48M2.125,1682.48L2.125,1699.49M2.125,1699.49C2.125,1699.65 2.25,1699.77 2.41,1699.77M2.41,1699.77L10.914,1699.77C10.758,1699.77 10.629,1699.65 10.629,1699.49M10.629,1699.49L10.629,1716.5C10.629,1716.34 10.754,1716.21 10.914,1716.21M10.914,1716.21L2.41,1716.21C2.254,1716.21 2.125,1716.34 2.125,1716.5M2.125,1716.5L2.125,1733.5M2.125,1733.5C2.125,1733.66 2.25,1733.79 2.41,1733.79M2.41,1733.79L10.914,1733.79C10.758,1733.79 10.629,1733.66 10.629,1733.5M10.629,1733.5L10.629,1750.51C10.629,1750.36 10.754,1750.23 10.914,1750.23M10.914,1750.23L2.41,1750.23C2.254,1750.23 2.125,1750.35 2.125,1750.51M2.125,1750.51L2.125,1767.52M2.125,1767.52C2.125,1767.68 2.25,1767.81 2.41,1767.81M2.41,1767.81L10.914,1767.81C10.758,1767.81 10.629,1767.68 10.629,1767.52M10.629,1767.52L10.629,1784.53C10.629,1784.37 10.754,1784.24 10.914,1784.24M10.914,1784.24L2.41,1784.24C2.254,1784.24 2.125,1784.37 2.125,1784.53M2.125,1784.53L2.125,1801.54M2.125,1801.54C2.125,1801.69 2.25,1801.82 2.41,1801.82M2.41,1801.82L10.914,1801.82C10.758,1801.82 10.629,1801.7 10.629,1801.54M10.629,1801.54L10.629,1818.54C10.629,1818.39 10.754,1818.26 10.914,1818.26M10.914,1818.26L2.41,1818.26C2.254,1818.26 2.125,1818.38 2.125,1818.54M2.125,1818.54L2.125,1835.55M2.125,1835.55C2.125,1835.71 2.25,1835.84 2.41,1835.84M2.41,1835.84L10.914,1835.84C10.758,1835.84 10.629,1835.71 10.629,1835.55M10.629,1835.55L10.629,1852.56C10.629,1852.4 10.754,1852.27 10.914,1852.27M10.914,1852.27L2.41,1852.27C2.254,1852.27 2.125,1852.4 2.125,1852.56M2.125,1852.56L2.125,1869.57M2.125,1869.57C2.125,1869.72 2.25,1869.85 2.41,1869.85M2.41,1869.85L10.914,1869.85C10.758,1869.85 10.629,1869.73 10.629,1869.57M10.629,1869.57L10.629,1886.57C10.629,1886.42 10.754,1886.29 10.914,1886.29M10.914,1886.29L2.41,1886.29C2.254,1886.29 2.125,1886.41 2.125,1886.57M2.125,1886.57L2.125,1903.58M2.125,1903.58C2.125,1903.74 2.25,1903.87 2.41,1903.87M2.41,1903.87L10.914,1903.87C10.758,1903.87 10.629,1903.74 10.629,1903.58M10.629,1903.58L10.629,1920.59C10.629,1920.43 10.754,1920.31 10.914,1920.31M10.914,1920.31L2.41,1920.31C2.254,1920.31 2.125,1920.43 2.125,1920.59M2.125,1920.59L2.125,1937.6M2.125,1937.6C2.125,1937.75 2.25,1937.88 2.41,1937.88M2.41,1937.88L10.914,1937.88C10.758,1937.88 10.629,1937.76 10.629,1937.6M10.629,1937.6L10.629,1954.61C10.629,1954.45 10.754,1954.32 10.914,1954.32M10.914,1954.32L2.41,1954.32C2.254,1954.32 2.125,1954.45 2.125,1954.61M2.125,1954.61L2.125,1971.61M2.125,1971.61C2.125,1971.77 2.25,1971.9 2.41,1971.9M2.41,1971.9L10.914,1971.9C10.758,1971.9 10.629,1971.77 10.629,1971.61M10.629,1971.61L10.629,1988.62C10.629,1988.47 10.754,1988.34 10.914,1988.34M10.914,1988.34L2.41,1988.34C2.254,1988.34 2.125,1988.46 2.125,1988.62M2.125,1988.62L2.125,2005.63M2.125,2005.63C2.125,2005.79 2.25,2005.91 2.41,2005.91M2.41,2005.91L10.914,2005.91C10.758,2005.91 10.629,2005.79 10.629,2005.63M10.629,2005.63L10.629,2022.64C10.629,2022.48 10.754,2022.35 10.914,2022.35M10.914,2022.35L2.41,2022.35C2.254,2022.35 2.125,2022.48 2.125,2022.64M2.125,2022.64L2.125,2039.65M2.125,2039.65C2.125,2039.8 2.25,2039.93 2.41,2039.93M2.41,2039.93L10.914,2039.93C10.758,2039.93 10.629,2039.81 10.629,2039.65M10.629,2039.65L10.629,2056.65C10.629,2056.5 10.754,2056.37 10.914,2056.37M10.914,2056.37L2.41,2056.37C2.254,2056.37 2.125,2056.49 2.125,2056.65M2.125,2056.65L2.125,2073.66M2.125,2073.66L2.125,2082.16C2.125,2082.32 2.25,2082.45 2.41,2082.45M2.41,2082.45L10.914,2082.45" style="fill:none;stroke:black;stroke-width:0.14px;"/>
    </g>
    <g transform="matrix(1,0,0,1,-354.331,-81.4961)">
        <g transform="matrix(0.775,0,0,0.909091,102.756,32.2119)">
            <rect x="1062.99" y="354.331" width="47.244" height="259.843" style="fill:none;stroke:rgb(255,0,0);stroke-width:0.49px;stroke-linecap:round;stroke-linejoin:round;stroke-miterlimit:1.5;"/>
        </g>
        <g transform="matrix(0.775,0,0,0.909091,102.756,788.117)">
            <rect x="1062.99" y="354.331" width="47.244" height="259.843" style="fill:none;stroke:rgb(255,0,0);stroke-width:0.49px;stroke-linecap:round;stroke-linejoin:round;stroke-miterlimit:1.5;"/>
        </g>
    </g>
    <g transform="matrix(1,0,0,1,118.11,-81.4961)">
        <g transform="matrix(0.775,0,0,0.909091,102.756,32.2119)">
            <rect x="1062.99" y="354.331" width="47.244" height="259.843" style="fill:none;stroke:rgb(255,0,0);stroke-width:0.49px;stroke-linecap:round;stroke-linejoin:round;stroke-miterlimit:1.5;"/>
        </g>
        <g transform="matrix(0.775,0,0,0.909091,102.756,788.117)">
            <rect x="1062.99" y="354.331" width="47.244" height="259.843" style="fill:none;stroke:rgb(255,0,0);stroke-width:0.49px;stroke-linecap:round;stroke-linejoin:round;stroke-miterlimit:1.5;"/>
        </g>
    </g>
    <g transform="matrix(1,0,0,1,2698.23,-81.4961)">
        <g transform="matrix(0.775,0,0,0.909091,102.756,32.2119)">
            <rect x="1062.99" y="354.331" width="47.244" height="259.843" style="fill:none;stroke:rgb(255,0,0);stroke-width:0.49px;stroke-linecap:round;stroke-linejoin:round;stroke-miterlimit:1.5;"/>
        </g>
        <g transform="matrix(0.775,0,0,0.909091,102.756,788.117)">
            <rect x="1062.99" y="354.331" width="47.244" height="259.843" style="fill:none;stroke:rgb(255,0,0);stroke-width:0.49px;stroke-linecap:round;stroke-linejoin:round;stroke-miterlimit:1.5;"/>
        </g>
    </g>
    <g transform="matrix(1,0,0,1,2692.91,1286.22)">
        <g transform="matrix(0.775,0,0,0.909091,102.756,32.2119)">
            <rect x="1062.99" y="354.331" width="47.244" height="259.843" style="fill:none;stroke:rgb(255,0,0);stroke-width:0.49px;stroke-linecap:round;stroke-linejoin:round;stroke-miterlimit:1.5;"/>
        </g>
        <g transform="matrix(0.775,0,0,0.909091,102.756,788.117)">
            <rect x="1062.99" y="354.331" width="47.244" height="259.843" style="fill:none;stroke:rgb(255,0,0);stroke-width:0.49px;stroke-linecap:round;stroke-linejoin:round;stroke-miterlimit:1.5;"/>
        </g>
    </g>
    <g transform="matrix(1,0,0,1,-354.331,1286.22)">
        <g transform="matrix(0.775,0,0,0.909091,102.756,32.2119)">
            <rect x="1062.99" y="354.331" width="47.244" height="259.843" style="fill:none;stroke:rgb(255,0,0);stroke-width:0.49px;stroke-linecap:round;stroke-linejoin:round;stroke-miterlimit:1.5;"/>
        </g>
        <g transform="matrix(0.775,0,0,0.909091,102.756,788.117)">
            <rect x="1062.99" y="354.331" width="47.244" height="259.843" style="fill:none;stroke:rgb(255,0,0);stroke-width:0.49px;stroke-linecap:round;stroke-linejoin:round;stroke-miterlimit:1.5;"/>
        </g>
    </g>
    <g transform="matrix(1,0,0,1,118.11,1286.22)">
        <g transform="matrix(0.775,0,0,0.909091,102.756,32.2119)">
            <rect x="1062.99" y="354.331" width="47.244" height="259.843" style="fill:none;stroke:rgb(255,0,0);stroke-width:0.49px;stroke-linecap:round;stroke-linejoin:round;stroke-miterlimit:1.5;"/>
        </g>
        <g transform="matrix(0.775,0,0,0.909091,102.756,788.117)">
            <rect x="1062.99" y="354.331" width="47.244" height="259.843" style="fill:none;stroke:rgb(255,0,0);stroke-width:0.49px;stroke-linecap:round;stroke-linejoin:round;stroke-miterlimit:1.5;"/>
        </g>
    </g>
</svg>
