<?xml version="1.0" encoding="UTF-8" standalone="no"?>
<!DOCTYPE svg PUBLIC "-//W3C//DTD SVG 1.1//EN" "http://www.w3.org/Graphics/SVG/1.1/DTD/svg11.dtd">
<svg width="100%" height="100%" viewBox="0 0 6000 3600" version="1.1" xmlns="http://www.w3.org/2000/svg" xmlns:xlink="http://www.w3.org/1999/xlink" xml:space="preserve" xmlns:serif="http://www.serif.com/" style="fill-rule:evenodd;clip-rule:evenodd;stroke-linecap:round;stroke-linejoin:round;stroke-miterlimit:1.5;">
    <g transform="matrix(1,0,0,1,-7.32747e-14,-354.331)">
        <path d="M118.11,472.441L1346.46,472.441" style="fill:none;stroke:rgb(0,0,255);stroke-width:4.17px;"/>
    </g>
    <g transform="matrix(1,0,0,1,-7.32747e-14,118.11)">
        <path d="M118.11,472.441L1346.46,472.441" style="fill:none;stroke:rgb(0,0,255);stroke-width:4.17px;"/>
    </g>
    <g transform="matrix(1,0,0,1,-7.32747e-14,590.551)">
        <path d="M118.11,472.441L1346.46,472.441" style="fill:none;stroke:rgb(0,0,255);stroke-width:4.17px;"/>
    </g>
    <path d="M118.11,118.11L118.11,1062.99" style="fill:none;stroke:rgb(0,0,255);stroke-width:4.17px;"/>
    <g transform="matrix(1,0,0,1,-35.4331,-2.84217e-14)">
        <path d="M1381.89,118.11L1381.89,1062.99" style="fill:none;stroke:rgb(0,0,255);stroke-width:4.17px;"/>
    </g>
    <g transform="matrix(1,0,0,1,-141.732,5.90551)">
        <g transform="matrix(1.2093,0,0,1,-54.3856,0)">
            <path d="M259.843,803.15L767.717,803.15" style="fill:none;stroke:rgb(0,0,255);stroke-width:3.76px;"/>
        </g>
        <g transform="matrix(1.2093,0,0,1,-54.3856,35.4331)">
            <path d="M259.843,803.15L767.717,803.15" style="fill:none;stroke:rgb(0,0,255);stroke-width:3.76px;"/>
        </g>
        <g transform="matrix(1,0,0,1,-17.7165,0)">
            <path d="M891.732,803.15L891.732,838.583" style="fill:none;stroke:rgb(0,0,255);stroke-width:4.17px;"/>
        </g>
    </g>
    <g transform="matrix(-1,0,0,1,1606.3,-466.535)">
        <g transform="matrix(1.2093,0,0,1,-54.3856,0)">
            <path d="M259.843,803.15L767.717,803.15" style="fill:none;stroke:rgb(0,0,255);stroke-width:3.76px;"/>
        </g>
        <g transform="matrix(1.2093,0,0,1,-54.3856,35.4331)">
            <path d="M259.843,803.15L767.717,803.15" style="fill:none;stroke:rgb(0,0,255);stroke-width:3.76px;"/>
        </g>
        <g transform="matrix(1,0,0,1,-17.7165,0)">
            <path d="M891.732,803.15L891.732,838.583" style="fill:none;stroke:rgb(0,0,255);stroke-width:4.17px;"/>
        </g>
    </g>
</svg>
