<?xml version="1.0" encoding="UTF-8" standalone="no"?>
<!DOCTYPE svg PUBLIC "-//W3C//DTD SVG 1.1//EN" "http://www.w3.org/Graphics/SVG/1.1/DTD/svg11.dtd">
<svg width="100%" height="100%" viewBox="0 0 6000 3600" version="1.1" xmlns="http://www.w3.org/2000/svg" xmlns:xlink="http://www.w3.org/1999/xlink" xml:space="preserve" xmlns:serif="http://www.serif.com/" style="fill-rule:evenodd;clip-rule:evenodd;stroke-miterlimit:10;">
    <g transform="matrix(4.16662,0,0,4.16662,109.256,-8576.37)">
        <path d="M10.914,2801.61L30.758,2801.61M30.758,2801.61C30.602,2801.61 30.473,2801.48 30.473,2801.32M30.473,2801.32L30.473,2809.83C30.473,2809.98 30.598,2810.11 30.758,2810.11M30.758,2810.11L47.766,2810.11C47.922,2810.11 48.051,2809.99 48.051,2809.83M48.051,2809.83L48.051,2801.32C48.051,2801.48 47.926,2801.61 47.766,2801.61M47.766,2801.61L64.773,2801.61M64.773,2801.61C64.617,2801.61 64.488,2801.48 64.488,2801.32M64.488,2801.32L64.488,2809.83C64.488,2809.98 64.613,2810.11 64.773,2810.11M64.773,2810.11L81.781,2810.11C81.938,2810.11 82.066,2809.99 82.066,2809.83M82.066,2809.83L82.066,2801.32C82.066,2801.48 81.941,2801.61 81.781,2801.61M81.781,2801.61L98.789,2801.61M98.789,2801.61C98.633,2801.61 98.504,2801.48 98.504,2801.32M98.504,2801.32L98.504,2809.83C98.504,2809.98 98.629,2810.11 98.789,2810.11M98.789,2810.11L115.797,2810.11C115.953,2810.11 116.082,2809.99 116.082,2809.83M116.082,2809.83L116.082,2801.32C116.082,2801.48 115.957,2801.61 115.797,2801.61M115.797,2801.61L132.805,2801.61M132.805,2801.61C132.648,2801.61 132.52,2801.48 132.52,2801.32M132.52,2801.32L132.52,2809.83C132.52,2809.98 132.645,2810.11 132.805,2810.11M132.805,2810.11L149.813,2810.11C149.969,2810.11 150.098,2809.99 150.098,2809.83M150.098,2809.83L150.098,2801.32C150.098,2801.48 149.973,2801.61 149.813,2801.61M149.813,2801.61L166.82,2801.61M166.82,2801.61C166.664,2801.61 166.535,2801.48 166.535,2801.32M166.535,2801.32L166.535,2809.83C166.535,2809.98 166.66,2810.11 166.82,2810.11M166.82,2810.11L183.828,2810.11C183.984,2810.11 184.113,2809.99 184.113,2809.83M184.113,2809.83L184.113,2801.32C184.113,2801.48 183.988,2801.61 183.828,2801.61M183.828,2801.61L200.836,2801.61M200.836,2801.61C200.68,2801.61 200.551,2801.48 200.551,2801.32M200.551,2801.32L200.551,2809.83C200.551,2809.98 200.676,2810.11 200.836,2810.11M200.836,2810.11L217.844,2810.11C218,2810.11 218.129,2809.99 218.129,2809.83M218.129,2809.83L218.129,2801.32C218.129,2801.48 218.004,2801.61 217.844,2801.61M217.844,2801.61L234.852,2801.61M234.852,2801.61C234.695,2801.61 234.566,2801.48 234.566,2801.32M234.566,2801.32L234.566,2809.83C234.566,2809.98 234.691,2810.11 234.852,2810.11M234.852,2810.11L251.859,2810.11C252.016,2810.11 252.145,2809.99 252.145,2809.83M252.145,2809.83L252.145,2801.32C252.145,2801.48 252.02,2801.61 251.859,2801.61M251.859,2801.61L268.867,2801.61M268.867,2801.61C268.711,2801.61 268.582,2801.48 268.582,2801.32M268.582,2801.32L268.582,2809.83C268.582,2809.98 268.707,2810.11 268.867,2810.11M268.867,2810.11L285.875,2810.11C286.031,2810.11 286.16,2809.99 286.16,2809.83M286.16,2809.83L286.16,2801.32C286.16,2801.48 286.035,2801.61 285.875,2801.61M285.875,2801.61L305.719,2801.61M305.719,2801.61C305.875,2801.61 306.004,2801.48 306.004,2801.32M306.004,2801.32L306.004,2780.06M306.004,2780.06C306.004,2780.22 305.879,2780.35 305.719,2780.35M305.719,2780.35L314.223,2780.35C314.379,2780.35 314.508,2780.22 314.508,2780.06M314.508,2780.06L314.508,2763.05C314.508,2762.9 314.383,2762.77 314.223,2762.77M314.223,2762.77L305.719,2762.77C305.875,2762.77 306.004,2762.89 306.004,2763.05M306.004,2763.05L306.004,2746.04M306.004,2746.04C306.004,2746.2 305.879,2746.33 305.719,2746.33M305.719,2746.33L314.223,2746.33C314.379,2746.33 314.508,2746.2 314.508,2746.04M314.508,2746.04L314.508,2729.04C314.508,2728.88 314.383,2728.75 314.223,2728.75M314.223,2728.75L305.719,2728.75C305.875,2728.75 306.004,2728.88 306.004,2729.04M306.004,2729.04L306.004,2712.03M306.004,2712.03C306.004,2712.18 305.879,2712.31 305.719,2712.31M305.719,2712.31L314.223,2712.31C314.379,2712.31 314.508,2712.19 314.508,2712.03M314.508,2712.03L314.508,2695.02C314.508,2694.86 314.383,2694.74 314.223,2694.74M314.223,2694.74L305.719,2694.74C305.875,2694.74 306.004,2694.86 306.004,2695.02M306.004,2695.02L306.004,2678.01M306.004,2678.01C306.004,2678.17 305.879,2678.3 305.719,2678.3M305.719,2678.3L314.223,2678.3C314.379,2678.3 314.508,2678.17 314.508,2678.01M314.508,2678.01L314.508,2661.01C314.508,2660.85 314.383,2660.72 314.223,2660.72M314.223,2660.72L305.719,2660.72C305.875,2660.72 306.004,2660.85 306.004,2661.01M306.004,2661.01L306.004,2644M306.004,2644C306.004,2644.15 305.879,2644.28 305.719,2644.28M305.719,2644.28L314.223,2644.28C314.379,2644.28 314.508,2644.16 314.508,2644M314.508,2644L314.508,2626.99C314.508,2626.83 314.383,2626.7 314.223,2626.7M314.223,2626.7L305.719,2626.7C305.875,2626.7 306.004,2626.83 306.004,2626.99M306.004,2626.99L306.004,2609.98M306.004,2609.98C306.004,2610.14 305.879,2610.27 305.719,2610.27M305.719,2610.27L314.223,2610.27C314.379,2610.27 314.508,2610.14 314.508,2609.98M314.508,2609.98L314.508,2592.97C314.508,2592.82 314.383,2592.69 314.223,2592.69M314.223,2592.69L305.719,2592.69C305.875,2592.69 306.004,2592.81 306.004,2592.97M306.004,2592.97L306.004,2575.97M306.004,2575.97C306.004,2576.12 305.879,2576.25 305.719,2576.25M305.719,2576.25L314.223,2576.25C314.379,2576.25 314.508,2576.13 314.508,2575.97M314.508,2575.97L314.508,2558.96C314.508,2558.8 314.383,2558.67 314.223,2558.67M314.223,2558.67L305.719,2558.67C305.875,2558.67 306.004,2558.8 306.004,2558.96M306.004,2558.96L306.004,2541.95M306.004,2541.95C306.004,2542.11 305.879,2542.24 305.719,2542.24M305.719,2542.24L314.223,2542.24C314.379,2542.24 314.508,2542.11 314.508,2541.95M314.508,2541.95L314.508,2524.94C314.508,2524.79 314.383,2524.66 314.223,2524.66M314.223,2524.66L305.719,2524.66C305.875,2524.66 306.004,2524.78 306.004,2524.94M306.004,2524.94L306.004,2507.93M306.004,2507.93C306.004,2508.09 305.879,2508.22 305.719,2508.22M305.719,2508.22L314.223,2508.22C314.379,2508.22 314.508,2508.1 314.508,2507.93M314.508,2507.93L314.508,2490.93C314.508,2490.77 314.383,2490.64 314.223,2490.64M314.223,2490.64L305.719,2490.64C305.875,2490.64 306.004,2490.77 306.004,2490.93M306.004,2490.93L306.004,2473.92M306.004,2473.92C306.004,2474.08 305.879,2474.2 305.719,2474.2M305.719,2474.2L314.223,2474.2C314.379,2474.2 314.508,2474.08 314.508,2473.92M314.508,2473.92L314.508,2456.91C314.508,2456.76 314.383,2456.63 314.223,2456.63M314.223,2456.63L305.719,2456.63C305.875,2456.63 306.004,2456.75 306.004,2456.91M306.004,2456.91L306.004,2439.9M306.004,2439.9C306.004,2440.06 305.879,2440.19 305.719,2440.19M305.719,2440.19L314.223,2440.19C314.379,2440.19 314.508,2440.06 314.508,2439.9M314.508,2439.9L314.508,2422.9C314.508,2422.74 314.383,2422.61 314.223,2422.61M314.223,2422.61L305.719,2422.61C305.875,2422.61 306.004,2422.74 306.004,2422.9M306.004,2422.9L306.004,2405.89M306.004,2405.89C306.004,2406.04 305.879,2406.17 305.719,2406.17M305.719,2406.17L314.223,2406.17C314.379,2406.17 314.508,2406.05 314.508,2405.89M314.508,2405.89L314.508,2388.88C314.508,2388.72 314.383,2388.6 314.223,2388.6M314.223,2388.6L305.719,2388.6C305.875,2388.6 306.004,2388.72 306.004,2388.88M306.004,2388.88L306.004,2371.87M306.004,2371.87C306.004,2372.03 305.879,2372.16 305.719,2372.16M305.719,2372.16L314.223,2372.16C314.379,2372.16 314.508,2372.03 314.508,2371.87M314.508,2371.87L314.508,2354.86C314.508,2354.71 314.383,2354.58 314.223,2354.58M314.223,2354.58L305.719,2354.58C305.875,2354.58 306.004,2354.7 306.004,2354.86M306.004,2354.86L306.004,2337.86M306.004,2337.86C306.004,2338.01 305.879,2338.14 305.719,2338.14M305.719,2338.14L314.223,2338.14C314.379,2338.14 314.508,2338.02 314.508,2337.86M314.508,2337.86L314.508,2320.85C314.508,2320.69 314.383,2320.56 314.223,2320.56M314.223,2320.56L305.719,2320.56C305.875,2320.56 306.004,2320.69 306.004,2320.85M306.004,2320.85L306.004,2303.84M306.004,2303.84C306.004,2304 305.879,2304.13 305.719,2304.13M305.719,2304.13L314.223,2304.13C314.379,2304.13 314.508,2304 314.508,2303.84M314.508,2303.84L314.508,2286.83C314.508,2286.68 314.383,2286.55 314.223,2286.55M314.223,2286.55L305.719,2286.55C305.875,2286.55 306.004,2286.67 306.004,2286.83M306.004,2286.83L306.004,2269.83M306.004,2269.83C306.004,2269.98 305.879,2270.11 305.719,2270.11M305.719,2270.11L314.223,2270.11C314.379,2270.11 314.508,2269.99 314.508,2269.83M314.508,2269.83L314.508,2252.82C314.508,2252.66 314.383,2252.53 314.223,2252.53M314.223,2252.53L305.719,2252.53C305.875,2252.53 306.004,2252.66 306.004,2252.82M306.004,2252.82L306.004,2235.81M306.004,2235.81C306.004,2235.97 305.879,2236.1 305.719,2236.1M305.719,2236.1L314.223,2236.1C314.379,2236.1 314.508,2235.97 314.508,2235.81M314.508,2235.81L314.508,2218.8C314.508,2218.65 314.383,2218.52 314.223,2218.52M314.223,2218.52L305.719,2218.52C305.875,2218.52 306.004,2218.64 306.004,2218.8M306.004,2218.8L306.004,2201.79M306.004,2201.79C306.004,2201.95 305.879,2202.08 305.719,2202.08M305.719,2202.08L314.223,2202.08C314.379,2202.08 314.508,2201.95 314.508,2201.79M314.508,2201.79L314.508,2184.79C314.508,2184.63 314.383,2184.5 314.223,2184.5M314.223,2184.5L305.719,2184.5C305.875,2184.5 306.004,2184.63 306.004,2184.79M306.004,2184.79L306.004,2167.78M306.004,2167.78C306.004,2167.93 305.879,2168.06 305.719,2168.06M305.719,2168.06L314.223,2168.06C314.379,2168.06 314.508,2167.94 314.508,2167.78M314.508,2167.78L314.508,2150.77C314.508,2150.61 314.383,2150.49 314.223,2150.49M314.223,2150.49L305.719,2150.49C305.875,2150.49 306.004,2150.61 306.004,2150.77M306.004,2150.77L306.004,2133.76M306.004,2133.76C306.004,2133.92 305.879,2134.05 305.719,2134.05M305.719,2134.05L314.223,2134.05C314.379,2134.05 314.508,2133.92 314.508,2133.76M314.508,2133.76L314.508,2116.76C314.508,2116.6 314.383,2116.47 314.223,2116.47M314.223,2116.47L305.719,2116.47C305.875,2116.47 306.004,2116.6 306.004,2116.76M306.004,2116.76L306.004,2095.49M306.004,2095.49C306.004,2095.34 305.879,2095.21 305.719,2095.21M305.719,2095.21L285.875,2095.21M285.875,2095.21C286.031,2095.21 286.16,2095.33 286.16,2095.49M286.16,2095.49L286.16,2086.99C286.16,2086.83 286.035,2086.7 285.875,2086.7M285.875,2086.7L268.867,2086.7C268.711,2086.7 268.582,2086.83 268.582,2086.99M268.582,2086.99L268.582,2095.49C268.582,2095.34 268.707,2095.21 268.867,2095.21M268.867,2095.21L251.859,2095.21M251.859,2095.21C252.016,2095.21 252.145,2095.33 252.145,2095.49M252.145,2095.49L252.145,2086.99C252.145,2086.83 252.02,2086.7 251.859,2086.7M251.859,2086.7L234.852,2086.7C234.695,2086.7 234.566,2086.83 234.566,2086.99M234.566,2086.99L234.566,2095.49C234.566,2095.34 234.691,2095.21 234.852,2095.21M234.852,2095.21L217.844,2095.21M217.844,2095.21C218,2095.21 218.129,2095.33 218.129,2095.49M218.129,2095.49L218.129,2086.99C218.129,2086.83 218.004,2086.7 217.844,2086.7M217.844,2086.7L200.836,2086.7C200.68,2086.7 200.551,2086.83 200.551,2086.99M200.551,2086.99L200.551,2095.49C200.551,2095.34 200.676,2095.21 200.836,2095.21M200.836,2095.21L183.828,2095.21M183.828,2095.21C183.984,2095.21 184.113,2095.33 184.113,2095.49M184.113,2095.49L184.113,2086.99C184.113,2086.83 183.988,2086.7 183.828,2086.7M183.828,2086.7L166.82,2086.7C166.664,2086.7 166.535,2086.83 166.535,2086.99M166.535,2086.99L166.535,2095.49C166.535,2095.34 166.66,2095.21 166.82,2095.21M166.82,2095.21L149.813,2095.21M149.813,2095.21C149.969,2095.21 150.098,2095.33 150.098,2095.49M150.098,2095.49L150.098,2086.99C150.098,2086.83 149.973,2086.7 149.813,2086.7M149.813,2086.7L132.805,2086.7C132.648,2086.7 132.52,2086.83 132.52,2086.99M132.52,2086.99L132.52,2095.49C132.52,2095.34 132.645,2095.21 132.805,2095.21M132.805,2095.21L115.797,2095.21M115.797,2095.21C115.953,2095.21 116.082,2095.33 116.082,2095.49M116.082,2095.49L116.082,2086.99C116.082,2086.83 115.957,2086.7 115.797,2086.7M115.797,2086.7L98.789,2086.7C98.633,2086.7 98.504,2086.83 98.504,2086.99M98.504,2086.99L98.504,2095.49C98.504,2095.34 98.629,2095.21 98.789,2095.21M98.789,2095.21L81.781,2095.21M81.781,2095.21C81.938,2095.21 82.066,2095.33 82.066,2095.49M82.066,2095.49L82.066,2086.99C82.066,2086.83 81.941,2086.7 81.781,2086.7M81.781,2086.7L64.773,2086.7C64.617,2086.7 64.488,2086.83 64.488,2086.99M64.488,2086.99L64.488,2095.49C64.488,2095.34 64.613,2095.21 64.773,2095.21M64.773,2095.21L47.766,2095.21M47.766,2095.21C47.922,2095.21 48.051,2095.33 48.051,2095.49M48.051,2095.49L48.051,2086.99C48.051,2086.83 47.926,2086.7 47.766,2086.7M47.766,2086.7L30.758,2086.7C30.602,2086.7 30.473,2086.83 30.473,2086.99M30.473,2086.99L30.473,2095.49C30.473,2095.34 30.598,2095.21 30.758,2095.21M30.758,2095.21L10.914,2095.21M10.914,2095.21C10.758,2095.21 10.629,2095.33 10.629,2095.49M10.629,2095.49L10.629,2116.76M10.629,2116.76C10.629,2116.6 10.754,2116.47 10.914,2116.47M10.914,2116.47L2.41,2116.47C2.254,2116.47 2.125,2116.6 2.125,2116.76M2.125,2116.76L2.125,2133.76C2.125,2133.92 2.25,2134.05 2.41,2134.05M2.41,2134.05L10.914,2134.05C10.758,2134.05 10.629,2133.92 10.629,2133.76M10.629,2133.76L10.629,2150.77M10.629,2150.77C10.629,2150.61 10.754,2150.49 10.914,2150.49M10.914,2150.49L2.41,2150.49C2.254,2150.49 2.125,2150.61 2.125,2150.77M2.125,2150.77L2.125,2167.78C2.125,2167.93 2.25,2168.06 2.41,2168.06M2.41,2168.06L10.914,2168.06C10.758,2168.06 10.629,2167.94 10.629,2167.78M10.629,2167.78L10.629,2184.79M10.629,2184.79C10.629,2184.63 10.754,2184.5 10.914,2184.5M10.914,2184.5L2.41,2184.5C2.254,2184.5 2.125,2184.63 2.125,2184.79M2.125,2184.79L2.125,2201.79C2.125,2201.95 2.25,2202.08 2.41,2202.08M2.41,2202.08L10.914,2202.08C10.758,2202.08 10.629,2201.95 10.629,2201.79M10.629,2201.79L10.629,2218.8M10.629,2218.8C10.629,2218.65 10.754,2218.52 10.914,2218.52M10.914,2218.52L2.41,2218.52C2.254,2218.52 2.125,2218.64 2.125,2218.8M2.125,2218.8L2.125,2235.81C2.125,2235.97 2.25,2236.1 2.41,2236.1M2.41,2236.1L10.914,2236.1C10.758,2236.1 10.629,2235.97 10.629,2235.81M10.629,2235.81L10.629,2252.82M10.629,2252.82C10.629,2252.66 10.754,2252.53 10.914,2252.53M10.914,2252.53L2.41,2252.53C2.254,2252.53 2.125,2252.66 2.125,2252.82M2.125,2252.82L2.125,2269.83C2.125,2269.98 2.25,2270.11 2.41,2270.11M2.41,2270.11L10.914,2270.11C10.758,2270.11 10.629,2269.99 10.629,2269.83M10.629,2269.83L10.629,2286.83M10.629,2286.83C10.629,2286.68 10.754,2286.55 10.914,2286.55M10.914,2286.55L2.41,2286.55C2.254,2286.55 2.125,2286.67 2.125,2286.83M2.125,2286.83L2.125,2303.84C2.125,2304 2.25,2304.13 2.41,2304.13M2.41,2304.13L10.914,2304.13C10.758,2304.13 10.629,2304 10.629,2303.84M10.629,2303.84L10.629,2320.85M10.629,2320.85C10.629,2320.69 10.754,2320.56 10.914,2320.56M10.914,2320.56L2.41,2320.56C2.254,2320.56 2.125,2320.69 2.125,2320.85M2.125,2320.85L2.125,2337.86C2.125,2338.01 2.25,2338.14 2.41,2338.14M2.41,2338.14L10.914,2338.14C10.758,2338.14 10.629,2338.02 10.629,2337.86M10.629,2337.86L10.629,2354.86M10.629,2354.86C10.629,2354.71 10.754,2354.58 10.914,2354.58M10.914,2354.58L2.41,2354.58C2.254,2354.58 2.125,2354.7 2.125,2354.86M2.125,2354.86L2.125,2371.87C2.125,2372.03 2.25,2372.16 2.41,2372.16M2.41,2372.16L10.914,2372.16C10.758,2372.16 10.629,2372.03 10.629,2371.87M10.629,2371.87L10.629,2388.88M10.629,2388.88C10.629,2388.72 10.754,2388.6 10.914,2388.6M10.914,2388.6L2.41,2388.6C2.254,2388.6 2.125,2388.72 2.125,2388.88M2.125,2388.88L2.125,2405.89C2.125,2406.04 2.25,2406.17 2.41,2406.17M2.41,2406.17L10.914,2406.17C10.758,2406.17 10.629,2406.05 10.629,2405.89M10.629,2405.89L10.629,2422.9M10.629,2422.9C10.629,2422.74 10.754,2422.61 10.914,2422.61M10.914,2422.61L2.41,2422.61C2.254,2422.61 2.125,2422.74 2.125,2422.9M2.125,2422.9L2.125,2439.9C2.125,2440.06 2.25,2440.19 2.41,2440.19M2.41,2440.19L10.914,2440.19C10.758,2440.19 10.629,2440.06 10.629,2439.9M10.629,2439.9L10.629,2456.91M10.629,2456.91C10.629,2456.76 10.754,2456.63 10.914,2456.63M10.914,2456.63L2.41,2456.63C2.254,2456.63 2.125,2456.75 2.125,2456.91M2.125,2456.91L2.125,2473.92C2.125,2474.08 2.25,2474.2 2.41,2474.2M2.41,2474.2L10.914,2474.2C10.758,2474.2 10.629,2474.08 10.629,2473.92M10.629,2473.92L10.629,2490.93M10.629,2490.93C10.629,2490.77 10.754,2490.64 10.914,2490.64M10.914,2490.64L2.41,2490.64C2.254,2490.64 2.125,2490.77 2.125,2490.93M2.125,2490.93L2.125,2507.93C2.125,2508.09 2.25,2508.22 2.41,2508.22M2.41,2508.22L10.914,2508.22C10.758,2508.22 10.629,2508.1 10.629,2507.93M10.629,2507.93L10.629,2524.94M10.629,2524.94C10.629,2524.79 10.754,2524.66 10.914,2524.66M10.914,2524.66L2.41,2524.66C2.254,2524.66 2.125,2524.78 2.125,2524.94M2.125,2524.94L2.125,2541.95C2.125,2542.11 2.25,2542.24 2.41,2542.24M2.41,2542.24L10.914,2542.24C10.758,2542.24 10.629,2542.11 10.629,2541.95M10.629,2541.95L10.629,2558.96M10.629,2558.96C10.629,2558.8 10.754,2558.67 10.914,2558.67M10.914,2558.67L2.41,2558.67C2.254,2558.67 2.125,2558.8 2.125,2558.96M2.125,2558.96L2.125,2575.97C2.125,2576.12 2.25,2576.25 2.41,2576.25M2.41,2576.25L10.914,2576.25C10.758,2576.25 10.629,2576.13 10.629,2575.97M10.629,2575.97L10.629,2592.97M10.629,2592.97C10.629,2592.82 10.754,2592.69 10.914,2592.69M10.914,2592.69L2.41,2592.69C2.254,2592.69 2.125,2592.81 2.125,2592.97M2.125,2592.97L2.125,2609.98C2.125,2610.14 2.25,2610.27 2.41,2610.27M2.41,2610.27L10.914,2610.27C10.758,2610.27 10.629,2610.14 10.629,2609.98M10.629,2609.98L10.629,2626.99M10.629,2626.99C10.629,2626.83 10.754,2626.7 10.914,2626.7M10.914,2626.7L2.41,2626.7C2.254,2626.7 2.125,2626.83 2.125,2626.99M2.125,2626.99L2.125,2644C2.125,2644.15 2.25,2644.28 2.41,2644.28M2.41,2644.28L10.914,2644.28C10.758,2644.28 10.629,2644.16 10.629,2644M10.629,2644L10.629,2661.01M10.629,2661.01C10.629,2660.85 10.754,2660.72 10.914,2660.72M10.914,2660.72L2.41,2660.72C2.254,2660.72 2.125,2660.85 2.125,2661.01M2.125,2661.01L2.125,2678.01C2.125,2678.17 2.25,2678.3 2.41,2678.3M2.41,2678.3L10.914,2678.3C10.758,2678.3 10.629,2678.17 10.629,2678.01M10.629,2678.01L10.629,2695.02M10.629,2695.02C10.629,2694.86 10.754,2694.74 10.914,2694.74M10.914,2694.74L2.41,2694.74C2.254,2694.74 2.125,2694.86 2.125,2695.02M2.125,2695.02L2.125,2712.03C2.125,2712.18 2.25,2712.31 2.41,2712.31M2.41,2712.31L10.914,2712.31C10.758,2712.31 10.629,2712.19 10.629,2712.03M10.629,2712.03L10.629,2729.04M10.629,2729.04C10.629,2728.88 10.754,2728.75 10.914,2728.75M10.914,2728.75L2.41,2728.75C2.254,2728.75 2.125,2728.88 2.125,2729.04M2.125,2729.04L2.125,2746.04C2.125,2746.2 2.25,2746.33 2.41,2746.33M2.41,2746.33L10.914,2746.33C10.758,2746.33 10.629,2746.2 10.629,2746.04M10.629,2746.04L10.629,2763.05M10.629,2763.05C10.629,2762.9 10.754,2762.77 10.914,2762.77M10.914,2762.77L2.41,2762.77C2.254,2762.77 2.125,2762.89 2.125,2763.05M2.125,2763.05L2.125,2780.06C2.125,2780.22 2.25,2780.35 2.41,2780.35M2.41,2780.35L10.914,2780.35C10.758,2780.35 10.629,2780.22 10.629,2780.06M10.629,2780.06L10.629,2801.32M10.629,2801.32C10.629,2801.48 10.754,2801.61 10.914,2801.61" style="fill:none;stroke:rgb(0,0,255);stroke-width:0.2px;"/>
    </g>
    <g transform="matrix(4.16662,0,0,4.16662,109.256,-8576.37)">
        <path d="M327.543,2801.61L347.387,2801.61M347.387,2801.61C347.23,2801.61 347.102,2801.48 347.102,2801.32M347.102,2801.32L347.102,2809.83C347.102,2809.98 347.227,2810.11 347.387,2810.11M347.387,2810.11L364.395,2810.11C364.551,2810.11 364.68,2809.99 364.68,2809.83M364.68,2809.83L364.68,2801.32C364.68,2801.48 364.555,2801.61 364.395,2801.61M364.395,2801.61L381.402,2801.61M381.402,2801.61C381.246,2801.61 381.117,2801.48 381.117,2801.32M381.117,2801.32L381.117,2809.83C381.117,2809.98 381.242,2810.11 381.402,2810.11M381.402,2810.11L398.41,2810.11C398.566,2810.11 398.695,2809.99 398.695,2809.83M398.695,2809.83L398.695,2801.32C398.695,2801.48 398.57,2801.61 398.41,2801.61M398.41,2801.61L415.418,2801.61M415.418,2801.61C415.262,2801.61 415.133,2801.48 415.133,2801.32M415.133,2801.32L415.133,2809.83C415.133,2809.98 415.258,2810.11 415.418,2810.11M415.418,2810.11L432.426,2810.11C432.582,2810.11 432.711,2809.99 432.711,2809.83M432.711,2809.83L432.711,2801.32C432.711,2801.48 432.586,2801.61 432.426,2801.61M432.426,2801.61L449.434,2801.61M449.434,2801.61C449.277,2801.61 449.148,2801.48 449.148,2801.32M449.148,2801.32L449.148,2809.83C449.148,2809.98 449.273,2810.11 449.434,2810.11M449.434,2810.11L466.441,2810.11C466.598,2810.11 466.727,2809.99 466.727,2809.83M466.727,2809.83L466.727,2801.32C466.727,2801.48 466.602,2801.61 466.441,2801.61M466.441,2801.61L483.449,2801.61M483.449,2801.61C483.293,2801.61 483.164,2801.48 483.164,2801.32M483.164,2801.32L483.164,2809.83C483.164,2809.98 483.289,2810.11 483.449,2810.11M483.449,2810.11L500.457,2810.11C500.613,2810.11 500.742,2809.99 500.742,2809.83M500.742,2809.83L500.742,2801.32C500.742,2801.48 500.617,2801.61 500.457,2801.61M500.457,2801.61L517.465,2801.61M517.465,2801.61C517.309,2801.61 517.18,2801.48 517.18,2801.32M517.18,2801.32L517.18,2809.83C517.18,2809.98 517.305,2810.11 517.465,2810.11M517.465,2810.11L534.473,2810.11C534.629,2810.11 534.758,2809.99 534.758,2809.83M534.758,2809.83L534.758,2801.32C534.758,2801.48 534.633,2801.61 534.473,2801.61M534.473,2801.61L551.48,2801.61M551.48,2801.61C551.324,2801.61 551.195,2801.48 551.195,2801.32M551.195,2801.32L551.195,2809.83C551.195,2809.98 551.32,2810.11 551.48,2810.11M551.48,2810.11L568.488,2810.11C568.645,2810.11 568.773,2809.99 568.773,2809.83M568.773,2809.83L568.773,2801.32C568.773,2801.48 568.648,2801.61 568.488,2801.61M568.488,2801.61L585.496,2801.61M585.496,2801.61C585.34,2801.61 585.211,2801.48 585.211,2801.32M585.211,2801.32L585.211,2809.83C585.211,2809.98 585.336,2810.11 585.496,2810.11M585.496,2810.11L602.504,2810.11C602.66,2810.11 602.789,2809.99 602.789,2809.83M602.789,2809.83L602.789,2801.32C602.789,2801.48 602.664,2801.61 602.504,2801.61M602.504,2801.61L631.137,2801.61M631.137,2801.61L631.137,2095.2M631.14,2095.2L602.504,2095.21M602.504,2095.21C602.66,2095.21 602.789,2095.33 602.789,2095.49M602.789,2095.49L602.789,2086.99C602.789,2086.83 602.664,2086.7 602.504,2086.7M602.504,2086.7L585.496,2086.7C585.34,2086.7 585.211,2086.83 585.211,2086.99M585.211,2086.99L585.211,2095.49C585.211,2095.34 585.336,2095.21 585.496,2095.21M585.496,2095.21L568.488,2095.21M568.488,2095.21C568.645,2095.21 568.773,2095.33 568.773,2095.49M568.773,2095.49L568.773,2086.99C568.773,2086.83 568.648,2086.7 568.488,2086.7M568.488,2086.7L551.48,2086.7C551.324,2086.7 551.195,2086.83 551.195,2086.99M551.195,2086.99L551.195,2095.49C551.195,2095.34 551.32,2095.21 551.48,2095.21M551.48,2095.21L534.473,2095.21M534.473,2095.21C534.629,2095.21 534.758,2095.33 534.758,2095.49M534.758,2095.49L534.758,2086.99C534.758,2086.83 534.633,2086.7 534.473,2086.7M534.473,2086.7L517.465,2086.7C517.309,2086.7 517.18,2086.83 517.18,2086.99M517.18,2086.99L517.18,2095.49C517.18,2095.34 517.305,2095.21 517.465,2095.21M517.465,2095.21L500.457,2095.21M500.457,2095.21C500.613,2095.21 500.742,2095.33 500.742,2095.49M500.742,2095.49L500.742,2086.99C500.742,2086.83 500.617,2086.7 500.457,2086.7M500.457,2086.7L483.449,2086.7C483.293,2086.7 483.164,2086.83 483.164,2086.99M483.164,2086.99L483.164,2095.49C483.164,2095.34 483.289,2095.21 483.449,2095.21M483.449,2095.21L466.441,2095.21M466.441,2095.21C466.598,2095.21 466.727,2095.33 466.727,2095.49M466.727,2095.49L466.727,2086.99C466.727,2086.83 466.602,2086.7 466.441,2086.7M466.441,2086.7L449.434,2086.7C449.277,2086.7 449.148,2086.83 449.148,2086.99M449.148,2086.99L449.148,2095.49C449.148,2095.34 449.273,2095.21 449.434,2095.21M449.434,2095.21L432.426,2095.21M432.426,2095.21C432.582,2095.21 432.711,2095.33 432.711,2095.49M432.711,2095.49L432.711,2086.99C432.711,2086.83 432.586,2086.7 432.426,2086.7M432.426,2086.7L415.418,2086.7C415.262,2086.7 415.133,2086.83 415.133,2086.99M415.133,2086.99L415.133,2095.49C415.133,2095.34 415.258,2095.21 415.418,2095.21M415.418,2095.21L398.41,2095.21M398.41,2095.21C398.566,2095.21 398.695,2095.33 398.695,2095.49M398.695,2095.49L398.695,2086.99C398.695,2086.83 398.57,2086.7 398.41,2086.7M398.41,2086.7L381.402,2086.7C381.246,2086.7 381.117,2086.83 381.117,2086.99M381.117,2086.99L381.117,2095.49C381.117,2095.34 381.242,2095.21 381.402,2095.21M381.402,2095.21L364.395,2095.21M364.395,2095.21C364.551,2095.21 364.68,2095.33 364.68,2095.49M364.68,2095.49L364.68,2086.99C364.68,2086.83 364.555,2086.7 364.395,2086.7M364.395,2086.7L347.387,2086.7C347.23,2086.7 347.102,2086.83 347.102,2086.99M347.102,2086.99L347.102,2095.49C347.102,2095.34 347.227,2095.21 347.387,2095.21M347.387,2095.21L327.543,2095.21M327.543,2095.21C327.387,2095.21 327.258,2095.33 327.258,2095.49M327.258,2095.49L327.258,2116.76M327.258,2116.76C327.258,2116.6 327.383,2116.47 327.543,2116.47M327.543,2116.47L319.039,2116.47C318.883,2116.47 318.754,2116.6 318.754,2116.76M318.754,2116.76L318.754,2133.76C318.754,2133.92 318.879,2134.05 319.039,2134.05M319.039,2134.05L327.543,2134.05C327.387,2134.05 327.258,2133.92 327.258,2133.76M327.258,2133.76L327.258,2150.77M327.258,2150.77C327.258,2150.61 327.383,2150.49 327.543,2150.49M327.543,2150.49L319.039,2150.49C318.883,2150.49 318.754,2150.61 318.754,2150.77M318.754,2150.77L318.754,2167.78C318.754,2167.93 318.879,2168.06 319.039,2168.06M319.039,2168.06L327.543,2168.06C327.387,2168.06 327.258,2167.94 327.258,2167.78M327.258,2167.78L327.258,2184.79M327.258,2184.79C327.258,2184.63 327.383,2184.5 327.543,2184.5M327.543,2184.5L319.039,2184.5C318.883,2184.5 318.754,2184.63 318.754,2184.79M318.754,2184.79L318.754,2201.79C318.754,2201.95 318.879,2202.08 319.039,2202.08M319.039,2202.08L327.543,2202.08C327.387,2202.08 327.258,2201.95 327.258,2201.79M327.258,2201.79L327.258,2218.8M327.258,2218.8C327.258,2218.65 327.383,2218.52 327.543,2218.52M327.543,2218.52L319.039,2218.52C318.883,2218.52 318.754,2218.64 318.754,2218.8M318.754,2218.8L318.754,2235.81C318.754,2235.97 318.879,2236.1 319.039,2236.1M319.039,2236.1L327.543,2236.1C327.387,2236.1 327.258,2235.97 327.258,2235.81M327.258,2235.81L327.258,2252.82M327.258,2252.82C327.258,2252.66 327.383,2252.53 327.543,2252.53M327.543,2252.53L319.039,2252.53C318.883,2252.53 318.754,2252.66 318.754,2252.82M318.754,2252.82L318.754,2269.83C318.754,2269.98 318.879,2270.11 319.039,2270.11M319.039,2270.11L327.543,2270.11C327.387,2270.11 327.258,2269.99 327.258,2269.83M327.258,2269.83L327.258,2286.83M327.258,2286.83C327.258,2286.68 327.383,2286.55 327.543,2286.55M327.543,2286.55L319.039,2286.55C318.883,2286.55 318.754,2286.67 318.754,2286.83M318.754,2286.83L318.754,2303.84C318.754,2304 318.879,2304.13 319.039,2304.13M319.039,2304.13L327.543,2304.13C327.387,2304.13 327.258,2304 327.258,2303.84M327.258,2303.84L327.258,2320.85M327.258,2320.85C327.258,2320.69 327.383,2320.56 327.543,2320.56M327.543,2320.56L319.039,2320.56C318.883,2320.56 318.754,2320.69 318.754,2320.85M318.754,2320.85L318.754,2337.86C318.754,2338.01 318.879,2338.14 319.039,2338.14M319.039,2338.14L327.543,2338.14C327.387,2338.14 327.258,2338.02 327.258,2337.86M327.258,2337.86L327.258,2354.86M327.258,2354.86C327.258,2354.71 327.383,2354.58 327.543,2354.58M327.543,2354.58L319.039,2354.58C318.883,2354.58 318.754,2354.7 318.754,2354.86M318.754,2354.86L318.754,2371.87C318.754,2372.03 318.879,2372.16 319.039,2372.16M319.039,2372.16L327.543,2372.16C327.387,2372.16 327.258,2372.03 327.258,2371.87M327.258,2371.87L327.258,2388.88M327.258,2388.88C327.258,2388.72 327.383,2388.6 327.543,2388.6M327.543,2388.6L319.039,2388.6C318.883,2388.6 318.754,2388.72 318.754,2388.88M318.754,2388.88L318.754,2405.89C318.754,2406.04 318.879,2406.17 319.039,2406.17M319.039,2406.17L327.543,2406.17C327.387,2406.17 327.258,2406.05 327.258,2405.89M327.258,2405.89L327.258,2422.9M327.258,2422.9C327.258,2422.74 327.383,2422.61 327.543,2422.61M327.543,2422.61L319.039,2422.61C318.883,2422.61 318.754,2422.74 318.754,2422.9M318.754,2422.9L318.754,2439.9C318.754,2440.06 318.879,2440.19 319.039,2440.19M319.039,2440.19L327.543,2440.19C327.387,2440.19 327.258,2440.06 327.258,2439.9M327.258,2439.9L327.258,2456.91M327.258,2456.91C327.258,2456.76 327.383,2456.63 327.543,2456.63M327.543,2456.63L319.039,2456.63C318.883,2456.63 318.754,2456.75 318.754,2456.91M318.754,2456.91L318.754,2473.92C318.754,2474.08 318.879,2474.2 319.039,2474.2M319.039,2474.2L327.543,2474.2C327.387,2474.2 327.258,2474.08 327.258,2473.92M327.258,2473.92L327.258,2490.93M327.258,2490.93C327.258,2490.77 327.383,2490.64 327.543,2490.64M327.543,2490.64L319.039,2490.64C318.883,2490.64 318.754,2490.77 318.754,2490.93M318.754,2490.93L318.754,2507.93C318.754,2508.09 318.879,2508.22 319.039,2508.22M319.039,2508.22L327.543,2508.22C327.387,2508.22 327.258,2508.1 327.258,2507.93M327.258,2507.93L327.258,2524.94M327.258,2524.94C327.258,2524.79 327.383,2524.66 327.543,2524.66M327.543,2524.66L319.039,2524.66C318.883,2524.66 318.754,2524.78 318.754,2524.94M318.754,2524.94L318.754,2541.95C318.754,2542.11 318.879,2542.24 319.039,2542.24M319.039,2542.24L327.543,2542.24C327.387,2542.24 327.258,2542.11 327.258,2541.95M327.258,2541.95L327.258,2558.96M327.258,2558.96C327.258,2558.8 327.383,2558.67 327.543,2558.67M327.543,2558.67L319.039,2558.67C318.883,2558.67 318.754,2558.8 318.754,2558.96M318.754,2558.96L318.754,2575.97C318.754,2576.12 318.879,2576.25 319.039,2576.25M319.039,2576.25L327.543,2576.25C327.387,2576.25 327.258,2576.13 327.258,2575.97M327.258,2575.97L327.258,2592.97M327.258,2592.97C327.258,2592.82 327.383,2592.69 327.543,2592.69M327.543,2592.69L319.039,2592.69C318.883,2592.69 318.754,2592.81 318.754,2592.97M318.754,2592.97L318.754,2609.98C318.754,2610.14 318.879,2610.27 319.039,2610.27M319.039,2610.27L327.543,2610.27C327.387,2610.27 327.258,2610.14 327.258,2609.98M327.258,2609.98L327.258,2626.99M327.258,2626.99C327.258,2626.83 327.383,2626.7 327.543,2626.7M327.543,2626.7L319.039,2626.7C318.883,2626.7 318.754,2626.83 318.754,2626.99M318.754,2626.99L318.754,2644C318.754,2644.15 318.879,2644.28 319.039,2644.28M319.039,2644.28L327.543,2644.28C327.387,2644.28 327.258,2644.16 327.258,2644M327.258,2644L327.258,2661.01M327.258,2661.01C327.258,2660.85 327.383,2660.72 327.543,2660.72M327.543,2660.72L319.039,2660.72C318.883,2660.72 318.754,2660.85 318.754,2661.01M318.754,2661.01L318.754,2678.01C318.754,2678.17 318.879,2678.3 319.039,2678.3M319.039,2678.3L327.543,2678.3C327.387,2678.3 327.258,2678.17 327.258,2678.01M327.258,2678.01L327.258,2695.02M327.258,2695.02C327.258,2694.86 327.383,2694.74 327.543,2694.74M327.543,2694.74L319.039,2694.74C318.883,2694.74 318.754,2694.86 318.754,2695.02M318.754,2695.02L318.754,2712.03C318.754,2712.18 318.879,2712.31 319.039,2712.31M319.039,2712.31L327.543,2712.31C327.387,2712.31 327.258,2712.19 327.258,2712.03M327.258,2712.03L327.258,2729.04M327.258,2729.04C327.258,2728.88 327.383,2728.75 327.543,2728.75M327.543,2728.75L319.039,2728.75C318.883,2728.75 318.754,2728.88 318.754,2729.04M318.754,2729.04L318.754,2746.04C318.754,2746.2 318.879,2746.33 319.039,2746.33M319.039,2746.33L327.543,2746.33C327.387,2746.33 327.258,2746.2 327.258,2746.04M327.258,2746.04L327.258,2763.05M327.258,2763.05C327.258,2762.9 327.383,2762.77 327.543,2762.77M327.543,2762.77L319.039,2762.77C318.883,2762.77 318.754,2762.89 318.754,2763.05M318.754,2763.05L318.754,2780.06C318.754,2780.22 318.879,2780.35 319.039,2780.35M319.039,2780.35L327.543,2780.35C327.387,2780.35 327.258,2780.22 327.258,2780.06M327.258,2780.06L327.258,2801.32M327.258,2801.32C327.258,2801.48 327.383,2801.61 327.543,2801.61" style="fill:none;stroke:rgb(0,0,255);stroke-width:0.2px;"/>
    </g>
    <g transform="matrix(1,0,0,1,-354.331,-82.6772)">
        <g>
            <g>
                <g transform="matrix(0.488889,0,0,1,2001.57,3059.06)">
                    <path d="M3153.54,118.11L4216.53,118.11" style="fill:none;stroke:rgb(0,0,255);stroke-width:1.06px;stroke-linecap:round;stroke-linejoin:round;stroke-miterlimit:1.5;"/>
                </g>
                <path d="M4299.21,3177.16L4417.32,3177.16" style="fill:none;stroke:rgb(0,0,255);stroke-width:0.83px;stroke-linecap:round;stroke-linejoin:round;stroke-miterlimit:1.5;"/>
                <path d="M3307.09,3177.16L3188.98,3177.16" style="fill:none;stroke:rgb(0,0,255);stroke-width:0.83px;stroke-linecap:round;stroke-linejoin:round;stroke-miterlimit:1.5;"/>
                <g transform="matrix(1,0,0,1,0,-23.622)">
                    <path d="M3307.09,3236.22L3543.31,3236.22" style="fill:none;stroke:rgb(0,0,255);stroke-width:0.83px;stroke-linecap:round;stroke-linejoin:round;stroke-miterlimit:1.5;"/>
                </g>
                <g transform="matrix(1,0,0,1,755.906,-23.622)">
                    <path d="M3307.09,3236.22L3543.31,3236.22" style="fill:none;stroke:rgb(0,0,255);stroke-width:0.83px;stroke-linecap:round;stroke-linejoin:round;stroke-miterlimit:1.5;"/>
                </g>
                <path d="M4062.99,3212.6L4062.99,3177.16" style="fill:none;stroke:rgb(0,0,255);stroke-width:0.83px;stroke-linecap:round;stroke-linejoin:round;stroke-miterlimit:1.5;"/>
                <g transform="matrix(1,0,0,1,236.22,0)">
                    <path d="M4062.99,3212.6L4062.99,3177.16" style="fill:none;stroke:rgb(0,0,255);stroke-width:0.83px;stroke-linecap:round;stroke-linejoin:round;stroke-miterlimit:1.5;"/>
                </g>
                <g transform="matrix(1,0,0,1,-755.906,0)">
                    <path d="M4062.99,3212.6L4062.99,3177.16" style="fill:none;stroke:rgb(0,0,255);stroke-width:0.83px;stroke-linecap:round;stroke-linejoin:round;stroke-miterlimit:1.5;"/>
                </g>
                <g transform="matrix(1,0,0,1,-519.685,0)">
                    <path d="M4062.99,3212.6L4062.99,3177.16" style="fill:none;stroke:rgb(0,0,255);stroke-width:0.83px;stroke-linecap:round;stroke-linejoin:round;stroke-miterlimit:1.5;"/>
                </g>
            </g>
            <g transform="matrix(1,0,0,-1,0,3413.39)">
                <g transform="matrix(0.488889,0,0,1,2001.57,3059.06)">
                    <path d="M3153.54,118.11L4216.53,118.11" style="fill:none;stroke:rgb(0,0,255);stroke-width:1.06px;stroke-linecap:round;stroke-linejoin:round;stroke-miterlimit:1.5;"/>
                </g>
                <path d="M4299.21,3177.16L4417.32,3177.16" style="fill:none;stroke:rgb(0,0,255);stroke-width:0.83px;stroke-linecap:round;stroke-linejoin:round;stroke-miterlimit:1.5;"/>
                <path d="M3307.09,3177.16L3188.98,3177.16" style="fill:none;stroke:rgb(0,0,255);stroke-width:0.83px;stroke-linecap:round;stroke-linejoin:round;stroke-miterlimit:1.5;"/>
                <g transform="matrix(1,0,0,1,0,-23.622)">
                    <path d="M3307.09,3236.22L3543.31,3236.22" style="fill:none;stroke:rgb(0,0,255);stroke-width:0.83px;stroke-linecap:round;stroke-linejoin:round;stroke-miterlimit:1.5;"/>
                </g>
                <g transform="matrix(1,0,0,1,755.906,-23.622)">
                    <path d="M3307.09,3236.22L3543.31,3236.22" style="fill:none;stroke:rgb(0,0,255);stroke-width:0.83px;stroke-linecap:round;stroke-linejoin:round;stroke-miterlimit:1.5;"/>
                </g>
                <path d="M4062.99,3212.6L4062.99,3177.16" style="fill:none;stroke:rgb(0,0,255);stroke-width:0.83px;stroke-linecap:round;stroke-linejoin:round;stroke-miterlimit:1.5;"/>
                <g transform="matrix(1,0,0,1,236.22,0)">
                    <path d="M4062.99,3212.6L4062.99,3177.16" style="fill:none;stroke:rgb(0,0,255);stroke-width:0.83px;stroke-linecap:round;stroke-linejoin:round;stroke-miterlimit:1.5;"/>
                </g>
                <g transform="matrix(1,0,0,1,-755.906,0)">
                    <path d="M4062.99,3212.6L4062.99,3177.16" style="fill:none;stroke:rgb(0,0,255);stroke-width:0.83px;stroke-linecap:round;stroke-linejoin:round;stroke-miterlimit:1.5;"/>
                </g>
                <g transform="matrix(1,0,0,1,-519.685,0)">
                    <path d="M4062.99,3212.6L4062.99,3177.16" style="fill:none;stroke:rgb(0,0,255);stroke-width:0.83px;stroke-linecap:round;stroke-linejoin:round;stroke-miterlimit:1.5;"/>
                </g>
            </g>
            <g transform="matrix(1,0,0,1.992,-1464.57,-540.189)">
                <path d="M4653.54,389.764L4653.54,1866.14" style="fill:none;stroke:rgb(0,0,255);stroke-width:0.53px;stroke-linecap:round;stroke-linejoin:round;stroke-miterlimit:1.5;"/>
            </g>
            <g transform="matrix(1,0,0,1.992,-236.22,-540.189)">
                <path d="M4653.54,389.764L4653.54,1866.14" style="fill:none;stroke:rgb(0,0,255);stroke-width:0.53px;stroke-linecap:round;stroke-linejoin:round;stroke-miterlimit:1.5;"/>
            </g>
        </g>
        <g transform="matrix(1,0,0,1,0,141.732)">
            <g transform="matrix(0.962963,0,0,0.962963,187.883,-265.748)">
                <circle cx="3478.35" cy="797.244" r="159.449" style="fill:none;stroke:rgb(255,0,0);stroke-width:0.87px;stroke-linecap:round;stroke-linejoin:round;stroke-miterlimit:1.5;"/>
            </g>
            <g transform="matrix(0.962963,0,0,0.962963,719.379,-265.748)">
                <circle cx="3478.35" cy="797.244" r="159.449" style="fill:none;stroke:rgb(255,0,0);stroke-width:0.87px;stroke-linecap:round;stroke-linejoin:round;stroke-miterlimit:1.5;"/>
            </g>
            <g transform="matrix(0.962963,0,0,0.962963,187.883,265.748)">
                <circle cx="3478.35" cy="797.244" r="159.449" style="fill:none;stroke:rgb(255,0,0);stroke-width:0.87px;stroke-linecap:round;stroke-linejoin:round;stroke-miterlimit:1.5;"/>
            </g>
            <g transform="matrix(0.962963,0,0,0.962963,719.379,265.748)">
                <circle cx="3478.35" cy="797.244" r="159.449" style="fill:none;stroke:rgb(255,0,0);stroke-width:0.87px;stroke-linecap:round;stroke-linejoin:round;stroke-miterlimit:1.5;"/>
            </g>
            <g transform="matrix(0.962963,0,0,0.962963,187.883,797.244)">
                <circle cx="3478.35" cy="797.244" r="159.449" style="fill:none;stroke:rgb(255,0,0);stroke-width:0.87px;stroke-linecap:round;stroke-linejoin:round;stroke-miterlimit:1.5;"/>
            </g>
            <g transform="matrix(0.962963,0,0,0.962963,719.379,797.244)">
                <circle cx="3478.35" cy="797.244" r="159.449" style="fill:none;stroke:rgb(255,0,0);stroke-width:0.87px;stroke-linecap:round;stroke-linejoin:round;stroke-miterlimit:1.5;"/>
            </g>
            <g transform="matrix(0.962963,0,0,0.962963,187.883,1328.74)">
                <circle cx="3478.35" cy="797.244" r="159.449" style="fill:none;stroke:rgb(255,0,0);stroke-width:0.87px;stroke-linecap:round;stroke-linejoin:round;stroke-miterlimit:1.5;"/>
            </g>
            <g transform="matrix(0.962963,0,0,0.962963,719.379,1328.74)">
                <circle cx="3478.35" cy="797.244" r="159.449" style="fill:none;stroke:rgb(255,0,0);stroke-width:0.87px;stroke-linecap:round;stroke-linejoin:round;stroke-miterlimit:1.5;"/>
            </g>
            <g transform="matrix(0.962963,0,0,0.962963,187.883,1860.24)">
                <circle cx="3478.35" cy="797.244" r="159.449" style="fill:none;stroke:rgb(255,0,0);stroke-width:0.87px;stroke-linecap:round;stroke-linejoin:round;stroke-miterlimit:1.5;"/>
            </g>
            <g transform="matrix(0.962963,0,0,0.962963,719.379,1860.24)">
                <circle cx="3478.35" cy="797.244" r="159.449" style="fill:none;stroke:rgb(255,0,0);stroke-width:0.87px;stroke-linecap:round;stroke-linejoin:round;stroke-miterlimit:1.5;"/>
            </g>
        </g>
    </g>
    <g transform="matrix(1,0,0,1,944.882,-82.6772)">
        <g>
            <g>
                <g transform="matrix(0.488889,0,0,1,2001.57,3059.06)">
                    <path d="M3153.54,118.11L4216.53,118.11" style="fill:none;stroke:rgb(0,0,255);stroke-width:1.06px;stroke-linecap:round;stroke-linejoin:round;stroke-miterlimit:1.5;"/>
                </g>
                <path d="M4299.21,3177.16L4417.32,3177.16" style="fill:none;stroke:rgb(0,0,255);stroke-width:0.83px;stroke-linecap:round;stroke-linejoin:round;stroke-miterlimit:1.5;"/>
                <path d="M3307.09,3177.16L3188.98,3177.16" style="fill:none;stroke:rgb(0,0,255);stroke-width:0.83px;stroke-linecap:round;stroke-linejoin:round;stroke-miterlimit:1.5;"/>
                <g transform="matrix(1,0,0,1,0,-23.622)">
                    <path d="M3307.09,3236.22L3543.31,3236.22" style="fill:none;stroke:rgb(0,0,255);stroke-width:0.83px;stroke-linecap:round;stroke-linejoin:round;stroke-miterlimit:1.5;"/>
                </g>
                <g transform="matrix(1,0,0,1,755.906,-23.622)">
                    <path d="M3307.09,3236.22L3543.31,3236.22" style="fill:none;stroke:rgb(0,0,255);stroke-width:0.83px;stroke-linecap:round;stroke-linejoin:round;stroke-miterlimit:1.5;"/>
                </g>
                <path d="M4062.99,3212.6L4062.99,3177.16" style="fill:none;stroke:rgb(0,0,255);stroke-width:0.83px;stroke-linecap:round;stroke-linejoin:round;stroke-miterlimit:1.5;"/>
                <g transform="matrix(1,0,0,1,236.22,0)">
                    <path d="M4062.99,3212.6L4062.99,3177.16" style="fill:none;stroke:rgb(0,0,255);stroke-width:0.83px;stroke-linecap:round;stroke-linejoin:round;stroke-miterlimit:1.5;"/>
                </g>
                <g transform="matrix(1,0,0,1,-755.906,0)">
                    <path d="M4062.99,3212.6L4062.99,3177.16" style="fill:none;stroke:rgb(0,0,255);stroke-width:0.83px;stroke-linecap:round;stroke-linejoin:round;stroke-miterlimit:1.5;"/>
                </g>
                <g transform="matrix(1,0,0,1,-519.685,0)">
                    <path d="M4062.99,3212.6L4062.99,3177.16" style="fill:none;stroke:rgb(0,0,255);stroke-width:0.83px;stroke-linecap:round;stroke-linejoin:round;stroke-miterlimit:1.5;"/>
                </g>
            </g>
            <g transform="matrix(1,0,0,-1,0,3413.39)">
                <g transform="matrix(0.488889,0,0,1,2001.57,3059.06)">
                    <path d="M3153.54,118.11L4216.53,118.11" style="fill:none;stroke:rgb(0,0,255);stroke-width:1.06px;stroke-linecap:round;stroke-linejoin:round;stroke-miterlimit:1.5;"/>
                </g>
                <path d="M4299.21,3177.16L4417.32,3177.16" style="fill:none;stroke:rgb(0,0,255);stroke-width:0.83px;stroke-linecap:round;stroke-linejoin:round;stroke-miterlimit:1.5;"/>
                <path d="M3307.09,3177.16L3188.98,3177.16" style="fill:none;stroke:rgb(0,0,255);stroke-width:0.83px;stroke-linecap:round;stroke-linejoin:round;stroke-miterlimit:1.5;"/>
                <g transform="matrix(1,0,0,1,0,-23.622)">
                    <path d="M3307.09,3236.22L3543.31,3236.22" style="fill:none;stroke:rgb(0,0,255);stroke-width:0.83px;stroke-linecap:round;stroke-linejoin:round;stroke-miterlimit:1.5;"/>
                </g>
                <g transform="matrix(1,0,0,1,755.906,-23.622)">
                    <path d="M3307.09,3236.22L3543.31,3236.22" style="fill:none;stroke:rgb(0,0,255);stroke-width:0.83px;stroke-linecap:round;stroke-linejoin:round;stroke-miterlimit:1.5;"/>
                </g>
                <path d="M4062.99,3212.6L4062.99,3177.16" style="fill:none;stroke:rgb(0,0,255);stroke-width:0.83px;stroke-linecap:round;stroke-linejoin:round;stroke-miterlimit:1.5;"/>
                <g transform="matrix(1,0,0,1,236.22,0)">
                    <path d="M4062.99,3212.6L4062.99,3177.16" style="fill:none;stroke:rgb(0,0,255);stroke-width:0.83px;stroke-linecap:round;stroke-linejoin:round;stroke-miterlimit:1.5;"/>
                </g>
                <g transform="matrix(1,0,0,1,-755.906,0)">
                    <path d="M4062.99,3212.6L4062.99,3177.16" style="fill:none;stroke:rgb(0,0,255);stroke-width:0.83px;stroke-linecap:round;stroke-linejoin:round;stroke-miterlimit:1.5;"/>
                </g>
                <g transform="matrix(1,0,0,1,-519.685,0)">
                    <path d="M4062.99,3212.6L4062.99,3177.16" style="fill:none;stroke:rgb(0,0,255);stroke-width:0.83px;stroke-linecap:round;stroke-linejoin:round;stroke-miterlimit:1.5;"/>
                </g>
            </g>
            <g transform="matrix(1,0,0,1.992,-1464.57,-540.189)">
                <path d="M4653.54,389.764L4653.54,1866.14" style="fill:none;stroke:rgb(0,0,255);stroke-width:0.53px;stroke-linecap:round;stroke-linejoin:round;stroke-miterlimit:1.5;"/>
            </g>
            <g transform="matrix(1,0,0,1.992,-236.22,-540.189)">
                <path d="M4653.54,389.764L4653.54,1866.14" style="fill:none;stroke:rgb(0,0,255);stroke-width:0.53px;stroke-linecap:round;stroke-linejoin:round;stroke-miterlimit:1.5;"/>
            </g>
        </g>
        <g transform="matrix(1,0,0,1,0,141.732)">
            <g transform="matrix(0.962963,0,0,0.962963,187.883,-265.748)">
                <circle cx="3478.35" cy="797.244" r="159.449" style="fill:none;stroke:rgb(255,0,0);stroke-width:0.87px;stroke-linecap:round;stroke-linejoin:round;stroke-miterlimit:1.5;"/>
            </g>
            <g transform="matrix(0.962963,0,0,0.962963,719.379,-265.748)">
                <circle cx="3478.35" cy="797.244" r="159.449" style="fill:none;stroke:rgb(255,0,0);stroke-width:0.87px;stroke-linecap:round;stroke-linejoin:round;stroke-miterlimit:1.5;"/>
            </g>
            <g transform="matrix(0.962963,0,0,0.962963,187.883,265.748)">
                <circle cx="3478.35" cy="797.244" r="159.449" style="fill:none;stroke:rgb(255,0,0);stroke-width:0.87px;stroke-linecap:round;stroke-linejoin:round;stroke-miterlimit:1.5;"/>
            </g>
            <g transform="matrix(0.962963,0,0,0.962963,719.379,265.748)">
                <circle cx="3478.35" cy="797.244" r="159.449" style="fill:none;stroke:rgb(255,0,0);stroke-width:0.87px;stroke-linecap:round;stroke-linejoin:round;stroke-miterlimit:1.5;"/>
            </g>
            <g transform="matrix(0.962963,0,0,0.962963,187.883,797.244)">
                <circle cx="3478.35" cy="797.244" r="159.449" style="fill:none;stroke:rgb(255,0,0);stroke-width:0.87px;stroke-linecap:round;stroke-linejoin:round;stroke-miterlimit:1.5;"/>
            </g>
            <g transform="matrix(0.962963,0,0,0.962963,719.379,797.244)">
                <circle cx="3478.35" cy="797.244" r="159.449" style="fill:none;stroke:rgb(255,0,0);stroke-width:0.87px;stroke-linecap:round;stroke-linejoin:round;stroke-miterlimit:1.5;"/>
            </g>
            <g transform="matrix(0.962963,0,0,0.962963,187.883,1328.74)">
                <circle cx="3478.35" cy="797.244" r="159.449" style="fill:none;stroke:rgb(255,0,0);stroke-width:0.87px;stroke-linecap:round;stroke-linejoin:round;stroke-miterlimit:1.5;"/>
            </g>
            <g transform="matrix(0.962963,0,0,0.962963,719.379,1328.74)">
                <circle cx="3478.35" cy="797.244" r="159.449" style="fill:none;stroke:rgb(255,0,0);stroke-width:0.87px;stroke-linecap:round;stroke-linejoin:round;stroke-miterlimit:1.5;"/>
            </g>
            <g transform="matrix(0.962963,0,0,0.962963,187.883,1860.24)">
                <circle cx="3478.35" cy="797.244" r="159.449" style="fill:none;stroke:rgb(255,0,0);stroke-width:0.87px;stroke-linecap:round;stroke-linejoin:round;stroke-miterlimit:1.5;"/>
            </g>
            <g transform="matrix(0.962963,0,0,0.962963,719.379,1860.24)">
                <circle cx="3478.35" cy="797.244" r="159.449" style="fill:none;stroke:rgb(255,0,0);stroke-width:0.87px;stroke-linecap:round;stroke-linejoin:round;stroke-miterlimit:1.5;"/>
            </g>
        </g>
    </g>
    <g transform="matrix(1,0,0,1,159.449,135.827)">
        <circle cx="312.992" cy="336.614" r="17.717" style="fill:none;stroke:rgb(255,0,0);stroke-width:0.83px;stroke-linecap:round;stroke-linejoin:round;stroke-miterlimit:1.5;"/>
    </g>
    <g transform="matrix(1,0,0,1,750,135.827)">
        <circle cx="312.992" cy="336.614" r="17.717" style="fill:none;stroke:rgb(255,0,0);stroke-width:0.83px;stroke-linecap:round;stroke-linejoin:round;stroke-miterlimit:1.5;"/>
    </g>
    <g transform="matrix(1,0,0,1,159.449,2438.98)">
        <circle cx="312.992" cy="336.614" r="17.717" style="fill:none;stroke:rgb(255,0,0);stroke-width:0.83px;stroke-linecap:round;stroke-linejoin:round;stroke-miterlimit:1.5;"/>
    </g>
    <g transform="matrix(1,0,0,1,750,2438.98)">
        <circle cx="312.992" cy="336.614" r="17.717" style="fill:none;stroke:rgb(255,0,0);stroke-width:0.83px;stroke-linecap:round;stroke-linejoin:round;stroke-miterlimit:1.5;"/>
    </g>
</svg>
