<?xml version="1.0" standalone="no"?>

<!DOCTYPE svg PUBLIC "-//W3C//DTD SVG 20010904//EN"

 "http://www.w3.org/TR/2001/REC-SVG-20010904/DTD/svg10.dtd">

<svg version="1.0" xmlns="http://www.w3.org/2000/svg"

 width="1200.000000pt" height="1200.000000pt" viewBox="0 0 1200.000000 1200.000000"

 preserveAspectRatio="xMidYMid meet">

<path fill="#050505" stroke="none" d="
M651 1183

C629 1178 615 1169 600 1150

C583 1129 569 1105 565 1088

C557 1062 560 1034 573 1014

C586 992 597 985 608 993

C612 996 620 1007 627 1018

C636 1034 640 1055 637 1072

C634 1085 619 1123 615 1125

L614 1126

L612 1123

C610 1121 608 1118 607 1115

C604 1111 604 1111 609 1097

C617 1072 619 1059 617 1048

C615 1036 606 1023 599 1023

C595 1023 589 1027 586 1034

C580 1047 580 1070 587 1092

C594 1113 612 1137 628 1145

C633 1147 634 1147 643 1147

C650 1147 652 1147 657 1145

C669 1138 680 1123 685 1104

C688 1092 689 1073 686 1059

C682 1041 678 1031 658 998

C627 947 612 929 600 929

C590 929 576 942 560 967

C552 978 535 1007 529 1019

C505 1064 505 1109 529 1134

C543 1149 561 1152 579 1144

L585 1141

L589 1147

C591 1150 593 1154 594 1155

L595 1157

L591 1161

C587 1166 576 1173 569 1176

C555 1182 551 1183 536 1184

C516 1184 504 1182 489 1173

C471 1162 447 1138 430 1113

C425 1106 417 1096 412 1091

C389 1067 375 1063 343 1073

C339 1074 335 1075 334 1075

L333 1075

L331 1066

C329 1061 328 1057 328 1056

L328 1055

L331 1054

C332 1054 340 1052 348 1050

C367 1045 372 1044 379 1044

C403 1044 422 1061 444 1101

C459 1128 470 1141 483 1147

C492 1151 506 1156 510 1156

C513 1156 516 1154 516 1152

C516 1151 514 1148 512 1145

C498 1121 491 1097 489 1072

C489 1061 488 1060 483 1062

C478 1065 472 1072 462 1086

C457 1092 453 1098 453 1098

C452 1098 439 1079 436 1074

C435 1071 435 1071 437 1067

C446 1055 445 1042 435 1034

C429 1029 418 1024 407 1020

C380 1013 360 1017 334 1035

C329 1038 325 1041 325 1041

L324 1041

L321 1032

L318 1024

L318 1024

C318 1023 323 1020 330 1016

C342 1008 357 1000 367 997

C389 990 418 993 435 1006

C446 1013 452 1015 460 1015

C470 1015 479 1011 492 999

C515 977 522 956 511 944

C507 940 503 942 493 950

C480 961 466 969 451 973

C442 975 440 975 422 975

C380 975 345 968 311 950

C299 944 292 940 278 931

C260 918 247 913 230 913

C215 913 199 917 182 925

C166 933 160 947 165 964

C169 978 181 989 193 992

L196 993

L196 999

C196 1002 196 1006 197 1008

L198 1011

L195 1010

C190 1009 178 1004 172 1000

C153 988 144 970 142 942

C139 912 135 905 117 896

C104 890 97 883 92 872

C89 866 89 864 89 858

C89 838 101 825 119 826

C127 827 133 829 136 834

C140 838 140 840 137 843

C134 845 134 845 127 844

C118 844 115 845 112 851

C109 857 109 861 112 868

C119 881 139 894 162 900

C170 902 173 902 183 902

C194 901 199 900 216 896

C234 891 238 891 250 890

C269 889 277 892 301 907

C330 925 362 937 387 938

C413 939 444 931 455 920

C463 913 468 896 466 887

C465 885 464 882 462 881

C460 880 459 880 444 885

C435 888 421 892 414 894

C400 897 398 897 377 898

C351 899 340 901 328 905

C323 907 319 908 319 907

C318 907 313 904 307 900

L297 894

L298 893

C299 891 312 885 320 883

C324 882 335 880 345 878

C386 872 418 862 445 847

C471 832 484 818 496 794

C507 772 509 762 508 733

C507 714 507 712 509 706

C515 690 529 675 561 653

C612 617 619 611 630 599

C642 587 646 580 653 562

C660 544 670 522 676 511

C679 506 685 496 688 490

C698 470 703 467 736 464

C748 463 761 459 769 455

C776 452 786 445 789 441

L792 439

L790 440

C789 440 787 442 784 444

C778 448 766 454 756 458

C749 460 745 460 730 461

C711 462 707 463 700 467

C693 471 688 479 681 493

C672 514 643 572 639 578

C635 584 617 605 609 614

C602 621 592 628 580 635

C549 652 526 669 517 683

L514 687

L514 686

C514 686 515 682 516 678

C517 673 518 666 519 658

C519 646 519 644 516 629

C511 605 509 593 512 582

C515 563 522 549 541 516

C551 498 555 490 557 483

C560 474 560 474 559 461

C559 453 558 446 557 444

C555 437 547 429 544 429

L542 429

L541 431

C541 432 540 436 539 440

C538 447 530 463 525 469

C523 471 518 475 514 478

C502 487 496 492 493 497

C491 501 491 502 491 507

L492 513

L484 506

C475 499 464 493 453 490

C444 488 421 489 410 491

C400 494 386 501 379 507

C371 514 370 517 370 532

C370 543 369 544 367 549

C361 558 351 565 333 569

C328 571 320 573 315 575

C298 579 288 585 284 593

L283 597

L281 594

C280 592 279 588 278 584

C275 567 282 545 296 531

C306 520 314 517 331 517

C347 517 356 513 373 500

C395 483 398 478 392 472

C388 469 380 466 367 463

C360 462 352 462 337 462

C305 462 295 464 265 479

C245 489 232 498 220 509

C190 538 174 580 178 619

C180 641 181 643 195 644

C219 647 229 650 239 660

C247 668 249 673 251 688

C252 702 253 706 257 713

C259 717 267 726 272 729

L275 731

L269 731

C258 731 240 726 225 719

C207 710 193 698 185 686

C180 679 175 663 172 646

C165 612 166 586 175 553

C177 546 179 538 179 537

C182 527 165 523 148 531

C137 535 125 544 115 554

C103 566 97 575 93 586

C90 597 90 613 94 647

C94 653 94 653 99 656

C108 661 112 666 116 678

C118 683 120 690 122 692

C126 701 135 707 142 707

L144 707

L144 708

C144 708 141 710 138 712

C133 714 132 714 122 714

C102 714 89 708 82 694

C77 683 77 673 83 661

C86 653 86 653 86 641

C85 629 83 618 78 609

C74 601 72 601 66 608

C57 617 49 638 46 657

C45 662 45 670 45 676

C46 698 53 706 80 715

C94 720 99 723 105 729

C115 739 121 756 121 775

C121 789 118 797 108 809

C105 813 96 820 95 820

L94 820

L95 818

C97 814 98 806 97 800

C95 789 89 782 69 764

C60 756 59 752 59 735

C59 722 59 722 52 714

C40 701 35 690 34 670

C33 646 37 625 47 606

C60 579 82 551 106 531

C118 521 135 510 144 506

C153 503 159 499 160 496

C161 491 157 488 147 487

C132 485 120 482 113 479

C106 476 85 463 84 461

L83 460

L90 455

C93 452 97 450 98 450

C98 450 101 452 104 453

C115 460 135 467 153 470

C162 471 168 471 180 471

C205 470 217 466 244 452

C253 447 263 441 267 440

C276 436 295 432 309 430

C314 429 320 428 321 427

L323 427

L323 426

C323 422 307 418 292 417

C283 417 278 417 269 419

C261 420 252 420 243 420

C216 420 205 415 197 400

C195 394 195 393 195 382

C195 370 195 369 199 359

C204 346 205 339 202 333

L200 330

L202 331

C211 333 220 341 225 351

C229 359 230 362 231 375

C233 389 236 395 242 400

C250 408 254 408 283 409

C311 409 313 409 342 418

C352 421 362 424 364 424

L367 424

L367 421

C367 418 362 409 350 393

C344 385 338 375 336 371

C327 352 326 331 333 306

C336 294 341 283 352 259

C365 233 366 230 366 219

C366 208 364 201 360 197

C356 192 353 193 348 200

C343 206 337 210 331 210

C329 210 323 209 317 208

C312 207 305 206 303 206

C298 206 292 209 287 213

L283 217

L283 210

C284 205 285 201 288 195

C300 171 327 160 349 170

C356 174 369 189 374 200

C376 206 378 214 378 219

C378 231 371 257 361 283

C350 308 350 312 350 327

C350 335 350 340 352 346

C359 374 380 400 404 412

C409 415 419 418 420 418

C420 417 419 413 417 408

C415 401 415 397 415 390

C415 382 416 381 419 374

C429 356 430 353 431 348

L431 344

L420 343

C411 343 409 343 404 341

C397 337 391 332 387 325

C385 320 385 319 385 308

C385 298 385 295 387 290

C390 282 394 271 396 271

L397 270

L397 274

C399 281 404 291 410 297

C413 300 420 305 425 308

C436 315 439 318 441 325

C443 332 441 342 436 358

C429 380 429 389 432 400

C437 417 453 429 476 432

C492 434 502 430 507 421

C509 416 509 415 509 403

C509 393 509 389 507 380

C498 348 488 327 469 304

C447 277 421 260 391 255

C387 254 381 253 380 252

L378 252

L378 250

C378 248 379 245 380 243

L381 239

L383 239

C387 239 405 242 414 244

C430 248 439 252 449 258

C454 262 458 264 460 264

L463 264

L464 260

C467 248 455 222 441 212

C435 207 427 205 411 203

C402 202 394 201 392 200

C375 195 362 173 362 149

L362 140

L363 140

L364 140

L364 141

C364 144 371 151 376 153

C378 155 386 157 392 159

C414 165 419 168 425 184

C428 190 429 193 433 196

C438 201 446 205 451 207

L453 207

L453 204

C452 198 446 186 441 179

C421 149 383 124 345 118

C331 116 314 116 304 119

C283 124 265 139 255 160

C251 167 251 168 241 170

L238 170

L240 165

C247 139 263 120 286 109

C322 91 383 98 426 125

C430 127 439 134 445 141

C452 147 458 152 459 152

C463 153 467 151 469 146

C474 131 489 105 500 90

C504 86 512 75 519 67

L532 52

L538 55

C541 56 546 59 549 61

L555 64

L554 66

C553 67 549 71 546 75

C519 106 503 136 497 165

C495 174 495 179 495 198

C495 247 505 290 531 341

C549 377 573 410 587 420

C592 423 594 424 599 424

C603 424 606 423 609 421

C622 413 638 389 645 366

C654 341 652 320 639 293

C632 281 632 280 622 271

C609 259 608 256 608 238

C608 224 609 216 614 205

C619 197 628 186 638 179

L644 174

L645 174

C645 174 644 177 643 181

C640 189 641 194 646 207

C651 218 652 228 650 236

C649 238 647 245 644 250

C637 267 637 273 650 300

C655 310 660 321 661 324

L663 331

L665 326

C672 307 675 285 675 259

C675 236 674 224 668 201

C661 173 654 156 644 144

C639 138 639 138 638 122

L638 106

L643 109

C664 120 686 150 697 182

C702 196 704 201 708 205

C710 208 711 208 716 208

C722 208 733 203 742 195

C770 173 775 121 753 82

C747 72 735 59 726 55

C723 53 718 52 713 51

C705 50 705 50 699 42

L693 34

L694 34

C695 32 717 33 723 34

C739 38 757 50 768 64

C773 72 776 77 780 90

C788 109 795 120 805 124

C811 128 822 128 838 124

C855 121 864 119 869 119

C872 119 872 120 874 123

C877 128 880 138 880 140

L880 142

L872 142

C848 144 828 149 814 157

C801 165 785 183 783 193

C782 195 782 196 784 199

C787 202 787 202 800 201

C810 201 815 201 825 199

C866 190 884 176 887 153

C888 141 882 123 872 110

C859 94 834 78 812 72

C803 70 784 68 779 68

L776 69

L774 66

C773 65 772 62 771 61

L769 59

L769 58

C771 57 798 57 808 58

C828 61 852 71 868 82

C887 96 904 121 909 144

C910 152 910 167 909 177

C907 193 909 194 949 196

C961 197 971 197 971 198

C972 198 972 203 973 208

L973 218

L965 217

C954 216 932 217 917 218

C909 219 893 221 880 222

C843 224 823 227 802 232

C771 240 748 251 736 261

C722 275 709 303 697 351

C689 382 688 395 690 407

C692 418 698 426 705 428

C715 431 746 424 763 415

C770 412 778 404 781 398

C782 395 784 389 785 384

C786 378 788 372 789 370

C796 357 815 348 836 346

C849 346 857 348 863 353

L868 357

L865 356

C862 354 860 354 854 356

C847 358 843 362 841 370

C836 385 824 395 808 395

C800 395 795 397 790 400

C783 407 783 413 790 413

C794 413 813 409 822 406

C848 397 874 376 885 354

C891 342 892 336 892 323

C893 300 885 290 866 286

C859 284 838 284 831 285

C827 286 827 286 823 282

C822 280 820 278 820 278

L820 277

L829 276

C846 273 867 274 880 279

C891 284 900 292 906 301

C915 315 916 339 909 361

C902 382 892 397 877 412

C866 423 864 426 868 430

C872 433 882 435 901 434

C914 434 918 434 925 432

C949 426 962 418 966 408

C967 406 967 401 968 396

C969 382 971 379 987 370

C1006 360 1012 351 1016 333

L1016 329

L1018 330

C1020 332 1023 341 1025 350

C1028 368 1025 381 1015 395

C1009 403 1005 405 988 412

C968 421 961 425 956 433

L954 436

L954 437

C955 438 976 434 989 431

C1018 424 1048 410 1066 395

C1076 387 1087 369 1091 353

C1093 347 1093 342 1093 334

C1094 319 1091 312 1084 300

C1080 294 1078 291 1078 289

C1078 287 1078 284 1077 282

L1076 278

L1077 278

C1079 278 1087 284 1092 289

C1101 300 1107 315 1108 335

C1109 361 1101 386 1084 409

C1080 414 1077 420 1076 422

C1075 431 1081 438 1098 448

C1113 456 1120 461 1131 472

C1157 498 1173 533 1179 573

C1181 588 1180 617 1178 630

C1175 640 1170 657 1161 678

C1157 687 1153 696 1153 699

C1151 705 1151 705 1154 714

C1156 721 1156 725 1156 733

C1156 743 1156 744 1153 750

C1149 760 1143 766 1130 774

C1124 777 1118 782 1117 784

C1114 788 1114 794 1118 802

L1121 808

L1120 808

C1118 808 1111 802 1108 797

C1099 784 1096 764 1100 751

C1103 741 1108 734 1123 720

C1140 703 1144 697 1150 678

C1161 646 1164 626 1160 618

L1158 615

L1152 621

C1144 630 1139 639 1137 651

C1136 662 1134 668 1129 677

C1121 694 1106 701 1080 701

C1070 701 1068 701 1064 699

C1061 698 1059 697 1059 696

L1058 695

L1065 695

C1079 694 1083 689 1089 666

C1093 648 1096 643 1102 637

C1109 631 1114 629 1124 629

C1132 629 1132 629 1137 624

C1142 619 1147 610 1151 597

C1154 588 1154 587 1154 574

C1154 561 1154 559 1152 551

C1148 542 1133 511 1126 501

C1114 482 1092 467 1068 461

C1064 460 1060 459 1060 460

L1060 460

L1063 464

C1067 468 1069 469 1080 473

C1093 478 1104 487 1109 497

C1115 509 1116 534 1110 548

L1109 552

L1108 552

C1108 552 1106 549 1105 546

C1102 538 1092 529 1080 522

C1075 519 1068 515 1066 512

C1058 505 1057 501 1056 485

C1055 469 1054 466 1049 462

C1037 454 1017 452 982 457

C955 460 940 463 938 468

C935 474 941 481 964 496

C987 510 997 517 1008 528

C1019 538 1023 540 1033 542

C1050 545 1055 546 1062 549

C1073 555 1079 561 1085 574

C1091 585 1096 590 1103 595

C1107 597 1118 600 1126 600

L1131 600

L1127 602

C1115 607 1087 607 1069 603

C1063 601 1056 598 1052 596

C1039 590 1033 582 1023 562

C1016 550 1007 538 998 531

L994 528

L1002 544

C1015 571 1018 585 1018 619

C1017 631 1017 644 1016 648

C1013 666 1005 685 995 696

C988 703 983 706 974 709

C961 713 953 723 952 737

C952 740 952 745 953 747

C953 750 954 752 954 752

L953 752

L949 749

C934 740 924 724 924 709

C924 697 928 686 936 678

C943 671 948 669 963 668

C984 666 994 663 1001 655

C1007 649 1008 643 1009 626

C1009 605 1006 584 998 563

L995 554

L994 562

C993 576 988 589 982 597

C980 599 975 603 970 607

C961 613 956 619 948 628

C944 633 936 637 918 642

C903 646 896 649 892 653

C888 656 885 663 885 666

L885 669

L884 669

L883 669

L882 665

C879 658 879 652 880 645

C885 625 901 606 916 604

C919 603 924 604 932 605

C951 609 958 607 967 598

C977 588 982 573 981 556

C980 530 971 515 947 499

C921 482 884 473 839 471

L819 471

L819 471

C819 472 821 475 823 478

C825 481 828 487 830 492

C833 499 839 520 839 524

C839 525 841 531 844 537

C849 547 849 548 849 555

C849 559 848 565 847 568

C844 580 835 595 823 608

C815 616 802 629 801 629

L800 629

L802 625

C805 617 806 610 805 604

C804 601 801 595 798 589

C794 583 791 577 790 574

C787 564 791 549 800 540

C805 536 809 534 821 529

C828 527 829 524 827 514

C826 509 824 503 823 500

C819 493 811 485 804 481

C798 479 797 479 781 479

C765 479 765 479 756 482

C725 495 703 521 696 552

C695 557 695 564 695 577

C695 597 694 604 689 617

C683 635 682 641 682 657

C683 665 684 674 685 678

C686 685 686 687 685 693

C683 707 677 717 662 734

C644 755 635 771 625 800

C620 815 617 825 617 838

C616 849 614 856 609 867

C603 880 595 891 591 891

C589 891 587 888 587 884

C587 882 588 875 590 869

C595 849 596 836 596 820

C595 808 595 803 597 792

C598 784 599 772 600 765

C601 745 603 739 615 712

C623 693 627 687 633 679

C639 671 640 667 641 653

C641 642 642 638 646 624

C651 605 655 586 654 584

L653 584

L650 587

C649 589 643 595 639 600

C633 606 626 615 622 622

C610 640 606 646 593 658

C579 671 559 693 549 707

C542 717 534 731 532 739

C531 742 531 746 531 749

L531 755

L534 746

C545 717 556 701 583 674

C602 655 607 650 624 625

C630 616 638 605 642 600

L649 591

L650 592

C650 593 648 600 646 607

C643 615 640 627 638 638

C633 664 631 671 614 708

C598 743 598 743 595 766

C593 783 590 790 583 805

C575 821 568 831 555 844

C542 857 531 865 516 872

C508 876 505 878 495 887

C489 893 483 898 481 899

L478 901

L477 900

C477 899 477 898 478 898

L478 897

L476 899

C474 900 473 902 473 904

L473 906

L475 905

C479 905 487 900 496 891

C502 886 509 881 521 874

C550 857 559 849 573 833

C584 819 587 818 587 826

C587 832 584 839 576 849

C573 853 569 859 566 863

C564 866 557 875 549 882

C538 894 535 896 527 901

C510 910 496 922 486 936

L483 941

L485 939

C486 938 492 933 498 927

C513 915 517 912 530 906

C545 899 551 894 568 876

C577 867 584 860 585 860

L587 860

L588 862

C589 869 582 884 562 921

C556 931 549 943 547 947

L544 954

L545 953

C545 952 548 948 552 943

C562 929 573 916 586 904

C601 890 607 882 614 869

C620 856 622 848 625 832

C628 811 630 807 642 793

C646 787 650 780 656 768

C658 763 660 759 660 759

L661 758

L656 775

C653 784 649 795 648 798

C646 802 644 812 642 820

C640 828 636 841 633 849

C629 860 628 866 627 872

C627 879 627 881 632 896

C635 905 637 915 638 917

L639 922

L637 923

C634 924 629 919 624 910

C621 905 618 901 618 900

L617 900

L619 904

C622 910 629 921 639 934

C646 944 649 948 657 954

L667 962

L666 960

C666 959 662 953 657 947

C651 938 649 934 647 929

C646 925 643 917 640 911

C633 895 632 889 632 879

C632 868 633 861 640 846

C649 823 650 819 653 798

C654 790 656 780 658 774

C660 769 663 757 665 749

C670 731 671 728 679 718

C684 710 687 705 689 700

L689 697

L692 706

C694 715 694 718 695 745

C696 779 696 782 704 797

C714 819 732 835 764 850

C800 867 819 873 858 879

C888 884 891 885 903 898

C912 908 917 910 937 917

C945 919 955 922 957 923

C964 927 973 933 978 940

C988 951 996 972 996 984

L996 989

L987 989

L979 989

L977 983

C971 966 959 951 945 944

C936 939 923 935 911 933

C906 932 898 930 894 930

C882 927 877 925 872 917

C865 906 862 902 854 899

C839 893 813 889 781 887

C764 886 752 884 744 881

L742 880

L741 881

C737 885 738 900 742 908

C746 916 756 925 766 930

C777 935 784 936 804 936

C825 936 839 934 854 927

C859 926 863 924 864 924

C865 924 867 925 868 927

C872 931 877 933 901 937

L908 938

L908 939

C908 940 875 956 864 961

C850 966 830 971 813 973

C780 978 757 973 713 951

C700 944 688 939 687 939

L685 939

L684 942

C682 948 686 966 693 980

C698 989 708 1002 715 1008

C723 1014 728 1017 737 1016

C746 1016 751 1014 769 1004

C788 992 794 990 810 991

C821 991 824 991 831 993

C855 1001 873 1014 886 1036

C894 1049 903 1059 909 1060

C925 1063 959 1043 974 1021

C977 1016 977 1016 985 1016

L993 1016

L992 1018

C992 1019 990 1023 989 1026

C976 1049 946 1070 915 1076

C892 1080 881 1080 857 1073

C833 1066 819 1066 803 1074

C799 1075 795 1078 792 1080

C789 1082 787 1083 786 1082

C784 1082 776 1073 776 1072

C776 1072 778 1069 781 1066

C791 1055 806 1046 817 1044

C824 1043 831 1044 847 1049

C854 1051 861 1053 864 1053

L868 1054

L868 1053

C868 1052 866 1048 865 1044

C858 1032 845 1020 831 1015

C822 1012 808 1011 799 1014

C785 1018 752 1035 745 1041

L742 1044

L746 1052

C757 1069 774 1087 790 1097

C810 1109 832 1111 851 1101

C856 1098 870 1086 870 1084

L870 1083

L884 1083

L898 1083

L898 1086

C896 1091 890 1101 882 1108

C859 1131 823 1141 802 1131

C786 1124 769 1111 742 1086

C723 1069 716 1063 712 1062

L710 1061

L710 1071

C708 1100 701 1123 686 1144

C683 1149 681 1153 681 1154

L681 1156

L684 1157

C693 1158 708 1152 719 1143

C726 1136 735 1126 744 1114

C748 1110 751 1106 751 1106

C751 1106 755 1108 758 1111

L765 1117

L760 1124

C746 1142 728 1161 714 1170

C694 1183 672 1188 651 1183

Z

M674 909

C666 897 664 885 668 873

C669 870 672 863 675 858

C678 853 682 845 684 840

C686 835 688 830 689 829

L692 827

L694 829

C697 832 698 837 699 849

C700 864 702 872 707 883

C712 894 719 901 727 905

L733 908

L731 907

C729 906 726 903 723 901

C716 896 713 890 709 877

C704 863 702 854 702 846

C702 824 694 802 685 798

L682 797

L680 799

C678 801 678 802 677 812

C677 828 672 848 665 861

C659 875 659 888 665 902

C668 907 674 914 676 914

L677 914

L674 909

Z

M506 865

C523 850 538 827 544 807

C548 794 544 774 538 774

C537 774 534 776 531 779

C528 782 522 787 518 789

C503 799 490 813 485 824

C483 827 480 834 477 840

C474 847 471 853 467 856

L463 861

L466 859

C471 856 476 850 479 843

C492 815 492 815 524 790

C531 784 538 779 538 779

C539 779 542 783 542 787

C544 796 536 817 525 834

C522 839 514 848 508 855

C494 871 491 875 487 883

L483 889

L490 881

C494 877 501 870 506 865

Z

M508 844

C528 823 537 806 534 798

L534 796

L532 796

C530 796 516 804 508 810

C498 818 491 825 489 833

L488 836

L488 836

C489 836 491 833 493 829

C501 819 520 804 526 804

L528 804

L528 805

C530 810 519 828 506 843

C502 847 498 852 497 853

L496 856

L499 854

C500 853 505 849 508 844

Z

M1130 746

C1139 739 1146 730 1148 724

C1150 719 1150 718 1149 714

L1148 712

L1147 713

C1146 713 1145 716 1144 719

C1142 727 1137 734 1126 746

C1120 752 1115 758 1114 759

L1113 762

L1118 757

C1120 755 1126 750 1130 746

Z

M100 748

C92 732 74 717 65 717

L62 717

L63 719

C64 719 67 722 71 724

C79 728 91 738 96 744

C99 747 100 749 101 749

L101 749

L100 748

Z

M577 691

C580 688 586 682 590 678

C603 667 610 661 618 651

L627 641

L627 643

C628 651 620 670 606 690

L598 702

L603 698

C613 688 623 669 630 649

C633 639 635 630 634 627

L633 625

L631 626

C630 627 627 631 625 635

C619 646 613 654 595 670

C586 678 578 686 576 688

C572 693 564 705 564 706

L564 707

L568 702

C571 699 575 694 577 691

Z

M949 691

C955 685 962 680 973 677

L983 674

L983 673

L983 673

L979 672

C975 672 966 674 959 678

C949 684 939 696 939 704

L939 706

L942 701

C943 698 946 693 949 691

Z

M101 699

C96 693 92 681 92 670

C92 666 92 662 91 661

L90 660

L89 660

C88 662 88 674 89 680

C91 687 95 694 99 698

C101 700 103 701 103 701

L103 701

L101 699

Z

M218 696

C205 688 197 679 189 663

C184 651 180 645 178 645

L177 645

L178 649

C179 659 190 676 201 686

C207 692 218 699 221 699

L222 699

L218 696

Z

M1113 673

C1114 671 1116 665 1118 661

C1120 656 1123 649 1125 646

C1127 643 1129 640 1129 639

L1130 638

L1129 638

C1128 638 1125 640 1123 642

C1119 646 1118 647 1115 659

C1113 665 1110 673 1109 676

L1106 681

L1109 679

C1110 678 1112 675 1113 673

Z

M566 635

C571 630 578 623 581 621

C599 606 616 590 623 581

C629 573 643 551 647 543

C650 537 653 526 653 523

C653 522 655 513 657 503

C660 489 661 484 661 478

L661 471

L659 470

C657 470 642 485 637 493

C635 497 631 503 629 508

C625 515 618 533 618 534

L618 535

L626 518

C631 510 636 500 638 498

C642 492 648 486 651 486

L653 486

L654 488

C655 492 654 501 650 517

C648 524 647 531 647 532

C647 536 644 542 639 550

C637 553 632 561 628 568

C624 574 619 581 617 584

C606 597 590 613 577 622

L569 627

L568 627

L568 626

L570 621

C572 619 577 610 581 602

C590 586 595 574 596 566

L597 562

L591 573

C583 588 572 608 566 616

C560 625 554 639 554 642

L554 644

L555 644

C556 644 560 640 566 635

Z

M919 619

C923 618 930 617 935 616

L944 616

L945 614

L945 613

L941 612

C934 611 923 613 917 616

C911 618 899 627 899 629

L899 630

L906 625

C909 623 915 620 919 619

Z

M543 618

C545 616 547 612 549 609

L552 603

L548 607

C546 609 544 612 542 614

L540 617

L540 610

C540 586 558 538 578 510

C593 489 623 457 642 441

C649 436 655 430 656 429

C659 424 666 403 667 393

C670 380 669 355 666 349

L665 348

L665 349

C664 350 663 355 661 360

C654 382 644 402 634 416

C631 419 625 425 619 430

C613 435 605 443 600 448

L591 457

L589 456

C588 455 587 452 586 450

L585 447

L585 449

C585 453 587 458 589 458

C589 459 591 458 592 458

C597 455 632 423 637 417

C642 410 652 393 659 374

L664 363

L665 367

C667 378 664 398 658 411

C652 424 646 431 620 457

C581 495 570 509 558 533

C550 551 540 576 539 586

C537 596 536 618 537 620

C539 622 541 621 543 618

Z

M830 579

C832 576 834 570 835 566

C837 557 837 540 836 537

L835 534

L834 534

C834 535 833 541 833 549

C832 565 830 575 825 585

L821 593

L824 589

C825 587 828 583 830 579

Z

M1065 582

C1058 572 1051 565 1045 560

C1039 555 1031 550 1029 550

L1027 550

L1027 551

C1027 553 1033 559 1041 563

C1047 567 1052 571 1059 578

C1065 584 1069 588 1069 588

L1070 588

L1065 582

Z

M625 566

C634 552 641 538 642 531

C643 528 644 520 646 514

C648 508 649 502 649 500

L649 497

L647 497

C644 497 640 502 640 505

L640 506

L642 505

C643 504 644 503 645 503

L646 503

L646 509

C645 517 638 537 632 550

C629 556 623 565 619 572

L612 583

L615 579

C617 577 621 571 625 566

Z

M569 545

C573 540 580 530 585 523

C590 517 597 507 600 502

C605 493 614 480 624 469

L629 463

L629 463

C628 463 623 468 617 475

C607 486 581 520 570 536

C562 549 556 562 556 568

L556 572

L559 564

C561 559 566 551 569 545

Z

M320 544

C324 540 330 536 336 533

C347 528 352 523 353 520

L354 518

L352 519

C346 520 336 526 329 532

C321 538 306 554 301 561

L299 564

L306 556

C310 553 316 547 320 544

Z

M686 554

C687 553 688 550 688 548

L689 545

L688 545

C688 545 687 547 686 549

C685 550 684 552 683 552

L682 552

L682 544

C684 527 688 515 695 501

C700 490 705 485 712 481

C717 479 718 478 737 478

L757 478

L757 477

L757 476

L753 475

C749 473 727 473 717 475

C711 476 709 477 704 481

C691 493 682 512 680 532

C678 547 678 555 680 557

L681 559

L683 558

C684 557 686 556 686 554

Z

M702 504

C704 500 707 496 709 494

C713 490 722 486 725 486

L728 486

L728 485

L727 484

L724 485

C711 487 704 492 698 504

C696 509 695 513 694 517

L694 523

L696 517

C697 514 700 508 702 504

Z

M1089 508

C1080 498 1076 493 1071 485

C1068 479 1064 474 1063 474

L1062 473

L1061 474

C1060 479 1068 492 1079 503

C1085 509 1099 520 1101 520

L1101 520

L1089 508

Z

M984 403

C995 397 1006 386 1008 378

L1009 376

L1006 380

C1002 386 996 391 989 395

C979 400 971 405 971 406

L971 407

L975 407

C977 406 981 405 984 403

Z

M232 404

C228 401 225 395 221 383

C219 376 217 370 216 369

L215 368

L215 369

C215 374 218 390 220 394

C223 400 229 406 234 406

L235 406

L232 404

Z

M792 390

C793 389 796 386 797 383

C801 376 809 368 817 362

L822 359

L822 358

L821 358

L814 362

C802 369 792 380 790 389

L789 391

L789 391

C790 391 791 391 792 390

Z

M429 334

C428 333 424 330 420 328

C414 324 413 322 407 314

C404 309 401 304 400 304

L399 303

L400 305

C402 311 408 322 412 327

C416 332 424 337 428 337

L430 337

L429 334

Z

M625 250

C621 238 620 226 620 219

L621 213

L620 215

C615 227 618 253 624 258

L626 259

L627 259

C627 258 626 254 625 250

Z

M418 196

L420 196

L420 195

L420 194

L413 191

C397 185 388 180 384 176

L381 173

L383 176

C386 181 394 189 400 192

C405 195 412 197 415 196

C416 196 417 196 418 196

Z

M350 182

L351 181

L348 179

C342 174 329 173 317 177

L312 178

L312 179

C312 179 315 179 318 178

C325 177 332 178 340 181

C345 183 350 184 350 182

Z

M358 1133

C340 1130 330 1124 317 1112

C306 1100 301 1091 298 1075

C294 1053 291 1043 284 1032

C274 1016 259 1009 238 1009

C228 1009 227 1009 226 1000

L226 994

L235 993

C245 993 263 994 273 996

C281 999 292 1004 297 1008

C306 1017 314 1031 322 1059

C327 1078 331 1086 337 1092

C346 1101 357 1105 376 1105

C389 1105 397 1104 404 1101

L409 1099

L414 1103

C419 1109 425 1120 425 1122

C424 1124 414 1127 398 1132

C387 1134 383 1135 375 1135

C369 1135 361 1134 358 1133

Z

M279 1078

C258 1073 243 1066 230 1054

C219 1043 209 1027 205 1012

C202 1000 202 981 205 970

C211 951 223 935 238 926

C245 921 246 921 258 926

C264 929 272 934 272 936

L272 937

L265 938

C250 940 234 951 228 963

C217 985 217 1007 228 1023

C237 1036 248 1042 269 1043

L282 1043

L283 1049

C284 1053 286 1061 288 1067

C289 1074 291 1079 291 1080

L291 1080

L289 1080

C288 1080 283 1079 279 1078

Z

M901 1047

C897 1043 889 1027 889 1024

C889 1021 904 1006 911 1002

C921 996 930 992 940 991

C948 990 952 990 969 991

C998 994 1008 992 1018 982

C1027 972 1033 959 1033 948

C1033 937 1030 932 1020 926

C1013 923 979 913 970 912

C964 911 959 911 954 912

C941 914 927 910 915 902

C913 900 911 898 911 898

L911 897

L919 895

C937 889 955 889 976 894

C982 895 991 897 998 899

C1012 902 1027 902 1039 899

C1055 894 1075 883 1082 874

C1092 861 1094 848 1085 843

C1082 842 1081 842 1073 844

C1068 846 1063 847 1063 847

C1060 846 1059 841 1060 838

C1061 830 1070 826 1081 826

C1087 826 1089 826 1094 828

C1109 836 1115 853 1108 871

C1105 879 1100 884 1085 893

C1071 901 1066 905 1063 911

C1059 918 1058 922 1057 940

C1054 964 1050 975 1036 989

C1020 1005 1000 1012 976 1010

C945 1007 935 1010 921 1024

C916 1029 913 1033 909 1041

L904 1051

L901 1047

Z

M565 873

C563 872 564 869 572 859

C581 845 583 843 586 843

L589 844

L588 846

C588 849 580 859 572 867

L565 874

L565 873

Z

M628 802

C629 801 630 797 631 793

C635 779 639 770 650 754

C656 745 662 737 664 736

L666 734

L665 738

C664 740 660 747 657 754

C654 760 647 771 643 780

C639 789 633 797 631 800

L628 804

L628 802

Z

M511 563

C511 550 511 548 514 539

C517 529 523 517 530 507

C536 498 539 490 539 485

C539 480 538 477 535 477

C535 477 530 481 525 486

C520 491 513 498 509 500

C502 506 499 510 498 515

L498 519

L496 517

C493 514 493 505 496 498

C499 493 504 488 517 481

C527 475 536 463 542 445

C544 440 546 435 546 435

L548 435

L549 439

C553 447 555 465 553 477

C550 491 545 503 536 519

C532 523 527 532 524 539

C519 549 512 569 512 573

C512 574 512 575 511 576

L511 577

L511 563

Z

M37 567

C26 556 20 541 20 524

C20 516 22 508 27 498

C35 480 48 466 73 448

C109 421 127 403 138 381

C144 369 147 355 149 343

C149 335 149 335 155 333

C158 331 161 330 162 330

L163 330

L163 337

C163 340 162 354 162 367

C160 395 161 398 168 405

C170 408 174 409 178 411

C188 414 193 418 200 428

C209 440 214 442 226 442

L235 443

L235 443

C235 443 229 448 226 450

C221 453 212 456 204 457

C184 460 165 453 158 439

C154 432 153 424 154 405

C155 396 155 388 154 386

L153 383

L146 393

C135 408 111 432 97 442

C80 453 69 464 65 472

C62 479 62 480 66 489

C71 498 71 502 70 509

C67 518 64 524 55 534

C45 546 42 551 42 560

C42 563 43 568 43 570

L45 573

L44 573

C43 573 40 570 37 567

Z

M45 489

C52 479 54 476 54 475

L53 474

L50 475

C47 477 41 484 38 491

C36 495 32 507 32 509

L32 510

L36 503

C38 498 42 492 45 489

Z

M183 443

C176 439 170 432 164 421

L159 411

L159 414

C159 419 163 429 167 434

C170 438 182 445 185 445

L187 445

L183 443

Z

M508 539

C507 537 505 532 503 528

C500 522 500 521 501 517

C503 511 507 506 517 497

C523 493 528 487 530 485

L534 481

L535 482

C536 486 531 499 519 521

C516 525 513 533 512 536

L510 543

L509 543

L508 543

L508 539

Z

M1160 478

C1158 473 1154 463 1149 458

C1145 452 1139 449 1127 445

C1120 443 1114 441 1111 439

C1107 437 1102 431 1102 427

C1102 426 1101 424 1100 422

C1097 420 1096 420 1091 420

L1084 420

L1084 419

C1084 418 1085 416 1087 413

C1089 408 1089 408 1095 408

C1100 408 1101 408 1105 405

C1124 390 1156 403 1162 430

C1166 445 1165 464 1162 477

L1160 482

L1160 478

Z

M1147 423

C1141 418 1132 413 1125 411

C1118 409 1108 410 1107 412

L1106 413

L1107 414

C1108 414 1112 415 1117 415

C1127 416 1138 420 1146 425

C1148 427 1151 428 1152 428

L1153 428

L1147 423

Z

M64 436

C55 415 56 388 67 369

C77 350 96 335 123 325

C127 323 139 319 149 317

C181 307 187 306 193 303

C196 301 200 299 200 297

C201 296 203 290 204 284

C206 272 208 268 213 264

C218 260 221 259 232 255

C238 253 243 250 245 249

C251 246 262 237 268 230

L273 223

L274 224

C276 225 277 235 277 243

C276 264 265 282 248 290

C247 291 239 294 231 295

C213 300 206 303 197 308

C187 315 180 318 159 327

C128 339 113 348 98 362

C84 376 79 389 79 406

C79 412 80 417 81 423

C83 430 84 432 83 433

C80 436 70 443 68 443

L66 443

L64 436

Z

M226 290

C238 284 250 273 254 264

C254 262 255 261 255 260

L255 260

L250 266

C244 274 235 281 226 285

C217 288 211 291 211 293

L210 294

L214 293

C217 293 222 291 226 290

Z

M592 410

C597 397 590 387 571 377

C556 369 550 362 550 349

C550 344 550 343 542 332

C539 328 536 321 534 318

C527 303 528 276 537 250

L539 242

L540 242

C540 242 541 246 543 251

C545 258 545 259 544 264

C542 273 541 293 542 305

C543 319 545 324 551 330

C555 334 557 335 565 338

C580 343 587 347 593 353

C601 361 603 367 603 383

C604 397 602 402 596 408

L592 412

L592 410

Z

M589 363

C586 359 575 349 571 347

C569 346 565 345 563 344

L560 344

L561 345

C561 346 567 349 572 353

C578 356 584 360 587 362

C589 364 591 366 591 366

L591 366

L589 363

Z

M1048 397

C1041 384 1040 370 1044 357

C1059 317 1061 306 1056 286

C1050 260 1027 232 1007 224

L1002 223

L1002 212

C1001 206 1001 201 1002 201

L1002 201

L1008 203

C1019 208 1033 218 1042 227

C1057 241 1066 258 1071 278

C1075 294 1073 321 1065 345

C1059 365 1058 374 1061 386

C1063 391 1063 391 1060 395

C1058 397 1055 399 1053 400

L1050 402

L1048 397

Z

M754 382

C747 362 750 337 760 320

C767 309 783 296 799 289

L805 286

L807 288

C811 291 811 292 806 295

C804 296 801 299 799 301

C795 305 795 305 795 311

C795 314 796 320 797 324

C798 331 798 332 797 336

C794 343 789 348 779 355

C765 365 761 370 757 382

L755 388

L754 382

Z

M769 328

C770 324 774 318 778 314

C783 308 786 303 785 302

L784 302

L781 305

C776 309 769 319 767 327

C766 330 765 335 764 339

L764 346

L765 340

C766 336 767 331 769 328

Z

M935 370

C942 365 948 358 951 355

C952 352 954 346 955 340

C958 324 962 316 969 313

C971 312 976 311 981 310

C991 309 992 308 1002 299

C1005 295 1011 290 1015 288

C1021 284 1036 278 1044 277

L1049 277

L1050 280

C1051 281 1051 284 1052 286

L1052 291

L1040 291

C1029 291 1028 291 1021 294

C1017 296 1012 300 1009 303

C1002 310 1001 314 1001 329

C1002 342 1000 346 992 354

C985 360 977 364 966 367

C955 369 939 372 935 372

L933 372

L935 370

Z

M969 334

C971 331 976 327 980 325

C984 323 989 319 991 318

L994 315

L992 314

C991 314 987 315 985 316

C975 321 962 336 960 346

L959 349

L962 343

C964 341 967 336 969 334

Z

M261 349

C258 341 257 319 259 310

C261 302 266 291 271 285

C277 279 284 275 299 271

C307 269 313 267 316 265

C318 264 323 260 327 257

C334 252 348 244 353 243

L355 242

L352 248

C349 254 348 255 340 260

C335 262 330 266 327 269

C323 273 323 273 324 278

C325 290 325 295 321 302

C315 314 306 321 288 324

C276 327 269 335 266 349

C265 352 264 355 264 356

L263 356

L261 349

Z

M287 291

C291 287 295 284 299 282

C303 280 307 278 309 277

L312 275

L308 275

C298 277 294 279 287 285

C282 291 277 299 276 306

L275 309

L279 302

C281 299 285 294 287 291

Z

M600 340

C599 334 594 323 589 318

C588 317 583 313 578 311

C552 296 549 291 552 270

C553 263 553 263 549 252

C526 191 542 135 590 110

C595 108 599 106 599 106

L601 106

L602 112

C603 116 604 121 605 125

L605 131

L597 134

C572 147 553 185 554 221

C555 245 564 259 577 256

C580 256 582 256 585 258

C594 262 599 271 604 288

C608 308 608 328 602 341

L600 346

L600 340

Z

M588 286

C583 276 569 263 564 263

L562 263

L562 264

C562 265 567 270 577 278

C583 283 588 287 589 289

C589 290 590 291 591 291

L591 291

L588 286

Z

M877 323

C861 321 845 315 834 308

C831 306 823 299 817 292

C804 278 799 275 796 276

C795 276 793 278 790 280

C782 286 775 287 766 284

C755 280 742 282 733 289

L729 293

L730 290

C733 277 742 265 754 259

C760 255 772 254 781 255

C792 257 795 259 816 280

C837 300 839 302 853 307

C862 310 875 312 881 312

L887 312

L887 317

C888 320 888 323 887 323

C887 324 885 324 877 323

Z

M763 265

C766 265 773 266 778 268

C784 269 789 270 790 270

L793 270

L793 268

L793 267

L787 265

C775 260 756 262 749 267

L747 270

L752 267

C756 265 759 265 763 265

Z

M919 319

C918 318 916 309 916 309

C916 308 921 306 927 303

C933 300 940 297 942 295

C948 290 958 278 958 276

L958 274

L957 274

C956 274 949 274 941 274

C930 274 924 275 918 276

C908 278 898 279 894 277

C893 276 888 272 883 267

C872 256 864 252 853 252

L846 252

L846 251

C847 249 858 243 865 240

C878 236 891 238 905 245

C911 247 914 250 922 257

C930 266 931 267 935 268

C946 269 959 263 967 253

C975 242 978 231 978 215

C978 192 971 174 959 162

C949 153 932 144 919 140

C914 139 913 138 913 136

C912 134 911 130 909 126

C907 123 906 120 906 119

L906 119

L912 119

C918 120 933 125 940 129

C962 140 981 158 990 178

C1000 202 998 238 983 268

C971 291 955 306 931 316

C921 320 919 321 919 319

Z

M922 269

C922 269 920 266 917 263

C912 259 902 253 895 250

L891 248

L891 248

C891 249 892 250 894 251

C896 251 901 255 905 259

C916 268 918 270 920 270

L922 270

L922 269

Z

M142 298

C137 274 137 262 143 244

C151 220 169 201 195 188

C205 182 220 178 240 174

C265 168 276 165 285 161

C302 154 316 144 329 130

C336 122 337 122 341 122

C343 123 347 124 350 125

L355 126

L355 127

C355 129 343 143 337 149

C319 165 289 177 248 185

C203 193 172 214 164 242

C159 257 158 271 161 301

L161 309

L159 309

C157 310 146 312 145 312

L144 312

L142 298

Z

M186 261

C187 243 194 224 201 217

C203 215 210 211 216 208

C230 202 233 199 235 195

C236 191 239 190 246 189

L248 189

L249 193

C250 195 250 204 250 211

C251 226 250 229 244 235

C240 240 235 242 224 245

C211 248 205 252 195 262

L186 271

L186 261

Z

M210 233

C223 228 234 217 236 208

L236 205

L234 207

C232 208 228 212 225 217

C217 226 212 230 205 234

L200 237

L202 236

C203 236 207 235 210 233

Z

M559 229

C558 221 558 221 569 211

C581 199 587 193 592 186

C610 159 615 132 608 109

C601 91 589 77 565 62

C527 40 499 34 477 45

C466 51 464 54 467 63

C470 73 469 77 462 92

C451 112 451 121 461 126

L465 128

L461 128

C452 128 440 123 433 116

C421 104 418 88 426 74

C430 65 433 62 447 56

C454 52 460 49 461 47

L463 45

L461 44

C456 44 439 49 428 54

C411 62 393 76 380 90

C374 97 374 97 365 95

C360 94 355 94 355 93

L355 93

L359 88

C385 54 428 30 477 24

C491 22 510 22 521 23

C538 26 561 35 581 46

C611 64 619 65 635 54

C640 49 654 43 661 41

C664 40 665 40 670 42

C675 45 681 50 681 52

L681 53

L678 53

C667 55 647 69 641 78

C633 89 633 92 632 123

C632 154 632 157 625 170

C617 185 603 201 584 215

C578 220 571 226 567 229

C564 232 561 235 561 235

L560 235

L559 229

Z

M443 79

C444 76 447 71 450 67

L456 61

L456 60

L455 59

L453 60

C449 61 442 69 441 75

C439 82 438 91 439 94

L439 96

L440 89

C441 86 442 81 443 79

Z

M710 162

C715 154 716 147 714 135

C709 112 710 105 715 95

C719 88 727 78 734 73

L738 70

L740 71

C741 71 742 73 743 74

L745 77

L742 80

C738 84 735 90 735 95

C735 99 735 100 743 109

C755 125 749 151 731 160

C726 163 716 166 711 166

L708 166

L710 162

Z

M726 118

C726 112 726 106 727 103

C728 100 728 96 728 93

L728 89

L726 91

C723 95 723 102 724 121

L724 136

L725 132

C726 129 726 123 726 118

Z

M688 133

C680 127 675 118 673 106

C671 93 675 79 685 69

C690 63 690 63 690 58

C688 41 664 31 629 32

C614 33 601 35 590 39

C582 42 582 42 578 39

C576 37 571 35 568 33

C565 32 562 30 562 30

L562 29

L567 27

C575 24 590 19 601 17

C628 11 659 17 681 32

C700 45 714 70 710 84

C710 86 707 92 704 96

C695 110 694 114 694 126

L694 136

L693 136

C693 136 691 135 688 133

Z

M694 94

C700 85 703 76 701 71

L701 68

L700 68

L699 68

L697 74

C697 78 694 86 692 93

C689 99 687 106 687 107

L687 109

L688 105

C689 103 692 98 694 94

Z

M670 860

C671 858 672 853 674 848

C680 829 681 821 682 812

L682 802

L683 802

C683 802 686 804 688 807

C692 811 697 823 697 827

L697 829

L696 827

C695 826 694 825 693 824

C689 822 687 825 684 834

C681 841 673 857 671 860

L670 862

L670 860

Z

"/>

<path fill="#ffffff" stroke="none" d="
M641 1148

C641 1148 643 1148 643 1148

L645 1149

L642 1149

L640 1149

L641 1148

Z

M739 1148

C739 1147 740 1147 741 1146

L743 1145

L741 1146

C740 1147 740 1148 739 1148

L739 1148

L739 1148

Z

M370 1105

C370 1105 372 1105 372 1105

L374 1106

L371 1106

L369 1106

L370 1105

Z

M378 1105

C379 1105 381 1105 381 1105

L383 1106

L380 1106

L377 1106

L378 1105

Z

M409 1088

L406 1084

L410 1087

C412 1090 414 1092 414 1092

L414 1092

L414 1092

C414 1092 412 1090 409 1088

Z

M510 1087

L510 1085

L511 1086

C511 1086 511 1088 511 1088

L510 1090

L510 1087

Z

M510 1079

L510 1077

L511 1078

C511 1078 511 1080 511 1080

L510 1082

L510 1079

Z

M885 1078

C885 1078 887 1078 887 1078

L889 1079

L886 1079

L884 1079

L885 1078

Z

M893 1078

C893 1078 895 1078 895 1078

L897 1079

L894 1079

L892 1079

L893 1078

Z

M709 1071

L709 1070

L710 1071

L710 1072

L710 1073

L709 1073

L709 1071

Z

M581 1063

L581 1062

L582 1063

L582 1064

L582 1065

L581 1065

L581 1063

Z

M560 1059

L560 1055

L561 1057

C561 1058 561 1060 561 1061

L560 1064

L560 1059

Z

M581 1053

L581 1052

L582 1053

L582 1054

L582 1055

L581 1055

L581 1053

Z

M898 1053

L897 1052

L898 1053

C899 1054 900 1054 900 1055

L900 1055

L900 1055

C899 1055 899 1054 898 1053

Z

M972 1047

C972 1047 973 1045 975 1043

L979 1041

L976 1044

C974 1046 972 1047 972 1047

L972 1047

L972 1047

Z

M273 1043

C274 1043 276 1043 277 1043

L279 1044

L275 1044

L271 1044

L273 1043

Z

M821 1043

C822 1043 824 1043 825 1043

L827 1044

L823 1044

L820 1044

L821 1043

Z

M964 1033

C965 1031 967 1030 967 1030

L967 1030

L965 1033

C964 1034 962 1035 962 1035

L962 1035

L964 1033

Z

M379 1016

L380 1016

L381 1016

L381 1017

L379 1017

L378 1017

L379 1016

Z

M386 1016

L387 1016

L388 1016

L388 1017

L386 1017

L385 1017

L386 1016

Z

M984 1010

C985 1010 987 1010 987 1010

L989 1011

L986 1011

L983 1011

L984 1010

Z

M493 998

C495 996 497 994 497 994

L497 994

L494 998

C491 1000 489 1002 489 1002

L489 1002

L493 998

Z

M195 999

L195 998

L196 999

L196 1000

L196 1001

L195 1001

L195 999

Z

M219 996

L219 993

L220 994

C220 995 220 997 220 998

L219 1000

L219 996

Z

M235 993

L236 993

L237 993

L237 994

L235 994

L234 994

L235 993

Z

M251 993

L252 993

L253 993

L253 994

L251 994

L250 994

L251 993

Z

M160 991

L159 989

L161 990

C162 991 163 992 163 993

L163 993

L163 993

C162 993 161 992 160 991

Z

M235 953

C236 951 238 950 238 950

L238 950

L236 953

C235 954 233 955 233 955

L233 955

L235 953

Z

M1056 938

L1056 937

L1057 938

L1057 939

L1057 940

L1056 940

L1056 938

Z

M225 936

C225 935 227 934 227 934

L227 934

L226 936

C225 937 223 938 223 938

L223 938

L225 936

Z

M797 936

C797 936 799 936 799 936

L801 937

L798 937

L796 937

L797 936

Z

M810 936

C810 936 812 936 812 936

L814 937

L811 937

L809 937

L810 936

Z

M973 935

L972 933

L974 934

C975 935 976 936 976 937

L976 937

L976 937

C975 937 974 936 973 935

Z

M497 922

C498 920 500 919 500 919

L500 919

L498 922

C497 923 495 924 495 924

L495 924

L497 922

Z

M864 905

L863 904

L864 905

C865 906 866 906 866 907

L866 907

L866 907

C865 907 865 906 864 905

Z

M178 902

C179 902 181 902 181 902

L183 903

L180 903

L177 903

L178 902

Z

M491 896

C491 895 492 895 493 894

L495 893

L493 894

C492 895 492 896 491 896

L491 896

L491 896

Z

M100 885

L99 883

L101 884

C102 885 103 886 103 887

L103 887

L103 887

C102 887 101 886 100 885

Z

M501 882

C501 881 502 881 503 880

L505 879

L503 880

C502 881 502 882 501 882

L501 882

L501 882

Z

M631 879

L631 876

L632 877

C632 878 632 880 632 880

L631 882

L631 879

Z

M491 880

C491 880 492 878 494 876

L498 874

L495 877

C493 879 491 880 491 880

L491 880

L491 880

Z

M503 869

C503 868 504 868 505 867

L507 866

L505 867

C504 868 504 869 503 869

L503 869

L503 869

Z

M88 857

L88 854

L89 855

C89 856 89 858 89 859

L88 861

L88 857

Z

M496 856

L497 856

L496 855

L496 854

L496 854

L497 855

L499 854

L501 853

L499 855

C498 856 496 857 496 857

L495 857

L496 856

Z

M506 847

C506 846 507 846 508 845

L510 844

L508 845

C507 846 507 847 506 847

L506 847

L506 847

Z

M474 826

C475 824 477 823 477 823

L477 823

L475 826

C474 827 472 828 472 828

L472 828

L474 826

Z

M677 811

L677 809

L678 810

C678 810 678 812 678 812

L677 814

L677 811

Z

M497 812

C497 811 498 811 499 810

L501 809

L499 810

C498 811 498 812 497 812

L497 812

L497 812

Z

M530 752

L530 748

L530 748

L531 748

L531 752

C531 754 531 755 531 756

L530 756

L530 752

Z

M95 743

L94 742

L95 743

C96 744 97 744 97 745

L97 745

L97 745

C96 745 96 744 95 743

Z

M87 735

L86 734

L87 735

C88 736 89 736 89 737

L89 737

L89 737

C88 737 88 736 87 735

Z

M85 729

L84 727

L86 728

C87 729 88 730 88 731

L88 731

L88 731

C87 731 86 730 85 729

Z

M104 728

L103 727

L104 728

C105 729 106 729 106 730

L106 730

L106 730

C105 730 105 729 104 728

Z

M507 727

L507 724

L508 725

C508 726 508 728 508 728

L507 730

L507 727

Z

M262 722

L261 720

L263 721

C264 722 265 723 265 724

L265 724

L265 724

C264 724 263 723 262 722

Z

M923 708

L923 707

L924 708

L924 709

L924 710

L923 710

L923 708

Z

M938 706

L938 705

L939 705

L940 705

L940 706

C939 707 939 707 938 707

L938 707

L938 706

Z

M1076 701

C1077 701 1079 701 1080 701

L1083 702

L1078 702

L1074 702

L1076 701

Z

M194 697

L192 695

L194 697

C196 698 197 699 197 700

L197 700

L197 700

C196 700 195 699 194 697

Z

M1059 696

L1058 695

L1059 696

C1060 697 1061 697 1061 698

L1061 698

L1061 698

C1060 698 1060 697 1059 696

Z

M582 686

C584 684 586 682 586 682

L586 682

L583 686

C581 687 579 689 579 689

L579 689

L582 686

Z

M198 685

L197 683

L199 684

C200 685 201 686 201 687

L201 687

L201 687

C200 687 199 686 198 685

Z

M203 685

L202 683

L204 684

C205 685 206 686 206 687

L206 687

L206 687

C205 687 204 686 203 685

Z

M947 687

C947 686 948 686 949 685

L951 684

L949 685

C948 686 948 687 947 687

L947 687

L947 687

Z

M587 677

C587 676 588 676 589 675

L591 674

L589 675

C588 676 588 677 587 677

L587 677

L587 677

Z

M523 675

C523 675 524 673 526 671

L530 669

L527 672

C525 674 523 675 523 675

L523 675

L523 675

Z

M238 660

L237 658

L239 659

C240 660 241 661 241 662

L241 662

L241 662

C240 662 239 661 238 660

Z

M999 658

C999 657 1000 657 1001 656

L1003 655

L1001 656

C1000 657 1000 658 999 658

L999 658

L999 658

Z

M681 653

L681 648

L682 650

C682 652 682 654 682 655

L681 658

L681 653

Z

M86 645

L86 640

L87 642

C87 644 87 646 87 647

L86 650

L86 645

Z

M898 630

C898 629 898 629 899 629

L899 629

L899 630

L899 631

L898 631

L897 631

L898 630

Z

M902 626

C903 625 904 624 904 624

L904 624

L903 625

L902 627

L903 627

L903 628

L901 628

L900 628

L902 626

Z

M812 619

C814 616 817 614 817 614

L817 614

L817 614

C817 614 815 617 812 619

L808 624

L812 619

Z

M954 620

C954 620 955 618 957 616

L961 614

L958 617

C956 619 954 620 954 620

L954 620

L954 620

Z

M548 606

C548 605 549 605 549 604

L551 603

L552 604

L552 606

L552 605

L551 604

L549 605

L548 606

L548 606

Z

M536 603

L536 601

L537 602

C537 602 537 604 537 604

L536 606

L536 603

Z

M610 596

C610 595 612 594 612 594

L612 594

L611 596

C610 597 608 598 608 598

L608 598

L610 596

Z

M614 592

C614 591 615 591 616 590

L618 589

L616 590

C615 591 615 592 614 592

L614 592

L614 592

Z

M277 579

L277 578

L278 579

L278 580

L278 581

L277 581

L277 579

Z

M694 575

L694 574

L695 575

L695 576

L695 577

L694 577

L694 575

Z

M277 573

L277 572

L278 573

L278 574

L278 575

L277 575

L277 573

Z

M510 574

L510 573

L510 572

L511 572

L511 573

L512 575

L512 575

C511 575 511 575 510 574

Z

M555 570

L555 569

L556 570

L556 571

L556 572

L555 572

L555 570

Z

M694 567

L694 565

L695 566

C695 566 695 568 695 568

L694 570

L694 567

Z

M41 559

L41 558

L42 559

L42 560

L42 561

L41 561

L41 559

Z

M310 553

C312 551 314 549 314 549

L314 549

L311 553

C309 554 307 556 307 556

L307 556

L310 553

Z

M682 545

L682 544

L683 545

L683 546

L683 547

L682 547

L682 545

Z

M833 536

L833 535

L834 536

L834 537

L834 538

L833 538

L833 536

Z

M52 537

C52 536 53 536 54 535

L56 534

L54 535

C53 536 53 537 52 537

L52 537

L52 537

Z

M1100 518

L1099 517

L1100 518

C1101 519 1102 519 1102 520

L1102 520

L1102 520

C1101 520 1101 519 1100 518

Z

M496 517

L495 516

L496 517

C497 518 498 518 498 519

L498 519

L498 519

C497 519 497 518 496 517

Z

M217 512

C218 510 220 509 220 509

L220 509

L218 512

C217 513 215 514 215 514

L215 514

L217 512

Z

M722 504

C722 503 724 502 724 502

L724 502

L723 504

C722 505 720 506 720 506

L720 506

L722 504

Z

M70 503

L70 501

L71 502

C71 502 71 504 71 504

L70 506

L70 503

Z

M1077 502

L1076 500

L1078 501

C1079 502 1080 503 1080 504

L1080 504

L1080 504

C1079 504 1078 503 1077 502

Z

M654 491

L654 490

L655 491

L655 492

L655 493

L654 493

L654 491

Z

M814 488

L813 487

L814 488

C815 489 816 489 816 490

L816 490

L816 490

C815 490 815 489 814 488

Z

M434 488

C435 488 437 488 438 488

L440 489

L436 489

L433 489

L434 488

Z

M728 485

L727 484

L728 485

L730 485

L730 486

L730 486

L729 486

C729 486 728 486 728 485

Z

M703 482

C703 481 705 480 705 480

L705 480

L704 482

C703 483 701 484 701 484

L701 484

L703 482

Z

M661 478

L661 474

L662 476

C662 477 662 479 662 480

L661 482

L661 478

Z

M745 478

C747 478 749 478 751 478

L755 479

L748 479

L742 479

L745 478

Z

M605 471

C608 467 612 464 612 464

L612 464

L606 471

C602 475 598 478 598 478

L598 478

L605 471

Z

M781 477

C783 477 785 477 787 477

L790 478

L784 478

L779 478

L781 477

Z

M617 475

C617 474 618 474 619 473

L621 472

L619 473

C618 474 618 475 617 475

L617 475

L617 475

Z

M608 474

C608 473 609 473 610 472

L612 471

L610 472

C609 473 609 474 608 474

L608 474

L608 474

Z

M732 473

C732 473 734 473 734 473

L736 474

L733 474

L731 474

L732 473

Z

M743 473

L744 473

L745 473

L745 474

L743 474

L742 474

L743 473

Z

M559 460

L559 456

L560 458

C560 459 560 461 560 462

L559 465

L559 460

Z

M74 460

C74 459 76 458 76 458

L76 458

L75 460

C74 461 72 462 72 462

L72 462

L74 460

Z

M191 457

L192 457

L193 457

L193 458

L191 458

L190 458

L191 457

Z

M1004 454

L1005 454

L1006 454

L1006 455

L1004 455

L1003 455

L1004 454

Z

M1021 454

L1022 454

L1023 454

L1023 455

L1021 455

L1020 455

L1021 454

Z

M234 443

L233 442

L234 442

L235 442

L235 443

L235 444

L235 444

C234 444 234 444 234 443

Z

M638 439

C640 436 643 434 643 434

L643 434

L639 439

C636 442 633 444 633 444

L633 444

L638 439

Z

M174 437

L173 435

L175 436

C176 437 177 438 177 439

L177 439

L177 439

C176 439 175 438 174 437

Z

M909 434

L910 434

L911 434

L911 435

L909 435

L908 435

L909 434

Z

M598 424

C598 424 600 424 600 424

L602 425

L599 425

L597 425

L598 424

Z

M153 419

L153 414

L154 416

C154 418 154 420 154 422

L153 425

L153 419

Z

M193 419

L192 418

L193 419

C194 420 195 420 195 421

L195 421

L195 421

C194 421 194 420 193 419

Z

M1086 419

C1088 419 1090 419 1091 419

L1094 420

L1089 420

L1084 420

L1086 419

Z

M1116 415

C1116 415 1118 415 1118 415

L1120 416

L1117 416

L1115 416

L1116 415

Z

M880 409

C881 407 883 406 883 406

L883 406

L881 409

C880 410 878 411 878 411

L878 411

L880 409

Z

M774 408

C774 407 776 406 776 406

L776 406

L775 408

C774 409 772 410 772 410

L772 410

L774 408

Z

M967 400

L967 399

L968 400

L968 401

L968 402

L967 402

L967 400

Z

M1010 400

C1010 399 1012 398 1012 398

L1012 398

L1011 400

C1010 401 1008 402 1008 402

L1008 402

L1010 400

Z

M240 399

L239 398

L240 399

C241 400 242 400 242 401

L242 401

L242 401

C241 401 241 400 240 399

Z

M832 385

C832 384 834 383 834 383

L834 383

L833 385

C832 386 830 387 830 387

L830 387

L832 385

Z

M665 380

L665 379

L666 380

L666 381

L666 382

L665 382

L665 380

Z

M669 377

L669 373

L670 375

C670 376 670 378 670 379

L669 381

L669 377

Z

M1009 375

C1009 374 1009 374 1010 374

L1010 374

L1010 375

L1010 376

L1009 376

L1008 376

L1009 375

Z

M557 368

L556 367

L557 368

C558 369 559 369 559 370

L559 370

L559 370

C558 370 558 369 557 368

Z

M793 364

C793 363 794 363 795 362

L797 361

L795 362

C794 363 794 364 793 364

L793 364

L793 364

Z

M582 355

L580 353

L582 355

C584 356 585 357 585 358

L585 358

L585 358

C584 358 583 357 582 355

Z

M162 354

L162 352

L163 353

C163 353 163 355 163 355

L162 357

L162 354

Z

M650 340

L650 338

L651 339

C651 339 651 341 651 341

L650 343

L650 340

Z

M650 335

L650 333

L651 334

C651 334 651 336 651 336

L650 338

L650 335

Z

M913 332

L913 327

L914 329

C914 331 914 333 914 334

L913 337

L913 332

Z

M1001 334

L1001 331

L1002 332

C1002 333 1002 335 1002 335

L1001 337

L1001 334

Z

M393 333

L392 332

L393 333

C394 334 395 334 395 335

L395 335

L395 335

C394 335 394 334 393 333

Z

M970 328

C970 328 971 326 973 324

L977 322

L974 325

C972 327 970 328 970 328

L970 328

L970 328

Z

M883 323

C883 323 885 323 885 323

L887 324

L884 324

L882 324

L883 323

Z

M887 321

L887 320

L888 321

L888 322

L888 323

L887 323

L887 321

Z

M768 310

C768 309 769 309 770 308

L772 307

L770 308

C769 309 769 310 768 310

L768 310

L768 310

Z

M797 302

C797 301 798 301 799 300

L801 299

L799 300

C798 301 798 302 797 302

L797 302

L797 302

Z

M1073 296

L1073 291

L1074 293

C1074 295 1074 297 1074 298

L1073 301

L1073 296

Z

M1004 296

C1004 295 1006 294 1006 294

L1006 294

L1005 296

C1004 297 1002 298 1002 298

L1002 298

L1004 296

Z

M898 291

L896 289

L898 291

C900 292 901 293 901 294

L901 294

L901 294

C900 294 899 293 898 291

Z

M824 289

L820 284

L820 284

C820 284 823 286 825 289

L829 293

L829 293

C829 293 826 291 824 289

Z

M289 289

C289 288 291 287 291 287

L291 287

L290 289

C289 290 287 291 287 291

L287 291

L289 289

Z

M585 286

L584 284

L586 285

C587 286 588 287 588 288

L588 288

L588 288

C587 288 586 287 585 286

Z

M286 286

C286 285 287 285 288 284

L290 283

L288 284

C287 285 287 286 286 286

L286 286

L286 286

Z

M260 282

C261 280 263 279 263 279

L263 279

L261 282

C260 283 258 284 258 284

L258 284

L260 282

Z

M902 278

C902 278 904 278 904 278

L906 279

L903 279

L901 279

L902 278

Z

M158 273

L158 268

L159 270

C159 272 159 274 159 276

L158 279

L158 273

Z

M322 276

L322 275

L323 276

L323 277

L323 278

L322 278

L322 276

Z

M675 272

L675 271

L676 272

L676 273

L676 274

L675 274

L675 272

Z

M917 264

L916 262

L918 263

C919 264 920 265 920 266

L920 266

L920 266

C919 266 918 265 917 264

Z

M925 262

L924 261

L925 262

C926 263 927 263 927 264

L927 264

L927 264

C926 264 926 263 925 262

Z

M773 254

C773 254 775 254 775 254

L777 255

L774 255

L772 255

L773 254

Z

M675 245

L675 244

L676 245

L676 246

L676 247

L675 247

L675 245

Z

M1032 242

L1031 241

L1032 242

C1033 243 1034 243 1034 244

L1034 244

L1034 244

C1033 244 1033 243 1032 242

Z

M879 221

L880 221

L881 221

L881 222

L879 222

L878 222

L879 221

Z

M978 218

L978 216

L979 217

C979 217 979 219 979 219

L978 221

L978 218

Z

M978 212

L978 210

L979 211

C979 211 979 213 979 213

L978 215

L978 212

Z

M714 208

C714 208 716 208 716 208

L718 209

L715 209

L713 209

L714 208

Z

M602 200

C604 198 606 196 606 196

L606 196

L603 200

C601 201 599 203 599 203

L599 203

L602 200

Z

M538 199

L538 195

L539 197

C539 198 539 200 539 201

L538 203

L538 199

Z

M959 196

L960 196

L961 196

L961 197

L959 197

L958 197

L959 196

Z

M350 182

L351 182

L350 180

L349 179

L350 180

L352 181

L351 182

C351 183 351 183 350 183

L350 183

L350 182

Z

M322 177

C323 177 325 177 326 177

L328 178

L324 178

L321 178

L322 177

Z

M638 127

L638 124

L639 125

C639 126 639 128 639 129

L638 131

L638 127

Z

M816 127

C817 127 819 127 820 127

L822 128

L818 128

L815 128

L816 127

Z

M632 124

L632 123

L633 124

L633 125

L633 126

L632 126

L632 124

Z

M723 122

L723 121

L724 122

L724 123

L724 124

L723 124

L723 122

Z

M319 116

L320 116

L321 116

L321 117

L319 117

L318 117

L319 116

Z

M327 116

C327 116 329 116 329 116

L331 117

L328 117

L326 117

L327 116

Z

M710 113

L710 111

L711 112

C711 112 711 114 711 114

L710 116

L710 113

Z

M722 106

L722 102

L723 104

C723 105 723 107 723 108

L722 110

L722 106

Z

M326 99

L327 99

L328 99

L328 100

L326 100

L325 100

L326 99

Z

M342 99

L343 99

L344 99

L344 100

L342 100

L341 100

L342 99

Z

M439 96

L438 94

L439 95

C440 95 440 96 440 97

L439 98

L439 96

Z

M728 94

L728 91

L729 92

C729 93 729 95 729 95

L728 97

L728 94

Z

M741 72

L740 71

L741 72

C742 73 743 73 743 74

L743 74

L743 74

C742 74 742 73 741 72

Z

M790 68

L791 68

L792 68

L792 69

L790 69

L789 69

L790 68

Z

M445 66

C445 65 446 65 447 64

L449 63

L447 64

C446 65 446 66 445 66

L445 66

L445 66

Z

M690 59

L690 58

L691 59

L691 60

L691 61

L690 61

L690 59

Z

M678 48

L677 47

L678 48

C679 49 680 49 680 50

L680 50

L680 50

C679 50 679 49 678 48

Z

M497 39

L498 39

L499 39

L499 40

L497 40

L496 40

L497 39

Z

M504 39

L505 39

L506 39

L506 40

L504 40

L503 40

L504 39

Z

M624 32

L625 32

L626 32

L626 33

L624 33

L623 33

L624 32

Z

"/>

</svg>

