<?xml version="1.0" encoding="UTF-8" standalone="no"?>
<!DOCTYPE svg PUBLIC "-//W3C//DTD SVG 1.1//EN" "http://www.w3.org/Graphics/SVG/1.1/DTD/svg11.dtd">
<svg width="100%" height="100%" viewBox="0 0 6000 3600" version="1.1" xmlns="http://www.w3.org/2000/svg" xmlns:xlink="http://www.w3.org/1999/xlink" xml:space="preserve" xmlns:serif="http://www.serif.com/" style="fill-rule:evenodd;clip-rule:evenodd;stroke-linecap:round;stroke-linejoin:round;stroke-miterlimit:1.5;">
    <g transform="matrix(1,0,0,1,-944.882,-265.733)">
        <g transform="matrix(-0.943396,0,0,0.943396,3365.03,1673.66)">
            <path d="M1188.19,917.652C1111.1,860.619 1062.99,770.49 1062.99,667.323" style="fill:none;stroke:rgb(0,0,255);stroke-width:0.88px;"/>
        </g>
        <g transform="matrix(-1,0,0,1,3425.2,1771.71)">
            <path d="M1535.43,531.496C1487.1,626.267 1456.05,708.661 1358.27,708.661C1260.49,708.661 1181.1,629.276 1181.1,531.496" style="fill:none;stroke:rgb(0,0,255);stroke-width:0.83px;"/>
        </g>
        <g transform="matrix(-1,0,0,1,3070.87,1771.71)">
            <path d="M708.661,531.496C708.661,498.903 735.123,472.441 767.717,472.441C800.31,472.441 826.772,498.903 826.772,531.496" style="fill:none;stroke:rgb(0,0,255);stroke-width:0.83px;"/>
        </g>
        <g transform="matrix(0.666896,0,0,1.6669,2007.75,-1890.31)">
            <path d="M354.392,2657.48L531.496,2834.59" style="fill:none;stroke:rgb(0,0,255);stroke-width:0.66px;"/>
        </g>
        <g transform="matrix(2.58824,0,0,1.76471,-1397.87,-2375.99)">
            <path d="M950.787,2952.7C1118.11,2952.7 1285.43,2952.7 1452.76,2952.7" style="fill:none;stroke:rgb(0,0,255);stroke-width:0.38px;"/>
        </g>
        <g transform="matrix(1,0,0,3.18966,460.63,-5152.05)">
            <path d="M602.362,1818.9L602.362,2503.94" style="fill:none;stroke:rgb(0,0,255);stroke-width:0.35px;"/>
        </g>
        <g transform="matrix(0.5,0,0,0.5,649.606,147.699)">
            <path d="M1535.43,531.496C1535.43,629.276 1456.05,708.661 1358.27,708.661C1260.49,708.661 1181.1,629.276 1181.1,531.496" style="fill:none;stroke:rgb(0,0,255);stroke-width:1.67px;"/>
        </g>
        <g transform="matrix(0.5,0,0,0.5,826.772,147.638)">
            <path d="M767.717,472.441C800.31,472.441 826.772,498.903 826.772,531.496" style="fill:none;stroke:rgb(0,0,255);stroke-width:1.67px;"/>
        </g>
        <g transform="matrix(0.5,0,0,0.5,1062.99,147.638)">
            <path d="M708.661,531.496C708.661,498.903 735.123,472.441 767.717,472.441C800.31,472.441 826.772,498.903 826.772,531.496" style="fill:none;stroke:rgb(0,0,255);stroke-width:1.67px;"/>
        </g>
        <g transform="matrix(-1,0,0,1,2381.1,-206.693)">
            <path d="M491.339,2509.9C556.955,2382.05 688.189,2126.33 696.85,2019.68C702.636,1948.45 596.417,1896.16 543.307,1870.02" style="fill:none;stroke:rgb(0,0,255);stroke-width:0.83px;"/>
        </g>
        <g transform="matrix(-1,0,0,1,2213.91,-1090.43)">
            <path d="M659.575,2478.23C678.46,2359.17 716.228,2121.05 696.85,2019.68C683.43,1949.48 590.015,1896.51 543.307,1870.02" style="fill:none;stroke:rgb(0,0,255);stroke-width:0.83px;"/>
        </g>
        <g transform="matrix(-1,0,0,1,3089.76,856.299)">
            <path d="M1535.43,531.496C1519.78,629.628 1456.05,708.661 1358.27,708.661C1260.49,708.661 1181.1,629.276 1181.1,531.496" style="fill:none;stroke:rgb(0,0,255);stroke-width:0.83px;"/>
        </g>
        <g transform="matrix(-1,0,0,1,2735.43,856.299)">
            <path d="M708.661,531.496C708.661,498.903 735.123,472.441 767.717,472.441C800.31,472.441 826.772,498.903 826.772,531.496" style="fill:none;stroke:rgb(0,0,255);stroke-width:0.83px;"/>
        </g>
        <g transform="matrix(-0.943396,0,0,0.943396,3029.59,758.245)">
            <path d="M1263.31,959.387C1143.42,915.512 1062.99,802.325 1062.99,667.323" style="fill:none;stroke:rgb(0,0,255);stroke-width:0.88px;"/>
        </g>
        <g transform="matrix(-0.5,0,0,0.5,2296.06,376.833)">
            <path d="M1535.43,531.496C1511.44,627.847 1456.05,708.661 1358.27,708.661C1260.49,708.661 1181.1,629.276 1181.1,531.496" style="fill:none;stroke:rgb(0,0,255);stroke-width:1.67px;"/>
        </g>
        <g transform="matrix(-0.5,0,0,0.5,2118.9,376.833)">
            <path d="M708.661,531.496C708.661,498.903 735.123,472.441 767.717,472.441C800.31,472.441 826.772,498.903 826.772,531.496" style="fill:none;stroke:rgb(0,0,255);stroke-width:1.67px;"/>
        </g>
        <g transform="matrix(-0.469101,0,0,0.469101,2263.22,329.539)">
            <path d="M1263.31,959.387C1143.42,915.512 1062.99,802.325 1062.99,667.323" style="fill:none;stroke:rgb(0,0,255);stroke-width:1.78px;"/>
        </g>
        <g transform="matrix(1,0,0,1,354.331,118.171)">
            <path d="M708.661,531.496C708.661,356.752 774.492,264.308 856.299,265.687" style="fill:none;stroke:rgb(0,0,255);stroke-width:0.83px;"/>
        </g>
        <g transform="matrix(1,0,0,1.87435,413.386,-627.041)">
            <path d="M1114.66,677.414C1097.44,636.649 1080.21,595.883 1062.99,555.118" style="fill:none;stroke:rgb(0,0,255);stroke-width:0.55px;"/>
        </g>
        <g transform="matrix(1,0,0,1,-64.9606,-667.323)">
            <circle cx="1316.93" cy="2734.25" r="17.717" style="fill:none;stroke:rgb(255,0,0);stroke-width:0.83px;"/>
        </g>
        <g transform="matrix(1,0,0,1,-118.11,-708.661)">
            <rect x="1352.36" y="2598.43" width="35.433" height="118.11" style="fill:none;stroke:rgb(255,0,0);stroke-width:0.83px;"/>
        </g>
        <g transform="matrix(1,0,0,1,-118.11,-472.441)">
            <rect x="1352.36" y="2598.43" width="35.433" height="118.11" style="fill:none;stroke:rgb(255,0,0);stroke-width:0.83px;"/>
        </g>
        <g transform="matrix(1,0,0,1,-64.9606,-1139.76)">
            <circle cx="1316.93" cy="2734.25" r="17.717" style="fill:none;stroke:rgb(255,0,0);stroke-width:0.83px;"/>
        </g>
        <g transform="matrix(1,0,0,1,-118.11,-1181.1)">
            <rect x="1352.36" y="2598.43" width="35.433" height="118.11" style="fill:none;stroke:rgb(255,0,0);stroke-width:0.83px;"/>
        </g>
        <g transform="matrix(1,0,0,1,-118.11,-944.882)">
            <rect x="1352.36" y="2598.43" width="35.433" height="118.11" style="fill:none;stroke:rgb(255,0,0);stroke-width:0.83px;"/>
        </g>
        <g transform="matrix(1,0,0,1,-64.9606,-1612.2)">
            <circle cx="1316.93" cy="2734.25" r="17.717" style="fill:none;stroke:rgb(255,0,0);stroke-width:0.83px;"/>
        </g>
        <g transform="matrix(1,0,0,1,-118.11,-1653.54)">
            <rect x="1352.36" y="2598.43" width="35.433" height="118.11" style="fill:none;stroke:rgb(255,0,0);stroke-width:0.83px;"/>
        </g>
        <g transform="matrix(1,0,0,1,-118.11,-1417.32)">
            <rect x="1352.36" y="2598.43" width="35.433" height="118.11" style="fill:none;stroke:rgb(255,0,0);stroke-width:0.83px;"/>
        </g>
    </g>
    <g transform="matrix(-1,-1.22465e-16,1.22465e-16,-1,3118.11,2982.36)">
        <g transform="matrix(-0.943396,0,0,0.943396,3365.03,1673.66)">
            <path d="M1188.19,917.652C1111.1,860.619 1062.99,770.49 1062.99,667.323" style="fill:none;stroke:rgb(0,0,255);stroke-width:0.88px;"/>
        </g>
        <g transform="matrix(-1,0,0,1,3425.2,1771.71)">
            <path d="M1535.43,531.496C1487.1,626.267 1456.05,708.661 1358.27,708.661C1260.49,708.661 1181.1,629.276 1181.1,531.496" style="fill:none;stroke:rgb(0,0,255);stroke-width:0.83px;"/>
        </g>
        <g transform="matrix(-1,0,0,1,3070.87,1771.71)">
            <path d="M708.661,531.496C708.661,498.903 735.123,472.441 767.717,472.441C800.31,472.441 826.772,498.903 826.772,531.496" style="fill:none;stroke:rgb(0,0,255);stroke-width:0.83px;"/>
        </g>
        <g transform="matrix(0.666896,0,0,1.6669,2007.75,-1890.31)">
            <path d="M354.392,2657.48L531.496,2834.59" style="fill:none;stroke:rgb(0,0,255);stroke-width:0.66px;"/>
        </g>
        <g transform="matrix(2.58824,0,0,1.76471,-1397.87,-2375.99)">
            <path d="M950.787,2952.7C1118.11,2952.7 1285.43,2952.7 1452.76,2952.7" style="fill:none;stroke:rgb(0,0,255);stroke-width:0.38px;"/>
        </g>
        <g transform="matrix(1,0,0,3.18966,460.63,-5152.05)">
            <path d="M602.362,1818.9L602.362,2503.94" style="fill:none;stroke:rgb(0,0,255);stroke-width:0.35px;"/>
        </g>
        <g transform="matrix(0.5,0,0,0.5,649.606,147.699)">
            <path d="M1535.43,531.496C1535.43,629.276 1456.05,708.661 1358.27,708.661C1260.49,708.661 1181.1,629.276 1181.1,531.496" style="fill:none;stroke:rgb(0,0,255);stroke-width:1.67px;"/>
        </g>
        <g transform="matrix(0.5,0,0,0.5,826.772,147.638)">
            <path d="M767.717,472.441C800.31,472.441 826.772,498.903 826.772,531.496" style="fill:none;stroke:rgb(0,0,255);stroke-width:1.67px;"/>
        </g>
        <g transform="matrix(0.5,0,0,0.5,1062.99,147.638)">
            <path d="M708.661,531.496C708.661,498.903 735.123,472.441 767.717,472.441C800.31,472.441 826.772,498.903 826.772,531.496" style="fill:none;stroke:rgb(0,0,255);stroke-width:1.67px;"/>
        </g>
        <g transform="matrix(-1,0,0,1,2381.1,-206.693)">
            <path d="M491.339,2509.9C556.955,2382.05 688.189,2126.33 696.85,2019.68C702.636,1948.45 596.417,1896.16 543.307,1870.02" style="fill:none;stroke:rgb(0,0,255);stroke-width:0.83px;"/>
        </g>
        <g transform="matrix(-1,0,0,1,2213.91,-1090.43)">
            <path d="M659.575,2478.23C678.46,2359.17 716.228,2121.05 696.85,2019.68C683.43,1949.48 590.015,1896.51 543.307,1870.02" style="fill:none;stroke:rgb(0,0,255);stroke-width:0.83px;"/>
        </g>
        <g transform="matrix(-1,0,0,1,3089.76,856.299)">
            <path d="M1535.43,531.496C1519.78,629.628 1456.05,708.661 1358.27,708.661C1260.49,708.661 1181.1,629.276 1181.1,531.496" style="fill:none;stroke:rgb(0,0,255);stroke-width:0.83px;"/>
        </g>
        <g transform="matrix(-1,0,0,1,2735.43,856.299)">
            <path d="M708.661,531.496C708.661,498.903 735.123,472.441 767.717,472.441C800.31,472.441 826.772,498.903 826.772,531.496" style="fill:none;stroke:rgb(0,0,255);stroke-width:0.83px;"/>
        </g>
        <g transform="matrix(-0.943396,0,0,0.943396,3029.59,758.245)">
            <path d="M1263.31,959.387C1143.42,915.512 1062.99,802.325 1062.99,667.323" style="fill:none;stroke:rgb(0,0,255);stroke-width:0.88px;"/>
        </g>
        <g transform="matrix(-0.5,0,0,0.5,2296.06,376.833)">
            <path d="M1535.43,531.496C1511.44,627.847 1456.05,708.661 1358.27,708.661C1260.49,708.661 1181.1,629.276 1181.1,531.496" style="fill:none;stroke:rgb(0,0,255);stroke-width:1.67px;"/>
        </g>
        <g transform="matrix(-0.5,0,0,0.5,2118.9,376.833)">
            <path d="M708.661,531.496C708.661,498.903 735.123,472.441 767.717,472.441C800.31,472.441 826.772,498.903 826.772,531.496" style="fill:none;stroke:rgb(0,0,255);stroke-width:1.67px;"/>
        </g>
        <g transform="matrix(-0.469101,0,0,0.469101,2263.22,329.539)">
            <path d="M1263.31,959.387C1143.42,915.512 1062.99,802.325 1062.99,667.323" style="fill:none;stroke:rgb(0,0,255);stroke-width:1.78px;"/>
        </g>
        <g transform="matrix(1,0,0,1,354.331,118.171)">
            <path d="M708.661,531.496C708.661,356.752 774.492,264.308 856.299,265.687" style="fill:none;stroke:rgb(0,0,255);stroke-width:0.83px;"/>
        </g>
        <g transform="matrix(1,0,0,1.87435,413.386,-627.041)">
            <path d="M1114.66,677.414C1097.44,636.649 1080.21,595.883 1062.99,555.118" style="fill:none;stroke:rgb(0,0,255);stroke-width:0.55px;"/>
        </g>
        <g transform="matrix(1,0,0,1,-64.9606,-667.323)">
            <circle cx="1316.93" cy="2734.25" r="17.717" style="fill:none;stroke:rgb(255,0,0);stroke-width:0.83px;"/>
        </g>
        <g transform="matrix(1,0,0,1,-118.11,-708.661)">
            <rect x="1352.36" y="2598.43" width="35.433" height="118.11" style="fill:none;stroke:rgb(255,0,0);stroke-width:0.83px;"/>
        </g>
        <g transform="matrix(1,0,0,1,-118.11,-472.441)">
            <rect x="1352.36" y="2598.43" width="35.433" height="118.11" style="fill:none;stroke:rgb(255,0,0);stroke-width:0.83px;"/>
        </g>
        <g transform="matrix(1,0,0,1,-64.9606,-1139.76)">
            <circle cx="1316.93" cy="2734.25" r="17.717" style="fill:none;stroke:rgb(255,0,0);stroke-width:0.83px;"/>
        </g>
        <g transform="matrix(1,0,0,1,-118.11,-1181.1)">
            <rect x="1352.36" y="2598.43" width="35.433" height="118.11" style="fill:none;stroke:rgb(255,0,0);stroke-width:0.83px;"/>
        </g>
        <g transform="matrix(1,0,0,1,-118.11,-944.882)">
            <rect x="1352.36" y="2598.43" width="35.433" height="118.11" style="fill:none;stroke:rgb(255,0,0);stroke-width:0.83px;"/>
        </g>
        <g transform="matrix(1,0,0,1,-64.9606,-1612.2)">
            <circle cx="1316.93" cy="2734.25" r="17.717" style="fill:none;stroke:rgb(255,0,0);stroke-width:0.83px;"/>
        </g>
        <g transform="matrix(1,0,0,1,-118.11,-1653.54)">
            <rect x="1352.36" y="2598.43" width="35.433" height="118.11" style="fill:none;stroke:rgb(255,0,0);stroke-width:0.83px;"/>
        </g>
        <g transform="matrix(1,0,0,1,-118.11,-1417.32)">
            <rect x="1352.36" y="2598.43" width="35.433" height="118.11" style="fill:none;stroke:rgb(255,0,0);stroke-width:0.83px;"/>
        </g>
    </g>
    <g transform="matrix(6.12323e-17,-1,1,6.12323e-17,-118.11,5710.63)">
        <g transform="matrix(1,0,0,1,277.559,1535.43)">
            <g transform="matrix(6.12323e-17,-1,1,6.12323e-17,2166.29,3720.47)">
                <path d="M2102.36,550.246C2103.99,550.246 2105.47,550.908 2106.54,551.977C2107.61,553.046 2108.27,554.522 2108.27,556.152L2108.27,612.254C2108.27,613.884 2107.61,615.36 2106.54,616.429C2105.47,617.498 2103.99,618.159 2102.36,618.159L2099.41,618.159C2097.78,618.159 2096.3,618.821 2095.23,619.89C2094.16,620.959 2093.5,622.435 2093.5,624.065L2093.5,641.781C2093.5,643.411 2094.16,644.888 2095.23,645.957C2096.3,647.025 2097.78,647.687 2099.41,647.687L2102.36,647.687C2103.99,647.687 2105.47,648.349 2106.54,649.418C2107.61,650.486 2108.27,651.963 2108.27,653.593L2108.27,715.6C2108.27,722.119 2116.21,727.411 2125.98,727.411C2135.76,727.411 2143.7,722.119 2143.7,715.6L2143.7,653.593C2143.7,651.963 2144.36,650.486 2145.43,649.418C2146.5,648.349 2147.98,647.687 2149.61,647.687L2152.56,647.687C2154.19,647.687 2155.66,647.025 2156.73,645.957C2157.8,644.888 2158.47,643.411 2158.47,641.781L2158.47,624.065C2158.47,622.435 2157.8,620.959 2156.73,619.89C2155.66,618.821 2154.19,618.159 2152.56,618.159L2149.61,618.159C2147.98,618.159 2146.5,617.498 2145.43,616.429C2144.36,615.36 2143.7,613.884 2143.7,612.254L2143.7,556.152C2143.7,554.522 2144.36,553.046 2145.43,551.977C2146.5,550.908 2147.98,550.246 2149.61,550.246" style="fill:none;stroke:rgb(0,0,255);stroke-width:0.83px;"/>
            </g>
            <path d="M2716.53,1653.54L2681.1,1653.54L2681.1,1771.65L2716.53,1771.65" style="fill:none;stroke:rgb(0,0,255);stroke-width:0.83px;"/>
            <g transform="matrix(1,0,0,1,0,-236.22)">
                <path d="M2716.53,1653.54L2681.1,1653.54L2681.1,1771.65L2716.53,1771.65" style="fill:none;stroke:rgb(0,0,255);stroke-width:0.83px;"/>
            </g>
            <path d="M2716.53,1653.54L2716.53,1618.11" style="fill:none;stroke:rgb(0,0,255);stroke-width:0.83px;"/>
            <g transform="matrix(1,0,0,1,0,-82.6772)">
                <path d="M2716.53,1653.54L2716.53,1618.11" style="fill:none;stroke:rgb(0,0,255);stroke-width:0.83px;"/>
            </g>
        </g>
        <g transform="matrix(-1,0,0,1,8267.72,1535.43)">
            <g transform="matrix(6.12323e-17,-1,1,6.12323e-17,2166.29,3720.47)">
                <path d="M2102.36,550.246C2103.99,550.246 2105.47,550.908 2106.54,551.977C2107.61,553.046 2108.27,554.522 2108.27,556.152L2108.27,612.254C2108.27,613.884 2107.61,615.36 2106.54,616.429C2105.47,617.498 2103.99,618.159 2102.36,618.159L2099.41,618.159C2097.78,618.159 2096.3,618.821 2095.23,619.89C2094.16,620.959 2093.5,622.435 2093.5,624.065L2093.5,641.781C2093.5,643.411 2094.16,644.888 2095.23,645.957C2096.3,647.025 2097.78,647.687 2099.41,647.687L2102.36,647.687C2103.99,647.687 2105.47,648.349 2106.54,649.418C2107.61,650.486 2108.27,651.963 2108.27,653.593L2108.27,715.6C2108.27,722.119 2116.21,727.411 2125.98,727.411C2135.76,727.411 2143.7,722.119 2143.7,715.6L2143.7,653.593C2143.7,651.963 2144.36,650.486 2145.43,649.418C2146.5,648.349 2147.98,647.687 2149.61,647.687L2152.56,647.687C2154.19,647.687 2155.66,647.025 2156.73,645.957C2157.8,644.888 2158.47,643.411 2158.47,641.781L2158.47,624.065C2158.47,622.435 2157.8,620.959 2156.73,619.89C2155.66,618.821 2154.19,618.159 2152.56,618.159L2149.61,618.159C2147.98,618.159 2146.5,617.498 2145.43,616.429C2144.36,615.36 2143.7,613.884 2143.7,612.254L2143.7,556.152C2143.7,554.522 2144.36,553.046 2145.43,551.977C2146.5,550.908 2147.98,550.246 2149.61,550.246" style="fill:none;stroke:rgb(0,0,255);stroke-width:0.83px;"/>
            </g>
            <path d="M2716.53,1653.54L2681.1,1653.54L2681.1,1771.65L2716.53,1771.65" style="fill:none;stroke:rgb(0,0,255);stroke-width:0.83px;"/>
            <g transform="matrix(1,0,0,1,0,-236.22)">
                <path d="M2716.53,1653.54L2681.1,1653.54L2681.1,1771.65L2716.53,1771.65" style="fill:none;stroke:rgb(0,0,255);stroke-width:0.83px;"/>
            </g>
            <path d="M2716.53,1653.54L2716.53,1618.11" style="fill:none;stroke:rgb(0,0,255);stroke-width:0.83px;"/>
            <g transform="matrix(1,0,0,1,0,-82.6772)">
                <path d="M2716.53,1653.54L2716.53,1618.11" style="fill:none;stroke:rgb(0,0,255);stroke-width:0.83px;"/>
            </g>
        </g>
        <g transform="matrix(10.4762,8.74748e-17,7.34788e-18,1,-25594.5,1535.43)">
            <path d="M2728.35,1417.32L2976.38,1417.32" style="fill:none;stroke:rgb(0,0,255);stroke-width:0.11px;"/>
        </g>
        <g transform="matrix(10.4762,8.74748e-17,7.34788e-18,1,-25594.5,1889.76)">
            <path d="M2728.35,1417.32L2976.38,1417.32" style="fill:none;stroke:rgb(0,0,255);stroke-width:0.11px;"/>
        </g>
        <g transform="matrix(1,0,0,1,94.4882,0)">
            <g transform="matrix(0.25,-0.25,0.25,0.25,2391.73,2687.01)">
                <rect x="944.882" y="2716.53" width="236.22" height="236.22" style="fill:none;stroke:rgb(255,0,0);stroke-width:2.36px;"/>
            </g>
            <g transform="matrix(0.25,-0.25,0.25,0.25,2627.95,2687.01)">
                <rect x="944.882" y="2716.53" width="236.22" height="236.22" style="fill:none;stroke:rgb(255,0,0);stroke-width:2.36px;"/>
            </g>
            <g transform="matrix(0.25,-0.25,0.25,0.25,2864.17,2687.01)">
                <rect x="944.882" y="2716.53" width="236.22" height="236.22" style="fill:none;stroke:rgb(255,0,0);stroke-width:2.36px;"/>
            </g>
            <g transform="matrix(0.25,-0.25,0.25,0.25,3100.39,2687.01)">
                <rect x="944.882" y="2716.53" width="236.22" height="236.22" style="fill:none;stroke:rgb(255,0,0);stroke-width:2.36px;"/>
            </g>
            <g transform="matrix(0.25,-0.25,0.25,0.25,3336.61,2687.01)">
                <rect x="944.882" y="2716.53" width="236.22" height="236.22" style="fill:none;stroke:rgb(255,0,0);stroke-width:2.36px;"/>
            </g>
            <g transform="matrix(0.25,-0.25,0.25,0.25,3572.83,2687.01)">
                <rect x="944.882" y="2716.53" width="236.22" height="236.22" style="fill:none;stroke:rgb(255,0,0);stroke-width:2.36px;"/>
            </g>
            <g transform="matrix(0.25,-0.25,0.25,0.25,3809.06,2687.01)">
                <rect x="944.882" y="2716.53" width="236.22" height="236.22" style="fill:none;stroke:rgb(255,0,0);stroke-width:2.36px;"/>
            </g>
            <g transform="matrix(0.25,-0.25,0.25,0.25,4045.28,2687.01)">
                <rect x="944.882" y="2716.53" width="236.22" height="236.22" style="fill:none;stroke:rgb(255,0,0);stroke-width:2.36px;"/>
            </g>
        </g>
        <g transform="matrix(1,0,0,1,277.559,1181.1)">
            <g transform="matrix(6.12323e-17,-1,1,6.12323e-17,2166.29,3720.47)">
                <path d="M2102.36,550.246C2103.99,550.246 2105.47,550.908 2106.54,551.977C2107.61,553.046 2108.27,554.522 2108.27,556.152L2108.27,612.254C2108.27,613.884 2107.61,615.36 2106.54,616.429C2105.47,617.498 2103.99,618.159 2102.36,618.159L2099.41,618.159C2097.78,618.159 2096.3,618.821 2095.23,619.89C2094.16,620.959 2093.5,622.435 2093.5,624.065L2093.5,641.781C2093.5,643.411 2094.16,644.888 2095.23,645.957C2096.3,647.025 2097.78,647.687 2099.41,647.687L2102.36,647.687C2103.99,647.687 2105.47,648.349 2106.54,649.418C2107.61,650.486 2108.27,651.963 2108.27,653.593L2108.27,715.6C2108.27,722.119 2116.21,727.411 2125.98,727.411C2135.76,727.411 2143.7,722.119 2143.7,715.6L2143.7,653.593C2143.7,651.963 2144.36,650.486 2145.43,649.418C2146.5,648.349 2147.98,647.687 2149.61,647.687L2152.56,647.687C2154.19,647.687 2155.66,647.025 2156.73,645.957C2157.8,644.888 2158.47,643.411 2158.47,641.781L2158.47,624.065C2158.47,622.435 2157.8,620.959 2156.73,619.89C2155.66,618.821 2154.19,618.159 2152.56,618.159L2149.61,618.159C2147.98,618.159 2146.5,617.498 2145.43,616.429C2144.36,615.36 2143.7,613.884 2143.7,612.254L2143.7,556.152C2143.7,554.522 2144.36,553.046 2145.43,551.977C2146.5,550.908 2147.98,550.246 2149.61,550.246" style="fill:none;stroke:rgb(0,0,255);stroke-width:0.83px;"/>
            </g>
            <path d="M2716.53,1653.54L2681.1,1653.54L2681.1,1771.65" style="fill:none;stroke:rgb(0,0,255);stroke-width:0.83px;"/>
            <g transform="matrix(1,0,0,1,0,-236.22)">
                <path d="M2716.53,1653.54L2681.1,1653.54L2681.1,1771.65L2716.53,1771.65" style="fill:none;stroke:rgb(0,0,255);stroke-width:0.83px;"/>
            </g>
            <path d="M2716.53,1653.54L2716.53,1618.11" style="fill:none;stroke:rgb(0,0,255);stroke-width:0.83px;"/>
            <g transform="matrix(1,0,0,1,0,-82.6772)">
                <path d="M2716.53,1653.54L2716.53,1618.11" style="fill:none;stroke:rgb(0,0,255);stroke-width:0.83px;"/>
            </g>
        </g>
        <g transform="matrix(-1,0,0,1,8267.72,1181.1)">
            <g transform="matrix(6.12323e-17,-1,1,6.12323e-17,2166.29,3720.47)">
                <path d="M2102.36,550.246C2103.99,550.246 2105.47,550.908 2106.54,551.977C2107.61,553.046 2108.27,554.522 2108.27,556.152L2108.27,612.254C2108.27,613.884 2107.61,615.36 2106.54,616.429C2105.47,617.498 2103.99,618.159 2102.36,618.159L2099.41,618.159C2097.78,618.159 2096.3,618.821 2095.23,619.89C2094.16,620.959 2093.5,622.435 2093.5,624.065L2093.5,641.781C2093.5,643.411 2094.16,644.888 2095.23,645.957C2096.3,647.025 2097.78,647.687 2099.41,647.687L2102.36,647.687C2103.99,647.687 2105.47,648.349 2106.54,649.418C2107.61,650.486 2108.27,651.963 2108.27,653.593L2108.27,715.6C2108.27,722.119 2116.21,727.411 2125.98,727.411C2135.76,727.411 2143.7,722.119 2143.7,715.6L2143.7,653.593C2143.7,651.963 2144.36,650.486 2145.43,649.418C2146.5,648.349 2147.98,647.687 2149.61,647.687L2152.56,647.687C2154.19,647.687 2155.66,647.025 2156.73,645.957C2157.8,644.888 2158.47,643.411 2158.47,641.781L2158.47,624.065C2158.47,622.435 2157.8,620.959 2156.73,619.89C2155.66,618.821 2154.19,618.159 2152.56,618.159L2149.61,618.159C2147.98,618.159 2146.5,617.498 2145.43,616.429C2144.36,615.36 2143.7,613.884 2143.7,612.254L2143.7,556.152C2143.7,554.522 2144.36,553.046 2145.43,551.977C2146.5,550.908 2147.98,550.246 2149.61,550.246" style="fill:none;stroke:rgb(0,0,255);stroke-width:0.83px;"/>
            </g>
            <path d="M2716.53,1653.54L2681.1,1653.54L2681.1,1771.65" style="fill:none;stroke:rgb(0,0,255);stroke-width:0.83px;"/>
            <g transform="matrix(1,0,0,1,0,-236.22)">
                <path d="M2716.53,1653.54L2681.1,1653.54L2681.1,1771.65L2716.53,1771.65" style="fill:none;stroke:rgb(0,0,255);stroke-width:0.83px;"/>
            </g>
            <path d="M2716.53,1653.54L2716.53,1618.11" style="fill:none;stroke:rgb(0,0,255);stroke-width:0.83px;"/>
            <g transform="matrix(1,0,0,1,0,-82.6772)">
                <path d="M2716.53,1653.54L2716.53,1618.11" style="fill:none;stroke:rgb(0,0,255);stroke-width:0.83px;"/>
            </g>
        </g>
        <g transform="matrix(10.4762,0,0,1,-25594.5,1181.1)">
            <path d="M2728.35,1417.32L2976.38,1417.32" style="fill:none;stroke:rgb(0,0,255);stroke-width:0.11px;"/>
        </g>
        <g transform="matrix(1,0,0,1,94.4882,0)">
            <g transform="matrix(0.25,-0.25,0.25,0.25,2391.73,2332.68)">
                <rect x="944.882" y="2716.53" width="236.22" height="236.22" style="fill:none;stroke:rgb(255,0,0);stroke-width:2.36px;"/>
            </g>
            <g transform="matrix(0.25,-0.25,0.25,0.25,2627.95,2332.68)">
                <rect x="944.882" y="2716.53" width="236.22" height="236.22" style="fill:none;stroke:rgb(255,0,0);stroke-width:2.36px;"/>
            </g>
            <g transform="matrix(0.25,-0.25,0.25,0.25,2864.17,2332.68)">
                <rect x="944.882" y="2716.53" width="236.22" height="236.22" style="fill:none;stroke:rgb(255,0,0);stroke-width:2.36px;"/>
            </g>
            <g transform="matrix(0.25,-0.25,0.25,0.25,3100.39,2332.68)">
                <rect x="944.882" y="2716.53" width="236.22" height="236.22" style="fill:none;stroke:rgb(255,0,0);stroke-width:2.36px;"/>
            </g>
            <g transform="matrix(0.25,-0.25,0.25,0.25,3336.61,2332.68)">
                <rect x="944.882" y="2716.53" width="236.22" height="236.22" style="fill:none;stroke:rgb(255,0,0);stroke-width:2.36px;"/>
            </g>
            <g transform="matrix(0.25,-0.25,0.25,0.25,3572.83,2332.68)">
                <rect x="944.882" y="2716.53" width="236.22" height="236.22" style="fill:none;stroke:rgb(255,0,0);stroke-width:2.36px;"/>
            </g>
            <g transform="matrix(0.25,-0.25,0.25,0.25,3809.06,2332.68)">
                <rect x="944.882" y="2716.53" width="236.22" height="236.22" style="fill:none;stroke:rgb(255,0,0);stroke-width:2.36px;"/>
            </g>
            <g transform="matrix(0.25,-0.25,0.25,0.25,4045.28,2332.68)">
                <rect x="944.882" y="2716.53" width="236.22" height="236.22" style="fill:none;stroke:rgb(255,0,0);stroke-width:2.36px;"/>
            </g>
        </g>
        <g transform="matrix(1,0,0,1,277.559,826.772)">
            <g transform="matrix(6.12323e-17,-1,1,6.12323e-17,2166.29,3720.47)">
                <path d="M2102.36,550.246C2103.99,550.246 2105.47,550.908 2106.54,551.977C2107.61,553.046 2108.27,554.522 2108.27,556.152L2108.27,612.254C2108.27,613.884 2107.61,615.36 2106.54,616.429C2105.47,617.498 2103.99,618.159 2102.36,618.159L2099.41,618.159C2097.78,618.159 2096.3,618.821 2095.23,619.89C2094.16,620.959 2093.5,622.435 2093.5,624.065L2093.5,641.781C2093.5,643.411 2094.16,644.888 2095.23,645.957C2096.3,647.025 2097.78,647.687 2099.41,647.687L2102.36,647.687C2103.99,647.687 2105.47,648.349 2106.54,649.418C2107.61,650.486 2108.27,651.963 2108.27,653.593L2108.27,715.6C2108.27,722.119 2116.21,727.411 2125.98,727.411C2135.76,727.411 2143.7,722.119 2143.7,715.6L2143.7,653.593C2143.7,651.963 2144.36,650.486 2145.43,649.418C2146.5,648.349 2147.98,647.687 2149.61,647.687L2152.56,647.687C2154.19,647.687 2155.66,647.025 2156.73,645.957C2157.8,644.888 2158.47,643.411 2158.47,641.781L2158.47,624.065C2158.47,622.435 2157.8,620.959 2156.73,619.89C2155.66,618.821 2154.19,618.159 2152.56,618.159L2149.61,618.159C2147.98,618.159 2146.5,617.498 2145.43,616.429C2144.36,615.36 2143.7,613.884 2143.7,612.254L2143.7,556.152C2143.7,554.522 2144.36,553.046 2145.43,551.977C2146.5,550.908 2147.98,550.246 2149.61,550.246" style="fill:none;stroke:rgb(0,0,255);stroke-width:0.83px;"/>
            </g>
            <path d="M2716.53,1653.54L2681.1,1653.54L2681.1,1771.65" style="fill:none;stroke:rgb(0,0,255);stroke-width:0.83px;"/>
            <g transform="matrix(1,0,0,1,0,-236.22)">
                <path d="M2716.53,1653.54L2681.1,1653.54L2681.1,1771.65L2716.53,1771.65" style="fill:none;stroke:rgb(0,0,255);stroke-width:0.83px;"/>
            </g>
            <path d="M2716.53,1653.54L2716.53,1618.11" style="fill:none;stroke:rgb(0,0,255);stroke-width:0.83px;"/>
            <g transform="matrix(1,0,0,1,0,-82.6772)">
                <path d="M2716.53,1653.54L2716.53,1618.11" style="fill:none;stroke:rgb(0,0,255);stroke-width:0.83px;"/>
            </g>
        </g>
        <g transform="matrix(-1,0,0,1,8267.72,826.772)">
            <g transform="matrix(6.12323e-17,-1,1,6.12323e-17,2166.29,3720.47)">
                <path d="M2102.36,550.246C2103.99,550.246 2105.47,550.908 2106.54,551.977C2107.61,553.046 2108.27,554.522 2108.27,556.152L2108.27,612.254C2108.27,613.884 2107.61,615.36 2106.54,616.429C2105.47,617.498 2103.99,618.159 2102.36,618.159L2099.41,618.159C2097.78,618.159 2096.3,618.821 2095.23,619.89C2094.16,620.959 2093.5,622.435 2093.5,624.065L2093.5,641.781C2093.5,643.411 2094.16,644.888 2095.23,645.957C2096.3,647.025 2097.78,647.687 2099.41,647.687L2102.36,647.687C2103.99,647.687 2105.47,648.349 2106.54,649.418C2107.61,650.486 2108.27,651.963 2108.27,653.593L2108.27,715.6C2108.27,722.119 2116.21,727.411 2125.98,727.411C2135.76,727.411 2143.7,722.119 2143.7,715.6L2143.7,653.593C2143.7,651.963 2144.36,650.486 2145.43,649.418C2146.5,648.349 2147.98,647.687 2149.61,647.687L2152.56,647.687C2154.19,647.687 2155.66,647.025 2156.73,645.957C2157.8,644.888 2158.47,643.411 2158.47,641.781L2158.47,624.065C2158.47,622.435 2157.8,620.959 2156.73,619.89C2155.66,618.821 2154.19,618.159 2152.56,618.159L2149.61,618.159C2147.98,618.159 2146.5,617.498 2145.43,616.429C2144.36,615.36 2143.7,613.884 2143.7,612.254L2143.7,556.152C2143.7,554.522 2144.36,553.046 2145.43,551.977C2146.5,550.908 2147.98,550.246 2149.61,550.246" style="fill:none;stroke:rgb(0,0,255);stroke-width:0.83px;"/>
            </g>
            <path d="M2716.53,1653.54L2681.1,1653.54L2681.1,1771.65" style="fill:none;stroke:rgb(0,0,255);stroke-width:0.83px;"/>
            <g transform="matrix(1,0,0,1,0,-236.22)">
                <path d="M2716.53,1653.54L2681.1,1653.54L2681.1,1771.65L2716.53,1771.65" style="fill:none;stroke:rgb(0,0,255);stroke-width:0.83px;"/>
            </g>
            <path d="M2716.53,1653.54L2716.53,1618.11" style="fill:none;stroke:rgb(0,0,255);stroke-width:0.83px;"/>
            <g transform="matrix(1,0,0,1,0,-82.6772)">
                <path d="M2716.53,1653.54L2716.53,1618.11" style="fill:none;stroke:rgb(0,0,255);stroke-width:0.83px;"/>
            </g>
        </g>
        <g transform="matrix(10.4762,0,0,1,-25594.5,826.772)">
            <path d="M2728.35,1417.32L2976.38,1417.32" style="fill:none;stroke:rgb(0,0,255);stroke-width:0.11px;"/>
        </g>
        <g transform="matrix(1,0,0,1,94.4882,0)">
            <g transform="matrix(0.25,-0.25,0.25,0.25,2391.73,1978.35)">
                <rect x="944.882" y="2716.53" width="236.22" height="236.22" style="fill:none;stroke:rgb(255,0,0);stroke-width:2.36px;"/>
            </g>
            <g transform="matrix(0.25,-0.25,0.25,0.25,2627.95,1978.35)">
                <rect x="944.882" y="2716.53" width="236.22" height="236.22" style="fill:none;stroke:rgb(255,0,0);stroke-width:2.36px;"/>
            </g>
            <g transform="matrix(0.25,-0.25,0.25,0.25,2864.17,1978.35)">
                <rect x="944.882" y="2716.53" width="236.22" height="236.22" style="fill:none;stroke:rgb(255,0,0);stroke-width:2.36px;"/>
            </g>
            <g transform="matrix(0.25,-0.25,0.25,0.25,3100.39,1978.35)">
                <rect x="944.882" y="2716.53" width="236.22" height="236.22" style="fill:none;stroke:rgb(255,0,0);stroke-width:2.36px;"/>
            </g>
            <g transform="matrix(0.25,-0.25,0.25,0.25,3336.61,1978.35)">
                <rect x="944.882" y="2716.53" width="236.22" height="236.22" style="fill:none;stroke:rgb(255,0,0);stroke-width:2.36px;"/>
            </g>
            <g transform="matrix(0.25,-0.25,0.25,0.25,3572.83,1978.35)">
                <rect x="944.882" y="2716.53" width="236.22" height="236.22" style="fill:none;stroke:rgb(255,0,0);stroke-width:2.36px;"/>
            </g>
            <g transform="matrix(0.25,-0.25,0.25,0.25,3809.06,1978.35)">
                <rect x="944.882" y="2716.53" width="236.22" height="236.22" style="fill:none;stroke:rgb(255,0,0);stroke-width:2.36px;"/>
            </g>
            <g transform="matrix(0.25,-0.25,0.25,0.25,4045.28,1978.35)">
                <rect x="944.882" y="2716.53" width="236.22" height="236.22" style="fill:none;stroke:rgb(255,0,0);stroke-width:2.36px;"/>
            </g>
        </g>
    </g>
</svg>
