<?xml version="1.0" encoding="UTF-8" standalone="no"?>
<!DOCTYPE svg PUBLIC "-//W3C//DTD SVG 1.1//EN" "http://www.w3.org/Graphics/SVG/1.1/DTD/svg11.dtd">
<svg width="100%" height="100%" viewBox="0 0 6000 3600" version="1.1" xmlns="http://www.w3.org/2000/svg" xmlns:xlink="http://www.w3.org/1999/xlink" xml:space="preserve" xmlns:serif="http://www.serif.com/" style="fill-rule:evenodd;clip-rule:evenodd;stroke-linecap:round;stroke-linejoin:round;stroke-miterlimit:1.5;">
    <g transform="matrix(1,0,0,1,-118.11,-708.661)">
        <g transform="matrix(0.943396,0,0,0.943396,-766.602,2382.32)">
            <path d="M1190.11,919.099C1113.02,862.067 1062.99,770.49 1062.99,667.323" style="fill:none;stroke:rgb(0,0,255);stroke-width:0.88px;"/>
        </g>
        <g transform="matrix(1,0,0,1,-826.772,2480.38)">
            <path d="M1535.43,531.496C1535.43,629.276 1456.05,708.661 1358.27,708.661C1260.49,708.661 1181.1,629.276 1181.1,531.496" style="fill:none;stroke:rgb(0,0,255);stroke-width:0.83px;"/>
        </g>
        <g transform="matrix(1,0,0,1,-472.441,2480.38)">
            <path d="M708.661,531.496C708.661,498.903 735.123,472.441 767.717,472.441C800.31,472.441 826.772,498.903 826.772,531.496" style="fill:none;stroke:rgb(0,0,255);stroke-width:0.83px;"/>
        </g>
        <g transform="matrix(1.6669,0,0,1.6669,-236.342,-1181.65)">
            <path d="M354.392,2657.48L531.496,2834.59" style="fill:none;stroke:rgb(0,0,255);stroke-width:0.5px;"/>
        </g>
        <g transform="matrix(-0.943396,0,0,0.943396,3483.14,2382.32)">
            <path d="M1190.11,919.099C1113.02,862.067 1062.99,770.49 1062.99,667.323" style="fill:none;stroke:rgb(0,0,255);stroke-width:0.88px;"/>
        </g>
        <g transform="matrix(-1,0,0,1,3543.31,2480.38)">
            <path d="M1535.43,531.496C1535.43,629.276 1456.05,708.661 1358.27,708.661C1260.49,708.661 1181.1,629.276 1181.1,531.496" style="fill:none;stroke:rgb(0,0,255);stroke-width:0.83px;"/>
        </g>
        <g transform="matrix(-1,0,0,1,3188.98,2480.38)">
            <path d="M708.661,531.496C708.661,498.903 735.123,472.441 767.717,472.441C800.31,472.441 826.772,498.903 826.772,531.496" style="fill:none;stroke:rgb(0,0,255);stroke-width:0.83px;"/>
        </g>
        <g transform="matrix(-1.6669,0,0,1.6669,2952.88,-1181.65)">
            <path d="M354.392,2657.48L531.496,2834.59" style="fill:none;stroke:rgb(0,0,255);stroke-width:0.5px;"/>
        </g>
        <g transform="matrix(1.76471,0,0,1.76471,-496.758,-1667.33)">
            <path d="M649.606,2952.7C705.381,2952.7 816.929,2952.7 816.929,2952.7L1017.72,2818.84L1084.65,2818.84L1285.43,2952.7C1285.43,2952.7 1396.98,2952.7 1452.76,2952.7" style="fill:none;stroke:rgb(0,0,255);stroke-width:0.47px;"/>
        </g>
        <g transform="matrix(1,0,0,1,0,590.612)">
            <path d="M1535.43,531.496C1535.43,629.276 1456.05,708.661 1358.27,708.661C1260.49,708.661 1181.1,629.276 1181.1,531.496" style="fill:none;stroke:rgb(0,0,255);stroke-width:0.83px;"/>
        </g>
        <g transform="matrix(1,0,0,1,354.331,590.612)">
            <path d="M708.661,531.496C708.661,498.903 735.123,472.441 767.717,472.441C800.31,472.441 826.772,498.903 826.772,531.496" style="fill:none;stroke:rgb(0,0,255);stroke-width:0.83px;"/>
        </g>
        <g transform="matrix(1,0,0,1,826.772,590.612)">
            <path d="M708.661,531.496C708.661,498.903 735.123,472.441 767.717,472.441C800.31,472.441 826.772,498.903 826.772,531.496" style="fill:none;stroke:rgb(0,0,255);stroke-width:0.83px;"/>
        </g>
        <g transform="matrix(1,0,0,1,-708.661,1653.6)">
            <path d="M1535.43,531.496C1535.43,629.276 1456.05,708.661 1358.27,708.661C1260.49,708.661 1181.1,629.276 1181.1,531.496" style="fill:none;stroke:rgb(0,0,255);stroke-width:0.83px;"/>
        </g>
        <g transform="matrix(1,0,0,1,-354.331,1653.6)">
            <path d="M708.661,531.496C708.661,498.903 735.123,472.441 767.717,472.441C800.31,472.441 826.772,498.903 826.772,531.496" style="fill:none;stroke:rgb(0,0,255);stroke-width:0.83px;"/>
        </g>
        <g transform="matrix(0.943396,0,0,0.943396,-648.492,1555.55)">
            <path d="M1263.31,959.387C1143.42,915.512 1062.99,802.325 1062.99,667.323" style="fill:none;stroke:rgb(0,0,255);stroke-width:0.88px;"/>
        </g>
        <g transform="matrix(1,0,0,1,0,590.612)">
            <path d="M708.661,2421.26C713.911,2318.03 724.409,2111.56 696.85,2019.68C676.315,1951.23 587.643,1897.09 543.307,1870.02" style="fill:none;stroke:rgb(0,0,255);stroke-width:0.83px;"/>
        </g>
        <g transform="matrix(-1,0,0,1,2716.54,590.612)">
            <path d="M708.661,2421.26C713.911,2318.03 724.409,2111.56 696.85,2019.68C676.315,1951.23 587.643,1897.09 543.307,1870.02" style="fill:none;stroke:rgb(0,0,255);stroke-width:0.83px;"/>
        </g>
        <g transform="matrix(1,0,0,1,118.11,-236.16)">
            <path d="M708.661,2421.26C713.911,2318.03 724.409,2111.56 696.85,2019.68C676.315,1951.23 587.643,1897.09 543.307,1870.02" style="fill:none;stroke:rgb(0,0,255);stroke-width:0.83px;"/>
        </g>
        <g transform="matrix(-1,0,0,1,2598.43,-236.16)">
            <path d="M708.661,2421.26C713.911,2318.03 724.409,2111.56 696.85,2019.68C676.315,1951.23 587.643,1897.09 543.307,1870.02" style="fill:none;stroke:rgb(0,0,255);stroke-width:0.83px;"/>
        </g>
        <g transform="matrix(-1,0,0,1,3425.2,1653.6)">
            <path d="M1535.43,531.496C1535.43,629.276 1456.05,708.661 1358.27,708.661C1260.49,708.661 1181.1,629.276 1181.1,531.496" style="fill:none;stroke:rgb(0,0,255);stroke-width:0.83px;"/>
        </g>
        <g transform="matrix(-1,0,0,1,3070.87,1653.6)">
            <path d="M708.661,531.496C708.661,498.903 735.123,472.441 767.717,472.441C800.31,472.441 826.772,498.903 826.772,531.496" style="fill:none;stroke:rgb(0,0,255);stroke-width:0.83px;"/>
        </g>
        <g transform="matrix(-0.943396,0,0,0.943396,3365.03,1555.55)">
            <path d="M1263.31,959.387C1143.42,915.512 1062.99,802.325 1062.99,667.323" style="fill:none;stroke:rgb(0,0,255);stroke-width:0.88px;"/>
        </g>
        <g transform="matrix(-1,0,0,1,3307.09,826.833)">
            <path d="M1535.43,531.496C1535.43,629.276 1456.05,708.661 1358.27,708.661C1260.49,708.661 1181.1,629.276 1181.1,531.496" style="fill:none;stroke:rgb(0,0,255);stroke-width:0.83px;"/>
        </g>
        <g transform="matrix(-1,0,0,1,2952.76,826.833)">
            <path d="M708.661,531.496C708.661,498.903 735.123,472.441 767.717,472.441C800.31,472.441 826.772,498.903 826.772,531.496" style="fill:none;stroke:rgb(0,0,255);stroke-width:0.83px;"/>
        </g>
        <g transform="matrix(-1,0,0,1,2480.31,826.833)">
            <path d="M708.661,531.496C708.661,498.903 735.123,472.441 767.717,472.441" style="fill:none;stroke:rgb(0,0,255);stroke-width:0.83px;"/>
        </g>
        <g transform="matrix(1,0,0,-1,944.882,1771.71)">
            <path d="M708.661,531.496C708.661,498.903 735.123,472.441 767.717,472.441" style="fill:none;stroke:rgb(0,0,255);stroke-width:0.83px;"/>
        </g>
        <g transform="matrix(-0.943396,0,0,0.943396,3246.92,728.779)">
            <path d="M1263.31,959.387C1143.42,915.512 1062.99,802.325 1062.99,667.323" style="fill:none;stroke:rgb(0,0,255);stroke-width:0.88px;"/>
        </g>
        <g transform="matrix(1,0,0,1,-590.551,826.833)">
            <path d="M1535.43,531.496C1535.43,629.276 1456.05,708.661 1358.27,708.661C1260.49,708.661 1181.1,629.276 1181.1,531.496" style="fill:none;stroke:rgb(0,0,255);stroke-width:0.83px;"/>
        </g>
        <g transform="matrix(1,0,0,1,-236.22,826.833)">
            <path d="M708.661,531.496C708.661,498.903 735.123,472.441 767.717,472.441C800.31,472.441 826.772,498.903 826.772,531.496" style="fill:none;stroke:rgb(0,0,255);stroke-width:0.83px;"/>
        </g>
        <g transform="matrix(1,0,0,1,236.22,826.833)">
            <path d="M708.661,531.496C708.661,498.903 735.123,472.441 767.717,472.441" style="fill:none;stroke:rgb(0,0,255);stroke-width:0.83px;"/>
        </g>
        <g transform="matrix(-1,0,0,-1,1771.65,1771.71)">
            <path d="M708.661,531.496C708.661,498.903 735.123,472.441 767.717,472.441" style="fill:none;stroke:rgb(0,0,255);stroke-width:0.83px;"/>
        </g>
        <g transform="matrix(0.943396,0,0,0.943396,-530.382,728.779)">
            <path d="M1263.31,959.387C1143.42,915.512 1062.99,802.325 1062.99,667.323" style="fill:none;stroke:rgb(0,0,255);stroke-width:0.88px;"/>
        </g>
        <g transform="matrix(1,0,0,1.25,0,428.211)">
            <path d="M1062.99,649.606C1062.99,618.11 1062.99,586.614 1062.99,555.118" style="fill:none;stroke:rgb(0,0,255);stroke-width:0.74px;"/>
        </g>
        <g transform="matrix(1,0,0,1.25,590.551,428.211)">
            <path d="M1062.99,649.606C1062.99,618.11 1062.99,586.614 1062.99,555.118" style="fill:none;stroke:rgb(0,0,255);stroke-width:0.74px;"/>
        </g>
        <g transform="matrix(0.75,-0.75,0.75,0.75,-1801.18,1683.07)">
            <rect x="944.882" y="2716.53" width="236.22" height="236.22" style="fill:none;stroke:rgb(255,0,0);stroke-width:0.79px;"/>
        </g>
        <g transform="matrix(0.75,-0.75,0.75,0.75,-1328.74,1683.07)">
            <rect x="944.882" y="2716.53" width="236.22" height="236.22" style="fill:none;stroke:rgb(255,0,0);stroke-width:0.79px;"/>
        </g>
        <g transform="matrix(0.75,-0.75,0.75,0.75,-1801.18,1210.63)">
            <rect x="944.882" y="2716.53" width="236.22" height="236.22" style="fill:none;stroke:rgb(255,0,0);stroke-width:0.79px;"/>
        </g>
        <g transform="matrix(0.75,-0.75,0.75,0.75,-1328.74,1210.63)">
            <rect x="944.882" y="2716.53" width="236.22" height="236.22" style="fill:none;stroke:rgb(255,0,0);stroke-width:0.79px;"/>
        </g>
        <g transform="matrix(0.75,-0.75,0.75,0.75,-1801.18,738.189)">
            <rect x="944.882" y="2716.53" width="236.22" height="236.22" style="fill:none;stroke:rgb(255,0,0);stroke-width:0.79px;"/>
        </g>
        <g transform="matrix(0.75,-0.75,0.75,0.75,-1328.74,738.189)">
            <rect x="944.882" y="2716.53" width="236.22" height="236.22" style="fill:none;stroke:rgb(255,0,0);stroke-width:0.79px;"/>
        </g>
        <g transform="matrix(0.707107,-0.707107,0.707107,0.707107,-1623.87,351.872)">
            <rect x="944.882" y="2716.53" width="236.22" height="236.22" style="fill:none;stroke:rgb(255,0,0);stroke-width:0.83px;"/>
        </g>
        <g transform="matrix(0.707107,-0.707107,0.707107,0.707107,-1171.69,351.872)">
            <rect x="944.882" y="2716.53" width="236.22" height="236.22" style="fill:none;stroke:rgb(255,0,0);stroke-width:0.83px;"/>
        </g>
        <path d="M1062.99,2775.59L944.882,2657.48L944.882,2893.7L1062.99,2775.59Z" style="fill:none;stroke:rgb(255,0,0);stroke-width:0.83px;"/>
        <g transform="matrix(6.12323e-17,-1,1,6.12323e-17,-1405.51,4133.86)">
            <path d="M1062.99,2775.59L944.882,2657.48L944.882,2893.7L1062.99,2775.59Z" style="fill:none;stroke:rgb(255,0,0);stroke-width:0.83px;"/>
        </g>
        <g transform="matrix(1,0,0,1,0,-472.441)">
            <path d="M1062.99,2775.59L944.882,2657.48L944.882,2893.7L1062.99,2775.59Z" style="fill:none;stroke:rgb(255,0,0);stroke-width:0.83px;"/>
        </g>
        <g transform="matrix(1,0,0,1,0,-944.882)">
            <path d="M1062.99,2775.59L944.882,2657.48L944.882,2893.7L1062.99,2775.59Z" style="fill:none;stroke:rgb(255,0,0);stroke-width:0.83px;"/>
        </g>
        <g transform="matrix(6.12323e-17,1,-1,6.12323e-17,4133.86,472.441)">
            <path d="M1062.99,2775.59L944.882,2657.48L944.882,2893.7L1062.99,2775.59Z" style="fill:none;stroke:rgb(255,0,0);stroke-width:0.83px;"/>
        </g>
        <g transform="matrix(-1,0,0,1,2716.54,0)">
            <path d="M1062.99,2775.59L944.882,2657.48L944.882,2893.7L1062.99,2775.59Z" style="fill:none;stroke:rgb(255,0,0);stroke-width:0.83px;"/>
        </g>
        <g transform="matrix(-1,0,0,1,2716.54,-472.441)">
            <path d="M1062.99,2775.59L944.882,2657.48L944.882,2893.7L1062.99,2775.59Z" style="fill:none;stroke:rgb(255,0,0);stroke-width:0.83px;"/>
        </g>
        <g transform="matrix(-1,0,0,1,2716.54,-944.882)">
            <path d="M1062.99,2775.59L944.882,2657.48L944.882,2893.7L1062.99,2775.59Z" style="fill:none;stroke:rgb(255,0,0);stroke-width:0.83px;"/>
        </g>
        <g transform="matrix(1,0,0,1,53.1496,41.3386)">
            <circle cx="1316.93" cy="2734.25" r="17.717" style="fill:none;stroke:rgb(255,0,0);stroke-width:0.83px;"/>
        </g>
        <rect x="1352.36" y="2598.43" width="35.433" height="118.11" style="fill:none;stroke:rgb(255,0,0);stroke-width:0.83px;"/>
        <g transform="matrix(1,0,0,1,0,236.22)">
            <rect x="1352.36" y="2598.43" width="35.433" height="118.11" style="fill:none;stroke:rgb(255,0,0);stroke-width:0.83px;"/>
        </g>
        <g transform="matrix(1,0,0,1,53.1496,-431.102)">
            <circle cx="1316.93" cy="2734.25" r="17.717" style="fill:none;stroke:rgb(255,0,0);stroke-width:0.83px;"/>
        </g>
        <g transform="matrix(1,0,0,1,0,-472.441)">
            <rect x="1352.36" y="2598.43" width="35.433" height="118.11" style="fill:none;stroke:rgb(255,0,0);stroke-width:0.83px;"/>
        </g>
        <g transform="matrix(1,0,0,1,0,-236.22)">
            <rect x="1352.36" y="2598.43" width="35.433" height="118.11" style="fill:none;stroke:rgb(255,0,0);stroke-width:0.83px;"/>
        </g>
        <g transform="matrix(1,0,0,1,53.1496,-903.543)">
            <circle cx="1316.93" cy="2734.25" r="17.717" style="fill:none;stroke:rgb(255,0,0);stroke-width:0.83px;"/>
        </g>
        <g transform="matrix(1,0,0,1,0,-944.882)">
            <rect x="1352.36" y="2598.43" width="35.433" height="118.11" style="fill:none;stroke:rgb(255,0,0);stroke-width:0.83px;"/>
        </g>
        <g transform="matrix(1,0,0,1,0,-708.661)">
            <rect x="1352.36" y="2598.43" width="35.433" height="118.11" style="fill:none;stroke:rgb(255,0,0);stroke-width:0.83px;"/>
        </g>
    </g>
    <g transform="matrix(1,0,0,-1,1488.19,3661.42)">
        <g transform="matrix(0.943396,0,0,0.943396,-766.602,2382.32)">
            <path d="M1190.11,919.099C1113.02,862.067 1062.99,770.49 1062.99,667.323" style="fill:none;stroke:rgb(0,0,255);stroke-width:0.88px;"/>
        </g>
        <g transform="matrix(1,0,0,1,-826.772,2480.38)">
            <path d="M1535.43,531.496C1535.43,629.276 1456.05,708.661 1358.27,708.661C1260.49,708.661 1181.1,629.276 1181.1,531.496" style="fill:none;stroke:rgb(0,0,255);stroke-width:0.83px;"/>
        </g>
        <g transform="matrix(1,0,0,1,-472.441,2480.38)">
            <path d="M708.661,531.496C708.661,498.903 735.123,472.441 767.717,472.441C800.31,472.441 826.772,498.903 826.772,531.496" style="fill:none;stroke:rgb(0,0,255);stroke-width:0.83px;"/>
        </g>
        <g transform="matrix(1.6669,0,0,1.6669,-236.342,-1181.65)">
            <path d="M354.392,2657.48L531.496,2834.59" style="fill:none;stroke:rgb(0,0,255);stroke-width:0.5px;"/>
        </g>
        <g transform="matrix(-0.943396,0,0,0.943396,3483.14,2382.32)">
            <path d="M1190.11,919.099C1113.02,862.067 1062.99,770.49 1062.99,667.323" style="fill:none;stroke:rgb(0,0,255);stroke-width:0.88px;"/>
        </g>
        <g transform="matrix(-1,0,0,1,3543.31,2480.38)">
            <path d="M1535.43,531.496C1535.43,629.276 1456.05,708.661 1358.27,708.661C1260.49,708.661 1181.1,629.276 1181.1,531.496" style="fill:none;stroke:rgb(0,0,255);stroke-width:0.83px;"/>
        </g>
        <g transform="matrix(-1,0,0,1,3188.98,2480.38)">
            <path d="M708.661,531.496C708.661,498.903 735.123,472.441 767.717,472.441C800.31,472.441 826.772,498.903 826.772,531.496" style="fill:none;stroke:rgb(0,0,255);stroke-width:0.83px;"/>
        </g>
        <g transform="matrix(-1.6669,0,0,1.6669,2952.88,-1181.65)">
            <path d="M354.392,2657.48L531.496,2834.59" style="fill:none;stroke:rgb(0,0,255);stroke-width:0.5px;"/>
        </g>
        <g transform="matrix(1.76471,0,0,1.76471,-496.758,-1667.33)">
            <path d="M649.606,2952.7C705.381,2952.7 816.929,2952.7 816.929,2952.7L1017.72,2818.84L1084.65,2818.84L1285.43,2952.7C1285.43,2952.7 1396.98,2952.7 1452.76,2952.7" style="fill:none;stroke:rgb(0,0,255);stroke-width:0.47px;"/>
        </g>
        <g transform="matrix(1,0,0,1,0,590.612)">
            <path d="M1535.43,531.496C1535.43,629.276 1456.05,708.661 1358.27,708.661C1260.49,708.661 1181.1,629.276 1181.1,531.496" style="fill:none;stroke:rgb(0,0,255);stroke-width:0.83px;"/>
        </g>
        <g transform="matrix(1,0,0,1,354.331,590.612)">
            <path d="M708.661,531.496C708.661,498.903 735.123,472.441 767.717,472.441C800.31,472.441 826.772,498.903 826.772,531.496" style="fill:none;stroke:rgb(0,0,255);stroke-width:0.83px;"/>
        </g>
        <g transform="matrix(1,0,0,1,826.772,590.612)">
            <path d="M708.661,531.496C708.661,498.903 735.123,472.441 767.717,472.441C800.31,472.441 826.772,498.903 826.772,531.496" style="fill:none;stroke:rgb(0,0,255);stroke-width:0.83px;"/>
        </g>
        <g transform="matrix(1,0,0,1,-708.661,1653.6)">
            <path d="M1535.43,531.496C1535.43,629.276 1456.05,708.661 1358.27,708.661C1260.49,708.661 1181.1,629.276 1181.1,531.496" style="fill:none;stroke:rgb(0,0,255);stroke-width:0.83px;"/>
        </g>
        <g transform="matrix(1,0,0,1,-354.331,1653.6)">
            <path d="M708.661,531.496C708.661,498.903 735.123,472.441 767.717,472.441C800.31,472.441 826.772,498.903 826.772,531.496" style="fill:none;stroke:rgb(0,0,255);stroke-width:0.83px;"/>
        </g>
        <g transform="matrix(0.943396,0,0,0.943396,-648.492,1555.55)">
            <path d="M1263.31,959.387C1143.42,915.512 1062.99,802.325 1062.99,667.323" style="fill:none;stroke:rgb(0,0,255);stroke-width:0.88px;"/>
        </g>
        <g transform="matrix(1,0,0,1,0,590.612)">
            <path d="M708.661,2421.26C713.911,2318.03 724.409,2111.56 696.85,2019.68C676.315,1951.23 587.643,1897.09 543.307,1870.02" style="fill:none;stroke:rgb(0,0,255);stroke-width:0.83px;"/>
        </g>
        <g transform="matrix(-1,0,0,1,2716.54,590.612)">
            <path d="M708.661,2421.26C713.911,2318.03 724.409,2111.56 696.85,2019.68C676.315,1951.23 587.643,1897.09 543.307,1870.02" style="fill:none;stroke:rgb(0,0,255);stroke-width:0.83px;"/>
        </g>
        <g transform="matrix(1,0,0,1,118.11,-236.16)">
            <path d="M708.661,2421.26C713.911,2318.03 724.409,2111.56 696.85,2019.68C676.315,1951.23 587.643,1897.09 543.307,1870.02" style="fill:none;stroke:rgb(0,0,255);stroke-width:0.83px;"/>
        </g>
        <g transform="matrix(-1,0,0,1,2598.43,-236.16)">
            <path d="M708.661,2421.26C713.911,2318.03 724.409,2111.56 696.85,2019.68C676.315,1951.23 587.643,1897.09 543.307,1870.02" style="fill:none;stroke:rgb(0,0,255);stroke-width:0.83px;"/>
        </g>
        <g transform="matrix(-1,0,0,1,3425.2,1653.6)">
            <path d="M1535.43,531.496C1535.43,629.276 1456.05,708.661 1358.27,708.661C1260.49,708.661 1181.1,629.276 1181.1,531.496" style="fill:none;stroke:rgb(0,0,255);stroke-width:0.83px;"/>
        </g>
        <g transform="matrix(-1,0,0,1,3070.87,1653.6)">
            <path d="M708.661,531.496C708.661,498.903 735.123,472.441 767.717,472.441C800.31,472.441 826.772,498.903 826.772,531.496" style="fill:none;stroke:rgb(0,0,255);stroke-width:0.83px;"/>
        </g>
        <g transform="matrix(-0.943396,0,0,0.943396,3365.03,1555.55)">
            <path d="M1263.31,959.387C1143.42,915.512 1062.99,802.325 1062.99,667.323" style="fill:none;stroke:rgb(0,0,255);stroke-width:0.88px;"/>
        </g>
        <g transform="matrix(-1,0,0,1,3307.09,826.833)">
            <path d="M1535.43,531.496C1535.43,629.276 1456.05,708.661 1358.27,708.661C1260.49,708.661 1181.1,629.276 1181.1,531.496" style="fill:none;stroke:rgb(0,0,255);stroke-width:0.83px;"/>
        </g>
        <g transform="matrix(-1,0,0,1,2952.76,826.833)">
            <path d="M708.661,531.496C708.661,498.903 735.123,472.441 767.717,472.441C800.31,472.441 826.772,498.903 826.772,531.496" style="fill:none;stroke:rgb(0,0,255);stroke-width:0.83px;"/>
        </g>
        <g transform="matrix(-1,0,0,1,2480.31,826.833)">
            <path d="M708.661,531.496C708.661,498.903 735.123,472.441 767.717,472.441" style="fill:none;stroke:rgb(0,0,255);stroke-width:0.83px;"/>
        </g>
        <g transform="matrix(1,0,0,-1,944.882,1771.71)">
            <path d="M708.661,531.496C708.661,498.903 735.123,472.441 767.717,472.441" style="fill:none;stroke:rgb(0,0,255);stroke-width:0.83px;"/>
        </g>
        <g transform="matrix(-0.943396,0,0,0.943396,3246.92,728.779)">
            <path d="M1263.31,959.387C1143.42,915.512 1062.99,802.325 1062.99,667.323" style="fill:none;stroke:rgb(0,0,255);stroke-width:0.88px;"/>
        </g>
        <g transform="matrix(1,0,0,1,-590.551,826.833)">
            <path d="M1535.43,531.496C1535.43,629.276 1456.05,708.661 1358.27,708.661C1260.49,708.661 1181.1,629.276 1181.1,531.496" style="fill:none;stroke:rgb(0,0,255);stroke-width:0.83px;"/>
        </g>
        <g transform="matrix(1,0,0,1,-236.22,826.833)">
            <path d="M708.661,531.496C708.661,498.903 735.123,472.441 767.717,472.441C800.31,472.441 826.772,498.903 826.772,531.496" style="fill:none;stroke:rgb(0,0,255);stroke-width:0.83px;"/>
        </g>
        <g transform="matrix(1,0,0,1,236.22,826.833)">
            <path d="M708.661,531.496C708.661,498.903 735.123,472.441 767.717,472.441" style="fill:none;stroke:rgb(0,0,255);stroke-width:0.83px;"/>
        </g>
        <g transform="matrix(-1,0,0,-1,1771.65,1771.71)">
            <path d="M708.661,531.496C708.661,498.903 735.123,472.441 767.717,472.441" style="fill:none;stroke:rgb(0,0,255);stroke-width:0.83px;"/>
        </g>
        <g transform="matrix(0.943396,0,0,0.943396,-530.382,728.779)">
            <path d="M1263.31,959.387C1143.42,915.512 1062.99,802.325 1062.99,667.323" style="fill:none;stroke:rgb(0,0,255);stroke-width:0.88px;"/>
        </g>
        <g transform="matrix(1,0,0,1.25,0,428.211)">
            <path d="M1062.99,649.606C1062.99,618.11 1062.99,586.614 1062.99,555.118" style="fill:none;stroke:rgb(0,0,255);stroke-width:0.74px;"/>
        </g>
        <g transform="matrix(1,0,0,1.25,590.551,428.211)">
            <path d="M1062.99,649.606C1062.99,618.11 1062.99,586.614 1062.99,555.118" style="fill:none;stroke:rgb(0,0,255);stroke-width:0.74px;"/>
        </g>
        <g transform="matrix(0.75,-0.75,0.75,0.75,-1801.18,1683.07)">
            <rect x="944.882" y="2716.53" width="236.22" height="236.22" style="fill:none;stroke:rgb(255,0,0);stroke-width:0.79px;"/>
        </g>
        <g transform="matrix(0.75,-0.75,0.75,0.75,-1328.74,1683.07)">
            <rect x="944.882" y="2716.53" width="236.22" height="236.22" style="fill:none;stroke:rgb(255,0,0);stroke-width:0.79px;"/>
        </g>
        <g transform="matrix(0.75,-0.75,0.75,0.75,-1801.18,1210.63)">
            <rect x="944.882" y="2716.53" width="236.22" height="236.22" style="fill:none;stroke:rgb(255,0,0);stroke-width:0.79px;"/>
        </g>
        <g transform="matrix(0.75,-0.75,0.75,0.75,-1328.74,1210.63)">
            <rect x="944.882" y="2716.53" width="236.22" height="236.22" style="fill:none;stroke:rgb(255,0,0);stroke-width:0.79px;"/>
        </g>
        <g transform="matrix(0.75,-0.75,0.75,0.75,-1801.18,738.189)">
            <rect x="944.882" y="2716.53" width="236.22" height="236.22" style="fill:none;stroke:rgb(255,0,0);stroke-width:0.79px;"/>
        </g>
        <g transform="matrix(0.75,-0.75,0.75,0.75,-1328.74,738.189)">
            <rect x="944.882" y="2716.53" width="236.22" height="236.22" style="fill:none;stroke:rgb(255,0,0);stroke-width:0.79px;"/>
        </g>
        <g transform="matrix(0.707107,-0.707107,0.707107,0.707107,-1623.87,351.872)">
            <rect x="944.882" y="2716.53" width="236.22" height="236.22" style="fill:none;stroke:rgb(255,0,0);stroke-width:0.83px;"/>
        </g>
        <g transform="matrix(0.707107,-0.707107,0.707107,0.707107,-1171.69,351.872)">
            <rect x="944.882" y="2716.53" width="236.22" height="236.22" style="fill:none;stroke:rgb(255,0,0);stroke-width:0.83px;"/>
        </g>
        <path d="M1062.99,2775.59L944.882,2657.48L944.882,2893.7L1062.99,2775.59Z" style="fill:none;stroke:rgb(255,0,0);stroke-width:0.83px;"/>
        <g transform="matrix(6.12323e-17,-1,1,6.12323e-17,-1405.51,4133.86)">
            <path d="M1062.99,2775.59L944.882,2657.48L944.882,2893.7L1062.99,2775.59Z" style="fill:none;stroke:rgb(255,0,0);stroke-width:0.83px;"/>
        </g>
        <g transform="matrix(1,0,0,1,0,-472.441)">
            <path d="M1062.99,2775.59L944.882,2657.48L944.882,2893.7L1062.99,2775.59Z" style="fill:none;stroke:rgb(255,0,0);stroke-width:0.83px;"/>
        </g>
        <g transform="matrix(1,0,0,1,0,-944.882)">
            <path d="M1062.99,2775.59L944.882,2657.48L944.882,2893.7L1062.99,2775.59Z" style="fill:none;stroke:rgb(255,0,0);stroke-width:0.83px;"/>
        </g>
        <g transform="matrix(6.12323e-17,1,-1,6.12323e-17,4133.86,472.441)">
            <path d="M1062.99,2775.59L944.882,2657.48L944.882,2893.7L1062.99,2775.59Z" style="fill:none;stroke:rgb(255,0,0);stroke-width:0.83px;"/>
        </g>
        <g transform="matrix(-1,0,0,1,2716.54,0)">
            <path d="M1062.99,2775.59L944.882,2657.48L944.882,2893.7L1062.99,2775.59Z" style="fill:none;stroke:rgb(255,0,0);stroke-width:0.83px;"/>
        </g>
        <g transform="matrix(-1,0,0,1,2716.54,-472.441)">
            <path d="M1062.99,2775.59L944.882,2657.48L944.882,2893.7L1062.99,2775.59Z" style="fill:none;stroke:rgb(255,0,0);stroke-width:0.83px;"/>
        </g>
        <g transform="matrix(-1,0,0,1,2716.54,-944.882)">
            <path d="M1062.99,2775.59L944.882,2657.48L944.882,2893.7L1062.99,2775.59Z" style="fill:none;stroke:rgb(255,0,0);stroke-width:0.83px;"/>
        </g>
        <g transform="matrix(1,0,0,1,53.1496,41.3386)">
            <circle cx="1316.93" cy="2734.25" r="17.717" style="fill:none;stroke:rgb(255,0,0);stroke-width:0.83px;"/>
        </g>
        <rect x="1352.36" y="2598.43" width="35.433" height="118.11" style="fill:none;stroke:rgb(255,0,0);stroke-width:0.83px;"/>
        <g transform="matrix(1,0,0,1,0,236.22)">
            <rect x="1352.36" y="2598.43" width="35.433" height="118.11" style="fill:none;stroke:rgb(255,0,0);stroke-width:0.83px;"/>
        </g>
        <g transform="matrix(1,0,0,1,53.1496,-431.102)">
            <circle cx="1316.93" cy="2734.25" r="17.717" style="fill:none;stroke:rgb(255,0,0);stroke-width:0.83px;"/>
        </g>
        <g transform="matrix(1,0,0,1,0,-472.441)">
            <rect x="1352.36" y="2598.43" width="35.433" height="118.11" style="fill:none;stroke:rgb(255,0,0);stroke-width:0.83px;"/>
        </g>
        <g transform="matrix(1,0,0,1,0,-236.22)">
            <rect x="1352.36" y="2598.43" width="35.433" height="118.11" style="fill:none;stroke:rgb(255,0,0);stroke-width:0.83px;"/>
        </g>
        <g transform="matrix(1,0,0,1,53.1496,-903.543)">
            <circle cx="1316.93" cy="2734.25" r="17.717" style="fill:none;stroke:rgb(255,0,0);stroke-width:0.83px;"/>
        </g>
        <g transform="matrix(1,0,0,1,0,-944.882)">
            <rect x="1352.36" y="2598.43" width="35.433" height="118.11" style="fill:none;stroke:rgb(255,0,0);stroke-width:0.83px;"/>
        </g>
        <g transform="matrix(1,0,0,1,0,-708.661)">
            <rect x="1352.36" y="2598.43" width="35.433" height="118.11" style="fill:none;stroke:rgb(255,0,0);stroke-width:0.83px;"/>
        </g>
    </g>
    <g transform="matrix(6.12323e-17,-1,1,6.12323e-17,1771.65,5710.63)">
        <g transform="matrix(1,0,0,1,-82.6772,1535.43)">
            <g transform="matrix(6.12323e-17,-1,1,6.12323e-17,2166.29,3720.47)">
                <path d="M2102.36,550.246C2103.99,550.246 2105.47,550.908 2106.54,551.977C2107.61,553.046 2108.27,554.522 2108.27,556.152L2108.27,612.254C2108.27,613.884 2107.61,615.36 2106.54,616.429C2105.47,617.498 2103.99,618.159 2102.36,618.159L2099.41,618.159C2097.78,618.159 2096.3,618.821 2095.23,619.89C2094.16,620.959 2093.5,622.435 2093.5,624.065L2093.5,641.781C2093.5,643.411 2094.16,644.888 2095.23,645.957C2096.3,647.025 2097.78,647.687 2099.41,647.687L2102.36,647.687C2103.99,647.687 2105.47,648.349 2106.54,649.418C2107.61,650.486 2108.27,651.963 2108.27,653.593L2108.27,715.6C2108.27,722.119 2116.21,727.411 2125.98,727.411C2135.76,727.411 2143.7,722.119 2143.7,715.6L2143.7,653.593C2143.7,651.963 2144.36,650.486 2145.43,649.418C2146.5,648.349 2147.98,647.687 2149.61,647.687L2152.56,647.687C2154.19,647.687 2155.66,647.025 2156.73,645.957C2157.8,644.888 2158.47,643.411 2158.47,641.781L2158.47,624.065C2158.47,622.435 2157.8,620.959 2156.73,619.89C2155.66,618.821 2154.19,618.159 2152.56,618.159L2149.61,618.159C2147.98,618.159 2146.5,617.498 2145.43,616.429C2144.36,615.36 2143.7,613.884 2143.7,612.254L2143.7,556.152C2143.7,554.522 2144.36,553.046 2145.43,551.977C2146.5,550.908 2147.98,550.246 2149.61,550.246" style="fill:none;stroke:rgb(0,0,255);stroke-width:0.83px;"/>
            </g>
            <path d="M2716.53,1653.54L2681.1,1653.54L2681.1,1771.65L2716.53,1771.65" style="fill:none;stroke:rgb(0,0,255);stroke-width:0.83px;"/>
            <g transform="matrix(1,0,0,1,0,-236.22)">
                <path d="M2716.53,1653.54L2681.1,1653.54L2681.1,1771.65L2716.53,1771.65" style="fill:none;stroke:rgb(0,0,255);stroke-width:0.83px;"/>
            </g>
            <path d="M2716.53,1653.54L2716.53,1618.11" style="fill:none;stroke:rgb(0,0,255);stroke-width:0.83px;"/>
            <g transform="matrix(1,0,0,1,0,-82.6772)">
                <path d="M2716.53,1653.54L2716.53,1618.11" style="fill:none;stroke:rgb(0,0,255);stroke-width:0.83px;"/>
            </g>
        </g>
        <g transform="matrix(-1,0,0,1,8267.72,1535.43)">
            <g transform="matrix(6.12323e-17,-1,1,6.12323e-17,2166.29,3720.47)">
                <path d="M2102.36,550.246C2103.99,550.246 2105.47,550.908 2106.54,551.977C2107.61,553.046 2108.27,554.522 2108.27,556.152L2108.27,612.254C2108.27,613.884 2107.61,615.36 2106.54,616.429C2105.47,617.498 2103.99,618.159 2102.36,618.159L2099.41,618.159C2097.78,618.159 2096.3,618.821 2095.23,619.89C2094.16,620.959 2093.5,622.435 2093.5,624.065L2093.5,641.781C2093.5,643.411 2094.16,644.888 2095.23,645.957C2096.3,647.025 2097.78,647.687 2099.41,647.687L2102.36,647.687C2103.99,647.687 2105.47,648.349 2106.54,649.418C2107.61,650.486 2108.27,651.963 2108.27,653.593L2108.27,715.6C2108.27,722.119 2116.21,727.411 2125.98,727.411C2135.76,727.411 2143.7,722.119 2143.7,715.6L2143.7,653.593C2143.7,651.963 2144.36,650.486 2145.43,649.418C2146.5,648.349 2147.98,647.687 2149.61,647.687L2152.56,647.687C2154.19,647.687 2155.66,647.025 2156.73,645.957C2157.8,644.888 2158.47,643.411 2158.47,641.781L2158.47,624.065C2158.47,622.435 2157.8,620.959 2156.73,619.89C2155.66,618.821 2154.19,618.159 2152.56,618.159L2149.61,618.159C2147.98,618.159 2146.5,617.498 2145.43,616.429C2144.36,615.36 2143.7,613.884 2143.7,612.254L2143.7,556.152C2143.7,554.522 2144.36,553.046 2145.43,551.977C2146.5,550.908 2147.98,550.246 2149.61,550.246" style="fill:none;stroke:rgb(0,0,255);stroke-width:0.83px;"/>
            </g>
            <path d="M2716.53,1653.54L2681.1,1653.54L2681.1,1771.65L2716.53,1771.65" style="fill:none;stroke:rgb(0,0,255);stroke-width:0.83px;"/>
            <g transform="matrix(1,0,0,1,0,-236.22)">
                <path d="M2716.53,1653.54L2681.1,1653.54L2681.1,1771.65L2716.53,1771.65" style="fill:none;stroke:rgb(0,0,255);stroke-width:0.83px;"/>
            </g>
            <path d="M2716.53,1653.54L2716.53,1618.11" style="fill:none;stroke:rgb(0,0,255);stroke-width:0.83px;"/>
            <g transform="matrix(1,0,0,1,0,-82.6772)">
                <path d="M2716.53,1653.54L2716.53,1618.11" style="fill:none;stroke:rgb(0,0,255);stroke-width:0.83px;"/>
            </g>
        </g>
        <g transform="matrix(11.9048,0,0,1,-29846.5,1535.43)">
            <path d="M2728.35,1417.32L2976.38,1417.32" style="fill:none;stroke:rgb(0,0,255);stroke-width:0.1px;"/>
        </g>
        <g transform="matrix(11.9048,0,0,1,-29846.5,1889.76)">
            <path d="M2728.35,1417.32L2976.38,1417.32" style="fill:none;stroke:rgb(0,0,255);stroke-width:0.1px;"/>
        </g>
        <g transform="matrix(0.25,-0.25,0.25,0.25,2155.51,2687.01)">
            <rect x="944.882" y="2716.53" width="236.22" height="236.22" style="fill:none;stroke:rgb(255,0,0);stroke-width:2.36px;"/>
        </g>
        <g transform="matrix(0.25,-0.25,0.25,0.25,2391.73,2687.01)">
            <rect x="944.882" y="2716.53" width="236.22" height="236.22" style="fill:none;stroke:rgb(255,0,0);stroke-width:2.36px;"/>
        </g>
        <g transform="matrix(0.25,-0.25,0.25,0.25,2627.95,2687.01)">
            <rect x="944.882" y="2716.53" width="236.22" height="236.22" style="fill:none;stroke:rgb(255,0,0);stroke-width:2.36px;"/>
        </g>
        <g transform="matrix(0.25,-0.25,0.25,0.25,2864.17,2687.01)">
            <rect x="944.882" y="2716.53" width="236.22" height="236.22" style="fill:none;stroke:rgb(255,0,0);stroke-width:2.36px;"/>
        </g>
        <g transform="matrix(0.25,-0.25,0.25,0.25,3100.39,2687.01)">
            <rect x="944.882" y="2716.53" width="236.22" height="236.22" style="fill:none;stroke:rgb(255,0,0);stroke-width:2.36px;"/>
        </g>
        <g transform="matrix(0.25,-0.25,0.25,0.25,3336.61,2687.01)">
            <rect x="944.882" y="2716.53" width="236.22" height="236.22" style="fill:none;stroke:rgb(255,0,0);stroke-width:2.36px;"/>
        </g>
        <g transform="matrix(0.25,-0.25,0.25,0.25,3572.83,2687.01)">
            <rect x="944.882" y="2716.53" width="236.22" height="236.22" style="fill:none;stroke:rgb(255,0,0);stroke-width:2.36px;"/>
        </g>
        <g transform="matrix(0.25,-0.25,0.25,0.25,3809.06,2687.01)">
            <rect x="944.882" y="2716.53" width="236.22" height="236.22" style="fill:none;stroke:rgb(255,0,0);stroke-width:2.36px;"/>
        </g>
        <g transform="matrix(0.25,-0.25,0.25,0.25,4045.28,2687.01)">
            <rect x="944.882" y="2716.53" width="236.22" height="236.22" style="fill:none;stroke:rgb(255,0,0);stroke-width:2.36px;"/>
        </g>
        <g transform="matrix(1,0,0,1,-82.6772,1181.1)">
            <g transform="matrix(6.12323e-17,-1,1,6.12323e-17,2166.29,3720.47)">
                <path d="M2102.36,550.246C2103.99,550.246 2105.47,550.908 2106.54,551.977C2107.61,553.046 2108.27,554.522 2108.27,556.152L2108.27,612.254C2108.27,613.884 2107.61,615.36 2106.54,616.429C2105.47,617.498 2103.99,618.159 2102.36,618.159L2099.41,618.159C2097.78,618.159 2096.3,618.821 2095.23,619.89C2094.16,620.959 2093.5,622.435 2093.5,624.065L2093.5,641.781C2093.5,643.411 2094.16,644.888 2095.23,645.957C2096.3,647.025 2097.78,647.687 2099.41,647.687L2102.36,647.687C2103.99,647.687 2105.47,648.349 2106.54,649.418C2107.61,650.486 2108.27,651.963 2108.27,653.593L2108.27,715.6C2108.27,722.119 2116.21,727.411 2125.98,727.411C2135.76,727.411 2143.7,722.119 2143.7,715.6L2143.7,653.593C2143.7,651.963 2144.36,650.486 2145.43,649.418C2146.5,648.349 2147.98,647.687 2149.61,647.687L2152.56,647.687C2154.19,647.687 2155.66,647.025 2156.73,645.957C2157.8,644.888 2158.47,643.411 2158.47,641.781L2158.47,624.065C2158.47,622.435 2157.8,620.959 2156.73,619.89C2155.66,618.821 2154.19,618.159 2152.56,618.159L2149.61,618.159C2147.98,618.159 2146.5,617.498 2145.43,616.429C2144.36,615.36 2143.7,613.884 2143.7,612.254L2143.7,556.152C2143.7,554.522 2144.36,553.046 2145.43,551.977C2146.5,550.908 2147.98,550.246 2149.61,550.246" style="fill:none;stroke:rgb(0,0,255);stroke-width:0.83px;"/>
            </g>
            <path d="M2716.53,1653.54L2681.1,1653.54L2681.1,1771.65" style="fill:none;stroke:rgb(0,0,255);stroke-width:0.83px;"/>
            <g transform="matrix(1,0,0,1,0,-236.22)">
                <path d="M2716.53,1653.54L2681.1,1653.54L2681.1,1771.65L2716.53,1771.65" style="fill:none;stroke:rgb(0,0,255);stroke-width:0.83px;"/>
            </g>
            <path d="M2716.53,1653.54L2716.53,1618.11" style="fill:none;stroke:rgb(0,0,255);stroke-width:0.83px;"/>
            <g transform="matrix(1,0,0,1,0,-82.6772)">
                <path d="M2716.53,1653.54L2716.53,1618.11" style="fill:none;stroke:rgb(0,0,255);stroke-width:0.83px;"/>
            </g>
        </g>
        <g transform="matrix(-1,0,0,1,8267.72,1181.1)">
            <g transform="matrix(6.12323e-17,-1,1,6.12323e-17,2166.29,3720.47)">
                <path d="M2102.36,550.246C2103.99,550.246 2105.47,550.908 2106.54,551.977C2107.61,553.046 2108.27,554.522 2108.27,556.152L2108.27,612.254C2108.27,613.884 2107.61,615.36 2106.54,616.429C2105.47,617.498 2103.99,618.159 2102.36,618.159L2099.41,618.159C2097.78,618.159 2096.3,618.821 2095.23,619.89C2094.16,620.959 2093.5,622.435 2093.5,624.065L2093.5,641.781C2093.5,643.411 2094.16,644.888 2095.23,645.957C2096.3,647.025 2097.78,647.687 2099.41,647.687L2102.36,647.687C2103.99,647.687 2105.47,648.349 2106.54,649.418C2107.61,650.486 2108.27,651.963 2108.27,653.593L2108.27,715.6C2108.27,722.119 2116.21,727.411 2125.98,727.411C2135.76,727.411 2143.7,722.119 2143.7,715.6L2143.7,653.593C2143.7,651.963 2144.36,650.486 2145.43,649.418C2146.5,648.349 2147.98,647.687 2149.61,647.687L2152.56,647.687C2154.19,647.687 2155.66,647.025 2156.73,645.957C2157.8,644.888 2158.47,643.411 2158.47,641.781L2158.47,624.065C2158.47,622.435 2157.8,620.959 2156.73,619.89C2155.66,618.821 2154.19,618.159 2152.56,618.159L2149.61,618.159C2147.98,618.159 2146.5,617.498 2145.43,616.429C2144.36,615.36 2143.7,613.884 2143.7,612.254L2143.7,556.152C2143.7,554.522 2144.36,553.046 2145.43,551.977C2146.5,550.908 2147.98,550.246 2149.61,550.246" style="fill:none;stroke:rgb(0,0,255);stroke-width:0.83px;"/>
            </g>
            <path d="M2716.53,1653.54L2681.1,1653.54L2681.1,1771.65" style="fill:none;stroke:rgb(0,0,255);stroke-width:0.83px;"/>
            <g transform="matrix(1,0,0,1,0,-236.22)">
                <path d="M2716.53,1653.54L2681.1,1653.54L2681.1,1771.65L2716.53,1771.65" style="fill:none;stroke:rgb(0,0,255);stroke-width:0.83px;"/>
            </g>
            <path d="M2716.53,1653.54L2716.53,1618.11" style="fill:none;stroke:rgb(0,0,255);stroke-width:0.83px;"/>
            <g transform="matrix(1,0,0,1,0,-82.6772)">
                <path d="M2716.53,1653.54L2716.53,1618.11" style="fill:none;stroke:rgb(0,0,255);stroke-width:0.83px;"/>
            </g>
        </g>
        <g transform="matrix(11.9048,0,0,1,-29846.5,1181.1)">
            <path d="M2728.35,1417.32L2976.38,1417.32" style="fill:none;stroke:rgb(0,0,255);stroke-width:0.1px;"/>
        </g>
        <g transform="matrix(0.25,-0.25,0.25,0.25,2155.51,2332.68)">
            <rect x="944.882" y="2716.53" width="236.22" height="236.22" style="fill:none;stroke:rgb(255,0,0);stroke-width:2.36px;"/>
        </g>
        <g transform="matrix(0.25,-0.25,0.25,0.25,2391.73,2332.68)">
            <rect x="944.882" y="2716.53" width="236.22" height="236.22" style="fill:none;stroke:rgb(255,0,0);stroke-width:2.36px;"/>
        </g>
        <g transform="matrix(0.25,-0.25,0.25,0.25,2627.95,2332.68)">
            <rect x="944.882" y="2716.53" width="236.22" height="236.22" style="fill:none;stroke:rgb(255,0,0);stroke-width:2.36px;"/>
        </g>
        <g transform="matrix(0.25,-0.25,0.25,0.25,2864.17,2332.68)">
            <rect x="944.882" y="2716.53" width="236.22" height="236.22" style="fill:none;stroke:rgb(255,0,0);stroke-width:2.36px;"/>
        </g>
        <g transform="matrix(0.25,-0.25,0.25,0.25,3100.39,2332.68)">
            <rect x="944.882" y="2716.53" width="236.22" height="236.22" style="fill:none;stroke:rgb(255,0,0);stroke-width:2.36px;"/>
        </g>
        <g transform="matrix(0.25,-0.25,0.25,0.25,3336.61,2332.68)">
            <rect x="944.882" y="2716.53" width="236.22" height="236.22" style="fill:none;stroke:rgb(255,0,0);stroke-width:2.36px;"/>
        </g>
        <g transform="matrix(0.25,-0.25,0.25,0.25,3572.83,2332.68)">
            <rect x="944.882" y="2716.53" width="236.22" height="236.22" style="fill:none;stroke:rgb(255,0,0);stroke-width:2.36px;"/>
        </g>
        <g transform="matrix(0.25,-0.25,0.25,0.25,3809.06,2332.68)">
            <rect x="944.882" y="2716.53" width="236.22" height="236.22" style="fill:none;stroke:rgb(255,0,0);stroke-width:2.36px;"/>
        </g>
        <g transform="matrix(0.25,-0.25,0.25,0.25,4045.28,2332.68)">
            <rect x="944.882" y="2716.53" width="236.22" height="236.22" style="fill:none;stroke:rgb(255,0,0);stroke-width:2.36px;"/>
        </g>
        <g transform="matrix(1,0,0,1,-82.6772,826.772)">
            <g transform="matrix(6.12323e-17,-1,1,6.12323e-17,2166.29,3720.47)">
                <path d="M2102.36,550.246C2103.99,550.246 2105.47,550.908 2106.54,551.977C2107.61,553.046 2108.27,554.522 2108.27,556.152L2108.27,612.254C2108.27,613.884 2107.61,615.36 2106.54,616.429C2105.47,617.498 2103.99,618.159 2102.36,618.159L2099.41,618.159C2097.78,618.159 2096.3,618.821 2095.23,619.89C2094.16,620.959 2093.5,622.435 2093.5,624.065L2093.5,641.781C2093.5,643.411 2094.16,644.888 2095.23,645.957C2096.3,647.025 2097.78,647.687 2099.41,647.687L2102.36,647.687C2103.99,647.687 2105.47,648.349 2106.54,649.418C2107.61,650.486 2108.27,651.963 2108.27,653.593L2108.27,715.6C2108.27,722.119 2116.21,727.411 2125.98,727.411C2135.76,727.411 2143.7,722.119 2143.7,715.6L2143.7,653.593C2143.7,651.963 2144.36,650.486 2145.43,649.418C2146.5,648.349 2147.98,647.687 2149.61,647.687L2152.56,647.687C2154.19,647.687 2155.66,647.025 2156.73,645.957C2157.8,644.888 2158.47,643.411 2158.47,641.781L2158.47,624.065C2158.47,622.435 2157.8,620.959 2156.73,619.89C2155.66,618.821 2154.19,618.159 2152.56,618.159L2149.61,618.159C2147.98,618.159 2146.5,617.498 2145.43,616.429C2144.36,615.36 2143.7,613.884 2143.7,612.254L2143.7,556.152C2143.7,554.522 2144.36,553.046 2145.43,551.977C2146.5,550.908 2147.98,550.246 2149.61,550.246" style="fill:none;stroke:rgb(0,0,255);stroke-width:0.83px;"/>
            </g>
            <path d="M2716.53,1653.54L2681.1,1653.54L2681.1,1771.65" style="fill:none;stroke:rgb(0,0,255);stroke-width:0.83px;"/>
            <g transform="matrix(1,0,0,1,0,-236.22)">
                <path d="M2716.53,1653.54L2681.1,1653.54L2681.1,1771.65L2716.53,1771.65" style="fill:none;stroke:rgb(0,0,255);stroke-width:0.83px;"/>
            </g>
            <path d="M2716.53,1653.54L2716.53,1618.11" style="fill:none;stroke:rgb(0,0,255);stroke-width:0.83px;"/>
            <g transform="matrix(1,0,0,1,0,-82.6772)">
                <path d="M2716.53,1653.54L2716.53,1618.11" style="fill:none;stroke:rgb(0,0,255);stroke-width:0.83px;"/>
            </g>
        </g>
        <g transform="matrix(-1,0,0,1,8267.72,826.772)">
            <g transform="matrix(6.12323e-17,-1,1,6.12323e-17,2166.29,3720.47)">
                <path d="M2102.36,550.246C2103.99,550.246 2105.47,550.908 2106.54,551.977C2107.61,553.046 2108.27,554.522 2108.27,556.152L2108.27,612.254C2108.27,613.884 2107.61,615.36 2106.54,616.429C2105.47,617.498 2103.99,618.159 2102.36,618.159L2099.41,618.159C2097.78,618.159 2096.3,618.821 2095.23,619.89C2094.16,620.959 2093.5,622.435 2093.5,624.065L2093.5,641.781C2093.5,643.411 2094.16,644.888 2095.23,645.957C2096.3,647.025 2097.78,647.687 2099.41,647.687L2102.36,647.687C2103.99,647.687 2105.47,648.349 2106.54,649.418C2107.61,650.486 2108.27,651.963 2108.27,653.593L2108.27,715.6C2108.27,722.119 2116.21,727.411 2125.98,727.411C2135.76,727.411 2143.7,722.119 2143.7,715.6L2143.7,653.593C2143.7,651.963 2144.36,650.486 2145.43,649.418C2146.5,648.349 2147.98,647.687 2149.61,647.687L2152.56,647.687C2154.19,647.687 2155.66,647.025 2156.73,645.957C2157.8,644.888 2158.47,643.411 2158.47,641.781L2158.47,624.065C2158.47,622.435 2157.8,620.959 2156.73,619.89C2155.66,618.821 2154.19,618.159 2152.56,618.159L2149.61,618.159C2147.98,618.159 2146.5,617.498 2145.43,616.429C2144.36,615.36 2143.7,613.884 2143.7,612.254L2143.7,556.152C2143.7,554.522 2144.36,553.046 2145.43,551.977C2146.5,550.908 2147.98,550.246 2149.61,550.246" style="fill:none;stroke:rgb(0,0,255);stroke-width:0.83px;"/>
            </g>
            <path d="M2716.53,1653.54L2681.1,1653.54L2681.1,1771.65" style="fill:none;stroke:rgb(0,0,255);stroke-width:0.83px;"/>
            <g transform="matrix(1,0,0,1,0,-236.22)">
                <path d="M2716.53,1653.54L2681.1,1653.54L2681.1,1771.65L2716.53,1771.65" style="fill:none;stroke:rgb(0,0,255);stroke-width:0.83px;"/>
            </g>
            <path d="M2716.53,1653.54L2716.53,1618.11" style="fill:none;stroke:rgb(0,0,255);stroke-width:0.83px;"/>
            <g transform="matrix(1,0,0,1,0,-82.6772)">
                <path d="M2716.53,1653.54L2716.53,1618.11" style="fill:none;stroke:rgb(0,0,255);stroke-width:0.83px;"/>
            </g>
        </g>
        <g transform="matrix(11.9048,0,0,1,-29846.5,826.772)">
            <path d="M2728.35,1417.32L2976.38,1417.32" style="fill:none;stroke:rgb(0,0,255);stroke-width:0.1px;"/>
        </g>
        <g transform="matrix(0.25,-0.25,0.25,0.25,2155.51,1978.35)">
            <rect x="944.882" y="2716.53" width="236.22" height="236.22" style="fill:none;stroke:rgb(255,0,0);stroke-width:2.36px;"/>
        </g>
        <g transform="matrix(0.25,-0.25,0.25,0.25,2391.73,1978.35)">
            <rect x="944.882" y="2716.53" width="236.22" height="236.22" style="fill:none;stroke:rgb(255,0,0);stroke-width:2.36px;"/>
        </g>
        <g transform="matrix(0.25,-0.25,0.25,0.25,2627.95,1978.35)">
            <rect x="944.882" y="2716.53" width="236.22" height="236.22" style="fill:none;stroke:rgb(255,0,0);stroke-width:2.36px;"/>
        </g>
        <g transform="matrix(0.25,-0.25,0.25,0.25,2864.17,1978.35)">
            <rect x="944.882" y="2716.53" width="236.22" height="236.22" style="fill:none;stroke:rgb(255,0,0);stroke-width:2.36px;"/>
        </g>
        <g transform="matrix(0.25,-0.25,0.25,0.25,3100.39,1978.35)">
            <rect x="944.882" y="2716.53" width="236.22" height="236.22" style="fill:none;stroke:rgb(255,0,0);stroke-width:2.36px;"/>
        </g>
        <g transform="matrix(0.25,-0.25,0.25,0.25,3336.61,1978.35)">
            <rect x="944.882" y="2716.53" width="236.22" height="236.22" style="fill:none;stroke:rgb(255,0,0);stroke-width:2.36px;"/>
        </g>
        <g transform="matrix(0.25,-0.25,0.25,0.25,3572.83,1978.35)">
            <rect x="944.882" y="2716.53" width="236.22" height="236.22" style="fill:none;stroke:rgb(255,0,0);stroke-width:2.36px;"/>
        </g>
        <g transform="matrix(0.25,-0.25,0.25,0.25,3809.06,1978.35)">
            <rect x="944.882" y="2716.53" width="236.22" height="236.22" style="fill:none;stroke:rgb(255,0,0);stroke-width:2.36px;"/>
        </g>
        <g transform="matrix(0.25,-0.25,0.25,0.25,4045.28,1978.35)">
            <rect x="944.882" y="2716.53" width="236.22" height="236.22" style="fill:none;stroke:rgb(255,0,0);stroke-width:2.36px;"/>
        </g>
    </g>
</svg>
