<?xml version="1.0" standalone="no"?>

<!DOCTYPE svg PUBLIC "-//W3C//DTD SVG 20010904//EN"

 "http://www.w3.org/TR/2001/REC-SVG-20010904/DTD/svg10.dtd">

<svg version="1.0" xmlns="http://www.w3.org/2000/svg"

 width="1517.000000pt" height="822.000000pt" viewBox="0 0 1517.000000 822.000000"

 preserveAspectRatio="xMidYMid meet">

<path fill="#020205" stroke="none" d="
M1196 813

C1170 812 1124 812 1094 811

C1063 810 1008 810 972 809

C901 808 624 808 560 808

C538 809 499 809 473 809

C447 810 378 810 320 811

C248 812 187 812 132 811

L50 811

L49 800

C49 782 51 766 57 730

C59 717 58 713 54 699

C50 686 50 686 51 668

C52 658 52 649 52 648

C53 642 55 618 55 615

C55 611 55 610 38 596

C22 581 22 581 22 569

C22 560 22 557 23 556

C24 555 30 555 43 555

L61 556

L62 545

C64 527 67 496 69 478

C76 390 75 396 79 392

C81 391 83 389 84 389

L85 389

L86 392

C87 394 88 396 89 396

L89 397

L93 394

C96 391 96 391 96 347

C96 304 96 304 102 289

C105 281 109 273 109 271

L110 268

L112 268

C113 268 116 275 120 287

C126 306 126 306 125 317

C124 323 124 329 124 332

L124 336

L126 336

C128 336 139 335 151 333

C163 331 182 329 193 327

L213 325

L213 319

C214 315 214 304 215 294

C216 277 217 267 222 226

C226 194 227 185 229 184

L230 184

L230 187

C230 190 233 210 235 223

C236 227 243 267 244 274

C245 277 245 289 246 300

L247 320

L256 319

C260 319 276 318 290 316

L315 313

L315 302

C315 291 315 291 311 287

C307 282 307 282 309 276

C309 273 312 263 313 254

C315 244 320 220 325 200

C332 163 332 163 330 154

C328 148 328 142 328 137

C328 130 328 129 325 126

C320 118 320 119 320 94

C321 71 321 71 325 56

C328 48 331 41 332 40

L333 39

L341 54

C349 70 349 70 348 89

C348 108 348 108 351 113

C353 116 355 118 355 118

L356 118

L364 92

C375 62 385 32 391 17

L395 6

L396 6

C397 7 399 10 407 37

C414 59 423 87 435 124

C483 267 489 284 488 286

C487 286 485 288 484 289

C481 290 481 290 481 302

C482 308 483 319 484 325

C485 336 485 336 483 339

C478 348 478 345 482 380

C484 397 486 412 486 413

C488 414 502 417 503 416

C503 415 504 411 506 406

C507 401 508 397 508 396

L509 396

L510 397

C510 397 515 407 520 419

C526 431 530 441 531 441

C531 442 541 443 553 443

C568 444 574 445 575 444

C575 443 587 394 597 353

L597 351

L598 351

C599 352 602 358 611 383

C615 392 619 402 620 404

L622 409

L623 409

L624 409

L625 398

C626 392 627 388 628 387

L629 387

L631 401

C634 412 634 417 634 428

C634 441 634 441 643 450

C651 460 651 460 651 483

C651 507 651 507 656 508

L659 509

L659 513

C659 519 659 520 654 521

C649 522 649 524 649 545

L650 563

L657 562

C660 562 668 561 673 561

L683 560

L683 543

C683 527 683 527 681 525

C678 524 678 524 678 504

C678 489 678 484 677 483

C676 483 672 481 668 479

C661 476 661 476 660 469

C660 462 660 462 668 456

C676 450 676 450 677 437

C678 421 674 431 708 357

C713 346 713 345 715 330

C716 322 717 313 717 311

L717 308

L718 308

L719 308

L724 329

C729 348 731 354 742 382

C749 399 754 413 755 413

L755 413

L756 413

C756 412 758 403 760 392

L764 372

L765 372

C765 372 768 378 770 385

C773 392 776 401 778 404

L780 411

L781 411

C781 411 783 408 785 405

L788 399

L789 399

C790 399 792 403 795 408

C799 416 799 416 798 426

C798 435 798 436 801 443

C804 449 804 451 804 459

C804 466 804 468 806 470

C807 472 809 473 809 473

L810 473

L810 455

C810 436 810 436 813 432

C815 429 816 427 817 427

C817 427 820 429 822 432

C827 438 827 438 827 454

C828 470 828 470 833 473

C837 476 838 476 845 476

L852 476

L852 470

C852 466 852 465 849 463

C846 461 846 461 846 454

C847 448 848 444 852 433

C855 426 861 411 865 402

C869 392 873 383 874 383

L875 383

L880 392

C883 397 889 408 894 416

C898 424 902 430 902 431

C902 431 904 435 907 439

C909 443 911 448 911 449

C911 451 911 452 912 452

C913 453 927 449 928 448

C929 448 928 431 927 412

C925 380 925 376 923 374

C921 373 921 371 921 364

C921 360 920 355 920 354

C919 351 919 348 923 334

C926 325 929 315 929 313

C930 311 931 308 932 308

L933 308

L941 327

C945 337 949 345 949 346

L950 346

L950 336

C950 330 950 318 949 310

C948 294 948 294 945 290

C942 287 941 285 941 281

C940 278 939 274 939 272

C938 269 938 268 945 252

C950 242 958 225 963 214

C968 202 973 190 975 186

L978 180

L980 182

C981 183 985 190 989 197

C993 204 1001 216 1006 225

C1011 234 1018 244 1020 249

C1025 258 1025 258 1025 270

C1025 281 1024 283 1022 287

C1018 293 1018 299 1022 310

C1024 316 1024 320 1025 333

L1026 349

L1028 349

C1033 349 1034 345 1034 333

C1034 324 1034 321 1036 316

C1039 308 1043 301 1044 301

L1045 301

L1047 307

C1050 313 1057 333 1059 339

C1060 341 1060 350 1059 368

C1057 395 1057 395 1052 404

C1047 412 1047 412 1048 432

C1049 443 1050 455 1051 458

L1051 464

L1053 464

C1055 464 1070 460 1094 454

C1098 453 1103 452 1107 452

L1113 453

L1114 446

C1115 442 1118 435 1121 430

C1123 425 1127 419 1129 415

C1131 412 1133 409 1134 408

L1135 407

L1138 410

C1139 411 1145 420 1152 429

C1164 445 1164 445 1164 452

C1164 458 1164 459 1166 460

C1171 463 1173 461 1175 452

C1175 449 1176 447 1176 446

L1177 446

L1181 451

C1189 462 1188 459 1191 500

C1193 527 1194 538 1195 539

C1196 539 1201 541 1206 542

L1216 545

L1217 560

C1218 573 1218 577 1219 578

C1220 578 1225 579 1231 580

C1236 580 1244 581 1248 582

C1256 583 1256 583 1260 589

C1264 594 1264 594 1264 605

L1264 615

L1270 615

C1274 614 1282 613 1289 613

C1302 611 1330 611 1337 612

C1339 613 1345 615 1350 617

C1363 624 1390 631 1425 638

C1449 643 1447 641 1455 657

C1466 674 1473 693 1475 709

C1477 723 1482 732 1493 739

C1496 741 1499 744 1501 746

C1505 749 1505 750 1506 756

C1506 764 1504 802 1503 808

L1502 812

L1485 812

C1461 813 1252 814 1196 813

Z

M790 748

C790 710 789 706 788 704

C786 700 784 700 782 703

C780 705 780 711 780 747

C780 770 780 789 781 789

C781 790 783 790 785 790

L790 790

L790 748

Z

M765 743

C765 705 764 701 763 699

C761 695 759 695 756 698

C754 700 754 700 754 742

C754 765 754 784 755 784

C755 785 757 785 760 785

L765 785

L765 743

Z

M738 742

C738 701 738 696 735 693

L733 691

L731 693

C728 695 728 695 728 737

C728 760 728 779 729 779

C729 780 731 780 733 780

L738 780

L738 742

Z

M712 734

C712 699 711 692 710 690

C708 686 707 685 704 688

C701 691 701 691 701 732

C701 755 701 774 702 774

C702 775 704 775 707 775

L712 775

L712 734

Z

M685 730

C685 696 685 688 684 685

L682 682

L680 682

C679 682 678 683 677 684

C675 685 675 688 675 727

C675 751 675 770 676 770

C676 771 678 771 680 771

L685 771

L685 730

Z

M648 762

L648 759

L646 759

L645 759

L644 761

C644 763 644 765 644 766

L645 767

L646 767

L648 766

L648 762

Z

M504 705

C504 705 504 703 503 703

L502 702

L501 703

C500 703 500 705 500 705

L501 707

L502 707

L503 707

L504 705

Z

M446 686

C446 685 446 684 445 684

L444 683

L443 684

L442 686

L442 687

C443 688 444 688 445 688

L446 688

L446 686

Z

M805 681

L805 680

L804 680

L803 680

L802 682

L802 683

L803 683

L805 682

L805 681

Z

M763 677

C763 676 763 674 763 673

L762 672

L760 673

C759 674 759 676 759 676

L760 678

L761 678

L762 678

L763 677

Z

M713 663

L711 662

L710 663

C710 664 710 666 710 667

L711 668

L713 667

L714 665

L713 663

Z

M662 655

L662 653

L660 652

L659 652

L658 653

C658 654 658 656 658 657

L659 658

L660 658

L662 657

L662 655

Z

M411 651

C411 651 411 649 410 649

L409 648

L408 649

C407 649 407 651 407 651

L408 653

L409 653

L410 653

L411 651

Z

M612 646

C612 646 612 644 611 644

L610 643

L609 644

C608 644 608 646 608 646

L609 648

L610 648

L611 648

L612 646

Z

M523 629

L523 627

L521 626

L520 626

L519 627

C519 628 519 630 519 631

L520 632

L521 632

L523 631

L523 629

Z

M550 630

L550 629

L549 628

L548 627

L547 628

L546 629

L546 630

C547 631 548 631 548 631

C548 631 549 631 550 630

Z

M505 615

C505 615 505 613 504 613

L503 612

L502 613

C501 613 501 615 501 615

L502 617

L503 617

L504 617

L505 615

Z

M909 592

C909 581 909 571 908 568

L908 564

L907 564

L905 564

L904 567

C904 570 904 611 905 612

L905 613

L907 613

L909 612

L909 592

Z

M377 608

L377 607

L376 607

L374 607

L374 608

C374 609 374 610 375 610

L375 611

L376 610

C377 610 377 609 377 608

Z

M566 595

C570 592 570 592 570 584

C571 571 569 565 562 561

C559 560 559 560 556 561

C554 562 552 565 550 567

C548 570 548 570 547 589

C547 599 547 608 547 609

L548 610

L555 604

C558 601 563 597 566 595

Z

M926 584

C926 571 925 560 925 559

L924 559

L923 560

C922 561 921 567 921 584

C921 596 921 607 921 608

L922 609

L924 609

L926 608

L926 584

Z

M419 606

L420 604

L420 603

C418 600 414 603 415 606

L416 607

L417 607

C417 607 418 606 419 606

Z

M1111 593

C1111 586 1111 579 1111 578

L1110 575

L1108 575

L1107 575

L1107 589

C1107 597 1108 604 1108 605

L1109 606

L1110 606

L1112 605

L1111 593

Z

M484 603

C484 603 484 601 483 601

L482 600

L481 601

C480 601 480 603 480 603

L481 605

L482 605

L483 605

L484 603

Z

M1099 590

C1099 581 1099 575 1098 575

L1097 574

L1096 575

C1094 576 1093 598 1095 602

L1096 605

L1097 605

L1099 604

L1099 590

Z

M1131 598

L1131 591

L1128 591

L1126 591

L1125 596

C1125 600 1125 603 1125 604

L1126 605

L1128 605

L1131 605

L1131 598

Z

M773 598

L773 594

L770 594

L768 594

L767 597

C767 599 767 601 767 602

L768 603

L770 603

L773 603

L773 598

Z

M464 598

L464 596

L463 596

C461 596 460 598 461 599

L461 600

L462 600

C463 600 464 599 464 598

Z

M724 584

L724 580

L721 580

L719 580

L718 582

C718 584 718 586 718 587

L719 588

L721 588

L724 588

L724 584

Z

M276 581

L276 578

L274 578

L273 578

L272 581

C272 582 272 584 273 585

L273 586

L274 586

L276 585

L276 581

Z

M317 582

L316 581

L315 582

C314 582 314 584 314 585

L315 586

L316 585

C317 585 317 583 317 582

Z

M653 580

L653 576

L650 576

L648 576

L647 578

C647 580 647 582 647 583

L648 584

L650 584

L653 584

L653 580

Z

M1051 562

L1051 558

L1048 558

L1046 558

L1045 560

C1045 562 1045 564 1045 565

L1046 566

L1048 566

L1051 566

L1051 562

Z

M700 555

L700 551

L697 551

L695 551

L694 553

C694 555 694 557 694 558

L695 559

L697 559

L700 559

L700 555

Z

M271 550

L271 547

L270 547

L269 547

L268 550

C268 552 268 554 268 555

L269 556

L270 555

C271 555 271 553 271 550

Z

M858 554

L860 554

L860 538

C860 525 860 521 859 519

L857 518

L856 519

C855 520 854 525 854 536

C854 545 854 553 854 554

L855 555

L856 555

C856 555 858 555 858 554

Z

M427 552

L428 552

L428 543

L428 535

L424 535

L420 535

L419 543

C419 548 419 552 419 553

L420 554

L423 553

C424 553 426 553 427 552

Z

M451 544

L451 535

L449 534

C447 533 445 533 444 534

L441 535

L441 543

C441 548 441 552 442 552

C442 553 444 553 446 553

L451 553

L451 544

Z

M313 549

C313 548 313 547 312 546

L311 546

L310 547

C310 548 310 550 310 551

L311 552

L312 552

C313 551 313 550 313 549

Z

M871 536

C871 527 871 519 871 518

L870 516

L868 516

L867 516

L866 519

C865 521 865 550 866 551

C866 552 867 552 868 552

L871 552

L871 536

Z

M86 547

L86 546

L84 546

L83 546

L82 547

L82 549

L84 549

L86 548

L86 547

Z

M130 546

L130 545

L129 544

L128 543

L127 544

L126 545

L126 546

C127 547 128 547 128 547

C128 547 129 547 130 546

Z

M959 540

C959 538 959 536 958 535

L956 534

L955 535

C953 536 952 543 954 544

C954 545 955 545 956 545

L959 545

L959 540

Z

M983 541

C984 535 983 530 981 529

L980 529

L978 531

C977 532 976 543 978 544

C978 545 979 545 980 545

L982 545

L983 541

Z

M171 543

L171 542

L170 541

L169 540

L168 541

L167 542

L167 543

C168 544 169 544 169 544

C169 544 170 544 171 543

Z

M773 539

L773 535

L770 535

L768 535

L767 538

C767 540 767 542 767 543

L768 544

L770 544

L773 544

L773 539

Z

M1149 543

C1151 541 1150 521 1149 517

C1146 509 1139 508 1133 514

C1130 517 1130 517 1130 525

C1131 529 1131 534 1131 537

L1131 542

L1133 543

C1137 544 1147 544 1149 543

Z

M216 541

C216 541 216 539 215 539

L214 538

L213 539

L212 541

L212 542

C213 543 214 543 214 543

L215 543

L216 541

Z

M638 537

L638 534

L636 534

L635 534

L634 536

C634 538 634 540 634 541

L635 542

L636 542

L638 541

L638 537

Z

M906 524

C906 511 905 507 904 506

L903 505

L901 506

C900 508 900 512 900 525

C900 533 900 541 901 541

C901 542 902 542 903 542

L906 542

L906 524

Z

M582 535

L582 533

L580 533

L579 533

L578 534

C578 535 578 537 578 538

L579 539

L580 539

L582 538

L582 535

Z

M604 535

L604 531

L603 531

L601 531

L601 534

C600 538 600 539 603 539

L604 539

L604 535

Z

M566 531

L566 527

L564 527

L563 528

L562 530

C562 532 562 534 562 535

L563 536

L564 535

C565 535 565 533 566 531

Z

M923 519

C923 505 923 502 921 501

L920 500

L918 501

C917 503 917 507 917 519

C917 528 917 535 918 535

C918 536 919 536 920 536

L923 536

L923 519

Z

M95 534

C95 533 96 530 96 527

C96 524 96 522 94 521

L92 519

L90 520

C87 522 87 523 87 528

C87 531 87 534 88 534

C89 535 94 535 95 534

Z

M118 528

L118 521

L115 520

C113 520 112 520 111 521

C110 522 109 531 110 534

L110 535

L114 535

L118 535

L118 528

Z

M137 533

C139 531 140 520 138 518

L137 517

L134 518

C132 519 131 520 131 526

C131 531 131 532 132 533

C134 534 135 534 137 533

Z

M167 526

C167 520 167 519 165 518

C164 517 162 517 161 518

L158 519

L158 525

C158 529 158 532 159 532

C159 533 161 533 163 533

L167 533

L167 526

Z

M547 528

L547 525

L546 525

L545 525

L544 527

C544 528 544 530 544 531

L545 532

L546 531

C547 531 547 529 547 528

Z

M194 528

C195 525 195 519 194 517

C192 516 189 516 187 517

C187 518 186 521 185 525

L185 531

L189 531

L193 531

L194 528

Z

M222 525

C223 523 223 520 223 518

L223 514

L220 513

C216 513 214 516 214 522

C214 525 214 528 215 528

C215 529 217 529 218 529

L221 529

L222 525

Z

M250 527

C251 526 251 524 251 520

L251 514

L247 513

C243 513 241 516 241 523

C241 525 241 528 242 528

C243 529 248 528 250 527

Z

M701 522

L701 518

L698 518

L696 518

L695 520

C695 522 695 524 695 525

L696 526

L698 526

L701 526

L701 522

Z

M724 517

L724 514

L721 514

L719 514

L718 516

C718 520 720 522 722 522

L724 521

L724 517

Z

M391 507

C391 506 391 498 391 490

C391 475 391 474 389 471

C388 470 386 468 385 467

C382 466 382 466 379 467

C374 471 373 474 372 490

C372 498 372 506 372 507

L373 508

L382 508

L390 508

L391 507

Z

M1045 499

L1045 492

L1043 491

L1041 491

L1041 499

C1041 503 1041 507 1042 507

L1042 508

L1043 508

L1045 507

L1045 499

Z

M447 503

C448 501 448 475 447 471

C446 467 441 462 438 462

C437 462 435 464 433 466

C429 470 429 470 428 485

C428 494 428 502 428 502

L429 504

L437 504

C443 504 446 504 447 503

Z

M93 481

C93 464 93 461 90 461

C89 461 88 462 87 463

C86 465 86 470 85 480

C85 489 85 496 85 497

L86 498

L89 498

L93 498

L93 481

Z

M118 479

L118 461

L115 461

C111 461 110 464 110 481

C110 489 110 496 111 496

C111 497 113 497 114 497

L118 497

L118 479

Z

M141 494

C142 492 142 464 141 461

L140 458

L139 458

C135 458 134 462 134 478

C134 487 134 494 134 494

L134 495

L137 495

C138 495 140 494 141 494

Z

M630 492

C631 491 631 489 631 487

L631 484

L629 483

C625 482 622 489 625 492

C627 493 628 493 630 492

Z

M168 474

L168 456

L165 455

L163 455

L162 458

C160 460 160 464 160 476

C160 484 160 491 161 491

C161 492 163 492 164 492

L168 492

L168 474

Z

M196 490

C198 489 198 488 198 475

C198 468 197 460 197 459

L196 456

L194 455

L192 455

L191 458

C189 460 189 464 189 476

C189 484 189 491 190 491

C191 492 193 492 196 490

Z

M701 487

L701 483

L698 483

L696 483

L695 486

C695 488 695 490 695 491

L696 492

L698 492

L701 492

L701 487

Z

M995 483

C995 479 995 475 994 475

L993 474

L992 475

C990 476 990 478 990 482

C990 489 990 490 993 490

L996 490

L995 483

Z

M225 488

C227 486 227 457 225 454

L224 452

L222 452

C221 452 220 454 219 456

C217 459 217 462 217 474

C217 481 217 488 218 488

C219 490 224 489 225 488

Z

M250 488

L253 487

L253 471

C253 459 253 455 252 454

L250 452

L249 452

C246 453 245 457 245 472

C244 489 244 490 250 488

Z

M955 482

L955 478

L952 477

L950 477

L950 481

C950 486 951 487 953 487

L955 486

L955 482

Z

M787 468

L787 465

L785 465

L783 465

L782 467

C782 469 782 471 782 472

L783 473

L785 473

L787 472

L787 468

Z

M882 463

C882 462 883 460 884 459

L885 457

L883 455

C880 453 879 453 878 455

C877 456 876 458 875 459

L873 461

L876 463

C878 464 880 465 881 465

L882 465

L882 463

Z

M787 447

L787 444

L785 444

L783 444

L782 446

C782 448 782 450 782 451

L783 452

L785 452

L787 451

L787 447

Z

M1039 434

L1039 431

L1037 431

L1035 431

L1034 433

C1034 435 1034 437 1034 438

L1035 439

L1037 439

L1039 438

L1039 434

Z

M1035 408

L1035 405

L1034 405

L1033 405

L1032 408

C1032 409 1032 411 1032 412

L1033 413

L1034 412

C1035 412 1035 410 1035 408

Z

M951 406

L951 403

L949 403

L947 403

L946 405

C946 406 946 408 946 409

L947 410

L949 410

L951 409

L951 406

Z

M973 404

L973 400

L970 400

L968 400

L967 402

C967 404 967 406 967 407

L968 408

L970 408

L973 408

L973 404

Z

M420 401

L420 398

L417 398

L415 398

L414 400

C414 401 414 403 414 404

L415 405

L417 405

L420 405

L420 401

Z

M365 403

C366 402 366 400 366 399

L365 398

L364 398

L362 398

L361 399

C361 400 361 402 361 403

L362 404

L363 404

C363 404 364 403 365 403

Z

M946 382

C946 380 946 378 945 378

L944 377

L943 378

C942 380 942 384 943 385

C944 387 946 385 946 382

Z

M997 379

C997 376 997 374 996 374

L995 373

L994 374

C991 376 992 384 995 383

L997 382

L997 379

Z

M443 375

L443 372

L441 372

L439 372

L438 374

C438 375 438 377 438 378

L439 379

L441 379

L443 378

L443 375

Z

M420 369

L420 366

L417 366

L415 366

L414 368

C414 369 414 371 414 372

L415 373

L417 373

L420 373

L420 369

Z

M366 366

L366 363

L364 363

L362 363

L361 365

C361 366 361 368 361 369

L362 370

L364 370

L366 369

L366 366

Z

M392 366

L392 363

L391 363

L389 363

L389 366

L389 369

L391 369

L392 369

L392 366

Z

M422 348

L422 345

L420 345

L419 345

L418 347

C418 348 418 350 418 351

L419 352

L420 352

L422 351

L422 348

Z

M366 343

L366 340

L364 340

L362 340

L361 342

C361 343 361 345 361 346

L362 347

L364 347

L366 346

L366 343

Z

M233 335

C233 334 232 332 232 331

L230 329

L228 330

C226 331 225 338 227 339

C229 340 232 338 233 335

Z

M446 331

L446 328

L444 328

L442 328

L441 330

C441 333 442 335 445 334

L446 334

L446 331

Z

M961 327

L961 322

L959 322

L958 322

L957 326

C957 328 957 331 957 332

L958 333

L959 333

L961 332

L961 327

Z

M1012 328

C1012 327 1013 325 1013 324

L1013 321

L1012 320

C1009 319 1006 322 1006 325

C1006 326 1006 328 1007 328

C1008 329 1010 329 1012 328

Z

M422 323

L422 319

L420 319

L418 319

L418 322

C418 324 418 326 419 327

L419 328

L420 328

L422 327

L422 323

Z

M366 323

L366 319

L364 319

L362 319

L361 323

L361 327

L363 327

L366 327

L366 323

Z

M394 321

L394 319

L392 319

L390 319

L389 320

C389 321 389 323 390 324

L391 325

L392 325

L394 324

L394 321

Z

M232 309

L232 305

L229 305

L227 305

L226 308

C226 310 226 312 226 313

L227 314

L229 314

L232 314

L232 309

Z

M961 307

L961 302

L959 302

L958 302

L957 306

C957 308 957 311 957 312

L958 313

L959 313

L961 312

L961 307

Z

M422 301

L422 299

L420 299

C418 299 417 300 418 303

L419 305

L421 304

C421 303 422 302 422 301

Z

M953 276

L953 275

L952 274

L951 273

L950 274

L949 275

L949 276

C950 277 951 277 951 277

C951 277 952 277 953 276

Z

M985 268

L985 267

L984 267

C982 267 981 269 981 270

L982 271

L984 270

L985 270

L985 268

Z

M401 229

L401 228

L400 228

L399 228

L399 229

L399 230

L400 230

L401 230

L401 229

Z

M402 163

L401 162

L400 163

L399 164

L400 165

L400 166

L401 165

L402 164

L402 163

Z

M355 161

L355 160

L354 160

L353 160

L353 161

L353 162

L354 162

L355 162

L355 161

Z

M400 121

L400 120

L399 121

L398 121

L399 122

L399 123

L400 122

L401 122

L400 121

Z

M373 99

L372 98

L371 99

L370 100

L371 101

L371 102

L372 101

L373 100

L373 99

Z

M400 82

C400 82 400 81 399 81

L398 80

L398 81

L398 83

L399 83

L400 83

L400 82

Z

M331 70

L331 68

L330 68

L328 68

L328 70

C328 72 328 73 329 73

L329 74

L330 73

C331 73 331 72 331 70

Z

M399 4

L398 3

L399 3

L401 3

L401 4

L401 5

L401 5

C401 5 400 5 399 4

Z

"/>

<path fill="#ffffff" stroke="none" d="
M764 781

L764 779

L765 780

C765 780 765 782 765 782

L764 784

L764 781

Z

M563 527

L564 526

L565 526

L565 527

L563 527

L562 528

L563 527

Z

M226 475

L226 471

L227 473

C227 474 227 476 227 477

L226 480

L226 475

Z

M85 472

L85 471

L86 472

L86 473

L86 474

L85 474

L85 472

Z

"/>

</svg>

