<?xml version="1.0" encoding="UTF-8" standalone="no"?>
<!DOCTYPE svg PUBLIC "-//W3C//DTD SVG 1.1//EN" "http://www.w3.org/Graphics/SVG/1.1/DTD/svg11.dtd">
<svg width="100%" height="100%" viewBox="0 0 6000 3600" version="1.1" xmlns="http://www.w3.org/2000/svg" xmlns:xlink="http://www.w3.org/1999/xlink" xml:space="preserve" xmlns:serif="http://www.serif.com/" style="fill-rule:evenodd;clip-rule:evenodd;stroke-linejoin:round;stroke-miterlimit:2;">
    <g transform="matrix(1,0,0,1,-543.973,-2165.22)">
        <path d="M2830,3869.17L2541.25,4552.08C2516.81,4579.58 2487.78,4582.64 2454.17,4561.25L2385.42,4492.5C2260.14,4492.5 2087.5,4489.44 1867.5,4483.33C1626.11,4474.17 1456.53,4469.58 1358.75,4469.58C1123.47,4469.58 917.222,4483.33 740,4510.83C688.056,4486.39 668.194,4452.78 680.417,4410C909.583,4131.94 1262.5,3716.39 1739.17,3163.33L1748.33,3122.08C1898.06,2996.81 2063.06,2815 2243.33,2576.67C2249.44,2570.56 2252.5,2564.44 2252.5,2558.33C2252.5,2546.11 2231.11,2523.19 2188.33,2489.58C2001.94,2492.64 1817.08,2497.22 1633.75,2503.33C1413.75,2509.44 1235,2527.78 1097.5,2558.33C1024.17,2610.28 960,2683.61 905,2778.33C862.222,2863.89 819.444,2949.44 776.667,3035C736.944,3068.61 701.806,3074.72 671.25,3053.33C665.139,3031.94 662.083,3010.56 662.083,2989.17C662.083,2955.56 675.069,2902.08 701.042,2828.75C727.014,2755.42 740,2698.89 740,2659.17C755.278,2588.89 769.028,2518.61 781.25,2448.33C796.528,2362.78 833.194,2307.78 891.25,2283.33C973.75,2326.11 1065.42,2349.03 1166.25,2352.08C1774.31,2361.25 2269.31,2347.5 2651.25,2310.83C2675.69,2316.94 2700.9,2323.82 2726.88,2331.46C2752.85,2339.1 2770.42,2355.14 2779.58,2379.58L2761.25,2457.5C2590.14,2613.33 2330.42,2903.61 1982.08,3328.33C1841.53,3487.22 1700.97,3644.58 1560.42,3800.42C1398.47,3983.75 1283.89,4151.81 1216.67,4304.58L1253.33,4322.92C1311.39,4310.69 1377.08,4304.58 1450.42,4304.58C1505.42,4304.58 1588.68,4309.17 1700.21,4318.33C1811.74,4327.5 1893.47,4332.08 1945.42,4332.08C2089.03,4332.08 2209.72,4306.11 2307.5,4254.17C2383.89,4241.94 2455.69,4190 2522.92,4098.33C2574.86,4021.94 2628.33,3945.56 2683.33,3869.17C2683.33,3866.11 2695.56,3852.36 2720,3827.92C2735.28,3812.64 2750.56,3805 2765.83,3805C2771.94,3805 2779.58,3806.53 2788.75,3809.58L2830,3869.17Z" style="fill:none;fill-rule:nonzero;stroke:rgb(0,0,255);stroke-width:4.17px;"/>
    </g>
</svg>
