<?xml version="1.0" encoding="UTF-8" standalone="no"?>
<!DOCTYPE svg PUBLIC "-//W3C//DTD SVG 1.1//EN" "http://www.w3.org/Graphics/SVG/1.1/DTD/svg11.dtd">
<svg width="100%" height="100%" viewBox="0 0 6000 3600" version="1.1" xmlns="http://www.w3.org/2000/svg" xmlns:xlink="http://www.w3.org/1999/xlink" xml:space="preserve" xmlns:serif="http://www.serif.com/" style="fill-rule:evenodd;clip-rule:evenodd;stroke-linejoin:round;stroke-miterlimit:2;">
    <g transform="matrix(1,0,0,1,-4719.39,-2197.31)">
        <path d="M7074.17,2365.83C7080.28,2399.44 7066.53,2425.42 7032.92,2443.75C6990.14,2468.19 6964.17,2485 6955,2494.17C6887.78,2591.94 6819.03,2712.64 6748.75,2856.25C6693.75,2981.53 6637.22,3105.28 6579.17,3227.5C6441.67,3517.78 6270.56,3940.97 6065.83,4497.08C6056.67,4515.42 6027.64,4524.58 5978.75,4524.58L5914.58,4455.83C5807.64,4180.83 5659.44,3861.53 5470,3497.92C5305,3183.19 5140,2870 4975,2558.33C4968.89,2536.94 4944.44,2513.26 4901.67,2487.29C4858.89,2461.32 4837.5,2436.11 4837.5,2411.67C4837.5,2399.44 4840.56,2387.22 4846.67,2375L4897.08,2338.33L5460.83,2338.33C5460.83,2338.33 5477.64,2350.56 5511.25,2375C5514.31,2414.72 5486.04,2449.86 5426.46,2480.42C5366.88,2510.97 5337.08,2540 5337.08,2567.5C5337.08,2585.83 5346.25,2608.75 5364.58,2636.25C5379.86,2672.92 5593.75,3128.19 6006.25,4002.08L6047.5,4043.33C6084.17,4012.78 6114.72,3960.83 6139.17,3887.5C6166.67,3795.83 6188.06,3737.78 6203.33,3713.33C6233.89,3578.89 6304.17,3406.25 6414.17,3195.42C6539.44,2957.08 6618.89,2787.5 6652.5,2686.67C6658.61,2573.61 6661.67,2533.89 6661.67,2567.5C6658.61,2521.67 6634.93,2492.64 6590.62,2480.42C6546.32,2468.19 6521.11,2460.56 6515,2457.5C6487.5,2448.33 6469.17,2431.53 6460,2407.08C6466.11,2352.08 6493.61,2321.53 6542.5,2315.42C6582.22,2330.69 6629.58,2338.33 6684.58,2338.33C6709.03,2338.33 6744.93,2336.81 6792.29,2333.75C6839.65,2330.69 6875.56,2329.17 6900,2329.17C6970.28,2329.17 7028.33,2341.39 7074.17,2365.83Z" style="fill:none;fill-rule:nonzero;stroke:rgb(0,0,255);stroke-width:4.17px;"/>
    </g>
</svg>
