<?xml version="1.0" encoding="UTF-8" standalone="no"?>
<!DOCTYPE svg PUBLIC "-//W3C//DTD SVG 1.1//EN" "http://www.w3.org/Graphics/SVG/1.1/DTD/svg11.dtd">
<svg width="100%" height="100%" viewBox="0 0 6000 3600" version="1.1" xmlns="http://www.w3.org/2000/svg" xmlns:xlink="http://www.w3.org/1999/xlink" xml:space="preserve" xmlns:serif="http://www.serif.com/" style="fill-rule:evenodd;clip-rule:evenodd;stroke-linejoin:round;stroke-miterlimit:2;">
    <g transform="matrix(1,0,0,1,-566.89,-2128.56)">
        <path d="M1725.42,2494.17C1777.36,2567.5 1803.33,2656.11 1803.33,2760C1803.33,2897.5 1765.14,3030.42 1688.75,3158.75C1581.81,3332.92 1375.56,3441.39 1070,3484.17C1045.56,3523.89 1028.75,3630.83 1019.58,3805C1001.25,3832.5 969.167,3835.56 923.333,3814.17L900.417,3754.58L900.417,3296.25C924.861,3271.81 963.819,3264.17 1017.29,3273.33C1070.76,3282.5 1108.19,3280.97 1129.58,3268.75C1218.19,3280.97 1300.69,3235.14 1377.08,3131.25C1438.19,2975.42 1468.75,2854.72 1468.75,2769.17C1468.75,2677.5 1442.78,2596.53 1390.83,2526.25C1338.89,2455.97 1288.47,2413.19 1239.58,2397.92C1181.53,2391.81 1125,2407.08 1070,2443.75C1054.72,2483.47 1019.58,2543.06 964.583,2622.5C964.583,2640.83 976.806,2660.69 1001.25,2682.08C1025.69,2703.47 1037.92,2720.28 1037.92,2732.5C1037.92,2760 1021.11,2785.97 987.5,2810.42C953.889,2834.86 924.861,2847.08 900.417,2847.08C875.972,2847.08 853.056,2837.92 831.667,2819.58C733.889,2730.97 685,2665.28 685,2622.5C685,2607.22 688.056,2590.42 694.167,2572.08C816.389,2355.14 998.194,2246.67 1239.58,2246.67C1273.19,2246.67 1306.81,2249.72 1340.42,2255.83C1526.81,2320 1655.14,2399.44 1725.42,2494.17ZM1143.33,4428.33C1097.5,4489.44 1042.5,4520 978.333,4520C956.944,4520 935.556,4515.42 914.167,4506.25C859.167,4481.81 825.556,4425.28 813.333,4336.67C825.556,4290.83 836.25,4257.22 845.417,4235.83C863.75,4202.22 889.722,4176.25 923.333,4157.92C1036.39,4148.75 1109.72,4179.31 1143.33,4249.58C1143.33,4249.58 1147.92,4280.14 1157.08,4341.25C1163.19,4377.92 1158.61,4406.94 1143.33,4428.33Z" style="fill:none;fill-rule:nonzero;stroke:rgb(0,0,255);stroke-width:4.17px;"/>
    </g>
</svg>
