<?xml version="1.0" encoding="UTF-8" standalone="no"?>
<!DOCTYPE svg PUBLIC "-//W3C//DTD SVG 1.1//EN" "http://www.w3.org/Graphics/SVG/1.1/DTD/svg11.dtd">
<svg width="100%" height="100%" viewBox="0 0 6000 3600" version="1.1" xmlns="http://www.w3.org/2000/svg" xmlns:xlink="http://www.w3.org/1999/xlink" xml:space="preserve" xmlns:serif="http://www.serif.com/" style="fill-rule:evenodd;clip-rule:evenodd;stroke-linejoin:round;stroke-miterlimit:2;">
    <g transform="matrix(1,0,0,1,-581.731,-2221.14)">
        <path d="M2477.08,4396.25C2480.14,4426.81 2454.17,4455.83 2399.17,4483.33C2371.67,4489.44 2345.69,4492.5 2321.25,4492.5C2107.36,4492.5 1914.86,4361.11 1743.75,4098.33C1704.03,4025 1664.31,3951.67 1624.58,3878.33C1575.69,3792.78 1546.67,3716.39 1537.5,3649.17C1485.56,3575.83 1404.58,3552.92 1294.58,3580.42C1257.92,3595.69 1239.58,3621.67 1239.58,3658.33C1251.81,3713.33 1257.92,3814.17 1257.92,3960.83C1254.86,4089.17 1267.08,4186.94 1294.58,4254.17C1309.86,4269.44 1348.06,4287.78 1409.17,4309.17C1455,4321.39 1476.39,4350.42 1473.33,4396.25C1464.17,4445.14 1430.56,4469.58 1372.5,4469.58C1354.17,4469.58 1322.85,4465.76 1278.54,4458.12C1234.24,4450.49 1201.39,4446.67 1180,4446.67C1161.67,4446.67 1144.86,4448.19 1129.58,4451.25C943.194,4475.69 801.111,4472.64 703.333,4442.08C691.111,4377.92 710.972,4336.67 762.917,4318.33C827.083,4321.39 877.5,4290.83 914.167,4226.67C905,4070.83 914.167,3895.14 941.667,3699.58C956.944,3216.81 952.361,2834.86 927.917,2553.75C918.75,2538.47 888.958,2522.43 838.542,2505.62C788.125,2488.82 762.917,2469.72 762.917,2448.33C762.917,2436.11 769.028,2420.83 781.25,2402.5C820.972,2378.06 880.556,2362.78 960,2356.67C1027.22,2350.56 1094.44,2345.97 1161.67,2342.92C1433.61,2330.69 1647.5,2349.03 1803.33,2397.92C2032.5,2465.14 2186.81,2595 2266.25,2787.5C2278.47,2836.39 2284.58,2885.28 2284.58,2934.17C2284.58,3105.28 2206.67,3264.17 2050.83,3410.83C1983.61,3426.11 1924.03,3476.53 1872.08,3562.08C1859.86,3650.69 1890.42,3750 1963.75,3860C2046.25,3991.39 2092.08,4084.58 2101.25,4139.58C2134.86,4194.58 2199.03,4240.42 2293.75,4277.08C2388.47,4313.75 2449.58,4353.47 2477.08,4396.25ZM1954.58,2750.83C1850.69,2564.44 1652.08,2481.94 1358.75,2503.33C1325.14,2509.44 1291.53,2538.47 1257.92,2590.42L1257.92,3076.25C1257.92,3097.64 1255.62,3128.96 1251.04,3170.21C1246.46,3211.46 1244.17,3241.25 1244.17,3259.58C1244.17,3311.53 1259.44,3352.78 1290,3383.33C1335.83,3401.67 1386.25,3410.83 1441.25,3410.83C1612.36,3410.83 1772.78,3332.92 1922.5,3177.08C1919.44,3140.42 1930.14,3087.71 1954.58,3018.96C1979.03,2950.21 1991.25,2899.03 1991.25,2865.42C1991.25,2822.64 1979.03,2784.44 1954.58,2750.83Z" style="fill:none;fill-rule:nonzero;stroke:rgb(0,0,255);stroke-width:4.17px;"/>
    </g>
</svg>
