<?xml version="1.0" encoding="UTF-8" standalone="no"?>
<!DOCTYPE svg PUBLIC "-//W3C//DTD SVG 1.1//EN" "http://www.w3.org/Graphics/SVG/1.1/DTD/svg11.dtd">
<svg width="100%" height="100%" viewBox="0 0 6000 3600" version="1.1" xmlns="http://www.w3.org/2000/svg" xmlns:xlink="http://www.w3.org/1999/xlink" xml:space="preserve" xmlns:serif="http://www.serif.com/" style="fill-rule:evenodd;clip-rule:evenodd;stroke-linejoin:round;stroke-miterlimit:2;">
    <g transform="matrix(1,0,0,1,-516.473,-2197.31)">
        <path d="M3783.33,2347.5C3795.56,2393.33 3778.75,2431.53 3732.92,2462.08C3668.75,2504.86 3632.08,2536.94 3622.92,2558.33C3250.14,3273.33 2967.5,3919.58 2775,4497.08C2741.39,4524.58 2707.78,4533.75 2674.17,4524.58C2597.78,4423.75 2519.86,4272.5 2440.42,4070.83C2348.75,3841.67 2278.47,3685.83 2229.58,3603.33C2208.19,3615.56 2168.47,3672.08 2110.42,3772.92C2101.25,3794.31 1985.14,4035.69 1762.08,4497.08C1740.69,4512.36 1707.08,4512.36 1661.25,4497.08C1487.08,4069.31 1213.61,3432.22 840.833,2585.83C825.556,2555.28 787.361,2525.49 726.25,2496.46C665.139,2467.43 634.583,2436.11 634.583,2402.5C634.583,2387.22 640.694,2368.89 652.917,2347.5L698.75,2315.42L1276.25,2315.42C1279.31,2318.47 1293.06,2327.64 1317.5,2342.92C1332.78,2352.08 1340.42,2362.78 1340.42,2375C1340.42,2381.11 1338.89,2387.22 1335.83,2393.33C1335.83,2426.94 1312.15,2454.44 1264.79,2475.83C1217.43,2497.22 1193.75,2524.72 1193.75,2558.33C1202.92,2613.33 1238.06,2691.25 1299.17,2792.08C1360.28,2892.92 1392.36,2975.42 1395.42,3039.58C1419.86,3152.64 1479.44,3310.76 1574.17,3513.96C1668.89,3717.15 1728.47,3872.22 1752.92,3979.17C1777.36,4015.83 1800.28,4023.47 1821.67,4002.08C1867.5,3947.08 1914.86,3864.58 1963.75,3754.58C2015.69,3626.25 2056.94,3540.69 2087.5,3497.92L2069.17,3328.33C1998.89,3175.56 1930.14,3022.78 1862.92,2870C1780.42,2689.72 1687.22,2552.22 1583.33,2457.5C1546.67,2460.56 1520.69,2443.75 1505.42,2407.08C1502.36,2370.42 1511.53,2342.92 1532.92,2324.58L2137.92,2338.33C2159.31,2350.56 2173.06,2365.83 2179.17,2384.17C2185.28,2405.56 2177.64,2422.36 2156.25,2434.58C2150.14,2443.75 2128.75,2459.03 2092.08,2480.42C2067.64,2492.64 2053.89,2510.97 2050.83,2535.42C2081.39,2660.69 2157.78,2842.5 2280,3080.83C2301.39,3074.72 2341.11,3025.83 2399.17,2934.17C2402.22,2894.44 2425.14,2839.44 2467.92,2769.17C2510.69,2698.89 2532.08,2643.89 2532.08,2604.17C2532.08,2567.5 2519.86,2530.83 2495.42,2494.17C2489.31,2485 2460.28,2469.72 2408.33,2448.33C2371.67,2433.06 2356.39,2405.56 2362.5,2365.83L2412.92,2324.58L2903.33,2324.58C2921.67,2333.75 2933.89,2350.56 2940,2375C2943.06,2399.44 2936.94,2419.31 2921.67,2434.58C2817.78,2517.08 2724.58,2634.72 2642.08,2787.5C2577.92,2921.94 2512.22,3054.86 2445,3186.25C2429.72,3219.86 2422.08,3255 2422.08,3291.67C2422.08,3337.5 2440.42,3398.61 2477.08,3475C2519.86,3563.61 2545.83,3623.19 2555,3653.75C2603.89,3727.08 2663.47,3840.14 2733.75,3992.92C2767.36,3992.92 2791.81,3973.06 2807.08,3933.33C2834.58,3869.17 2849.86,3835.56 2852.92,3832.5C2868.19,3762.22 2915.56,3644.58 2995,3479.58C3068.33,3335.97 3109.58,3215.28 3118.75,3117.5C3173.75,3056.39 3222.64,2970.83 3265.42,2860.83C3299.03,2769.17 3332.64,2677.5 3366.25,2585.83C3378.47,2536.94 3338.75,2494.17 3247.08,2457.5C3228.75,2451.39 3208.89,2445.28 3187.5,2439.17C3166.11,2433.06 3155.42,2417.78 3155.42,2393.33C3158.47,2375 3172.22,2349.03 3196.67,2315.42C3254.72,2327.64 3354.03,2329.17 3494.58,2320C3619.86,2313.89 3716.11,2323.06 3783.33,2347.5Z" style="fill:none;fill-rule:nonzero;stroke:rgb(0,0,255);stroke-width:4.17px;"/>
    </g>
</svg>
