<?xml version="1.0" encoding="UTF-8" standalone="no"?>
<!DOCTYPE svg PUBLIC "-//W3C//DTD SVG 1.1//EN" "http://www.w3.org/Graphics/SVG/1.1/DTD/svg11.dtd">
<svg width="100%" height="100%" viewBox="0 0 6000 3600" version="1.1" xmlns="http://www.w3.org/2000/svg" xmlns:xlink="http://www.w3.org/1999/xlink" xml:space="preserve" xmlns:serif="http://www.serif.com/" style="fill-rule:evenodd;clip-rule:evenodd;stroke-linejoin:round;stroke-miterlimit:2;">
    <g transform="matrix(1,0,0,1,-2395.64,-2197.31)">
        <path d="M4612.92,3970C4353.19,4336.67 4018.61,4520 3609.17,4520C3538.89,4520 3468.61,4513.89 3398.33,4501.67C3208.89,4468.06 3034.72,4384.03 2875.83,4249.58C2704.72,4105.97 2597.78,3942.5 2555,3759.17C2527.5,3649.17 2513.75,3539.17 2513.75,3429.17C2513.75,3114.44 2614.58,2860.83 2816.25,2668.33C3060.69,2433.06 3341.81,2315.42 3659.58,2315.42C3778.75,2315.42 3896.39,2333.75 4012.5,2370.42C4168.33,2422.36 4353.19,2552.22 4567.08,2760C4695.42,2925 4759.58,3132.78 4759.58,3383.33C4759.58,3597.22 4710.69,3792.78 4612.92,3970ZM4351.67,3759.17C4391.39,3670.56 4411.25,3571.25 4411.25,3461.25C4411.25,3259.58 4357.78,3074.72 4250.83,2906.67C4101.11,2613.33 3820,2481.94 3407.5,2512.5C3294.44,2549.17 3190.56,2617.15 3095.83,2716.46C3001.11,2815.76 2936.94,2921.94 2903.33,3035C2903.33,3044.17 2897.22,3111.39 2885,3236.67C2875.83,3310 2881.94,3372.64 2903.33,3424.58C2927.78,3537.64 2973.61,3702.64 3040.83,3919.58C3080.56,3968.47 3123.33,4018.12 3169.17,4068.54C3215,4118.96 3266.94,4142.64 3325,4139.58C3401.39,4225.14 3514.44,4267.92 3664.17,4267.92C3697.78,4267.92 3745.14,4265.62 3806.25,4261.04C3867.36,4256.46 3913.19,4254.17 3943.75,4254.17L4200.42,4089.17C4203.47,4052.5 4230.21,4005.14 4280.62,3947.08C4331.04,3889.03 4356.25,3840.14 4356.25,3800.42C4356.25,3785.14 4354.72,3771.39 4351.67,3759.17Z" style="fill:none;fill-rule:nonzero;stroke:rgb(0,0,255);stroke-width:4.17px;"/>
    </g>
</svg>
