<?xml version="1.0" encoding="UTF-8" standalone="no"?>
<!DOCTYPE svg PUBLIC "-//W3C//DTD SVG 1.1//EN" "http://www.w3.org/Graphics/SVG/1.1/DTD/svg11.dtd">
<svg width="100%" height="100%" viewBox="0 0 6000 3600" version="1.1" xmlns="http://www.w3.org/2000/svg" xmlns:xlink="http://www.w3.org/1999/xlink" xml:space="preserve" xmlns:serif="http://www.serif.com/" style="fill-rule:evenodd;clip-rule:evenodd;stroke-linejoin:round;stroke-miterlimit:2;">
    <g transform="matrix(1,0,0,1,-597.751,-2220.22)">
        <path d="M2907.92,3035C2947.64,3172.5 2967.5,3310 2967.5,3447.5C2967.5,3713.33 2894.17,3919.58 2747.5,4066.25C2527.5,4347.36 2170,4487.92 1675,4487.92C1586.39,4487.92 1477.92,4483.33 1349.58,4474.17C1215.14,4465 1021.11,4471.11 767.5,4492.5C727.778,4449.72 710.972,4417.64 717.083,4396.25C759.861,4377.92 817.917,4333.61 891.25,4263.33C927.917,4034.17 939.418,3704.68 946.25,3424.58C953.125,3142.71 941.667,3785.14 932.5,2572.08C923.333,2535.42 888.194,2510.21 827.083,2496.46C765.972,2482.71 735.417,2460.56 735.417,2430C735.417,2414.72 738.472,2397.92 744.583,2379.58C814.861,2358.19 906.528,2349.03 1019.58,2352.08C1175.42,2355.14 1270.14,2355.14 1303.75,2352.08C1401.53,2342.92 1497.78,2338.33 1592.5,2338.33C2273.89,2338.33 2712.36,2570.56 2907.92,3035ZM2642.08,3461.25C2614.58,3229.03 2541.25,3012.08 2422.08,2810.42C2208.19,2590.42 1933.19,2480.42 1597.08,2480.42C1535.97,2480.42 1473.33,2483.47 1409.17,2489.58C1387.78,2501.81 1364.86,2513.26 1340.42,2523.96C1315.97,2534.65 1303.75,2552.22 1303.75,2576.67C1264.03,3175.56 1244.17,3555.97 1244.17,3717.92C1244.17,3919.58 1253.33,4105.97 1271.67,4277.08C1341.94,4304.58 1441.25,4316.81 1569.58,4313.75C1590.97,4316.81 1610.83,4318.33 1629.17,4318.33C1665.83,4318.33 1715.49,4309.93 1778.12,4293.12C1840.76,4276.32 1887.36,4267.92 1917.92,4267.92C1936.25,4267.92 1956.11,4270.97 1977.5,4277.08C1995.83,4246.53 2040.14,4228.19 2110.42,4222.08C2180.69,4215.97 2225,4194.58 2243.33,4157.92C2362.5,4096.81 2455.69,3995.97 2522.92,3855.42C2556.53,3779.03 2596.25,3647.64 2642.08,3461.25Z" style="fill:none;fill-rule:nonzero;stroke:rgb(0,0,255);stroke-width:4.17px;"/>
    </g>
</svg>
