<?xml version="1.0" encoding="UTF-8" standalone="no"?>
<!DOCTYPE svg PUBLIC "-//W3C//DTD SVG 1.1//EN" "http://www.w3.org/Graphics/SVG/1.1/DTD/svg11.dtd">
<svg width="100%" height="100%" viewBox="0 0 6000 3600" version="1.1" xmlns="http://www.w3.org/2000/svg" xmlns:xlink="http://www.w3.org/1999/xlink" xml:space="preserve" xmlns:serif="http://www.serif.com/" style="fill-rule:evenodd;clip-rule:evenodd;stroke-linejoin:round;stroke-miterlimit:2;">
    <g transform="matrix(1,0,0,1,-3128.97,-2247.72)">
        <path d="M5277.5,2691.25C5268.33,2703.47 5260.69,2746.25 5254.58,2819.58C5251.53,2871.53 5230.14,2902.08 5190.42,2911.25C5181.25,2905.14 5167.5,2902.08 5149.17,2902.08C5133.89,2837.92 5118.61,2772.22 5103.33,2705C5088.06,2637.78 5037.64,2593.47 4952.08,2572.08C4884.86,2553.75 4733.61,2550.69 4498.33,2562.92C4443.33,2590.42 4415.83,2633.19 4415.83,2691.25C4415.83,2709.58 4418.89,2726.39 4425,2741.67C4431.11,2866.94 4431.11,3036.53 4425,3250.42C4418.89,3528.47 4415.83,3702.64 4415.83,3772.92C4415.83,3989.86 4426.53,4174.72 4447.92,4327.5C4466.25,4364.17 4522.78,4385.56 4617.5,4391.67C4700,4397.78 4742.78,4432.92 4745.83,4497.08C4709.17,4530.69 4660.28,4547.5 4599.17,4547.5C4574.72,4547.5 4535,4543.68 4480,4536.04C4425,4528.4 4383.75,4524.58 4356.25,4524.58L3833.75,4547.5C3800.14,4535.28 3792.5,4498.61 3810.83,4437.5C3835.28,4422.22 3878.82,4411.53 3941.46,4405.42C4004.1,4399.31 4047.64,4382.5 4072.08,4355L4108.75,4249.58C4105.69,4102.92 4110.28,3902.78 4122.5,3649.17C4134.72,3374.17 4140.83,3177.08 4140.83,3057.92C4140.83,2902.08 4134.72,2756.94 4122.5,2622.5C4085.83,2582.78 4029.31,2561.39 3952.92,2558.33C3833.75,2552.22 3769.58,2547.64 3760.42,2544.58C3690.14,2565.97 3619.86,2587.36 3549.58,2608.75C3470.14,2645.42 3422.78,2698.89 3407.5,2769.17C3389.17,2860.83 3357.08,2906.67 3311.25,2906.67C3295.97,2906.67 3274.58,2885.28 3247.08,2842.5L3315.83,2393.33L3366.25,2365.83C3879.58,2405.56 4510.56,2408.61 5259.17,2375C5286.67,2402.5 5300.42,2439.17 5300.42,2485C5300.42,2506.39 5296.6,2540.76 5288.96,2588.12C5281.32,2635.49 5277.5,2669.86 5277.5,2691.25Z" style="fill:none;fill-rule:nonzero;stroke:rgb(0,0,255);stroke-width:4.17px;"/>
    </g>
</svg>
