<?xml version="1.0" encoding="UTF-8" standalone="no"?>
<!DOCTYPE svg PUBLIC "-//W3C//DTD SVG 1.1//EN" "http://www.w3.org/Graphics/SVG/1.1/DTD/svg11.dtd">
<svg width="100%" height="100%" viewBox="0 0 6000 3600" version="1.1" xmlns="http://www.w3.org/2000/svg" xmlns:xlink="http://www.w3.org/1999/xlink" xml:space="preserve" xmlns:serif="http://www.serif.com/" style="fill-rule:evenodd;clip-rule:evenodd;stroke-linejoin:round;stroke-miterlimit:2;">
    <g transform="matrix(1,0,0,1,-3203.3,-2228.85)">
        <path d="M5616.67,4487.92L5557.08,4520L4933.75,4520C4878.75,4477.22 4871.11,4432.92 4910.83,4387.08C4947.5,4374.86 4988.75,4339.72 5034.58,4281.67C5010.14,4104.44 4942.92,3939.44 4832.92,3786.67C4771.81,3777.5 4649.58,3783.61 4466.25,3805C4432.64,3808.06 4382.22,3806.53 4315,3800.42C4247.78,3794.31 4198.89,3791.25 4168.33,3791.25C4058.33,3791.25 3978.89,3820.28 3930,3878.33C3923.89,3915 3894.86,3979.17 3842.92,4070.83C3800.14,4147.22 3780.28,4214.44 3783.33,4272.5C3813.89,4290.83 3846.74,4310.69 3881.88,4332.08C3917.01,4353.47 3942.22,4379.44 3957.5,4410C3957.5,4483.33 3940.69,4520 3907.08,4520L3366.25,4520C3320.42,4489.44 3309.72,4457.36 3334.17,4423.75C3447.22,4344.31 3545,4226.67 3627.5,4070.83C3691.67,3933.33 3757.36,3795.83 3824.58,3658.33C3864.31,3575.83 4055.28,3149.58 4397.5,2379.58C4421.94,2345.97 4461.67,2338.33 4516.67,2356.67C4535,2381.11 4551.81,2416.25 4567.08,2462.08C4585.42,2520.14 4597.64,2555.28 4603.75,2567.5C4689.31,2778.33 4814.58,3048.75 4979.58,3378.75C5193.47,3803.47 5326.39,4070.83 5378.33,4180.83C5390.56,4226.67 5434.1,4272.5 5508.96,4318.33C5583.82,4364.17 5621.25,4406.94 5621.25,4446.67C5621.25,4458.89 5619.72,4472.64 5616.67,4487.92ZM4722.92,3557.5C4619.03,3285.56 4507.5,3057.92 4388.33,2874.58C4360.83,2911.25 4327.22,2970.83 4287.5,3053.33C4275.28,3090 4235.56,3181.67 4168.33,3328.33C4116.39,3441.39 4085.83,3534.58 4076.67,3607.92C4128.61,3580.42 4185.14,3566.67 4246.25,3566.67C4276.81,3566.67 4348.61,3575.83 4461.67,3594.17C4553.33,3609.44 4628.19,3609.44 4686.25,3594.17L4722.92,3557.5Z" style="fill:none;fill-rule:nonzero;stroke:rgb(0,0,255);stroke-width:4.17px;"/>
    </g>
</svg>
