<?xml version="1.0" encoding="UTF-8" standalone="no"?>
<!DOCTYPE svg PUBLIC "-//W3C//DTD SVG 1.1//EN" "http://www.w3.org/Graphics/SVG/1.1/DTD/svg11.dtd">
<svg width="100%" height="100%" viewBox="0 0 6000 3600" version="1.1" xmlns="http://www.w3.org/2000/svg" xmlns:xlink="http://www.w3.org/1999/xlink" xml:space="preserve" xmlns:serif="http://www.serif.com/" style="fill-rule:evenodd;clip-rule:evenodd;stroke-linejoin:round;stroke-miterlimit:2;">
    <g transform="matrix(1,0,0,1,-3225.22,-2178.97)">
        <path d="M4901.67,3727.08C4929.17,3794.31 4942.92,3866.11 4942.92,3942.5C4942.92,4086.11 4900.9,4207.57 4816.88,4306.88C4732.85,4406.18 4609.86,4471.11 4447.92,4501.67C4301.25,4516.94 4154.58,4533.75 4007.92,4552.08L3444.17,4529.17C3416.67,4492.5 3401.39,4435.97 3398.33,4359.58C3395.28,4261.81 3389.17,4199.17 3380,4171.67C3380,4153.33 3373.89,4123.54 3361.67,4082.29C3349.44,4041.04 3343.33,4009.72 3343.33,3988.33C3343.33,3957.78 3355.56,3930.28 3380,3905.83C3428.89,3905.83 3468.61,3930.28 3499.17,3979.17C3520.56,4021.94 3541.94,4064.72 3563.33,4107.5C3609.17,4208.33 3687.08,4281.67 3797.08,4327.5C3861.25,4355 3968.19,4379.44 4117.92,4400.83C4441.81,4330.56 4603.75,4194.58 4603.75,3992.92C4603.75,3885.97 4567.08,3800.42 4493.75,3736.25C4423.47,3681.25 4244.72,3600.28 3957.5,3493.33C3731.39,3410.83 3580.14,3294.72 3503.75,3145C3467.08,3077.78 3448.75,3004.44 3448.75,2925C3448.75,2778.33 3499.17,2656.11 3600,2558.33C3771.11,2390.28 4006.39,2306.25 4305.83,2306.25C4394.44,2306.25 4487.64,2313.89 4585.42,2329.17C4612.92,2307.78 4643.47,2297.08 4677.08,2297.08C4716.81,2297.08 4741.25,2315.42 4750.42,2352.08L4810,2833.33C4800.83,2866.94 4784.03,2888.33 4759.58,2897.5C4713.75,2888.33 4678.61,2853.19 4654.17,2792.08C4617.5,2709.58 4594.58,2662.22 4585.42,2650C4539.58,2573.61 4470.83,2524.72 4379.17,2503.33C4293.61,2491.11 4209.58,2480.42 4127.08,2471.25C3955.97,2480.42 3833.75,2552.22 3760.42,2686.67L3760.42,2842.5C3757.36,2906.67 3769.58,2957.08 3797.08,2993.75C3879.58,3067.08 4076.67,3172.5 4388.33,3310C4638.89,3423.06 4810,3562.08 4901.67,3727.08Z" style="fill:none;fill-rule:nonzero;stroke:rgb(0,0,255);stroke-width:4.17px;"/>
    </g>
</svg>
