<?xml version="1.0" encoding="UTF-8" standalone="no"?>
<!DOCTYPE svg PUBLIC "-//W3C//DTD SVG 1.1//EN" "http://www.w3.org/Graphics/SVG/1.1/DTD/svg11.dtd">
<svg width="100%" height="100%" viewBox="0 0 6000 3600" version="1.1" xmlns="http://www.w3.org/2000/svg" xmlns:xlink="http://www.w3.org/1999/xlink" xml:space="preserve" xmlns:serif="http://www.serif.com/" style="fill-rule:evenodd;clip-rule:evenodd;stroke-linejoin:round;stroke-miterlimit:2;">
    <g transform="matrix(1,0,0,1,-3727.92,-2233.97)">
        <path d="M4828.33,4377.92C4828.33,4442.08 4811.53,4474.17 4777.92,4474.17L3893.33,4474.17C3841.39,4458.89 3832.22,4426.81 3865.83,4377.92C3884.17,4338.19 3936.11,4316.81 4021.67,4313.75C4098.06,4310.69 4142.36,4281.67 4154.58,4226.67C4151.53,4162.5 4156.11,4072.36 4168.33,3956.25C4180.56,3812.64 4188.19,3720.97 4191.25,3681.25C4191.25,3580.42 4197.36,3429.17 4209.58,3227.5C4234.03,3028.89 4224.86,2804.31 4182.08,2553.75C4166.81,2517.08 4110.28,2497.22 4012.5,2494.17C3933.06,2491.11 3897.92,2457.5 3907.08,2393.33L3962.08,2352.08L4796.25,2365.83C4845.14,2381.11 4851.25,2410.14 4814.58,2452.92C4753.47,2468.19 4692.36,2485 4631.25,2503.33C4560.97,2524.72 4519.72,2569.03 4507.5,2636.25C4480,3290.14 4473.89,3823.33 4489.17,4235.83C4510.56,4290.83 4560.97,4322.92 4640.42,4332.08C4741.25,4344.31 4803.89,4359.58 4828.33,4377.92Z" style="fill:none;fill-rule:nonzero;stroke:rgb(0,0,255);stroke-width:4.17px;"/>
    </g>
</svg>
