<?xml version="1.0" encoding="UTF-8" standalone="no"?>
<!DOCTYPE svg PUBLIC "-//W3C//DTD SVG 1.1//EN" "http://www.w3.org/Graphics/SVG/1.1/DTD/svg11.dtd">
<svg width="100%" height="100%" viewBox="0 0 6000 3600" version="1.1" xmlns="http://www.w3.org/2000/svg" xmlns:xlink="http://www.w3.org/1999/xlink" xml:space="preserve" xmlns:serif="http://www.serif.com/" style="fill-rule:evenodd;clip-rule:evenodd;stroke-linejoin:round;stroke-miterlimit:2;">
    <g transform="matrix(1,0,0,1,-595.095,-2233.97)">
        <path d="M3228.75,2466.67C3179.86,2478.89 3132.5,2492.64 3086.67,2507.92C3031.67,2526.25 3002.64,2561.39 2999.58,2613.33C2972.08,3080.83 2958.33,3406.25 2958.33,3589.58C2958.33,3837.08 2972.08,4063.19 2999.58,4267.92C3008.75,4298.47 3044.65,4323.68 3107.29,4343.54C3169.93,4363.4 3201.25,4385.56 3201.25,4410C3201.25,4428.33 3190.56,4452.78 3169.17,4483.33L2463.33,4483.33C2435.83,4461.94 2432.78,4423.75 2454.17,4368.75C2493.89,4347.36 2535.9,4325.21 2580.21,4302.29C2624.51,4279.38 2648.19,4245 2651.25,4199.17L2651.25,3965.42C2651.25,3870.69 2661.94,3795.83 2683.33,3740.83C2677.22,3615.56 2645.14,3526.94 2587.08,3475C2049.31,3459.72 1641.39,3462.78 1363.33,3484.17C1320.56,3514.72 1300.69,3563.61 1303.75,3630.83C1309.86,3728.61 1309.86,3786.67 1303.75,3805C1297.64,4006.67 1311.39,4157.92 1345,4258.75C1351.11,4301.53 1383.19,4326.74 1441.25,4334.38C1499.31,4342.01 1526.81,4370.28 1523.75,4419.17C1529.86,4455.83 1513.06,4481.81 1473.33,4497.08L758.333,4497.08C709.444,4481.81 700.278,4448.19 730.833,4396.25C785.833,4380.97 859.167,4338.19 950.833,4267.92C987.5,3852.36 1005.83,3493.33 1005.83,3190.83C1005.83,2970.83 996.667,2761.53 978.333,2562.92C969.167,2529.31 929.444,2505.62 859.167,2491.88C788.889,2478.12 753.75,2459.03 753.75,2434.58C753.75,2416.25 769.028,2388.75 799.583,2352.08C885.139,2361.25 1011.18,2365.83 1177.71,2365.83C1344.24,2365.83 1467.22,2368.89 1546.67,2375C1552.78,2390.28 1555.83,2407.08 1555.83,2425.42C1555.83,2443.75 1552.78,2459.03 1546.67,2471.25C1503.89,2483.47 1461.11,2496.46 1418.33,2510.21C1375.56,2523.96 1345,2549.17 1326.67,2585.83C1314.44,2775.28 1303.75,2973.89 1294.58,3181.67C1319.03,3224.44 1346.53,3251.94 1377.08,3264.17C1456.53,3264.17 1576.46,3267.22 1736.88,3273.33C1897.29,3279.44 2018.75,3282.5 2101.25,3282.5C2296.81,3282.5 2467.92,3270.28 2614.58,3245.83C2663.47,3172.5 2687.92,3068.61 2687.92,2934.17C2684.86,2714.17 2683.33,2602.64 2683.33,2599.58C2680.28,2556.81 2643.61,2524.72 2573.33,2503.33C2503.06,2481.94 2467.92,2459.03 2467.92,2434.58C2467.92,2413.19 2480.14,2385.69 2504.58,2352.08C2577.92,2364.31 2657.36,2371.94 2742.92,2375C2794.86,2378.06 2872.78,2378.82 2976.67,2377.29C3080.56,2375.76 3158.47,2375 3210.42,2375C3247.08,2393.33 3253.19,2423.89 3228.75,2466.67Z" style="fill:none;fill-rule:nonzero;stroke:rgb(0,0,255);stroke-width:4.17px;"/>
    </g>
</svg>
