<?xml version="1.0" encoding="UTF-8" standalone="no"?>
<!DOCTYPE svg PUBLIC "-//W3C//DTD SVG 1.1//EN" "http://www.w3.org/Graphics/SVG/1.1/DTD/svg11.dtd">
<svg width="100%" height="100%" viewBox="0 0 6000 3600" version="1.1" xmlns="http://www.w3.org/2000/svg" xmlns:xlink="http://www.w3.org/1999/xlink" xml:space="preserve" xmlns:serif="http://www.serif.com/" style="fill-rule:evenodd;clip-rule:evenodd;stroke-linejoin:round;stroke-miterlimit:2;">
    <g transform="matrix(1,0,0,1,-507.306,-2192.72)">
        <path d="M2871.25,2407.08C2690.97,2504.86 2507.64,2662.22 2321.25,2879.17C2165.42,3068.61 2011.11,3258.06 1858.33,3447.5C1840,3682.78 1830.83,3826.39 1830.83,3878.33C1830.83,4037.22 1852.22,4170.14 1895,4277.08C1913.33,4304.58 1971.39,4324.44 2069.17,4336.67C2145.56,4345.83 2177.64,4382.5 2165.42,4446.67L2115,4487.92C1977.5,4481.81 1836.94,4478.75 1693.33,4478.75C1552.78,4478.75 1409.17,4481.81 1262.5,4487.92C1216.67,4457.36 1202.92,4425.28 1221.25,4391.67C1242.64,4361.11 1290.76,4338.19 1365.62,4322.92C1440.49,4307.64 1488.61,4280.14 1510,4240.42C1537.5,3840.14 1540.56,3578.89 1519.17,3456.67C1259.44,3068.61 1034.86,2761.53 845.417,2535.42C830.139,2510.97 789.653,2490.35 723.958,2473.54C658.264,2456.74 625.417,2431.53 625.417,2397.92C625.417,2382.64 630,2362.78 639.167,2338.33L717.083,2310.83L1400,2315.42C1433.61,2355.14 1441.25,2388.75 1422.92,2416.25C1410.69,2434.58 1387.01,2450.62 1351.88,2464.38C1316.74,2478.12 1294.58,2495.69 1285.42,2517.08C1288.47,2575.14 1311.39,2637.78 1354.17,2705C1396.94,2760 1439.72,2815 1482.5,2870L1748.33,3227.5C1791.11,3236.67 1832.36,3212.22 1872.08,3154.17C1933.19,3074.72 1971.39,3030.42 1986.67,3021.25C2139.44,2868.47 2270.83,2706.53 2380.83,2535.42C2374.72,2514.03 2338.82,2488.82 2273.12,2459.79C2207.43,2430.76 2174.58,2404.03 2174.58,2379.58C2174.58,2361.25 2191.39,2338.33 2225,2310.83L2848.33,2324.58C2878.89,2355.14 2886.53,2382.64 2871.25,2407.08Z" style="fill:none;fill-rule:nonzero;stroke:rgb(0,0,255);stroke-width:4.17px;"/>
    </g>
</svg>
