<?xml version="1.0" encoding="UTF-8" standalone="no"?>
<!DOCTYPE svg PUBLIC "-//W3C//DTD SVG 1.1//EN" "http://www.w3.org/Graphics/SVG/1.1/DTD/svg11.dtd">
<svg width="100%" height="100%" viewBox="0 0 6000 3600" version="1.1" xmlns="http://www.w3.org/2000/svg" xmlns:xlink="http://www.w3.org/1999/xlink" xml:space="preserve" xmlns:serif="http://www.serif.com/" style="fill-rule:evenodd;clip-rule:evenodd;stroke-linejoin:round;stroke-miterlimit:2;">
    <g transform="matrix(1,0,0,1,-598.362,-2243.14)">
        <path d="M3173.75,2384.17C3189.03,2405.56 3190.56,2428.47 3178.33,2452.92C3169.17,2477.36 3152.36,2489.58 3127.92,2489.58C3024.03,2492.64 2964.44,2523.19 2949.17,2581.25C2946.11,2660.69 2935.42,2866.94 2917.08,3200C2904.86,3447.5 2898.75,3649.17 2898.75,3805C2898.75,4009.72 2907.92,4199.17 2926.25,4373.33C2923.19,4397.78 2919.38,4422.22 2914.79,4446.67C2910.21,4471.11 2895.69,4483.33 2871.25,4483.33L2793.33,4474.17C2698.61,4275.56 2521.39,4057.08 2261.67,3818.75C1913.33,3500.97 1702.5,3299.31 1629.17,3213.75C1580.28,3155.69 1503.89,3082.36 1400,2993.75C1280.83,2889.86 1202.92,2818.06 1166.25,2778.33L1134.17,2815L1143.33,4167.08C1152.5,4240.42 1195.28,4286.25 1271.67,4304.58C1317.5,4310.69 1364.86,4318.33 1413.75,4327.5C1462.64,4336.67 1494.72,4359.58 1510,4396.25C1506.94,4411.53 1502.36,4427.57 1496.25,4444.38C1490.14,4461.18 1477.92,4471.11 1459.58,4474.17L726.25,4474.17C701.806,4373.33 723.194,4322.92 790.417,4322.92C851.528,4338.19 894.306,4319.86 918.75,4267.92C918.75,4176.25 927.917,3995.97 946.25,3727.08C961.528,3500.97 969.167,3320.69 969.167,3186.25C969.167,2975.42 953.889,2785.97 923.333,2617.92C920.278,2590.42 890.486,2558.33 833.958,2521.67C777.431,2485 749.167,2455.97 749.167,2434.58C749.167,2413.19 764.444,2388.75 795,2361.25C993.611,2367.36 1103.61,2371.94 1125,2375C1244.17,2396.39 1326.67,2455.97 1372.5,2553.75C1543.61,2737.08 1986.67,3166.39 2701.67,3841.67L2729.17,3809.58C2747.5,3662.92 2753.61,3467.36 2747.5,3222.92C2738.33,2932.64 2736.81,2738.61 2742.92,2640.83C2733.75,2582.78 2700.14,2543.82 2642.08,2523.96C2584.03,2504.1 2527.5,2486.53 2472.5,2471.25C2472.5,2471.25 2467.92,2445.28 2458.75,2393.33L2522.92,2361.25C2587.08,2373.47 2695.56,2375 2848.33,2365.83C2988.89,2359.72 3097.36,2365.83 3173.75,2384.17Z" style="fill:none;fill-rule:nonzero;stroke:rgb(0,0,255);stroke-width:4.17px;"/>
    </g>
</svg>
