<?xml version="1.0" encoding="UTF-8" standalone="no"?>
<!DOCTYPE svg PUBLIC "-//W3C//DTD SVG 1.1//EN" "http://www.w3.org/Graphics/SVG/1.1/DTD/svg11.dtd">
<svg width="100%" height="100%" viewBox="0 0 6000 3600" version="1.1" xmlns="http://www.w3.org/2000/svg" xmlns:xlink="http://www.w3.org/1999/xlink" xml:space="preserve" xmlns:serif="http://www.serif.com/" style="fill-rule:evenodd;clip-rule:evenodd;stroke-linejoin:round;stroke-miterlimit:2;">
    <g transform="matrix(1,0,0,1,-4076.24,-2221.14)">
        <path d="M5914.58,4006.67L5813.75,4423.75L5767.92,4474.17L4237.08,4474.17C4185.14,4434.44 4180.56,4394.72 4223.33,4355C4250.83,4339.72 4279.86,4322.92 4310.42,4304.58C4340.97,4286.25 4363.89,4263.33 4379.17,4235.83C4418.89,3688.89 4428.06,3135.83 4406.67,2576.67C4397.5,2536.94 4368.47,2507.92 4319.58,2489.58C4282.92,2495.69 4252.36,2486.53 4227.92,2462.08C4224.86,2431.53 4228.68,2404.03 4239.38,2379.58C4250.07,2355.14 4270.69,2342.92 4301.25,2342.92C4490.69,2355.14 4748.89,2356.67 5075.83,2347.5C5436.39,2338.33 5693.06,2336.81 5845.83,2342.92L5873.33,2379.58C5867.22,2410.14 5865.69,2483.47 5868.75,2599.58C5868.75,2691.25 5858.06,2761.53 5836.67,2810.42C5827.5,2828.75 5804.58,2833.33 5767.92,2824.17C5743.47,2802.78 5714.44,2746.25 5680.83,2654.58C5656.39,2578.19 5612.85,2533.89 5550.21,2521.67C5487.57,2509.44 5419.58,2503.33 5346.25,2503.33C5294.31,2503.33 5198.06,2509.44 5057.5,2521.67C4938.33,2530.83 4843.61,2533.89 4773.33,2530.83L4727.5,2599.58C4721.39,2648.47 4722.92,2747.78 4732.08,2897.5C4738.19,3016.67 4733.61,3108.33 4718.33,3172.5C4706.11,3264.17 4727.5,3314.58 4782.5,3323.75C4858.89,3308.47 4971.18,3297.78 5119.38,3291.67C5267.57,3285.56 5381.39,3273.33 5460.83,3255C5488.33,3242.78 5515.83,3204.58 5543.33,3140.42C5567.78,3085.42 5596.81,3057.92 5630.42,3057.92C5642.64,3057.92 5657.92,3060.97 5676.25,3067.08C5703.75,3091.53 5717.5,3125.14 5717.5,3167.92C5717.5,3146.53 5706.81,3201.53 5685.42,3332.92L5667.08,3750C5645.69,3789.72 5615.14,3795.83 5575.42,3768.33C5554.03,3746.94 5534.17,3698.06 5515.83,3621.67C5497.5,3557.5 5465.42,3517.78 5419.58,3502.5C5202.64,3478.06 4987.22,3467.36 4773.33,3470.42C4730.56,3559.03 4709.17,3673.61 4709.17,3814.17C4709.17,3853.89 4712.22,3918.06 4718.33,4006.67C4724.44,4095.28 4727.5,4160.97 4727.5,4203.75C4745.83,4252.64 4771.81,4283.19 4805.42,4295.42C4854.31,4307.64 4916.94,4307.64 4993.33,4295.42C5094.17,4283.19 5156.81,4277.08 5181.25,4277.08C5236.25,4277.08 5285.14,4286.25 5327.92,4304.58C5517.36,4301.53 5665.56,4196.11 5772.5,3988.33C5781.67,3963.89 5819.86,3956.25 5887.08,3965.42L5914.58,4006.67Z" style="fill:none;fill-rule:nonzero;stroke:rgb(0,0,255);stroke-width:4.17px;"/>
    </g>
</svg>
