<?xml version="1.0" encoding="UTF-8" standalone="no"?>
<!DOCTYPE svg PUBLIC "-//W3C//DTD SVG 1.1//EN" "http://www.w3.org/Graphics/SVG/1.1/DTD/svg11.dtd">
<svg width="100%" height="100%" viewBox="0 0 6000 3600" version="1.1" xmlns="http://www.w3.org/2000/svg" xmlns:xlink="http://www.w3.org/1999/xlink" xml:space="preserve" xmlns:serif="http://www.serif.com/" style="fill-rule:evenodd;clip-rule:evenodd;stroke-linejoin:round;stroke-miterlimit:2;">
    <g transform="matrix(1,0,0,1,-4623.14,-2219.87)">
        <path d="M7262.08,2388.75C7265.14,2397.92 7266.67,2407.08 7266.67,2416.25C7266.67,2434.58 7237.64,2457.5 7179.58,2485C7149.03,2481.94 7120.76,2490.35 7094.79,2510.21C7068.82,2530.07 7055.83,2555.28 7055.83,2585.83C7025.28,2711.11 7010,2882.22 7010,3099.17L7010,3250.42C7013.06,3317.64 7014.58,3368.06 7014.58,3401.67C7014.58,3676.67 6987.08,3887.5 6932.08,4034.17C6858.75,4238.89 6718.19,4387.08 6510.42,4478.75C6305.69,4524.58 6116.25,4547.5 5942.08,4547.5C5547.92,4547.5 5260.69,4428.33 5080.42,4190C5019.31,4006.67 4988.75,3760.69 4988.75,3452.08L4988.75,3236.67C4991.81,3141.94 4993.33,3071.67 4993.33,3025.83C4993.33,2830.28 4982.64,2666.81 4961.25,2535.42C4949.03,2504.86 4909.31,2483.47 4842.08,2471.25C4774.86,2459.03 4741.25,2443.75 4741.25,2425.42C4741.25,2407.08 4758.06,2381.11 4791.67,2347.5C4962.78,2350.56 5214.86,2353.61 5547.92,2356.67C5575.42,2371.94 5578.47,2400.97 5557.08,2443.75C5535.69,2468.19 5492.15,2484.24 5426.46,2491.88C5360.76,2499.51 5320.28,2523.19 5305,2562.92C5295.83,2697.36 5292.78,2871.53 5295.83,3085.42C5298.89,3354.31 5300.42,3526.94 5300.42,3603.33C5309.58,3630.83 5324.86,3740.83 5346.25,3933.33C5361.53,4067.78 5407.36,4164.03 5483.75,4222.08C5627.36,4329.03 5807.64,4382.5 6024.58,4382.5C6159.03,4382.5 6307.22,4361.11 6469.17,4318.33C6557.78,4266.39 6631.11,4188.47 6689.17,4084.58C6716.67,4038.75 6757.92,3942.5 6812.92,3795.83C6834.31,3288.61 6837.36,2888.33 6822.08,2595C6809.86,2540 6756.39,2508.68 6661.67,2501.04C6566.94,2493.4 6519.58,2469.72 6519.58,2430C6519.58,2408.61 6528.75,2381.11 6547.08,2347.5L7083.33,2338.33C7184.17,2335.28 7243.75,2352.08 7262.08,2388.75Z" style="fill:none;fill-rule:nonzero;stroke:rgb(0,0,255);stroke-width:4.17px;"/>
    </g>
</svg>
